<svg width="30" height="28" viewBox="0 0 30 28" fill="none" xmlns="http://www.w3.org/2000/svg">
<path fill-rule="evenodd" clip-rule="evenodd" d="M14.9999 27.5454L20.5237 10.6001H9.47656L15.0001 27.5454H14.9999Z" fill="white"/>
<path fill-rule="evenodd" clip-rule="evenodd" d="M14.9997 27.5454L9.47593 10.6001H1.73438L14.9999 27.5453L14.9997 27.5454Z" fill="white"/>
<path fill-rule="evenodd" clip-rule="evenodd" d="M1.73476 10.5997L0.0560112 15.7491C-0.0970007 16.2189 0.0706302 16.7335 0.471596 17.0237L15 27.545L1.73476 10.5996V10.5997Z" fill="white"/>
<path fill-rule="evenodd" clip-rule="evenodd" d="M1.73446 10.5999H9.47601L6.1489 0.393859C5.97777 -0.131286 5.23245 -0.131286 5.06141 0.393859L1.73438 10.5999H1.73446Z" fill="white"/>
<path fill-rule="evenodd" clip-rule="evenodd" d="M15 27.5454L20.5238 10.6001H28.2653L15.0002 27.5453L15 27.5454Z" fill="white"/>
<path fill-rule="evenodd" clip-rule="evenodd" d="M28.2652 10.5997L29.944 15.7491C30.097 16.2189 29.9294 16.7335 29.5284 17.0237L15 27.545L28.2652 10.5996V10.5997Z" fill="white"/>
<path fill-rule="evenodd" clip-rule="evenodd" d="M28.266 10.5999H20.5244L23.8515 0.393859C24.0227 -0.131286 24.7681 -0.131286 24.9392 0.393859L28.266 10.5999H28.266Z" fill="white"/>
</svg>
