<svg width="30" height="30" viewBox="0 0 30 30" fill="none" xmlns="http://www.w3.org/2000/svg">
<rect width="30" height="30" rx="5" fill="white"/>
<path d="M15 5C9.4777 5 4.99302 9.48454 5.00001 15.0011C5.00141 16.1044 5.17761 17.1657 5.50763 18.1586H8.50021V9.74603L15 16.2456L21.4998 9.74603V18.1586H24.4924C24.8238 17.1657 24.9986 16.1044 25 14.9997C25.0098 9.47894 20.5223 5.0014 15 5Z" fill="#434241"/>
<path d="M13.5043 17.662L10.6669 14.8247V20.1189H9.58178H8.49801H6.45215C8.20715 22.9981 11.3801 24.9251 14.9992 24.9251C18.6183 24.9251 21.7898 22.9981 23.5462 20.1189H21.499H19.5594H19.3301V14.8247L16.4927 17.662L14.9992 19.1568L13.5043 17.662Z" fill="#434241"/>
</svg>
