<svg fill="none" height="46" viewBox="0 0 46 46" width="46" xmlns="http://www.w3.org/2000/svg"><path d="m37.1429 1h-28.28578c-4.33724.00516-7.85196 3.51988-7.85712 7.85712v28.28578c.00516 4.3372 3.51988 7.8519 7.85712 7.8571h28.28578c4.3372-.0052 7.8519-3.5199 7.8571-7.8571v-28.28578c-.0052-4.33724-3.5199-7.85196-7.8571-7.85712zm2.7658 19.8802c-.0526.0614-.1099.1187-.1713.1713l-11.0001 9.4286c-.6588.5649-1.6508.4889-2.2158-.1698-.2446-.2853-.3789-.6487-.3786-1.0245v-4.7143h-9.4286c-.8679 0-1.5714-.7036-1.5714-1.5715v-2.4907l-5.63517 5.6335 5.63517 5.6352v-2.4922c0-.868.7035-1.5715 1.5714-1.5715h4.7143c.8679 0 1.5715.7035 1.5715 1.5715 0 .8679-.7036 1.5714-1.5715 1.5714h-3.1428v4.7143c.0002.6355-.3825 1.2086-.9696 1.452-.1907.0795-.3952.1201-.6019.1195-.4165.0003-.816-.1648-1.111-.4588l-9.42854-9.4286c-.61405-.6133-.6146-1.6083-.00119-2.2224.00037-.0003.00083-.0008.00119-.0012l9.42854-9.4286c.6138-.6136 1.6088-.6134 2.2224.0004.2945.2947.46.6941.4601 1.1107v4.7143h9.4286c.8679 0 1.5714.7036 1.5714 1.5715v2.871l7.0134-6.0139-7.0134-6.011v2.8679c0 .8679-.7036 1.5715-1.5715 1.5715h-4.7143c-.8679 0-1.5715-.7036-1.5715-1.5715s.7036-1.5714 1.5715-1.5714h3.1428v-4.7143c.0001-.86792.7037-1.57139 1.5716-1.57129.3752 0 .7381.13434 1.0229.37861l11 9.42858c.6592.5645.7359 1.5566.1714 2.2157z" fill="#fff" stroke="#fff" stroke-width=".6"/></svg>