<svg fill="none" height="43" viewBox="0 0 46 43" width="46" xmlns="http://www.w3.org/2000/svg"><g fill="#fff"><path d="m37.0981 24.3255c0 2.0664 1.6811 3.7474 3.7474 3.7474h5.1541v-7.4948h-5.154c-2.0663.0001-3.7475 1.6812-3.7475 3.7474zm5.7967.1101c0 .8343-.6764 1.5107-1.5107 1.5107s-1.5106-.6764-1.5106-1.5107.6763-1.5106 1.5106-1.5106c.8343.0001 1.5107.6764 1.5107 1.5106z"/><path d="m40.8458 30.9748c-3.6664 0-6.6492-2.9829-6.6492-6.6494 0-3.6664 2.9829-6.6493 6.6492-6.6493h5.1542v-5.0637c0-3.42533-2.7867-6.21201-6.212-6.21201h-33.57602c-3.4253 0-6.21198 2.78668-6.21198 6.21201v23.2457c0 3.4253 2.78668 6.212 6.21198 6.212h33.57612c3.4253 0 6.212-2.7867 6.212-6.212v-4.8833z"/><path d="m6.21192 3.49848c36.49698 0 33.88128-.03011 34.68258.06729-.9955-2.10537-3.1393-3.56577-5.6185-3.56577h-29.06408c-3.33533 0-6.063977 2.64249-6.20508406 5.94364 1.62817406-1.51609 3.80998406-2.44516 6.20508406-2.44516z"/></g><path clip-rule="evenodd" d="m5.00001 23.9998c-.00839-6.619 5.37259-11.9998 11.99849-11.9998 6.6259.0017 12.0102 5.3741 11.9985 11.9981-.0017 1.3255-.2115 2.5989-.6091 3.7902h-3.5907v-10.0938l-7.7987 7.7985-7.79877-7.7985v10.0938h-3.59065c-.39598-1.1913-.60739-2.4647-.60907-3.7885zm6.79979-.1175 3.4044 3.4043 1.7937 1.7936 1.7919-1.7936 3.4044-3.4043v6.3522h.2752 2.3272 2.4564c-2.1074 3.4547-5.9128 5.7667-10.2551 5.7667-4.3424 0-8.14947-2.312-10.2552-5.7667h2.45473 1.30037 1.302z" fill="#323232" fill-rule="evenodd"/></svg>