<svg fill="none" height="425" viewBox="0 0 1440 425" width="1440" xmlns="http://www.w3.org/2000/svg"><g fill="#fff" opacity=".15"><path d="m986.32 253.94c-.7-.35-1.749 0-2.449.699l-20.285-22.034c.349-.35.699-.7.699-1.399.35-1.399-.699-3.148-2.098-3.498-1.399-.349-3.148.7-3.498 2.099v.35l-135.704 1.748c0-1.049-1.05-2.098-2.099-2.448s-2.098.35-2.798 1.049l-64.005-38.473c0-.349.35-.349.35-.699.35-1.399-.7-3.148-2.099-3.498-1.399-.349-3.147.7-3.497 2.099v.699l-99.33 14.34c-.35-1.049-1.05-1.749-2.099-2.098-1.399-.35-2.448.349-3.148 1.399l-102.827-39.872c.349-1.399-.7-3.148-2.099-3.498-1.399-.349-3.148.7-3.497 2.099v1.399l-73.798 31.128c-.35-.7-1.05-1.399-1.749-1.399-1.399-.35-2.448.35-3.148 1.399l-91.635-38.473c.349-1.399-.7-3.148-2.099-3.498-1.399-.349-2.798.35-3.148 1.749l-119.965-34.276c.349-1.399-.7-2.798-2.099-3.147-.699 0-1.399 0-2.098.349l-82.892-112.27068c.35-.34975.699-.69949.699-1.39899.35-1.39902-.699-3.14779-2.098-3.49754-1.399-.349756-3.148.6995-3.498 2.09852v.34974l-141.99967 11.54185c-.34977-1.0492-1.04929-1.7487-2.09855-2.0985-1.39901-.3498-3.14779.6995-3.497523 2.0985v1.399l-117.867257 47.9163c-.35-.6995-1.049-1.0492-1.749-1.399-1.399-.3497-3.147.6995-3.497 2.0985-.35.6995 0 1.399.35 2.0985l-99.68 83.2418c-.35-.35-.7-.7-1.399-.7-1.399-.35-3.148.7-3.498 2.099v.699l-128.709 20.985c-.35-1.049-1.049-1.748-2.099-2.098-1.399-.35-3.147.699-3.497 2.098s.699 3.148 2.098 3.498c.7 0 1.399 0 2.099-.35l45.818 62.256c-.35.35-.7.7-1.05 1.399-.349 1.399.7 3.148 2.099 3.498 1.049.35 2.098 0 2.798-.7l88.138 64.355c0 .35-.35.35-.35.7-.35 1.399.7 3.147 2.099 3.497s3.147-.699 3.497-2.098c0-.35 0-1.05 0-1.399l103.527-39.872c.35.699 1.05 1.399 1.749 1.399 1.399.349 2.798-.35 3.148-1.749l123.4629 30.778c0 1.399.6996 2.798 2.0986 3.148 1.0493.35 2.0985 0 2.4482-.699l101.0793 78.694c0 .35-.35.35-.35.7-.35 1.399.699 3.147 2.098 3.497s3.148-.699 3.498-2.098c0-.35 0-.7 0-1.399l51.414-15.39c.349.7 1.049 1.399 2.098 1.749 1.05.35 2.449-.349 3.148-1.399l98.281 48.966v.35c-.35 1.399.699 3.147 2.098 3.497s3.148-.699 3.498-2.098c0-.7 0-1.05 0-1.399l114.369-55.262c.35.7 1.05 1.05 1.749 1.399 1.05.35 2.099-.349 2.798-1.049l100.38 60.508-.35.349c-.35 1.399.699 3.148 2.098 3.498s3.148-.7 3.498-2.099c0-.699 0-1.399-.35-1.748l77.646-45.119c.349.7 1.049 1.05 1.748 1.05 1.399.349 3.148-.7 3.498-2.099 0-.35 0-.699 0-1.399l113.32-42.32c.35.699 1.049 1.399 1.749 1.399 1.399.35 3.148-.7 3.497-2.099.35-.699 0-1.748-.349-2.098l27.28-23.434 116.469-.349c0 1.049 1.049 2.098 2.098 2.448 1.399.35 3.148-.7 3.497-2.099 0-.349 0-1.049 0-1.399l118.917-45.468c.35.7 1.049 1.399 1.749 1.399 1.399.35 3.147-.699 3.497-2.098.35-1.049-.35-2.448-2.098-2.798zm-1341.656-79.394 128.709-20.986c0 .35.35.7.35 1.05l-81.143 84.64c-.35-.35-.699-.35-1.049-.35-.7 0-1.399 0-2.099.35l-45.817-62.256c.349-.35.699-.7 1.049-1.399 0-.7 0-1.049 0-1.049zm952.03 197.611c-.35-.35-.7-.7-1.049-.7l24.482-65.054c1.05 0 1.749-.7 2.099-1.749l65.754 18.537zm-308.833 40.921c-.35 0-.699 0-1.049 0l-26.931-123.114c.699-.349 1.399-1.049 1.749-1.748l67.852 11.542c0 1.049.35 2.098 1.399 2.798zm-103.177-51.414c-.35 0-1.049 0-1.399 0l-46.168-105.276c.7-.35 1.05-.699 1.05-1.399l118.566 31.828c0 .699 0 1.399.7 2.098l-71.7 73.099c-.35-.35-.699-.35-1.049-.35zm-491.404-122.064 81.143-84.641c.349.35.699.35 1.049.35h1.049l12.591 64.705c-1.049.349-1.749 1.049-2.098 2.098v.7l-93.385 17.487c0-.349 0-.699-.349-.699zm189.916-171.3795 64.7045 69.2515c-.3498.35-.3498.699-.6995 1.049l-67.153-10.493c0-1.399-.699-2.798-2.098-2.798 0 0 0 0-.35 0l4.197-56.31c.35 0 1.049-.3497 1.399-.6995zm267.911-61.55666-14.689 92.33506c-1.399 0-2.449.6995-2.798 2.0981l-64.355-6.2952c0-.6995-.3497-1.399-.6995-1.7488l81.8425-86.7389c0 .34975.35.34974.699.34974zm83.941 114.02016v.699l-47.566 15.04-48.966-33.227s0-.35.35-.35zm514.488 72.049c.35.35.7.699 1.399 1.049l-30.079 107.025-53.162-68.202zm72.749 41.97c.35-.349.7-.699 1.049-1.399l93.035 21.335-80.443 3.498zm94.084 20.986c0 .349.35.699.35 1.049l-53.163 45.468c-.35-.35-.699-.7-1.399-.7-.699 0-1.399 0-1.749.35l-24.482-42.32zm1.049 1.399c.35.349.7.699 1.399.699 1.399.35 3.148-.699 3.498-2.098v-.35h5.246l-59.108 43.369zm4.547-2.099c0-.35 0 0 0 0l8.744-2.098-3.148 2.448zm-126.611 3.498c-.35-.35-.7-.35-1.049-.7-.35 0-.7 0-1.05 0l22.035-19.936zm-4.547 1.399c-.35.699 0 1.399.35 2.098l-7.695 4.897zm4.547-1.05 23.433-24.133c.35.35.7.35 1.05.7.699 0 1.399 0 1.749-.35l13.64 23.434-39.173 1.748c0-.699.001-1.049-.699-1.399zm162.286-12.241-24.483 5.246 9.793-6.995zm0-1.049-13.99-1.399 16.088-11.892c.35.35.7.7 1.399.7h.35l-1.049 10.142c-1.049.35-2.448 1.05-2.798 2.449zm-15.04-1.399-3.497-.35 18.537-10.842zm-.699.699-10.143 7.695-9.793 2.098v-.349l16.438-9.444zm-20.286 8.744c-.349-.699-1.049-1.049-1.749-1.049-1.399-.35-2.798.35-3.147 1.749l-90.936-20.986 111.921 11.192zm-129.409 4.197-1.399-2.448 24.833-18.187zm-.699.35-11.892 10.842-50.015 31.478 60.508-44.768zm-258.818 92.335c-.35-.35-.7-.7-1.049-1.049l22.734-62.606 15.039 3.847 10.143 34.276zm-270.71-62.956c0-.699 0-1.399-.349-1.749l35.675-31.827 33.576 43.719c-.35.35-.7.7-.7 1.399zm-123.812-33.226c0-.35 0-.7 0-1.05l86.739-34.625 32.876 66.103c-.349.35-.699.7-1.049 1.399zm-258.469-125.212c0-.35 0 0 0 0l67.503 10.492c0 1.05.3497 2.099 1.3989 2.449l-8.0443 17.837zm357.449-5.596h.699l1.749 45.817c-.699 0-1.399.35-1.749 1.05l-24.133-16.439 22.734-30.778s.35.35.7.35zm60.507 129.758 54.912-49.315-19.936 92.685c-.7 0-1.05 0-1.749.35zm-94.433-81.842 20.985 12.241-11.542 9.094-10.143-20.636c.35 0 .7-.349.7-.699zm.349-.35c0-.35.35-.35.35-.699l33.227 1.748c0 .35 0 .7.35 1.399l-12.591 10.143zm34.276 2.798c.35.35.7.7 1.399.7h.7l3.148 19.586-17.838-10.493zm19.587 31.128-10.843 4.197-2.448-13.99 13.291 7.695c0 .349-.35.349-.35.699 0 .7 0 1.05.35 1.399zm0 .7c.349.699 1.049 1.049 1.748 1.399h.35l-.699 76.946-12.592-73.798zm.349-3.148-13.64-8.044-3.498-19.936c.35 0 .35 0 .7-.35l17.138 27.63c-.35.35-.7.7-.7.7zm-59.458-33.227-96.882-4.896v-.35l72.05-22.734 25.532 26.581c-.35.7-.7 1.05-.7 1.399zm2.099 3.498h1.399l10.143 20.635-74.498 58.409 62.256-79.744c0 .35.35.35.7.7zm-62.606 79.744 74.497-58.759 11.892 24.133-86.389 34.626c.35 0 .35 0 0 0zm75.197-59.109 11.892-9.443 18.536 10.842 2.449 14.69-20.636 8.394zm32.877 16.789 12.591 74.147-32.877-66.103zm13.99 74.147h-.35l.7-77.295c.349 0 .699 0 1.049-.35l35.325 46.517-35.675 31.828c0-.35-.35-.7-1.049-.7zm2.098-77.995c.35-.349.7-.699.7-1.399 0-.349 0-.349 0-.699l91.635-9.094-1.748 7.345-55.611 50.015zm91.636-3.497 7.345-6.646c.349.35.35.35.699.35l-26.931 93.384zm6.645-8.744-4.547.699.35-1.399zm0 .699c0 .35.35.7.35 1.05l-6.645 5.945 1.399-6.645zm7.695 8.744 50.714 87.089-1.749 3.847h-3.147zm200.409-16.788 24.483 55.961-29.03 19.936c-.35-.35-.7-.7-1.399-1.05 0 0 0 0-.35 0l4.547-76.246zm72.749 55.611c0 .35-.35.35-.35.699v1.05l-4.547 1.049 1.399-5.596zm-22.035 58.409-19.936-45.468 36.374-9.444-15.389 54.912c-.349 0-.699 0-1.049 0zm-54.562-37.424 28.68-19.936 4.897 11.542-33.577 8.744s0 0 0-.35zm0 2.798c0-.35.35-.35.35-.699 0-.35 0-.7 0-1.05l33.926-8.743 19.936 45.468c-.349 0-.699.349-.699.699zm71.7-20.286 4.897-1.399c.349.7.699 1.05 1.399 1.399l-1.749 4.897-18.887 47.916zm-.35-.349-36.724 9.443-5.246-11.892 25.532-17.487 18.187 13.64zm-42.32-2.798-24.133-54.912 49.315 37.424zm-82.192 32.527-27.631-6.995s0 0 0-.35l74.498-2.798zm-87.439 18.537 35.326-15.739-32.178 15.039zm-4.197-1.399c-.349.349-1.049 1.049-1.049 1.748v.35h-.699l1.399-3.148zm-2.098 2.798h1.049c0 .349.35.699.35 1.049l-1.049.7c-.35-.35-.35-.35-.7-.7zm.35 2.098c0-.349 0 0 0 0l1.049-1.049.35.35zm11.192-4.896 49.665-23.434c0 .35.35.35.35.35l-12.242 15.039zm50.714-22.385c.35.35.7.35 1.049.35.7 0 1.399 0 1.749-.35l5.596 9.794-20.286 4.197zm3.148 0c.35-.349.699-.699 1.049-1.049l26.232 6.646-21.335 4.546zm-4.197-3.497-.35.35v1.399l-54.911 24.482c-.35-.349-.7-.699-1.05-1.049l19.237-48.616zm-61.907 28.68-.349 1.049s0 0-.35 0c-.7 0-1.049 0-1.749 0l-.35-.7zm1.399 2.448 1.399-.699c.35 0 .35.349.7.349l-.7 2.798-1.399-.699s0 0 0-.35c.35-.35 0-1.049 0-1.399zm5.596-2.798 2.099-1.049 39.872-8.394-18.537 22.734-23.783-12.592c.349 0 .349-.349.349-.699.35.35 0 0 0 0zm89.188-19.236 46.167-9.794c.35.7.7 1.399 1.399 1.399l-6.995 18.887zm48.266-8.045h1.049l6.645 22.384-14.689-3.847zm1.748-.35c.35-.349.7-.349 1.05-.699l53.162 35.675v.35l-47.566-12.242zm78.345-25.532-3.497-2.798 8.394-30.078-2.798 32.177c-.7 0-1.399 0-2.099.699zm-182.221-41.62h1.049l19.586 65.054c-.35.35-.699.35-1.049.699l-37.074-23.083zm-98.981-6.995s0 .349 0 0l-4.547-.7.35-1.749zm-122.763-22.385c0 .35-.35.35-.35.7l-33.227-1.749c0-.699-.35-1.399-1.049-1.749l10.143-13.64zm-64.705-29.729-71.699 22.734c-.35-.349-.35-.699-.7-1.049l34.626-58.059c.349 0 .349.35.699.35.7.349 1.749 0 2.449-.7zm-38.473-36.724-34.6254 58.059c-.3498 0-.3498-.349-.6995-.349-.6995 0-1.0493 0-1.7488 0l-17.1379-36.725 53.1626-22.034c.699.35.7.699 1.049 1.049zm-68.9013-6.6452h1.7488l12.5911 27.2812-56.6601 23.433 41.271-51.0639c.3497.3497.6995.3497 1.0492.3497zm-43.3695 51.0642-8.394 3.497s-.0001-.349-.3498-.349l47.5665-50.715zm-12.24135 7.694c.34975 0 .34975.35.69945.35h.3498l.3498 5.596-17.48773 21.335zm1.74875 0c1.0493-.349 2.0986-1.049 2.0986-2.098l3.1477.35-5.2463 6.295zm2.4483-2.448c0-.35 0-.699 0-.699l7.3449-3.148-3.4976 4.197zm-62.2562-12.591c.3498-.35.3498-.699.6996-1.049l51.41375 11.891c-.34973 1.399.6995 2.798 2.09851 3.148.6995.35 1.74881 0 2.44831-.699 0 0-.00003 0 .34973.349.34976.35.34973.7.69949 1.05l-16.08865 27.63c-.34976 0-.34973-.349-.69949-.349-.6995-.35-1.74881 0-2.44831.699zm66.4532 12.941 3.8473-4.897 57.7094-24.133 17.138 36.725c-.6996.349-1.0493 1.049-1.399 1.748zm315.4781 142.7 28.68-100.03h1.399l49.315 97.931-77.995 4.197c0-1.049-.7-1.749-1.399-2.098zm133.606-11.892 21.335-4.547 40.222 68.902c-.35.349-.35.349-.7.699l-79.744-41.97zm63.655 64.355c-.699 0-1.399 0-1.749.349l-39.872-68.901 22.385-4.897 41.97 10.843zm90.237-48.266 9.443-23.784-9.094 24.133c-.349-.349-.349-.349-.349-.349zm24.832-55.961c0-.35.35-.35.35-.7 0-.699 0-1.049 0-1.399l15.739-7.694 19.936 37.424zm0-36.724-8.394 30.079-17.488-13.641 24.483-17.138c.7.35 1.049.7 1.399.7zm-76.946-22.035-.349-1.049c.349 0 .349-.35.699-.35l50.365 39.872zm-4.896-2.798c.349.35.699.7.699 1.05l-17.138 16.788-3.497-15.04zm1.049 1.399c.35.35.7.35 1.049.7h.35l-4.897 76.246s.001 0-.349 0l-13.641-59.808zm-4.197 77.296c-.35 0-1.049.35-1.399.699l-44.069-29.029 31.478-31.128zm-1.399 1.049c0 .35-.35.35-.35.7v.349l-75.197 2.798c0-.349-.35-1.049-.699-1.399l31.827-31.477zm-76.596 2.099 21.335-38.473 10.492 6.995zm-.7-.35s-.349 0-.349-.35c-.35 0-.7 0-1.05 0l-19.586-65.054c.35 0 .7-.35 1.049-.7l41.621 27.631zm-40.571-22.384-1.049-.7 12.241-28.33zm-.35.699-19.236 48.616c-.35 0-1.05 0-1.399 0l-.7-1.749 20.636-47.217zm-22.034 45.818-33.926-80.443 54.211 33.576zm-.35.35-54.212-93.385c.35 0 .35-.349.35-.349l19.236 11.891zm-58.409-97.232-4.197-2.448 6.645-30.429-.35 32.178c-.699-.35-1.399 0-2.098.699zm-4.897-2.098-.349 2.098-49.316-9.093 21.335-9.794zm-.699 2.798-.35 1.748-91.985 9.094v-.35l41.97-19.236zm-92.685 9.793c-.35-.7-1.049-1.05-1.749-1.399-.349 0-.699 0-1.049 0l-6.995-26.931 51.064 9.093zm-3.148-1.05h-.349l-17.138-27.63c.349-.35.699-.7 1.049-1.399l9.443 1.749zm-16.438-29.729 8.394-1.049.7 2.798zm-.35-.699c-.35-1.049-1.049-1.749-2.098-2.099-.35 0-.35 0-.7 0l-1.749-45.817 12.592 46.867zm-29.729-17.488-10.143 13.641c-.349 0-.699-.35-.699-.35-.7-.35-1.749 0-2.449.699l-25.182-26.581 13.291-4.197zm-39.172-13.29-35.325-37.074 48.615 32.877zm-40.222-38.124-53.1626 22.035-12.5911-27.2809c.6995-.3498 1.0492-1.0493 1.399-1.7488l64.3547 6.2957zm-69.2513-5.5957-51.0641 54.5617c-.3497-.35-.6994-.7-1.399-.7h-.3497l-1.74881-33.576 54.21181-20.6354s.3498 0 .3498.3497zm-53.5124 53.8617c-.3497 0-.69942.35-1.39894.7-.34973-.7-1.04925-1.049-1.74875-1.399-1.39902-.35-2.79806.35-3.14783 1.749l-51.41378-11.892c0-.35 0-.699 0-1.049l56.31036-21.685zm-61.5566-8.394s.3498 0 0 0c1.0493.35 1.7488 0 2.4483-.349l38.4729 42.67-.3498.349-48.6157-24.482zm45.11823 41.971 17.48767-21.335 1.399 18.887-17.83738 3.497c-.34976-.35-.69953-.699-1.04929-1.049zm18.18717-22.384 5.9458-7.345 77.6454 9.793v.35l-82.1921 16.788zm89.1869 3.497c0-.35 0-.35 0 0l96.882 4.897c0 .699.35 1.399.7 1.748l-62.256 79.744c-.35 0-.35-.35-.7-.35s-1.049 0-1.399 0l-34.9754-84.29c.6994-.35 1.3994-1.049 1.7484-1.749zm312.331 129.759.349 1.049c-.699.35-1.049 1.049-1.049 1.749v.35l-68.552.699zm4.197 4.896 1.748.7-11.891 51.414 7.694-51.064c1.05.349 2.099-.35 2.449-1.05zm-10.493 55.261 12.591-54.211 24.133 11.192-36.024 43.369c-.35 0-.35-.35-.7-.35zm12.591-54.911.7-3.148c1.049 0 2.098-.349 2.798-1.049l23.433 12.241-2.448 3.148zm27.631 8.394 70.65 37.074-73.099-33.926zm122.414-17.837 46.867 12.241c0 .35 0 1.049.349 1.399l-37.074 20.286zm47.566 13.99c.35.35.7.699 1.049 1.049l-21.684 60.158-1.749 4.896c-.35 0-.7 0-1.049 0l-13.641-45.817zm1.399 1.399h.35l-10.143 26.931zm2.798-4.547 20.985-55.261c.7.35 1.399 0 2.099-.35l46.517 57.71-69.251-.7c.35-.699 0-1.049-.35-1.399zm23.783-56.31 37.074 28.33 16.089 30.079h-6.296zm66.454 81.492-6.646-12.591 13.641-7.345-5.596 19.587c-.7 0-1.05.349-1.399.349zm-6.996-13.29-4.896-9.444h19.586l-.35 1.749zm15.39-9.094c.349.35.349.35.349.7l-.699.349zm3.148-3.148c-.7 0-1.4 0-1.749.35l-.7-.699 24.133-86.39zm-2.099 1.05-.35-.35v-.35zm-.7.349c0 .35-.349.35-.349.7v.35zm-1.049 1.05h-20.286l-15.389-29.03 36.025 27.631zm-20.635.699 5.246 9.793-2.448 1.399-9.094-11.192zm5.596 10.143 6.295 11.892-8.744-10.493zm15.039-8.044 1.399-.7c.35.35.7.7 1.049.7l-7.694 18.537zm-58.059-72.399-15.739 7.694c-.35-.699-1.049-1.049-1.749-1.399 0 0 0 0-.349 0l2.798-32.177h1.049zm-117.517-48.616-4.197-18.887c.349 0 .699-.35 1.049-.699l22.384 17.138zm-181.872-26.581-6.646 30.428-27.98-16.438 32.877-15.04c.699.7 1.049 1.05 1.749 1.05zm-126.261-36.375-22.734 30.778-24.833-16.788 46.867-14.689c0 .349.35.349.7.699zm-342.759 141.65c-.35 0-.35 0-.7 0l-15.039-133.606c.699 0 1.399-.699 1.749-1.049l60.8569 30.779zm832.064 38.124c-.35-.35-.699-.7-1.049-.7l27.281-108.074c.699 0 1.049 0 1.399-.35l36.724 61.207zm-4.896-1.399v.349l-37.074-27.98-20.636-38.823 4.547-2.098zm-58.059-67.153-13.291-24.833 17.488 22.734zm-18.188-28.33c0 .699 0 1.399.35 1.749l-24.832 17.137-50.365-39.871s0-.35.35-.35zm-80.093-22.734-18.188-13.641 18.537 12.242c0 .35-.349.35-.349.699zm-25.882-16.089h1.049l4.197 18.887-17.837 2.448 11.891-21.335zm5.596 19.586 3.498 15.389-32.178 31.478-10.842-6.995 20.985-37.773zm-39.872 39.872-41.621-27.63c0-.35.35-.35.35-.7s0-.35 0-.699l62.256-8.394zm-45.468-26.581-18.187 41.97-55.261-34.275-5.247-12.592 77.296 2.449c0 1.399.699 2.098 1.399 2.448zm-74.497 6.995-18.537-11.542.349-.35s0 0 0-.349l13.291.349zm-18.188-12.591c0-1.049-1.049-2.448-2.098-2.448h-.35l.35-32.178h.699l14.69 34.976zm-5.246-36.724-33.227 15.389-16.088-9.443zm-33.926 15.739-21.685 10.143-52.463-9.444-.699-3.148 58.758-7.344zm-75.547-2.798-12.591-46.867c.35-.35 1.049-.35 1.399-.7l69.251 40.572zm-187.8178-74.8477-53.86211 20.6357-4.54675-97.5815c.34976 0 .69946-.3498 1.04922-.3498l58.40894 74.4976c-.3498.3497-.6996.6995-.6996 1.399-.3497.6995-.3497 1.0493-.3497 1.399zm-59.45815-76.5961h.34973l4.54682 97.5818-56.3103 21.684c-.3498-.349-.6996-.699-1.0493-1.049zm-129.05905 110.8718-83.241 90.586c-.35-.349-.7-.349-1.05-.349s-.699 0-1.049 0l-12.591-64.705c1.049-.35 1.749-1.049 2.098-2.098 0-.35 0-.7 0-1.05l95.483-23.083c0 .349.35.699.35.699zm-82.542 90.936 83.241-90.236c.35.349.7.349 1.05.349h.699l15.04 133.606c-.7.35-1.399.7-1.749 1.399l-97.582-42.32s0 0 0-.35c0-1.049-.349-1.748-.699-2.448zm101.778 44.069 46.5176-103.877 48.6158 24.483v.35c-.3497.699 0 1.399.3497 2.098l-95.1331 77.296c0-.35 0-.35-.35-.35zm100.72943-77.995c0-.35 0-.699 0-1.049l17.83747-3.498 8.0444 112.971-27.63062-106.675c1.04925 0 1.74875-.7 1.74875-1.749zm27.28077 109.473h-.3497l-8.0443-114.02 82.5418-16.788c.3498 1.049 1.0493 1.749 2.0986 1.749h1.399l34.9754 84.29c-.7.35-1.399 1.05-1.399 1.749v1.399l-109.1232 43.02c-.6995-.699-1.399-1.049-2.0986-1.399zm313.3798 3.498 77.645-.7c0 1.049 1.049 2.099 2.099 2.448l-8.045 53.862c-.699 0-1.749.35-2.098.7l-69.951-55.261c0-.35.35-.7.35-.7zm73.098 56.31 36.025-43.719 82.892 38.822v.35.35l-118.217 5.596c0-.35-.35-1.049-.7-1.399zm124.163-5.246 46.867-25.532 13.64 45.468c-.699.349-1.049.699-1.399 1.399l-58.758-19.936s0-.7-.35-1.399zm89.887-46.867 69.601.349 9.093 11.542-12.591 6.646zm79.394 12.591 9.093 11.192c-.349.35-.349.699-.699 1.049l-20.636-5.596zm12.241 10.492 8.394-20.285h.35c1.399.349 3.148-.7 3.498-2.099v-.35h13.99l-25.183 22.734c-.699.35-.699.35-1.049 0zm11.892-23.083c0-.35 0-.7-.35-1.05l51.414-32.177-36.724 33.227zm70.3-43.02 39.523-1.749 24.482 42.67c-.349 0-.35.35-.699.7l-63.656-40.572c0-.35.35-.35.35-.699 0 0-.35-.35 0-.35zm131.857-5.246 15.04.349-76.246 44.769zm.7-.7 3.498-2.798 25.532-5.596v.35l-13.991 8.044zm29.379-6.995c.35.35 1.05 1.049 1.749 1.049 1.399.35 2.448-.35 3.148-1.399l20.286 8.394v.35.35l-38.124-1.399zm-177.325 20.635 9.444-5.945-47.917 41.271h-.35zm202.158-13.29-20.286-8.394v-.35c.35-1.399-.699-3.148-2.098-3.498 0 0 0 0-.35 0l1.049-10.142c.7 0 1.399-.35 1.749-.7l20.286 22.035c0 .699 0 .699-.35 1.049zm-23.783-23.783-20.636 12.241-111.571-11.192 131.857-1.749c0 .35.35.35.35.7zm-140.951 2.098-28.33 20.985-36.724-61.207c.349 0 .349-.349.699-.699l64.005 38.473c0 .35-.35.35-.35.699 0 .35.35 1.399.7 1.749zm-69.251-41.621-81.843 39.872-18.537-23.783c.35-.35.7-.699.7-1.399 0-.35 0-.35 0-.699zm-179.424-8.394c.35-1.399-.7-2.798-2.099-3.148-1.049-.349-2.098.35-2.798 1.05l-23.083-15.739 99.33 38.473zm-32.527-17.138-12.242 21.685-62.606 8.394 73.798-31.128c.7.35.7.7 1.05 1.049zm-80.094 30.429-77.645-2.448-15.04-35.325c.35-.35.7-.7 1.05-1.05l91.635 38.473zm-96.532-40.222-50.015 6.296-69.951-40.921 119.966 34.275zm-125.562-36.724-96.182-17.837c0-1.399-.699-2.4486-2.098-2.7984l14.689-92.33501c.7 0 1.049.00001 1.399-.34975l82.892 112.27116c-.35 0-.35.699-.7 1.049zm-85.34-114.01968-81.842 86.73898c-.3497-.3498-.6995-.3498-1.0493-.3498-.6995-.3497-1.399 0-2.0985.3498l-58.40887-74.4976c.34976-.3498.69949-.6995.69949-1.399v-.3498l142.00018-11.54183s.35.6995.699 1.04925zm-146.8962 12.59118-52.4631 118.5665c-.6995-.35-1.7488 0-2.4482.7l-64.7045-69.2517c.35-.3498.699-.6995.699-1.0493 0-.3497 0-1.0492 0-1.399l118.2173-48.6158c0 .3498.34974.6995.6995 1.0493zm-122.0638 50.3645c.349 0 .349 0 0 0l-3.848 56.31c-1.399 0-2.448.7-2.798 2.099v1.049l-95.482 23.084c0-.35 0-.35-.35-.7l101.079-82.8912c.699.6995 1.049 1.0492 1.399 1.0492zm-186.769 172.079 93.384-17.488c.35 1.049 1.05 1.749 2.099 2.099h.35l-5.596 80.793c-.7 0-1.399.35-2.099 1.049l-88.138-64.355c0-.349.35-.349.35-.699-.35-.7-.35-1.049-.35-1.399zm90.586 65.054 5.596-80.793c1.05 0 1.749-.7 2.449-1.399l97.581 42.32v.35 1.399l-103.527 39.872c-.7-1.049-1.399-1.749-2.099-1.749zm110.523-40.571 95.13264-77.296c.34973.35.69953.7 1.39905.7h1.04926l27.98035 107.374c-.6996.35-1.3991.7-1.7488 1.749l-123.4635-30.779c0-.699 0-1.049-.349-1.748zm129.0588 32.877 109.1232-43.02c.35.699 1.049 1.399 1.749 1.399l-8.394 121.714c-.7 0-1.399.35-1.749.7l-101.079-78.695c0-.35.3498-.35.3498-.699 0-.7 0-1.05 0-1.399zm103.5272 80.093 8.044-121.714h.7l46.167 105.276c-.699.349-1.049 1.049-1.399 1.748v1.05l-51.414 15.389c-.699-1.049-1.399-1.749-2.098-1.749zm58.409-16.089 71.699-73.098c.35.35.7.35 1.05.699h1.049l26.931 123.114c-.7.35-1.049.699-1.399 1.049l-98.281-48.966v-.349c-.35-.7-.699-1.749-1.049-2.449zm103.527 51.764c-.35-.35-.7-.699-1.049-1.049l43.369-111.222c1.049.35 2.099 0 2.798-.699l69.601 55.261c0 .349-.35.699-.35.699v1.399zm119.966-55.961 118.216-5.596c0 1.05.7 1.749 1.749 2.099l-16.788 64.005c-1.049-.35-2.099.35-2.798 1.049l-100.379-60.507.349-.35c-.349-.35-.349-.35-.349-.7zm104.576 61.907c-.35-.35-.7-.7-1.399-1.049l16.788-64.005c1.399.349 2.448-.35 3.148-1.749l58.759 19.936c0 .699 0 1.399.349 1.749zm174.877-96.882 20.985 5.946v1.049l-110.872 41.621zm52.113-18.537h.35l-9.094 7.695zm50.365-41.97c.349.349.699.699 1.399.699 1.049.35 2.098-.35 2.798-1.049l63.655 40.571c0 .35-.35.35-.35.7v.35l-115.768.349zm153.192-6.646 38.473 1.05v.349l-117.517 45.119z" opacity=".8"/><path d="m449.798 171.097c.7.35 1.749 0 2.448-.699l20.286 22.034c-.35.35-.699.7-.699 1.399-.35 1.399.699 3.148 2.098 3.498s3.148-.7 3.498-2.099v-.349l135.704-1.749c0 1.049 1.049 2.098 2.099 2.448 1.049.35 2.098-.35 2.798-1.049l64.005 38.473c0 .35-.35.35-.35.699-.35 1.399.699 3.148 2.098 3.498s3.148-.7 3.498-2.099c0-.349 0-.349 0-.699l99.33-14.34c.35 1.049 1.049 1.749 2.098 2.098 1.399.35 2.449-.349 3.148-1.399l102.828 39.872c-.35 1.399.699 3.148 2.098 3.498s3.148-.7 3.498-2.099c0-.349 0-1.049 0-1.399l73.798-31.128c.35.7 1.049 1.399 1.749 1.399 1.399.35 2.448-.349 3.148-1.399l91.634 38.473v.35c-.35 1.399.7 3.148 2.1 3.498 1.4.349 2.8-.35 3.15-1.749l119.96 34.276c-.35 1.399.7 2.798 2.1 3.147.7 0 1.4 0 2.1-.349l82.89 112.271c-.35.349-.7.699-.7 1.399-.35 1.399.7 3.147 2.1 3.497s3.15-.699 3.5-2.098v-.35l142-11.542c.35 1.049 1.05 1.749 2.1 2.099 1.4.349 3.14-.7 3.49-2.099 0-.35 0-1.049 0-1.399l117.87-47.916c.35.699 1.05 1.049 1.75 1.399 1.4.349 3.15-.7 3.5-2.099.35-.699 0-1.399-.35-2.098l101.08-82.892c.35.35.7.7 1.4.7 1.39.349 3.14-.7 3.49-2.099 0-.35 0-.35 0-.699l128.71-20.986c.35 1.05 1.05 1.749 2.1 2.099 1.4.35 3.15-.7 3.5-2.099s-.7-3.148-2.1-3.497c-.7 0-1.4 0-2.1.35l-47.22-63.306c.35-.35.7-.699 1.05-1.399.35-1.399-.7-3.148-2.09-3.497-1.05-.35-2.1 0-2.8.699l-88.14-64.355c0-.349.35-.349.35-.699.35-1.399-.7-3.148-2.1-3.498-1.4-.349-3.15.7-3.5 2.099v1.399l-103.52 39.872c-.35-.7-1.05-1.399-1.75-1.399-1.4-.35-2.8.349-3.15 1.748l-123.46-30.778c0-1.399-.7-2.798-2.1-3.148-1.05-.349-2.1 0-2.45.7l-101.08-78.6947c0-.3498.35-.3498.35-.6995.35-1.399-.7-3.1478-2.1-3.4976-1.4-.3497-3.15.6995-3.5 2.0985v1.0493l-51.41 15.3892c-.35-.6995-1.05-1.399-2.1-1.7488-1.05-.3497-2.45.3498-3.15 1.399l-98.28-48.96552v-.34975c.35-1.39902-.7-3.14778-2.09-3.49754-1.4-.34975-3.15.6995-3.5 2.09852v1.39902l-114.37 55.26107c-.35-.6995-1.05-1.0492-1.75-1.399-1.05-.3497-2.1.3498-2.8 1.0493l-100.378-60.50743.35-.34974c.349-1.39902-.7-3.147788-2.099-3.4975423-1.399-.3497537-3.148.6995023-3.497 2.0985223 0 .6995 0 1.39901.349 1.74876l-78.344 45.46803c-.35-.6995-1.05-1.0493-1.749-1.0493-1.399-.3498-3.148.6995-3.498 2.0985v1.399l-113.32 42.3203c-.35-.6995-1.049-1.399-1.749-1.399-1.399-.3498-3.147.6995-3.497 2.0985-.35.6995 0 1.7487.349 2.0985l-27.28 23.4334-116.468.35c0-1.049-1.05-2.099-2.099-2.448-1.399-.35-3.148.699-3.497 2.098v1.399l-118.917 45.468c-.349-.699-1.049-1.399-1.748-1.399-1.399-.35-3.148.7-3.498 2.099.35 1.049 1.399 2.798 2.798 3.147zm1341.652 79.395-128.71 20.985c0-.35-.35-.7-.35-1.05l81.15-84.64c.35.35.7.35 1.05.35.7 0 1.4 0 2.1-.35l45.81 62.256c-.35.35-.7.7-1.05 1.399zm-952.026-197.6114c.349.3498.699.6995 1.049.6995l-24.483 65.0539c-1.049 0-1.749.7-2.098 1.749l-65.754-18.537zm308.836-40.9212h1.05l26.93 123.1136c-.7.35-1.4 1.049-1.75 1.749l-67.85-11.542c0-1.05-.35-2.099-1.4-2.798zm103.52 51.4138h1.4l46.17 105.2758c-.7.35-1.05.7-1.05 1.399l-118.57-31.827c0-.7 0-1.399-.7-2.099l71.7-73.0985c.35 0 .7.3497 1.05.3497zm491.06 122.0638-81.14 84.641c-.35-.35-.7-.35-1.05-.35s-.7 0-1.05 0l-12.59-64.704c1.04-.35 1.74-1.05 2.09-2.099 0-.35 0-.7 0-.7l93.39-17.487s.35.35.35.699zm-189.92 171.03-64.35-69.251c.35-.35.7-.7.7-1.05l67.15 10.493c0 1.399.7 2.798 2.1 2.798h.35l-4.2 56.31c-.7.35-1.05.35-1.75.7zm-267.56 61.557 14.69-92.335c1.4 0 2.45-.7 2.8-2.099l64.35 6.296c0 .699.35 1.399.7 1.748l-81.84 86.739s-.35-.349-.7-.349zm-84.29-113.67c0-.35 0-.35 0-.7l47.57-15.039 48.96 33.226s0 .35-.35.35zm-514.489-72.05c-.349-.349-.699-.699-1.399-1.049l30.079-107.025 53.163 68.202zm-72.748-41.97c-.35.35-.7.699-1.05 1.399l-93.034-21.335 80.443-3.498zm-94.084-20.985c0-.35-.35-.7-.35-1.05l53.163-45.468c.349.35.699.7 1.399.7.699 0 1.399 0 1.748-.35l24.483 42.32zm-.7-1.399c-.349-.35-.699-.7-1.399-.7-1.399-.35-3.147.7-3.497 2.099v.349h-5.247l59.109-43.369zm-4.896 2.098-8.744 2.099 3.148-2.449zm126.96-3.847c.35.35.7.35 1.05.699h1.049l-22.035 19.936zm4.547-1.399c.35-.7 0-1.399-.35-2.099l7.695-4.896zm-4.896 1.399-23.434 24.133c-.35-.35-.699-.35-1.049-.7-.7 0-1.399 0-1.749.35l-13.64-23.433 39.172-1.749c0 .35.35 1.049.7 1.399zm-162.286 12.241 24.483-5.246-9.793 6.995zm0 1.049 13.99 1.4-16.089 11.891c-.349-.35-.699-.699-1.399-.699 0 0 0 0-.349 0l1.049-10.143c1.399-.35 2.448-1.399 2.798-2.449zm15.039 1.4 3.498.349-18.537 10.843zm1.05-.7 10.142-7.695 9.794-2.098v.35l-16.439 9.443zm19.936-8.744c.349.7 1.049 1.049 1.748 1.049 1.399.35 2.798-.349 3.148-1.748l90.936 20.985-111.921-11.192zm129.758-4.197 1.399 2.448-24.832 18.188zm.35-.35 11.892-10.842 50.014-31.478-60.507 44.769zm259.168-92.3347c.349.3498.699.6996 1.049 1.0493l-22.734 62.6064-15.04-3.848-10.143-34.276zm270.361 62.9557c0 .7 0 1.399.35 1.749l-35.68 31.827-33.57-43.719c.35-.35.7-.699.7-1.399zm123.81 32.877v1.049l-86.74 34.626-32.87-66.104c.34-.349.69-.699 1.04-1.399zm258.47 125.562-67.5-10.493c0-1.049-.35-2.099-1.4-2.448l8.04-17.838zm-357.45 5.246c-.35 0-.35 0-.7 0l-1.75-45.818c.7 0 1.4-.35 1.75-1.049l24.13 16.438-22.73 30.779s-.35 0-.7-.35zm-60.51-129.409-54.91 49.315 19.94-92.685c.7 0 1.05 0 1.75-.349zm94.44 81.493-20.99-12.242 11.54-9.093 10.15 20.635c-.35.35-.7.35-.7.7zm-.35.349c0 .35-.35.35-.35.7l-33.23-1.749c0-.35 0-.699-.35-1.399l12.59-10.143zm-34.28-2.798c-.35-.349-.7-.699-1.4-.699-.35 0-.7 0-.7 0l-3.15-19.586 17.84 10.492zm-19.24-31.128 10.85-4.197 2.45 13.99-13.3-7.694c0-.35.35-.35.35-.7-.35-.35-.35-.699-.35-1.399zm-.35-.35c-.34-.699-1.04-1.049-1.74-1.399h-.35l.7-76.945 12.59 73.798zm0 2.798 13.65 8.045 3.49 19.936c-.35 0-.35 0-.7.35l-17.13-27.631c0-.35.35-.35.69-.7zm59.11 33.227 96.89 4.897v.349l-72.05 22.734-25.54-26.581c.35-.35.7-.699.7-1.399zm-2.1-3.148c-.69 0-1.04 0-1.39 0l-10.15-20.635 74.85-58.759-62.26 79.744c-.35-.35-.7-.35-1.05-.35zm62.61-79.744-74.5 58.759-12.24-24.483zm-75.2 59.109-11.89 9.443-18.53-10.842-2.45-14.69 20.63-8.394zm-32.87-17.138-12.59-74.148 32.87 66.104zm-13.99-74.148h.35l-.7 77.296c-.35 0-.7 0-1.05.349l-35.33-46.167 35.68-31.828c.35 0 .7.35 1.05.35zm-1.75 78.345c-.35.35-.7.699-.7 1.399v.699l-91.64 9.094 1.75-7.345 55.61-50.015zm-91.99 3.148-7.34 6.645c-.35-.35-.35-.35-.7-.35l26.93-93.384zm-6.29 9.093c0-.349 0 0 0 0l4.54-.699-.35 1.399zm0-.699c0-.35-.35-.7-.35-1.049l6.64-5.946-1.4 6.645zm-8.05-9.094-50.71-87.089 1.75-3.847h3.15zm-200.406 16.788-24.483-55.96 29.03-19.936c.349.35.699.699 1.399 1.049h.349l-4.546 76.246zm-72.749-55.261c0-.349.35-.349.35-.699s0-.7 0-1.049l4.547-1.05-1.399 5.596zm22.035-58.758 19.936 45.468-36.375 9.443 15.389-54.911c.35.349.7.349 1.05 0zm54.911 37.423-28.68 19.936-4.897-11.542 33.577-8.743c-.35.349 0 .349 0 .349zm0-2.448c0 .35-.35.35-.35.7v1.049l-33.926 8.744-19.936-45.468c.35 0 .699-.35.699-.7zm-72.049 20.286-4.897 1.399c-.35-.7-.699-1.049-1.399-1.399l1.749-4.897 18.887-47.916zm.699.349 36.724-9.443 5.247 11.892-25.532 17.487-18.188-13.64zm41.971 2.799 24.133 54.911-49.316-37.424zm82.192-32.528 27.63 6.995v.35l-74.497 2.798zm87.436-18.537-35.323 15.739 32.173-15.039zm4.55 1.399c.35-.349 1.05-1.049 1.05-1.748 0-.35 0-.35 0-.35h.7l-1.4 3.148zm1.75-2.798h-1.05c0-.349-.35-.699-.35-1.049l1.05-.699c.35.349.35.349.7.699zm-.35-2.098-1.05 1.049-.35-.35zm-10.84 4.547-49.669 23.433c0-.35-.35-.349-.35-.349l12.241-15.04zm-50.719 22.734c-.35-.35-.699-.35-1.049-.35-.7 0-1.399 0-1.749.35l-5.596-9.793 20.286-4.197zm-3.147 0c-.35.349-.7.699-1.05 1.049l-26.231-6.645 21.335-4.547zm4.197 3.497.349-.349c0-.7 0-1.05 0-1.4l54.91-24.482c.35.349.7.699 1.05 1.049l-19.236 48.616zm61.559-28.68.35-.699h.35 1.75l.35.699zm-1.4-2.798-1.4.7c-.35 0-.35-.35-.7-.35l.7-2.798 1.4.7v.349zm-5.6 2.798-2.1 1.05-39.868 8.394 18.537-22.734 23.781 12.591c-.35.35-.35.35-.35.699zm-88.835 19.587-46.168 9.793c-.349-.7-.699-1.399-1.399-1.399l6.995-18.887zm-48.266 8.044c-.35 0-.7 0-1.05 0l-6.645-22.384 14.69 3.847zm-1.749 0c-.35.35-.7.35-1.049.7l-53.513-35.326v-.349l47.567 12.241zm-78.695 25.532 3.498 2.798-8.394 30.079 2.798-32.177c.699.349 1.399 0 2.098-.7zm182.222 41.621c-.35 0-.7 0-1.049 0l-19.586-65.054c.349-.35.699-.35 1.049-.7l37.074 23.084zm98.983 6.995 4.54.699-.35 1.749zm123.11 22.734c0-.35.35-.35.35-.7l33.23 1.749c0 .7.35 1.399 1.05 1.749l-10.15 13.64zm64.36 29.729 71.69-22.734c.35.35.35.699.7 1.049l-34.62 58.059c-.35 0-.35-.35-.7-.35-.7-.349-1.75.001-2.45.7zm38.47 36.724 34.62-58.059c.35 0 .35.35.7.35h1.75l17.14 36.724-53.16 22.034c-.35-.699-.7-1.049-1.05-1.049zm68.9 6.296c-.7 0-1.05 0-1.4 0l-12.59-27.281 56.66-23.434-41.27 51.064c-.7 0-1.05 0-1.4-.349zm43.72-51.064 8.39-3.498s0 .35.35.35l-47.56 50.714zm11.89-7.345c-.35 0-.35-.35-.7-.35h-.35l-.35-5.596 17.49-21.335zm-1.75-.35c-1.05.35-2.1 1.049-2.1 2.098l-3.14-.349 5.24-6.296zm-2.1 2.798v.7l-7.34 3.147 3.5-4.197zm61.91 12.241c-.35.35-.35.7-.7 1.05l-51.41-11.892c.35-1.399-.7-2.798-2.1-3.148-.7-.35-1.75 0-2.45.7 0 0 0-.35-.35-.35-.35-.35-.35-.7-.7-1.049l16.09-27.631c.35 0 .35.35.7.35.7.35 1.75 0 2.45-.7zm-66.45-12.941-3.85 4.897-57.71 24.133-17.14-36.724c.7-.35 1.05-1.049 1.4-1.749zm-315.13-142.349-28.68 100.029c-.35 0-1.05 0-1.4 0l-49.32-97.931 78-4.197c-.35.7.35 1.749 1.4 2.099zm-133.608 11.542-21.335 4.546-40.221-68.9011c.349-.3498.349-.3498.699-.6996l79.744 41.9707zm-63.655-64.0054c.7 0 1.399 0 1.749-.3497l39.872 68.9011-22.384 4.897-42.32-10.842 23.083-62.6064c-.349 0-.349 0 0 0zm-90.236 48.2664-9.444 23.783 9.094-24.133c0 .35 0 .35.35.35zm-25.182 55.96c0 .35-.35.35-.35.7v1.399l-15.739 7.694-19.936-37.423zm.349 36.375 8.394-30.079 17.488 13.64-24.483 17.138c-.699-.35-1.049-.35-1.399-.699zm76.946 22.034.35 1.049c-.35 0-.35.35-.7.35l-50.364-39.872zm4.897 2.798c-.35-.35-.7-.699-.7-1.049l17.138-16.788 3.498 15.039zm-1.399-1.399c-.35-.35-.7-.35-1.05-.699 0 0 0 0-.349 0l4.896-76.247h.35l13.64 59.808zm4.197-76.946c.349 0 1.049-.349 1.399-.699l44.069 29.029-31.478 31.128zm1.748-1.399c0-.349.35-.349.35-.699v-.35l75.197-2.798c0 .35.35 1.049.7 1.399l-31.828 31.478zm76.247-1.748c.349 0 .349 0 0 0l-21.335 38.472-10.493-6.995zm.699.349s.35 0 .35.35h1.049l19.587 65.054c-.35 0-.7.35-1.05.7l-41.621-27.631zm40.921 22.385 1.05.699-12.242 28.33zm.35-.7 19.236-48.616h1.4l.7 1.749-20.636 47.217zm21.686-45.818 33.93 80.444-54.217-33.577zm.7-.699 54.21 93.384c-.35 0-.35.35-.35.35l-19.24-11.892zm58.06 97.231 4.19 2.449-6.64 30.428.35-32.177c1.05.35 1.75 0 2.1-.7zm5.24 2.099.35-2.099 49.32 9.094-21.34 9.793zm.35-2.798.35-1.749 91.99-9.094v.35l-41.97 19.237zm92.69-9.444c.35.7 1.05 1.05 1.75 1.4h1.05l6.99 26.931-51.06-9.094zm3.5 1.05h.35l17.13 27.63c-.35.35-.7.7-1.05 1.399l-9.44-1.748zm16.43 29.379c0 .35 0 .35 0 0l-8.39 1.049-.7-2.798zm0 1.049c.35 1.05 1.05 1.749 2.1 2.099h.7l1.75 45.818-12.59-46.867zm29.73 17.138 10.15-13.64c.35 0 .7.35.7.35.7.349 1.74 0 2.44-.7l25.19 26.581-13.29 4.197zm39.18 13.291 35.32 37.074-48.61-32.877zm40.22 38.123 53.16-22.034 12.59 27.28c-.7.35-1.05 1.05-1.4 1.749l-64.35-6.295s0-.35 0-.7zm69.25 5.946 51.06-54.562c.35.35.7.7 1.4.7h.35l1.75 33.576-54.21 20.636s0-.35-.35-.35zm53.86-53.862c.35 0 .7-.35 1.4-.7.35.7 1.05 1.05 1.75 1.399 1.4.35 2.8-.699 3.15-1.748l51.41 11.891v1.049l-56.31 21.685zm61.21 8.394c-1.05-.35-1.75 0-2.45.35l-38.47-42.67.35-.35 48.61 24.483zm-45.12-41.971-17.49 21.335-1.4-18.886 17.84-3.498c.7.35.7.7 1.05 1.049zm-17.84 22.035-5.94 7.345-77.65-9.793v-.35l82.19-16.788zm-89.19-3.148-96.88-4.896c0-.7-.35-1.399-.7-1.749l62.26-79.744c.35 0 .7.35.7.35h1.4l34.97 84.29c-1.05.35-1.75 1.05-1.75 1.749zm-312.33-130.108-.34-1.05c.69-.349 1.04-1.049 1.04-1.748v-.35l68.56-.7zm-4.54-4.547-1.75-.7 11.89-51.4134-7.69 51.0644c-1.05-.35-1.75 0-2.45 1.049zm10.49-55.611-12.59 54.212-24.133-11.192 36.023-43.3697c.35.3497.7.3497.7.3497zm-12.59 55.261-.7 3.148c-1.05 0-2.1.35-2.8 1.049l-23.431-12.241 2.448-3.148zm-27.631-8.394-70.65-37.0738 73.098 33.9258zm-122.064 17.488-46.867-12.242c0-.349 0-1.049-.35-1.399l37.074-20.2854zm-47.567-13.99c-.349-.35-.699-.7-1.049-1.05l21.685-60.1573 1.748-4.8966h1.05l13.64 45.8178zm-1.748-1.05c-.35 0-.35 0-.35 0l10.143-26.9307zm-2.798 4.547-20.986 55.261c-.699-.35-1.399 0-2.098.35l-46.517-57.709 69.251.699c-.35.35 0 1.049.35 1.399zm-23.434 55.961-37.074-28.33-16.089-30.079h6.296zm-66.453-81.4929 6.645 12.5909-13.64 7.345 5.596-19.5861c.349 0 1.049 0 1.399-.3498zm6.995 13.2909 4.896 9.443h-19.586l.35-1.749zm-15.389 9.093c-.35-.349-.35-.349-.35-.699l.699-.35zm-3.498 3.148c.7 0 1.399 0 1.749-.35l.699.7-24.133 86.389zm2.448-.699.35.349v.35zm.35-.7c0-.35.35-.35.35-.699v-.35zm1.049-1.049h20.286l15.389 29.029-36.024-27.63zm20.986-.35-5.247-9.793 2.449-1.399 9.093 11.192zm-5.596-10.492-6.296-11.8921 8.744 10.4921zm-15.39 8.044-1.399.699c-.349-.349-.699-.699-1.049-.699l7.695-18.5371zm58.06 72.399 15.739-7.695c.349.7 1.049 1.05 1.748 1.399h.35l-2.798 32.178c-.35 0-.699 0-1.049.349zm117.517 48.965 4.197 18.887c-.35 0-.7.35-1.049.7l-22.385-17.138zm182.223 26.232 6.64-30.429 27.98 16.439-32.87 15.039c-.7-.35-1.4-.699-1.75-1.049zm126.26 36.374 22.73-30.778 24.84 16.788-46.87 14.69c-.35 0-.35-.35-.7-.7zm342.41-141.3h.7l15.04 133.606c-.7 0-1.4.699-1.75 1.049l-60.86-30.778zm-832.066-38.123c.35.349.7.699 1.05.699l-27.281 108.074c-.7 0-1.049 0-1.399.35l-36.724-61.207zm4.897 1.049v-.35l37.074 27.98 20.635 38.823-4.546 2.099zm58.409 67.153 13.291 24.832-17.488-22.734zm18.187 28.679c0-.699 0-1.399-.35-1.748l24.833-17.138 50.364 39.872s0 .349-.349.349zm79.744 22.734 18.187 13.641-18.537-12.242c0-.349.35-.349.35-.699s0-.7 0-.7zm25.882 15.739c-.35 0-.7 0-1.05 0l-4.197-18.886 17.838-2.449-11.892 21.335c-.35.35-.35 0-.699 0zm-5.247-19.236-3.497-15.389 32.177-31.478 10.842 6.995-20.985 37.773zm39.522-39.872 41.621 27.631c0 .349-.349.349-.349.699v.7l-62.257 8.394zm45.468 26.231 18.188-41.97 55.256 34.276 5.25 12.591-77.294-2.448c0-1.05-.35-1.749-1.4-2.449zm74.844-6.995 18.54 11.542-.35.35v.35l-13.29-.35zm18.19 12.941c0 1.05 1.05 2.449 2.1 2.449h.35l-.35 32.177c-.35 0-.35 0-.7 0l-14.69-34.975zm4.9 36.375 33.22-15.389 16.09 9.443-49.31 5.946c.35.349 0 0 0 0zm34.27-15.739 21.69-10.143 52.46 9.443.7 3.148-58.76 7.345zm75.2 3.148 12.59 46.867c-.35.349-1.05.349-1.4.699l-69.25-40.571zm187.82 74.497 53.86-20.635 4.55 97.581c-.35 0-.7.35-1.05.35l-58.41-74.498c.35-.35.7-.699.7-1.399.7-.35.35-1.049.35-1.399zm59.81 76.946h-.35l-4.55-97.581 56.31-21.685c.35.35.7.699 1.05 1.049zm128.71-111.222 83.24-90.236c.35.35.7.35 1.05.35h1.05l12.59 64.704c-1.05.35-1.75 1.049-2.1 2.099v1.049l-95.48 23.084c0-.35 0-.7-.35-1.05zm82.89-90.936-83.24 90.237c-.35-.35-.7-.35-1.05-.35s-.35 0-.7 0l-15.04-133.606c.7-.35 1.4-.699 1.75-1.399l97.58 42.32v.35c-.35 1.049 0 2.099.7 2.448zm-102.13-43.719-46.52 103.877-48.61-24.483v-.35c.35-.699 0-1.399-.35-2.098l95.13-77.296s0 .35.35.35zm-100.73 77.645v1.05l-17.84 3.497-8.04-112.97 27.63 106.675c-.7.349-1.4 1.049-1.75 1.748zm-27.28-109.473h.35l8.04 114.02-82.54 16.788c-.35-1.049-1.05-1.748-2.1-1.748-.35 0-1.05 0-1.4 0l-34.97-84.291c.7-.35 1.4-1.049 1.4-1.749 0-.35 0-1.049 0-1.399l109.12-43.02c.7.7 1.4 1.399 2.1 1.399zm-313.03-3.147-77.65.699c0-1.049-1.05-2.098-2.09-2.448l8.04-53.8622c.7 0 1.75-.3498 2.1-.6995l69.6 55.2607c0 .35-.35.7-.35.7.35 0 .35 0 .35.35zm-73.45-56.6605-36.023 43.7195-82.892-38.4732s0 .0001 0-.3497v-.3498l118.215-5.9458c0 .6995.35 1.0493.7 1.399zm-124.161 5.2463-46.867 25.5321-13.641-45.468c.7-.3498 1.05-.6995 1.399-1.399l58.759 19.9359c0 .3498 0 1.0493.35 1.399zm-89.887 46.8672s0 .35 0 0l-69.601-.35-9.094-11.542 12.592-6.645zm-79.044-12.242-9.094-11.1917c.35-.3497.35-.6995.7-1.0492l20.635 5.5959zm-12.242-10.8419-8.394 20.2859s0 0-.35 0c-1.399-.35-3.147.699-3.497 2.098v.35h-13.99l25.182-22.7339zm-12.241 23.0839c0 .35 0 .699.35 1.049l-51.414 32.177 36.724-33.226zm-69.951 43.369-39.522 1.749-24.483-42.67c.35 0 .35-.35.7-.699l63.655 40.571c0 .35-.35.35-.35.7zm-132.207 5.247-15.039-.35 76.246-44.769zm-.35.349-3.497 2.798-25.532 5.596v-.349l13.99-8.045zm-29.379 7.345c-.35-.35-1.049-1.049-1.749-1.049-1.399-.35-2.448.35-3.147 1.399l-20.286-8.394s0 0 0-.35v-.35l37.773.7zm176.976-20.985-9.444 5.946 47.916-41.271h.35zm-202.158 13.291 20.286 8.394v.349c-.35 1.4.699 3.148 2.098 3.498h.35l-1.049 10.143c-.7 0-1.399.35-1.749.699l-20.286-22.034c0-.35.35-.7.35-1.049zm23.783 23.783 20.636-12.241 111.571 11.192-131.857 1.748s0-.349-.35-.699zm141.301-2.099 28.33-20.985 36.724 61.207c-.35 0-.35.35-.7.7l-64.005-38.473c0-.35.35-.35.35-.7-.35-.35-.35-1.049-.699-1.749zm68.901 41.971 81.843-39.872 18.537 23.783c-.35.35-.7.7-.7 1.399v.7zm179.424 8.394c-.35 1.399.699 2.798 2.098 3.148 1.05.349 2.099-.35 2.798-1.05l23.084 15.739-98.98-38.473zm32.527 17.138 12.241-21.685 62.606-8.394-73.798 31.128c-.349-.699-.699-1.049-1.049-1.049zm80.094-30.778 77.644 2.448 15.04 35.325c-.35.35-.7.699-1.05 1.049l-91.634-38.473s0 0 0-.349zm96.884 40.571 50.01-6.296 69.95 40.922-119.96-34.276c0-.35 0-.35 0-.35zm125.21 36.724 96.18 17.838c0 1.399.7 2.448 2.1 2.798l-14.69 92.335c-.7 0-1.05 0-1.4.349l-82.89-112.271c.35-.349.7-.699.7-1.049zm85.69 114.02 81.84-86.739c.35.35.7.35 1.05.35.7.349 1.4 0 2.1-.35l58.41 74.497c-.35.35-.7.7-.7 1.4v.349l-142 11.542c-.35-.35-.7-.699-.7-1.049zm146.55-12.591 52.46-118.567c.7.35 1.75 0 2.45-.699l64.7 69.251c-.35.35-.7.699-.7 1.049v1.399l-117.86 47.916c-.35 0-.7-.349-1.05-.349zm122.06-50.365 3.85-56.31c1.4 0 2.45-.7 2.8-2.099 0-.349 0-.699 0-1.049l95.48-23.084c0 .35 0 .35.35.7l-101.08 82.891c-.35-.699-.7-1.049-1.4-1.049zm186.77-172.079-93.39 17.488c-.35-1.049-1.05-1.749-2.09-2.099 0 0 0 0-.35 0l5.59-80.793c.7 0 1.4-.349 2.1-1.049l88.14 64.355c0 .35-.35.35-.35.699.35.7.35 1.05.35 1.399zm-90.59-65.054c.35 0 .35 0 0 0l-5.59 80.793c-1.05 0-1.75.7-2.45 1.399l-97.58-42.32s0 0 0-.35c0-.349 0-1.049 0-1.399l103.52-39.872c.7.7 1.4 1.399 2.1 1.749zm-110.52 40.222-95.13 77.295c-.35-.349-.7-.699-1.4-.699-.35 0-.7 0-1.05 0l-27.98-107.375c.7-.349 1.4-.699 1.75-1.748l123.46 30.778c0 .699 0 1.399.35 1.749zm-128.71-32.527-109.12 43.019c-.35-.699-1.05-1.399-1.75-1.399l8.39-121.714c.7 0 1.4-.3497 1.75-.6995l101.08 78.6945c0 .35-.35.35-.35.7-.35.349-.35.699 0 1.399zm-103.53-80.094-8.04 121.714c-.35 0-.35 0-.7 0l-46.17-105.2755c.7-.3498 1.05-1.0493 1.4-1.7488 0-.3497 0-.6995 0-1.0493l51.76-15.3891c0 .6995.7 1.399 1.75 1.7487zm-58.41 15.739-71.7 73.099c-.34-.35-.69-.35-1.04-.7-.35 0-.7 0-1.05 0l-26.93-123.1134c.69-.3497 1.04-.6994 1.39-1.0492l98.29 48.9655v.3498c0 1.0493.34 1.7488 1.04 2.4483zm-103.87-51.7636c.35.3498.7.6995 1.05 1.0492l-43.02 111.2214c-1.05-.349-2.1 0-2.8.7l-69.6-55.2612c0-.3498.35-.6995.35-.6995 0-.6995 0-1.0493 0-1.399zm-119.62 55.9606-118.215 5.5961c0-1.0493-.699-1.7488-1.749-2.0985l16.789-64.00501c1.049.34976 2.098-.34974 2.797-1.04924l100.378 60.50735-.35.3498c.35.3497.35.6995.35.6995zm-104.924-61.55665c.349.34975.699.69949 1.399 1.04924l-16.789 64.00501c-1.399-.3498-2.448.3497-3.147 1.7487l-58.759-19.936c0-.6995 0-1.399-.35-1.7487zm-174.877 96.53165-20.985-5.9454c0-.3498 0-.6995 0-1.0493l111.221-41.2709zm-52.114 18.537h-.349l9.093-7.694zm-50.364 42.321c-.35-.35-.7-.7-1.399-.7-1.049-.35-2.099.35-2.798 1.049l-63.655-40.571c0-.35.349-.35.349-.7v-.349l115.769-.35zm-152.842 6.645-38.473-1.049v-.35l117.517-45.118z" opacity=".8"/></g></svg>