<svg fill="none" height="266" viewBox="0 0 335 266" width="335" xmlns="http://www.w3.org/2000/svg" xmlns:xlink="http://www.w3.org/1999/xlink"><linearGradient id="a"><stop offset="0" stop-color="#d5d5d5"/><stop offset="1" stop-color="#6b6b6b"/></linearGradient><linearGradient id="b" gradientUnits="userSpaceOnUse" x1="31.9502" x2="226.136" xlink:href="#a" y1="156.189" y2="203.382"/><linearGradient id="c"><stop offset="0" stop-color="#fff"/><stop offset="1" stop-color="#b9b9b9"/></linearGradient><linearGradient id="d" gradientUnits="userSpaceOnUse" x1="181.549" x2="232.947" xlink:href="#c" y1="139.953" y2="61.4882"/><linearGradient id="e" gradientUnits="userSpaceOnUse" x1="175.853" x2="34.3655" xlink:href="#a" y1="177.641" y2="142.591"/><linearGradient id="f"><stop offset="0" stop-color="#f17922"/><stop offset="1" stop-color="#d74608"/></linearGradient><linearGradient id="g" gradientUnits="userSpaceOnUse" x1="153" x2="169.069" xlink:href="#f" y1="132.5" y2="88.0967"/><linearGradient id="h" gradientUnits="userSpaceOnUse" x1="148.5" x2="201.054" xlink:href="#c" y1="142" y2="124.97"/><linearGradient id="i" gradientUnits="userSpaceOnUse" x1="140.549" x2="225.638" xlink:href="#f" y1="41.4532" y2="25.6464"/><linearGradient id="j" gradientUnits="userSpaceOnUse" x1="236.049" x2="148.191" xlink:href="#f" y1="91.4531" y2="102.385"/><linearGradient id="k" gradientUnits="userSpaceOnUse" x1="168.549" x2="189.787" xlink:href="#f" y1="112.953" y2="66.2433"/><linearGradient id="l" gradientUnits="userSpaceOnUse" x1="176" x2="110.068" xlink:href="#f" y1="138.5" y2="113.349"/><linearGradient id="m" gradientUnits="userSpaceOnUse" x1="141" x2="123.019" xlink:href="#c" y1="156.5" y2="120.475"/><linearGradient id="n" gradientUnits="userSpaceOnUse" x1="101.5" x2="166.379" xlink:href="#f" y1="152.5" y2="181.428"/><linearGradient id="o" gradientUnits="userSpaceOnUse" x1="103" x2="180.265" xlink:href="#a" y1="115" y2="123.89"/><linearGradient id="p" gradientUnits="userSpaceOnUse" x1="179.5" x2="99.317" xlink:href="#a" y1="122" y2="116.153"/><linearGradient id="q" gradientUnits="userSpaceOnUse" x1="180" x2="158.458" xlink:href="#a" y1="155" y2="165.326"/><linearGradient id="r" gradientUnits="userSpaceOnUse" x1="191.645" x2="169.434" y1="158.028" y2="174.398"><stop offset="0" stop-color="#2573ba"/><stop offset="1" stop-color="#0063ad"/></linearGradient><linearGradient id="s" gradientUnits="userSpaceOnUse" x1="168.551" x2="188.713" xlink:href="#f" y1="169.911" y2="199.126"/><linearGradient id="t" gradientUnits="userSpaceOnUse" x1="14.5878" x2="54.5223" xlink:href="#f" y1="60.9589" y2="99.1086"/><linearGradient id="u" gradientUnits="userSpaceOnUse" x1="70.1707" x2="34.7514" xlink:href="#c" y1="40.4624" y2="75.1996"/><linearGradient id="v" gradientUnits="userSpaceOnUse" x1="41.4185" x2="40.4655" y1="32.3082" y2="58.4858"><stop offset="0" stop-color="#f16822"/><stop offset="1" stop-color="#d84b0e"/></linearGradient><linearGradient id="w"><stop offset="0" stop-color="#f16822"/><stop offset="1" stop-color="#f16822" stop-opacity="0"/></linearGradient><linearGradient id="x" gradientUnits="userSpaceOnUse" x1="40.9253" x2="40.9253" xlink:href="#w" y1="54.832" y2="17.5417"/><linearGradient id="y" gradientUnits="userSpaceOnUse" x1="14.5873" x2="25.173" xlink:href="#c" y1="117.041" y2="107.694"/><linearGradient id="z" gradientUnits="userSpaceOnUse" x1="6.05059" x2="18.1135" xlink:href="#c" y1="118.87" y2="108.446"/><linearGradient id="A" gradientUnits="userSpaceOnUse" x1="17.7887" x2="9.84299" xlink:href="#c" y1="83.1731" y2="87.2581"/><linearGradient id="B" gradientUnits="userSpaceOnUse" x1="8.64778" x2=".782829" xlink:href="#c" y1="83.1731" y2="87.1469"/><linearGradient id="C" gradientUnits="userSpaceOnUse" x1="322.472" x2="266.495" xlink:href="#c" y1="204.301" y2="225.476"/><linearGradient id="D" gradientUnits="userSpaceOnUse" x1="319.962" x2="290.866" xlink:href="#f" y1="181.147" y2="218.224"/><linearGradient id="E" gradientUnits="userSpaceOnUse" x1="293.768" x2="293.768" xlink:href="#w" y1="201.837" y2="164.547"/><linearGradient id="F" gradientUnits="userSpaceOnUse" x1="320.033" x2="329.837" xlink:href="#f" y1="263.432" y2="258.266"/><linearGradient id="G" gradientUnits="userSpaceOnUse" x1="329.18" x2="339.346" xlink:href="#f" y1="265.26" y2="259.798"/><linearGradient id="H" gradientUnits="userSpaceOnUse" x1="324.787" x2="317.232" xlink:href="#f" y1="228.431" y2="233.402"/><linearGradient id="I" gradientUnits="userSpaceOnUse" x1="333.921" x2="326.315" xlink:href="#f" y1="228.431" y2="233.523"/><path d="m259.25 80.9531-125-72.19997c-.9-.5-1.7-.5-2.4-.2l-2.7 1.59997 1.6.7-16.4 87.5c-.3 1.6.7 3.5999 2.3 4.4999l124.8 72-.2 1.9 2.7-1.5c.5-.3.9-.8 1.1-1.5l16.6-88.2999c.1-1.6-.9-3.6-2.4-4.5z" fill="#808080"/><path d="m239.1 177.342-6.3 3.1-119.4-68.9c-1.4-.8-3.8-.7-5.5.2l-69.3 40-6.6-3.242 2.4 7.142c.1.4.4.7.9.9l122.5 70.7c1.4.8 3.8.7 5.5-.2l72.3-41.7c.7-.4 1.1-.9 1.3-1.4z" fill="url(#b)"/><path d="m259.25 80.9531-125-72.19997c-.9-.5-1.7-.5-2.4-.2l-2.7 1.59997 1.6.7-16.4 87.5c-.3 1.6.7 3.5999 2.3 4.4999l62.7 36.2 81.4-56.5999c-.4-.6-.9-1.2-1.5-1.5z" fill="#d5d5d5"/><path d="m238.85 176.653-125-72.2c-1.5-.9-2.5-2.9-2.2-4.4999l16.5-88.3c.3-1.6 1.8-2.19997 3.3-1.3l124.9 72.1c1.5.9 2.5 2.9 2.2 4.5l-16.6 88.2999c-.1 1.7-1.6 2.2-3.1 1.4z" fill="#acacac"/><path d="m238.25 173.353-122.9-70.9c-.5-.3-.9-1-.8-1.6l16.3-86.6999c.1-.6.6-.8 1.2-.5l122.9 70.9c.5.3.9 1 .8 1.6l-16.3 86.7999c-.1.5-.6.7-1.2.4z" fill="url(#d)"/><path d="m158.35 222.453-125.2999-72.4c-1.4-.8-1.3-2.3.4-3.2l73.9999-42.7c1.7-1 4.2-1.1 5.6-.2l125.3 72.4c1.4.8 1.3 2.3-.4 3.2l-74 42.7c-1.7.9-4.2 1-5.6.2z" fill="#747474"/><path d="m158.124 223.456-125.1551-72.606c-1.3983-.803-1.2985-2.307.3996-3.209l73.9145-42.822c1.698-1.003 4.195-1.103 5.593-.201l125.155 72.607c1.398.802 1.299 2.306-.399 3.209l-73.915 42.821c-1.698.903-4.195 1.003-5.593.201z" fill="url(#e)"/><path d="m33.45 148.153 74-42.7c1.7-1 4.2-1.1 5.6-.2l125.3 72.4c.4.2.6.5.8.8.4-.8.1-1.5-.8-2.1l-125.4-72.4c-1.4-.8-3.9-.7-5.6.2l-74 42.7c-1.2.7-1.6 1.7-1.2 2.5.3-.5.7-.9 1.3-1.2z" fill="#4d4d4d"/><path d="m174.55 97.5531 6-31.6-5.5-1-8.3 44.0999c-.9 4.5-3.6 8.4-7.6 10.7l-41 23.7 2.8 4.8 37-21.3 20.5 10.7s12.4-11.4 12.5-11.7 2.6-19 2.6-19z" fill="url(#g)"/><path d="m142.65 160.753-2.8-4.8 41-23.7c4-2.3 6.8-6.2 7.6-10.7l8.3-44.0999 5.5 1-8.3 44.0999c-1.2 6.1-4.9 11.4-10.3 14.5z" fill="url(#h)"/><path d="m246.45 55.7531c0-.1 0-.1-.1-.2 0 0 0-.1-.1-.1 0 0 0-.1-.1-.1-.6-1.5-1.6-2.8-2.9-3.5l-.3-.2-42.3-24.4-42.2-24.49996-.4-.2c-1.2-.7-2.5-.7-3.5-.2h-.1-.1l-5.6 3.2 3.2 1.4-11.2 59.29996c-.3 1.5 0 3.2.6 4.7 0 0 0 .1.1.1 0 0 0 .1.1.1.6 1.5 1.6 2.8 2.9 3.5l84.4 48.6999-.8 3.7 5.3-3.1h.1c1-.6 1.8-1.6 2.1-3.2l11.4-60.6999c.3-1.2.1-2.8-.5-4.3z" fill="#f16822" opacity=".5"/><path d="m237.549 54.7531-42.3-24.4-13.3 70.2999 41.9 26.4c2.8 1.6 5.5.3 6.1-2.9l11.4-60.6999c.8-3.2-1-7.1-3.8-8.7z" fill="url(#i)"/><path d="m152.95 5.85315 42.3 24.39995-13.2 69.8999-42.8-21.9999c-2.8-1.6-4.5-5.5-3.9-8.7l11.4-60.69995c.7-3.2 3.4-4.5 6.2-2.9z" fill="url(#j)"/><path d="m135.949 74.0531c.7 1.7 1.9 3.3 3.4 4.1l84.6 48.8999c1.5.9 3 .9 4.1.2l-37.9-69.8999z" fill="url(#k)"/><path d="m240.95 58.9531c-.7-1.7-1.9-3.3-3.4-4.1l-84.6-48.99996c-1.5-.9-3-.9-4.1-.2l37.9 69.89996z" fill="#f16822"/><path d="m139.7 188.4-41.4998-23.9 41.4998-24 41.5 24z" fill="#f16822" opacity=".3"/><path clip-rule="evenodd" d="m98.2002 134.9 41.4998 24 41.5-24-.8-.5-.032.019-40.668-23.519-40.6675 23.519-.0323-.019z" fill="url(#l)" fill-rule="evenodd"/><path d="m139.701 120.1-29.1 16.8 29.1 16.8 29.1-16.8z" fill="url(#m)"/><path d="m139.7 120.1 29.1 16.8 3.5-2-32.6-18.8-32.5 18.8 3.4 2z" fill="#bc560b"/><path clip-rule="evenodd" d="m98.2002 153.3 41.4998 24 41.5-24v-18.4l-41.5 24-41.4998-24z" fill="url(#n)" fill-rule="evenodd"/><path d="m139.7 139.1-41.4998-23.9 41.4998-24 41.5 24z" fill="url(#o)"/><path d="m139.7 138.2-40.6998-23.5-.8.5 41.4998 23.9 41.5-23.9-.8-.5z" fill="#fff"/><path clip-rule="evenodd" d="m98.2002 122.7 41.4998 23.9 41.5-23.9v-7.5l-41.5 23.9-41.4998-23.9z" fill="url(#p)" fill-rule="evenodd"/><path d="m98.2002 153.3v11.2l41.4998 23.9v-11.1z" fill="#f16822" opacity=".25"/><path d="m181.2 153.3v11.2l-41.5 23.9v-11.1z" fill="#fff" opacity=".5"/><path d="m181.2 153.3v11.2l-41.5 23.9v-11.1z" fill="#f16822" opacity=".25"/><path d="m151.7 164.9 17.6-10.2c1.6-.9 2.8-3.3 2.8-5.4s-1.3-3-2.8-2.1l-17.6 10.2c-1.6.9-2.8 3.3-2.8 5.4-.1 2.1 1.2 3 2.8 2.1z" fill="#f7f7f7"/><path d="m166.3 152.8c1.6-.9 2.8-3.3 2.8-5.4v-.1l.2-.1c1.6-.9 2.8.1 2.8 2.1 0 2.1-1.3 4.5-2.8 5.4l-17.6 10.2c-1.5.9-2.8 0-2.8-2z" fill="#f17a23"/><g fill="#f3f3f3"><path d="m125.2 159.7c0 1.5 1.1 3.4 2.4 4.1 1.3.8 2.4.1 2.4-1.4s-1.1-3.4-2.4-4.1-2.4-.1-2.4 1.4z"/><path d="m116.6 154.7c0 1.5 1.1 3.4 2.4 4.1 1.3.8 2.4.1 2.4-1.4s-1.1-3.4-2.4-4.1-2.4-.1-2.4 1.4z"/><path d="m108 149.7c0 1.5 1.1 3.4 2.4 4.1 1.3.8 2.4.1 2.4-1.4s-1.1-3.4-2.4-4.1c-1.4-.7-2.4-.1-2.4 1.4z"/></g><path d="m126.4 158c-.1.308-.2.615-.2.922 0 1.538 1.1 3.485 2.4 4.203.4.205.8.307 1.2.307-.4.82-1.2 1.025-2.2.41-1.3-.82-2.4-2.665-2.4-4.202 0-.922.5-1.537 1.2-1.64z" fill="#d74709"/><path d="m117.8 153c-.1.308-.2.615-.2.922 0 1.538 1.1 3.485 2.4 4.203.4.205.8.307 1.2.307-.4.82-1.2 1.025-2.2.41-1.3-.82-2.4-2.665-2.4-4.202 0-.922.5-1.537 1.2-1.64z" fill="#d74709"/><path d="m109.2 148c-.1.308-.2.615-.2.922 0 1.538 1.1 3.485 2.4 4.203.4.205.8.307 1.2.307-.4.82-1.2 1.025-2.2.41-1.3-.82-2.4-2.665-2.4-4.202 0-.922.4-1.537 1.2-1.64z" fill="#d74709"/><path d="m156 165.414c0-1.9 1.1-4.1 2.6-4.9l15.9-9.2c.7-.4 1.3-.4 1.7-.1l17.6 10.2-19.4 16.2-17.6-10.2c-.5-.3-.8-1-.8-2z" fill="url(#q)"/><path d="m176 177.414 15.9-9.2c1.4-.8 2.6-3 2.6-4.9s-1.1-2.7-2.6-1.9l-15.9 9.2c-1.4.8-2.6 3-2.6 4.9.1 1.9 1.2 2.8 2.6 1.9z" fill="url(#r)"/><path clip-rule="evenodd" d="m190 194.114-25.9-15v-11.5l25.9 15 26-15v11.5z" fill="url(#s)" fill-rule="evenodd"/><path clip-rule="evenodd" d="m164.109 167.608-.009.006 25.9 15 26-15h-.001.001l-.009-.005-.491-.295-.01.006-25.49-14.706-25.392 14.705-.008-.005z" fill="#f16822" fill-rule="evenodd"/><path d="m184.5 188.614 2.7 1.5v-5.3l-2.7-1.6z" fill="#f6f6f6" opacity=".2"/><path d="m180.101 186.014 2.7 1.5v-5.3l-2.7-1.5z" fill="#f6f6f6" opacity=".2"/><path d="m175.7 183.514 2.7 1.5v-5.3l-2.7-1.6z" fill="#f6f6f6" opacity=".2"/><path d="m171.301 180.914 2.7 1.5v-5.3l-2.7-1.5z" fill="#fff"/><path d="m166.9 178.414 2.6 1.5v-5.3l-2.6-1.6z" fill="#fff"/><path d="m72.5481 87.9734-.1577-30.0089-63.24294-1.2635.15772 29.535c-.15771.6318-.00001 1.4215.94622 1.8953l28.7038 17.0577c1.4194.948 4.1006.79 5.8354-.158l26.3381-15.0044c1.104-.6317 1.5771-1.2635 1.4194-2.0532z" fill="url(#t)"/><path d="m38.7976 74.7063-28.7038-17.0577c-1.41937-.9476-1.26165-2.3691.4732-3.3167l26.338-14.8465c1.7349-.9477 4.416-1.1056 5.8354-.158l28.7037 17.0577c1.4195.9476 1.2617 2.3691-.4731 3.3168l-26.338 14.8465c-1.7349.9476-4.416.9476-5.8354.1579z" fill="#ff9863"/><path d="m72.5476 50.0674v-12.9512l-21.2913-.4738-8.3587-5.0541c-1.4195-.9477-4.1006-.7897-5.8354.1579l-7.5702 4.2644-20.18731-.4738v12.9512c0 .4738.31541 1.1056.94631 1.4215l28.7037 17.0577c1.4194.9476 4.1006.7897 5.8354-.158l26.3381-14.6885c1.104-.6318 1.5771-1.2636 1.4194-2.0533z" fill="url(#u)"/><path d="m38.9548 54.1739-28.7037-17.0577c-1.41944-.9476-1.26173-2.3691.4731-3.3167l26.3381-14.8465c1.7348-.9477 4.4159-1.1056 5.8353-.158l28.7038 17.0577c1.4194.9477 1.2617 2.3691-.4732 3.3168l-26.338 14.8465c-1.7348.9476-4.416.9476-5.8354.1579z" fill="#ff9863"/><path d="m39.9014 46.9086-17.6638-10.4241c-.9463-.4739-.7886-1.4215.3154-2.0533l16.2444-9.1606c1.104-.6317 2.6811-.6317 3.6274-.1579l17.6638 10.4241c.9463.4738.7886 1.4215-.3154 2.0533l-16.2444 9.1606c-1.104.6317-2.8388.7897-3.6274.1579z" fill="url(#v)"/><path d="m22.2373 36.4845 2.9966 1.7373 13.5633-7.5812c1.104-.6317 2.6811-.6317 3.6274-.1579l14.6673 8.6868 2.6811-1.4215c1.104-.6318 1.2617-1.5794.3154-2.0532l-17.8215-10.4242c-.9463-.4738-2.5235-.4738-3.6274.158l-16.2445 9.1606c-.9462.4738-1.104 1.4215-.1577 1.8953z" fill="#d84b0e"/><path d="m71.1291 21.0062-26.338 14.8465c-1.7349.9477-4.416 1.1056-5.8354.1579l-28.7038-17.0576c-.63082-.3159-.94624-.9477-.94624-1.4215v18.1633c0 .4738.31542 1.1055.94624 1.4214l28.7038 17.0577c1.4194.9477 4.1005.7897 5.8354-.1579l26.338-14.8465c.9463-.6318 1.4194-1.2636 1.4194-2.0533v-18.1632c0 .7897-.4731 1.5794-1.4194 2.0532z" fill="url(#x)" opacity=".4"/><path d="m0 89.8687 8.98966-5.2121 9.14734 5.2121-9.14734 5.212z" fill="#8d8d8d"/><path d="m8.98926 118.772v-23.6912l9.14734-5.2121v23.6913z" fill="url(#y)"/><path d="m0 89.8687v23.5333l8.98969 5.37v-23.6912z" fill="url(#z)"/><path d="m0 80.5501 8.98966-5.212 9.14734 5.212-9.14734 5.2121z" fill="#fff"/><path d="m8.98926 90.6584v-4.8962l9.14734-5.2121v4.8962z" fill="url(#A)"/><path d="m0 80.5501v4.7383l8.98969 5.37v-4.8962z" fill="url(#B)"/><path d="m38.9539 36.0156-28.7038-17.0577c-1.41942-.9477-1.2617-2.3691.4731-3.3168l26.3381-14.84648c1.7348-.947648 4.416-1.10559 5.8354-.157941l28.7038 17.057721c1.4194.9476 1.2617 2.3691-.4732 3.3167l-26.338 14.8465c-1.7349.9477-4.416 1.1056-5.8354.158z" fill="#f16822" opacity=".5"/><path d="m71.1281 21.0111-26.338 14.8465c-1.7349.9477-4.416 1.1056-5.8354.158l-28.7037-17.0577c-.6309-.3159-.94631-.9477-.94631-1.4215v18.1633c0 .4738.31541 1.1056.94631 1.4214l28.7037 17.0577c1.4194.9477 4.1005.7897 5.8354-.1579l26.338-14.8465c.9463-.6318 1.4194-1.2635 1.4194-2.0533v-18.1632c0 .7897-.4731 1.5794-1.4194 2.0532z" fill="#f16822" opacity=".4"/><path d="m261.999 234.978.158-30.009 63.242-1.263-.157 29.535c.157.632 0 1.421-.947 1.895l-28.703 17.058c-1.42.948-4.101.79-5.836-.158l-26.338-14.847c-.946-.789-1.419-1.421-1.419-2.211z" fill="url(#C)"/><path d="m295.907 221.711 28.704-17.057c1.42-.948 1.262-2.37-.473-3.317l-26.338-14.847c-1.735-.947-4.416-1.105-5.835-.158l-28.704 17.058c-1.42.948-1.262 2.369.473 3.317l26.338 14.846c1.735.948 4.258.948 5.835.158z" fill="#8d8d8d"/><path d="m261.999 197.072v-12.951l21.291-.474 8.359-5.054c1.419-.947 4.1-.79 5.835.158l7.728 4.422 20.187-.473v12.951c0 .474-.315 1.105-.946 1.421l-28.704 17.058c-1.419.948-4.1.79-5.835-.158l-26.338-14.846c-1.104-.632-1.577-1.264-1.577-2.054z" fill="url(#D)"/><path d="m295.749 201.179 28.704-17.058c1.419-.947 1.262-2.369-.473-3.317l-26.338-14.846c-1.735-.948-4.416-1.106-5.836-.158l-28.703 17.058c-1.42.947-1.262 2.369.473 3.316l26.338 14.847c1.735.948 4.416.948 5.835.158z" fill="#8d8d8d"/><path d="m294.803 193.914 17.664-10.425c.946-.473.788-1.421-.316-2.053l-16.244-9.16c-1.104-.632-2.681-.632-3.628-.158l-17.664 10.424c-.946.474-.788 1.421.316 2.053l16.244 9.161c1.104.631 2.681.789 3.628.158z" fill="#f3f3f3"/><path d="m312.467 183.647-2.997 1.738-13.563-7.581c-1.104-.632-2.681-.632-3.628-.158l-14.667 8.686-2.681-1.421c-1.104-.632-1.262-1.58-.316-2.053l17.664-10.425c.947-.473 2.524-.473 3.628.158l16.244 9.161c1.104.316 1.262 1.264.316 1.895z" fill="#d9d9d9"/><path d="m295.75 183.016 28.704-17.058c1.419-.948 1.262-2.369-.473-3.317l-26.338-14.846c-1.735-.948-4.416-1.106-5.836-.158l-28.703 17.057c-1.42.948-1.262 2.369.473 3.317l26.338 14.847c1.735.947 4.416 1.105 5.835.158z" fill="#fff" opacity=".5"/><path d="m263.576 168.011 26.338 14.847c1.735.947 4.416 1.105 5.835.158l28.704-17.058c.631-.316.946-.948.946-1.422v18.164c0 .474-.315 1.105-.946 1.421l-28.704 17.058c-1.419.947-4.1.79-5.835-.158l-26.338-14.847c-.946-.631-1.42-1.263-1.42-2.053v-18.163c-.157.79.474 1.579 1.42 2.053z" fill="url(#E)" opacity=".4"/><path d="m263.576 168.011 26.338 14.847c1.735.947 4.416 1.105 5.835.158l28.704-17.058c.631-.316.946-.948.946-1.422v18.164c0 .474-.315 1.105-.946 1.421l-28.704 17.058c-1.419.947-4.1.79-5.835-.158l-26.338-14.847c-.946-.631-1.42-1.263-1.42-2.053v-18.163c-.157.79.474 1.579 1.42 2.053z" fill="#e1e1e1" opacity=".4"/><path d="m334.705 236.874-9.147-5.212-8.99 5.212 8.99 5.212z" fill="#ed711f"/><path d="m325.558 265.777v-23.691l-8.99-5.212v23.691z" fill="url(#F)"/><path d="m334.705 236.874v23.533l-9.147 5.37v-23.691z" fill="url(#G)"/><path d="m334.705 227.555-9.147-5.212-8.99 5.212 8.99 5.212z" fill="#f16822"/><path d="m325.558 237.663v-4.896l-8.99-5.212v4.896z" fill="url(#H)"/><path d="m334.705 227.555v4.738l-9.147 5.37v-4.896z" fill="url(#I)"/></svg>