<svg
  fill="none"
  height="188"
  viewBox="0 0 304 188"
  width="304"
  xmlns="http://www.w3.org/2000/svg"
  xmlns:xlink="http://www.w3.org/1999/xlink"
>
  <linearGradient id="a" gradientUnits="userSpaceOnUse" x1="270.872" x2="23.9313" y1="-25.3544" y2="221.586">
    <stop offset="0" stop-color="#1ac6bb" />
    <stop offset="1" stop-color="#95b734" />
  </linearGradient>
  <linearGradient id="b">
    <stop offset="0" stop-color="#fff" />
    <stop offset="1" stop-color="#fff" stop-opacity="0" />
  </linearGradient>
  <linearGradient
    id="c"
    gradientUnits="userSpaceOnUse"
    x1="34.9948"
    x2="139.251"
    xlink:href="#b"
    y1="146.998"
    y2="24.229"
  />
  <linearGradient
    id="d"
    gradientUnits="userSpaceOnUse"
    x1="257.419"
    x2="89.2386"
    xlink:href="#b"
    y1="25.987"
    y2="189.755"
  />
  <linearGradient
    id="e"
    gradientUnits="userSpaceOnUse"
    x1="88.7485"
    x2="167.69"
    xlink:href="#b"
    y1="195.148"
    y2="116.697"
  />
  <linearGradient
    id="f"
    gradientUnits="userSpaceOnUse"
    x1="189.303"
    x2="293.234"
    xlink:href="#b"
    y1="112.838"
    y2="112.838"
  />
  <path
    d="m289 0h-274c-8.28427 0-15 6.71571-15 15v157.077c0 8.284 6.71573 15 15 15h274c8.284 0 15-6.716 15-15v-157.077c0-8.28427-6.716-15-15-15z"
    fill="url(#a)"
  />
  <path
    d="m20.6392 50.5367c15.5898-26.3077 38-31.1794 65.0872-30.5299 23.1896.5846 48.3286 6.6906 69.7646-2.3384 21.37-8.96414 36.116-25.1385 59.176-24.22909 30.854 1.23418 44.171 25.91799 42.287 50.21199-2.599 33.6478-31.505 50.7316-60.216 48.9128-23.774-1.494-48.912-3.6376-70.089 11.9519-19.552 14.421-32.8029 43.976-59.8252 46.704-53.3299 5.327-74.96064-52.0303-46.1846-100.6833z"
    fill="url(#c)"
    opacity=".2"
  />
  <path
    d="m253.073 31.6341c-12.082-12.082-31.829-12.082-43.911 0l-180.8407 180.8409c-12.082 12.082-12.082 31.829 0 43.911 12.0821 12.082 31.8291 12.082 43.9111 0l180.8406-180.8408c12.082-12.082 12.082-31.829 0-43.9111z"
    fill="url(#d)"
    opacity=".2"
  />
  <path
    d="m74.9609 210.072c7.535 7.535 19.8119 7.535 27.3471 0l112.636-112.6362c7.535-7.535 7.535-19.8119 0-27.347-7.535-7.535-19.812-7.535-27.347 0l-112.6361 112.6362c-7.5351 7.535-7.5351 19.812 0 27.347z"
    fill="url(#e)"
    opacity=".2"
  />
  <path
    d="m193.162 160.899c5.197 5.197 13.641 5.197 18.773 0l77.364-77.364c5.196-5.1966 5.196-13.641 0-18.7726-5.197-5.1966-13.641-5.1966-18.773 0l-77.364 77.3636c-5.196 5.132-5.196 13.641 0 18.773z"
    fill="url(#f)"
    opacity=".2"
  />
  <g fill="#fff">
    <path
      d="m199.808 73.4666c-.065 0-.194 0-.259-.065-.13-.1299-.13-.3247 0-.4546l78.858-78.85817c.13-.12991.324-.12991.454 0s.13.32479 0 .4547l-78.793 78.85807c-.065.065-.195.065-.26.065z"
      opacity=".3"
    />
    <path
      d="m88.6161 207.279c-.065 0-.1949 0-.2599-.065-.1299-.13-.1299-.325 0-.455l137.7098-137.7095c.13-.1299.324-.1299.454 0s.13.3248 0 .4547l-137.7091 137.7098c0 .065-.1299.065-.1948.065z"
      opacity=".3"
    />
    <path
      d="m4.48227 213.385c-.06496 0-.19488 0-.25983-.065-.12992-.13-.12992-.325 0-.455l88.34186-88.342c.1299-.13.3248-.13.4547 0s.1299.325 0 .455l-88.34186 88.342s-.06496.065-.19487.065z"
      opacity=".3"
    />
    <path
      d="m245.213 49.4974c-.194 0-.324-.1949-.324-.3248l.584-6.106c0-.1299.13-.2598.325-.3248l5.846-.5196.52-5.8462c0-.1299.13-.2598.325-.3248l5.846-.5196.519-5.8462c0-.1299.13-.2598.325-.3248l6.106-.5846c.195 0 .325.1299.325.3248s-.13.3248-.325.3248l-5.846.5196-.52 5.8462c0 .1299-.129.2598-.324.3248l-5.846.5196-.52 5.8462c0 .1299-.13.2598-.325.3248l-5.846.5196-.52 5.8462c0 .1949-.13.3248-.325.3248z"
      opacity=".3"
    />
    <path
      d="m29.816 175.969c-.1949 0-.3248-.195-.3248-.325l.4547-4.936c0-.13.1299-.26.3248-.325l4.6769-.455.4547-4.677c0-.13.1299-.26.3248-.325l4.6769-.454.4547-4.677c0-.13.1299-.26.3248-.325l4.9368-.455c.1948 0 .3248.13.3248.325s-.13.325-.3248.325l-4.677.455-.5196 4.741c0 .13-.1299.26-.3248.325l-4.6769.455-.4547 4.677c0 .13-.1299.26-.3248.325l-4.6769.454-.4547 4.677c.1299.065 0 .195-.1949.195z"
      opacity=".3"
    />
  </g>
</svg>
