<svg fill="none" height="188" viewBox="0 0 304 188" width="304" xmlns="http://www.w3.org/2000/svg" xmlns:xlink="http://www.w3.org/1999/xlink"><linearGradient id="a" gradientUnits="userSpaceOnUse" x1="21.8257" x2="277.757" y1="230.728" y2="-19.3573"><stop offset="0" stop-color="#7000ff"/><stop offset="1" stop-color="#00f3f3"/></linearGradient><linearGradient id="b"><stop offset="0" stop-color="#fff"/><stop offset="1" stop-color="#fff" stop-opacity="0"/></linearGradient><linearGradient id="c" gradientUnits="userSpaceOnUse" x1="223.838" x2="299.838" xlink:href="#b" y1="35.618" y2="35.618"/><linearGradient id="d" gradientUnits="userSpaceOnUse" x1="-8.70788" x2="69.046" xlink:href="#b" y1="157.705" y2="157.705"/><linearGradient id="e"><stop offset="0" stop-color="#5242fc"/><stop offset=".4637" stop-color="#475afb" stop-opacity=".36"/><stop offset="1" stop-color="#465dfb" stop-opacity="0"/></linearGradient><radialGradient id="f" cx="0" cy="0" gradientTransform="matrix(73.93013529 -73.93013529 16.45387982 16.45387982 275.981 96.3728)" gradientUnits="userSpaceOnUse" r="1" xlink:href="#e"/><radialGradient id="g" cx="0" cy="0" gradientTransform="matrix(55.57611813 -55.57611813 12.36906537 12.36906537 258.384 161.662)" gradientUnits="userSpaceOnUse" r="1" xlink:href="#e"/><linearGradient id="h"><stop offset="0" stop-color="#388cff"/><stop offset=".4637" stop-color="#23a9f7" stop-opacity=".63"/><stop offset="1" stop-color="#2e90f8" stop-opacity="0"/></linearGradient><radialGradient id="i" cx="0" cy="0" gradientTransform="matrix(53.27342489 -53.27342489 11.85655437 11.85655437 46.7496 132.281)" gradientUnits="userSpaceOnUse" r="1" xlink:href="#h"/><radialGradient id="j" cx="0" cy="0" gradientTransform="matrix(53.27342489 -53.27342489 11.85655437 11.85655437 100.795 22.2438)" gradientUnits="userSpaceOnUse" r="1" xlink:href="#h"/><radialGradient id="k" cx="0" cy="0" gradientTransform="matrix(41.16429198 -41.16429198 9.1615583 9.1615583 170.301 137.874)" gradientUnits="userSpaceOnUse" r="1" xlink:href="#h"/><radialGradient id="l" cx="0" cy="0" gradientTransform="matrix(67.23496545 -67.23496545 14.96386441 14.96386441 98.1313 145.594)" gradientUnits="userSpaceOnUse" r="1" xlink:href="#h"/><linearGradient id="m" gradientUnits="userSpaceOnUse" x1="240.765" x2="309.884" y1="184.229" y2="109.689"><stop offset="0" stop-color="#4b52fb"/><stop offset="1" stop-color="#1abdf6" stop-opacity=".42"/></linearGradient><linearGradient id="n" gradientUnits="userSpaceOnUse" x1="65.0752" x2="-11.6893" y1="10.0489" y2="91.9243"><stop offset="0" stop-color="#19bdf6"/><stop offset="1" stop-color="#5836fd" stop-opacity="0"/></linearGradient><mask id="o" height="188" maskUnits="userSpaceOnUse" width="304" x="0" y="0"><path d="m289 0h-274c-8.28427 0-15 6.71571-15 15v157.077c0 8.284 6.71573 15 15 15h274c8.284 0 15-6.716 15-15v-157.077c0-8.28427-6.716-15-15-15z" fill="url(#a)"/></mask><g mask="url(#o)"><path d="m289 0h-274c-8.28427 0-15 6.71571-15 15v157.077c0 8.284 6.71573 15 15 15h274c8.284 0 15-6.716 15-15v-157.077c0-8.28427-6.716-15-15-15z" fill="url(#a)"/><path d="m89.1215 79.7025-2.2735-2.2735-2.2085 2.2735-1.3641-1.3641 3.5726-3.6376 3.6376 3.6376z" fill="#fff" opacity=".3"/><path d="m224.168 73.5965c-.065 0-.195 0-.26-.0649-.13-.1299-.13-.3248 0-.4547l75.35-75.35044c.13-.12991.325-.12991.455 0 .13.12992.13.32479 0 .45471l-75.35 75.35043s-.13.0649-.195.0649z" fill="url(#c)" opacity=".3"/><path d="m109.194 158.496c-.065 0-.13 0-.195-.065s-.065-.26 0-.325l21.241-21.241c.065-.065.26-.065.325 0s.065.26 0 .325l-21.241 21.241c0 .065-.065.065-.13.065z" fill="#fff" opacity=".3"/><path d="m-8.37906 196.561c-.06496 0-.19487 0-.25983-.065-.12992-.13-.12992-.325 0-.455l77.10429-77.104c.1299-.13.3248-.13.4547 0s.1299.325 0 .454l-77.03933 77.105c-.06496.065-.19488.065-.25983.065z" fill="url(#d)" opacity=".3"/><path d="m168.305 33.6478c-.065 0-.13 0-.195-.0649-.065-.065-.065-.2599 0-.3248l25.528-25.52823c.065-.06496.26-.06496.325 0s.065.25983 0 .32479l-25.463 25.52824c-.065.0649-.13.0649-.195.0649z" fill="#fff" opacity=".3"/><g opacity=".8"><path d="m340.637 21.0461c-16.434 3.4428-48.653 26.3727-81.131 58.8513-32.479 32.4786-55.409 64.6976-58.852 81.1316z" fill="url(#f)" opacity=".8"/><path d="m306.989 105.036c-12.355 2.588-36.575 19.825-60.99 44.241-24.416 24.415-41.653 48.635-44.241 60.99z" fill="url(#g)" opacity=".8"/><path d="m93.3445 78.0137c-11.8223 2.4683-35.077 19.0325-58.4616 42.4173-23.3846 23.384-39.9487 46.639-42.41708 58.461z" fill="url(#i)" opacity=".8"/><path d="m147.389-32.0239c-11.822 2.4684-35.077 19.0325-58.4612 42.4171-23.3846 23.3846-39.9487 46.6393-42.4171 58.4615z" fill="url(#j)" opacity=".8"/><path d="m206.305 95.9418c-9.135 1.9073-27.104 14.7062-45.173 32.7752-18.069 18.07-30.868 36.039-32.776 45.174z" fill="url(#k)" opacity=".8"/><path d="m156.937 77.1042c-14.92 3.1153-44.269 24.0208-73.7824 53.5338-29.5131 29.513-50.4182 58.862-53.5335 73.782z" fill="url(#l)" opacity=".8"/></g><path d="m229.471 153.961c0 7.952 2.358 15.726 6.776 22.338s10.697 11.765 18.044 14.808 15.431 3.84 23.23 2.288c7.799-1.551 14.964-5.381 20.587-11.003 5.623-5.623 9.452-12.788 11.003-20.587 1.552-7.799.755-15.883-2.288-23.23s-8.196-13.626-14.808-18.044-14.386-6.776-22.338-6.776" stroke="url(#m)" stroke-width="20"/><path d="m77.471 43.6387c0-8.8249-2.5882-17.4516-7.4371-24.7892-4.849-7.3376-11.741-13.05657-19.8045-16.43371-8.0636-3.377129-16.9364-4.26074-25.4966-2.539093-8.5602 1.721643-16.42326 5.971233-22.59482 12.211403-6.17155 6.2401-10.37443 14.1905-12.07716 22.8458-1.70272 8.6553-.82882 17.6268 2.51119 25.7799 3.34003 8.1531 8.99616 15.1217 16.25314 20.0245 7.25695 4.9029 15.78885 7.5198 24.51675 7.5198" stroke="url(#n)" stroke-width="20"/><path d="m-42.8882 127.755c-.065 0-.13 0-.1949-.065-.065-.065-.065-.26 0-.325l113.8701-113.8701c.0649-.065.2598-.065.3248 0 .0649.0649.0649.2598 0 .3248l-113.8701 113.8703s-.065.065-.1299.065z" fill="#fff" opacity=".3"/></g></svg>