<svg fill="none" height="191" viewBox="0 0 310 191" width="310" xmlns="http://www.w3.org/2000/svg" xmlns:xlink="http://www.w3.org/1999/xlink"><linearGradient id="a" gradientUnits="userSpaceOnUse" x1="276.218" x2="24.4036" y1="-25.8549" y2="225.959"><stop offset="0" stop-color="#1ac6bb"/><stop offset="1" stop-color="#95b734"/></linearGradient><linearGradient id="b"><stop offset="0" stop-color="#fff"/><stop offset="1" stop-color="#fff" stop-opacity="0"/></linearGradient><linearGradient id="c" gradientUnits="userSpaceOnUse" x1="35.686" x2="142" xlink:href="#b" y1="149.9" y2="24.7074"/><linearGradient id="d" gradientUnits="userSpaceOnUse" x1="262.5" x2="90.9999" xlink:href="#b" y1="26.5004" y2="193.5"/><linearGradient id="e" gradientUnits="userSpaceOnUse" x1="90.4999" x2="171" xlink:href="#b" y1="199" y2="119"/><linearGradient id="f" gradientUnits="userSpaceOnUse" x1="193.039" x2="299.022" xlink:href="#b" y1="115.065" y2="115.065"/><path d="m303.5 0h-297c-1.39453 0-2.09179 0-2.66723.13815-1.82824.438923-3.255697 1.86638-3.69462 3.69462-.13815.57544-.13815 1.27271-.13815 2.66724v177.76899c0 1.395 0 2.092.13815 2.667.438923 1.829 1.86638 3.256 3.69462 3.695.57544.138 1.2727.138 2.66722.138h297.00001c1.395 0 2.092 0 2.667-.138 1.828-.439 3.256-1.866 3.695-3.695.138-.575.138-1.272.138-2.667v-177.769c0-1.39453 0-2.09179-.138-2.66723-.439-1.82824-1.867-3.255697-3.695-3.69462-.575-.13815-1.272-.13815-2.667-.13815z" fill="url(#a)"/><path d="m21.047 51.5343c15.8975-26.8269 38.75-31.7948 66.3718-31.1325 23.6472.5962 49.2822 6.8227 71.1412-2.3846 21.793-9.14099 36.829-25.63459 60.344-24.70723 31.464 1.25854 45.043 26.42953 43.122 51.20303-2.65 34.3119-32.126 51.7329-61.404 49.8782-24.244-1.5235-49.878-3.7094-71.472 12.1878-19.938 14.705-33.4513 44.844-61.0068 47.626-54.3825 5.432-76.44019-53.057-47.0962-102.6707z" fill="url(#c)" opacity=".2"/><path d="m258.068 32.2589c-12.32-12.3205-32.457-12.3205-44.777 0l-184.4107 184.4101c-12.3205 12.321-12.3205 32.457 0 44.778 12.3205 12.32 32.4572 12.32 44.7778 0l184.4099-184.4103c12.321-12.3205 12.321-32.4572 0-44.7778z" fill="url(#d)" opacity=".2"/><path d="m76.4401 214.218c7.6837 7.684 20.203 7.684 27.8869 0l114.859-114.859c7.684-7.6837 7.684-20.2029 0-27.8867s-20.203-7.6838-27.887 0l-114.8589 114.8587c-7.6838 7.684-7.6838 20.203 0 27.887z" fill="url(#e)" opacity=".2"/><path d="m196.974 164.075c5.3 5.299 13.911 5.299 19.144 0l78.891-78.8911c5.299-5.2991 5.299-13.9102 0-19.1431-5.3-5.2992-13.911-5.2992-19.144 0l-78.891 78.8912c-5.299 5.233-5.299 13.91 0 19.143z" fill="url(#f)" opacity=".2"/><g fill="#fff"><path d="m203.752 74.9169c-.066 0-.199-.0001-.265-.0663-.132-.1325-.132-.3312 0-.4637l80.415-80.41449c.132-.13248.331-.13248.463 0 .133.13247.133.33119 0 .46367l-80.348 80.41452c-.066.0662-.199.0663-.265.0663z" opacity=".3"/><path d="m90.3641 211.37c-.0663 0-.1987 0-.265-.067-.1325-.132-.1325-.331 0-.463l140.4269-140.4277c.133-.1324.332-.1324.464 0 .133.1325.133.3312 0 .4637l-140.4272 140.427c0 .067-.1325.067-.1987.067z" opacity=".3"/><path d="m4.57037 217.597c-.06624 0-.19872 0-.26496-.067-.13247-.132-.13247-.331 0-.463l90.08549-90.086c.1325-.132.3312-.132.4637 0 .1324.133.1324.331 0 .464l-90.08551 90.085s-.06624.067-.19872.067z" opacity=".3"/><path d="m250.053 50.4746c-.198 0-.331-.1987-.331-.3312l.596-6.2265c0-.1325.133-.265.332-.3312l5.961-.5299.53-5.9616c0-.1324.132-.2649.331-.3312l5.962-.5299.53-5.9615c0-.1325.132-.265.331-.3312l6.226-.5962c.199 0 .332.1325.332.3312 0 .1988-.133.3312-.332.3312l-5.961.5299-.53 5.9616c0 .1325-.133.2649-.331.3312l-5.962.5299-.53 5.9615c0 .1325-.132.265-.331.3312l-5.962.5299-.529 5.9616c0 .1987-.133.3312-.332.3312z" opacity=".3"/><path d="m30.4037 179.442c-.1987 0-.3312-.198-.3312-.331l.4637-5.034c0-.133.1325-.265.3312-.331l4.7692-.464.4637-4.769c0-.133.1325-.265.3312-.331l4.7692-.464.4637-4.769c0-.133.1325-.265.3312-.332l5.0342-.463c.1987 0 .3312.132.3312.331s-.1325.331-.3312.331l-4.7693.464-.5299 4.835c0 .133-.1325.265-.3312.332l-4.7692.463-.4637 4.769c0 .133-.1325.265-.3312.332l-4.7692.463-.4637 4.77c.1325.066 0 .198-.1987.198z" opacity=".3"/></g></svg>