<svg fill="none" height="191" viewBox="0 0 310 191" width="310" xmlns="http://www.w3.org/2000/svg" xmlns:xlink="http://www.w3.org/1999/xlink"><linearGradient id="a" gradientUnits="userSpaceOnUse" x1="22.2565" x2="283.239" y1="235.282" y2="-19.7393"><stop offset="0" stop-color="#7000ff"/><stop offset="1" stop-color="#00f3f3"/></linearGradient><linearGradient id="b"><stop offset="0" stop-color="#fff"/><stop offset="1" stop-color="#fff" stop-opacity="0"/></linearGradient><linearGradient id="c" gradientUnits="userSpaceOnUse" x1="228.256" x2="305.756" xlink:href="#b" y1="36.3212" y2="36.3212"/><linearGradient id="d" gradientUnits="userSpaceOnUse" x1="-8.88017" x2="70.4083" xlink:href="#b" y1="160.818" y2="160.818"/><linearGradient id="e"><stop offset="0" stop-color="#5242fc"/><stop offset=".4637" stop-color="#475afb" stop-opacity=".36"/><stop offset="1" stop-color="#465dfb" stop-opacity="0"/></linearGradient><radialGradient id="f" cx="0" cy="0" gradientTransform="matrix(75.38889658 -75.38889658 16.77865397 16.77865397 281.427 98.2753)" gradientUnits="userSpaceOnUse" r="1" xlink:href="#e"/><radialGradient id="g" cx="0" cy="0" gradientTransform="matrix(56.67298217 -56.67298217 12.61315863 12.61315863 263.483 164.853)" gradientUnits="userSpaceOnUse" r="1" xlink:href="#e"/><linearGradient id="h"><stop offset="0" stop-color="#388cff"/><stop offset=".4637" stop-color="#23a9f7" stop-opacity=".63"/><stop offset="1" stop-color="#2e90f8" stop-opacity="0"/></linearGradient><radialGradient id="i" cx="0" cy="0" gradientTransform="matrix(54.32489268 -54.32489268 12.09060672 12.09060672 47.6714 134.892)" gradientUnits="userSpaceOnUse" r="1" xlink:href="#h"/><radialGradient id="j" cx="0" cy="0" gradientTransform="matrix(54.32489268 -54.32489268 12.09060672 12.09060672 102.782 22.683)" gradientUnits="userSpaceOnUse" r="1" xlink:href="#h"/><radialGradient id="k" cx="0" cy="0" gradientTransform="matrix(41.97675767 -41.97675767 9.3423655 9.3423655 173.662 140.596)" gradientUnits="userSpaceOnUse" r="1" xlink:href="#h"/><radialGradient id="l" cx="0" cy="0" gradientTransform="matrix(68.56199274 -68.56199274 15.25922292 15.25922292 100.067 148.468)" gradientUnits="userSpaceOnUse" r="1" xlink:href="#h"/><linearGradient id="m" gradientUnits="userSpaceOnUse" x1="245.517" x2="316" y1="187.865" y2="111.854"><stop offset="0" stop-color="#4b52fb"/><stop offset="1" stop-color="#1abdf6" stop-opacity=".42"/></linearGradient><linearGradient id="n" gradientUnits="userSpaceOnUse" x1="66.3596" x2="-11.92" y1="10.2472" y2="93.7386"><stop offset="0" stop-color="#19bdf6"/><stop offset="1" stop-color="#5836fd" stop-opacity="0"/></linearGradient><mask id="o" height="191" maskUnits="userSpaceOnUse" width="310" x="0" y="0"><path d="m303.5 0h-297c-1.39453 0-2.09179 0-2.66723.13815-1.82824.438923-3.255697 1.86638-3.69462 3.69462-.13815.57544-.13815 1.27271-.13815 2.66724v177.76899c0 1.395 0 2.092.13815 2.667.438923 1.829 1.86638 3.256 3.69462 3.695.57544.138 1.2727.138 2.66722.138h297.00001c1.395 0 2.092 0 2.667-.138 1.828-.439 3.256-1.866 3.695-3.695.138-.575.138-1.272.138-2.667v-177.769c0-1.39453 0-2.09179-.138-2.66723-.439-1.82824-1.867-3.255697-3.695-3.69462-.575-.13815-1.272-.13815-2.667-.13815z" fill="url(#a)"/></mask><g mask="url(#o)"><path d="m303.5 0h-297c-1.39453 0-2.09179 0-2.66723.13815-1.82824.438923-3.255697 1.86638-3.69462 3.69462-.13815.57544-.13815 1.27271-.13815 2.66724v177.76899c0 1.395 0 2.092.13815 2.667.438923 1.829 1.86638 3.256 3.69462 3.695.57544.138 1.2727.138 2.66722.138h297.00001c1.395 0 2.092 0 2.667-.138 1.828-.439 3.256-1.866 3.695-3.695.138-.575.138-1.272.138-2.667v-177.769c0-1.39453 0-2.09179-.138-2.66723-.439-1.82824-1.867-3.255697-3.695-3.69462-.575-.13815-1.272-.13815-2.667-.13815z" fill="url(#a)"/><path d="m90.8802 81.2757-2.3183-2.3184-2.2522 2.3184-1.391-1.391 3.6432-3.7094 3.7094 3.7094z" fill="#fff" opacity=".3"/><path d="m228.592 75.0494c-.066 0-.199 0-.265-.0662-.133-.1325-.133-.3312 0-.4637l76.838-76.83762c.132-.13248.331-.13248.463 0 .133.13248.133.3312 0 .46367l-76.837 76.83765s-.133.0662-.199.0662z" fill="url(#c)" opacity=".3"/><path d="m111.348 161.624c-.066 0-.132 0-.198-.066-.067-.066-.067-.265 0-.331l21.66-21.661c.066-.066.265-.066.331 0 .066.067.066.265 0 .331l-21.66 21.661c0 .066-.067.066-.133.066z" fill="#fff" opacity=".3"/><path d="m-8.54486 200.44c-.06624 0-.19872 0-.26496-.066-.13248-.132-.13248-.331 0-.464l78.62612-78.626c.1324-.132.3311-.132.4636 0 .1325.133.1325.332 0 .464l-78.55981 78.626c-.06624.066-.19871.066-.26495.066z" fill="url(#d)" opacity=".3"/><path d="m171.626 34.3122c-.066 0-.132 0-.199-.0663-.066-.0662-.066-.2649 0-.3312l26.032-26.03201c.067-.06624.265-.06624.332 0 .066.06624.066.26495 0 .33119l-25.966 26.03202c-.066.0663-.133.0663-.199.0663z" fill="#fff" opacity=".3"/><g opacity=".8"><path d="m347.359 21.4619c-16.759 3.5107-49.613 26.8932-82.733 60.0128-33.12 33.1193-56.502 65.9743-60.013 82.7333z" fill="url(#f)" opacity=".8"/><path d="m313.047 107.109c-12.598 2.639-37.296 20.217-62.194 45.114-24.897 24.898-42.475 49.596-45.114 62.194z" fill="url(#g)" opacity=".8"/><path d="m95.1858 79.5537c-12.0555 2.5171-35.7692 19.4081-59.6154 43.2543-23.8461 23.846-40.73714 47.56-43.25424 59.615z" fill="url(#i)" opacity=".8"/><path d="m150.297-32.6558c-12.056 2.5171-35.769 19.4082-59.6155 43.2543-23.8461 23.8462-40.7372 47.5598-43.2543 59.6154z" fill="url(#j)" opacity=".8"/><path d="m210.376 97.8359c-9.315 1.945-27.639 14.9971-46.065 33.4221-18.425 18.426-31.477 36.75-33.422 46.065z" fill="url(#k)" opacity=".8"/><path d="m160.034 78.6265c-15.215 3.1767-45.143 24.4945-75.2389 54.5905-30.0956 30.095-51.4133 60.024-54.59 75.239z" fill="url(#l)" opacity=".8"/></g><path d="m234 157c0 8.109 2.405 16.036 6.91 22.778 4.505 6.743 10.908 11.998 18.4 15.101s15.735 3.915 23.689 2.333c7.953-1.582 15.258-5.487 20.992-11.221s9.639-13.039 11.221-20.992c1.582-7.954.77-16.197-2.333-23.689s-8.358-13.895-15.101-18.4c-6.742-4.505-14.669-6.91-22.778-6.91" stroke="url(#m)" stroke-width="20"/><path d="m79 44.5c0-8.9991-2.6392-17.796-7.5839-25.2784-4.9446-7.4825-11.9727-13.31433-20.1953-16.75812-8.2227-3.443786-17.2707-4.34484-25.9999-2.58921-8.7291 1.75563-16.74734 6.08908-23.04071 12.45233-6.29336 6.3633-10.57919 14.4707-12.31549 23.2968-1.7364 8.8261-.8452 17.9747 2.56072 26.2887 3.40594 8.314 9.17371 15.4202 16.57392 20.4198 7.40026 4.9996 16.10046 7.6681 25.00066 7.6681" stroke="url(#n)" stroke-width="20"/><path d="m-43.7345 130.276c-.0663 0-.1325 0-.1987-.066-.0663-.066-.0663-.265 0-.331l116.1175-116.1179c.0662-.0662.265-.0662.3312 0s.0662.265 0 .3312l-116.1175 116.1177s-.0663.066-.1325.066z" fill="#fff" opacity=".3"/></g></svg>