<svg width="30" height="30" viewBox="0 0 30 30" fill="none" xmlns="http://www.w3.org/2000/svg">
    <path d="M15.0001 0C6.71687 0 0 6.75177 0 15.0808C0 21.744 4.29799 27.3969 10.258 29.391C11.0077 29.5306 11.2829 29.0639 11.2829 28.6656C11.2829 28.3059 11.269 27.118 11.2625 25.8578C7.08946 26.7701 6.2089 24.0785 6.2089 24.0785C5.52656 22.3353 4.54341 21.8718 4.54341 21.8718C3.18245 20.9358 4.64599 20.9551 4.64599 20.9551C6.15227 21.0614 6.94539 22.5091 6.94539 22.5091C8.28325 24.8147 10.4545 24.1481 11.3105 23.7628C11.4451 22.7881 11.8338 22.1228 12.2628 21.7462C8.93107 21.3649 5.42869 20.0718 5.42869 14.2932C5.42869 12.6467 6.01466 11.3014 6.97421 10.2453C6.81846 9.86544 6.30503 8.33158 7.11952 6.2543C7.11952 6.2543 8.37914 5.84899 11.2456 7.80015C12.4421 7.466 13.7254 7.29843 15.0001 7.29269C16.2749 7.29843 17.5591 7.466 18.7579 7.80015C21.6209 5.84899 22.8787 6.2543 22.8787 6.2543C23.6952 8.33158 23.1815 9.86544 23.0258 10.2453C23.9876 11.3014 24.5696 12.6467 24.5696 14.2932C24.5696 20.0855 21.0605 21.3609 17.7203 21.7342C18.2583 22.2022 18.7377 23.12 18.7377 24.527C18.7377 26.5448 18.7203 28.1688 18.7203 28.6656C18.7203 29.0669 18.9904 29.5371 19.7507 29.389C25.7075 27.3927 30 21.7417 30 15.0808C30 6.75177 23.2841 0 15.0001 0Z" fill="white"/>
</svg>
