<svg fill="none" height="30" viewBox="0 0 115 30" width="115" xmlns="http://www.w3.org/2000/svg" xmlns:xlink="http://www.w3.org/1999/xlink"><clipPath id="a"><path d="m0 0h114.507v30h-114.507z"/></clipPath><g clip-path="url(#a)"><g fill="#fff"><path d="m112.591 11.564c-1.276-1.2835-2.802-1.92728-4.579-1.92728-1.17 0-2.267.2936-3.28.88288-1.017.5893-1.814 1.3863-2.395 2.395-.579 1.0066-.87 2.1118-.87 3.3114 0 1.791.623 3.3387 1.871 4.6411 1.245 1.3044 2.81 1.9545 4.691 1.9545 1.797 0 3.326-.6312 4.589-1.9021 1.26-1.2667 1.889-2.8186 1.889-4.6515 0-1.8476-.637-3.4163-1.916-4.704zm-1.67 7.7176c-.795.8179-1.759 1.2268-2.892 1.2268-1.002 0-1.887-.3145-2.661-.9479-.997-.8074-1.494-1.9042-1.494-3.2946 0-1.2437.397-2.2713 1.187-3.0787.789-.8095 1.766-1.2121 2.928-1.2121 1.147 0 2.125.4131 2.924 1.2415.803.8284 1.206 1.8392 1.206 3.0346 0 1.1996-.399 2.2083-1.198 3.0304z"/><path d="m97.2827 16.96c.8347-.2999 1.4618-.7403 1.8771-1.3212.4152-.583.6208-1.3065.6208-2.1748 0-.822-.1867-1.5372-.5621-2.1412-.3754-.6018-.8746-1.0339-1.4912-1.2939-.6186-.26006-1.6547-.39218-3.1123-.39218h-4.616v13.18068h2.5062v-5.5805h2.1875l2.9654 5.5805h2.7429zm-.3796-2.483c-.302.2118-.4467.3146-1.2457.3146h-3.1522v-2.697h3.0536c.6124 0 .7215.0461.971.1405.2517.0923.4488.2454.5998.4551s.2223.4614.2223.7487c0 .4844-.1489.8305-.4488 1.0381z"/><path d="m78.7578 9.63672h8.5441v2.45578h-6.0526v2.697h6.0526v2.4117h-6.0526v3.1478h6.0526v2.4663h-8.5441z"/><path d="m65.5195 9.63672h2.3993l5.6541 8.67178v-8.67178h2.5083v13.17648h-2.4097l-5.6437-8.6424v8.6424h-2.5083z"/><path d="m61.6185 11.5598c-1.273-1.2813-2.7935-1.92308-4.5657-1.92308-1.1681 0-2.2587.2936-3.2696.87868-1.0129.5872-1.8099 1.3821-2.3866 2.3866-.5768 1.0046-.8683 2.1056-.8683 3.301 0 1.7867.6208 3.3282 1.8645 4.6263 1.2415 1.3002 2.8019 1.9483 4.6789 1.9483 1.791 0 3.3157-.6292 4.5741-1.8959 1.2583-1.2625 1.8854-2.8102 1.8854-4.6368-.0021-1.8392-.6376-3.4016-1.9127-4.6851zm-1.6631 7.6924c-.7928.8158-1.7533 1.2227-2.8837 1.2227-1.0004 0-1.8812-.3125-2.6551-.9437-.9941-.8054-1.489-1.9001-1.489-3.2842 0-1.2394.3942-2.2649 1.1849-3.0703.7865-.8074 1.7596-1.2079 2.9193-1.2079 1.1451 0 2.1162.4131 2.9152 1.2373.8012.8242 1.2017 1.8329 1.2017 3.0262 0 1.1954-.3984 2.202-1.1933 3.0199z"/><path d="m36.3447 9.63672h2.4559l3.0451 9.19188 3.0914-9.19188h2.4181l2.221 13.17648h-2.4181l-1.4178-8.3215-2.804 8.3215h-2.2105l-2.7662-8.3215-1.4429 8.3215h-2.4454z"/></g><path d="m15.0003 0c-8.28201 0-15.00784425 6.72562-14.99735807 14.999.00209724 1.6546.26634907 3.2464.76129707 4.7354h4.488091v-12.61661l9.74797 9.74761 9.7479-9.74761v12.61661h4.4881c.4971-1.489.7592-3.0808.7613-4.7375.0147-8.27967-6.7153-14.99480283-14.9973-14.9969z" fill="#f16822"/><path d="m12.757 19.1072-4.25526-4.2551v7.9398h-1.62746-1.62536-3.06826c2.63204 4.3181 7.39067 7.208 12.81834 7.208 5.4276 0 10.1842-2.8899 12.8183-7.208h-3.0704-2.9088-.344v-7.9398l-4.2553 4.2551-2.2398 2.2419z" fill="#fff"/></g></svg>