<svg fill="none" height="266" viewBox="0 0 369 266" width="369" xmlns="http://www.w3.org/2000/svg" xmlns:xlink="http://www.w3.org/1999/xlink"><linearGradient id="a"><stop offset="0" stop-color="#f16822"/><stop offset="1" stop-color="#d84b0e"/></linearGradient><linearGradient id="b" gradientUnits="userSpaceOnUse" x1="81.7768" x2="285.771" xlink:href="#a" y1="171.504" y2="171.504"/><linearGradient id="c" gradientUnits="userSpaceOnUse" x1="46.7003" x2="320.693" xlink:href="#a" y1="171.506" y2="171.506"/><linearGradient id="d"><stop offset="0" stop-color="#f16822"/><stop offset="1" stop-color="#f16822" stop-opacity="0"/></linearGradient><linearGradient id="e" gradientUnits="userSpaceOnUse" x1="184.402" x2="184.402" xlink:href="#d" y1="208.756" y2=".056898"/><radialGradient id="f" cx="184.32" cy="200.475" gradientUnits="userSpaceOnUse" r="54.2248"><stop offset="0" stop-color="#e6e6e6"/><stop offset=".09678" stop-color="#dfdfdf"/><stop offset=".2322" stop-color="#cdcdcd"/><stop offset=".3905" stop-color="#afafaf"/><stop offset=".5662" stop-color="#858585"/><stop offset=".756" stop-color="#505050"/><stop offset=".955" stop-color="#101010"/><stop offset="1"/></radialGradient><linearGradient id="g"><stop offset="0" stop-color="#f17922"/><stop offset="1" stop-color="#d74608"/></linearGradient><linearGradient id="h" gradientUnits="userSpaceOnUse" x1="237" x2="124.856" xlink:href="#g" y1="177" y2="140.285"/><linearGradient id="i" gradientUnits="userSpaceOnUse" x1="129.299" x2="155.946" xlink:href="#g" y1="135.872" y2="195.465"/><linearGradient id="j"><stop offset="0" stop-color="#d5d5d5"/><stop offset="1" stop-color="#6b6b6b"/></linearGradient><linearGradient id="k" gradientUnits="userSpaceOnUse" x1="222" x2="153.966" xlink:href="#j" y1="151" y2="145.371"/><linearGradient id="l" gradientUnits="userSpaceOnUse" x1="173.5" x2="199.767" xlink:href="#j" y1="192" y2="252.518"/><linearGradient id="m"><stop offset="0" stop-color="#fff"/><stop offset="1" stop-color="#b9b9b9"/></linearGradient><linearGradient id="n" gradientUnits="userSpaceOnUse" x1="148" x2="126.293" xlink:href="#m" y1="178" y2="232.511"/><linearGradient id="o" gradientUnits="userSpaceOnUse" x1="192.313" x2="207.428" xlink:href="#g" y1="174.55" y2="191.458"/><linearGradient id="p" gradientUnits="userSpaceOnUse" x1="192.313" x2="207.428" xlink:href="#g" y1="184.55" y2="201.458"/><linearGradient id="q" gradientUnits="userSpaceOnUse" x1="192.313" x2="207.428" xlink:href="#g" y1="194.55" y2="211.458"/><linearGradient id="r" gradientUnits="userSpaceOnUse" x1="192.313" x2="207.419" xlink:href="#g" y1="204.559" y2="221.466"/><linearGradient id="s" gradientUnits="userSpaceOnUse" x1="210.902" x2="178.208" xlink:href="#m" y1="141.388" y2="173.562"/><linearGradient id="t" gradientUnits="userSpaceOnUse" x1="212.016" x2="193.836" xlink:href="#m" y1="154.452" y2="170.405"/><linearGradient id="u" gradientUnits="userSpaceOnUse" x1="169.292" x2="167.764" xlink:href="#j" y1="148.806" y2="165.269"/><linearGradient id="v" gradientUnits="userSpaceOnUse" x1="177.978" x2="177.451" xlink:href="#j" y1="140.735" y2="147.706"/><linearGradient id="w" gradientUnits="userSpaceOnUse" x1="181.912" x2="181.383" xlink:href="#j" y1="142.994" y2="149.974"/><linearGradient id="x" gradientUnits="userSpaceOnUse" x1="185.853" x2="185.325" xlink:href="#j" y1="145.264" y2="152.236"/><linearGradient id="y" gradientUnits="userSpaceOnUse" x1="189.793" x2="189.266" xlink:href="#j" y1="147.534" y2="154.506"/><linearGradient id="z" gradientUnits="userSpaceOnUse" x1="180.303" x2="179.621" xlink:href="#j" y1="175.475" y2="179.443"/><linearGradient id="A" gradientUnits="userSpaceOnUse" x1="179.487" x2="178.841" xlink:href="#j" y1="176.168" y2="179.67"/><linearGradient id="B" gradientUnits="userSpaceOnUse" x1="146.488" x2="145.803" xlink:href="#j" y1="154.665" y2="158.64"/><linearGradient id="C" gradientUnits="userSpaceOnUse" x1="145.627" x2="144.98" xlink:href="#j" y1="155.359" y2="158.861"/><linearGradient id="D" gradientUnits="userSpaceOnUse" x1="140.5" x2="212.084" xlink:href="#g" y1="32.5" y2="43.0902"/><linearGradient id="E" gradientUnits="userSpaceOnUse" x1="231" x2="185.073" xlink:href="#g" y1="128.5" y2="129.164"/><linearGradient id="F" gradientUnits="userSpaceOnUse" x1="146.5" x2="203.328" xlink:href="#g" y1="32.5001" y2="47.26"/><linearGradient id="G" gradientUnits="userSpaceOnUse" x1="210.902" x2="178.208" xlink:href="#m" y1="19.3883" y2="51.5623"/><linearGradient id="H" gradientUnits="userSpaceOnUse" x1="212.016" x2="193.836" xlink:href="#m" y1="32.4522" y2="48.4049"/><linearGradient id="I" gradientUnits="userSpaceOnUse" x1="169.292" x2="167.764" xlink:href="#j" y1="26.8064" y2="43.2689"/><linearGradient id="J" gradientUnits="userSpaceOnUse" x1="177.978" x2="177.451" xlink:href="#j" y1="18.7346" y2="25.7058"/><linearGradient id="K" gradientUnits="userSpaceOnUse" x1="181.912" x2="181.383" xlink:href="#j" y1="20.994" y2="27.9737"/><linearGradient id="L" gradientUnits="userSpaceOnUse" x1="185.853" x2="185.325" xlink:href="#j" y1="23.2644" y2="30.2355"/><linearGradient id="M" gradientUnits="userSpaceOnUse" x1="189.793" x2="189.266" xlink:href="#j" y1="25.5344" y2="32.5055"/><linearGradient id="N" gradientUnits="userSpaceOnUse" x1="180.303" x2="179.621" xlink:href="#j" y1="53.4754" y2="57.4433"/><linearGradient id="O" gradientUnits="userSpaceOnUse" x1="179.487" x2="178.841" xlink:href="#j" y1="54.1684" y2="57.6702"/><linearGradient id="P" gradientUnits="userSpaceOnUse" x1="146.488" x2="145.803" xlink:href="#j" y1="32.6649" y2="36.6404"/><linearGradient id="Q" gradientUnits="userSpaceOnUse" x1="145.627" x2="144.98" xlink:href="#j" y1="33.3588" y2="36.8606"/><linearGradient id="R" gradientUnits="userSpaceOnUse" x1="180.303" x2="179.613" xlink:href="#j" y1="133.614" y2="137.606"/><linearGradient id="S" gradientUnits="userSpaceOnUse" x1="179.487" x2="178.841" xlink:href="#j" y1="134.309" y2="137.81"/><linearGradient id="T" gradientUnits="userSpaceOnUse" x1="146.488" x2="145.803" xlink:href="#j" y1="112.805" y2="116.78"/><linearGradient id="U" gradientUnits="userSpaceOnUse" x1="145.627" x2="144.98" xlink:href="#j" y1="113.498" y2="117"/><linearGradient id="V" gradientUnits="userSpaceOnUse" x1="228.42" x2="228.42" xlink:href="#d" y1="198.913" y2="99.4256"/><linearGradient id="W" gradientUnits="userSpaceOnUse" x1="237.084" x2="237.084" xlink:href="#d" y1="203.985" y2="119.291"/><linearGradient id="X" gradientUnits="userSpaceOnUse" x1="245.749" x2="245.749" xlink:href="#d" y1="178.425" y2="142.666"/><linearGradient id="Y" gradientUnits="userSpaceOnUse" x1="139.24" x2="139.24" xlink:href="#d" y1="198.953" y2="99.4256"/><linearGradient id="Z" gradientUnits="userSpaceOnUse" x1="130.57" x2="130.57" xlink:href="#d" y1="203.985" y2="119.291"/><linearGradient id="aa" gradientUnits="userSpaceOnUse" x1="121.9" x2="121.9" xlink:href="#d" y1="178.425" y2="142.666"/><linearGradient id="ab" gradientUnits="userSpaceOnUse" x1="353.989" x2="314.055" xlink:href="#g" y1="62.9586" y2="101.108"/><linearGradient id="ac" gradientUnits="userSpaceOnUse" x1="298.406" x2="333.825" xlink:href="#m" y1="42.4624" y2="77.1997"/><linearGradient id="ad" gradientUnits="userSpaceOnUse" x1="327.159" x2="328.112" xlink:href="#a" y1="34.3082" y2="60.4858"/><linearGradient id="ae" gradientUnits="userSpaceOnUse" x1="327.652" x2="327.652" xlink:href="#d" y1="56.8317" y2="19.5414"/><linearGradient id="af" gradientUnits="userSpaceOnUse" x1="353.989" x2="343.404" xlink:href="#m" y1="119.041" y2="109.694"/><linearGradient id="ag" gradientUnits="userSpaceOnUse" x1="362.527" x2="350.464" xlink:href="#m" y1="120.869" y2="110.445"/><linearGradient id="ah" gradientUnits="userSpaceOnUse" x1="350.788" x2="358.734" xlink:href="#m" y1="85.1728" y2="89.2578"/><linearGradient id="ai" gradientUnits="userSpaceOnUse" x1="359.929" x2="367.794" xlink:href="#m" y1="85.1728" y2="89.1466"/><linearGradient id="aj" gradientUnits="userSpaceOnUse" x1="14.5878" x2="54.5223" xlink:href="#g" y1="62.9586" y2="101.108"/><linearGradient id="ak" gradientUnits="userSpaceOnUse" x1="70.1712" x2="34.7519" xlink:href="#m" y1="42.4624" y2="77.1997"/><linearGradient id="al" gradientUnits="userSpaceOnUse" x1="41.4185" x2="40.4655" xlink:href="#a" y1="34.3082" y2="60.4858"/><linearGradient id="am" gradientUnits="userSpaceOnUse" x1="40.9248" x2="40.9248" xlink:href="#d" y1="56.8317" y2="19.5414"/><linearGradient id="an" gradientUnits="userSpaceOnUse" x1="14.5877" x2="25.1734" xlink:href="#m" y1="119.041" y2="109.694"/><linearGradient id="ao" gradientUnits="userSpaceOnUse" x1="6.05058" x2="18.1135" xlink:href="#m" y1="120.869" y2="110.445"/><linearGradient id="ap" gradientUnits="userSpaceOnUse" x1="17.7892" x2="9.84347" xlink:href="#m" y1="85.1728" y2="89.2578"/><linearGradient id="aq" gradientUnits="userSpaceOnUse" x1="8.64777" x2=".782825" xlink:href="#m" y1="85.1728" y2="89.1466"/><linearGradient id="ar" gradientUnits="userSpaceOnUse" x1="75.5698" x2="59.1452" xlink:href="#m" y1="243.152" y2="217.238"/><linearGradient id="as" gradientUnits="userSpaceOnUse" x1="353.57" x2="337.145" xlink:href="#m" y1="243.152" y2="217.238"/><mask id="at" height="77" maskUnits="userSpaceOnUse" width="134" x="117" y="132"><path d="m179.9 207.7-60.3-34.8c-2.4-1.4-2.1-3.9.7-5.5l59-34c2.8-1.6 7.1-1.8 9.5-.4l60.3 34.8c2.4 1.4 2.1 3.9-.7 5.5l-59 34c-2.8 1.7-7.1 1.8-9.5.4z" fill="url(#f)"/></mask><mask id="au" height="209" maskUnits="userSpaceOnUse" width="133" x="118" y="0"><path d="m250.811 0h-132.8v170.3c-.1 1 .5 1.9 1.6 2.6l60.3 34.8c2.4 1.4 6.7 1.2 9.5-.4l59-34c1.5-.8 2.2-1.9 2.3-2.9v-170.4z" fill="#42e8e0"/></mask><path d="m183.109 230c-4.009 0-7.795-.88-10.69-2.421l-85.9649-49.081c-2.8951-1.76-4.4541-3.961-4.4541-6.603 0-3.081 2.2271-6.162 6.2358-8.363l82.6242-47.1c7.35-4.182 18.262-4.622 24.721-.88l85.965 49.08c2.895 1.761 4.454 3.962 4.454 6.603 0 3.081-2.227 6.163-6.236 8.364l-82.847 47.1c-4.009 2.201-8.908 3.301-13.808 3.301zm-10.022-3.962c5.791 3.302 16.258 2.862 22.939-.88l82.625-47.1c3.34-1.981 5.345-4.402 5.345-7.043 0-1.981-1.337-3.741-3.786-5.062l-85.965-49.081c-5.791-3.301-16.258-2.861-22.939.881l-82.4021 47.099c-3.3406 1.981-5.345 4.402-5.345 7.043 0 1.981 1.3363 3.742 3.7861 5.063z" fill="url(#b)"/><path d="m182.803 250c-5.384 0-10.469-1.181-14.358-3.249l-115.4625-65.86c-3.8886-2.363-5.9825-5.316-5.9825-8.86 0-4.135 2.9913-8.27 8.3755-11.223l110.9765-63.2026c9.871-5.6114 24.528-6.2021 33.203-1.1814l115.462 65.861c3.889 2.362 5.983 5.316 5.983 8.86 0 4.134-2.991 8.269-8.376 11.223l-111.275 63.202c-5.384 2.953-11.965 4.43-18.546 4.43zm-13.46-5.316c7.777 4.43 21.836 3.839 30.81-1.181l110.976-63.203c4.487-2.658 7.179-5.907 7.179-9.451 0-2.658-1.795-5.02-5.085-6.792l-115.463-65.8609c-7.777-4.4301-21.836-3.8394-30.81 1.1813l-110.6771 63.2026c-4.4869 2.658-7.179 5.907-7.179 9.451 0 2.658 1.7947 5.02 5.0851 6.792z" fill="url(#c)" opacity=".3"/><path d="m188.299 215.492c-2.474 1.428-5.523 1.428-7.998 0l-65.597-37.863c-5.334-3.079-5.334-10.779 0-13.858l65.597-37.863c2.475-1.428 5.524-1.428 7.998 0l65.597 37.863c5.335 3.079 5.335 10.779 0 13.858z" fill="#4d4d4d" opacity=".81"/><path d="m250.811 0h-132.8v170.3c-.1 1 .5 1.9 1.6 2.6l60.3 34.8c2.4 1.4 6.7 1.2 9.5-.4l59-34c1.5-.8 2.2-1.9 2.3-2.9v-170.4z" fill="url(#e)" opacity=".2"/><path d="m179.9 207.7-60.3-34.8c-2.4-1.4-2.1-3.9.7-5.5l59-34c2.8-1.6 7.1-1.8 9.5-.4l60.3 34.8c2.4 1.4 2.1 3.9-.7 5.5l-59 34c-2.8 1.7-7.1 1.8-9.5.4z" fill="#2b237c" opacity=".66"/><g mask="url(#at)"><path d="m179.9 207.7-60.3-34.8c-2.4-1.4-2.1-3.9.7-5.5l59-34c2.8-1.6 7.1-1.8 9.5-.4l60.3 34.8c2.4 1.4 2.1 3.9-.7 5.5l-59 34c-2.8 1.7-7.1 1.8-9.5.4z" fill="url(#h)" opacity=".66"/><path d="m119.601 172.9 5.3 3.1 54.4-31.4c2.8-1.6 7.1-1.8 9.5-.4l55 31.8 4.6-2.7c2.8-1.6 3.1-4.1.7-5.5l-60.3-34.8c-2.4-1.4-6.7-1.2-9.5.4l-59 34c-2.9 1.6-3.2 4.1-.7 5.5z" fill="url(#i)"/></g><g mask="url(#au)"><path d="m183.83 174.62-40.38-23.31 40.38-23.31 40.37 23.31z" fill="url(#k)"/><path d="m224.2 151.31v89.49l-40.37 23.31v-89.49z" fill="url(#l)"/><path d="m143.45 151.31v89.49l40.38 23.31v-89.49z" fill="url(#n)"/><path d="m218.15 172.93v2.37l-28.26 16.32v-2.37z" fill="url(#o)"/><path d="m218.15 182.93v2.37l-28.26 16.32v-2.37z" fill="url(#p)"/><path d="m218.15 192.93v2.37l-28.26 16.32v-2.37z" fill="url(#q)"/><path d="m218.15 202.94v2.36l-28.26 16.32v-2.37z" fill="url(#r)"/><path d="m183.83 168.5h-10.61l-29.77-17.19 32.39-18.7h7.99z" fill="#4d4d4d" opacity=".78"/><path d="m183.83 166.44-29.3-16.91 29.3-16.92 29.3 16.92z" fill="url(#s)"/><path d="m213.13 149.53v2.05l-29.3 16.92v-2.06z" fill="url(#t)"/><path d="m154.53 149.53v2.05l29.3 16.92v-2.06z" fill="url(#u)"/><path d="m172.47 149.8-1.3-.75.1-.61 12.04-7 1.67.79-.31.52z" fill="#4d4d4d"/><path d="m183.37 142 1.3.75.84-.48-2.14-1.23-13.04 7.53.84.48z" fill="url(#v)"/><path d="m176.4 152.06-1.29-.75.1-.6 12.04-7.01 1.67.8-.31.52z" fill="#4d4d4d"/><path d="m187.31 144.27 1.3.75.83-.49-2.13-1.23-13.04 7.53.84.49z" fill="url(#w)"/><path d="m180.34 154.33-1.3-.75.11-.61 12.04-7 1.67.8-.31.51z" fill="#4d4d4d"/><path d="m191.25 146.54 1.3.74.83-.48-2.13-1.23-13.04 7.53.84.48z" fill="url(#x)"/><path d="m184.28 156.6-1.3-.75.11-.61 12.04-7.01 1.67.8-.31.52z" fill="#4d4d4d"/><path d="m195.19 148.8 1.3.75.83-.48-2.13-1.23-13.04 7.53.83.48z" fill="url(#y)"/><path d="m182.23 178.65c-.031-.557-.193-1.099-.473-1.582-.279-.483-.669-.894-1.137-1.198-.163-.119-.354-.192-.555-.212-.201-.019-.403.016-.585.102l-1.14.66h.71c-.011.117-.011.234 0 .35.031.558.193 1.1.472 1.583.28.483.67.893 1.138 1.197.106.065.22.115.34.15l-.32.62 1.11-.66c.154-.116.276-.27.353-.447s.107-.371.087-.563z" fill="url(#z)"/><path d="m181.08 179.32c0 1-.72 1.44-1.6.93-.468-.304-.858-.715-1.137-1.198-.28-.483-.442-1.025-.473-1.582 0-1 .72-1.44 1.61-.93.466.306.853.717 1.131 1.199.278.483.439 1.025.469 1.581z" fill="url(#A)"/><path d="m180.411 178.93c0 .59-.41.83-.92.53-.273-.172-.5-.407-.662-.686-.162-.278-.254-.592-.268-.914 0-.59.42-.83.93-.53.27.173.495.409.655.688.16.278.251.591.265.912z" fill="#fff"/><path d="m148.41 157.84c-.03-.556-.191-1.097-.469-1.58s-.665-.894-1.131-1.2c-.162-.119-.354-.192-.555-.212-.2-.019-.402.016-.585.102l-1.14.67h.7c-.01.117-.01.234 0 .35.031.558.193 1.1.473 1.583s.669.893 1.137 1.197c.108.064.222.117.34.16l-.33.61 1.12-.65c.156-.119.278-.277.355-.457.078-.181.107-.378.085-.573z" fill="url(#B)"/><path d="m147.22 158.51c0 1-.72 1.44-1.61.93-.467-.305-.855-.715-1.133-1.198s-.438-1.025-.467-1.582c0-1 .71-1.44 1.6-.93.468.304.857.715 1.137 1.198s.442 1.025.473 1.582z" fill="url(#C)"/><path d="m146.539 158.12c0 .59-.42.83-.93.53-.27-.173-.495-.409-.655-.688-.16-.278-.251-.591-.265-.912 0-.59.41-.82.92-.53.273.172.5.407.662.686s.254.592.268.914z" fill="#fff"/><path d="m157.41 182.69-8.9-5.14v-1.95l8.9 5.14z" fill="#f16822"/><path d="m161.97 185.33-3.2-1.85v-1.96l3.2 1.85z" fill="#f16822"/><path d="m165.51 187.37-2.18-1.26v-1.95l2.18 1.25z" fill="#f16822"/><path d="m153.35 184.82-4.84-2.8v-1.96l4.84 2.8z" fill="#f16822"/><path d="m160.66 189.03-5.94-3.43v-1.95l5.94 3.43z" fill="#f16822"/><path d="m164.19 191.08-2.17-1.26v-1.95l2.17 1.25z" fill="#f16822"/><path d="m167.56 193.02-2.18-1.26v-1.95l2.18 1.26z" fill="#f16822"/><path d="m152.01 188.51-3.5-2.03v-1.95l3.5 2.02z" fill="#f16822"/><path d="m154.57 189.99-1.2-.7v-1.95l1.2.69z" fill="#f16822"/><path d="m158.11 192.03-2.18-1.26v-1.95l2.18 1.25z" fill="#f16822"/><path d="m161.46 198.42-12.95-7.47v-1.96l12.95 7.48z" fill="#f16822"/><path d="m166.021 201.06-3.21-1.85v-1.96l3.21 1.86z" fill="#f16822"/><path d="m152.01 197.44-3.5-2.03v-1.95l3.5 2.02z" fill="#f16822"/><path d="m160.25 202.19-6.88-3.97v-1.95l6.88 3.97z" fill="#f16822"/><path d="m163.78 204.23-2.17-1.25v-1.96l2.17 1.26z" fill="#f16822"/><path d="m155.68 204.02-7.17-4.14v-1.96l7.17 4.15z" fill="#f16822"/><path d="m162.23 207.8-5.19-2.99v-1.96l5.19 3z" fill="#f16822"/><path d="m167.1 210.61-3.51-2.02v-1.95l3.51 2.02z" fill="#f16822"/><path d="m150.93 205.74-2.42-1.4v-1.95l2.42 1.4z" fill="#f16822"/><path d="m155.49 208.38-3.2-1.85v-1.96l3.2 1.85z" fill="#f16822"/><path d="m162.02 212.14-5.17-2.98v-1.95l5.17 2.98z" fill="#f16822"/><path d="m155.93 213.09-7.42-4.28v-1.96l7.42 4.29z" fill="#f16822"/><path d="m171.561 190.87 6.18 3.56v-1.95l-6.18-3.57z" fill="#f16822"/><path d="m172.89 196.1 4.85 2.79v-1.95l-4.85-2.8z" fill="#f16822"/><path d="m174.23 201.33 3.51 2.03v-1.95l-3.51-2.03z" fill="#f16822"/><path d="m172.63 204.88 5.11 2.94v-1.95l-5.11-2.95z" fill="#f16822"/><path d="m174.23 210.26 3.51 2.03v-1.96l-3.51-2.02z" fill="#f16822"/><path d="m183.83 52.62-40.38-23.31 40.38-23.31 40.37 23.31z" fill="url(#D)"/><path d="m183.83 142.11-40.38-23.31 40.38-23.32 40.37 23.32z" fill="#fff"/><path d="m224.2 29.3101v89.4899l-40.37 23.31v-89.4899z" fill="url(#E)"/><path d="m143.45 29.3101v89.4899l40.38 23.31v-89.4899z" fill="url(#F)"/><path d="m218.15 50.9302v2.37l-28.26 16.32v-2.37z" fill="#fff"/><path d="m218.15 60.9302v2.37l-28.26 16.32v-2.37z" fill="#fff"/><path d="m218.15 70.9302v2.37l-28.26 16.32v-2.37z" fill="#fff"/><path d="m218.15 80.9399v2.36l-28.26 16.32v-2.37z" fill="#fff"/><path d="m218.15 90.9399v2.36l-28.26 16.3201v-2.37z" fill="#fff"/><path d="m218.15 100.94v2.36l-28.26 16.32v-2.37z" fill="#fff"/><path d="m183.83 46.4999h-10.61l-29.77-17.19 32.39-18.7h7.99z" fill="#d84b0e"/><path d="m183.83 44.4399-29.3-16.91 29.3-16.92 29.3 16.92z" fill="url(#G)"/><path d="m213.13 27.5298v2.05l-29.3 16.92v-2.06z" fill="url(#H)"/><path d="m154.53 27.5298v2.05l29.3 16.92v-2.06z" fill="url(#I)"/><path d="m172.47 27.7999-1.3-.75.1-.61 12.04-7 1.67.79-.31.52z" fill="#4d4d4d"/><path d="m183.37 20 1.3.75.84-.48-2.14-1.23-13.04 7.53.84.48z" fill="url(#J)"/><path d="m176.4 30.0602-1.29-.75.1-.6 12.04-7.01 1.67.8-.31.52z" fill="#4d4d4d"/><path d="m187.31 22.2698 1.3.75.83-.49-2.13-1.23-13.04 7.53.84.49z" fill="url(#K)"/><path d="m180.34 32.3302-1.3-.75.11-.61 12.04-7 1.67.8-.31.51z" fill="#4d4d4d"/><path d="m191.25 24.5398 1.3.74.83-.48-2.13-1.23-13.04 7.53.84.48z" fill="url(#L)"/><path d="m184.28 34.6-1.3-.75.11-.61 12.04-7.01 1.67.8-.31.52z" fill="#4d4d4d"/><path d="m195.19 26.7998 1.3.75.83-.48-2.13-1.23-13.04 7.53.83.48z" fill="url(#M)"/><path d="m182.23 56.6502c-.031-.5573-.193-1.0995-.473-1.5825-.279-.483-.669-.8933-1.137-1.1975-.163-.1192-.354-.1923-.555-.2117s-.403.0158-.585.1017l-1.14.66h.71c-.011.1164-.011.2336 0 .35.031.5574.193 1.0995.472 1.5826.28.483.67.8933 1.138 1.1974.106.0647.22.1151.34.15l-.32.62 1.11-.66c.154-.1161.276-.2702.353-.4471.077-.177.107-.3709.087-.5629z" fill="url(#N)"/><path d="m181.08 57.3198c0 1-.72 1.44-1.6.93-.468-.3042-.858-.7145-1.137-1.1975-.28-.483-.442-1.0252-.473-1.5825 0-1 .72-1.44 1.61-.93.466.3058.853.7167 1.131 1.1996.278.4828.439 1.0241.469 1.5804z" fill="url(#O)"/><path d="m180.411 56.9301c0 .59-.41.83-.92.53-.273-.1721-.5-.4074-.662-.686s-.254-.5921-.268-.914c0-.59.42-.83.93-.53.27.1732.495.409.655.6875s.251.5915.265.9125z" fill="#fff"/><path d="m148.41 35.8402c-.03-.5563-.191-1.0976-.469-1.5804-.278-.4829-.665-.8938-1.131-1.1996-.162-.1193-.354-.1924-.555-.2118-.2-.0193-.402.0158-.585.1018l-1.14.67h.7c-.01.1164-.01.2336 0 .35.031.5573.193 1.0995.473 1.5825s.669.8933 1.137 1.1975c.108.0636.222.1171.34.16l-.33.61 1.12-.65c.156-.1193.278-.2768.355-.4573.078-.1804.107-.3777.085-.5727z" fill="url(#P)"/><path d="m147.22 36.5102c0 1-.72 1.44-1.61.93-.467-.3047-.855-.7153-1.133-1.1984s-.438-1.025-.467-1.5816c0-1 .71-1.44 1.6-.93.468.3042.857.7144 1.137 1.1974.28.4831.442 1.0253.473 1.5826z" fill="url(#Q)"/><path d="m146.539 36.12c0 .59-.42.83-.93.53-.27-.1732-.495-.409-.655-.6875s-.251-.5915-.265-.9125c0-.59.41-.82.92-.53.273.1721.5.4074.662.686s.254.5921.268.914z" fill="#fff"/><path d="m182.23 136.79c-.031-.557-.193-1.1-.473-1.583-.279-.483-.669-.893-1.137-1.197-.163-.119-.354-.192-.555-.212-.201-.019-.403.016-.585.102l-1.14.66h.71c-.011.116-.011.233 0 .35.022.559.175 1.105.448 1.593s.657.905 1.122 1.217c.106.065.22.115.34.15l-.32.62 1.11-.66c.166-.114.298-.271.383-.454.084-.183.118-.386.097-.586z" fill="url(#R)"/><path d="m181.08 137.46c0 1-.72 1.44-1.6.93-.468-.304-.858-.715-1.137-1.198-.28-.483-.442-1.025-.473-1.582 0-1 .72-1.44 1.61-.93.466.306.853.717 1.131 1.199.278.483.439 1.025.469 1.581z" fill="url(#S)"/><path d="m180.411 137.07c0 .59-.41.83-.92.53-.273-.172-.5-.407-.662-.686-.162-.278-.254-.592-.268-.914 0-.59.42-.83.93-.53.27.173.495.409.655.688.16.278.251.591.265.912z" fill="#fff"/><path d="m148.41 115.98c-.03-.556-.191-1.098-.469-1.581-.278-.482-.665-.893-1.131-1.199-.162-.119-.354-.193-.555-.212-.2-.019-.402.016-.585.102l-1.14.67h.7c-.01.116-.01.233 0 .35.031.557.193 1.099.473 1.582s.669.894 1.137 1.198c.108.063.222.117.34.16l-.33.61 1.12-.65c.156-.119.278-.277.355-.457.078-.181.107-.378.085-.573z" fill="url(#T)"/><path d="m147.22 116.65c0 1-.72 1.44-1.61.93-.467-.305-.855-.715-1.133-1.199-.278-.483-.438-1.025-.467-1.581 0-1 .71-1.44 1.6-.93.468.304.857.714 1.137 1.197s.442 1.026.473 1.583z" fill="url(#U)"/><g fill="#fff"><path d="m146.539 116.26c0 .59-.42.83-.93.53-.27-.173-.495-.409-.655-.687-.16-.279-.251-.592-.265-.913 0-.59.41-.83.92-.53.273.172.5.408.662.686.162.279.254.592.268.914z"/><path d="m157.41 60.6901-8.9-5.14v-1.95l8.9 5.14z"/><path d="m161.97 63.33-3.2-1.85v-1.96l3.2 1.85z"/><path d="m165.51 65.3702-2.18-1.26v-1.95l2.18 1.25z"/><path d="m153.35 62.8201-4.84-2.8v-1.96l4.84 2.8z"/><path d="m160.66 67.0299-5.94-3.43v-1.95l5.94 3.43z"/><path d="m164.19 69.0801-2.17-1.26v-1.95l2.17 1.25z"/><path d="m167.56 71.0201-2.18-1.26v-1.95l2.18 1.26z"/><path d="m152.01 66.5103-3.5-2.03v-1.95l3.5 2.02z"/><path d="m154.57 67.9898-1.2-.7v-1.95l1.2.69z"/><path d="m158.11 70.0303-2.18-1.26v-1.95l2.18 1.25z"/><path d="m161.46 76.4202-12.95-7.47v-1.96l12.95 7.48z"/><path d="m166.021 79.06-3.21-1.85v-1.96l3.21 1.86z"/><path d="m152.01 75.44-3.5-2.03v-1.95l3.5 2.02z"/><path d="m160.25 80.19-6.88-3.97v-1.95l6.88 3.97z"/><path d="m163.78 82.23-2.17-1.25v-1.96l2.17 1.26z"/><path d="m155.68 82.0199-7.17-4.14v-1.96l7.17 4.15z"/><path d="m162.23 85.8001-5.19-2.99v-1.96l5.19 3z"/><path d="m167.1 88.6101-3.51-2.02v-1.95l3.51 2.02z"/><path d="m150.93 83.7401-2.42-1.4v-1.95l2.42 1.4z"/><path d="m155.49 86.3803-3.2-1.85v-1.96l3.2 1.85z"/><path d="m162.02 90.14-5.17-2.98v-1.95l5.17 2.98z"/><path d="m155.93 91.0901-7.42-4.28v-1.96l7.42 4.29z"/><path d="m164.25 95.8999-6.96-4.02v-1.96l6.96 4.02z"/><path d="m167.79 97.94-2.18-1.26v-1.95l2.18 1.25z"/><path d="m171.18 99.8999-2.17-1.26v-1.95l2.17 1.25z"/><path d="m152.96 93.8403-4.45-2.57v-1.95l4.45 2.57z"/><path d="m171.561 68.8702 6.18 3.56v-1.95l-6.18-3.57z"/><path d="m172.89 74.1001 4.85 2.79v-1.95l-4.85-2.8z"/><path d="m174.23 79.3299 3.51 2.03v-1.95l-3.51-2.03z"/><path d="m172.63 82.8799 5.11 2.94v-1.95l-5.11-2.95z"/><path d="m174.23 88.2601 3.51 2.03v-1.96l-3.51-2.02z"/><path d="m173.29 92.18 4.45 2.57v-1.95l-4.45-2.57z"/><path d="m175.311 97.8199 2.43 1.4v-1.96l-2.43-1.4z"/><path d="m173.04 100.97 4.7 2.71v-1.95l-4.7-2.71z"/><path d="m173.29 105.58 4.45 2.57v-1.96l-4.45-2.57z"/><path d="m156.211 95.7199-1.9-1.09v-1.96l1.9 1.09z"/><path d="m161.83 98.9603-4.26-2.46v-1.95l4.26 2.46z"/><path d="m165.35 113.98-7.19-4.15v-1.95l7.19 4.15z"/><path d="m170.269 116.82-2.83-1.63v-1.96l2.83 1.64z"/></g><path d="m228.58 99.8502-.32-.19c-1.19-.68-2.15 0-2.15 1.6298v93c.011.806.211 1.598.584 2.312.374.714.91 1.33 1.566 1.798l.32.19c1.19.69 2.15 0 2.15-1.63v-93c-.01-.806-.21-1.598-.584-2.312-.373-.714-.91-1.33-1.566-1.7978z" fill="url(#V)" opacity=".66"/><path d="m237.25 119.72-.33-.19c-1.18-.68-2.15 0-2.15 1.63v78.22c.015.805.217 1.595.59 2.308.373.714.907 1.33 1.56 1.802l.33.18c1.18.69 2.15 0 2.15-1.62v-78.26c-.019-.799-.222-1.582-.595-2.289-.374-.706-.906-1.316-1.555-1.781z" fill="url(#W)" opacity=".66"/><path d="m245.909 143.1-.32-.19c-1.19-.68-2.15.05-2.15 1.63v29.31c.011.806.211 1.598.584 2.312.374.714.91 1.33 1.566 1.798l.32.19c1.19.68 2.15-.05 2.15-1.63v-29.31c-.01-.806-.21-1.598-.584-2.312-.373-.714-.91-1.33-1.566-1.798z" fill="url(#X)" opacity=".66"/><path d="m139.08 99.8502.32-.19c1.18-.68 2.15 0 2.15 1.6298v93c-.005.812-.201 1.61-.573 2.332-.372.721-.909 1.344-1.567 1.818l-.32.19c-1.19.69-2.16 0-2.16-1.63v-93c.005-.812.202-1.612.576-2.333.373-.722.913-1.344 1.574-1.8168z" fill="url(#Y)" opacity=".66"/><path d="m130.41 119.72.32-.19c1.19-.68 2.15 0 2.15 1.63v78.22c-.013.805-.214 1.596-.587 2.31-.374.714-.909 1.33-1.563 1.8l-.32.18c-1.19.69-2.15 0-2.15-1.62v-78.26c.016-.799.219-1.583.593-2.29.373-.706.906-1.316 1.557-1.78z" fill="url(#Z)" opacity=".66"/><path d="m121.74 143.1.32-.19c1.19-.68 2.15.05 2.15 1.63v29.31c-.011.806-.211 1.598-.584 2.312-.374.714-.91 1.33-1.566 1.798l-.32.19c-1.19.68-2.15-.05-2.15-1.63v-29.31c.01-.806.21-1.598.584-2.312.373-.714.91-1.33 1.566-1.798z" fill="url(#aa)" opacity=".66"/></g><path d="m296.029 89.9731.158-30.0089 63.243-1.2635-.158 29.535c.158.6318 0 1.4215-.946 1.8953l-28.704 17.058c-1.42.947-4.101.789-5.835-.158l-26.339-15.0047c-1.104-.6317-1.577-1.2635-1.419-2.0532z" fill="url(#ab)"/><path d="m329.78 76.706 28.703-17.0577c1.42-.9476 1.262-2.3691-.473-3.3168l-26.338-14.8464c-1.735-.9477-4.416-1.1056-5.835-.158l-28.704 17.0577c-1.419.9476-1.262 2.3691.473 3.3168l26.338 14.8464c1.735.9477 4.416.9477 5.836.158z" fill="#ff9863"/><path d="m296.029 52.0675v-12.9512l21.291-.4738 8.359-5.0542c1.42-.9476 4.101-.7897 5.835.158l7.571 4.2644 20.187-.4738v12.9512c0 .4738-.315 1.1056-.946 1.4215l-28.704 17.0576c-1.419.9477-4.101.7897-5.835-.1579l-26.339-14.6886c-1.104-.6317-1.577-1.2635-1.419-2.0532z" fill="url(#ac)"/><path d="m329.622 56.1738 28.704-17.0577c1.419-.9477 1.261-2.3691-.474-3.3168l-26.338-14.8465c-1.734-.9476-4.416-1.1056-5.835-.1579l-28.704 17.0577c-1.419.9476-1.261 2.3691.473 3.3167l26.338 14.8465c1.735.9477 4.416.9477 5.836.158z" fill="#ff9863"/><path d="m328.676 48.9086 17.664-10.4242c.946-.4738.788-1.4214-.316-2.0532l-16.244-9.1606c-1.104-.6318-2.681-.6318-3.628-.1579l-17.663 10.4241c-.947.4738-.789 1.4215.315 2.0532l16.244 9.1607c1.104.6317 2.839.7897 3.628.1579z" fill="url(#ad)"/><path d="m346.339 38.4842-2.996 1.7374-13.564-7.5812c-1.104-.6318-2.681-.6318-3.627-.158l-14.667 8.6868-2.681-1.4215c-1.104-.6317-1.262-1.5794-.316-2.0532l17.822-10.4241c.946-.4739 2.523-.4739 3.627.1579l16.245 9.1606c.946.4738 1.104 1.4215.157 1.8953z" fill="#d84b0e"/><path d="m297.449 23.006 26.338 14.8464c1.734.9477 4.416 1.1056 5.835.158l28.704-17.0577c.631-.3159.946-.9476.946-1.4215v18.1633c0 .4738-.315 1.1056-.946 1.4215l-28.704 17.0576c-1.419.9477-4.101.7897-5.835-.1579l-26.338-14.8465c-.947-.6318-1.42-1.2635-1.42-2.0532v-18.1633c0 .7897.473 1.5794 1.42 2.0533z" fill="url(#ae)" opacity=".4"/><path d="m368.577 91.8683-8.989-5.2121-9.148 5.2121 9.148 5.2121z" fill="#8d8d8d"/><path d="m359.587 120.771v-23.6908l-9.147-5.212v23.6908z" fill="url(#af)"/><path d="m368.577 91.8682v23.5328l-8.99 5.37v-23.6908z" fill="url(#ag)"/><path d="m368.577 82.55-8.989-5.2121-9.148 5.2121 9.148 5.212z" fill="#fff"/><path d="m359.587 92.6581v-4.8962l-9.147-5.2121v4.8962z" fill="url(#ah)"/><path d="m368.577 82.5498v4.7382l-8.99 5.3701v-4.8962z" fill="url(#ai)"/><path d="m329.623 38.0155 28.704-17.0576c1.419-.9477 1.261-2.3692-.474-3.3168l-26.338-14.84648c-1.734-.94765-4.416-1.10559-5.835-.15794l-28.704 17.05762c-1.419.9477-1.261 2.3692.473 3.3168l26.338 14.8465c1.735.9476 4.416 1.1056 5.836.1579z" fill="#f16822" opacity=".5"/><path d="m297.449 23.0113 26.338 14.8465c1.734.9477 4.416 1.1056 5.835.158l28.704-17.0577c.631-.3159.946-.9477.946-1.4215v18.1633c0 .4738-.315 1.1056-.946 1.4215l-28.704 17.0576c-1.419.9477-4.101.7897-5.835-.1579l-26.338-14.8465c-.947-.6318-1.42-1.2635-1.42-2.0532v-18.1633c0 .7897.473 1.5794 1.42 2.0532z" fill="#f16822" opacity=".4"/><path d="m72.5481 89.9731-.1577-30.0089-63.24294-1.2635.15772 29.535c-.15771.6318-.00001 1.4215.94622 1.8953l28.7038 17.058c1.4195.947 4.1006.789 5.8354-.158l26.3381-15.0047c1.104-.6317 1.5771-1.2635 1.4194-2.0532z" fill="url(#aj)"/><path d="m38.7976 76.706-28.7038-17.0577c-1.41937-.9476-1.26165-2.3691.4732-3.3168l26.338-14.8464c1.7349-.9477 4.416-1.1056 5.8354-.158l28.7037 17.0577c1.4195.9476 1.2617 2.3691-.4731 3.3168l-26.338 14.8464c-1.7349.9477-4.416.9477-5.8354.158z" fill="#ff9863"/><path d="m72.5481 52.0675v-12.9512l-21.2913-.4738-8.3588-5.0542c-1.4194-.9476-4.1005-.7897-5.8354.158l-7.5702 4.2644-20.18722-.4738v12.9512c0 .4738.31541 1.1056.94622 1.4215l28.7038 17.0576c1.4194.9477 4.1006.7897 5.8354-.1579l26.3381-14.6886c1.104-.6317 1.5771-1.2635 1.4194-2.0532z" fill="url(#ak)"/><path d="m38.9553 56.1738-28.7037-17.0577c-1.41946-.9477-1.26174-2.3691.4731-3.3168l26.3381-14.8465c1.7348-.9476 4.4159-1.1056 5.8354-.1579l28.7037 17.0577c1.4194.9476 1.2617 2.3691-.4731 3.3167l-26.3381 14.8465c-1.7348.9477-4.416.9477-5.8354.158z" fill="#ff9863"/><path d="m39.9014 48.9086-17.6638-10.4242c-.9463-.4738-.7886-1.4214.3154-2.0532l16.2444-9.1606c1.104-.6318 2.6811-.6318 3.6274-.1579l17.6638 10.4241c.9463.4738.7886 1.4215-.3154 2.0532l-16.2444 9.1607c-1.104.6317-2.8388.7897-3.6274.1579z" fill="url(#al)"/><path d="m22.2378 38.4842 2.9965 1.7374 13.5634-7.5812c1.104-.6318 2.6811-.6318 3.6274-.158l14.6673 8.6868 2.6811-1.4215c1.104-.6317 1.2617-1.5794.3154-2.0532l-17.8216-10.4241c-.9462-.4739-2.5234-.4739-3.6274.1579l-16.2444 9.1606c-.9463.4738-1.104 1.4215-.1577 1.8953z" fill="#d84b0e"/><path d="m71.1286 23.006-26.338 14.8464c-1.7349.9477-4.416 1.1056-5.8354.158l-28.7038-17.0577c-.63081-.3159-.94622-.9476-.94622-1.4215v18.1633c0 .4738.31541 1.1056.94622 1.4215l28.7038 17.0576c1.4194.9477 4.1005.7897 5.8354-.1579l26.338-14.8465c.9463-.6318 1.4194-1.2635 1.4194-2.0532v-18.1633c0 .7897-.4731 1.5794-1.4194 2.0533z" fill="url(#am)" opacity=".4"/><path d="m0 91.8683 8.98964-5.2121 9.14736 5.2121-9.14736 5.2121z" fill="#8d8d8d"/><path d="m8.98975 120.771v-23.6908l9.14735-5.212v23.6908z" fill="url(#an)"/><path d="m0 91.8682v23.5328l8.98968 5.37v-23.6908z" fill="url(#ao)"/><path d="m0 82.55 8.98964-5.2121 9.14736 5.2121-9.14736 5.212z" fill="#fff"/><path d="m8.98975 92.6581v-4.8962l9.14735-5.2121v4.8962z" fill="url(#ap)"/><path d="m0 82.5498v4.7382l8.98968 5.3701v-4.8962z" fill="url(#aq)"/><path d="m38.9544 38.0155-28.7038-17.0576c-1.41943-.9477-1.26171-2.3692.4731-3.3168l26.3381-14.84648c1.7348-.94765 4.416-1.10559 5.8354-.15794l28.7037 17.05762c1.4194.9477 1.2617 2.3692-.4731 3.3168l-26.3381 14.8465c-1.7348.9476-4.4159 1.1056-5.8353.1579z" fill="#f16822" opacity=".5"/><path d="m71.1286 23.0113-26.338 14.8465c-1.7349.9477-4.416 1.1056-5.8354.158l-28.7038-17.0577c-.63081-.3159-.94622-.9477-.94622-1.4215v18.1633c0 .4738.31541 1.1056.94622 1.4215l28.7038 17.0576c1.4194.9477 4.1005.7897 5.8354-.1579l26.338-14.8465c.9463-.6318 1.4194-1.2635 1.4194-2.0532v-18.1633c0 .7897-.4731 1.5794-1.4194 2.0532z" fill="#f16822" opacity=".4"/><path d="m45.1556 264.804-26.1478-14.941 26.1478-14.942 26.1477 14.942z" opacity=".7" stroke="#f16822"/><path d="m71.5348 240.242-26.6901 15.518v-30.88l26.6901-15.362z" fill="url(#ar)"/><path d="m44.8452 224.88-26.8452-15.363 26.8452-15.517 26.69 15.517z" fill="#8e8e8e"/><path d="m44.8452 255.76-26.8452-15.518v-30.724l26.8452 15.362z" fill="#efefef"/><path d="m35.0695 239.001-7.4484-4.19v-8.69l7.4484 4.345z" fill="#8e8e8e"/><path d="m323.156 264.804-26.148-14.941 26.148-14.942 26.147 14.942z" opacity=".7" stroke="#f16822"/><path d="m349.535 240.242-26.69 15.518v-30.88l26.69-15.362z" fill="url(#as)"/><path d="m322.845 224.88-26.845-15.363 26.845-15.517 26.69 15.517z" fill="#8e8e8e"/><path d="m322.845 255.76-26.845-15.518v-30.724l26.845 15.362z" fill="#efefef"/><path d="m313.069 239.001-7.448-4.19v-8.69l7.448 4.345z" fill="#8e8e8e"/></svg>