<svg fill="none" height="32" viewBox="0 0 32 32" width="32" xmlns="http://www.w3.org/2000/svg"><path d="m16 32c8.8366 0 16-7.1634 16-16 0-8.83656-7.1634-16-16-16-8.83656 0-16 7.16344-16 16 0 8.8366 7.16344 16 16 16z" fill="#4d4d4d"/><path d="m26.6731 16c0-1.2983-1.0499-2.3293-2.3294-2.3293-.6299 0-1.2029.248-1.6229.6491-1.6036-1.1456-3.7995-1.8901-6.2434-1.9855l1.0691-5.00248 3.4749.74453c.0385.87835.7638 1.5848 1.6614 1.5848.9164 0 1.6609-.74453 1.6609-1.66132 0-.91643-.7445-1.66096-1.6609-1.66096-.6492 0-1.2222.38187-1.4895.93565l-3.8757-.82105c-.1146-.01922-.2292 0-.3057.05729-.0954.0573-.1527.15268-.1715.26728l-1.1841 5.57506c-2.482.0766-4.716.8211-6.33884 1.9859-.41996-.401-.99295-.6491-1.62289-.6491-1.29831 0-2.32934 1.0499-2.32934 2.3293 0 .9545.57264 1.7564 1.37483 2.1194-.03844.2288-.0573.458-.0573.7064 0 3.5892 4.18144 6.5108 9.33654 6.5108 5.1552 0 9.3366-2.9023 9.3366-6.5108 0-.2292-.0192-.4776-.0573-.7064.8018-.363 1.3745-1.1841 1.3745-2.1386zm-16 1.661c0-.9165.7445-1.661 1.6613-1.661.9164 0 1.6609.7445 1.6609 1.661 0 .9164-.7445 1.6613-1.6609 1.6613-.9168.0189-1.6613-.7449-1.6613-1.6613zm9.2984 4.4106c-1.1456 1.1456-3.3222 1.2221-3.9522 1.2221-.6491 0-2.8258-.0957-3.9525-1.2221-.1716-.1719-.1716-.4392 0-.6111.1718-.1715.4391-.1715.611 0 .7257.7257 2.2532.9737 3.3415.9737 1.0884 0 2.6347-.248 3.3412-.9737.1719-.1715.4391-.1715.611 0 .1527.1719.1527.4392 0 .6111zm-.3057-2.7304c-.9164 0-1.6609-.7446-1.6609-1.661s.7445-1.661 1.6609-1.661c.9168 0 1.6614.7446 1.6614 1.661 0 .8972-.7446 1.661-1.6614 1.661z" fill="#fff"/></svg>