<svg fill="none" height="394.55624" viewBox="0 0 376.146 394.55624" width="376.146" xmlns="http://www.w3.org/2000/svg" xmlns:xlink="http://www.w3.org/1999/xlink"><linearGradient id="a"><stop offset="0" stop-color="#f16822"/><stop offset="1" stop-color="#f16822" stop-opacity="0"/></linearGradient><linearGradient id="b" gradientUnits="userSpaceOnUse" x1="13.8034" x2="130.864" xlink:href="#a" y1="161.177241" y2="229.485241"/><linearGradient id="c" gradientUnits="userSpaceOnUse" x1="360.77499" x2="225.425" xlink:href="#a" y1="154.472241" y2="234.977241"/><linearGradient id="d" gradientUnits="userSpaceOnUse" x1="59.5378" x2="159.528" xlink:href="#a" y1="346.492241" y2="291.601241"/><linearGradient id="e" gradientUnits="userSpaceOnUse" x1="304.064" x2="215.052" xlink:href="#a" y1="341.006251" y2="283.068231"/><linearGradient id="f"><stop offset="0" stop-color="#fff"/><stop offset="1" stop-color="#b9b9b9"/></linearGradient><linearGradient id="g" gradientUnits="userSpaceOnUse" x1="296.74701" x2="352.724" xlink:href="#f" y1="333.082241" y2="354.256251"/><linearGradient id="h"><stop offset="0" stop-color="#f17922"/><stop offset="1" stop-color="#d74608"/></linearGradient><linearGradient id="i" gradientUnits="userSpaceOnUse" x1="299.25699" x2="328.353" xlink:href="#h" y1="309.927241" y2="347.004241"/><linearGradient id="j" gradientUnits="userSpaceOnUse" x1="325.45099" x2="325.45099" xlink:href="#a" y1="330.617241" y2="293.327241"/><linearGradient id="k" gradientUnits="userSpaceOnUse" x1="299.186" x2="289.38199" xlink:href="#h" y1="392.211241" y2="387.046231"/><linearGradient id="l" gradientUnits="userSpaceOnUse" x1="290.039" x2="279.87299" xlink:href="#h" y1="394.040251" y2="388.577241"/><linearGradient id="m" gradientUnits="userSpaceOnUse" x1="294.43301" x2="301.987" xlink:href="#h" y1="357.211241" y2="362.181241"/><linearGradient id="n" gradientUnits="userSpaceOnUse" x1="285.29901" x2="292.90399" xlink:href="#h" y1="357.211241" y2="362.303251"/><linearGradient id="o" gradientUnits="userSpaceOnUse" x1="186.985" x2="166.563" y1="158.739241" y2="268.317241"><stop offset="0" stop-color="#d5d5d5"/><stop offset="1" stop-color="#6b6b6b"/></linearGradient><linearGradient id="p"><stop offset="0" stop-color="#f16822"/><stop offset="1" stop-color="#d84b0e"/></linearGradient><linearGradient id="q" gradientUnits="userSpaceOnUse" x1="186.375" x2="185.12199" xlink:href="#p" y1="156.301241" y2="191.002241"/><linearGradient id="r"><stop offset="0" stop-color="#595959"/><stop offset="1" stop-color="#c6c6c6"/></linearGradient><linearGradient id="s" gradientUnits="userSpaceOnUse" x1="173.771" x2="143.12" xlink:href="#r" y1="238.563241" y2="263.490251"/><linearGradient id="t" gradientUnits="userSpaceOnUse" x1="173.771" x2="143.12" xlink:href="#r" y1="223.717231" y2="248.643241"/><linearGradient id="u" gradientUnits="userSpaceOnUse" x1="173.929" x2="143.278" xlink:href="#r" y1="208.870231" y2="233.797241"/><linearGradient id="v" gradientUnits="userSpaceOnUse" x1="173.929" x2="143.278" xlink:href="#r" y1="194.182251" y2="219.108241"/><linearGradient id="w" gradientUnits="userSpaceOnUse" x1="193.082" x2="210.289" xlink:href="#f" y1="337.958251" y2="322.984251"/><linearGradient id="x" gradientUnits="userSpaceOnUse" x1="178.44701" x2="195.039" xlink:href="#f" y1="337.958251" y2="323.591241"/><linearGradient id="y" gradientUnits="userSpaceOnUse" x1="184.791" x2="196.672" xlink:href="#h" y1="282.301231" y2="288.203241"/><linearGradient id="z" gradientUnits="userSpaceOnUse" x1="172.489" x2="184.45" xlink:href="#h" y1="282.013241" y2="287.854241"/><linearGradient id="A" gradientUnits="userSpaceOnUse" x1="184.791" x2="195.08701" xlink:href="#h" y1="269.111251" y2="275.930251"/><linearGradient id="B" gradientUnits="userSpaceOnUse" x1="172.489" x2="182.85699" xlink:href="#h" y1="268.967231" y2="275.756241"/><linearGradient id="C" gradientUnits="userSpaceOnUse" x1="301.625" x2="341.56" xlink:href="#h" y1="109.97234" y2="148.122241"/><linearGradient id="D" gradientUnits="userSpaceOnUse" x1="357.20901" x2="321.789" xlink:href="#f" y1="89.476139" y2="124.213444"/><linearGradient id="E" gradientUnits="userSpaceOnUse" x1="328.45599" x2="327.50299" xlink:href="#p" y1="81.321942" y2="107.499539"/><linearGradient id="F" gradientUnits="userSpaceOnUse" x1="327.96201" x2="327.96201" xlink:href="#a" y1="103.84544" y2="66.555142"/><linearGradient id="G" gradientUnits="userSpaceOnUse" x1="301.625" x2="312.211" xlink:href="#f" y1="166.054241" y2="156.707241"/><linearGradient id="H" gradientUnits="userSpaceOnUse" x1="293.08801" x2="305.151" xlink:href="#f" y1="167.883241" y2="157.459241"/><linearGradient id="I" gradientUnits="userSpaceOnUse" x1="304.827" x2="296.88101" xlink:href="#f" y1="132.186444" y2="136.271542"/><linearGradient id="J" gradientUnits="userSpaceOnUse" x1="295.685" x2="287.82001" xlink:href="#f" y1="132.186444" y2="136.160244"/><linearGradient id="K" gradientUnits="userSpaceOnUse" x1="66.914597" x2="26.9802" xlink:href="#h" y1="336.739251" y2="374.889251"/><linearGradient id="L" gradientUnits="userSpaceOnUse" x1="11.3312" x2="46.7505" xlink:href="#f" y1="316.243251" y2="350.980251"/><linearGradient id="M" gradientUnits="userSpaceOnUse" x1="40.0839" x2="41.0369" xlink:href="#p" y1="308.089231" y2="334.266231"/><linearGradient id="N" gradientUnits="userSpaceOnUse" x1="40.577702" x2="40.577702" xlink:href="#a" y1="330.612241" y2="293.322231"/><linearGradient id="O" gradientUnits="userSpaceOnUse" x1="66.914703" x2="56.328999" xlink:href="#f" y1="392.821251" y2="383.474241"/><linearGradient id="P" gradientUnits="userSpaceOnUse" x1="75.451897" x2="63.388901" xlink:href="#f" y1="394.650231" y2="384.226251"/><linearGradient id="Q" gradientUnits="userSpaceOnUse" x1="63.713299" x2="71.658997" xlink:href="#f" y1="358.953241" y2="363.038231"/><linearGradient id="R" gradientUnits="userSpaceOnUse" x1="72.854698" x2="80.719597" xlink:href="#f" y1="358.953241" y2="362.927241"/><linearGradient id="S" gradientUnits="userSpaceOnUse" x1="69.867798" x2="13.8905" xlink:href="#f" y1="106.314739" y2="127.488941"/><linearGradient id="T" gradientUnits="userSpaceOnUse" x1="67.357597" x2="38.261501" xlink:href="#h" y1="83.16034" y2="120.237438"/><linearGradient id="U" gradientUnits="userSpaceOnUse" x1="41.1637" x2="41.1637" xlink:href="#a" y1="103.850338" y2="66.560042"/><linearGradient id="V" gradientUnits="userSpaceOnUse" x1="67.428001" x2="77.231903" xlink:href="#h" y1="165.444241" y2="160.279241"/><linearGradient id="W" gradientUnits="userSpaceOnUse" x1="76.574997" x2="86.741501" xlink:href="#h" y1="167.273231" y2="161.810241"/><linearGradient id="X" gradientUnits="userSpaceOnUse" x1="72.181602" x2="64.627296" xlink:href="#h" y1="130.444042" y2="135.414639"/><linearGradient id="Y" gradientUnits="userSpaceOnUse" x1="81.315498" x2="73.710098" xlink:href="#h" y1="130.444042" y2="135.536144"/><linearGradient id="Z" gradientUnits="userSpaceOnUse" x1="209.448" x2="146.14" xlink:href="#p" y1="102.21674" y2="99.306641"/><linearGradient id="aa" gradientUnits="userSpaceOnUse" x1="209.448" x2="146.117" xlink:href="#p" y1="94.974941" y2="92.32444"/><linearGradient id="ab" gradientUnits="userSpaceOnUse" x1="209.448" x2="146.14" xlink:href="#p" y1="89.21674" y2="86.306641"/><linearGradient id="ac" gradientUnits="userSpaceOnUse" x1="209.448" x2="146.117" xlink:href="#p" y1="81.974941" y2="79.32444"/><linearGradient id="ad" gradientUnits="userSpaceOnUse" x1="209.448" x2="146.14" xlink:href="#p" y1="76.21674" y2="73.306641"/><linearGradient id="ae" gradientUnits="userSpaceOnUse" x1="209.448" x2="146.117" xlink:href="#p" y1="68.974941" y2="66.32444"/><linearGradient id="af" gradientUnits="userSpaceOnUse" x1="187.600975" x2="187.600975" xlink:href="#a" y1="169.597" y2=".046225"/><path d="m156.35677 168-68.500096-168.00000119 199.499996.00003-70.5 169.49997119z" fill="url(#af)" opacity=".4"/><path d="m158.975 256.39024-158.975-93.501 3.6274-2.053c1.73484-.948 44.0019-24.4814 47.3139-26.0608l2.0502 4.2648c-2.3656 1.263-27.5997 15.162-43.37101 24.007l151.87751 89.237z" fill="url(#b)"/><path d="m215.909 258.60124-2.366-4.106 153.14-89.869c-10.567-5.844-40.69-22.428-43.529-24.007l2.366-4.1065c3.312 1.8955 46.683 25.7445 46.998 25.9025l3.628 2.053z" fill="url(#c)"/><path d="m41.1631 357.94624-2.3657-3.948 142.0996-83.393 2.365 4.106z" fill="url(#d)"/><path d="m326.308 357.78824-129.009-75.496 2.366-4.106 129.009 75.496z" fill="url(#e)"/><path d="m357.22 363.75924-.158-30.009-63.243-1.264.158 29.535c-.158.632 0 1.422.946 1.895l28.704 17.058c1.42.948 4.101.79 5.835-.158l26.339-14.846c.946-.79 1.419-1.422 1.419-2.211z" fill="url(#g)"/><path d="m323.312 350.49124-28.704-17.057c-1.42-.948-1.262-2.369.473-3.317l26.338-14.846c1.735-.948 4.416-1.106 5.835-.158l28.704 17.057c1.42.948 1.262 2.369-.473 3.317l-26.338 14.847c-1.735.947-4.258.947-5.835.157z" fill="#8d8d8d"/><path d="m357.22 325.85224v-12.951l-21.292-.474-8.358-5.054c-1.42-.947-4.101-.789-5.836.158l-7.728 4.423-20.187-.474v12.951c0 .474.316 1.106.946 1.421l28.704 17.058c1.42.948 4.101.79 5.836-.158l26.338-14.846c1.104-.632 1.577-1.264 1.577-2.054z" fill="url(#i)"/><path d="m323.469 329.95924-28.704-17.058c-1.419-.948-1.261-2.369.474-3.317l26.338-14.846c1.735-.948 4.416-1.106 5.835-.158l28.704 17.058c1.419.947 1.262 2.369-.473 3.316l-26.338 14.847c-1.735.947-4.416.947-5.836.158z" fill="#8d8d8d"/><path d="m324.416 322.69424-17.664-10.425c-.947-.473-.789-1.421.315-2.053l16.245-9.16c1.104-.632 2.681-.632 3.627-.158l17.664 10.424c.946.474.788 1.421-.316 2.053l-16.244 9.161c-1.104.631-2.681.789-3.627.158z" fill="#f3f3f3"/><path d="m306.752 312.42724 2.996 1.738 13.564-7.581c1.104-.632 2.681-.632 3.627-.158l14.667 8.686 2.681-1.421c1.104-.632 1.262-1.579.316-2.053l-17.664-10.424c-.946-.474-2.523-.474-3.627.157l-16.245 9.161c-1.104.316-1.262 1.264-.315 1.895z" fill="#d9d9d9"/><path d="m323.468 311.79624-28.703-17.058c-1.42-.948-1.262-2.369.473-3.317l26.338-14.846c1.735-.948 4.416-1.106 5.835-.158l28.704 17.057c1.419.948 1.262 2.37-.473 3.317l-26.338 14.847c-1.735.947-4.416 1.105-5.836.158z" fill="#fff" opacity=".5"/><path d="m355.643 296.79124-26.338 14.847c-1.735.948-4.416 1.106-5.836.158l-28.703-17.058c-.631-.316-.947-.947-.947-1.421v18.163c0 .474.316 1.106.947 1.421l28.703 17.058c1.42.948 4.101.79 5.836-.158l26.338-14.846c.946-.632 1.419-1.264 1.419-2.054v-18.163c.158.79-.473 1.58-1.419 2.053z" fill="url(#j)" opacity=".4"/><path d="m355.643 296.79124-26.338 14.847c-1.735.948-4.416 1.106-5.836.158l-28.703-17.058c-.631-.316-.947-.947-.947-1.421v18.163c0 .474.316 1.106.947 1.421l28.703 17.058c1.42.948 4.101.79 5.836-.158l26.338-14.846c.946-.632 1.419-1.264 1.419-2.054v-18.163c.158.79-.473 1.58-1.419 2.053z" fill="#e1e1e1" opacity=".4"/><path d="m284.514 365.65324 9.148-5.212 8.989 5.212-8.989 5.212z" fill="#ed711f"/><path d="m293.662 394.55624v-23.691l8.989-5.212v23.691z" fill="url(#k)"/><path d="m284.514 365.65324v23.533l9.147 5.37v-23.691z" fill="url(#l)"/><path d="m284.514 356.33524 9.148-5.212 8.989 5.212-8.989 5.212z" fill="#f16822"/><path d="m293.662 366.44324v-4.896l8.989-5.212v4.896z" fill="url(#m)"/><path d="m284.514 356.33524v4.738l9.147 5.37v-4.896z" fill="url(#n)"/><path d="m236.412 265.23524v-99.661l-99.517-1.895v98.871c-.316 1.105.158 2.211 1.419 3.001l45.106 26.692c2.366 1.421 6.466 1.263 9.148-.316l41.478-23.375c1.735-.948 2.366-2.212 2.366-3.317z" fill="url(#o)"/><path d="m183.42 191.95024-45.106-26.692c-2.365-1.421-2.05-3.791.789-5.37l41.478-23.3752c2.681-1.5795 6.782-1.7374 9.148-.3159l45.106 26.6921c2.365 1.421 2.05 3.791-.789 5.37l-41.479 23.375c-2.681 1.58-6.781 1.738-9.147.316z" fill="#fff"/><path d="m184.84 180.73624-27.6-16.426c-1.42-.789-1.262-2.369.473-3.317l25.392-14.372c1.735-.948 4.258-.948 5.677-.158l27.6 16.426c1.42.789 1.262 2.369-.473 3.317l-25.392 14.372c-1.735.948-4.258.948-5.677.158z" fill="url(#q)"/><path d="m175.535 255.28524c0-1.895-1.104-4.107-2.524-4.896l-33.593-19.901c-.631-.316-1.261-.474-1.735-.158 0 0-.157 0-.157.158l-8.359 5.054 36.589 27.008 8.517-5.054c.158 0 .315-.158.473-.316.631-.474.789-1.105.789-1.895z" fill="url(#s)"/><path d="m164.495 262.23424-33.593-19.9c-1.42-.79-2.524-3.001-2.524-4.897 0-1.895 1.262-2.685 2.682-1.895l33.592 19.901c1.42.789 2.524 3.001 2.524 4.896-.158 1.895-1.42 2.685-2.681 1.895z" fill="#fff"/><path d="m175.535 240.43824c0-1.895-1.104-4.106-2.524-4.896l-33.593-19.901c-.631-.315-1.261-.473-1.735-.157 0 0-.157 0-.157.157l-8.359 5.055 36.589 27.008 8.517-5.055c.158 0 .315-.157.473-.315.473-.474.789-1.106.789-1.896z" fill="url(#t)"/><path d="m164.337 247.38824-33.593-19.901c-1.419-.79-2.523-3.001-2.523-4.896 0-1.896 1.261-2.685 2.681-1.896l33.593 19.901c1.419.79 2.523 3.001 2.523 4.896 0 1.896-1.262 2.685-2.681 1.896z" fill="#fff"/><path d="m175.692 225.59224c0-1.896-1.104-4.107-2.523-4.897l-33.593-19.9c-.631-.316-1.262-.474-1.735-.158 0 0-.158 0-.158.158l-8.358 5.054 36.589 27.008 8.517-5.054c.157 0 .315-.158.473-.316.473-.316.788-.948.788-1.895z" fill="url(#u)"/><path d="m164.495 232.54124-33.593-19.901c-1.42-.79-2.524-3.001-2.524-4.896s1.262-2.685 2.682-1.895l33.592 19.9c1.42.79 2.524 3.001 2.524 4.897-.158 1.895-1.262 2.842-2.681 1.895z" fill="#fff"/><path d="m175.692 210.90324c0-1.895-1.104-4.106-2.523-4.896l-33.593-19.901c-.631-.316-1.262-.474-1.735-.158 0 0-.158 0-.158.158l-8.358 5.054 36.589 27.008 8.517-5.054c.157 0 .315-.158.473-.316.473-.473.788-1.105.788-1.895z" fill="url(#v)"/><path d="m164.495 217.85224-33.593-19.9c-1.42-.79-2.524-3.001-2.524-4.896 0-1.896 1.262-2.685 2.682-1.896l33.592 19.901c1.42.79 2.524 3.001 2.524 4.896-.158 1.895-1.262 2.685-2.681 1.895z" fill="#fff"/><path d="m157.24 164.31024 4.574 2.685 21.291-12.003c1.735-.948 4.258-.948 5.677-.158l23.027 13.583 4.1-2.369c1.735-.948 1.893-2.369.473-3.317l-27.6-16.426c-1.419-.79-3.942-.79-5.677.158l-25.55 14.689c-1.577.947-1.735 2.369-.315 3.158z" fill="#d84b0e"/><g fill="#4d4d4d"><path d="m229.157 192.74024-31.385 18.321v-4.896l31.385-18.321z"/><path d="m229.157 202.21624-9.62 5.528v-4.896l9.62-5.528z"/><path d="m215.909 209.95624-18.137 10.424v-4.896l18.137-10.425z"/><path d="m229.157 211.21924-22.395 13.109v-4.896l22.395-13.109z"/><path d="m203.134 226.38124-5.362 3.159v-4.896l5.362-3.159z"/><path d="m229.157 220.69524-31.385 18.322v-4.897l31.385-18.321z"/><path d="m229.157 230.17224-9.62 5.686v-4.896l9.62-5.686z"/><path d="m215.909 237.91124-18.137 10.582v-5.054l18.137-10.424z"/><path d="m229.157 239.33324-22.395 12.951v-4.896l22.395-12.952z"/><path d="m203.134 254.33724-5.362 3.159v-4.896l5.362-3.159z"/><path d="m229.157 248.17724-31.385 18.321v-4.896l31.385-18.321z"/></g><path d="m171.434 298.40324 12.302-7.108 12.301 7.266-12.301 7.107z" fill="#fafafa"/><path d="m183.736 337.88824v-32.22l12.301-7.108v32.22z" fill="url(#w)"/><path d="m171.434 298.40324v32.22l12.302 7.265v-32.22z" fill="url(#x)"/><path d="m171.434 280.39724 12.302-6.949 12.301 7.265-12.301 6.95z" fill="#f16822"/><path d="m183.736 299.03424v-11.371l12.301-6.95v11.214z" fill="url(#y)"/><path d="m171.434 280.39724v11.372l12.302 7.265v-11.371z" fill="url(#z)"/><path d="m171.434 267.76224 12.302-7.107 12.301 7.265-12.301 7.107z" fill="#f16822"/><path d="m183.736 281.66124v-6.634l12.301-7.107v6.633z" fill="url(#A)"/><path d="m171.434 267.76224v6.634l12.302 7.265v-6.634z" fill="url(#B)"/><path d="m359.585 136.98684-.157-30.0089-63.243-1.2635.158 29.535c-.158.6318 0 1.4215.946 1.8958l28.704 17.057c1.419.948 4.1.79 5.835-.158l26.338-15.004c1.104-.632 1.577-1.264 1.419-2.0534z" fill="url(#C)"/><path d="m325.835 123.71974-28.704-17.0577c-1.419-.9476-1.261-2.3691.473-3.3168l26.338-14.846499c1.735-.9476 4.416-1.1056 5.836-.1579l28.704 17.057699c1.419.9476 1.261 2.3691-.474 3.3167l-26.338 14.8465c-1.735.9477-4.416.9477-5.835.158z" fill="#ff9863"/><path d="m359.585 99.081241v-12.9512l-21.291-.4738-8.359-5.0542c-1.419-.9476-4.1-.7897-5.835.158l-7.57 4.2644-20.187-.4738v12.9512c0 .4738.315 1.1056.946 1.4214l28.704 17.057699c1.419.9477 4.1.7897 5.835-.1579l26.338-14.6886c1.104-.6317 1.577-1.263499 1.419-2.053199z" fill="url(#D)"/><path d="m325.993 103.18754-28.704-17.057699c-1.42-.9477-1.262-2.3691.473-3.3168l26.338-14.8465c1.735-.9476 4.416-1.1056 5.835-.1579l28.704 17.0576c1.42.9477 1.262 2.3692-.473 3.3168l-26.338 14.846499c-1.735.9477-4.416.9477-5.835.158z" fill="#ff9863"/><path d="m326.939 95.922341-17.664-10.4242c-.946-.4738-.788-1.4215.316-2.0532l16.244-9.1606c1.104-.6318 2.681-.6318 3.627-.158l17.664 10.4242c.947.4738.789 1.4214-.315 2.0532l-16.245 9.1606c-1.104.6318-2.838.7897-3.627.158z" fill="url(#E)"/><path d="m309.275 85.497941 2.997 1.7374 13.563-7.5812c1.104-.6318 2.681-.6318 3.627-.158l14.668 8.6868 2.681-1.4215c1.104-.6317 1.262-1.5794.315-2.0532l-17.821-10.4241c-.947-.4739-2.524-.4739-3.628.1579l-16.244 9.1606c-.946.4738-1.104 1.4215-.158 1.8953z" fill="#d84b0e"/><path d="m358.166 70.019641-26.338 14.8465c-1.735.9477-4.416 1.1056-5.835.158l-28.704-17.0577c-.631-.3159-.946-.9476-.946-1.4215v18.1633c0 .4738.315 1.1056.946 1.4215l28.704 17.057599c1.419.9477 4.1.7898 5.835-.1579l26.338-14.846499c.947-.6318 1.42-1.2635 1.42-2.0532v-18.1633c0 .7897-.473 1.5794-1.42 2.0532z" fill="url(#F)" opacity=".4"/><path d="m287.038 138.88224 8.989-5.2123 9.148 5.2123-9.148 5.212z" fill="#8d8d8d"/><path d="m296.027 167.78524v-23.691l9.148-5.212v23.691z" fill="url(#G)"/><path d="m287.038 138.88224v23.533l8.989 5.37v-23.691z" fill="url(#H)"/><path d="m287.038 129.56364 8.989-5.212 9.148 5.212-9.148 5.2121z" fill="#fff"/><path d="m296.027 139.67224v-4.8966l9.148-5.2121v4.8962z" fill="url(#I)"/><path d="m287.038 129.56354v4.7382l8.989 5.3705v-4.8966z" fill="url(#J)"/><path d="m325.992 85.028841-28.704-17.0577c-1.419-.9477-1.262-2.3691.473-3.3168l26.338-14.8465c1.735-.9476 4.416-1.1056 5.836-.1579l28.704 17.0577c1.419.9476 1.261 2.3691-.474 3.3167l-26.338 14.8465c-1.735.9477-4.416 1.1056-5.835.158z" fill="#f16822" opacity=".5"/><path d="m358.166 70.024541-26.338 14.8465c-1.735.9477-4.416 1.1056-5.835.158l-28.704-17.0577c-.631-.3159-.946-.9477-.946-1.4215v18.1633c0 .4738.315 1.1056.946 1.4215l28.704 17.057599c1.419.9477 4.1.7897 5.835-.1579l26.338-14.846499c.947-.6318 1.42-1.2635 1.42-2.0532v-18.1633c0 .7897-.473 1.5794-1.42 2.0532z" fill="#f16822" opacity=".4"/><path d="m8.95436 363.75424.15769-30.009 63.24295-1.264-.1577 29.535c.1577.632 0 1.422-.9463 1.896l-28.7038 17.057c-1.4194.948-4.1005.79-5.8354-.158l-26.338-15.004c-1.10403-.632-1.57716-1.264-1.41944-2.053z" fill="url(#K)"/><path d="m42.7049 350.48724 28.7037-17.058c1.4194-.948 1.2617-2.369-.4731-3.317l-26.3381-14.846c-1.7348-.948-4.416-1.106-5.8354-.158l-28.7037 17.057c-1.41942.948-1.26171 2.369.4731 3.317l26.3381 14.847c1.7348.947 4.4159.947 5.8354.158z" fill="#ff9863"/><path d="m8.95437 325.84824v-12.951l21.29123-.474 8.3588-5.054c1.4194-.948 4.1006-.79 5.8354.158l7.5702 4.264 20.1873-.474v12.952c0 .473-.3154 1.105-.9463 1.421l-28.7038 17.058c-1.4194.947-4.1005.79-5.8354-.158l-26.338-14.689c-1.10401-.631-1.57714-1.263-1.41943-2.053z" fill="url(#L)"/><path d="m42.5471 329.95424 28.7038-17.057c1.4194-.948 1.2617-2.369-.4732-3.317l-26.338-14.847c-1.7349-.947-4.416-1.105-5.8354-.158l-28.70376 17.058c-1.41941.948-1.2617 2.369.47316 3.317l26.338 14.846c1.7349.948 4.416.948 5.8354.158z" fill="#ff9863"/><path d="m41.601 322.68924 17.6639-10.424c.9463-.474.7886-1.421-.3154-2.053l-16.2445-9.161c-1.104-.632-2.6811-.632-3.6274-.158l-17.6638 10.424c-.9463.474-.7886 1.422.3154 2.054l16.2444 9.16c1.104.632 2.8389.79 3.6274.158z" fill="url(#M)"/><path d="m59.2646 312.26524-2.9965 1.737-13.5633-7.581c-1.104-.632-2.6812-.632-3.6274-.158l-14.6673 8.687-2.6812-1.422c-1.104-.631-1.2617-1.579-.3154-2.053l17.8216-10.424c.9463-.474 2.5234-.474 3.6274.158l16.2444 9.16c.9463.474 1.104 1.422.1577 1.896z" fill="#d84b0e"/><path d="m10.3738 296.78724 26.3381 14.846c1.7348.948 4.4159 1.106 5.8353.158l28.7038-17.058c.6309-.316.9463-.947.9463-1.421v18.163c0 .474-.3154 1.106-.9463 1.422l-28.7038 17.057c-1.4194.948-4.1005.79-5.8353-.158l-26.3381-14.846c-.94628-.632-1.41941-1.264-1.41941-2.053v-18.164c0 .79.47313 1.58 1.41941 2.054z" fill="url(#N)" opacity=".4"/><path d="m81.5024 365.64924-8.9896-5.212-9.1473 5.212 9.1473 5.212z" fill="#8d8d8d"/><path d="m72.5127 394.55224v-23.691l-9.1473-5.212v23.691z" fill="url(#O)"/><path d="m81.5024 365.64924v23.533l-8.9896 5.37v-23.691z" fill="url(#P)"/><path d="m81.5024 356.33124-8.9896-5.213-9.1473 5.213 9.1473 5.212z" fill="#fff"/><path d="m72.5127 366.43924v-4.897l-9.1473-5.212v4.897z" fill="url(#Q)"/><path d="m81.5024 356.33024v4.739l-8.9896 5.37v-4.897z" fill="url(#R)"/><path d="m42.5481 311.79624 28.7038-17.058c1.4194-.948 1.2617-2.369-.4732-3.317l-26.338-14.846c-1.7349-.948-4.416-1.106-5.8354-.158l-28.70378 17.057c-1.41941.948-1.2617 2.37.47318 3.317l26.338 14.847c1.7349.947 4.416 1.105 5.8354.158z" fill="#f16822" opacity=".5"/><path d="m10.3738 296.79124 26.3381 14.847c1.7348.948 4.4159 1.106 5.8353.158l28.7038-17.058c.6309-.316.9463-.947.9463-1.421v18.163c0 .474-.3154 1.106-.9463 1.421l-28.7038 17.058c-1.4194.948-4.1005.79-5.8353-.158l-26.3381-14.846c-.94628-.632-1.41941-1.264-1.41941-2.054v-18.163c0 .79.47313 1.58 1.41941 2.053z" fill="#f16822" opacity=".4"/><path d="m9.39481 136.99174.15769-30.0089 63.2429-1.2635-.1577 29.535c.1577.6318 0 1.4215-.9463 1.8949l-28.7038 17.058c-1.4194.948-4.1005.79-5.8353-.158l-26.3381-14.846c-.94626-.79-1.41939-1.422-1.41939-2.2115z" fill="url(#S)"/><path d="m43.303 123.72464 28.7037-17.0577c1.4195-.9477 1.2617-2.3691-.4731-3.3168l-26.3381-14.846499c-1.7348-.9476-4.4159-1.1056-5.8353-.1579l-28.7038 17.057699c-1.41945.9476-1.26174 2.3691.4731 3.3167l26.3381 14.8465c1.7348.9477 4.2582.9477 5.8354.158z" fill="#8d8d8d"/><path d="m9.39481 99.085641v-12.9512l21.29129-.4738 8.3587-5.0542c1.4194-.9476 4.1006-.7897 5.8354.158l7.7279 4.4223 20.1873-.4738v12.9512c0 .4738-.3154 1.1056-.9463 1.4215l-28.7037 17.057699c-1.4194.9476-4.1006.7897-5.8354-.158l-26.3381-14.8465c-1.10396-.6317-1.57709-1.263499-1.57709-2.053199z" fill="url(#T)"/><path d="m43.1453 103.19184 28.7037-17.057599c1.4194-.9477 1.2617-2.3692-.4731-3.3168l-26.3381-14.8465c-1.7348-.9476-4.4159-1.1056-5.8354-.1579l-28.7037 17.0576c-1.41943.9477-1.26172 2.3692.4731 3.3168l26.3381 14.846499c1.7348.9477 4.416.9476 5.8354.1579z" fill="#8d8d8d"/><path d="m42.1992 95.926641 17.6638-10.4241c.9463-.4738.7886-1.4215-.3154-2.0532l-16.2444-9.1606c-1.104-.6318-2.6811-.6318-3.6274-.158l-17.6639 10.4242c-.9462.4738-.7885 1.4214.3155 2.0532l16.2444 9.1606c1.104.6318 2.6811.7897 3.6274.1579z" fill="#f3f3f3"/><path d="m59.863 85.660541-2.9965 1.7374-13.5633-7.5812c-1.104-.6318-2.6811-.6318-3.6274-.158l-14.6673 8.6868-2.6811-1.4215c-1.104-.6317-1.2617-1.5794-.3155-2.0532l17.6639-10.4242c.9463-.4738 2.5234-.4738 3.6274.158l16.2444 9.1606c1.104.3159 1.2617 1.2635.3154 1.8953z" fill="#d9d9d9"/><path d="m43.1462 85.028741 28.7038-17.0576c1.4194-.9477 1.2617-2.3691-.4731-3.3168l-26.3381-14.8465c-1.7348-.9476-4.416-1.1056-5.8354-.1579l-28.7037 17.0577c-1.41946.9476-1.26174 2.3691.4731 3.3167l26.3381 14.8465c1.7348.9477 4.4159 1.1056 5.8353.1579z" fill="#fff" opacity=".5"/><path d="m10.9719 70.024541 26.3381 14.8465c1.7348.9477 4.4159 1.1056 5.8354.158l28.7037-17.0577c.6309-.3159.9463-.9477.9463-1.4215v18.1633c0 .4738-.3154 1.1056-.9463 1.4215l-28.7037 17.057599c-1.4195.9477-4.1006.7898-5.8354-.1579l-26.3381-14.846499c-.9463-.6318-1.41941-1.2635-1.41941-2.0532v-18.1633c-.15771.7897.47311 1.5794 1.41941 2.0532z" fill="url(#U)" opacity=".4"/><path d="m10.9719 70.024541 26.3381 14.8465c1.7348.9477 4.4159 1.1056 5.8354.158l28.7037-17.0577c.6309-.3159.9463-.9477.9463-1.4215v18.1633c0 .4738-.3154 1.1056-.9463 1.4215l-28.7037 17.057599c-1.4195.9477-4.1006.7898-5.8354-.1579l-26.3381-14.846499c-.9463-.6318-1.41941-1.2635-1.41941-2.0532v-18.1633c-.15771.7897.47311 1.5794 1.41941 2.0532z" fill="#e1e1e1" opacity=".4"/><path d="m82.1001 138.88624-9.1474-5.2119-8.9896 5.2119 8.9896 5.212z" fill="#ed711f"/><path d="m72.9526 167.78924v-23.691l-8.9896-5.212v23.691z" fill="url(#V)"/><path d="m82.1001 138.88624v23.533l-9.1473 5.37v-23.691z" fill="url(#W)"/><path d="m82.1001 129.56814-9.1474-5.2121-8.9896 5.2121 8.9896 5.212z" fill="#f16822"/><path d="m72.9526 139.67624v-4.8963l-8.9896-5.212v4.8962z" fill="url(#X)"/><path d="m82.1001 129.56794v4.7382l-9.1473 5.3701v-4.8963z" fill="url(#Y)"/><path d="m228.555 88.436841h-1.084c-1.675-4.4943-5.519-8.689-11.432-12.1845-16.654-9.7875-43.755-9.7875-60.509 0-5.617 3.2958-9.362 7.1908-11.136 11.3855h-1.379v5.5929c-.296 6.6915 3.843 13.382899 12.515 18.476399 16.655 9.7876 43.756 9.7876 60.509 0 8.377-4.8937 12.516-11.2856 12.516-17.677399z" fill="#ff7d3a"/><path d="m228.555 87.699541h-1.084c-1.675-4.4943-5.519-8.689-11.432-12.1845-16.654-9.7876-43.755-9.7876-60.509 0-5.617 3.2958-9.362 7.1908-11.136 11.3855h-1.379v5.5929c-.296 6.6914 3.843 13.382899 12.515 18.476399 16.655 9.7876 43.756 9.7876 60.509 0 8.377-4.8937 12.516-11.285599 12.516-17.677499z" fill="#ff7d3a"/><path d="m227.565 87.911641c-.099-.1972-.099-.2958-.198-.4931v-3.5507h-2.278v-.2959c-.594-.789-1.188-1.4794-1.881-2.2684v2.4657h-1.288v-3.7479c-.594-.4932-1.287-1.085-1.881-1.5781v5.326h-1.287v-6.2137c-.594-.3945-1.288-.8876-1.882-1.2822v7.4959h-1.287v-8.2849c-.594-.3945-1.287-.6904-1.98-.9863v9.2712h-1.288v-9.863c-.594-.2959-1.287-.5917-1.98-.789v10.652h-1.287v-8.6794h-1.981v8.6794h-1.287v-6.3123h-1.981v6.3123h-1.287v-3.9452h-1.98v3.9452h-1.288v-1.5781h-1.98v1.5781h-23.666v-1.5781h-1.981v1.5781h-1.287v-3.9452h-1.98v3.9452h-.991v-6.3123h-1.98v6.3123h-1.287v-8.6794h-1.981v8.6794h-1.287v-10.652c-.693.2959-1.287.5918-1.98.789v9.863h-1.288v-9.2712c-.693.2959-1.287.6904-1.98.9863v8.2849h-1.089v-7.4959c-.694.3946-1.288.7891-1.882 1.2822v6.3123h-1.287v-5.326c-.693.4932-1.287 1.085-1.882 1.5781v3.7479h-1.287v-2.5643c-.693.6904-1.386 1.4794-1.881 2.2684v.2959h-2.278v3.3534h-.99v9.1726c.297 1.6767.99 3.2548 1.881 4.832799v-5.720499h1.288v7.693099c.594.7891 1.188 1.4795 1.881 2.2685v-9.961599h1.287v11.145199c.595.4931 1.288 1.0849 1.882 1.578v-12.723199h1.287v13.709499c.594.3946 1.287.8877 1.882 1.2822v-14.893099h1.287v15.682199c.594.3945 1.287.6904 1.98.9862v-16.668399h1.288v17.161599c.594.2959 1.287.5918 1.98.789v-18.147799h1.287v18.640999c.594.1972 1.288.4931 1.981.6904v-19.331399h1.287v19.725899c.594.1973 1.287.3945 1.98.5918v-20.219099h1.288v20.613599c.693.1973 1.287.2959 1.98.4931v-21.008099h1.287v21.303999c.694.0987 1.288.1973 1.981.3946v-21.599899h1.287v21.797099c.693.0986 1.287.1973 1.981.2959v-22.092999h1.188v21.994399c.693.0986 1.287.0986 1.98.1972v-22.388899h1.189v22.487599c.693 0 1.287.0986 1.98.0986v-22.586199h1.188v22.586199h1.981v-22.586199h1.188v22.586199c.693 0 1.287 0 1.98-.0986v-22.487599h1.189v22.388899c.693 0 1.287-.0986 1.98-.1972v-22.191699h1.188v22.092999c.693-.0986 1.288-.1972 1.981-.2958v-21.797199h1.287v21.599899c.693-.0986 1.287-.1973 1.98-.3945v-21.303999h1.288v21.008099c.693-.0986 1.287-.2959 1.98-.4932v-20.613499h1.288v20.416299c.693-.1973 1.287-.3945 1.98-.5918v-19.725899h1.287v19.331399c.693-.1973 1.287-.4932 1.981-.6904v-18.640999h1.287v18.049199c.693-.2959 1.287-.5918 1.98-.789v-17.260199h1.288v16.668399c.693-.2959 1.287-.6904 1.98-.9863v-15.682099h1.287v14.893099c.694-.3946 1.288-.7891 1.882-1.2822v-13.709499h1.287v12.723199c.693-.4932 1.287-1.085 1.881-1.5781v-11.145099h1.288v9.862899c.693-.6904 1.386-1.4794 1.881-2.2685v-7.693099h1.287v5.720499c.892-1.577999 1.585-3.254699 1.882-4.931399v-8.3835z" fill="url(#Z)" opacity=".48"/><path d="m185.777 112.41214c23.626 0 42.778-11.0584 42.778-24.699499 0-13.6411-19.152-24.6994-42.778-24.6994-23.625 0-42.777 11.0583-42.777 24.6994 0 13.641099 19.152 24.699499 42.777 24.699499z" fill="url(#aa)"/><path d="m159.278 73.963341c14.847-8.6739 38.901-8.6739 53.749 0 7.127 4.0877 10.789 9.4715 11.086 14.8553.297-5.8823-3.366-11.8643-11.086-16.3508-14.848-8.6739-38.902-8.6739-53.749 0-7.721 4.4865-11.483 10.4685-11.087 16.3508.297-5.3838 3.96-10.6679 11.087-14.8553z" fill="#a24011"/><path d="m187.739 76.467341v2.8685l14.149 8.1108v-2.7695z" fill="#f16822"/><path d="m201.888 84.676941v2.7695l5.046-2.8684-.099-2.8685z" fill="#f16822"/><path d="m205.252 86.655341v2.8685l3.463-2.0772v-2.8685z" fill="#fff"/><path d="m201.987 88.534641v2.8685l3.265-1.8793v-2.8685z" fill="#fff"/><path d="m201.591 88.732541v2.8685l.396-.1978v-2.8685z" fill="#fff"/><path d="m192.686 83.588941.099 2.8685 8.806 5.1434v-2.8684z" fill="#fff"/><path d="m187.64 89.128241v2.8684l.099-12.6608v-2.8685z" fill="#f16822"/><path d="m165.872 89.127941v2.8685h21.768v-2.8685z" fill="#f16822"/><path d="m192.686 89.128041v2.8685l.099-5.5391-.099-2.8685z" fill="#fff"/><path d="m178.141 91.996641v2.8685h9.499v-2.8685z" fill="#fff"/><path d="m187.64 91.996641v2.8685h5.046v-2.8685z" fill="#fff"/><path d="m178.141 91.996641v2.8685l8.905 5.143399-.099-2.868399z" fill="#f16822"/><path d="m174.875 100.20624v2.8684l5.047-2.9673v-2.868499z" fill="#f16822"/><path d="m165.872 89.127941v2.8685l14.05 8.110899v-2.868499z" fill="#fff"/><path d="m185.166 98.227741v2.868499l1.88-1.0881-.099-2.868399z" fill="#fff"/><path d="m183.286 99.316141.099 2.769599 1.781-.9892v-2.868499z" fill="#fff"/><path d="m168.84 78.148641c-9.301 5.3413-9.4 14.1445-.099 19.4858.099 0 .099.099.198.099.099.0989.198.0989.198.0989.099.0989.198.0989.198.0989 1.682.8902 3.562 1.6815 5.541 2.274999l5.046-2.868499-14.051-8.2098h21.867l.099-12.6608 14.051 8.2097 5.046-2.8684c-.989-1.0881-2.276-2.1761-3.76-3.1652-.099-.099-.099-.099-.198-.099-.099-.0989-.198-.0989-.198-.0989-.099-.0989-.198-.0989-.297-.0989-9.301-5.5391-24.34-5.5391-33.641-.1978z" fill="#f16822"/><path d="m165.872 89.128241 14.05 8.2097-5.046 2.868499c1.583.4946 3.265.7913 5.046 1.088l3.463-1.978199 1.781-1.0881 1.781-1.088-8.905-5.1435h9.499 5.046v-2.8684-5.5392l8.905 5.1435.396-.1978 3.265-1.8794 3.463-1.9782c-.396-.9892-.989-1.9783-1.781-2.8685l-5.046 2.8685-14.05-8.2098-.099 12.6609z" fill="#fff"/><path d="m179.922 101.29424v2.8685l3.463-2.0772-.099-2.769599z" fill="#fff"/><path d="m174.876 100.20644v2.8685c-1.979-.5935-3.76-1.2859-5.541-2.275 0 0-.099-.0989-.198-.0989 0 0-.099 0-.198-.0989-.099 0-.099-.0989-.198-.0989-4.552-2.670699-6.926-6.132599-6.926-9.693499v-2.8685c0 3.462 2.275 7.0228 6.926 9.6935.099 0 .099.0989.198.0989.099.0989.198.0989.198.0989.099.0989.198.0989.198.0989 1.781.9892 3.562 1.6815 5.541 2.274999zm0 2.8685c1.583.4946 3.265.7913 5.046 1.088v-2.8684c-1.682-.1979-3.364-.5935-5.046-1.0881zm34.532-15.232599c0 3.5609-2.375 7.1217-7.025 9.7924-6.135 3.560899-14.644 4.747799-22.461 3.659799v2.8684c7.817 1.0881 16.326-.0989 22.461-3.6597 4.65-2.670699 7.025-6.231599 7.025-9.792399z" fill="#d84b0e"/><path d="m178.141 91.996541 8.905 5.1435-1.781 1.088-1.781 1.088-3.463 1.978299c7.817 1.088 16.326-.0989 22.461-3.659799 6.134-3.5608 8.212-8.5065 6.332-12.9576l-3.463 1.9783-3.265 1.8793-.495.1979-8.905-5.1435v5.5391 2.8685h-5.046z" fill="#f16822"/><path d="m228.555 75.436841h-1.084c-1.675-4.4943-5.519-8.689-11.432-12.1845-16.654-9.7875-43.755-9.7875-60.509 0-5.617 3.2958-9.362 7.1908-11.136 11.3855h-1.379v5.5929c-.296 6.6915 3.843 13.3829 12.515 18.4764 16.655 9.787599 43.756 9.787599 60.509 0 8.377-4.8937 12.516-11.2856 12.516-17.6774z" fill="#ff7d3a"/><path d="m228.555 74.699541h-1.084c-1.675-4.4943-5.519-8.689-11.432-12.1845-16.654-9.7876-43.755-9.7876-60.509 0-5.617 3.2958-9.362 7.1908-11.136 11.3855h-1.379v5.5929c-.296 6.6914 3.843 13.3829 12.515 18.4764 16.655 9.787599 43.756 9.787599 60.509 0 8.377-4.8937 12.516-11.2856 12.516-17.6775z" fill="#ff7d3a"/><path d="m227.565 74.911641c-.099-.1972-.099-.2958-.198-.4931v-3.5507h-2.278v-.2959c-.594-.789-1.188-1.4794-1.881-2.2684v2.4657h-1.288v-3.7479c-.594-.4932-1.287-1.085-1.881-1.5781v5.326h-1.287v-6.2137c-.594-.3945-1.288-.8876-1.882-1.2822v7.4959h-1.287v-8.2849c-.594-.3945-1.287-.6904-1.98-.9863v9.2712h-1.288v-9.863c-.594-.2959-1.287-.5917-1.98-.789v10.652h-1.287v-8.6794h-1.981v8.6794h-1.287v-6.3123h-1.981v6.3123h-1.287v-3.9452h-1.98v3.9452h-1.288v-1.5781h-1.98v1.5781h-23.666v-1.5781h-1.981v1.5781h-1.287v-3.9452h-1.98v3.9452h-.991v-6.3123h-1.98v6.3123h-1.287v-8.6794h-1.981v8.6794h-1.287v-10.652c-.693.2959-1.287.5918-1.98.789v9.863h-1.288v-9.2712c-.693.2959-1.287.6904-1.98.9863v8.2849h-1.089v-7.4959c-.694.3946-1.288.7891-1.882 1.2822v6.3123h-1.287v-5.326c-.693.4932-1.287 1.085-1.882 1.5781v3.7479h-1.287v-2.5643c-.693.6904-1.386 1.4794-1.881 2.2684v.2959h-2.278v3.3534h-.99v9.1726c.297 1.6767.99 3.2548 1.881 4.8328v-5.7205h1.288v7.6931c.594.7891 1.188 1.4795 1.881 2.2685v-9.9616h1.287v11.1452c.595.4931 1.288 1.0849 1.882 1.578v-12.7232h1.287v13.7095c.594.3946 1.287.8877 1.882 1.2822v-14.8931h1.287v15.6822c.594.3945 1.287.6904 1.98.9862v-16.6684h1.288v17.1616c.594.295899 1.287.591799 1.98.788999v-18.147799h1.287v18.640999c.594.1972 1.288.4931 1.981.6904v-19.331399h1.287v19.725899c.594.1973 1.287.3945 1.98.5918v-20.219099h1.288v20.613599c.693.1973 1.287.2959 1.98.4931v-21.008099h1.287v21.303999c.694.0987 1.288.1973 1.981.3946v-21.599899h1.287v21.797099c.693.0986 1.287.1973 1.981.2959v-22.092999h1.188v21.994399c.693.0986 1.287.0986 1.98.1972v-22.388899h1.189v22.487599c.693 0 1.287.0986 1.98.0986v-22.586199h1.188v22.586199h1.981v-22.586199h1.188v22.586199c.693 0 1.287 0 1.98-.0986v-22.487599h1.189v22.388899c.693 0 1.287-.0986 1.98-.1972v-22.191699h1.188v22.092999c.693-.0986 1.288-.1972 1.981-.2958v-21.797199h1.287v21.599899c.693-.0986 1.287-.1973 1.98-.3945v-21.303999h1.288v21.008099c.693-.0986 1.287-.2959 1.98-.4932v-20.613499h1.288v20.416299c.693-.1973 1.287-.3945 1.98-.5918v-19.725899h1.287v19.331399c.693-.1973 1.287-.4932 1.981-.6904v-18.640999h1.287v18.049199c.693-.2959 1.287-.591799 1.98-.788999v-17.2602h1.288v16.6684c.693-.2959 1.287-.6904 1.98-.9863v-15.6821h1.287v14.8931c.694-.3946 1.288-.7891 1.882-1.2822v-13.7095h1.287v12.7232c.693-.4932 1.287-1.085 1.881-1.5781v-11.1451h1.288v9.8629c.693-.6904 1.386-1.4794 1.881-2.2685v-7.6931h1.287v5.7205c.892-1.578 1.585-3.2547 1.882-4.9314v-8.3835z" fill="url(#ab)" opacity=".48"/><path d="m185.777 99.412141c23.626 0 42.778-11.0584 42.778-24.6995s-19.152-24.6994-42.778-24.6994c-23.625 0-42.777 11.0583-42.777 24.6994s19.152 24.6995 42.777 24.6995z" fill="url(#ac)"/><path d="m159.278 60.963341c14.847-8.6739 38.901-8.6739 53.749 0 7.127 4.0877 10.789 9.4715 11.086 14.8553.297-5.8823-3.366-11.8643-11.086-16.3508-14.848-8.6739-38.902-8.6739-53.749 0-7.721 4.4865-11.483 10.4685-11.087 16.3508.297-5.3838 3.96-10.6679 11.087-14.8553z" fill="#a24011"/><path d="m187.739 63.467341v2.8685l14.149 8.1108v-2.7695z" fill="#f16822"/><path d="m201.888 71.676941v2.7695l5.046-2.8684-.099-2.8685z" fill="#f16822"/><path d="m205.252 73.655341v2.8685l3.463-2.0772v-2.8685z" fill="#fff"/><path d="m201.987 75.534641v2.8685l3.265-1.8793v-2.8685z" fill="#fff"/><path d="m201.591 75.732541v2.8685l.396-.1978v-2.8685z" fill="#fff"/><path d="m192.686 70.588941.099 2.8685 8.806 5.1434v-2.8684z" fill="#fff"/><path d="m187.64 76.128241v2.8684l.099-12.6608v-2.8685z" fill="#f16822"/><path d="m165.872 76.127941v2.8685h21.768v-2.8685z" fill="#f16822"/><path d="m192.686 76.128041v2.8685l.099-5.5391-.099-2.8685z" fill="#fff"/><path d="m178.141 78.996641v2.8685h9.499v-2.8685z" fill="#fff"/><path d="m187.64 78.996641v2.8685h5.046v-2.8685z" fill="#fff"/><path d="m178.141 78.996641v2.8685l8.905 5.1434-.099-2.8684z" fill="#f16822"/><path d="m174.875 87.206241v2.8684l5.047-2.9673v-2.8685z" fill="#f16822"/><path d="m165.872 76.127941v2.8685l14.05 8.1109v-2.8685z" fill="#fff"/><path d="m185.166 85.227741v2.8685l1.88-1.0881-.099-2.8684z" fill="#fff"/><path d="m183.286 86.316141.099 2.7696 1.781-.9892v-2.8685z" fill="#fff"/><path d="m168.84 65.148641c-9.301 5.3413-9.4 14.1445-.099 19.4858.099 0 .099.099.198.099.099.0989.198.0989.198.0989.099.0989.198.0989.198.0989 1.682.8902 3.562 1.6815 5.541 2.275l5.046-2.8685-14.051-8.2098h21.867l.099-12.6608 14.051 8.2097 5.046-2.8684c-.989-1.0881-2.276-2.1761-3.76-3.1652-.099-.099-.099-.099-.198-.099-.099-.0989-.198-.0989-.198-.0989-.099-.0989-.198-.0989-.297-.0989-9.301-5.5391-24.34-5.5391-33.641-.1978z" fill="#f16822"/><path d="m165.872 76.128241 14.05 8.2097-5.046 2.8685c1.583.4946 3.265.7913 5.046 1.088l3.463-1.9782 1.781-1.0881 1.781-1.088-8.905-5.1435h9.499 5.046v-2.8684-5.5392l8.905 5.1435.396-.1978 3.265-1.8794 3.463-1.9782c-.396-.9892-.989-1.9783-1.781-2.8685l-5.046 2.8685-14.05-8.2098-.099 12.6609z" fill="#fff"/><path d="m179.922 88.294241v2.8685l3.463-2.0772-.099-2.7696z" fill="#fff"/><path d="m174.876 87.206441v2.8685c-1.979-.5935-3.76-1.2859-5.541-2.275 0 0-.099-.0989-.198-.0989 0 0-.099 0-.198-.0989-.099 0-.099-.0989-.198-.0989-4.552-2.6707-6.926-6.1326-6.926-9.6935v-2.8685c0 3.462 2.275 7.0228 6.926 9.6935.099 0 .099.0989.198.0989.099.0989.198.0989.198.0989.099.0989.198.0989.198.0989 1.781.9892 3.562 1.6815 5.541 2.275zm0 2.8685c1.583.4946 3.265.7913 5.046 1.088v-2.8684c-1.682-.1979-3.364-.5935-5.046-1.0881zm34.532-15.2326c0 3.5609-2.375 7.1217-7.025 9.7924-6.135 3.5609-14.644 4.7478-22.461 3.6598v2.8684c7.817 1.0881 16.326-.0989 22.461-3.6597 4.65-2.6707 7.025-6.2316 7.025-9.7924z" fill="#d84b0e"/><path d="m178.141 78.996541 8.905 5.1435-1.781 1.088-1.781 1.088-3.463 1.9783c7.817 1.088 16.326-.0989 22.461-3.6598 6.134-3.5608 8.212-8.5065 6.332-12.9576l-3.463 1.9783-3.265 1.8793-.495.1979-8.905-5.1435v5.5391 2.8685h-5.046z" fill="#f16822"/><path d="m228.555 62.436841h-1.084c-1.675-4.4943-5.519-8.689-11.432-12.1845-16.654-9.78755-43.755-9.78755-60.509 0-5.617 3.2958-9.362 7.1908-11.136 11.3855h-1.379v5.5929c-.296 6.6915 3.843 13.3829 12.515 18.4764 16.655 9.7876 43.756 9.7876 60.509 0 8.377-4.8937 12.516-11.2856 12.516-17.6774z" fill="#ff7d3a"/><path d="m228.555 61.699541h-1.084c-1.675-4.4943-5.519-8.689-11.432-12.1845-16.654-9.78755-43.755-9.78755-60.509 0-5.617 3.2958-9.362 7.1908-11.136 11.3855h-1.379v5.5929c-.296 6.6914 3.843 13.3829 12.515 18.4764 16.655 9.7876 43.756 9.7876 60.509 0 8.377-4.8937 12.516-11.2856 12.516-17.6775z" fill="#ff7d3a"/><path d="m227.565 61.911641c-.099-.1972-.099-.2958-.198-.4931v-3.5507h-2.278v-.2959c-.594-.789-1.188-1.4794-1.881-2.2684v2.4657h-1.288v-3.7479c-.594-.4932-1.287-1.085-1.881-1.5781v5.326h-1.287v-6.2137c-.594-.3945-1.288-.8876-1.882-1.2822v7.4959h-1.287v-8.2849c-.594-.3945-1.287-.6904-1.98-.9863v9.2712h-1.288v-9.863c-.594-.2959-1.287-.5917-1.98-.789v10.652h-1.287v-8.6794h-1.981v8.6794h-1.287v-6.3123h-1.981v6.3123h-1.287v-3.9452h-1.98v3.9452h-1.288v-1.5781h-1.98v1.5781h-23.666v-1.5781h-1.981v1.5781h-1.287v-3.9452h-1.98v3.9452h-.991v-6.3123h-1.98v6.3123h-1.287v-8.6794h-1.981v8.6794h-1.287v-10.652c-.693.2959-1.287.5918-1.98.789v9.863h-1.288v-9.2712c-.693.2959-1.287.6904-1.98.9863v8.2849h-1.089v-7.4959c-.694.3946-1.288.7891-1.882 1.2822v6.3123h-1.287v-5.326c-.693.4932-1.287 1.085-1.882 1.5781v3.7479h-1.287v-2.5643c-.693.6904-1.386 1.4794-1.881 2.2684v.2959h-2.278v3.3534h-.99v9.1726c.297 1.6767.99 3.2548 1.881 4.8328v-5.7205h1.288v7.6931c.594.7891 1.188 1.4795 1.881 2.2685v-9.9616h1.287v11.1452c.595.4931 1.288 1.0849 1.882 1.578v-12.7232h1.287v13.7095c.594.3946 1.287.8877 1.882 1.2822v-14.8931h1.287v15.6822c.594.3945 1.287.6904 1.98.9862v-16.6684h1.288v17.1616c.594.2959 1.287.5918 1.98.789v-18.1478h1.287v18.641c.594.1972 1.288.4931 1.981.6904v-19.3314h1.287v19.7259c.594.1973 1.287.3945 1.98.5918v-20.2191h1.288v20.6136c.693.1973 1.287.2959 1.98.4931v-21.0081h1.287v21.304c.694.0987 1.288.1973 1.981.3946v-21.5999h1.287v21.7971c.693.0986 1.287.1973 1.981.2959v-22.093h1.188v21.9944c.693.0986 1.287.0986 1.98.1972v-22.3889h1.189v22.4876c.693 0 1.287.0986 1.98.0986v-22.5862h1.188v22.5862h1.981v-22.5862h1.188v22.5862c.693 0 1.287 0 1.98-.0986v-22.4876h1.189v22.3889c.693 0 1.287-.0986 1.98-.1972v-22.1917h1.188v22.093c.693-.0986 1.288-.1972 1.981-.2958v-21.7972h1.287v21.5999c.693-.0986 1.287-.1973 1.98-.3945v-21.304h1.288v21.0081c.693-.0986 1.287-.2959 1.98-.4932v-20.6135h1.288v20.4163c.693-.1973 1.287-.3945 1.98-.5918v-19.7259h1.287v19.3314c.693-.1973 1.287-.4932 1.981-.6904v-18.641h1.287v18.0492c.693-.2959 1.287-.5918 1.98-.789v-17.2602h1.288v16.6684c.693-.2959 1.287-.6904 1.98-.9863v-15.6821h1.287v14.8931c.694-.3946 1.288-.7891 1.882-1.2822v-13.7095h1.287v12.7232c.693-.4932 1.287-1.085 1.881-1.5781v-11.1451h1.288v9.8629c.693-.6904 1.386-1.4794 1.881-2.2685v-7.6931h1.287v5.7205c.892-1.578 1.585-3.2547 1.882-4.9314v-8.3835z" fill="url(#ad)" opacity=".48"/><path d="m185.777 86.412141c23.626 0 42.778-11.0584 42.778-24.6995s-19.152-24.6994-42.778-24.6994c-23.625 0-42.777 11.0583-42.777 24.6994s19.152 24.6995 42.777 24.6995z" fill="url(#ae)"/><path d="m159.278 47.963341c14.847-8.67386 38.901-8.67386 53.749 0 7.127 4.0877 10.789 9.4715 11.086 14.8553.297-5.8823-3.366-11.8643-11.086-16.35077-14.848-8.673883-38.902-8.673883-53.749 0-7.721 4.48647-11.483 10.46847-11.087 16.35077.297-5.3838 3.96-10.6679 11.087-14.8553z" fill="#a24011"/><path d="m187.739 50.467341v2.8685l14.149 8.1108v-2.7695z" fill="#f16822"/><path d="m201.888 58.676941v2.7695l5.046-2.8684-.099-2.8685z" fill="#f16822"/><path d="m205.252 60.655341v2.8685l3.463-2.0772v-2.8685z" fill="#fff"/><path d="m201.987 62.534641v2.8685l3.265-1.8793v-2.8685z" fill="#fff"/><path d="m201.591 62.732541v2.8685l.396-.1978v-2.8685z" fill="#fff"/><path d="m192.686 57.588941.099 2.8685 8.806 5.1434v-2.8684z" fill="#fff"/><path d="m187.64 63.128241v2.8684l.099-12.6608v-2.8685z" fill="#f16822"/><path d="m165.872 63.127941v2.8685h21.768v-2.8685z" fill="#f16822"/><path d="m192.686 63.128041v2.8685l.099-5.5391-.099-2.8685z" fill="#fff"/><path d="m178.141 65.996641v2.8685h9.499v-2.8685z" fill="#fff"/><path d="m187.64 65.996641v2.8685h5.046v-2.8685z" fill="#fff"/><path d="m178.141 65.996641v2.8685l8.905 5.1434-.099-2.8684z" fill="#f16822"/><path d="m174.875 74.206241v2.8684l5.047-2.9673v-2.8685z" fill="#f16822"/><path d="m165.872 63.127941v2.8685l14.05 8.1109v-2.8685z" fill="#fff"/><path d="m185.166 72.227741v2.8685l1.88-1.0881-.099-2.8684z" fill="#fff"/><path d="m183.286 73.316141.099 2.7696 1.781-.9892v-2.8685z" fill="#fff"/><path d="m168.84 52.148641c-9.301 5.3413-9.4 14.1445-.099 19.4858.099 0 .099.099.198.099.099.0989.198.0989.198.0989.099.0989.198.0989.198.0989 1.682.8902 3.562 1.6815 5.541 2.275l5.046-2.8685-14.051-8.2098h21.867l.099-12.6608 14.051 8.2097 5.046-2.8684c-.989-1.0881-2.276-2.1761-3.76-3.1652-.099-.099-.099-.099-.198-.099-.099-.0989-.198-.0989-.198-.0989-.099-.0989-.198-.0989-.297-.0989-9.301-5.53911-24.34-5.53911-33.641-.1978z" fill="#f16822"/><path d="m165.872 63.128241 14.05 8.2097-5.046 2.8685c1.583.4946 3.265.7913 5.046 1.088l3.463-1.9782 1.781-1.0881 1.781-1.088-8.905-5.1435h9.499 5.046v-2.8684-5.5392l8.905 5.1435.396-.1978 3.265-1.8794 3.463-1.9782c-.396-.9892-.989-1.9783-1.781-2.8685l-5.046 2.8685-14.05-8.2098-.099 12.6609z" fill="#fff"/><path d="m179.922 75.294241v2.8685l3.463-2.0772-.099-2.7696z" fill="#fff"/><path d="m174.876 74.206441v2.8685c-1.979-.5935-3.76-1.2859-5.541-2.275 0 0-.099-.0989-.198-.0989 0 0-.099 0-.198-.0989-.099 0-.099-.0989-.198-.0989-4.552-2.6707-6.926-6.1326-6.926-9.6935v-2.8685c0 3.462 2.275 7.0228 6.926 9.6935.099 0 .099.0989.198.0989.099.0989.198.0989.198.0989.099.0989.198.0989.198.0989 1.781.9892 3.562 1.6815 5.541 2.275zm0 2.8685c1.583.4946 3.265.7913 5.046 1.088v-2.8684c-1.682-.1979-3.364-.5935-5.046-1.0881zm34.532-15.2326c0 3.5609-2.375 7.1217-7.025 9.7924-6.135 3.5609-14.644 4.7478-22.461 3.6598v2.8684c7.817 1.0881 16.326-.0989 22.461-3.6597 4.65-2.6707 7.025-6.2316 7.025-9.7924z" fill="#d84b0e"/><path d="m178.141 65.996541 8.905 5.1435-1.781 1.088-1.781 1.088-3.463 1.9783c7.817 1.088 16.326-.0989 22.461-3.6598 6.134-3.5608 8.212-8.5065 6.332-12.9576l-3.463 1.9783-3.265 1.8793-.495.1979-8.905-5.1435v5.5391 2.8685h-5.046z" fill="#f16822"/></svg>