<svg fill="none" height="183" viewBox="0 0 316 183" width="316" xmlns="http://www.w3.org/2000/svg" xmlns:xlink="http://www.w3.org/1999/xlink"><linearGradient id="a"><stop offset="0" stop-color="#f16822"/><stop offset="1" stop-color="#d84b0e"/></linearGradient><linearGradient id="b" gradientUnits="userSpaceOnUse" x1="-.345668" x2="315.646" xlink:href="#a" y1="91.5065" y2="91.5065"/><linearGradient id="c"><stop offset="0" stop-color="#f17922"/><stop offset="1" stop-color="#d74608"/></linearGradient><linearGradient id="d" gradientUnits="userSpaceOnUse" x1="247.99" x2="208.055" xlink:href="#c" y1="68.9588" y2="107.109"/><linearGradient id="e"><stop offset="0" stop-color="#fff"/><stop offset="1" stop-color="#b9b9b9"/></linearGradient><linearGradient id="f" gradientUnits="userSpaceOnUse" x1="192.406" x2="227.826" xlink:href="#e" y1="48.4624" y2="83.1997"/><linearGradient id="g" gradientUnits="userSpaceOnUse" x1="221.159" x2="222.112" xlink:href="#a" y1="40.3084" y2="66.4861"/><linearGradient id="h"><stop offset="0" stop-color="#f16822"/><stop offset="1" stop-color="#f16822" stop-opacity="0"/></linearGradient><linearGradient id="i" gradientUnits="userSpaceOnUse" x1="221.653" x2="221.653" xlink:href="#h" y1="62.8319" y2="25.5417"/><linearGradient id="j" gradientUnits="userSpaceOnUse" x1="113.99" x2="74.0554" xlink:href="#c" y1="68.9588" y2="107.109"/><linearGradient id="k" gradientUnits="userSpaceOnUse" x1="58.4064" x2="93.8257" xlink:href="#e" y1="48.4624" y2="83.1997"/><linearGradient id="l" gradientUnits="userSpaceOnUse" x1="87.1591" x2="88.1121" xlink:href="#a" y1="40.3084" y2="66.4861"/><linearGradient id="m" gradientUnits="userSpaceOnUse" x1="87.6528" x2="87.6528" xlink:href="#h" y1="62.8319" y2="25.5417"/><linearGradient id="n" gradientUnits="userSpaceOnUse" x1="126.097" x2="182.074" xlink:href="#e" y1="102.301" y2="123.476"/><linearGradient id="o" gradientUnits="userSpaceOnUse" x1="128.607" x2="157.703" xlink:href="#c" y1="79.1471" y2="116.224"/><linearGradient id="p" gradientUnits="userSpaceOnUse" x1="154.801" x2="154.801" xlink:href="#h" y1="99.8369" y2="62.5465"/><path d="m143.125 161.208-107.0851-61.218c-7.509-4.2107-6.5295-11.9844 2.2854-16.843l102.8407-58.9505c8.815-5.1825 22.2-5.5064 29.709-1.2956l107.085 61.2178c7.509 4.2108 6.53 11.9845-2.285 16.8433l-102.841 58.95c-8.815 4.859-22.2 5.507-29.709 1.296z" fill="#4d4d4d" opacity=".6"/><path d="m156.62 183c-6.21 0-12.074-1.377-16.559-3.787l-133.16144-76.767c-4.48471-2.754-6.89956-6.1965-6.89956-10.3274 0-4.8195 3.44978-9.639 9.65939-13.0815l127.98661-73.66905c11.385-6.54071 28.288-7.22918 38.293-1.37697l133.161 76.76732c4.485 2.754 6.9 6.1964 6.9 10.3274 0 4.8195-3.45 9.6392-9.659 13.0812l-128.332 73.669c-6.21 3.443-13.799 5.164-21.389 5.164zm-15.524-6.196c8.97 5.163 25.183 4.475 35.533-1.378l127.987-73.669c5.174-3.0978 8.279-6.8845 8.279-11.0155 0-3.0982-2.07-5.8522-5.864-7.9177l-133.162-76.76721c-8.969-5.163716-25.183-4.47524-35.533 1.37697l-127.6417 73.66904c-5.17465 3.0982-8.27946 6.885-8.27946 11.016 0 3.0982 2.06987 5.8521 5.86463 7.9174z" fill="url(#b)"/><path d="m223.623 44.0155 28.704-17.0576c1.419-.9477 1.262-2.3692-.473-3.3168l-26.338-14.84648c-1.735-.94765-4.416-1.10559-5.836-.15794l-28.703 17.05762c-1.42.9477-1.262 2.3692.473 3.3168l26.338 14.8465c1.735.9476 4.416 1.1056 5.835.1579z" fill="#f16822" opacity=".5"/><path d="m191.449 29.0111 26.338 14.8465c1.735.9476 4.416 1.1056 5.835.1579l28.704-17.0577c.631-.3158.946-.9476.946-1.4214v18.1632c0 .4739-.315 1.1056-.946 1.4215l-28.704 17.0577c-1.419.9476-4.1.7897-5.835-.158l-26.338-14.8465c-.947-.6317-1.42-1.2635-1.42-2.0532v-18.1633c0 .7898.473 1.5795 1.42 2.0533z" fill="#f16822" opacity=".4"/><path d="m190.03 95.9733.157-30.0088 63.243-1.2636-.158 29.5351c.158.6317 0 1.4214-.946 1.8953l-28.704 17.0577c-1.419.948-4.1.79-5.835-.158l-26.338-15.0044c-1.104-.6318-1.577-1.2636-1.419-2.0533z" fill="url(#d)"/><path d="m223.78 82.7062 28.704-17.0576c1.419-.9477 1.261-2.3692-.473-3.3168l-26.338-14.8465c-1.735-.9477-4.416-1.1056-5.836-.1579l-28.704 17.0576c-1.419.9477-1.261 2.3691.474 3.3168l26.338 14.8465c1.735.9476 4.416.9476 5.835.1579z" fill="#ff9863"/><path d="m190.03 58.0675v-12.9512l21.291-.4738 8.359-5.0542c1.419-.9476 4.1-.7897 5.835.158l7.57 4.2644 20.187-.4738v12.9512c0 .4738-.315 1.1056-.946 1.4215l-28.704 17.0576c-1.419.9477-4.1.7897-5.835-.1579l-26.338-14.6886c-1.104-.6317-1.577-1.2635-1.419-2.0532z" fill="url(#f)"/><path d="m223.622 62.174 28.704-17.0577c1.419-.9476 1.262-2.3691-.473-3.3167l-26.338-14.8465c-1.735-.9477-4.416-1.1056-5.836-.158l-28.703 17.0577c-1.42.9477-1.262 2.3691.473 3.3168l26.338 14.8465c1.735.9476 4.416.9476 5.835.1579z" fill="#ff9863"/><path d="m222.676 54.9088 17.664-10.4241c.946-.4738.788-1.4215-.316-2.0533l-16.244-9.1606c-1.104-.6317-2.681-.6317-3.627-.1579l-17.664 10.4241c-.947.4739-.789 1.4215.315 2.0533l16.245 9.1606c1.104.6318 2.838.7897 3.627.1579z" fill="url(#g)"/><path d="m240.34 44.4847-2.997 1.7373-13.563-7.5811c-1.104-.6318-2.681-.6318-3.627-.158l-14.668 8.6868-2.681-1.4215c-1.104-.6317-1.262-1.5794-.315-2.0532l17.821-10.4241c.947-.4739 2.524-.4739 3.628.1579l16.244 9.1606c.946.4738 1.104 1.4215.158 1.8953z" fill="#d84b0e"/><path d="m191.449 29.0062 26.338 14.8465c1.735.9476 4.416 1.1056 5.835.1579l28.704-17.0576c.631-.3159.946-.9477.946-1.4215v18.1632c0 .4739-.315 1.1056-.946 1.4215l-28.704 17.0577c-1.419.9476-4.1.7897-5.835-.158l-26.338-14.8464c-.946-.6318-1.419-1.2636-1.419-2.0533v-18.1632c0 .7897.473 1.5794 1.419 2.0532z" fill="url(#i)" opacity=".4"/><path d="m89.6233 44.0155 28.7037-17.0576c1.419-.9477 1.262-2.3692-.473-3.3168l-26.3381-14.84648c-1.7349-.94765-4.416-1.10559-5.8354-.15794l-28.7038 17.05762c-1.4194.9477-1.2617 2.3692.4732 3.3168l26.338 14.8465c1.7349.9476 4.416 1.1056 5.8354.1579z" fill="#f16822" opacity=".5"/><path d="m57.449 29.0111 26.338 14.8465c1.7349.9476 4.416 1.1056 5.8354.1579l28.7036-17.0577c.631-.3158.946-.9476.946-1.4214v18.1632c0 .4739-.315 1.1056-.946 1.4215l-28.7036 17.0577c-1.4194.9476-4.1005.7897-5.8354-.158l-26.338-14.8465c-.9463-.6317-1.4194-1.2635-1.4194-2.0532v-18.1633c0 .7898.4731 1.5795 1.4194 2.0533z" fill="#f16822" opacity=".4"/><path d="m56.0296 95.9733.1576-30.0088 63.2428-1.2636-.158 29.5351c.158.6317 0 1.4214-.946 1.8953l-28.7036 17.0577c-1.4194.948-4.1005.79-5.8354-.158l-26.338-15.0044c-1.104-.6318-1.5772-1.2636-1.4194-2.0533z" fill="url(#j)"/><path d="m89.7801 82.7062 28.7039-17.0576c1.419-.9477 1.261-2.3692-.473-3.3168l-26.3384-14.8465c-1.7348-.9477-4.416-1.1056-5.8354-.1579l-28.7037 17.0576c-1.4194.9477-1.2617 2.3691.4731 3.3168l26.3381 14.8465c1.7348.9476 4.4159.9476 5.8354.1579z" fill="#ff9863"/><path d="m56.0296 58.0675v-12.9512l21.2912-.4738 8.3588-5.0542c1.4194-.9476 4.1005-.7897 5.8354.158l7.5702 4.2644 20.1868-.4738v12.9512c0 .4738-.315 1.1056-.946 1.4215l-28.7036 17.0576c-1.4194.9477-4.1005.7897-5.8354-.1579l-26.338-14.6886c-1.104-.6317-1.5771-1.2635-1.4194-2.0532z" fill="url(#k)"/><path d="m89.6223 62.174 28.7037-17.0577c1.419-.9476 1.262-2.3691-.473-3.3167l-26.3381-14.8465c-1.7349-.9477-4.416-1.1056-5.8354-.158l-28.7038 17.0577c-1.4194.9477-1.2617 2.3691.4732 3.3168l26.338 14.8465c1.7349.9476 4.416.9476 5.8354.1579z" fill="#ff9863"/><path d="m88.6762 54.9088 17.6638-10.4241c.946-.4738.789-1.4215-.315-2.0533l-16.2448-9.1606c-1.104-.6317-2.6811-.6317-3.6274-.1579l-17.6638 10.4241c-.9463.4739-.7886 1.4215.3154 2.0533l16.2444 9.1606c1.104.6318 2.8389.7897 3.6274.1579z" fill="url(#l)"/><path d="m106.34 44.4847-2.997 1.7373-13.563-7.5811c-1.104-.6318-2.6812-.6318-3.6274-.158l-14.6674 8.6868-2.6811-1.4215c-1.104-.6317-1.2617-1.5794-.3154-2.0532l17.8216-10.4241c.9463-.4739 2.5234-.4739 3.6274.1579l16.2443 9.1606c.946.4738 1.104 1.4215.158 1.8953z" fill="#d84b0e"/><path d="m57.449 29.0062 26.338 14.8465c1.7349.9476 4.416 1.1056 5.8354.1579l28.7036-17.0576c.631-.3159.946-.9477.946-1.4215v18.1632c0 .4739-.315 1.1056-.946 1.4215l-28.7036 17.0577c-1.4194.9476-4.1005.7897-5.8354-.158l-26.338-14.8464c-.9463-.6318-1.4194-1.2636-1.4194-2.0533v-18.1632c0 .7897.4731 1.5794 1.4194 2.0532z" fill="url(#m)" opacity=".4"/><path d="m186.57 132.978-.158-30.009-63.243-1.263.158 29.535c-.158.632 0 1.421.946 1.895l28.704 17.058c1.42.948 4.101.79 5.836-.158l26.338-14.847c.946-.789 1.419-1.421 1.419-2.211z" fill="url(#n)"/><path d="m152.662 119.711-28.704-17.058c-1.419-.947-1.262-2.369.473-3.3163l26.338-14.8465c1.735-.9477 4.416-1.1056 5.836-.158l28.703 17.0578c1.42.948 1.262 2.369-.473 3.317l-26.338 14.846c-1.735.948-4.258.948-5.835.158z" fill="#8d8d8d"/><path d="m186.57 95.0724v-12.9512l-21.291-.4739-8.359-5.0541c-1.419-.9476-4.101-.7897-5.835.158l-7.728 4.4223-20.188-.4738v12.9512c0 .4738.316 1.1056.947 1.4215l28.703 17.0576c1.42.948 4.101.79 5.836-.158l26.338-14.8464c1.104-.6318 1.577-1.2635 1.577-2.0532z" fill="url(#o)"/><path d="m152.82 99.1789-28.704-17.0577c-1.42-.9476-1.262-2.3691.473-3.3168l26.338-14.8464c1.735-.9477 4.416-1.1056 5.835-.158l28.704 17.0577c1.42.9476 1.262 2.3691-.473 3.3167l-26.338 14.8466c-1.735.9476-4.416.9476-5.835.1579z" fill="#8d8d8d"/><path d="m153.766 91.9135-17.664-10.4242c-.946-.4738-.789-1.4215.315-2.0532l16.245-9.1606c1.104-.6318 2.681-.6318 3.627-.158l17.664 10.4242c.946.4738.788 1.4214-.316 2.0532l-16.244 9.1606c-1.104.6318-2.681.7897-3.627.158z" fill="#f3f3f3"/><path d="m136.102 81.6473 2.996 1.7373 13.564-7.5811c1.104-.6318 2.681-.6318 3.627-.158l14.667 8.6868 2.681-1.4215c1.104-.6317 1.262-1.5794.316-2.0532l-17.664-10.4242c-.946-.4738-2.523-.4738-3.627.158l-16.245 9.1606c-1.104.3159-1.261 1.2635-.315 1.8953z" fill="#d9d9d9"/><path d="m152.819 81.0155-28.704-17.0576c-1.42-.9477-1.262-2.3692.473-3.3168l26.338-14.8465c1.735-.9476 4.416-1.1056 5.835-.1579l28.704 17.0576c1.42.9477 1.262 2.3691-.473 3.3168l-26.338 14.8465c-1.735.9476-4.416 1.1056-5.835.1579z" fill="#fff" opacity=".5"/><path d="m184.993 66.0111-26.338 14.8465c-1.735.9477-4.416 1.1056-5.836.1579l-28.703-17.0576c-.631-.3159-.947-.9477-.947-1.4215v18.1633c0 .4738.316 1.1056.947 1.4214l28.703 17.0577c1.42.9472 4.101.7897 5.836-.1579l26.338-14.8465c.946-.6318 1.419-1.2636 1.419-2.0533v-18.1632c.158.7897-.473 1.5794-1.419 2.0532z" fill="url(#p)" opacity=".4"/><path d="m184.993 66.0111-26.338 14.8465c-1.735.9477-4.416 1.1056-5.836.1579l-28.703-17.0576c-.631-.3159-.947-.9477-.947-1.4215v18.1633c0 .4738.316 1.1056.947 1.4214l28.703 17.0577c1.42.9472 4.101.7897 5.836-.1579l26.338-14.8465c.946-.6318 1.419-1.2636 1.419-2.0533v-18.1632c.158.7897-.473 1.5794-1.419 2.0532z" fill="#e1e1e1" opacity=".4"/></svg>