<?xml version="1.0" encoding="UTF-8" standalone="no"?>
<svg
   fill="none"
   height="449.3822"
   viewBox="0 0 666.76923 449.3822"
   width="666.76923"
   version="1.1"
   id="svg160"
   xmlns:xlink="http://www.w3.org/1999/xlink"
   xmlns="http://www.w3.org/2000/svg"
   xmlns:svg="http://www.w3.org/2000/svg">
  <defs
     id="defs160">
    <clipPath
       clipPathUnits="userSpaceOnUse"
       id="clipPath161">
      <rect
         style="fill:#000000;stroke-width:0.995298"
         id="rect161"
         width="666.76923"
         height="449.3822"
         x="66.481392"
         y="0.88167709"
         rx="10" />
    </clipPath>
  </defs>
  <linearGradient
     id="a">
    <stop
       offset="0"
       stop-color="#fff"
       id="stop1" />
    <stop
       offset="1"
       stop-color="#b9b9b9"
       id="stop2" />
  </linearGradient>
  <linearGradient
     id="b"
     gradientUnits="userSpaceOnUse"
     x1="310.93011"
     x2="244.08063"
     xlink:href="#a"
     y1="195.41934"
     y2="260.74734"
     gradientTransform="translate(-66.481392,-0.88167709)" />
  <linearGradient
     id="c">
    <stop
       offset="0"
       stop-color="#d5d5d5"
       id="stop3" />
    <stop
       offset="1"
       stop-color="#6b6b6b"
       id="stop4" />
  </linearGradient>
  <linearGradient
     id="d"
     gradientUnits="userSpaceOnUse"
     x1="313.29813"
     x2="198.41125"
     xlink:href="#c"
     y1="219.11034"
     y2="216.14136"
     gradientTransform="translate(-66.481392,-0.88167709)" />
  <linearGradient
     id="e"
     gradientUnits="userSpaceOnUse"
     x1="227.63123"
     x2="283.66675"
     xlink:href="#c"
     y1="232.94633"
     y2="192.18735"
     gradientTransform="translate(-66.481392,-0.88167709)" />
  <linearGradient
     id="f">
    <stop
       offset="0"
       stop-color="#fff"
       id="stop5" />
    <stop
       offset=".9996"
       stop-color="#fff"
       stop-opacity="0"
       id="stop6" />
  </linearGradient>
  <linearGradient
     id="g"
     gradientUnits="userSpaceOnUse"
     x1="256.59073"
     x2="252.35834"
     xlink:href="#f"
     y1="187.04333"
     y2="232.97133"
     gradientTransform="translate(-66.481392,-0.88167709)" />
  <linearGradient
     id="h"
     gradientUnits="userSpaceOnUse"
     x1="294.03812"
     x2="220.39963"
     xlink:href="#c"
     y1="214.56534"
     y2="213.03734"
     gradientTransform="translate(-66.481392,-0.88167709)" />
  <linearGradient
     id="i"
     gradientUnits="userSpaceOnUse"
     x1="256.81683"
     x2="256.81683"
     xlink:href="#f"
     y1="181.66135"
     y2="231.17336"
     gradientTransform="translate(-66.481392,-0.88167709)" />
  <linearGradient
     id="j">
    <stop
       offset="0"
       stop-color="#f16822"
       id="stop7" />
    <stop
       offset="1"
       stop-color="#d84b0e"
       id="stop8" />
  </linearGradient>
  <linearGradient
     id="k"
     gradientUnits="userSpaceOnUse"
     x1="281.68292"
     x2="210.90112"
     xlink:href="#j"
     y1="172.49445"
     y2="169.24074"
     gradientTransform="translate(-66.481392,-0.88167709)" />
  <linearGradient
     id="l"
     gradientUnits="userSpaceOnUse"
     x1="281.68292"
     x2="210.87563"
     xlink:href="#j"
     y1="164.39764"
     y2="161.43434"
     gradientTransform="translate(-66.481392,-0.88167709)" />
  <linearGradient
     id="m">
    <stop
       offset="0"
       stop-color="#f16822"
       id="stop9" />
    <stop
       offset="1"
       stop-color="#f16822"
       stop-opacity="0"
       id="stop10" />
  </linearGradient>
  <linearGradient
     id="n"
     gradientUnits="userSpaceOnUse"
     x1="255.35052"
     x2="255.35052"
     xlink:href="#m"
     y1="253.70235"
     y2="111.62734"
     gradientTransform="translate(-66.481392,-0.88167709)" />
  <linearGradient
     id="o"
     gradientUnits="userSpaceOnUse"
     x1="455.05112"
     x2="388.20212"
     xlink:href="#a"
     y1="195.41934"
     y2="260.74734"
     gradientTransform="translate(-66.481392,-0.88167709)" />
  <linearGradient
     id="p"
     gradientUnits="userSpaceOnUse"
     x1="457.4201"
     x2="342.53314"
     xlink:href="#c"
     y1="219.11034"
     y2="216.14136"
     gradientTransform="translate(-66.481392,-0.88167709)" />
  <linearGradient
     id="q"
     gradientUnits="userSpaceOnUse"
     x1="371.75314"
     x2="427.78812"
     xlink:href="#c"
     y1="232.94633"
     y2="192.18735"
     gradientTransform="translate(-66.481392,-0.88167709)" />
  <linearGradient
     id="r"
     gradientUnits="userSpaceOnUse"
     x1="400.71213"
     x2="396.48013"
     xlink:href="#f"
     y1="187.04333"
     y2="232.97133"
     gradientTransform="translate(-66.481392,-0.88167709)" />
  <linearGradient
     id="s"
     gradientUnits="userSpaceOnUse"
     x1="438.16013"
     x2="364.52112"
     xlink:href="#c"
     y1="214.56534"
     y2="213.03734"
     gradientTransform="translate(-66.481392,-0.88167709)" />
  <linearGradient
     id="t"
     gradientUnits="userSpaceOnUse"
     x1="400.93912"
     x2="400.93912"
     xlink:href="#f"
     y1="181.66135"
     y2="231.17336"
     gradientTransform="translate(-66.481392,-0.88167709)" />
  <linearGradient
     id="u"
     gradientUnits="userSpaceOnUse"
     x1="425.80511"
     x2="355.02313"
     xlink:href="#j"
     y1="172.49445"
     y2="169.24074"
     gradientTransform="translate(-66.481392,-0.88167709)" />
  <linearGradient
     id="v"
     gradientUnits="userSpaceOnUse"
     x1="425.80511"
     x2="354.99811"
     xlink:href="#j"
     y1="164.39764"
     y2="161.43434"
     gradientTransform="translate(-66.481392,-0.88167709)" />
  <linearGradient
     id="w"
     gradientUnits="userSpaceOnUse"
     x1="399.47214"
     x2="399.47214"
     xlink:href="#m"
     y1="254.70235"
     y2="112.62734"
     gradientTransform="translate(-66.481392,-0.88167709)" />
  <linearGradient
     id="x"
     gradientUnits="userSpaceOnUse"
     x1="599.17212"
     x2="532.32312"
     xlink:href="#a"
     y1="195.41934"
     y2="260.74734"
     gradientTransform="translate(-66.481392,-0.88167709)" />
  <linearGradient
     id="y"
     gradientUnits="userSpaceOnUse"
     x1="601.54114"
     x2="486.65414"
     xlink:href="#c"
     y1="219.11034"
     y2="216.14136"
     gradientTransform="translate(-66.481392,-0.88167709)" />
  <linearGradient
     id="z"
     gradientUnits="userSpaceOnUse"
     x1="515.87415"
     x2="571.90912"
     xlink:href="#c"
     y1="232.94633"
     y2="192.18735"
     gradientTransform="translate(-66.481392,-0.88167709)" />
  <linearGradient
     id="A"
     gradientUnits="userSpaceOnUse"
     x1="544.83313"
     x2="540.60114"
     xlink:href="#f"
     y1="187.04333"
     y2="232.97133"
     gradientTransform="translate(-66.481392,-0.88167709)" />
  <linearGradient
     id="B"
     gradientUnits="userSpaceOnUse"
     x1="582.28113"
     x2="508.64215"
     xlink:href="#c"
     y1="214.56534"
     y2="213.03734"
     gradientTransform="translate(-66.481392,-0.88167709)" />
  <linearGradient
     id="C"
     gradientUnits="userSpaceOnUse"
     x1="545.06012"
     x2="545.06012"
     xlink:href="#f"
     y1="181.66135"
     y2="231.17336"
     gradientTransform="translate(-66.481392,-0.88167709)" />
  <linearGradient
     id="D"
     gradientUnits="userSpaceOnUse"
     x1="570.00513"
     x2="499.22314"
     xlink:href="#j"
     y1="172.49445"
     y2="169.24074"
     gradientTransform="translate(-66.481392,-0.88167709)" />
  <linearGradient
     id="E"
     gradientUnits="userSpaceOnUse"
     x1="570.00513"
     x2="499.19815"
     xlink:href="#j"
     y1="164.39764"
     y2="161.43434"
     gradientTransform="translate(-66.481392,-0.88167709)" />
  <linearGradient
     id="F"
     gradientUnits="userSpaceOnUse"
     x1="543.59314"
     x2="543.59314"
     xlink:href="#m"
     y1="253.70235"
     y2="111.62734"
     gradientTransform="translate(-66.481392,-0.88167709)" />
  <radialGradient
     id="G"
     cx="0"
     cy="0"
     gradientTransform="matrix(317.42761,0.49669487,-0.22605134,144.46482,396.345,225.509)"
     gradientUnits="userSpaceOnUse"
     r="1"
     xlink:href="#m" />
  <path
     d="m 157.03264,231.52966 -12.2853,7.152 2.0586,1.203 12.2853,-7.152 z m -5.0469,-3.008 -12.3517,7.152 2.0586,1.204 12.2853,-7.153 z m -5.1134,-2.941 -12.28526,7.152 2.05861,1.203 12.28535,-7.152 z m 57.3757,16.176 12.2853,7.152 2.0586,-1.203 -12.2853,-7.152 z m 10.2267,-5.882 12.2853,7.152 2.0586,-1.203 -12.2853,-7.152 z m -5.1133,2.941 12.2853,7.152 2.0586,-1.203 -12.2853,-7.152 z m 10.1602,-5.949 12.2851,7.152 2.059,-1.203 -12.2855,-7.152 z m 5.1134,-2.941 12.2857,7.152 2.058,-1.203 -12.2851,-7.152 z m 10.1607,-5.882 12.285,7.152 2.058,-1.203 -12.285,-7.152 z m -5.114,2.941 12.286,7.152 2.058,-1.203 -12.285,-7.152 z m -30.4806,17.713 12.2853,7.152 2.0586,-1.203 -12.2853,-7.152 z m -39.1802,2.807 2.0586,1.204 12.2853,-7.153 -2.0586,-1.203 z m 7.2384,-10.093 -12.2853,7.152 2.0586,1.203 12.2853,-7.152 z m -5.1133,-2.941 -12.2853,7.152 2.0586,1.203 12.2853,-7.152 z"
     fill="#f16822"
     id="path10" />
  <path
     d="m 239.24574,206.73166 c -1.395,-0.802 -1.395,-2.139 0,-2.941 l -36.9889,-21.523 c -1.3945,0.802 -3.6524,0.802 -5.0469,0 -1.3946,-0.802 -1.3946,-2.139 0,-2.941 l -2.5899,-1.538 c -2.7891,-1.604 -7.3048,-1.604 -10.0939,0 l -52.4615,30.48 c -2.7891,1.605 -2.7891,4.278 0,5.882 l 2.58987,1.538 c 1.39455,-0.802 3.65239,-0.802 5.04693,0 1.3946,0.802 1.3946,2.139 0,2.941 l 37.0551,21.456 c 1.3946,-0.802 3.6524,-0.802 5.047,0 1.3945,0.802 1.3945,2.139 0,2.941 l 2.5898,1.537 c 2.7891,1.605 7.3048,1.605 10.0939,0 l 52.3955,-30.479 c 2.789,-1.605 2.789,-4.278 0,-5.882 l -2.59,-1.538 c -1.328,0.869 -3.653,0.869 -5.047,0.067 z"
     fill="url(#b)"
     id="path11"
     style="fill:url(#b)" />
  <path
     d="m 239.24474,206.73166 v -2.941 c -1.394,0.803 -1.394,2.139 0,2.941 z"
     fill="#4d4d4d"
     id="path12" />
  <path
     d="m 197.14274,182.26766 v -2.941 c -1.3945,0.802 -1.3945,2.139 0,2.941 z"
     fill="#4d4d4d"
     id="path13" />
  <path
     d="m 246.94974,214.01766 -52.3959,30.48 c -2.7892,1.604 -7.3049,1.604 -10.0941,0 l -2.5899,-1.537 c 1.3946,-0.803 1.3946,-2.139 0,-2.941 -1.3946,-0.803 -3.6524,-0.803 -5.047,0 l -37.1222,-21.524 c 1.3946,-0.802 1.3946,-2.138 0,-2.941 -1.39457,-0.802 -3.65245,-0.802 -5.04702,0 l -2.58992,-1.537 c -1.39457,-0.802 -2.12506,-1.871 -2.12506,-2.941 v 7.486 c 0,1.07 0.66408,2.139 2.12506,3.008 l 2.58992,1.538 c 1.39457,-0.803 3.65245,-0.803 5.04702,0 v 2.941 l 36.9894,21.523 c 1.3946,-0.802 3.6524,-0.802 5.047,0 v 2.941 l 2.5899,1.537 c 2.7892,1.604 7.3049,1.604 10.0941,0 l 52.3957,-30.48 c 1.395,-0.802 2.125,-1.871 2.125,-3.008 v -7.486 c 0.067,1.07 -0.597,2.139 -1.992,2.941 z"
     fill="url(#d)"
     id="path14"
     style="fill:url(#d)" />
  <g
     fill="#4d4d4d"
     id="g24"
     transform="translate(-66.481392,-0.88167709)">
    <path
       d="m 204.18958,209.15034 c 0.46485,0.268 0.46485,0.736 0,1.003 -0.46485,0.267 -1.19532,0.267 -1.66017,0 -0.46485,-0.267 -0.46485,-0.735 0,-1.003 0.46485,-0.267 1.19532,-0.267 1.66017,0 z"
       id="path15" />
    <path
       d="m 207.11143,207.47934 c 0.4649,0.268 0.4649,0.736 0,1.003 -0.4648,0.267 -1.1953,0.267 -1.66015,0 -0.46485,-0.267 -0.46485,-0.735 0,-1.003 0.46485,-0.267 1.19535,-0.267 1.66015,0 z"
       id="path16" />
    <path
       d="m 210.03333,205.74234 c 0.4649,0.267 0.4649,0.735 0,1.002 -0.4648,0.268 -1.1953,0.268 -1.6602,0 -0.4648,-0.267 -0.4648,-0.735 0,-1.002 0.3985,-0.268 1.1954,-0.268 1.6602,0 z"
       id="path17" />
    <path
       d="m 212.95523,204.07034 c 0.4648,0.268 0.4648,0.735 0,1.003 -0.4649,0.267 -1.1953,0.267 -1.6602,0 -0.4648,-0.268 -0.4648,-0.735 0,-1.003 0.3984,-0.267 1.1953,-0.267 1.6602,0 z"
       id="path18" />
    <path
       d="m 215.87713,202.39934 c 0.4648,0.268 0.4648,0.736 0,1.003 -0.4649,0.267 -1.1954,0.267 -1.6602,0 -0.4649,-0.267 -0.4649,-0.735 0,-1.003 0.4648,-0.267 1.1953,-0.267 1.6602,0 z"
       id="path19" />
    <path
       d="m 297.69013,220.84834 c 0.465,0.267 0.465,0.735 0,1.002 -0.464,0.268 -1.195,0.268 -1.66,0 -0.465,-0.267 -0.465,-0.735 0,-1.002 0.465,-0.268 1.196,-0.268 1.66,0 z"
       id="path20" />
    <path
       d="m 300.61213,219.11034 c 0.465,0.267 0.465,0.735 0,1.002 -0.465,0.268 -1.195,0.268 -1.66,0 -0.465,-0.267 -0.465,-0.735 0,-1.002 0.465,-0.268 1.195,-0.268 1.66,0 z"
       id="path21" />
    <path
       d="m 303.53413,217.43834 c 0.465,0.268 0.465,0.736 0,1.003 -0.465,0.267 -1.195,0.267 -1.66,0 -0.465,-0.267 -0.465,-0.735 0,-1.003 0.398,-0.267 1.195,-0.267 1.66,0 z"
       id="path22" />
    <path
       d="m 306.45613,215.76734 c 0.465,0.268 0.465,0.736 0,1.003 -0.465,0.267 -1.195,0.267 -1.66,0 -0.465,-0.267 -0.465,-0.735 0,-1.003 0.398,-0.267 1.195,-0.267 1.66,0 z"
       id="path23" />
    <path
       d="m 309.37813,214.03034 c 0.465,0.267 0.465,0.735 0,1.002 -0.465,0.268 -1.195,0.268 -1.66,0 -0.465,-0.267 -0.465,-0.735 0,-1.002 0.398,-0.268 1.195,-0.268 1.66,0 z"
       id="path24" />
  </g>
  <path
     d="m 202.12294,188.68466 -5.6446,-3.275 c -3.8516,-2.206 -10.0939,-2.206 -13.9455,0 l -37.4535,21.723 c -3.8517,2.206 -3.8517,5.882 0,8.088 l 5.6446,3.275 -2.5235,1.538 26.098,15.173 2.5898,-1.538 5.6446,3.276 c 3.8516,2.205 10.0939,2.205 13.9455,0 l 37.3874,-21.724 c 3.851,-2.206 3.851,-5.882 0,-8.088 l -5.6448,-3.275 2.6558,-1.537 -26.0975,-15.174 z"
     fill="url(#e)"
     id="path25"
     style="fill:url(#e)" />
  <path
     d="m 148.20144,220.03366 0.6641,0.401 1.9258,-1.137 v -0.735 z m 85.6653,-12.901 -5.6448,-3.275 v 0.735 l 5.6448,3.275 c 1.726,1.003 2.722,2.34 2.855,3.677 0.133,-1.538 -0.797,-3.209 -2.855,-4.412 z m -3.055,-4.812 -26.0979,-15.174 -2.6563,1.538 -5.6446,-3.275 c -3.8516,-2.206 -10.0938,-2.206 -13.9454,0 l -37.3872,21.723 c -2.0586,1.203 -3.0547,2.808 -2.8555,4.412 0.1328,-1.337 1.1289,-2.674 2.8555,-3.677 l 37.3872,-21.723 c 3.8516,-2.206 10.0938,-2.206 13.9454,0 l 5.6446,3.275 2.6563,-1.537 25.4339,14.772 z"
     fill="#4d4d4d"
     id="path26" />
  <path
     d="m 195.21654,187.68166 c -3.1876,-1.871 -8.3673,-1.871 -11.5549,0 l -30.8792,17.981 c -3.1876,1.871 -3.1876,4.879 0,6.684 l 30.9457,17.98 c 3.1875,1.872 8.3672,1.872 11.5548,0 l 30.9457,-17.98 c 3.1871,-1.872 3.1871,-4.879 0,-6.684 z"
     fill="url(#g)"
     id="path27"
     style="fill:url(#g)" />
  <path
     d="m 226.16214,212.34666 -30.9456,17.98 c -3.1876,1.872 -8.3673,1.872 -11.5549,0 l -30.8792,-17.98 c -1.5938,-0.936 -2.3907,-2.139 -2.3907,-3.342 v 3.609 c 0,1.203 0.7969,2.407 2.3907,3.342 l 30.9457,17.981 c 3.1875,1.871 8.3672,1.871 11.5548,0 l 30.9456,-17.981 c 1.5938,-0.935 2.3907,-2.139 2.3907,-3.342 v -3.609 c -0.0664,1.203 -0.8633,2.406 -2.4571,3.342 z"
     fill="url(#h)"
     id="path28"
     style="fill:url(#h)" />
  <path
     d="m 209.89224,196.17066 v 25.601 l 5.7775,-3.342 v -18.85 z m -44.8911,23.328 11.5548,6.684 v -34.356 l -11.5548,6.684 z m 19.3909,-32.151 v 43.314 c 3.1875,1.47 7.9024,1.403 10.8907,-0.334 l 9.0978,-5.281 v -32.084 l -9.0978,-5.281 c -2.9883,-1.737 -7.7032,-1.804 -10.8907,-0.334 z"
     fill="url(#i)"
     id="path29"
     style="fill:url(#i)" />
  <path
     d="m 186.58374,215.15366 c -1.1289,0.668 -2.3906,0.936 -3.8516,0.936 -1.4609,0 -2.7227,-0.334 -3.8516,-0.936 -1.0625,-0.602 -1.5938,-1.337 -1.5938,-2.206 0,-0.869 0.5313,-1.604 1.6602,-2.205 0.9297,-0.535 1.9258,-0.869 3.0547,-0.936 1.0626,-0.067 2.0587,0 2.9219,0.267 l -1.0625,1.003 c -0.5312,-0.134 -1.0625,-0.201 -1.7265,-0.134 -0.6641,0.067 -1.2618,0.267 -1.793,0.535 -0.7305,0.401 -1.0625,0.869 -0.9961,1.403 0.0664,0.535 0.3984,1.003 1.0625,1.404 0.664,0.401 1.4609,0.602 2.3906,0.669 0.9297,0 1.7266,-0.134 2.4571,-0.602 0.5312,-0.334 0.8633,-0.668 0.9961,-1.003 0.1328,-0.401 0.0664,-0.735 -0.1992,-1.002 l 1.7265,-0.602 c 0.4649,0.468 0.5977,1.003 0.4649,1.671 -0.1992,0.602 -0.7305,1.203 -1.6602,1.738 z"
     fill="#4d4d4d"
     id="path30" />
  <path
     d="m 187.04854,206.19666 c 0.7305,-0.468 1.6602,-0.668 2.6563,-0.602 0.9961,0 1.793,0.268 2.457,0.602 0.6641,0.401 0.9961,0.869 1.0626,1.471 0.0664,0.601 -0.3321,1.069 -1.129,1.537 l -1.9258,1.136 2.2579,1.27 -1.3946,0.802 -7.3048,-4.278 z m 3.6524,2.273 c 0.3984,-0.201 0.5312,-0.468 0.5312,-0.736 0,-0.267 -0.1992,-0.534 -0.5312,-0.735 -0.332,-0.2 -0.7305,-0.267 -1.1953,-0.334 -0.4649,0 -0.8633,0.067 -1.1954,0.267 l -1.9922,1.137 2.5235,1.47 z"
     fill="#4d4d4d"
     id="path31" />
  <path
     d="m 196.74384,200.51566 4.3165,2.54 c 0.9297,0.534 1.461,1.136 1.461,1.804 0,0.669 -0.4649,1.27 -1.461,1.872 -0.9961,0.601 -2.0586,0.869 -3.1875,0.869 -1.1289,0 -2.1915,-0.268 -3.1212,-0.869 l -4.3164,-2.54 1.4609,-0.869 4.3165,2.473 c 0.5313,0.334 1.1289,0.468 1.793,0.535 0.6641,0 1.1953,-0.134 1.793,-0.468 0.5312,-0.334 0.7969,-0.669 0.7969,-1.07 -0.0664,-0.401 -0.3321,-0.735 -0.9297,-1.069 l -4.3165,-2.473 z"
     fill="#4d4d4d"
     id="path32" />
  <path
     d="m 236.56374,156.20606 h -1.212 c -1.873,-5.0248 -6.17,-9.7147 -12.7811,-13.6228 -18.6208,-10.943 -48.9208,-10.943 -67.6517,0 -6.2804,3.6848 -10.4673,8.0397 -12.4505,12.7295 h -1.5426 v 6.2531 c -0.3305,7.4814 4.2971,14.9628 13.9931,20.6578 18.6207,10.943 48.9207,10.943 67.6517,0 9.3651,-5.472 13.9931,-12.6181 13.9931,-19.7645 z"
     fill="#ff7d3a"
     id="path33" />
  <path
     d="m 236.56374,155.38186 h -1.212 c -1.873,-5.0248 -6.17,-9.7147 -12.7811,-13.6229 -18.6208,-10.9429 -48.9208,-10.9429 -67.6517,0 -6.2804,3.6849 -10.4673,8.0397 -12.4505,12.7296 h -1.5426 v 6.2531 c -0.3305,7.4813 4.2971,14.963 13.9931,20.658 18.6207,10.942 48.9207,10.942 67.6517,0 9.3651,-5.472 13.9931,-12.6184 13.9931,-19.7647 z"
     fill="#ff7d3a"
     id="path34" />
  <path
     d="m 235.45674,155.61906 c -0.111,-0.2206 -0.111,-0.3308 -0.222,-0.5514 v -3.9698 h -2.546 v -0.3308 c -0.664,-0.8822 -1.328,-1.6541 -2.103,-2.5363 v 2.7568 h -1.44 v -4.1903 c -0.664,-0.5514 -1.439,-1.213 -2.1032,-1.7644 v 5.9547 h -1.4393 v -6.9471 c -0.6642,-0.4411 -1.4392,-0.9925 -2.1035,-1.4336 v 8.3807 h -1.4392 v -9.2628 c -0.6643,-0.4411 -1.4393,-0.772 -2.2142,-1.1028 v 10.3656 h -1.4393 v -11.0272 c -0.6642,-0.3308 -1.4392,-0.6616 -2.2142,-0.8822 v 11.9094 h -1.4392 v -9.7039 h -2.2143 v 9.7039 h -1.4392 v -7.0574 h -2.2142 v 7.0574 h -1.4393 v -4.4109 h -2.2142 v 4.4109 h -1.4392 v -1.7643 h -2.2143 v 1.7643 h -26.4599 v -1.7643 h -2.2142 v 1.7643 h -1.4393 v -4.4109 h -2.2142 v 4.4109 h -1.1071 v -7.0574 h -2.2142 v 7.0574 h -1.4393 v -9.7039 h -2.2142 v 9.7039 h -1.4392 v -11.9094 c -0.775,0.3308 -1.4393,0.6616 -2.2142,0.8822 v 11.0272 h -1.4393 v -10.3656 c -0.775,0.3308 -1.4392,0.7719 -2.2142,1.1028 v 9.2628 h -1.2178 v -8.3807 c -0.775,0.4411 -1.4393,0.8822 -2.1035,1.4336 v 7.0574 h -1.4393 v -5.9547 c -0.7749,0.5514 -1.4392,1.213 -2.1035,1.7644 v 4.1903 h -1.4392 v -2.8671 c -0.775,0.7719 -1.55,1.6541 -2.1035,2.5363 v 0.3308 h -2.5464 v 3.7493 h -1.1071 v 10.2553 c 0.3321,1.8746 1.1071,3.639 2.1035,5.4034 v -6.3958 h 1.4393 v 8.6012 c 0.6642,0.8822 1.3285,1.6541 2.1035,2.5364 v -11.1376 h 1.4392 v 12.4606 c 0.6643,0.552 1.4392,1.213 2.1035,1.765 v -14.2256 h 1.4393 v 15.3276 c 0.6642,0.441 1.4392,0.993 2.1035,1.434 v -16.6514 h 1.4392 v 17.5334 c 0.6643,0.441 1.4393,0.772 2.2142,1.103 v -18.6364 h 1.4393 v 19.1874 c 0.6642,0.331 1.4392,0.662 2.2142,0.882 v -20.2899 h 1.4392 v 20.8419 c 0.6643,0.22 1.4393,0.551 2.2143,0.771 v -21.6129 h 1.4392 v 22.0549 c 0.6643,0.22 1.4392,0.441 2.2142,0.661 v -22.6056 h 1.4393 v 23.0466 c 0.7749,0.221 1.4392,0.331 2.2142,0.552 v -23.4884 h 1.4392 v 23.8184 c 0.775,0.111 1.4393,0.221 2.2143,0.442 v -24.1501 h 1.4392 v 24.3701 c 0.775,0.11 1.4392,0.221 2.2142,0.331 v -24.7011 h 1.3285 v 24.5911 c 0.775,0.11 1.4393,0.11 2.2143,0.22 v -25.0316 h 1.3285 v 25.1416 c 0.775,0 1.4392,0.111 2.2142,0.111 v -25.2526 h 1.3286 v 25.2526 h 2.2142 v -25.2526 h 1.3285 v 25.2526 c 0.775,0 1.4393,0 2.2142,-0.111 v -25.1416 h 1.3286 v 25.0316 c 0.7749,0 1.4392,-0.11 2.2142,-0.22 v -24.8116 h 1.3285 v 24.7006 c 0.775,-0.11 1.4393,-0.22 2.2142,-0.33 v -24.3706 h 1.4393 v 24.1496 c 0.775,-0.11 1.4392,-0.221 2.2142,-0.441 v -23.8189 h 1.4393 v 23.4879 c 0.7749,-0.11 1.4392,-0.331 2.2142,-0.551 v -23.0472 h 1.4392 v 22.8262 c 0.775,-0.22 1.4393,-0.441 2.2142,-0.661 v -22.0549 h 1.4393 v 21.6129 c 0.7749,-0.22 1.4392,-0.551 2.2142,-0.771 v -20.8419 h 1.4392 v 20.1799 c 0.775,-0.331 1.4393,-0.662 2.2143,-0.882 v -19.2979 h 1.4392 v 18.6359 c 0.775,-0.331 1.4392,-0.772 2.2142,-1.103 v -17.5329 h 1.4393 v 16.6509 c 0.7749,-0.441 1.4392,-0.882 2.1035,-1.433 v -15.3282 h 1.4392 v 14.2252 c 0.775,-0.551 1.4393,-1.213 2.1031,-1.764 v -12.4612 h 1.44 v 11.0273 c 0.775,-0.7719 1.55,-1.6541 2.103,-2.5363 v -8.6013 h 1.439 v 6.3958 c 0.997,-1.7643 1.772,-3.6389 2.104,-5.5136 v -9.3731 z"
     fill="url(#k)"
     opacity="0.48"
     id="path35"
     style="fill:url(#k)" />
  <path
     d="m 188.73654,183.01166 c 26.4142,0 47.8272,-12.3638 47.8272,-27.6152 0,-15.2515 -21.413,-27.6152 -47.8272,-27.6152 -26.4142,0 -47.8272,12.3637 -47.8272,27.6152 0,15.2514 21.413,27.6152 47.8272,27.6152 z"
     fill="url(#l)"
     id="path36"
     style="fill:url(#l)" />
  <path
     d="m 159.10854,140.02406 c 16.6005,-9.6978 43.4934,-9.6978 60.094,0 7.9682,4.5702 12.0632,10.5896 12.3952,16.6089 0.332,-6.5767 -3.7629,-13.2648 -12.3952,-18.2809 -16.6006,-9.6978 -43.4935,-9.6978 -60.094,0 -8.6323,5.0161 -12.8378,11.7042 -12.3951,18.2809 0.332,-6.0193 4.4268,-11.9272 12.3951,-16.6089 z"
     fill="#a24011"
     id="path37" />
  <path
     d="m 190.92934,142.82376 v 3.2071 l 15.8195,9.0683 v -3.0965 z"
     fill="#f16822"
     id="path38" />
  <path
     d="m 206.74874,152.00226 v 3.0965 l 5.6419,-3.207 -0.1106,-3.2071 z"
     fill="#f16822"
     id="path39" />
  <path
     d="m 210.51044,154.21456 v 3.207 l 3.8719,-2.3223 v -3.2071 z"
     fill="#ffffff"
     id="path40" />
  <path
     d="m 206.85954,156.31556 v 3.2071 l 3.6507,-2.1012 v -3.207 z"
     fill="#ffffff"
     id="path41" />
  <path
     d="m 206.41664,156.53666 v 3.2071 l 0.4425,-0.2212 v -3.2071 z"
     fill="#ffffff"
     id="path42" />
  <path
     d="m 196.46064,150.78616 0.1106,3.2071 9.8457,5.7507 v -3.2071 z"
     fill="#ffffff"
     id="path43" />
  <path
     d="m 190.81854,156.97926 v 3.207 l 0.1106,-14.1554 v -3.2071 z"
     fill="#f16822"
     id="path44" />
  <path
     d="m 166.48114,156.97906 v 3.2071 h 24.3377 v -3.2071 z"
     fill="#f16822"
     id="path45" />
  <path
     d="m 196.46064,156.97916 v 3.2071 l 0.1106,-6.193 -0.1106,-3.2071 z"
     fill="#ffffff"
     id="path46" />
  <path
     d="m 180.19844,160.18606 v 3.2071 h 10.6201 v -3.2071 z"
     fill="#ffffff"
     id="path47" />
  <path
     d="m 190.81854,160.18606 v 3.2071 h 5.6419 v -3.2071 z"
     fill="#ffffff"
     id="path48" />
  <path
     d="m 180.19844,160.18606 v 3.2071 l 9.9563,5.7507 -0.1106,-3.2071 z"
     fill="#f16822"
     id="path49" />
  <path
     d="m 176.54804,169.36506 v 3.2071 l 5.6419,-3.3177 v -3.207 z"
     fill="#f16822"
     id="path50" />
  <path
     d="m 166.48114,156.97906 v 3.2071 l 15.7089,9.0683 v -3.2071 z"
     fill="#ffffff"
     id="path51" />
  <path
     d="m 188.05294,167.15306 v 3.2071 l 2.1019,-1.2165 -0.1107,-3.2071 z"
     fill="#ffffff"
     id="path52" />
  <path
     d="m 185.95134,168.36986 0.1106,3.0965 1.9913,-1.1059 v -3.2071 z"
     fill="#ffffff"
     id="path53" />
  <path
     d="m 166.48114,156.97926 15.7089,9.1789 -5.6419,3.207 c 1.77,0.553 3.6506,0.8848 5.6419,1.2165 l 3.8719,-2.2118 1.9913,-1.2164 1.9913,-1.2165 -9.9564,-5.7507 h 10.6201 5.6419 v -3.207 -6.193 l 9.9564,5.7506 0.4425,-0.2212 3.6507,-2.1012 3.8719,-2.2118 c -0.4425,-1.1059 -1.1063,-2.2118 -1.9913,-3.2071 l -5.6419,3.2071 -15.7089,-9.1789 -0.1107,14.1555 z"
     fill="#ffffff"
     id="path54" />
  <path
     d="m 182.18964,170.58146 v 3.2071 l 3.8719,-2.3224 -0.1106,-3.0965 z"
     fill="#ffffff"
     id="path55" />
  <path
     d="m 176.54764,169.36526 v 3.207 c -2.2125,-0.6635 -4.2038,-1.4376 -6.1951,-2.5435 0,0 -0.1106,-0.1106 -0.2212,-0.1106 0,0 -0.1106,0 -0.2213,-0.1106 -0.1106,0 -0.1106,-0.1106 -0.2212,-0.1106 -5.0888,-2.9859 -7.7439,-6.8565 -7.7439,-10.8377 v -3.2071 c 0,3.8706 2.5444,7.8518 7.7439,10.8377 0.1106,0 0.1106,0.1106 0.2212,0.1106 0.1107,0.1106 0.2213,0.1106 0.2213,0.1106 0.1106,0.1106 0.2212,0.1106 0.2212,0.1106 1.9913,1.1059 3.9826,1.88 6.1951,2.5436 z m 0,3.207 c 1.77,0.553 3.6507,0.8848 5.6419,1.2165 v -3.2071 c -1.8806,-0.2211 -3.7613,-0.6635 -5.6419,-1.2164 z m 38.6085,-17.0307 c 0,3.9812 -2.655,7.9624 -7.8544,10.9483 -6.8589,3.9812 -16.3727,5.3083 -25.1122,4.0918 v 3.2071 c 8.7395,1.2169 18.2533,-0.1106 25.1122,-4.0918 5.1994,-2.9859 7.8544,-6.9671 7.8544,-10.9483 z"
     fill="#d84b0e"
     id="path56" />
  <path
     d="m 169.79964,144.70356 c -10.3988,5.9719 -10.5095,15.8143 -0.1106,21.7861 0.1106,0 0.1106,0.1106 0.2212,0.1106 0.1107,0.1106 0.2213,0.1106 0.2213,0.1106 0.1106,0.1106 0.2212,0.1106 0.2212,0.1106 1.8807,0.9953 3.9826,1.88 6.1951,2.5435 l 5.6419,-3.207 -15.7089,-9.1789 h 24.4484 l 0.1106,-14.1555 15.7089,9.1789 5.642,-3.2071 c -1.1063,-1.2164 -2.5444,-2.4329 -4.2038,-3.5388 -0.1107,-0.1106 -0.1107,-0.1106 -0.2213,-0.1106 -0.1106,-0.1106 -0.2212,-0.1106 -0.2212,-0.1106 -0.1107,-0.1106 -0.2213,-0.1106 -0.3319,-0.1106 -10.3989,-6.193 -27.214,-6.193 -37.6129,-0.2212 z"
     fill="#f16822"
     id="path57" />
  <path
     d="m 180.19844,160.18626 9.9563,5.7507 -1.9913,1.2164 -1.9912,1.2165 -3.8719,2.2118 c 8.7394,1.2165 18.2533,-0.1106 25.1121,-4.0918 6.8588,-3.9812 9.182,-9.5107 7.0801,-14.4872 l -3.872,2.2118 -3.6506,2.1012 -0.5531,0.2212 -9.9564,-5.7507 v 6.193 3.2071 h -5.6419 z"
     fill="#f16822"
     id="path58" />
  <path
     d="m 247.81374,74.995666 c 0,1.08142 -0.588,2.06452 -1.501,2.62161 l -56.2495,32.606284 c -0.9136,0.5244 -2.0881,0.5244 -3.0017,0 L 130.2902,77.256806 c -0.61991,-0.36047 -1.04407,-0.88479 -1.27246,-1.474658 l 0.9136,142.085512 c 0,0 -0.32629,1.245 2.25126,2.556 l 53.96534,31.361 c 2.1534,1.245 4.7636,1.245 6.917,0 l 55.6628,-32.082 z"
     fill="url(#n)"
     opacity="0.3"
     id="path59"
     style="fill:url(#n)" />
  <path
     d="m 301.15374,231.52966 -12.285,7.152 2.059,1.203 12.285,-7.152 z m -5.046,-3.008 -12.352,7.152 2.058,1.204 12.286,-7.153 z m -5.114,-2.941 -12.285,7.152 2.059,1.203 12.285,-7.152 z m 57.376,16.176 12.285,7.152 2.059,-1.203 -12.285,-7.152 z m 10.227,-5.882 12.285,7.152 2.058,-1.203 -12.285,-7.152 z m -5.114,2.941 12.286,7.152 2.058,-1.203 -12.285,-7.152 z m 10.161,-5.949 12.285,7.152 2.058,-1.203 -12.285,-7.152 z m 5.113,-2.941 12.285,7.152 2.059,-1.203 -12.286,-7.152 z m 10.16,-5.882 12.285,7.152 2.059,-1.203 -12.285,-7.152 z m -5.113,2.941 12.285,7.152 2.059,-1.203 -12.286,-7.152 z m -30.481,17.713 12.285,7.152 2.059,-1.203 -12.285,-7.152 z m -39.18,2.807 2.058,1.204 12.286,-7.153 -2.059,-1.203 z m 7.238,-10.093 -12.285,7.152 2.058,1.203 12.286,-7.152 z m -5.113,-2.941 -12.285,7.152 2.058,1.203 12.285,-7.152 z"
     fill="#f16822"
     id="path60" />
  <path
     d="m 383.36674,206.73166 c -1.395,-0.802 -1.395,-2.139 0,-2.941 l -36.989,-21.523 c -1.394,0.802 -3.652,0.802 -5.047,0 -1.394,-0.802 -1.394,-2.139 0,-2.941 l -2.59,-1.538 c -2.789,-1.604 -7.304,-1.604 -10.093,0 l -52.462,30.48 c -2.789,1.605 -2.789,4.278 0,5.882 l 2.59,1.538 c 1.394,-0.802 3.652,-0.802 5.047,0 1.394,0.802 1.394,2.139 0,2.941 l 37.055,21.456 c 1.394,-0.802 3.652,-0.802 5.047,0 1.394,0.802 1.394,2.139 0,2.941 l 2.59,1.537 c 2.789,1.605 7.305,1.605 10.094,0 l 52.395,-30.479 c 2.789,-1.605 2.789,-4.278 0,-5.882 l -2.59,-1.538 c -1.328,0.869 -3.653,0.869 -5.047,0.067 z"
     fill="url(#o)"
     id="path61"
     style="fill:url(#o)" />
  <path
     d="m 383.36574,206.73166 v -2.941 c -1.394,0.803 -1.394,2.139 0,2.941 z"
     fill="#4d4d4d"
     id="path62" />
  <path
     d="m 341.26374,182.26766 v -2.941 c -1.394,0.802 -1.394,2.139 0,2.941 z"
     fill="#4d4d4d"
     id="path63" />
  <path
     d="m 391.07174,214.01766 -52.396,30.48 c -2.789,1.604 -7.305,1.604 -10.094,0 l -2.59,-1.537 c 1.394,-0.803 1.394,-2.139 0,-2.941 -1.395,-0.803 -3.653,-0.803 -5.047,0 l -37.123,-21.524 c 1.395,-0.802 1.395,-2.138 0,-2.941 -1.394,-0.802 -3.652,-0.802 -5.047,0 l -2.589,-1.537 c -1.395,-0.802 -2.126,-1.871 -2.126,-2.941 v 7.486 c 0,1.07 0.665,2.139 2.126,3.008 l 2.589,1.538 c 1.395,-0.803 3.653,-0.803 5.047,0 v 2.941 l 36.99,21.523 c 1.394,-0.802 3.652,-0.802 5.047,0 v 2.941 l 2.59,1.537 c 2.789,1.604 7.305,1.604 10.094,0 l 52.396,-30.48 c 1.395,-0.802 2.125,-1.871 2.125,-3.008 v -7.486 c 0.066,1.07 -0.598,2.139 -1.992,2.941 z"
     fill="url(#p)"
     id="path64"
     style="fill:url(#p)" />
  <path
     d="m 281.82974,208.26866 c 0.465,0.268 0.465,0.736 0,1.003 -0.465,0.267 -1.195,0.267 -1.66,0 -0.465,-0.267 -0.465,-0.735 0,-1.003 0.465,-0.267 1.195,-0.267 1.66,0 z"
     fill="#4d4d4d"
     id="path65" />
  <path
     d="m 284.75174,206.59766 c 0.465,0.268 0.465,0.736 0,1.003 -0.465,0.267 -1.195,0.267 -1.66,0 -0.465,-0.267 -0.465,-0.735 0,-1.003 0.465,-0.267 1.195,-0.267 1.66,0 z"
     fill="#4d4d4d"
     id="path66" />
  <path
     d="m 287.67374,204.86066 c 0.465,0.267 0.465,0.735 0,1.002 -0.465,0.268 -1.196,0.268 -1.66,0 -0.465,-0.267 -0.465,-0.735 0,-1.002 0.398,-0.268 1.195,-0.268 1.66,0 z"
     fill="#4d4d4d"
     id="path67" />
  <path
     d="m 290.59574,203.18866 c 0.465,0.268 0.465,0.735 0,1.003 -0.465,0.267 -1.196,0.267 -1.661,0 -0.464,-0.268 -0.464,-0.735 0,-1.003 0.399,-0.267 1.196,-0.267 1.661,0 z"
     fill="#4d4d4d"
     id="path68" />
  <path
     d="m 293.51774,201.51766 c 0.465,0.268 0.465,0.736 0,1.003 -0.465,0.267 -1.196,0.267 -1.66,0 -0.465,-0.267 -0.465,-0.735 0,-1.003 0.464,-0.267 1.195,-0.267 1.66,0 z"
     fill="#4d4d4d"
     id="path69" />
  <path
     d="m 375.33074,219.96666 c 0.465,0.267 0.465,0.735 0,1.002 -0.465,0.268 -1.195,0.268 -1.66,0 -0.465,-0.267 -0.465,-0.735 0,-1.002 0.465,-0.268 1.195,-0.268 1.66,0 z"
     fill="#4d4d4d"
     id="path70" />
  <path
     d="m 378.25274,218.22866 c 0.465,0.267 0.465,0.735 0,1.002 -0.465,0.268 -1.195,0.268 -1.66,0 -0.465,-0.267 -0.465,-0.735 0,-1.002 0.465,-0.268 1.195,-0.268 1.66,0 z"
     fill="#4d4d4d"
     id="path71" />
  <path
     d="m 381.17474,216.55666 c 0.465,0.268 0.465,0.736 0,1.003 -0.465,0.267 -1.195,0.267 -1.66,0 -0.465,-0.267 -0.465,-0.735 0,-1.003 0.399,-0.267 1.195,-0.267 1.66,0 z"
     fill="#4d4d4d"
     id="path72" />
  <path
     d="m 384.09674,214.88566 c 0.465,0.268 0.465,0.736 0,1.003 -0.465,0.267 -1.195,0.267 -1.66,0 -0.465,-0.267 -0.465,-0.735 0,-1.003 0.398,-0.267 1.195,-0.267 1.66,0 z"
     fill="#4d4d4d"
     id="path73" />
  <path
     d="m 387.01874,213.14866 c 0.465,0.267 0.465,0.735 0,1.002 -0.465,0.268 -1.195,0.268 -1.66,0 -0.465,-0.267 -0.465,-0.735 0,-1.002 0.398,-0.268 1.195,-0.268 1.66,0 z"
     fill="#4d4d4d"
     id="path74" />
  <path
     d="m 346.24474,188.68466 -5.645,-3.275 c -3.851,-2.206 -10.094,-2.206 -13.945,0 l -37.454,21.723 c -3.851,2.206 -3.851,5.882 0,8.088 l 5.645,3.275 -2.524,1.538 26.098,15.173 2.59,-1.538 5.645,3.276 c 3.851,2.205 10.094,2.205 13.945,0 l 37.387,-21.724 c 3.852,-2.206 3.852,-5.882 0,-8.088 l -5.644,-3.275 2.656,-1.537 -26.098,-15.174 z"
     fill="url(#q)"
     id="path75"
     style="fill:url(#q)" />
  <path
     d="m 292.32274,220.03366 0.664,0.401 1.926,-1.137 v -0.735 z m 85.665,-12.901 -5.644,-3.275 v 0.735 l 5.644,3.275 c 1.727,1.003 2.723,2.34 2.856,3.677 0.133,-1.538 -0.797,-3.209 -2.856,-4.412 z m -3.054,-4.812 -26.098,-15.174 -2.657,1.538 -5.644,-3.275 c -3.852,-2.206 -10.094,-2.206 -13.946,0 l -37.387,21.723 c -2.058,1.203 -3.055,2.808 -2.855,4.412 0.133,-1.337 1.129,-2.674 2.855,-3.677 l 37.387,-21.723 c 3.852,-2.206 10.094,-2.206 13.946,0 l 5.644,3.275 2.657,-1.537 25.434,14.772 z"
     fill="#4d4d4d"
     id="path76" />
  <path
     d="m 339.33874,187.68166 c -3.188,-1.871 -8.368,-1.871 -11.555,0 l -30.879,17.981 c -3.188,1.871 -3.188,4.879 0,6.684 l 30.945,17.98 c 3.188,1.872 8.367,1.872 11.555,0 l 30.946,-17.98 c 3.187,-1.872 3.187,-4.879 0,-6.684 z"
     fill="url(#r)"
     id="path77"
     style="fill:url(#r)" />
  <path
     d="m 370.28374,212.34666 -30.945,17.98 c -3.188,1.872 -8.368,1.872 -11.555,0 l -30.879,-17.98 c -1.594,-0.936 -2.391,-2.139 -2.391,-3.342 v 3.609 c 0,1.203 0.797,2.407 2.391,3.342 l 30.945,17.981 c 3.188,1.871 8.367,1.871 11.555,0 l 30.946,-17.981 c 1.593,-0.935 2.39,-2.139 2.39,-3.342 v -3.609 c -0.066,1.203 -0.863,2.406 -2.457,3.342 z"
     fill="url(#s)"
     id="path78"
     style="fill:url(#s)" />
  <path
     d="m 354.01474,196.17066 v 25.601 l 5.777,-3.342 v -18.85 z m -44.892,23.328 11.555,6.684 v -34.356 l -11.555,6.684 z m 19.391,-32.151 v 43.314 c 3.188,1.47 7.903,1.403 10.891,-0.334 l 9.098,-5.281 v -32.084 l -9.098,-5.281 c -2.988,-1.737 -7.703,-1.804 -10.891,-0.334 z"
     fill="url(#t)"
     id="path79"
     style="fill:url(#t)" />
  <path
     d="m 330.70574,215.15366 c -1.129,0.668 -2.391,0.936 -3.852,0.936 -1.461,0 -2.722,-0.334 -3.851,-0.936 -1.063,-0.602 -1.594,-1.337 -1.594,-2.206 0,-0.869 0.531,-1.604 1.66,-2.205 0.93,-0.535 1.926,-0.869 3.055,-0.936 1.062,-0.067 2.058,0 2.922,0.267 l -1.063,1.003 c -0.531,-0.134 -1.062,-0.201 -1.726,-0.134 -0.664,0.067 -1.262,0.267 -1.793,0.535 -0.731,0.401 -1.063,0.869 -0.997,1.403 0.067,0.535 0.399,1.003 1.063,1.404 0.664,0.401 1.461,0.602 2.391,0.669 0.929,0 1.726,-0.134 2.457,-0.602 0.531,-0.334 0.863,-0.668 0.996,-1.003 0.133,-0.401 0.066,-0.735 -0.199,-1.002 l 1.726,-0.602 c 0.465,0.468 0.598,1.003 0.465,1.671 -0.199,0.602 -0.73,1.203 -1.66,1.738 z"
     fill="#4d4d4d"
     id="path80" />
  <path
     d="m 331.17074,206.19666 c 0.73,-0.468 1.66,-0.668 2.656,-0.602 0.996,0 1.793,0.268 2.457,0.602 0.664,0.401 0.996,0.869 1.063,1.471 0.066,0.601 -0.332,1.069 -1.129,1.537 l -1.926,1.136 2.258,1.27 -1.395,0.802 -7.304,-4.278 z m 3.652,2.273 c 0.399,-0.201 0.532,-0.468 0.532,-0.736 0,-0.267 -0.2,-0.534 -0.532,-0.735 -0.332,-0.2 -0.73,-0.267 -1.195,-0.334 -0.465,0 -0.863,0.067 -1.195,0.267 l -1.993,1.137 2.524,1.47 z"
     fill="#4d4d4d"
     id="path81" />
  <path
     d="m 340.86574,200.51566 4.317,2.54 c 0.929,0.534 1.461,1.136 1.461,1.804 0,0.669 -0.465,1.27 -1.461,1.872 -0.996,0.601 -2.059,0.869 -3.188,0.869 -1.129,0 -2.191,-0.268 -3.121,-0.869 l -4.316,-2.54 1.461,-0.869 4.316,2.473 c 0.531,0.334 1.129,0.468 1.793,0.535 0.664,0 1.195,-0.134 1.793,-0.468 0.531,-0.334 0.797,-0.669 0.797,-1.07 -0.067,-0.401 -0.332,-0.735 -0.93,-1.069 l -4.316,-2.473 z"
     fill="#4d4d4d"
     id="path82" />
  <path
     d="m 380.68574,156.20606 h -1.212 c -1.873,-5.0248 -6.17,-9.7147 -12.781,-13.6228 -18.621,-10.943 -48.921,-10.943 -67.652,0 -6.28,3.6848 -10.467,8.0397 -12.45,12.7295 h -1.543 v 6.2531 c -0.33,7.4814 4.297,14.9628 13.993,20.6578 18.621,10.943 48.921,10.943 67.652,0 9.365,-5.472 13.993,-12.6181 13.993,-19.7645 z"
     fill="#ff7d3a"
     id="path83" />
  <path
     d="m 380.68574,155.38186 h -1.212 c -1.873,-5.0248 -6.17,-9.7147 -12.781,-13.6229 -18.621,-10.9429 -48.921,-10.9429 -67.652,0 -6.28,3.6849 -10.467,8.0397 -12.45,12.7296 h -1.543 v 6.2531 c -0.33,7.4813 4.297,14.963 13.993,20.658 18.621,10.942 48.921,10.942 67.652,0 9.365,-5.472 13.993,-12.6184 13.993,-19.7647 z"
     fill="#ff7d3a"
     id="path84" />
  <path
     d="m 379.57874,155.61906 c -0.111,-0.2206 -0.111,-0.3308 -0.222,-0.5514 v -3.9698 h -2.546 v -0.3308 c -0.664,-0.8822 -1.328,-1.6541 -2.103,-2.5363 v 2.7568 h -1.44 v -4.1903 c -0.664,-0.5514 -1.439,-1.213 -2.103,-1.7644 v 5.9547 h -1.439 v -6.9471 c -0.665,-0.4411 -1.44,-0.9925 -2.104,-1.4336 v 8.3807 h -1.439 v -9.2628 c -0.664,-0.4411 -1.439,-0.772 -2.214,-1.1028 v 10.3656 h -1.44 v -11.0272 c -0.664,-0.3308 -1.439,-0.6616 -2.214,-0.8822 v 11.9094 h -1.439 v -9.7039 h -2.214 v 9.7039 h -1.44 v -7.0574 h -2.214 v 7.0574 h -1.439 v -4.4109 h -2.214 v 4.4109 h -1.439 v -1.7643 h -2.215 v 1.7643 h -26.46 v -1.7643 h -2.214 v 1.7643 h -1.439 v -4.4109 h -2.214 v 4.4109 h -1.107 v -7.0574 h -2.215 v 7.0574 h -1.439 v -9.7039 h -2.214 v 9.7039 h -1.439 v -11.9094 c -0.775,0.3308 -1.44,0.6616 -2.215,0.8822 v 11.0272 h -1.439 v -10.3656 c -0.775,0.3308 -1.439,0.7719 -2.214,1.1028 v 9.2628 h -1.218 v -8.3807 c -0.775,0.4411 -1.439,0.8822 -2.103,1.4336 v 7.0574 h -1.44 v -5.9547 c -0.775,0.5514 -1.439,1.213 -2.103,1.7644 v 4.1903 h -1.439 v -2.8671 c -0.775,0.7719 -1.55,1.6541 -2.104,2.5363 v 0.3308 h -2.546 v 3.7493 h -1.107 v 10.2553 c 0.332,1.8746 1.107,3.639 2.103,5.4034 v -6.3958 h 1.439 v 8.6012 c 0.665,0.8822 1.329,1.6541 2.104,2.5364 v -11.1376 h 1.439 v 12.4606 c 0.664,0.552 1.439,1.213 2.104,1.765 v -14.2256 h 1.439 v 15.3276 c 0.664,0.441 1.439,0.993 2.103,1.434 v -16.6514 h 1.44 v 17.5334 c 0.664,0.441 1.439,0.772 2.214,1.103 v -18.6364 h 1.439 v 19.1874 c 0.664,0.331 1.439,0.662 2.214,0.882 v -20.2899 h 1.44 v 20.8419 c 0.664,0.22 1.439,0.551 2.214,0.771 v -21.6129 h 1.439 v 22.0549 c 0.664,0.22 1.439,0.441 2.214,0.661 v -22.6056 h 1.44 v 23.0466 c 0.775,0.221 1.439,0.331 2.214,0.552 v -23.4884 h 1.439 v 23.8184 c 0.775,0.111 1.439,0.221 2.214,0.442 v -24.1501 h 1.439 v 24.3701 c 0.775,0.11 1.44,0.221 2.215,0.331 v -24.7011 h 1.328 v 24.5911 c 0.775,0.11 1.439,0.11 2.214,0.22 v -25.0316 h 1.329 v 25.1416 c 0.775,0 1.439,0.111 2.214,0.111 v -25.2526 h 1.329 v 25.2526 h 2.214 v -25.2526 h 1.328 v 25.2526 c 0.775,0 1.44,0 2.215,-0.111 v -25.1416 h 1.328 v 25.0316 c 0.775,0 1.439,-0.11 2.214,-0.22 v -24.8116 h 1.329 v 24.7006 c 0.775,-0.11 1.439,-0.22 2.214,-0.33 v -24.3706 h 1.439 v 24.1496 c 0.775,-0.11 1.44,-0.221 2.215,-0.441 v -23.8189 h 1.439 v 23.4879 c 0.775,-0.11 1.439,-0.331 2.214,-0.551 v -23.0472 h 1.439 v 22.8262 c 0.775,-0.22 1.44,-0.441 2.215,-0.661 v -22.0549 h 1.439 v 21.6129 c 0.775,-0.22 1.439,-0.551 2.214,-0.771 v -20.8419 h 1.439 v 20.1799 c 0.775,-0.331 1.44,-0.662 2.215,-0.882 v -19.2979 h 1.439 v 18.6359 c 0.775,-0.331 1.439,-0.772 2.214,-1.103 v -17.5329 h 1.439 v 16.6509 c 0.775,-0.441 1.439,-0.882 2.104,-1.433 v -15.3282 h 1.439 v 14.2252 c 0.775,-0.551 1.439,-1.213 2.103,-1.764 v -12.4612 h 1.44 v 11.0273 c 0.775,-0.7719 1.55,-1.6541 2.103,-2.5363 v -8.6013 h 1.439 v 6.3958 c 0.997,-1.7643 1.772,-3.6389 2.104,-5.5136 v -9.3731 z"
     fill="url(#u)"
     opacity="0.48"
     id="path85"
     style="fill:url(#u)" />
  <path
     d="m 332.85874,183.01166 c 26.414,0 47.827,-12.3638 47.827,-27.6152 0,-15.2515 -21.413,-27.6152 -47.827,-27.6152 -26.414,0 -47.827,12.3637 -47.827,27.6152 0,15.2514 21.413,27.6152 47.827,27.6152 z"
     fill="url(#v)"
     id="path86"
     style="fill:url(#v)" />
  <path
     d="m 303.23074,140.02406 c 16.6,-9.6978 43.493,-9.6978 60.094,0 7.968,4.5702 12.063,10.5896 12.395,16.6089 0.332,-6.5767 -3.763,-13.2648 -12.395,-18.2809 -16.601,-9.6978 -43.494,-9.6978 -60.094,0 -8.633,5.0161 -12.838,11.7042 -12.395,18.2809 0.332,-6.0193 4.426,-11.9272 12.395,-16.6089 z"
     fill="#a24011"
     id="path87" />
  <path
     d="m 335.05174,142.82376 v 3.2071 l 15.819,9.0683 v -3.0965 z"
     fill="#f16822"
     id="path88" />
  <path
     d="m 350.87074,152.00226 v 3.0965 l 5.642,-3.207 -0.111,-3.2071 z"
     fill="#f16822"
     id="path89" />
  <path
     d="m 354.63274,154.21456 v 3.207 l 3.871,-2.3223 v -3.2071 z"
     fill="#ffffff"
     id="path90" />
  <path
     d="m 350.98174,156.31556 v 3.2071 l 3.651,-2.1012 v -3.207 z"
     fill="#ffffff"
     id="path91" />
  <path
     d="m 350.53874,156.53666 v 3.2071 l 0.443,-0.2212 v -3.2071 z"
     fill="#ffffff"
     id="path92" />
  <path
     d="m 340.58274,150.78616 0.111,3.2071 9.845,5.7507 v -3.2071 z"
     fill="#ffffff"
     id="path93" />
  <path
     d="m 334.94074,156.97926 v 3.207 l 0.111,-14.1554 v -3.2071 z"
     fill="#f16822"
     id="path94" />
  <path
     d="m 310.60274,156.97906 v 3.2071 h 24.338 v -3.2071 z"
     fill="#f16822"
     id="path95" />
  <path
     d="m 340.58274,156.97916 v 3.2071 l 0.111,-6.193 -0.111,-3.2071 z"
     fill="#ffffff"
     id="path96" />
  <path
     d="m 324.32074,160.18606 v 3.2071 h 10.62 v -3.2071 z"
     fill="#ffffff"
     id="path97" />
  <path
     d="m 334.94074,160.18606 v 3.2071 h 5.642 v -3.2071 z"
     fill="#ffffff"
     id="path98" />
  <path
     d="m 324.32074,160.18606 v 3.2071 l 9.956,5.7507 -0.11,-3.2071 z"
     fill="#f16822"
     id="path99" />
  <path
     d="m 320.66974,169.36506 v 3.2071 l 5.642,-3.3177 v -3.207 z"
     fill="#f16822"
     id="path100" />
  <path
     d="m 310.60274,156.97906 v 3.2071 l 15.709,9.0683 v -3.2071 z"
     fill="#ffffff"
     id="path101" />
  <path
     d="m 332.17474,167.15306 v 3.2071 l 2.102,-1.2165 -0.11,-3.2071 z"
     fill="#ffffff"
     id="path102" />
  <path
     d="m 330.07274,168.36986 0.111,3.0965 1.991,-1.1059 v -3.2071 z"
     fill="#ffffff"
     id="path103" />
  <path
     d="m 313.92174,144.70356 c -10.399,5.9719 -10.509,15.8143 -0.111,21.7861 0.111,0 0.111,0.1106 0.222,0.1106 0.11,0.1106 0.221,0.1106 0.221,0.1106 0.11,0.1106 0.221,0.1106 0.221,0.1106 1.881,0.9953 3.983,1.88 6.195,2.5435 l 5.642,-3.207 -15.709,-9.1789 h 24.449 l 0.11,-14.1555 15.709,9.1789 5.642,-3.2071 c -1.106,-1.2164 -2.544,-2.4329 -4.204,-3.5388 -0.11,-0.1106 -0.11,-0.1106 -0.221,-0.1106 -0.111,-0.1106 -0.221,-0.1106 -0.221,-0.1106 -0.111,-0.1106 -0.222,-0.1106 -0.332,-0.1106 -10.399,-6.193 -27.214,-6.193 -37.613,-0.2212 z"
     fill="#f16822"
     id="path104" />
  <path
     d="m 310.60274,156.97926 15.709,9.1789 -5.642,3.207 c 1.77,0.553 3.651,0.8848 5.642,1.2165 l 3.872,-2.2118 1.992,-1.2164 1.991,-1.2165 -9.957,-5.7507 h 10.621 5.642 v -3.207 -6.193 l 9.956,5.7506 0.442,-0.2212 3.651,-2.1012 3.872,-2.2118 c -0.443,-1.1059 -1.106,-2.2118 -1.991,-3.2071 l -5.642,3.2071 -15.709,-9.1789 -0.111,14.1555 z"
     fill="#ffffff"
     id="path105" />
  <path
     d="m 326.31174,170.58146 v 3.2071 l 3.872,-2.3224 -0.111,-3.0965 z"
     fill="#ffffff"
     id="path106" />
  <path
     d="m 320.66974,169.36526 v 3.207 c -2.212,-0.6635 -4.204,-1.4376 -6.195,-2.5435 0,0 -0.11,-0.1106 -0.221,-0.1106 0,0 -0.111,0 -0.221,-0.1106 -0.111,0 -0.111,-0.1106 -0.222,-0.1106 -5.088,-2.9859 -7.743,-6.8565 -7.743,-10.8377 v -3.2071 c 0,3.8706 2.544,7.8518 7.743,10.8377 0.111,0 0.111,0.1106 0.222,0.1106 0.11,0.1106 0.221,0.1106 0.221,0.1106 0.111,0.1106 0.221,0.1106 0.221,0.1106 1.991,1.1059 3.983,1.88 6.195,2.5436 z m 0,3.207 c 1.77,0.553 3.651,0.8848 5.642,1.2165 v -3.2071 c -1.881,-0.2211 -3.761,-0.6635 -5.642,-1.2164 z m 38.609,-17.0307 c 0,3.9812 -2.655,7.9624 -7.855,10.9483 -6.859,3.9812 -16.372,5.3083 -25.112,4.0918 v 3.2071 c 8.74,1.2169 18.253,-0.1106 25.112,-4.0918 5.2,-2.9859 7.855,-6.9671 7.855,-10.9483 z"
     fill="#d84b0e"
     id="path107" />
  <path
     d="m 324.32074,160.18626 9.956,5.7507 -1.991,1.2164 -1.991,1.2165 -3.872,2.2118 c 8.739,1.2165 18.253,-0.1106 25.112,-4.0918 6.859,-3.9812 9.182,-9.5107 7.08,-14.4872 l -3.872,2.2118 -3.65,2.1012 -0.554,0.2212 -9.956,-5.7507 v 6.193 3.2071 h -5.642 z"
     fill="#f16822"
     id="path108" />
  <path
     d="m 391.93474,75.995666 c 0,1.08142 -0.587,2.06452 -1.501,2.62161 l -56.249,32.606284 c -0.913,0.5244 -2.088,0.5244 -3.002,0 l -56.771,-32.966754 c -0.62,-0.36047 -1.044,-0.88479 -1.272,-1.47466 l 0.913,142.085514 c 0,0 -0.326,1.245 2.251,2.556 l 53.966,31.361 c 2.153,1.245 4.763,1.245 6.917,0 l 55.662,-32.082 z"
     fill="url(#w)"
     opacity="0.3"
     id="path109"
     style="fill:url(#w)" />
  <path
     d="m 445.27574,231.52966 -12.285,7.152 2.058,1.203 12.285,-7.152 z m -5.047,-3.008 -12.352,7.152 2.059,1.204 12.285,-7.153 z m -5.113,-2.941 -12.286,7.152 2.059,1.203 12.285,-7.152 z m 57.375,16.176 12.286,7.152 2.058,-1.203 -12.285,-7.152 z m 10.227,-5.882 12.285,7.152 2.059,-1.203 -12.285,-7.152 z m -5.113,2.941 12.285,7.152 2.058,-1.203 -12.285,-7.152 z m 10.16,-5.949 12.285,7.152 2.059,-1.203 -12.286,-7.152 z m 5.113,-2.941 12.285,7.152 2.059,-1.203 -12.285,-7.152 z m 10.16,-5.882 12.286,7.152 2.058,-1.203 -12.285,-7.152 z m -5.113,2.941 12.285,7.152 2.059,-1.203 -12.285,-7.152 z m -30.481,17.713 12.286,7.152 2.058,-1.203 -12.285,-7.152 z m -39.18,2.807 2.059,1.204 12.285,-7.153 -2.059,-1.203 z m 7.239,-10.093 -12.286,7.152 2.059,1.203 12.285,-7.152 z m -5.114,-2.941 -12.285,7.152 2.058,1.203 12.286,-7.152 z"
     fill="#f16822"
     id="path110" />
  <path
     d="m 527.48874,206.73166 c -1.395,-0.802 -1.395,-2.139 0,-2.941 l -36.989,-21.523 c -1.395,0.802 -3.653,0.802 -5.047,0 -1.395,-0.802 -1.395,-2.139 0,-2.941 l -2.59,-1.538 c -2.789,-1.604 -7.305,-1.604 -10.094,0 l -52.461,30.48 c -2.79,1.605 -2.79,4.278 0,5.882 l 2.589,1.538 c 1.395,-0.802 3.653,-0.802 5.047,0 1.395,0.802 1.395,2.139 0,2.941 l 37.056,21.456 c 1.394,-0.802 3.652,-0.802 5.046,0 1.395,0.802 1.395,2.139 0,2.941 l 2.59,1.537 c 2.789,1.605 7.305,1.605 10.094,0 l 52.395,-30.479 c 2.789,-1.605 2.789,-4.278 0,-5.882 l -2.59,-1.538 c -1.328,0.869 -3.652,0.869 -5.046,0.067 z"
     fill="url(#x)"
     id="path111"
     style="fill:url(#x)" />
  <path
     d="m 527.48774,206.73166 v -2.941 c -1.395,0.803 -1.395,2.139 0,2.941 z"
     fill="#4d4d4d"
     id="path112" />
  <path
     d="m 485.38574,182.26766 v -2.941 c -1.395,0.802 -1.395,2.139 0,2.941 z"
     fill="#4d4d4d"
     id="path113" />
  <path
     d="m 535.19274,214.01766 -52.396,30.48 c -2.789,1.604 -7.305,1.604 -10.094,0 l -2.59,-1.537 c 1.395,-0.803 1.395,-2.139 0,-2.941 -1.395,-0.803 -3.652,-0.803 -5.047,0 l -37.122,-21.524 c 1.394,-0.802 1.394,-2.138 0,-2.941 -1.395,-0.802 -3.653,-0.802 -5.047,0 l -2.59,-1.537 c -1.395,-0.802 -2.125,-1.871 -2.125,-2.941 v 7.486 c 0,1.07 0.664,2.139 2.125,3.008 l 2.59,1.538 c 1.394,-0.803 3.652,-0.803 5.047,0 v 2.941 l 36.989,21.523 c 1.395,-0.802 3.653,-0.802 5.047,0 v 2.941 l 2.59,1.537 c 2.789,1.604 7.305,1.604 10.094,0 l 52.396,-30.48 c 1.395,-0.802 2.125,-1.871 2.125,-3.008 v -7.486 c 0.067,1.07 -0.597,2.139 -1.992,2.941 z"
     fill="url(#y)"
     id="path114"
     style="fill:url(#y)" />
  <path
     d="m 425.95074,208.26866 c 0.465,0.268 0.465,0.736 0,1.003 -0.464,0.267 -1.195,0.267 -1.66,0 -0.465,-0.267 -0.465,-0.735 0,-1.003 0.465,-0.267 1.196,-0.267 1.66,0 z"
     fill="#4d4d4d"
     id="path115" />
  <path
     d="m 428.87274,206.59766 c 0.465,0.268 0.465,0.736 0,1.003 -0.465,0.267 -1.195,0.267 -1.66,0 -0.465,-0.267 -0.465,-0.735 0,-1.003 0.465,-0.267 1.195,-0.267 1.66,0 z"
     fill="#4d4d4d"
     id="path116" />
  <path
     d="m 431.79474,204.86066 c 0.465,0.267 0.465,0.735 0,1.002 -0.465,0.268 -1.195,0.268 -1.66,0 -0.465,-0.267 -0.465,-0.735 0,-1.002 0.398,-0.268 1.195,-0.268 1.66,0 z"
     fill="#4d4d4d"
     id="path117" />
  <path
     d="m 434.71674,203.18866 c 0.465,0.268 0.465,0.735 0,1.003 -0.465,0.267 -1.195,0.267 -1.66,0 -0.465,-0.268 -0.465,-0.735 0,-1.003 0.398,-0.267 1.195,-0.267 1.66,0 z"
     fill="#4d4d4d"
     id="path118" />
  <path
     d="m 437.63874,201.51766 c 0.465,0.268 0.465,0.736 0,1.003 -0.465,0.267 -1.195,0.267 -1.66,0 -0.465,-0.267 -0.465,-0.735 0,-1.003 0.465,-0.267 1.195,-0.267 1.66,0 z"
     fill="#4d4d4d"
     id="path119" />
  <path
     d="m 519.45174,219.96666 c 0.465,0.267 0.465,0.735 0,1.002 -0.465,0.268 -1.195,0.268 -1.66,0 -0.465,-0.267 -0.465,-0.735 0,-1.002 0.465,-0.268 1.195,-0.268 1.66,0 z"
     fill="#4d4d4d"
     id="path120" />
  <path
     d="m 522.37374,218.22866 c 0.465,0.267 0.465,0.735 0,1.002 -0.465,0.268 -1.195,0.268 -1.66,0 -0.465,-0.267 -0.465,-0.735 0,-1.002 0.465,-0.268 1.195,-0.268 1.66,0 z"
     fill="#4d4d4d"
     id="path121" />
  <path
     d="m 525.29574,216.55666 c 0.465,0.268 0.465,0.736 0,1.003 -0.465,0.267 -1.195,0.267 -1.66,0 -0.465,-0.267 -0.465,-0.735 0,-1.003 0.398,-0.267 1.195,-0.267 1.66,0 z"
     fill="#4d4d4d"
     id="path122" />
  <path
     d="m 528.21774,214.88566 c 0.465,0.268 0.465,0.736 0,1.003 -0.465,0.267 -1.195,0.267 -1.66,0 -0.465,-0.267 -0.465,-0.735 0,-1.003 0.398,-0.267 1.195,-0.267 1.66,0 z"
     fill="#4d4d4d"
     id="path123" />
  <path
     d="m 531.13974,213.14866 c 0.465,0.267 0.465,0.735 0,1.002 -0.465,0.268 -1.195,0.268 -1.66,0 -0.465,-0.267 -0.465,-0.735 0,-1.002 0.398,-0.268 1.195,-0.268 1.66,0 z"
     fill="#4d4d4d"
     id="path124" />
  <path
     d="m 490.36574,188.68466 -5.644,-3.275 c -3.852,-2.206 -10.094,-2.206 -13.946,0 l -37.454,21.723 c -3.851,2.206 -3.851,5.882 0,8.088 l 5.645,3.275 -2.523,1.538 26.098,15.173 2.589,-1.538 5.645,3.276 c 3.852,2.205 10.094,2.205 13.946,0 l 37.387,-21.724 c 3.851,-2.206 3.851,-5.882 0,-8.088 l -5.645,-3.275 2.656,-1.537 -26.098,-15.174 z"
     fill="url(#z)"
     id="path125"
     style="fill:url(#z)" />
  <path
     d="m 436.44474,220.03366 0.664,0.401 1.926,-1.137 v -0.735 z m 85.665,-12.901 -5.645,-3.275 v 0.735 l 5.645,3.275 c 1.726,1.003 2.722,2.34 2.855,3.677 0.133,-1.538 -0.797,-3.209 -2.855,-4.412 z m -3.055,-4.812 -26.098,-15.174 -2.656,1.538 -5.645,-3.275 c -3.851,-2.206 -10.094,-2.206 -13.945,0 l -37.387,21.723 c -2.059,1.203 -3.055,2.808 -2.856,4.412 0.133,-1.337 1.129,-2.674 2.856,-3.677 l 37.387,-21.723 c 3.851,-2.206 10.094,-2.206 13.945,0 l 5.645,3.275 2.656,-1.537 25.434,14.772 z"
     fill="#4d4d4d"
     id="path126" />
  <path
     d="m 483.45974,187.68166 c -3.188,-1.871 -8.368,-1.871 -11.555,0 l -30.879,17.981 c -3.188,1.871 -3.188,4.879 0,6.684 l 30.945,17.98 c 3.188,1.872 8.368,1.872 11.555,0 l 30.946,-17.98 c 3.187,-1.872 3.187,-4.879 0,-6.684 z"
     fill="url(#A)"
     id="path127"
     style="fill:url(#A)" />
  <path
     d="m 514.40474,212.34666 -30.945,17.98 c -3.188,1.872 -8.368,1.872 -11.555,0 l -30.879,-17.98 c -1.594,-0.936 -2.391,-2.139 -2.391,-3.342 v 3.609 c 0,1.203 0.797,2.407 2.391,3.342 l 30.945,17.981 c 3.188,1.871 8.368,1.871 11.555,0 l 30.946,-17.981 c 1.594,-0.935 2.39,-2.139 2.39,-3.342 v -3.609 c -0.066,1.203 -0.863,2.406 -2.457,3.342 z"
     fill="url(#B)"
     id="path128"
     style="fill:url(#B)" />
  <path
     d="m 498.13474,196.17066 v 25.601 l 5.778,-3.342 v -18.85 z m -44.891,23.328 11.555,6.684 v -34.356 l -11.555,6.684 z m 19.391,-32.151 v 43.314 c 3.188,1.47 7.903,1.403 10.891,-0.334 l 9.098,-5.281 v -32.084 l -9.098,-5.281 c -2.988,-1.737 -7.703,-1.804 -10.891,-0.334 z"
     fill="url(#C)"
     id="path129"
     style="fill:url(#C)" />
  <path
     d="m 474.82674,215.15366 c -1.129,0.668 -2.391,0.936 -3.852,0.936 -1.461,0 -2.722,-0.334 -3.851,-0.936 -1.063,-0.602 -1.594,-1.337 -1.594,-2.206 0,-0.869 0.531,-1.604 1.66,-2.205 0.93,-0.535 1.926,-0.869 3.055,-0.936 1.062,-0.067 2.058,0 2.922,0.267 l -1.063,1.003 c -0.531,-0.134 -1.062,-0.201 -1.726,-0.134 -0.664,0.067 -1.262,0.267 -1.793,0.535 -0.731,0.401 -1.063,0.869 -0.996,1.403 0.066,0.535 0.398,1.003 1.062,1.404 0.664,0.401 1.461,0.602 2.391,0.669 0.929,0 1.726,-0.134 2.457,-0.602 0.531,-0.334 0.863,-0.668 0.996,-1.003 0.133,-0.401 0.066,-0.735 -0.199,-1.002 l 1.726,-0.602 c 0.465,0.468 0.598,1.003 0.465,1.671 -0.199,0.602 -0.73,1.203 -1.66,1.738 z"
     fill="#4d4d4d"
     id="path130" />
  <path
     d="m 475.29174,206.19666 c 0.73,-0.468 1.66,-0.668 2.656,-0.602 0.996,0 1.793,0.268 2.457,0.602 0.664,0.401 0.996,0.869 1.063,1.471 0.066,0.601 -0.332,1.069 -1.129,1.537 l -1.926,1.136 2.258,1.27 -1.395,0.802 -7.305,-4.278 z m 3.652,2.273 c 0.399,-0.201 0.531,-0.468 0.531,-0.736 0,-0.267 -0.199,-0.534 -0.531,-0.735 -0.332,-0.2 -0.73,-0.267 -1.195,-0.334 -0.465,0 -0.864,0.067 -1.196,0.267 l -1.992,1.137 2.524,1.47 z"
     fill="#4d4d4d"
     id="path131" />
  <path
     d="m 484.98674,200.51566 4.317,2.54 c 0.929,0.534 1.46,1.136 1.46,1.804 0,0.669 -0.464,1.27 -1.46,1.872 -0.997,0.601 -2.059,0.869 -3.188,0.869 -1.129,0 -2.191,-0.268 -3.121,-0.869 l -4.317,-2.54 1.461,-0.869 4.317,2.473 c 0.531,0.334 1.129,0.468 1.793,0.535 0.664,0 1.195,-0.134 1.793,-0.468 0.531,-0.334 0.797,-0.669 0.797,-1.07 -0.067,-0.401 -0.332,-0.735 -0.93,-1.069 l -4.316,-2.473 z"
     fill="#4d4d4d"
     id="path132" />
  <path
     d="m 524.88574,156.20606 h -1.212 c -1.873,-5.0248 -6.17,-9.7147 -12.781,-13.6228 -18.621,-10.943 -48.921,-10.943 -67.652,0 -6.28,3.6848 -10.467,8.0397 -12.45,12.7295 h -1.543 v 6.2531 c -0.33,7.4814 4.297,14.9628 13.993,20.6578 18.621,10.943 48.921,10.943 67.652,0 9.366,-5.472 13.993,-12.6181 13.993,-19.7645 z"
     fill="#ff7d3a"
     id="path133" />
  <path
     d="m 524.88574,155.38186 h -1.212 c -1.873,-5.0248 -6.17,-9.7147 -12.781,-13.6229 -18.621,-10.9429 -48.921,-10.9429 -67.652,0 -6.28,3.6849 -10.467,8.0397 -12.45,12.7296 h -1.543 v 6.2531 c -0.33,7.4813 4.297,14.963 13.993,20.658 18.621,10.942 48.921,10.942 67.652,0 9.366,-5.472 13.993,-12.6184 13.993,-19.7647 z"
     fill="#ff7d3a"
     id="path134" />
  <path
     d="m 523.77874,155.61906 c -0.111,-0.2206 -0.111,-0.3308 -0.221,-0.5514 v -3.9698 h -2.547 v -0.3308 c -0.664,-0.8822 -1.328,-1.6541 -2.103,-2.5363 v 2.7568 h -1.439 v -4.1903 c -0.665,-0.5514 -1.44,-1.213 -2.104,-1.7644 v 5.9547 h -1.439 v -6.9471 c -0.664,-0.4411 -1.439,-0.9925 -2.104,-1.4336 v 8.3807 h -1.439 v -9.2628 c -0.664,-0.4411 -1.439,-0.772 -2.214,-1.1028 v 10.3656 h -1.439 v -11.0272 c -0.665,-0.3308 -1.44,-0.6616 -2.215,-0.8822 v 11.9094 h -1.439 v -9.7039 h -2.214 v 9.7039 h -1.439 v -7.0574 h -2.215 v 7.0574 h -1.439 v -4.4109 h -2.214 v 4.4109 h -1.439 v -1.7643 h -2.214 v 1.7643 h -26.46 v -1.7643 h -2.215 v 1.7643 h -1.439 v -4.4109 h -2.214 v 4.4109 h -1.107 v -7.0574 h -2.214 v 7.0574 h -1.44 v -9.7039 h -2.214 v 9.7039 h -1.439 v -11.9094 c -0.775,0.3308 -1.439,0.6616 -2.214,0.8822 v 11.0272 h -1.44 v -10.3656 c -0.775,0.3308 -1.439,0.7719 -2.214,1.1028 v 9.2628 h -1.218 v -8.3807 c -0.775,0.4411 -1.439,0.8822 -2.103,1.4336 v 7.0574 h -1.439 v -5.9547 c -0.775,0.5514 -1.44,1.213 -2.104,1.7644 v 4.1903 h -1.439 v -2.8671 c -0.775,0.7719 -1.55,1.6541 -2.104,2.5363 v 0.3308 h -2.546 v 3.7493 h -1.107 v 10.2553 c 0.332,1.8746 1.107,3.639 2.103,5.4034 v -6.3958 h 1.44 v 8.6012 c 0.664,0.8822 1.328,1.6541 2.103,2.5364 v -11.1376 h 1.439 v 12.4606 c 0.665,0.552 1.44,1.213 2.104,1.765 v -14.2256 h 1.439 v 15.3276 c 0.664,0.441 1.439,0.993 2.104,1.434 v -16.6514 h 1.439 v 17.5334 c 0.664,0.441 1.439,0.772 2.214,1.103 v -18.6364 h 1.439 v 19.1874 c 0.665,0.331 1.44,0.662 2.215,0.882 v -20.2899 h 1.439 v 20.8419 c 0.664,0.22 1.439,0.551 2.214,0.771 v -21.6129 h 1.439 v 22.0549 c 0.665,0.22 1.44,0.441 2.214,0.661 v -22.6056 h 1.44 v 23.0466 c 0.775,0.221 1.439,0.331 2.214,0.552 v -23.4884 h 1.439 v 23.8184 c 0.775,0.111 1.439,0.221 2.214,0.442 v -24.1501 h 1.44 v 24.3701 c 0.775,0.11 1.439,0.221 2.214,0.331 v -24.7011 h 1.328 v 24.5911 c 0.775,0.11 1.44,0.11 2.215,0.22 v -25.0316 h 1.328 v 25.1416 c 0.775,0 1.439,0.111 2.214,0.111 v -25.2526 h 1.329 v 25.2526 h 2.214 v -25.2526 h 1.329 v 25.2526 c 0.775,0 1.439,0 2.214,-0.111 v -25.1416 h 1.328 v 25.0316 c 0.775,0 1.44,-0.11 2.215,-0.22 v -24.8116 h 1.328 v 24.7006 c 0.775,-0.11 1.439,-0.22 2.214,-0.33 v -24.3706 h 1.44 v 24.1496 c 0.775,-0.11 1.439,-0.221 2.214,-0.441 v -23.8189 h 1.439 v 23.4879 c 0.775,-0.11 1.439,-0.331 2.214,-0.551 v -23.0472 h 1.44 v 22.8262 c 0.775,-0.22 1.439,-0.441 2.214,-0.661 v -22.0549 h 1.439 v 21.6129 c 0.775,-0.22 1.439,-0.551 2.214,-0.771 v -20.8419 h 1.439 v 20.1799 c 0.775,-0.331 1.44,-0.662 2.215,-0.882 v -19.2979 h 1.439 v 18.6359 c 0.775,-0.331 1.439,-0.772 2.214,-1.103 v -17.5329 h 1.439 v 16.6509 c 0.775,-0.441 1.44,-0.882 2.104,-1.433 v -15.3282 h 1.439 v 14.2252 c 0.775,-0.551 1.439,-1.213 2.104,-1.764 v -12.4612 h 1.439 v 11.0273 c 0.775,-0.7719 1.55,-1.6541 2.103,-2.5363 v -8.6013 h 1.44 v 6.3958 c 0.996,-1.7643 1.771,-3.6389 2.103,-5.5136 v -9.3731 z"
     fill="url(#D)"
     opacity="0.48"
     id="path135"
     style="fill:url(#D)" />
  <path
     d="m 477.05874,183.01166 c 26.414,0 47.827,-12.3638 47.827,-27.6152 0,-15.2515 -21.413,-27.6152 -47.827,-27.6152 -26.414,0 -47.827,12.3637 -47.827,27.6152 0,15.2514 21.413,27.6152 47.827,27.6152 z"
     fill="url(#E)"
     id="path136"
     style="fill:url(#E)" />
  <path
     d="m 447.43074,140.02406 c 16.6,-9.6978 43.493,-9.6978 60.094,0 7.968,4.5702 12.063,10.5896 12.395,16.6089 0.332,-6.5767 -3.763,-13.2648 -12.395,-18.2809 -16.601,-9.6978 -43.494,-9.6978 -60.094,0 -8.632,5.0161 -12.838,11.7042 -12.395,18.2809 0.332,-6.0193 4.427,-11.9272 12.395,-16.6089 z"
     fill="#a24011"
     id="path137" />
  <path
     d="m 479.25174,142.82376 v 3.2071 l 15.819,9.0683 v -3.0965 z"
     fill="#f16822"
     id="path138" />
  <path
     d="m 495.07074,152.00226 v 3.0965 l 5.642,-3.207 -0.11,-3.2071 z"
     fill="#f16822"
     id="path139" />
  <path
     d="m 498.83274,154.21456 v 3.207 l 3.872,-2.3223 v -3.2071 z"
     fill="#ffffff"
     id="path140" />
  <path
     d="m 495.18174,156.31556 v 3.2071 l 3.651,-2.1012 v -3.207 z"
     fill="#ffffff"
     id="path141" />
  <path
     d="m 494.73874,156.53666 v 3.2071 l 0.443,-0.2212 v -3.2071 z"
     fill="#ffffff"
     id="path142" />
  <path
     d="m 484.78274,150.78616 0.111,3.2071 9.845,5.7507 v -3.2071 z"
     fill="#ffffff"
     id="path143" />
  <path
     d="m 479.14074,156.97926 v 3.207 l 0.111,-14.1554 v -3.2071 z"
     fill="#f16822"
     id="path144" />
  <path
     d="m 454.80374,156.97906 v 3.2071 h 24.337 v -3.2071 z"
     fill="#f16822"
     id="path145" />
  <path
     d="m 484.78274,156.97916 v 3.2071 l 0.111,-6.193 -0.111,-3.2071 z"
     fill="#ffffff"
     id="path146" />
  <path
     d="m 468.52074,160.18606 v 3.2071 h 10.62 v -3.2071 z"
     fill="#ffffff"
     id="path147" />
  <path
     d="m 479.14074,160.18606 v 3.2071 h 5.642 v -3.2071 z"
     fill="#ffffff"
     id="path148" />
  <path
     d="m 468.52074,160.18606 v 3.2071 l 9.957,5.7507 -0.111,-3.2071 z"
     fill="#f16822"
     id="path149" />
  <path
     d="m 464.87074,169.36506 v 3.2071 l 5.641,-3.3177 v -3.207 z"
     fill="#f16822"
     id="path150" />
  <path
     d="m 454.80374,156.97906 v 3.2071 l 15.709,9.0683 v -3.2071 z"
     fill="#ffffff"
     id="path151" />
  <path
     d="m 476.37574,167.15306 v 3.2071 l 2.102,-1.2165 -0.111,-3.2071 z"
     fill="#ffffff"
     id="path152" />
  <path
     d="m 474.27374,168.36986 0.11,3.0965 1.992,-1.1059 v -3.2071 z"
     fill="#ffffff"
     id="path153" />
  <path
     d="m 458.12174,144.70356 c -10.399,5.9719 -10.509,15.8143 -0.11,21.7861 0.11,0 0.11,0.1106 0.221,0.1106 0.11,0.1106 0.221,0.1106 0.221,0.1106 0.111,0.1106 0.221,0.1106 0.221,0.1106 1.881,0.9953 3.983,1.88 6.195,2.5435 l 5.642,-3.207 -15.709,-9.1789 h 24.449 l 0.11,-14.1555 15.709,9.1789 5.642,-3.2071 c -1.106,-1.2164 -2.544,-2.4329 -4.204,-3.5388 -0.11,-0.1106 -0.11,-0.1106 -0.221,-0.1106 -0.11,-0.1106 -0.221,-0.1106 -0.221,-0.1106 -0.111,-0.1106 -0.221,-0.1106 -0.332,-0.1106 -10.399,-6.193 -27.214,-6.193 -37.613,-0.2212 z"
     fill="#f16822"
     id="path154" />
  <path
     d="m 454.80374,156.97926 15.709,9.1789 -5.642,3.207 c 1.77,0.553 3.65,0.8848 5.642,1.2165 l 3.871,-2.2118 1.992,-1.2164 1.991,-1.2165 -9.956,-5.7507 h 10.62 5.642 v -3.207 -6.193 l 9.956,5.7506 0.443,-0.2212 3.65,-2.1012 3.872,-2.2118 c -0.442,-1.1059 -1.106,-2.2118 -1.991,-3.2071 l -5.642,3.2071 -15.709,-9.1789 -0.111,14.1555 z"
     fill="#ffffff"
     id="path155" />
  <path
     d="m 470.51174,170.58146 v 3.2071 l 3.872,-2.3224 -0.11,-3.0965 z"
     fill="#ffffff"
     id="path156" />
  <path
     d="m 464.86974,169.36526 v 3.207 c -2.212,-0.6635 -4.203,-1.4376 -6.195,-2.5435 0,0 -0.11,-0.1106 -0.221,-0.1106 0,0 -0.111,0 -0.221,-0.1106 -0.111,0 -0.111,-0.1106 -0.221,-0.1106 -5.089,-2.9859 -7.744,-6.8565 -7.744,-10.8377 v -3.2071 c 0,3.8706 2.544,7.8518 7.744,10.8377 0.11,0 0.11,0.1106 0.221,0.1106 0.11,0.1106 0.221,0.1106 0.221,0.1106 0.111,0.1106 0.221,0.1106 0.221,0.1106 1.992,1.1059 3.983,1.88 6.195,2.5436 z m 0,3.207 c 1.77,0.553 3.651,0.8848 5.642,1.2165 v -3.2071 c -1.88,-0.2211 -3.761,-0.6635 -5.642,-1.2164 z m 38.609,-17.0307 c 0,3.9812 -2.655,7.9624 -7.855,10.9483 -6.858,3.9812 -16.372,5.3083 -25.112,4.0918 v 3.2071 c 8.74,1.2169 18.254,-0.1106 25.112,-4.0918 5.2,-2.9859 7.855,-6.9671 7.855,-10.9483 z"
     fill="#d84b0e"
     id="path157" />
  <path
     d="m 468.52074,160.18626 9.957,5.7507 -1.992,1.2164 -1.991,1.2165 -3.872,2.2118 c 8.74,1.2165 18.253,-0.1106 25.112,-4.0918 6.859,-3.9812 9.182,-9.5107 7.08,-14.4872 l -3.872,2.2118 -3.65,2.1012 -0.553,0.2212 -9.957,-5.7507 v 6.193 3.2071 h -5.642 z"
     fill="#f16822"
     id="path158" />
  <path
     d="m 536.05674,74.995666 c 0,1.08142 -0.588,2.06452 -1.501,2.62161 l -56.25,32.606284 c -0.913,0.5244 -2.088,0.5244 -3.001,0 l -56.772,-32.966754 c -0.62,-0.36047 -1.044,-0.88479 -1.272,-1.474658 l 0.914,142.085512 c 0,0 -0.327,1.245 2.251,2.556 l 53.965,31.361 c 2.154,1.245 4.764,1.245 6.917,0 l 55.663,-32.082 z"
     fill="url(#F)"
     opacity="0.3"
     id="path159"
     style="fill:url(#F)" />
  <path
     d="m 782.209,224.899 -1.689,-0.961 h -0.241 l -14.717,-8.409 h 0.241 l -1.689,-0.962 h -0.241 l -14.718,-8.409 h 0.241 l -1.689,-0.961 h -0.241 l -14.718,-8.41 h 0.242 l -1.689,-0.961 h -0.242 l -14.717,-8.41 h 0.241 l -1.689,-0.961 h -0.241 l -14.718,-8.41 h 0.241 l -1.689,-0.961 h -0.241 l -14.717,-8.41 h 0.241 l -1.689,-0.961 h -0.241 l -14.718,-8.409 h 0.241 l -1.689,-0.961 h -0.241 l -14.718,-8.41 h 0.242 l -1.689,-0.961 h -0.242 l -14.717,-8.41 h 0.241 l -1.689,-0.961 h -0.241 l -14.718,-8.41 h 0.241 l -1.689,-0.961 h -0.241 l -14.718,-8.41 h 0.242 l -1.689,-0.961 h -0.241 l -14.718,-8.409 h 0.241 l -1.689,-0.961 H 583.4 l -14.718,-8.41 h 0.241 l 0.724,-0.24 h -0.241 l -14.718,-8.410099 h 0.242 L 553.241,93.4678 h -0.242 l -14.717,-8.409699 h 0.241 l -1.689,-0.9611 h -0.241 l -14.718,-8.4097 h 0.241 l -1.689,-0.9611 h -0.241 l -14.718,-8.4097 h 0.242 L 504.021,65.3553 h -0.241 l -13.753,-8.1694 h 0.241 l -1.689,-0.9611 h -0.241 L 473.62,47.8152 h 0.242 l -1.689,-0.9612 h -0.242 l -14.717,-8.4097 h 0.241 l -1.689,-0.9611 h -0.241 l -14.718,-8.4097 h 0.241 l -1.689,-0.9611 h -0.241 l -14.717,-8.4097 h 0.241 l -1.689,-0.9611 h -0.241 l -14.718,-8.4097 h 0.241 l -1.689,-0.96107 h -0.241 l -14.718,-8.4097 h 0.242 L 390.14,0 h -0.242 l -1.689,0.96113 -14.717,8.4097 -1.689,0.96107 -14.718,8.4097 -1.689,0.9611 -14.717,8.4097 -1.689,0.9611 -14.718,8.4097 -1.689,0.9611 -14.718,8.4097 -1.689,0.9612 -14.717,8.4096 0.723,0.9611 -14.717,8.4097 -1.689,0.961101 -14.718,8.4097 -1.689,0.9612 -14.717,8.4097 -1.689,0.9611 -14.718,8.409599 -1.689,0.961201 -14.718,8.409799 -1.689,0.961 -14.717,8.41 -1.689,0.961 -14.718,8.409 -1.689,0.962 -14.718,8.409 -1.447,0.961 -14.718,8.41 -1.689,0.961 -14.717,8.41 -1.689,0.961 -14.718,8.41 -1.689,0.961 -14.717697,8.409 -1.6889,0.962 -14.717703,8.409 -1.6889,0.961 -14.7177,8.41 -1.6889,0.961 -14.7177,8.41 -1.6889,0.961 -14.7177,8.41 -1.689,0.961 -14.7177,8.41 1.4477,0.24 L 1.9301899,224.178 0.24127,225.14 H 0 l 1.6889199,0.961 h 0.24127 L 16.6479,234.51 h -0.2413 l 1.6889,0.962 h 0.2413 l 14.7177,8.409 h -0.2413 l 1.6889,0.961 h 0.2413 l 14.7177,8.41 h -0.2413 l 1.689,0.961 H 51.15 l 14.7177,8.41 h -0.2412 l 1.6889,0.961 h 0.2412 l 14.7177,8.41 h -0.2412 l 1.6889,0.961 h 0.2413 l 14.717603,8.409 h -0.2412 l 1.689297,0.962 h 0.241 l 14.718,8.409 h -0.242 l 1.689,0.961 h 0.241 l 14.718,8.41 h -0.241 l 1.689,0.961 h 0.241 l 14.718,8.41 h -0.241 l 1.688,0.961 h 0.242 l 14.717,8.41 h -0.241 l 1.689,0.961 h 0.241 l 14.718,8.409 h -0.241 l 1.689,0.962 h 0.241 l 14.718,8.409 h -0.242 l 1.689,0.961 h 0.242 l 14.717,8.41 h -0.241 l 1.689,0.961 h 0.241 l 14.718,8.41 h -0.241 l 1.689,0.961 h 0.241 l 14.717,8.41 h -0.241 l 1.689,0.961 h 0.241 l 14.718,8.409 h -0.241 l 1.689,0.962 h 0.241 l 14.718,8.409 h -0.242 l 1.689,0.961 h 0.242 l 14.717,8.41 h -0.241 l 1.689,0.961 h 0.241 l 14.718,8.41 h -0.241 l 1.689,0.961 h 0.241 l 14.718,8.41 h -0.242 l 1.689,0.961 h 0.241 l 14.718,8.409 h -0.241 l 1.689,0.962 h 0.241 l 14.718,8.409 h -0.242 l 1.689,0.961 h 0.242 l 14.717,8.41 h -0.241 l 1.689,0.961 h 0.241 l 14.718,8.41 h -0.241 l 1.689,0.961 0.724,-0.48 1.206,-0.721 15.683,-8.891 0.482,-0.24 14.718,-8.41 1.689,-0.961 14.717,-8.409 1.207,-0.721 14.959,-8.65 0.724,-0.481 15.441,-8.89 1.689,-0.961 14.718,-8.41 1.447,-0.961 15.201,-8.65 0.965,-0.48 14.717,-8.41 1.689,-0.961 14.718,-8.41 1.448,-0.961 14.717,-8.41 1.689,-0.961 14.718,-8.41 1.689,-0.961 14.718,-8.409 1.689,-0.961 14.717,-8.41 1.689,-0.961 14.718,-8.41 1.689,-0.961 14.717,-8.41 1.689,-0.961 14.718,-8.41 1.689,-0.961 14.718,-8.409 1.689,-0.962 14.717,-8.409 1.689,-0.961 14.718,-8.41 1.689,-0.961 14.718,-8.41 1.688,-0.961 14.718,-8.41 1.689,-0.961 14.718,-8.409 1.689,-0.962 14.717,-8.409 1.689,-0.961 14.718,-8.41 z m -19.784,-9.13 -14.718,8.409 -14.717,-8.409 14.717,-8.41 z m -372.768,9.13 -14.718,8.41 -14.717,-8.41 14.717,-8.409 z m -13.029,-9.13 14.718,-8.41 14.718,8.41 -14.718,8.409 z m 14.477,10.091 14.717,8.41 -14.717,8.41 -14.718,-8.41 z m 1.689,-0.961 14.717,-8.409 14.718,8.409 -14.718,8.41 z m 16.165,-9.13 14.718,-8.41 14.717,8.41 -14.717,8.409 z m -1.448,-0.961 -14.717,-8.41 14.717,-8.41 14.718,8.41 z m -16.406,-9.371 -14.718,-8.41 14.718,-8.41 14.717,8.41 z m -1.448,0.961 -14.718,8.41 -14.717,-8.41 14.717,-8.41 z m -16.407,9.371 -14.717,8.409 -14.718,-8.409 14.718,-8.41 z m -16.165,9.13 -14.718,8.41 -14.717,-8.41 14.717,-8.409 z m 1.689,0.961 14.718,8.41 -14.718,8.41 -14.718,-8.41 z m 16.165,9.371 14.718,8.41 -14.718,8.41 -14.717,-8.41 z m 16.166,9.371 14.717,8.41 -14.717,8.409 -14.718,-8.409 z m 1.689,-0.961 14.717,-8.41 14.718,8.41 -14.718,8.41 z m 16.165,-9.371 14.718,-8.41 14.717,8.41 -14.717,8.41 z m 16.165,-9.371 14.718,-8.409 14.718,8.409 -14.718,8.41 z m 16.407,-9.13 14.718,-8.41 14.717,8.41 -14.717,8.409 z m -1.689,-0.961 -14.718,-8.41 14.718,-8.41 14.718,8.41 z m -16.165,-9.371 -14.718,-8.41 14.718,-8.41 14.717,8.41 z m -16.166,-9.371 -14.717,-8.41 14.717,-8.409 14.718,8.409 z m -16.406,-9.371 -14.718,-8.409 14.718,-8.41 14.717,8.41 z m -1.448,0.961 -14.718,8.41 -14.717,-8.41 14.717,-8.409 z m -16.407,9.371 -14.717,8.41 -14.718,-8.41 14.718,-8.41 z m -16.165,9.371 -14.718,8.41 -14.717,-8.41 14.717,-8.41 z m -16.165,9.371 -14.718,8.409 -14.718,-8.409 14.718,-8.41 z m -16.166,9.13 -14.717,8.41 -14.718,-8.41 14.718,-8.409 z m 1.689,0.961 14.718,8.41 -14.718,8.41 -14.717,-8.41 z m 16.166,9.371 14.717,8.41 -14.717,8.41 -14.718,-8.41 z m 16.165,9.371 14.718,8.41 -14.718,8.409 -14.718,-8.409 z m 16.165,9.371 14.718,8.41 -14.718,8.409 -14.717,-8.409 z m 16.166,9.13 14.717,8.41 -14.717,8.41 -14.718,-8.41 z m 1.689,-0.72 14.717,-8.41 14.718,8.41 -14.718,8.409 z m 16.165,-9.371 14.718,-8.41 14.717,8.41 -14.717,8.409 z m 16.165,-9.371 14.718,-8.41 14.718,8.41 -14.718,8.41 z m 16.407,-9.371 14.718,-8.41 14.717,8.41 -14.717,8.41 z m 16.165,-9.371 14.718,-8.409 14.718,8.409 -14.718,8.41 z m 16.166,-9.13 14.717,-8.41 14.718,8.41 -14.718,8.409 z m -1.689,-0.961 -14.718,-8.41 14.718,-8.41 14.717,8.41 z m -16.166,-9.371 -14.717,-8.41 14.717,-8.41 14.718,8.41 z m -16.165,-9.371 -14.718,-8.41 14.718,-8.409 14.718,8.409 z m -16.165,-9.371 -14.718,-8.409 14.718,-8.41 14.717,8.41 z m -16.166,-9.13 -14.717,-8.41 14.717,-8.41 14.718,8.41 z m -16.406,-9.371 -14.718,-8.41 14.718,-8.409 14.717,8.409 z m -1.448,0.961 -14.718,8.41 -14.717,-8.41 14.717,-8.41 z m -16.407,9.131 -14.717,8.409 -14.718,-8.409 14.718,-8.41 z m -16.165,9.37 -14.718,8.41 -14.717,-8.41 14.717,-8.409 z m -16.165,9.371 -14.718,8.41 -14.718,-8.41 14.718,-8.41 z m -16.166,9.371 -14.717,8.41 -14.718,-8.41 14.718,-8.41 z m -16.165,9.371 -14.718,8.409 -14.717,-8.409 14.717,-8.41 z m -16.407,9.13 -14.717,8.41 -14.718,-8.41 14.718,-8.409 z m 1.689,0.961 14.718,8.41 -14.718,8.41 -14.717,-8.41 z m 16.166,9.371 14.717,8.41 -14.717,8.41 -14.718,-8.41 z m 16.406,9.371 14.718,8.41 -14.718,8.409 -14.717,-8.409 z m 16.166,9.371 14.717,8.41 -14.717,8.409 -14.718,-8.409 z m 16.165,9.13 14.718,8.41 -14.718,8.41 -14.718,-8.41 z m 16.165,9.371 14.718,8.41 -14.718,8.41 -14.717,-8.41 z m 16.166,9.371 14.717,8.41 -14.717,8.409 -14.477,-8.409 z m 1.689,-0.961 14.717,-8.41 14.718,8.41 -14.718,8.41 z m 16.165,-9.371 14.718,-8.41 14.717,8.41 -14.717,8.41 z m 16.165,-9.13 14.718,-8.41 14.718,8.41 -14.718,8.409 z m 16.407,-9.371 14.718,-8.41 14.717,8.41 -14.717,8.409 z m 16.165,-9.371 14.718,-8.41 14.718,8.41 -14.718,8.41 z m 16.166,-9.371 14.717,-8.41 14.718,8.41 -14.718,8.41 z m 16.165,-9.371 14.718,-8.409 14.717,8.409 -14.717,8.41 z m 16.407,-9.13 14.717,-8.41 14.718,8.41 -14.718,8.409 z m -1.689,-0.961 -14.718,-8.41 14.718,-8.41 14.717,8.41 z m -16.166,-9.371 -14.717,-8.41 14.717,-8.41 14.718,8.41 z m -16.406,-9.371 -14.718,-8.41 14.718,-8.409 14.717,8.409 z m -16.166,-9.371 -14.717,-8.409 14.717,-8.41 14.718,8.41 z m -16.165,-9.13 -14.718,-8.41 14.718,-8.41 14.718,8.41 z m -16.165,-9.371 -14.718,-8.41 14.718,-8.409 14.717,8.409 z m -16.166,-9.371 -14.717,-8.41 14.717,-8.409 14.718,8.409 z m -16.406,-9.371 -14.718,-8.409 14.718,-8.41 14.717,8.41 z m -1.448,0.961 -14.718,8.41 -14.717,-8.41 14.717,-8.409 z m -16.407,9.371 -14.717,8.41 -14.718,-8.41 14.718,-8.409 z m -16.165,9.371 -14.718,8.41 -14.717,-8.41 14.717,-8.41 z m -16.165,9.131 -14.718,8.409 -14.718,-8.409 14.718,-8.41 z m -16.166,9.37 -14.717,8.41 -14.718,-8.41 14.718,-8.409 z m -16.165,9.371 -14.718,8.41 -14.717,-8.41 14.717,-8.41 z m -16.407,9.371 -14.717,8.41 -14.718,-8.41 14.718,-8.41 z m -16.165,9.371 -14.718,8.409 -14.717,-8.409 14.717,-8.41 z m -16.165,9.13 -14.718,8.41 -14.718,-8.41 14.718,-8.409 z m 1.689,0.961 14.717,8.41 -14.717,8.41 -14.718,-8.41 z m 16.165,9.371 14.718,8.41 -14.718,8.41 -14.718,-8.41 z m 16.165,9.371 14.718,8.41 -14.718,8.409 -14.717,-8.409 z m 16.166,9.371 14.717,8.41 -14.717,8.409 -14.718,-8.409 z m 16.406,9.13 14.718,8.41 -14.718,8.41 -14.717,-8.41 z m 16.166,9.371 14.717,8.41 -14.717,8.41 -14.718,-8.41 z m 16.165,9.371 14.718,8.41 -14.718,8.409 -14.718,-8.409 z m 16.165,9.371 14.718,8.409 -14.718,8.41 -14.717,-8.41 z m 16.166,9.371 14.717,8.409 -14.717,8.41 -14.718,-8.41 z m 1.689,-0.962 14.717,-8.409 14.718,8.409 -14.718,8.41 z m 16.165,-9.37 14.718,-8.41 14.717,8.41 -14.717,8.409 z m 16.165,-9.371 14.718,-8.41 14.718,8.41 -14.718,8.41 z m 16.407,-9.371 14.718,-8.41 14.717,8.41 -14.717,8.41 z m 16.165,-9.13 14.718,-8.41 14.718,8.41 -14.718,8.409 z m 16.166,-9.371 14.717,-8.41 14.718,8.41 -14.718,8.409 z m 16.165,-9.371 14.718,-8.41 14.717,8.41 -14.717,8.41 z m 16.407,-9.371 14.717,-8.41 14.718,8.41 -14.718,8.41 z m 16.165,-9.371 14.718,-8.409 14.717,8.409 -14.717,8.41 z m 16.165,-9.13 14.718,-8.41 14.718,8.41 -14.718,8.409 z m -1.689,-0.961 -14.717,-8.41 14.717,-8.41 14.718,8.41 z m -16.165,-9.371 -14.718,-8.41 14.718,-8.41 14.718,8.41 z m -16.165,-9.371 -14.718,-8.41 14.718,-8.409 14.717,8.409 z m -16.166,-9.371 -14.717,-8.409 14.717,-8.41 14.718,8.41 z m -16.406,-9.13 -14.718,-8.41 14.718,-8.41 14.717,8.41 z m -16.166,-9.371 -14.717,-8.41 14.717,-8.409 14.718,8.409 z m -16.165,-9.371 -14.718,-8.41 14.718,-8.409 14.718,8.409 z m -16.165,-9.371 -14.718,-8.409 14.718,-8.41 14.717,8.41 z m -16.166,-9.37 -14.717,-8.41 14.717,-8.41 14.718,8.41 z m -16.406,-9.371 -14.718,-8.41 14.718,-8.41 14.717,8.41 z m -1.448,0.961 -14.718,8.41 -14.717,-8.41 14.717,-8.41 z m -16.407,9.371 -14.717,8.409 -14.718,-8.409 14.718,-8.41 z m -16.165,9.37 -14.718,8.41 -14.717,-8.41 14.717,-8.409 z m -16.165,9.371 -14.718,8.41 -14.718,-8.41 14.718,-8.409 z m -16.166,9.371 -14.717,8.41 -14.718,-8.41 14.718,-8.41 z m -16.165,9.131 -14.718,8.409 -14.717,-8.409 14.717,-8.41 z m -16.407,9.37 -14.717,8.41 -14.718,-8.41 14.718,-8.409 z m -16.165,9.371 -14.718,8.41 -14.717,-8.41 14.717,-8.41 z m -16.165,9.371 -14.718,8.41 -14.718,-8.41 14.718,-8.41 z m -16.166,9.371 -14.717,8.409 -14.718,-8.409 14.718,-8.41 z m -16.165,9.13 -14.718,8.41 -14.717,-8.41 14.717,-8.409 z m 1.448,0.961 14.717,8.41 -14.717,8.41 -14.718,-8.41 z m 16.165,9.371 14.718,8.41 -14.718,8.41 -14.718,-8.41 z m 16.407,9.371 14.717,8.41 -14.717,8.409 -14.718,-8.409 z m 16.165,9.371 14.718,8.41 -14.718,8.409 -14.718,-8.409 z m 16.165,9.13 14.718,8.41 -14.718,8.41 -14.717,-8.41 z m 16.166,9.371 14.717,8.41 -14.717,8.41 -14.718,-8.41 z m 16.406,9.371 14.718,8.41 -14.718,8.409 -14.717,-8.409 z m 16.166,9.371 14.717,8.409 -14.717,8.41 -14.718,-8.41 z m 16.165,9.371 14.718,8.409 -14.718,8.41 -14.718,-8.41 z m 16.165,9.13 14.718,8.41 -14.718,8.41 -14.717,-8.41 z m 16.166,9.371 14.717,8.41 -14.717,8.409 -14.718,-8.409 z m 1.689,-0.961 14.717,-8.41 14.718,8.41 -14.718,8.41 z m 16.165,-9.131 14.718,-8.409 14.717,8.409 -14.717,8.41 z m 16.165,-9.371 14.718,-8.409 14.718,8.409 -14.718,8.41 z m 16.407,-9.37 14.718,-8.41 14.717,8.41 -14.717,8.409 z m 16.165,-9.371 14.718,-8.41 14.718,8.41 -14.718,8.41 z m 16.166,-9.371 14.717,-8.41 14.718,8.41 -14.718,8.41 z m 16.165,-9.13 14.718,-8.41 14.717,8.41 -14.717,8.409 z m 16.407,-9.371 14.717,-8.41 14.718,8.41 -14.718,8.409 z m 16.165,-9.371 14.718,-8.41 14.717,8.41 -14.717,8.41 z m 16.165,-9.371 14.718,-8.41 14.718,8.41 -14.718,8.41 z m 16.166,-9.371 14.717,-8.409 14.718,8.409 -14.718,8.41 z m 16.165,-9.13 14.718,-8.41 14.717,8.41 -14.717,8.409 z m -1.448,-0.961 -14.717,-8.41 14.717,-8.41 14.718,8.41 z m -16.406,-9.371 -14.718,-8.41 14.718,-8.41 14.717,8.41 z m -16.166,-9.371 -14.717,-8.41 14.717,-8.409 14.718,8.409 z m -16.165,-9.371 -14.718,-8.409 14.718,-8.41 14.718,8.41 z m -16.165,-9.13 -14.718,-8.41 14.718,-8.41 14.717,8.41 z m -16.166,-9.371 -14.717,-8.41 14.717,-8.409 14.718,8.409 z m -16.406,-9.371 -14.718,-8.41 14.718,-8.409 14.717,8.409 z m -16.166,-9.371 -14.717,-8.409 14.717,-8.41 14.718,8.41 z m -16.165,-9.37 -14.718,-8.41 14.718,-8.41 14.718,8.41 z m -16.165,-9.371 -14.718,-8.41 14.718,-8.41 14.717,8.41 z m -16.166,-9.131 -14.717,-8.409 14.717,-8.41 14.718,8.41 z M 391.105,112.209 376.387,103.8 391.105,95.390001 405.822,103.8 Z m -1.448,0.962 -14.718,8.409 -14.717,-8.409 14.717,-8.41 z m -16.407,9.37 -14.717,8.41 -14.718,-8.41 14.718,-8.409 z m -16.165,9.131 -14.718,8.41 -14.717,-8.41 14.717,-8.41 z m -16.165,9.371 -14.718,8.409 -14.718,-8.409 14.718,-8.41 z m -16.166,9.37 -14.717,8.41 -14.718,-8.41 14.718,-8.409 z m -16.165,9.371 -14.718,8.41 -14.717,-8.41 14.717,-8.409 z m -16.407,9.371 -14.476,8.169 -14.718,-8.409 14.718,-8.41 z m -16.165,9.131 -14.718,8.409 -14.717,-8.409 14.717,-8.41 z m -16.165,9.37 -14.718,8.41 -14.718,-8.41 14.718,-8.409 z m -16.166,9.371 -14.717,8.41 -14.718,-8.41 14.718,-8.41 z m -16.165,9.371 -14.718,8.41 -14.717,-8.41 14.717,-8.41 z m -16.406,9.371 -14.718,8.409 -14.718,-8.409 14.718,-8.41 z m -16.166,9.13 -14.718,8.41 -14.717,-8.41 14.717,-8.409 z m 1.689,0.961 14.718,8.41 -14.718,8.41 -14.718,-8.41 z m 16.165,9.371 14.718,8.41 -14.718,8.41 -14.717,-8.41 z m 16.166,9.371 14.717,8.41 -14.717,8.409 -14.718,-8.409 z m 16.165,9.371 14.718,8.41 -14.718,8.409 -14.718,-8.409 z m 16.407,9.13 14.717,8.41 -14.717,8.41 -14.718,-8.41 z m 16.165,9.371 14.718,8.41 -14.718,8.41 -14.718,-8.41 z m 16.165,9.371 14.718,8.41 -14.718,8.409 -14.717,-8.409 z m 16.166,9.371 14.717,8.409 -14.717,8.41 -14.718,-8.41 z m 16.406,9.371 14.718,8.409 -14.718,8.41 -14.717,-8.41 z m 16.166,9.13 14.717,8.41 -14.717,8.41 -14.718,-8.41 z m 16.165,9.371 14.718,8.41 -14.718,8.409 -14.718,-8.409 z m 16.165,9.371 14.718,8.409 -14.718,8.41 -14.717,-8.41 z m 16.166,9.371 14.717,8.409 -14.717,8.41 -14.718,-8.41 z m 1.689,-0.962 14.717,-8.409 14.718,8.409 -14.718,8.41 z m 16.165,-9.37 14.718,-8.41 14.717,8.41 -14.717,8.409 z m 16.165,-9.371 14.718,-8.41 14.718,8.41 -14.718,8.41 z m 16.407,-9.131 14.718,-8.409 14.717,8.409 -14.717,8.41 z m 16.165,-9.371 14.718,-8.409 14.718,8.409 -14.718,8.41 z m 16.166,-9.37 14.717,-8.41 14.718,8.41 -14.718,8.409 z m 16.165,-9.371 14.718,-8.41 14.717,8.41 -14.717,8.41 z m 16.407,-9.371 14.717,-8.41 14.718,8.41 -14.718,8.41 z m 16.165,-9.13 14.718,-8.41 14.717,8.41 -14.717,8.409 z m 16.165,-9.371 14.718,-8.41 14.718,8.41 -14.718,8.409 z m 16.166,-9.371 14.717,-8.41 14.718,8.41 -14.718,8.41 z m 16.165,-9.371 14.718,-8.41 14.717,8.41 -14.717,8.41 z m 16.407,-9.371 14.717,-8.409 14.718,8.409 -14.718,8.41 z m 16.165,-9.13 14.718,-8.41 14.717,8.41 -14.717,8.409 z m -1.689,-0.961 -14.718,-8.41 14.718,-8.41 14.718,8.41 z m -16.165,-9.371 -14.718,-8.41 14.718,-8.41 14.717,8.41 z m -16.166,-9.371 -14.717,-8.41 14.717,-8.409 14.718,8.409 z m -16.406,-9.371 -14.718,-8.409 14.718,-8.41 14.717,8.41 z m -16.166,-9.13 -14.717,-8.41 14.717,-8.41 14.718,8.41 z m -16.165,-9.371 -14.718,-8.41 14.718,-8.409 14.718,8.409 z m -16.165,-9.371 -14.718,-8.41 14.718,-8.409 14.717,8.409 z m -16.166,-9.371 -14.717,-8.409 14.717,-8.41 14.718,8.41 z m -16.406,-9.37 -14.718,-8.41 14.718,-8.41 14.717,8.41 z m -16.166,-9.371 -14.717,-8.41 14.717,-8.41 14.718,8.41 z m -16.165,-9.131 -14.718,-8.409 14.718,-8.41 14.718,8.41 z M 423.677,112.209 408.959,103.8 423.677,95.390001 438.394,103.8 Z m -16.166,-9.37 -14.717,-8.410099 14.717,-8.4097 14.718,8.4097 z m -16.406,-9.3712 -14.718,-8.409699 14.718,-8.4097 14.717,8.4097 z m -1.448,0.961101 -14.718,8.410099 -14.717,-8.410099 14.717,-8.4097 z M 373.25,103.8 l -14.717,8.409 -14.718,-8.409 14.718,-8.409999 z m -16.165,9.371 -14.718,8.409 -14.717,-8.409 14.717,-8.41 z m -16.165,9.37 -14.718,8.41 -14.718,-8.41 14.718,-8.409 z m -16.166,9.131 -14.717,8.41 -14.718,-8.41 14.718,-8.41 z m -16.165,9.371 -14.718,8.409 -14.717,-8.409 14.717,-8.41 z m -16.407,9.37 -14.717,8.41 -14.718,-8.41 14.718,-8.409 z m -16.165,9.371 -14.718,8.41 -14.717,-8.41 14.717,-8.409 z m -16.165,9.371 -14.718,8.41 -14.718,-8.41 14.718,-8.41 z m -16.166,9.131 -14.717,8.409 -14.718,-8.409 14.718,-8.41 z m -16.165,9.37 -14.718,8.41 -14.717,-8.41 14.717,-8.409 z m -16.406,9.371 -14.718,8.41 -14.718,-8.41 14.718,-8.41 z m -16.166,9.371 -14.718,8.41 -14.717,-8.41 14.717,-8.41 z m -16.165,9.371 -14.718,8.409 -14.718,-8.409 14.718,-8.41 z m -16.166,9.13 -14.717,8.41 -14.718,-8.41 14.718,-8.409 z m 1.448,0.961 14.718,8.41 -14.718,8.41 -14.718,-8.41 z m 16.407,9.371 14.717,8.41 -14.717,8.41 -14.718,-8.41 z m 16.165,9.371 14.718,8.41 -14.718,8.409 -14.718,-8.409 z m 16.165,9.371 14.718,8.41 -14.718,8.409 -14.717,-8.409 z m 16.166,9.13 14.717,8.41 -14.717,8.41 -14.718,-8.41 z m 16.165,9.371 14.718,8.41 -14.718,8.41 -14.718,-8.41 z m 16.407,9.371 14.717,8.41 -14.717,8.409 -14.718,-8.409 z m 16.165,9.371 14.718,8.409 -14.718,8.41 -14.718,-8.41 z m 16.165,9.371 14.718,8.409 -14.718,8.41 -14.717,-8.41 z m 16.166,9.13 14.717,8.41 -14.717,8.41 -14.718,-8.41 z m 16.406,9.371 14.718,8.41 -14.718,8.409 -14.717,-8.409 z m 16.166,9.371 14.717,8.409 -14.717,8.41 -14.718,-8.41 z m 16.165,9.371 14.718,8.409 -14.718,8.41 -14.718,-8.41 z m 16.165,9.37 14.718,8.41 -14.718,8.41 -14.717,-8.41 z m 16.166,9.371 14.717,8.41 -14.717,8.41 -14.477,-8.65 z m 1.689,-0.961 14.717,-8.41 14.718,8.41 -14.718,8.41 z m 16.165,-9.371 14.718,-8.409 14.717,8.409 -14.717,8.41 z m 16.165,-9.371 14.718,-8.409 14.718,8.409 -14.718,8.41 z m 16.407,-9.37 14.718,-8.41 14.717,8.41 -14.717,8.409 z m 16.165,-9.371 14.718,-8.41 14.718,8.41 -14.718,8.41 z m 16.166,-9.131 14.717,-8.409 14.718,8.409 -14.718,8.41 z m 16.165,-9.371 14.718,-8.409 14.717,8.409 -14.717,8.41 z m 16.407,-9.37 14.717,-8.41 14.718,8.41 -14.718,8.409 z m 16.165,-9.371 14.718,-8.41 14.717,8.41 -14.717,8.41 z m 16.165,-9.371 14.718,-8.41 14.718,8.41 -14.718,8.41 z m 16.166,-9.13 14.717,-8.41 14.718,8.41 -14.718,8.409 z m 16.165,-9.371 14.718,-8.41 14.717,8.41 -14.717,8.409 z m 16.407,-9.371 14.717,-8.41 14.718,8.41 -14.718,8.41 z m 16.165,-9.371 14.718,-8.41 14.717,8.41 -14.717,8.41 z m 16.165,-9.371 14.718,-8.409 14.718,8.409 -14.718,8.41 z m 16.166,-9.13 14.717,-8.41 14.718,8.41 -14.718,8.409 z m -1.689,-0.961 -14.718,-8.41 14.718,-8.41 14.717,8.41 z m -16.166,-9.371 -14.717,-8.41 14.717,-8.41 14.718,8.41 z m -16.165,-9.371 -14.718,-8.41 14.718,-8.409 14.718,8.409 z m -16.165,-9.371 -14.718,-8.409 14.718,-8.41 14.717,8.41 z m -16.166,-9.13 -14.717,-8.41 14.717,-8.41 14.718,8.41 z m -16.406,-9.371 -14.718,-8.41 14.718,-8.409 14.717,8.409 z m -16.166,-9.371 -14.717,-8.41 14.717,-8.409 14.718,8.409 z m -16.165,-9.371 -14.718,-8.409 14.718,-8.41 14.718,8.41 z m -16.165,-9.37 -14.718,-8.41 14.718,-8.41 14.717,8.41 z m -16.166,-9.371 -14.717,-8.41 14.717,-8.41 14.718,8.41 z m -16.406,-9.131 -14.718,-8.409 14.718,-8.41 14.717,8.41 z M 456.007,112.209 441.29,103.8 456.007,95.390001 470.725,103.8 Z m -16.165,-9.37 -14.718,-8.410099 14.718,-8.4097 14.718,8.4097 z m -16.165,-9.3712 -14.718,-8.409699 14.718,-8.4097 14.717,8.4097 z m -16.166,-9.370799 -14.717,-8.4097 14.717,-8.4097 14.718,8.4097 z m -16.406,-9.1306 -14.718,-8.4097 14.718,-8.409701 14.717,8.409701 z m -1.448,0.9612 -14.718,8.4097 -14.717,-8.4097 14.717,-8.4097 z m -16.407,9.1305 -14.717,8.409699 -14.718,-8.409699 14.718,-8.4097 z m -16.165,9.3708 -14.718,8.410099 -14.717,-8.410099 14.717,-8.4097 z M 340.92,103.8 l -14.718,8.409 -14.718,-8.409 14.718,-8.409999 z m -16.166,9.371 -14.717,8.409 -14.718,-8.409 14.718,-8.41 z m -16.165,9.37 -14.718,8.41 -14.717,-8.41 14.717,-8.409 z m -16.407,9.131 -14.717,8.41 -14.718,-8.41 14.718,-8.41 z m -16.165,9.371 -14.718,8.409 -14.717,-8.409 14.717,-8.41 z m -16.165,9.37 -14.718,8.41 -14.718,-8.41 14.718,-8.409 z m -16.166,9.371 -14.717,8.41 -14.718,-8.41 14.718,-8.409 z m -16.165,9.371 -14.718,8.41 -14.717,-8.41 14.717,-8.41 z m -16.406,9.131 -14.718,8.409 -14.718,-8.409 14.718,-8.41 z m -16.166,9.37 -14.718,8.41 -14.717,-8.41 14.717,-8.409 z m -16.165,9.371 -14.718,8.41 -14.718,-8.41 14.718,-8.41 z m -16.166,9.371 -14.717,8.41 -14.718,-8.41 14.718,-8.41 z m -16.165,9.371 -14.718,8.409 -14.717,-8.409 14.717,-8.41 z m -16.406,9.13 -14.718,8.41 -14.718,-8.41 14.718,-8.409 z m 1.688,0.961 14.718,8.41 -14.718,8.41 -14.717,-8.41 z m 16.166,9.371 14.717,8.41 -14.717,8.41 -14.718,-8.41 z m 16.165,9.371 14.718,8.41 -14.718,8.409 -14.718,-8.409 z m 16.407,9.371 14.717,8.41 -14.717,8.409 -14.718,-8.409 z m 16.165,9.13 14.718,8.41 -14.718,8.41 -14.718,-8.41 z m 16.165,9.371 14.718,8.41 -14.718,8.41 -14.717,-8.41 z m 16.166,9.371 14.717,8.41 -14.717,8.409 -14.718,-8.409 z m 16.165,9.371 14.718,8.409 -14.718,8.41 -14.718,-8.41 z m 16.407,9.371 14.717,8.409 -14.717,8.41 -14.718,-8.41 z m 16.165,9.13 14.718,8.41 -14.718,8.41 -14.718,-8.41 z m 16.165,9.371 14.718,8.41 -14.718,8.409 -14.717,-8.409 z m 16.166,9.371 14.717,8.409 -14.717,8.41 -14.718,-8.41 z m 16.406,9.371 14.718,8.409 -14.718,8.41 -14.717,-8.41 z m 16.166,9.37 14.717,8.41 -14.717,8.41 -14.718,-8.41 z m 16.165,9.131 14.718,8.41 -14.718,8.409 -14.718,-8.409 z m 16.165,9.371 14.718,8.409 -14.718,8.41 -14.717,-8.41 z m 16.166,9.37 14.717,8.41 -14.717,8.41 -14.718,-8.41 z m 1.689,-0.961 14.717,-8.409 14.718,8.409 -14.718,8.41 z m 16.165,-9.37 14.718,-8.41 14.717,8.41 -14.717,8.409 z m 16.165,-9.131 14.718,-8.41 14.718,8.41 -14.718,8.41 z m 16.407,-9.371 14.718,-8.409 14.717,8.409 -14.717,8.41 z m 16.165,-9.371 14.718,-8.409 14.718,8.409 -14.718,8.41 z m 16.166,-9.37 14.717,-8.41 14.718,8.41 -14.718,8.409 z m 16.165,-9.371 14.718,-8.41 14.717,8.41 -14.717,8.41 z m 16.407,-9.131 14.717,-8.409 14.718,8.409 -14.718,8.41 z m 16.165,-9.371 14.718,-8.409 14.717,8.409 -14.717,8.41 z m 16.165,-9.37 14.718,-8.41 14.718,8.41 -14.718,8.409 z m 16.166,-9.371 14.717,-8.41 14.718,8.41 -14.718,8.41 z m 16.165,-9.371 14.718,-8.41 14.717,8.41 -14.717,8.41 z m 16.407,-9.13 14.717,-8.41 14.718,8.41 -14.718,8.409 z m 16.165,-9.371 14.718,-8.41 14.717,8.41 -14.717,8.409 z m 16.165,-9.371 14.718,-8.41 14.718,8.41 -14.718,8.41 z m 16.166,-9.371 14.717,-8.41 14.718,8.41 -14.718,8.41 z m 16.165,-9.371 14.718,-8.409 14.717,8.409 -14.717,8.41 z m 16.407,-9.13 14.717,-8.41 14.718,8.41 -14.718,8.409 z m -1.689,-0.961 -14.718,-8.41 14.718,-8.41 14.717,8.41 z m -16.166,-9.371 -14.717,-8.41 14.717,-8.41 14.718,8.41 z m -16.406,-9.371 -14.718,-8.41 14.718,-8.409 14.717,8.409 z m -16.166,-9.371 -14.717,-8.409 14.717,-8.41 14.718,8.41 z m -16.165,-9.13 -14.718,-8.41 14.718,-8.41 14.718,8.41 z m -16.165,-9.371 -14.718,-8.41 14.718,-8.409 14.717,8.409 z m -16.166,-9.371 -14.717,-8.41 14.717,-8.409 14.718,8.409 z m -16.406,-9.371 -14.718,-8.409 14.718,-8.41 14.717,8.41 z m -16.166,-9.37 -14.717,-8.41 14.717,-8.41 14.718,8.41 z m -16.165,-9.371 -14.718,-8.41 14.718,-8.41 14.718,8.41 z m -16.165,-9.131 -14.718,-8.409 14.718,-8.41 14.717,8.41 z M 488.579,112.209 473.862,103.8 488.579,95.390001 503.297,103.8 Z m -16.406,-9.37 -14.718,-8.410099 14.718,-8.4097 14.717,8.4097 z m -16.166,-9.3712 -14.717,-8.409699 14.717,-8.4097 14.718,8.4097 z m -16.165,-9.370799 -14.718,-8.4097 14.718,-8.4097 14.718,8.4097 z m -16.165,-9.1306 -14.718,-8.4097 14.718,-8.409701 14.717,8.409701 z m -16.166,-9.370801 -14.717,-8.4097 14.717,-8.4097 14.718,8.4097 z m -16.406,-9.3708 -14.718,-8.4096 14.718,-8.4097 14.717,8.4097 z m -1.448,0.9611 -14.718,8.4097 -14.717,-8.4097 14.717,-8.4097 z m -16.407,9.370801 -14.717,8.4097 -14.718,-8.4097 14.718,-8.409701 z m -16.165,9.3709 -14.718,8.4097 -14.717,-8.4097 14.717,-8.4097 z m -16.165,9.1305 -14.718,8.409699 -14.718,-8.409699 14.718,-8.4097 z m -16.166,9.3708 -14.717,8.410099 -14.718,-8.410099 14.718,-8.4097 z M 308.589,103.8 l -14.718,8.409 -14.717,-8.409 14.717,-8.409999 z m -16.407,9.371 -14.717,8.409 -14.718,-8.409 14.718,-8.41 z m -16.165,9.37 -14.718,8.41 -14.717,-8.41 14.717,-8.409 z m -16.165,9.131 -14.718,8.41 -14.718,-8.41 14.718,-8.41 z m -16.166,9.371 -14.717,8.409 -14.718,-8.409 14.718,-8.41 z m -16.165,9.37 -14.718,8.41 -14.717,-8.41 14.717,-8.409 z m -16.406,9.371 -14.718,8.41 -14.718,-8.41 14.718,-8.409 z m -16.166,9.371 -14.718,8.41 -14.717,-8.41 14.717,-8.41 z m -16.165,9.131 -14.718,8.409 -14.718,-8.409 14.718,-8.41 z m -16.166,9.37 -14.717,8.41 -14.718,-8.41 14.718,-8.409 z m -16.165,9.371 -14.718,8.41 -14.717,-8.41 14.717,-8.41 z m -16.406,9.371 -14.718,8.41 -14.718,-8.41 14.718,-8.41 z m -16.166,9.371 -14.717497,8.409 -14.476403,-8.409 14.717703,-8.41 z m -16.165097,9.13 -14.717703,8.41 -14.7177,-8.41 14.7177,-8.409 z m 1.6889,0.961 14.717197,8.41 -14.717197,8.41 -14.717703,-8.41 z m 16.165197,9.371 14.718,8.41 -14.718,8.41 -14.718,-8.41 z m 16.165,9.371 14.718,8.41 -14.718,8.409 -14.717,-8.409 z m 16.166,9.371 14.717,8.41 -14.717,8.409 -14.718,-8.409 z m 16.165,9.13 14.718,8.41 -14.718,8.41 -14.718,-8.41 z m 16.407,9.371 14.717,8.41 -14.717,8.41 -14.718,-8.41 z m 16.165,9.371 14.718,8.41 -14.718,8.409 -14.718,-8.409 z m 16.165,9.371 14.718,8.409 -14.718,8.41 -14.717,-8.41 z m 16.166,9.371 14.717,8.409 -14.717,8.41 -14.718,-8.41 z m 16.165,9.13 14.718,8.41 -14.718,8.41 -14.718,-8.41 z m 16.407,9.371 14.717,8.41 -14.717,8.409 -14.718,-8.409 z m 16.165,9.371 14.718,8.409 -14.718,8.41 -14.718,-8.41 z m 16.165,9.371 14.718,8.409 -14.718,8.41 -14.717,-8.41 z m 16.166,9.37 14.717,8.41 -14.717,8.41 -14.718,-8.41 z m 16.406,9.131 14.718,8.41 -14.718,8.409 -14.717,-8.409 z m 16.166,9.371 14.717,8.409 -14.717,8.41 -14.718,-8.41 z m 16.165,9.37 14.718,8.41 -14.718,8.41 -14.718,-8.41 z m 16.165,9.371 14.718,8.41 -14.718,8.41 -14.717,-8.41 z m 16.166,9.371 14.717,8.41 -14.717,8.409 -14.718,-8.409 z m 1.689,-0.961 14.717,-8.41 14.718,8.41 -14.718,8.41 z m 16.165,-9.371 14.718,-8.41 14.717,8.41 -14.717,8.41 z m 16.165,-9.371 14.718,-8.409 14.718,8.409 -14.718,8.41 z m 16.407,-9.37 14.718,-8.41 14.717,8.41 -14.717,8.409 z m 16.165,-9.131 14.718,-8.41 14.718,8.41 -14.718,8.41 z m 16.166,-9.371 14.717,-8.409 14.718,8.409 -14.718,8.41 z m 16.165,-9.371 14.718,-8.409 14.717,8.409 -14.717,8.41 z m 16.407,-9.37 14.717,-8.41 14.718,8.41 -14.718,8.409 z m 16.165,-9.371 14.718,-8.41 14.717,8.41 -14.717,8.41 z m 16.165,-9.131 14.718,-8.409 14.718,8.409 -14.718,8.41 z m 16.166,-9.371 14.717,-8.409 14.718,8.409 -14.718,8.41 z m 16.165,-9.37 14.718,-8.41 14.717,8.41 -14.717,8.409 z m 16.407,-9.371 14.717,-8.41 14.718,8.41 -14.718,8.41 z m 16.165,-9.371 14.718,-8.41 14.717,8.41 -14.717,8.41 z m 16.165,-9.13 14.718,-8.41 14.718,8.41 -14.718,8.409 z m 16.166,-9.371 14.717,-8.41 14.718,8.41 -14.718,8.409 z m 16.165,-9.371 14.718,-8.41 14.717,8.41 -14.717,8.41 z m 16.407,-9.371 14.717,-8.41 14.718,8.41 -14.718,8.41 z m 16.165,-9.371 14.718,-8.409 14.717,8.409 -14.717,8.41 z m 16.165,-9.13 14.718,-8.41 14.718,8.41 -14.718,8.409 z m -1.689,-0.961 -14.717,-8.41 14.717,-8.41 14.718,8.41 z m -16.165,-9.371 -14.718,-8.41 14.718,-8.41 14.718,8.41 z m -16.165,-9.371 -14.718,-8.41 14.718,-8.409 14.717,8.409 z m -16.166,-9.371 -14.717,-8.409 14.717,-8.41 14.718,8.41 z m -16.406,-9.13 -14.718,-8.41 14.718,-8.41 14.717,8.41 z m -16.166,-9.371 -14.717,-8.41 14.717,-8.409 14.718,8.409 z m -16.165,-9.371 -14.718,-8.41 14.718,-8.409 14.718,8.409 z m -16.165,-9.371 -14.718,-8.409 14.718,-8.41 14.717,8.41 z m -16.166,-9.37 -14.717,-8.41 14.717,-8.41 14.718,8.41 z m -16.406,-9.371 -14.718,-8.41 14.718,-8.41 14.717,8.41 z m -16.166,-9.131 -14.717,-8.409 14.717,-8.41 14.718,8.41 z M 520.91,112.209 506.192,103.8 520.91,95.390001 535.628,103.8 Z m -16.165,-9.37 -14.718,-8.410099 14.718,-8.4097 14.717,8.4097 z m -16.166,-9.3712 -14.717,-8.409699 14.717,-8.4097 14.718,8.4097 z m -16.406,-9.370799 -14.718,-8.4097 14.718,-8.4097 14.717,8.4097 z m -16.166,-9.1306 -14.717,-8.4097 14.717,-8.409701 14.718,8.409701 z m -16.165,-9.370801 -14.718,-8.4097 14.718,-8.4097 14.718,8.4097 z m -16.165,-9.3708 -14.718,-8.4096 14.718,-8.4097 14.717,8.4097 z m -16.166,-9.3708 -14.717,-8.4097 14.717,-8.4097 14.718,8.4097 z m -16.406,-9.3708 -14.718,-8.4097 14.718,-8.4097 14.717,8.4097 z m -1.448,0.9611 -14.718,8.4097 -14.717,-8.4097 14.717,-8.4097 z m -16.407,9.3709 -14.717,8.4096 -14.718,-8.4096 14.718,-8.4097 z m -16.165,9.3707 -14.718,8.4097 -14.717,-8.4097 14.717,-8.4097 z m -16.165,9.370801 -14.718,8.4097 -14.718,-8.4097 14.718,-8.409701 z m -16.166,9.3709 -14.717,8.4097 -14.718,-8.4097 14.718,-8.4097 z m -16.165,9.1305 -14.718,8.409699 -14.717,-8.409699 14.717,-8.4097 z m -16.407,9.3708 -14.476,8.410099 -14.718,-8.410099 14.718,-8.4097 z M 276.017,103.8 l -14.718,8.409 -14.717,-8.409 14.717,-8.409999 z m -16.165,9.371 -14.718,8.409 -14.718,-8.409 14.718,-8.41 z m -16.166,9.37 -14.717,8.41 -14.718,-8.41 14.718,-8.409 z m -16.165,9.131 -14.718,8.41 -14.717,-8.41 14.717,-8.41 z m -16.406,9.371 -14.718,8.409 -14.718,-8.409 14.718,-8.41 z m -16.166,9.37 -14.718,8.41 -14.717,-8.41 14.717,-8.409 z m -16.165,9.371 -14.718,8.41 -14.718,-8.41 14.718,-8.409 z m -16.166,9.371 -14.717,8.41 -14.718,-8.41 14.718,-8.41 z m -16.165,9.131 -14.718,8.409 -14.717,-8.409 14.717,-8.41 z m -16.406,9.37 -14.718,8.41 -14.718,-8.41 14.718,-8.409 z m -16.166,9.371 -14.717497,8.41 -14.717703,-8.41 14.717703,-8.41 z m -16.165097,9.371 -14.717703,8.41 -14.7177,-8.41 14.7177,-8.41 z m -16.165403,9.371 -14.7177,8.409 -14.7177,-8.409 14.7177,-8.41 z m -16.4066,9.13 -14.7177,8.41 -14.7177,-8.41 14.7177,-8.409 z m 1.6889,0.961 14.7177,8.41 -14.7177,8.41 -14.7177,-8.41 z m 16.1654,9.371 14.717703,8.41 -14.717703,8.41 -14.7177,-8.41 z m 16.406603,9.371 14.717197,8.41 -14.717197,8.409 -14.717703,-8.409 z m 16.165197,9.371 14.718,8.41 -14.718,8.409 -14.718,-8.409 z m 16.165,9.13 14.718,8.41 -14.718,8.41 -14.717,-8.41 z m 16.166,9.371 14.717,8.41 -14.717,8.41 -14.718,-8.41 z m 16.165,9.371 14.718,8.41 -14.718,8.409 -14.718,-8.409 z m 16.407,9.371 14.717,8.409 -14.717,8.41 -14.718,-8.41 z m 16.165,9.371 14.718,8.409 -14.718,8.41 -14.718,-8.41 z m 16.165,9.13 14.718,8.41 -14.718,8.41 -14.717,-8.41 z m 16.166,9.371 14.717,8.41 -14.717,8.409 -14.718,-8.409 z m 16.165,9.371 14.718,8.409 -14.718,8.41 -14.718,-8.41 z m 16.407,9.371 14.717,8.409 -14.717,8.41 -14.718,-8.41 z m 16.165,9.37 14.718,8.41 -14.718,8.41 -14.718,-8.41 z m 16.165,9.131 14.718,8.41 -14.718,8.409 -14.717,-8.409 z m 16.166,9.371 14.717,8.409 -14.717,8.41 -14.718,-8.41 z m 16.406,9.37 14.718,8.41 -14.718,8.41 -14.717,-8.41 z m 16.166,9.371 14.717,8.41 -14.717,8.41 -14.718,-8.41 z m 16.165,9.371 14.718,8.41 -14.718,8.409 -14.718,-8.409 z m 16.165,9.371 14.718,8.41 -14.718,8.409 -14.717,-8.409 z m 16.166,9.13 14.717,8.41 -14.717,8.41 -14.718,-8.41 z m 1.689,-0.961 14.717,-8.409 14.718,8.409 -14.718,8.41 z m 16.165,-9.13 14.718,-8.41 14.717,8.41 -14.717,8.409 z m 16.165,-9.371 14.718,-8.41 14.718,8.41 -14.718,8.41 z m 16.407,-9.371 14.718,-8.41 14.717,8.41 -14.717,8.41 z m 16.165,-9.371 14.718,-8.409 14.718,8.409 -14.718,8.41 z m 16.166,-9.37 14.717,-8.41 14.718,8.41 -14.718,8.409 z m 16.165,-9.131 14.718,-8.41 14.717,8.41 -14.717,8.41 z m 16.407,-9.371 14.717,-8.409 14.718,8.409 -14.718,8.41 z m 16.165,-9.371 14.718,-8.409 14.717,8.409 -14.717,8.41 z m 16.165,-9.37 14.718,-8.41 14.718,8.41 -14.718,8.409 z m 16.166,-9.371 14.717,-8.41 14.718,8.41 -14.718,8.41 z m 16.165,-9.131 14.718,-8.409 14.717,8.409 -14.717,8.41 z m 16.407,-9.371 14.717,-8.409 14.718,8.409 -14.718,8.41 z m 16.165,-9.37 14.718,-8.41 14.717,8.41 -14.717,8.409 z m 16.165,-9.371 14.718,-8.41 14.718,8.41 -14.718,8.41 z m 16.166,-9.371 14.717,-8.41 14.718,8.41 -14.718,8.41 z m 16.165,-9.13 14.718,-8.41 14.717,8.41 -14.717,8.409 z m 16.407,-9.371 14.717,-8.41 14.718,8.41 -14.959,8.409 z m 16.165,-9.371 14.718,-8.41 14.717,8.41 -14.717,8.41 z m 16.165,-9.371 14.718,-8.41 14.718,8.41 -14.718,8.41 z m 16.166,-9.371 14.717,-8.409 14.718,8.409 -14.718,8.41 z m 29.194,-18.501 -14.718,8.41 -14.718,-8.41 14.718,-8.41 z m -16.166,-9.371 -14.717,8.41 -14.718,-8.41 14.718,-8.41 z m -16.165,-9.371 -14.718,8.41 -14.717,-8.41 14.717,-8.409 z m -16.165,-9.37 -14.718,8.409 -14.718,-8.409 14.718,-8.41 z m -16.407,-9.131 -14.718,8.41 -14.717,-8.41 14.717,-8.41 z m -16.165,-9.371 -14.718,8.41 -14.718,-8.41 14.718,-8.409 z m -16.166,-9.371 -14.717,8.41 -14.718,-8.41 14.718,-8.409 z m -16.165,-9.37 -14.718,8.409 -14.717,-8.409 14.717,-8.41 z m -16.165,-9.371 -14.718,8.41 -14.718,-8.41 14.718,-8.41 z m -16.407,-9.131 -14.718,8.41 -14.717,-8.41 14.717,-8.409 z m -16.165,-9.37 -14.718,8.409 -14.718,-8.409 14.718,-8.41 z m -16.166,-9.371 -14.717,8.409 -14.718,-8.409 14.718,-8.409999 z m -16.165,-9.371099 -14.718,8.410099 -14.717,-8.410099 14.717,-8.4097 z m -16.165,-9.3708 -14.718,8.409699 -14.718,-8.409699 14.718,-8.4097 z m -16.407,-9.1305 -14.718,8.4097 -14.717,-8.4097 14.717,-8.4097 z m -16.165,-9.3709 -14.718,8.4097 -14.718,-8.4097 L 488.338,58.147 Z M 486.89,57.1859 l -14.717,8.4097 -14.718,-8.4097 14.718,-8.4097 z m -16.165,-9.3707 -14.718,8.4096 -14.717,-8.4096 14.717,-8.4097 z m -16.407,-9.3709 -14.717,8.4097 -14.718,-8.4097 14.718,-8.4097 z m -16.165,-9.1305 -14.718,8.4097 -14.717,-8.4097 14.717,-8.4097 z M 421.988,19.943 407.27,28.3527 392.552,19.943 407.27,11.5333 Z m -30.883,-17.78048 14.717,8.40968 -14.717,8.4097 -14.718,-8.4097 z m -16.166,9.37078 14.718,8.4097 -14.718,8.4097 -14.717,-8.4097 z m -16.165,9.3708 14.718,8.4097 -14.718,8.4097 -14.718,-8.4097 z m -16.165,9.1305 14.717,8.4097 -14.717,8.4097 -14.718,-8.4097 z m -16.407,9.3709 14.718,8.4097 -14.718,8.4096 -14.718,-8.4096 z m -16.165,9.3707 14.717,8.4097 -14.717,8.4097 -14.718,-8.4097 z m -16.166,9.3708 14.718,8.409701 -14.718,8.4097 -14.717,-8.4097 z m -16.165,9.370901 14.718,8.4097 -14.718,8.4097 -14.718,-8.4097 z m -16.165,9.1305 14.717,8.4097 -14.717,8.409699 -14.718,-8.409699 z m -16.407,9.3708 14.718,8.4097 -14.718,8.410099 -14.718,-8.410099 z m -16.165,9.3708 14.717,8.409999 -14.717,8.409 -14.718,-8.409 z m -16.166,9.370999 14.718,8.41 -14.718,8.409 -14.717,-8.409 z m -16.165,9.371 14.718,8.409 -14.718,8.41 -14.718,-8.41 z m -1.689,17.54 -14.718,8.41 -14.717,-8.41 14.717,-8.41 z m -30.883,0.961 14.718,8.41 -14.718,8.409 -14.718,-8.409 z m -16.165,9.371 14.717,8.409 -14.717,8.41 -14.718,-8.41 z m -16.166,9.371 14.718,8.409 -14.718,8.41 -14.717,-8.41 z m -16.165,9.37 14.718,8.41 -14.718,8.41 -14.718,-8.41 z m -16.165197,9.131 14.717197,8.41 -14.717197,8.409 -14.717703,-8.409 z m -16.406603,9.371 14.717703,8.409 -14.717703,8.41 -14.7177,-8.41 z m -16.1654,9.37 14.7177,8.41 -14.7177,8.41 -14.7177,-8.41 z m -16.1653,9.371 14.7177,8.41 -14.7177,8.41 -14.7177,-8.41 z m -16.1654,9.371 14.7177,8.41 -14.7177,8.409 -14.7177,-8.409 z M 3.6191099,224.899 18.3368,216.49 l 14.7177,8.409 -14.7177,8.41 z m 16.1652901,9.371 14.7177,-8.41 14.7177,8.41 -14.7177,8.41 z m 16.1654,9.371 14.7177,-8.41 14.7177,8.41 -14.7177,8.41 z m 16.4066,9.371 14.7177,-8.41 14.7177,8.41 -14.7177,8.409 z m 16.1653,9.371 14.7177,-8.41 14.717703,8.41 -14.717703,8.409 z m 16.1654,9.13 14.717703,-8.41 14.717197,8.41 -14.717197,8.41 z m 16.1649,9.371 14.718,-8.41 14.718,8.41 -14.718,8.41 z m 16.166,9.371 14.717,-8.41 14.718,8.41 -14.718,8.409 z m 16.406,9.37 14.718,-8.409 14.718,8.409 -14.718,8.41 z m 16.166,9.371 14.717,-8.409 14.718,8.409 -14.718,8.41 z m 16.165,9.131 14.718,-8.41 14.717,8.41 -14.717,8.41 z m 16.165,9.371 14.718,-8.41 14.718,8.41 -14.718,8.409 z m 16.407,9.37 14.718,-8.409 14.717,8.409 -14.717,8.41 z m 16.165,9.371 14.718,-8.409 14.718,8.409 -14.718,8.41 z m 16.166,9.371 14.717,-8.41 14.718,8.41 -14.718,8.41 z m 16.165,9.131 14.718,-8.41 14.717,8.41 -14.717,8.409 z m 16.165,9.37 14.718,-8.409 14.718,8.409 -14.718,8.41 z m 16.407,9.371 14.718,-8.41 14.717,8.41 -14.717,8.41 z m 16.165,9.371 14.718,-8.41 14.718,8.41 -14.718,8.41 z m 16.166,9.371 14.717,-8.41 14.718,8.41 -14.718,8.409 z m 16.165,9.13 14.718,-8.409 14.717,8.409 -14.717,8.41 z m 16.165,9.371 14.718,-8.41 14.718,8.41 -14.718,8.41 z m 16.407,9.371 14.718,-8.41 14.717,8.41 -14.717,8.41 z m 16.165,9.371 14.718,-8.41 14.718,8.41 -14.718,8.409 z m 30.883,-0.961 -14.717,-8.41 14.717,-8.41 14.718,8.41 z m 16.166,-9.371 -14.718,-8.41 14.718,-8.41 14.717,8.41 z m 16.165,-9.371 -14.718,-8.41 14.718,-8.409 14.718,8.409 z m 16.165,-9.131 -14.717,-8.409 14.717,-8.41 14.718,8.41 z m 1.689,-17.78 14.718,-8.41 14.718,8.41 -14.718,8.41 z m 16.166,-9.371 14.717,-8.41 14.718,8.41 -14.718,8.41 z m 30.883,-0.961 -14.718,-8.41 14.718,-8.409 14.717,8.409 z m 16.165,-9.371 -14.718,-8.409 14.718,-8.41 14.718,8.41 z m 16.165,-9.13 -14.717,-8.41 14.717,-8.41 14.718,8.41 z m 16.166,-9.371 -14.718,-8.41 14.718,-8.409 14.717,8.409 z m 16.406,-9.371 -14.717,-8.41 14.717,-8.409 14.718,8.409 z m 16.166,-9.371 -14.718,-8.409 14.718,-8.41 14.717,8.41 z m 16.165,-9.37 -14.718,-8.41 14.718,-8.41 14.718,8.41 z m 16.165,-9.131 -14.717,-8.41 14.717,-8.409 14.718,8.409 z m 16.407,-9.371 -14.718,-8.41 14.718,-8.409 14.718,8.409 z m 16.165,-9.371 -14.717,-8.409 14.717,-8.41 14.718,8.41 z m 16.166,-9.37 -14.718,-8.41 14.718,-8.41 14.717,8.41 z m 16.165,-9.371 -14.718,-8.41 14.718,-8.41 14.718,8.41 z m 16.165,-9.131 -14.717,-8.409 14.717,-8.41 14.718,8.41 z m 16.407,-9.371 -14.718,-8.409 14.718,-8.41 14.718,8.41 z m 1.448,-17.78 14.717,-8.41 14.718,8.41 -14.718,8.41 z m 30.883,-0.961 -14.718,-8.41 14.718,-8.41 14.717,8.41 z m 16.165,-9.371 -14.718,-8.41 14.718,-8.409 14.718,8.409 z"
     fill="url(#G)"
     opacity="0.4"
     id="path160"
     style="fill:url(#G)"
     clip-path="url(#clipPath161)"
     transform="translate(-66.481392,-0.88167709)" />
</svg>
