<svg fill="none" height="290" viewBox="0 0 416 290" width="416" xmlns="http://www.w3.org/2000/svg" xmlns:xlink="http://www.w3.org/1999/xlink"><linearGradient id="a"><stop offset="0" stop-color="#f17922"/><stop offset="1" stop-color="#d74608"/></linearGradient><linearGradient id="b" gradientUnits="userSpaceOnUse" x1="167.564" x2="114.345" xlink:href="#a" y1="147.926" y2="176.693"/><linearGradient id="c" gradientUnits="userSpaceOnUse" x1="298.738" x2="299.803" xlink:href="#a" y1="176.752" y2="174.689"/><linearGradient id="d" gradientUnits="userSpaceOnUse" x1="118.122" x2="173.634" y1="225.726" y2="257.904"><stop offset="0" stop-color="#d74809"/><stop offset="1" stop-color="#f16822" stop-opacity="0"/></linearGradient><linearGradient id="e" gradientUnits="userSpaceOnUse" x1="75.1196" x2="10.9598" y1="-.51754" y2="-1.14486"><stop offset="0" stop-color="#e35e14"/><stop offset="1" stop-color="#f16822" stop-opacity="0"/></linearGradient><linearGradient id="f" gradientUnits="userSpaceOnUse" x1="75.1196" x2="10.9598" y1="-.51754" y2="-1.14486"><stop offset="0" stop-color="#e05811"/><stop offset="1" stop-color="#f16822" stop-opacity="0"/></linearGradient><linearGradient id="g" gradientUnits="userSpaceOnUse" x1="164.989" x2="109.478" y1="97.829" y2="65.6516"><stop offset="0" stop-color="#ec6e1d"/><stop offset="1" stop-color="#f16822" stop-opacity="0"/></linearGradient><linearGradient id="h" gradientUnits="userSpaceOnUse" x1="163.104" x2="213.307" xlink:href="#a" y1="96.7975" y2="160.953"/><linearGradient id="i" gradientUnits="userSpaceOnUse" x1="146.83" x2="215.356" xlink:href="#a" y1="87.2453" y2="174.449"/><linearGradient id="j"><stop offset="0" stop-color="#d5d5d5"/><stop offset="1" stop-color="#6b6b6b"/></linearGradient><linearGradient id="k" gradientUnits="userSpaceOnUse" x1="168.48" x2="244.847" xlink:href="#j" y1="109.778" y2="122.477"/><linearGradient id="l"><stop offset="0" stop-color="#fff"/><stop offset="1" stop-color="#b9b9b9"/></linearGradient><linearGradient id="m" gradientUnits="userSpaceOnUse" x1="243.458" x2="201.581" xlink:href="#l" y1="87.7422" y2="128.869"/><linearGradient id="n" gradientUnits="userSpaceOnUse" x1="173.68" x2="239.275" xlink:href="#a" y1="90.711" y2="113.334"/><linearGradient id="o"><stop offset="0" stop-color="#01c8ef"/><stop offset=".1396" stop-color="#03bae4"/><stop offset=".4033" stop-color="#0895c8"/><stop offset=".76" stop-color="#115a9a"/><stop offset="1" stop-color="#172f78"/></linearGradient><radialGradient id="p" cx="157.579" cy="51.4075" gradientUnits="userSpaceOnUse" r="117.932" xlink:href="#o"/><linearGradient id="q" gradientUnits="userSpaceOnUse" x1="243.591" x2="182.624" xlink:href="#a" y1="76.2666" y2="55.5717"/><linearGradient id="r" gradientUnits="userSpaceOnUse" x1="168.48" x2="244.847" xlink:href="#j" y1="64.7112" y2="77.41"/><linearGradient id="s" gradientUnits="userSpaceOnUse" x1="243.458" x2="201.581" xlink:href="#l" y1="42.6756" y2="83.8024"/><linearGradient id="t" gradientUnits="userSpaceOnUse" x1="173.68" x2="239.275" xlink:href="#a" y1="45.6444" y2="68.2676"/><radialGradient id="u" cx="157.579" cy="6.34082" gradientUnits="userSpaceOnUse" r="117.932" xlink:href="#o"/><linearGradient id="v" gradientUnits="userSpaceOnUse" x1="243.591" x2="182.624" xlink:href="#a" y1="31.1999" y2="10.505"/><linearGradient id="w" gradientUnits="userSpaceOnUse" x1="29.0601" x2="79.2624" xlink:href="#a" y1="174.22" y2="238.375"/><linearGradient id="x" gradientUnits="userSpaceOnUse" x1="12.7853" x2="81.3119" xlink:href="#a" y1="164.667" y2="251.871"/><linearGradient id="y" gradientUnits="userSpaceOnUse" x1="34.4349" x2="110.802" xlink:href="#j" y1="187.2" y2="199.899"/><linearGradient id="z" gradientUnits="userSpaceOnUse" x1="109.413" x2="67.5362" xlink:href="#l" y1="165.164" y2="206.291"/><linearGradient id="A" gradientUnits="userSpaceOnUse" x1="39.6351" x2="105.23" xlink:href="#a" y1="168.133" y2="190.757"/><radialGradient id="B" cx="23.5346" cy="128.83" gradientUnits="userSpaceOnUse" r="117.932" xlink:href="#o"/><linearGradient id="C" gradientUnits="userSpaceOnUse" x1="109.547" x2="48.5792" xlink:href="#a" y1="153.689" y2="132.994"/><linearGradient id="D" gradientUnits="userSpaceOnUse" x1="34.4349" x2="110.802" xlink:href="#j" y1="142.134" y2="154.832"/><linearGradient id="E" gradientUnits="userSpaceOnUse" x1="109.413" x2="67.5362" xlink:href="#l" y1="120.098" y2="161.225"/><linearGradient id="F" gradientUnits="userSpaceOnUse" x1="295.993" x2="346.196" xlink:href="#a" y1="174.22" y2="238.375"/><linearGradient id="G" gradientUnits="userSpaceOnUse" x1="279.719" x2="348.245" xlink:href="#a" y1="164.667" y2="251.871"/><linearGradient id="H" gradientUnits="userSpaceOnUse" x1="301.369" x2="377.736" xlink:href="#j" y1="187.2" y2="199.899"/><linearGradient id="I" gradientUnits="userSpaceOnUse" x1="376.346" x2="334.47" xlink:href="#l" y1="165.164" y2="206.291"/><linearGradient id="J" gradientUnits="userSpaceOnUse" x1="306.569" x2="372.164" xlink:href="#a" y1="168.133" y2="190.757"/><radialGradient id="K" cx="290.468" cy="128.83" gradientUnits="userSpaceOnUse" r="117.932" xlink:href="#o"/><linearGradient id="L" gradientUnits="userSpaceOnUse" x1="376.48" x2="315.513" xlink:href="#a" y1="153.689" y2="132.994"/><linearGradient id="M" gradientUnits="userSpaceOnUse" x1="236.185" x2="210.728" xlink:href="#a" y1="261.571" y2="263.098"/><linearGradient id="N" gradientUnits="userSpaceOnUse" x1="354.548" x2="338.123" xlink:href="#l" y1="49.1514" y2="23.2373"/><linearGradient id="O" gradientUnits="userSpaceOnUse" x1="123.436" x2="107.012" xlink:href="#l" y1="49.1514" y2="23.2373"/><path d="m114.155 177.52 55.466-31.2" stroke="url(#b)"/><path d="m301.355 178.391-55.467-31.2" stroke="url(#c)"/><path d="m183.487 262.746-69.333-39.289" stroke="url(#d)"/><path d="m0-.5h79.6915" stroke="url(#e)" transform="matrix(.870022 -.493013 -.493013 -.870022 232.267 262.311)"/><path d="m0-.5h79.6915" stroke="url(#f)" transform="matrix(-.870022 .493013 .493013 .870022 317.778 61.2444)"/><path d="m99.6244 60.8094 69.3336 39.2886" stroke="url(#g)"/><path d="m208.746 154.844c-2.525 0-4.883-.499-6.735-1.664l-45.46-25.972c-1.852-.999-2.862-2.497-2.862-4.162 0-1.499 1.01-2.997 2.862-4.162l45.124-25.972c3.704-2.1643 9.765-2.1643 13.469 0l45.46 25.972c1.853.999 2.863 2.497 2.863 4.162 0 1.498-1.01 2.997-2.863 4.162l-45.123 25.972c-1.852 1.165-4.378 1.664-6.735 1.664zm-.337-62.4314c-2.357 0-4.546.4994-6.398 1.4983l-45.123 25.9721c-1.684.998-2.526 2.164-2.526 3.329 0 1.332.842 2.498 2.526 3.33l45.46 25.972c3.536 1.997 9.092 1.997 12.628 0l45.123-25.972c1.684-.999 2.526-2.164 2.526-3.33 0-1.332-.842-2.497-2.526-3.329l-45.46-25.9721c-1.684-.9989-3.872-1.4983-6.23-1.4983z" fill="url(#h)" opacity=".7"/><path d="m208.806 166.4c-3.429 0-6.63-.681-9.145-2.27l-61.73-35.416c-2.515-1.362-3.887-3.405-3.887-5.676 0-2.043 1.372-4.086 3.887-5.675l61.273-35.4161c5.03-2.9513 13.26-2.9513 18.29 0l61.73 35.4161c2.515 1.362 3.887 3.405 3.887 5.675 0 2.044-1.372 4.087-3.887 5.676l-61.272 35.416c-2.515 1.589-5.945 2.27-9.146 2.27zm-.457-85.1342c-3.201 0-6.173.6811-8.688 2.0432l-61.273 35.416c-2.286 1.362-3.429 2.951-3.429 4.54 0 1.817 1.143 3.406 3.429 4.541l61.73 35.416c4.802 2.724 12.347 2.724 17.148 0l61.273-35.416c2.286-1.362 3.429-2.951 3.429-4.541 0-1.816-1.143-3.405-3.429-4.54l-61.731-35.416c-2.286-1.3621-5.258-2.0432-8.459-2.0432z" fill="url(#i)"/><path d="m246.249 113.244v-14.9063l-18.836 2.5423-14.098-8.2045c-2.426-1.3867-6.471-1.3867-9.013 0l-2.195 1.3867-30.623 4.0444v15.1374.116c0 .924.694 1.849 1.849 2.542l31.2 18.027c2.427 1.386 6.471 1.386 9.014 0l30.968-18.027c1.156-.809 1.734-1.733 1.734-2.658z" fill="url(#k)"/><path d="m244.4 95.5645-31.2-18.0267c-2.427-1.3867-6.471-1.3867-9.013 0l-30.969 18.0267c-2.427 1.3866-2.427 3.6977 0 5.1995l31.2 18.027c2.426 1.387 6.471 1.387 9.013 0l30.969-18.027c2.542-1.5018 2.542-3.8129 0-5.1995z" fill="url(#m)"/><g fill="#fff"><path d="m244.4 99.8401-30.969 18.0269c-2.427 1.386-6.471 1.386-9.013 0l-31.2-18.0269c-1.04-.5778-1.618-1.3867-1.849-2.1956-.231 1.04.346 2.1956 1.849 3.0045l31.2 18.027c2.426 1.386 6.471 1.386 9.013 0l30.969-18.027c1.387-.8089 2.08-1.9645 1.849-3.0045-.231.8089-.809 1.6178-1.849 2.1956z"/><path d="m217.591 122.72-1.502.925v-1.734l1.502-.809z"/><path d="m220.711 120.987-1.502.808v-1.617l1.502-.925z"/><path d="m223.831 119.253-1.502.809v-1.733l1.502-.809z"/><path d="m221.289 124.107-1.502.809v-1.618l1.502-.925z"/><path d="m223.947 122.489-1.503.925v-1.734l1.503-.809z"/><path d="m233.653 113.476-1.502.808v-1.617l1.502-.925z"/><path d="m242.204 108.622-1.502.809v-1.733l1.502-.809z"/><path d="m226.835 117.404-1.386.925v-1.733l1.386-.925z"/></g><path d="m207.075 111.164-21.031-12.1331c-.809-.4622-.693-1.3867.231-1.9644l20.454-11.7867c1.04-.5778 2.426-.5778 3.351-.1156l21.031 12.1334c.809.4622.693 1.3866-.231 1.9644l-20.453 11.787c-1.04.577-2.543.577-3.352.115z" fill="#838383"/><path d="m198.871 124.338-17.333-9.938c-.462-.231-.694-.925-.694-1.387v-1.271c0-.578.347-.809.694-.578l17.333 9.938c.462.231.693.924.693 1.387v1.271c0 .462-.346.809-.693.578z" fill="#fff"/><path d="m246.298 90.9421v-14.9066l-18.836 2.5422-14.097-8.2044c-2.427-1.3867-6.472-1.3867-9.014 0l-2.195 1.3866-30.623 4.0445v15.1377.1156c0 .9244.694 1.8489 1.849 2.5422l31.2 18.0271c2.427 1.386 6.471 1.386 9.014 0l30.969-18.0271c1.155-.6933 1.733-1.6178 1.733-2.6578z" fill="url(#n)"/><path d="m244.449 73.3777-31.2-18.0267c-2.427-1.3866-6.471-1.3866-9.013 0l-30.969 18.0267c-2.427 1.3867-2.427 3.6978 0 5.2l31.2 18.0267c2.426 1.3866 6.471 1.3866 9.013 0l30.969-18.0267c2.542-1.5022 2.542-3.8133 0-5.2z" fill="url(#p)"/><path d="m244.449 73.3777-31.2-18.0267c-2.427-1.3866-6.471-1.3866-9.013 0l-30.969 18.0267c-2.427 1.3867-2.427 3.6978 0 5.2l31.2 18.0267c2.426 1.3866 6.471 1.3866 9.013 0l30.969-18.0267c2.542-1.5022 2.542-3.8133 0-5.2z" fill="url(#q)"/><path d="m232.431 74.1866-20.684-11.9022c-1.618-.9244-4.276-.9244-6.009 0l-20.569 11.9022c-1.618.9245-1.618 2.5422 0 3.4667l20.684 11.9022c1.618.9244 4.276.9244 6.009 0l20.569-11.9022c1.733-.9245 1.733-2.5422 0-3.4667z" fill="#ffd6c0"/><path d="m244.449 77.6533-30.969 18.0267c-2.427 1.3867-6.471 1.3867-9.013 0l-31.2-18.0267c-1.04-.5778-1.618-1.3866-1.849-2.1955-.231 1.04.347 2.1955 1.849 3.0044l31.2 18.0267c2.426 1.3866 6.471 1.3866 9.013 0l30.969-18.0267c1.387-.8089 2.08-1.9644 1.849-3.0044-.231.8089-.809 1.6177-1.849 2.1955z" fill="#fff"/><path d="m217.64 100.533-1.502.809v-1.6177l1.502-.9245z" fill="#fff"/><path d="m220.76 98.8-1.502.8089v-1.7334l1.502-.8088z" fill="#fff"/><path d="m223.88 96.951-1.502.9245v-1.7334l1.502-.8088z" fill="#fff"/><path d="m221.338 101.92-1.502.809v-1.734l1.502-.808z" fill="#fff"/><path d="m223.996 100.302-1.503.925v-1.7337l1.503-.9245z" fill="#fff"/><path d="m233.702 91.2888-1.502.8088v-1.7333l1.502-.8089z" fill="#fff"/><path d="m242.253 86.3199-1.502.9245v-1.7334l1.502-.8089z" fill="#fff"/><path d="m226.884 95.2177-1.386.8089v-1.7333l1.386-.8089z" fill="#fff"/><path d="m246.249 68.1777v-14.9066l-18.836 2.5422-14.098-8.2045c-2.426-1.3866-6.471-1.3866-9.013 0l-2.195 1.3867-30.623 4.0445v15.1377.1156c0 .9244.694 1.8489 1.849 2.5422l31.2 18.0267c2.427 1.3866 6.471 1.3866 9.014 0l30.968-18.0267c1.156-.8089 1.734-1.7333 1.734-2.6578z" fill="url(#r)"/><path d="m244.4 50.4978-31.2-18.0266c-2.427-1.3867-6.471-1.3867-9.013 0l-30.969 18.0266c-2.427 1.3867-2.427 3.6978 0 5.2l31.2 18.0267c2.426 1.3866 6.471 1.3866 9.013 0l30.969-18.0267c2.542-1.5022 2.542-3.8133 0-5.2z" fill="url(#s)"/><path d="m244.4 54.7734-30.969 18.0267c-2.427 1.3867-6.471 1.3867-9.013 0l-31.2-18.0267c-1.04-.5777-1.618-1.3866-1.849-2.1955-.231 1.04.346 2.1955 1.849 3.0044l31.2 18.0267c2.426 1.3867 6.471 1.3867 9.013 0l30.969-18.0267c1.387-.8089 2.08-1.9644 1.849-3.0044-.231.8089-.809 1.6178-1.849 2.1955z" fill="#fff"/><path d="m217.591 77.6534-1.502.9245v-1.7334l1.502-.8089z" fill="#fff"/><path d="m220.711 75.9199-1.502.8088v-1.6177l1.502-.9245z" fill="#fff"/><path d="m223.831 74.1867-1.502.8089v-1.7333l1.502-.8089z" fill="#fff"/><path d="m221.289 79.04-1.502.8089v-1.6178l1.502-.9245z" fill="#fff"/><path d="m223.947 77.4222-1.503.9245v-1.7334l1.503-.8089z" fill="#fff"/><path d="m233.653 68.4089-1.502.8089v-1.6178l1.502-.9245z" fill="#fff"/><path d="m242.204 63.5556-1.502.8089v-1.7333l1.502-.8089z" fill="#fff"/><path d="m226.835 72.3378-1.386.9245v-1.7334l1.386-.9244z" fill="#fff"/><path d="m246.298 45.8755v-14.9067l-18.836 2.5422-14.097-8.2044c-2.427-1.3867-6.472-1.3867-9.014 0l-2.195 1.3867-30.623 4.0444v15.1378.1155c0 .9245.694 1.8489 1.849 2.5423l31.2 18.0266c2.427 1.3867 6.471 1.3867 9.014 0l30.969-18.0266c1.155-.6934 1.733-1.6178 1.733-2.6578z" fill="url(#t)"/><path d="m244.449 28.311-31.2-18.0266c-2.427-1.38668-6.471-1.38668-9.013 0l-30.969 18.0266c-2.427 1.3867-2.427 3.6978 0 5.2l31.2 18.0267c2.426 1.3867 6.471 1.3867 9.013 0l30.969-18.0267c2.542-1.5022 2.542-3.8133 0-5.2z" fill="url(#u)"/><path d="m244.449 28.311-31.2-18.0266c-2.427-1.38668-6.471-1.38668-9.013 0l-30.969 18.0266c-2.427 1.3867-2.427 3.6978 0 5.2l31.2 18.0267c2.426 1.3867 6.471 1.3867 9.013 0l30.969-18.0267c2.542-1.5022 2.542-3.8133 0-5.2z" fill="url(#v)"/><path d="m232.431 29.12-20.684-11.9023c-1.618-.9244-4.276-.9244-6.009 0l-20.569 11.9023c-1.618.9244-1.618 2.5422 0 3.4666l20.684 11.9022c1.618.9245 4.276.9245 6.009 0l20.569-11.9022c1.733-.9244 1.733-2.5422 0-3.4666z" fill="#ffd6c0"/><path d="m244.449 32.5867-30.969 18.0266c-2.427 1.3867-6.471 1.3867-9.013 0l-31.2-18.0266c-1.04-.5778-1.618-1.3867-1.849-2.1956-.231 1.04.347 2.1956 1.849 3.0045l31.2 18.0266c2.426 1.3867 6.471 1.3867 9.013 0l30.969-18.0266c1.387-.8089 2.08-1.9645 1.849-3.0045-.231.8089-.809 1.6178-1.849 2.1956z" fill="#fff"/><path d="m217.64 55.4667-1.502.8089v-1.6178l1.502-.9244z" fill="#fff"/><path d="m220.76 53.7336-1.502.8089v-1.7334l1.502-.8089z" fill="#fff"/><path d="m223.88 51.8846-1.502.9245v-1.7334l1.502-.8089z" fill="#fff"/><path d="m221.338 56.8535-1.502.8089v-1.7334l1.502-.8089z" fill="#fff"/><path d="m223.996 55.2358-1.503.9244v-1.7333l1.503-.9245z" fill="#fff"/><path d="m233.702 46.2223-1.502.8089v-1.7333l1.502-.8089z" fill="#fff"/><path d="m242.253 41.2535-1.502.9245v-1.7334l1.502-.8089z" fill="#fff"/><path d="m226.884 50.1513-1.386.8089v-1.7333l1.386-.8089z" fill="#fff"/><path d="m74.7018 232.267c-2.5256 0-4.8828-.5-6.7348-1.665l-45.4602-25.972c-1.852-.999-2.8623-2.497-2.8623-4.162 0-1.498 1.0103-2.997 2.8623-4.162l45.1234-25.972c3.7042-2.164 9.7655-2.164 13.4697 0l45.4601 25.972c1.852.999 2.862 2.497 2.862 4.162 0 1.499-1.01 2.997-2.862 4.162l-45.1234 25.972c-1.8521 1.165-4.3776 1.665-6.7348 1.665zm-.3367-62.432c-2.3572 0-4.5461.499-6.3981 1.498l-45.1234 25.972c-1.6837.999-2.5256 2.164-2.5256 3.33 0 1.332.8419 2.497 2.5256 3.329l45.4601 25.972c3.5358 1.998 9.092 1.998 12.6278 0l45.1235-25.972c1.684-.999 2.525-2.164 2.525-3.329 0-1.332-.841-2.498-2.525-3.33l-45.4602-25.972c-1.6837-.999-3.8726-1.498-6.2297-1.498z" fill="url(#w)" opacity=".7"/><path d="m74.762 243.822c-3.4295 0-6.6303-.681-9.1452-2.27l-61.7301-35.416c-2.51493-1.362-3.8867-3.405-3.8867-5.676 0-2.043 1.37177-4.086 3.8867-5.675l61.2728-35.416c5.0299-2.951 13.2605-2.951 18.2904 0l61.7301 35.416c2.515 1.362 3.887 3.405 3.887 5.675 0 2.044-1.372 4.087-3.887 5.676l-61.2728 35.416c-2.515 1.589-5.9444 2.27-9.1452 2.27zm-.4573-85.134c-3.2008 0-6.173.681-8.6879 2.043l-61.27281 35.416c-2.2863 1.362-3.42945 2.951-3.42945 4.54 0 1.817 1.14315 3.406 3.42945 4.541l61.73011 35.416c4.8012 2.724 12.346 2.724 17.1472 0l61.2727-35.416c2.286-1.362 3.43-2.951 3.43-4.541 0-1.816-1.144-3.405-3.43-4.54l-61.73-35.416c-2.2863-1.362-5.2585-2.043-8.4593-2.043z" fill="url(#x)"/><path d="m112.204 190.667v-14.907l-18.8357 2.542-14.0977-8.204c-2.4267-1.387-6.4712-1.387-9.0134 0l-2.1955 1.387-30.6222 4.044v15.138.115c0 .925.6933 1.849 1.8488 2.543l31.2 18.026c2.4267 1.387 6.4711 1.387 9.0134 0l30.9693-18.026c1.155-.809 1.733-1.734 1.733-2.658z" fill="url(#y)"/><path d="m110.355 172.987-31.1998-18.027c-2.4266-1.387-6.4711-1.387-9.0133 0l-30.9689 18.027c-2.4266 1.386-2.4266 3.697 0 5.2l31.2 18.026c2.4267 1.387 6.4711 1.387 9.0133 0l30.9687-18.026c2.542-1.503 2.542-3.814 0-5.2z" fill="url(#z)"/><path d="m110.355 177.262-30.9687 18.027c-2.4267 1.387-6.4711 1.387-9.0133 0l-31.2-18.027c-1.04-.578-1.6178-1.386-1.8489-2.195-.2311 1.04.3467 2.195 1.8489 3.004l31.2 18.027c2.4267 1.386 6.4711 1.386 9.0133 0l30.9687-18.027c1.387-.809 2.08-1.964 1.849-3.004-.231.809-.809 1.617-1.849 2.195z" fill="#fff"/><path d="m83.5462 200.142-1.5023.925v-1.734l1.5023-.809z" fill="#fff"/><path d="m86.6663 198.409-1.5022.809v-1.618l1.5022-.924z" fill="#fff"/><path d="m89.7864 196.675-1.5022.809v-1.733l1.5022-.809z" fill="#fff"/><path d="m87.2439 201.529-1.5022.809v-1.618l1.5022-.925z" fill="#fff"/><path d="m89.9016 199.911-1.5022.925v-1.734l1.5022-.809z" fill="#fff"/><path d="m99.6082 190.898-1.5022.809v-1.618l1.5022-.925z" fill="#fff"/><path d="m108.159 186.044-1.502.809v-1.733l1.502-.809z" fill="#fff"/><path d="m92.7905 194.827-1.3867.924v-1.733l1.3867-.924z" fill="#fff"/><path d="m73.031 188.587-21.0311-12.134c-.8089-.462-.6933-1.386.2311-1.964l20.4534-11.787c1.04-.578 2.4266-.578 3.3511-.115l21.0311 12.133c.8089.462.6933 1.387-.2311 1.964l-20.4534 11.787c-1.04.578-2.5422.578-3.3511.116z" fill="#838383"/><path d="m64.8265 201.76-17.3334-9.938c-.4622-.231-.6933-.924-.6933-1.386v-1.272c0-.577.3467-.809.6933-.577l17.3334 9.937c.4622.232.6933.925.6933 1.387v1.271c0 .462-.3467.809-.6933.578z" fill="#fff"/><path d="m112.253 168.364v-14.906l-18.8353 2.542-14.0978-8.204c-2.4267-1.387-6.4711-1.387-9.0134 0l-2.1955 1.386-30.6222 4.045v15.137.116c0 .924.6933 1.849 1.8488 2.542l31.2001 18.027c2.4266 1.387 6.4711 1.387 9.0133 0l30.969-18.027c1.155-.693 1.733-1.618 1.733-2.658z" fill="url(#A)"/><path d="m110.405 150.8-31.2004-18.027c-2.4267-1.386-6.4712-1.386-9.0134 0l-30.9689 18.027c-2.4266 1.387-2.4266 3.698 0 5.2l31.2 18.027c2.4267 1.386 6.4711 1.386 9.0134 0l30.9693-18.027c2.542-1.502 2.542-3.813 0-5.2z" fill="url(#B)"/><path d="m110.405 150.8-31.2004-18.027c-2.4267-1.386-6.4712-1.386-9.0134 0l-30.9689 18.027c-2.4266 1.387-2.4266 3.698 0 5.2l31.2 18.027c2.4267 1.386 6.4711 1.386 9.0134 0l30.9693-18.027c2.542-1.502 2.542-3.813 0-5.2z" fill="url(#C)"/><path d="m98.3867 151.609-20.6845-11.902c-1.6177-.925-4.2755-.925-6.0088 0l-20.5689 11.902c-1.6178.924-1.6178 2.542 0 3.467l20.6844 11.902c1.6178.924 4.2756.924 6.0089 0l20.5689-11.902c1.7333-.925 1.7333-2.543 0-3.467z" fill="#ffd6c0"/><path d="m110.405 155.076-30.9694 18.026c-2.4266 1.387-6.4711 1.387-9.0133 0l-31.2-18.026c-1.04-.578-1.6178-1.387-1.8489-2.196-.2311 1.04.3467 2.196 1.8489 3.005l31.2 18.026c2.4267 1.387 6.4711 1.387 9.0133 0l30.9694-18.026c1.386-.809 2.08-1.965 1.848-3.005-.231.809-.808 1.618-1.848 2.196z" fill="#fff"/><path d="m83.5955 177.956-1.5022.808v-1.617l1.5022-.925z" fill="#fff"/><path d="m86.7156 176.222-1.5022.809v-1.733l1.5022-.809z" fill="#fff"/><path d="m89.8357 174.373-1.5022.925v-1.733l1.5022-.809z" fill="#fff"/><path d="m87.2932 179.342-1.5022.809v-1.733l1.5022-.809z" fill="#fff"/><path d="m89.951 177.725-1.5023.924v-1.733l1.5023-.925z" fill="#fff"/><path d="m99.658 168.711-1.5022.809v-1.733l1.5022-.809z" fill="#fff"/><path d="m108.209 163.742-1.502.925v-1.734l1.502-.808z" fill="#fff"/><path d="m92.8398 172.64-1.3867.809v-1.733l1.3867-.809z" fill="#fff"/><path d="m112.204 145.6v-14.907l-18.8357 2.543-14.0977-8.205c-2.4267-1.386-6.4712-1.386-9.0134 0l-2.1955 1.387-30.6222 4.044v15.138.116c0 .924.6933 1.849 1.8488 2.542l31.2 18.027c2.4267 1.386 6.4711 1.386 9.0134 0l30.9693-18.027c1.155-.809 1.733-1.733 1.733-2.658z" fill="url(#D)"/><path d="m110.355 127.92-31.1998-18.027c-2.4266-1.386-6.4711-1.386-9.0133 0l-30.9689 18.027c-2.4266 1.387-2.4266 3.698 0 5.2l31.2 18.027c2.4267 1.386 6.4711 1.386 9.0133 0l30.9687-18.027c2.542-1.502 2.542-3.813 0-5.2z" fill="url(#E)"/><path d="m110.355 132.196-30.9687 18.026c-2.4267 1.387-6.4711 1.387-9.0133 0l-31.2-18.026c-1.04-.578-1.6178-1.387-1.8489-2.196-.2311 1.04.3467 2.196 1.8489 3.004l31.2 18.027c2.4267 1.387 6.4711 1.387 9.0133 0l30.9687-18.027c1.387-.808 2.08-1.964 1.849-3.004-.231.809-.809 1.618-1.849 2.196z" fill="#fff"/><path d="m83.5462 155.076-1.5023.924v-1.733l1.5023-.809z" fill="#fff"/><path d="m86.6663 153.342-1.5022.809v-1.618l1.5022-.924z" fill="#fff"/><path d="m89.7864 151.609-1.5022.809v-1.734l1.5022-.809z" fill="#fff"/><path d="m87.2439 156.462-1.5022.809v-1.618l1.5022-.924z" fill="#fff"/><path d="m89.9016 154.845-1.5022.924v-1.733l1.5022-.809z" fill="#fff"/><path d="m99.6082 145.831-1.5022.809v-1.618l1.5022-.924z" fill="#fff"/><path d="m108.159 140.978-1.502.809v-1.734l1.502-.809z" fill="#fff"/><path d="m92.7905 149.76-1.3867.925v-1.734l1.3867-.924z" fill="#fff"/><path d="m341.635 232.267c-2.525 0-4.883-.5-6.735-1.665l-45.46-25.972c-1.852-.999-2.862-2.497-2.862-4.162 0-1.498 1.01-2.997 2.862-4.162l45.124-25.972c3.704-2.164 9.765-2.164 13.469 0l45.46 25.972c1.852.999 2.863 2.497 2.863 4.162 0 1.499-1.011 2.997-2.863 4.162l-45.123 25.972c-1.852 1.165-4.378 1.665-6.735 1.665zm-.337-62.432c-2.357 0-4.546.499-6.398 1.498l-45.123 25.972c-1.684.999-2.526 2.164-2.526 3.33 0 1.332.842 2.497 2.526 3.329l45.46 25.972c3.536 1.998 9.092 1.998 12.628 0l45.123-25.972c1.684-.999 2.526-2.164 2.526-3.329 0-1.332-.842-2.498-2.526-3.33l-45.46-25.972c-1.684-.999-3.872-1.498-6.23-1.498z" fill="url(#F)" opacity=".7"/><path d="m341.695 243.822c-3.429 0-6.63-.681-9.145-2.27l-61.73-35.416c-2.515-1.362-3.887-3.405-3.887-5.676 0-2.043 1.372-4.086 3.887-5.675l61.273-35.416c5.03-2.951 13.26-2.951 18.29 0l61.73 35.416c2.515 1.362 3.887 3.405 3.887 5.675 0 2.044-1.372 4.087-3.887 5.676l-61.272 35.416c-2.515 1.589-5.945 2.27-9.146 2.27zm-.457-85.134c-3.201 0-6.173.681-8.688 2.043l-61.273 35.416c-2.286 1.362-3.429 2.951-3.429 4.54 0 1.817 1.143 3.406 3.429 4.541l61.73 35.416c4.802 2.724 12.346 2.724 17.148 0l61.272-35.416c2.287-1.362 3.43-2.951 3.43-4.541 0-1.816-1.143-3.405-3.43-4.54l-61.73-35.416c-2.286-1.362-5.258-2.043-8.459-2.043z" fill="url(#G)"/><path d="m379.138 190.667v-14.907l-18.836 2.542-14.098-8.204c-2.426-1.387-6.471-1.387-9.013 0l-2.195 1.387-30.623 4.044v15.138.115c0 .925.694 1.849 1.849 2.543l31.2 18.026c2.427 1.387 6.471 1.387 9.014 0l30.968-18.026c1.156-.809 1.734-1.734 1.734-2.658z" fill="url(#H)"/><path d="m377.289 172.987-31.2-18.027c-2.427-1.387-6.471-1.387-9.014 0l-30.968 18.027c-2.427 1.386-2.427 3.697 0 5.2l31.2 18.026c2.426 1.387 6.471 1.387 9.013 0l30.969-18.026c2.542-1.503 2.542-3.814 0-5.2z" fill="url(#I)"/><path d="m377.289 177.262-30.969 18.027c-2.427 1.387-6.471 1.387-9.013 0l-31.2-18.027c-1.04-.578-1.618-1.386-1.849-2.195-.231 1.04.346 2.195 1.849 3.004l31.2 18.027c2.426 1.386 6.471 1.386 9.013 0l30.969-18.027c1.386-.809 2.08-1.964 1.849-3.004-.231.809-.809 1.617-1.849 2.195z" fill="#fff"/><path d="m350.48 200.142-1.502.925v-1.734l1.502-.809z" fill="#fff"/><path d="m353.6 198.409-1.503.809v-1.618l1.503-.924z" fill="#fff"/><path d="m356.72 196.675-1.502.809v-1.733l1.502-.809z" fill="#fff"/><path d="m354.178 201.529-1.503.809v-1.618l1.503-.925z" fill="#fff"/><path d="m356.835 199.911-1.502.925v-1.734l1.502-.809z" fill="#fff"/><path d="m366.542 190.898-1.502.809v-1.618l1.502-.925z" fill="#fff"/><path d="m375.093 186.044-1.502.809v-1.733l1.502-.809z" fill="#fff"/><path d="m359.724 194.827-1.387.924v-1.733l1.387-.924z" fill="#fff"/><path d="m339.964 188.587-21.031-12.134c-.809-.462-.693-1.386.231-1.964l20.454-11.787c1.04-.578 2.426-.578 3.351-.115l21.031 12.133c.809.462.693 1.387-.231 1.964l-20.454 11.787c-1.04.578-2.542.578-3.351.116z" fill="#838383"/><path d="m331.76 201.76-17.333-9.938c-.462-.231-.694-.924-.694-1.386v-1.272c0-.577.347-.809.694-.577l17.333 9.937c.462.232.693.925.693 1.387v1.271c0 .462-.346.809-.693.578z" fill="#fff"/><path d="m379.187 168.364v-14.906l-18.836 2.542-14.098-8.204c-2.426-1.387-6.471-1.387-9.013 0l-2.195 1.386-30.623 4.045v15.137.116c0 .924.694 1.849 1.849 2.542l31.2 18.027c2.427 1.387 6.471 1.387 9.014 0l30.968-18.027c1.156-.693 1.734-1.618 1.734-2.658z" fill="url(#J)"/><path d="m377.338 150.8-31.2-18.027c-2.427-1.386-6.471-1.386-9.013 0l-30.969 18.027c-2.427 1.387-2.427 3.698 0 5.2l31.2 18.027c2.426 1.386 6.471 1.386 9.013 0l30.969-18.027c2.542-1.502 2.542-3.813 0-5.2z" fill="url(#K)"/><path d="m377.338 150.8-31.2-18.027c-2.427-1.386-6.471-1.386-9.013 0l-30.969 18.027c-2.427 1.387-2.427 3.698 0 5.2l31.2 18.027c2.426 1.386 6.471 1.386 9.013 0l30.969-18.027c2.542-1.502 2.542-3.813 0-5.2z" fill="url(#L)"/><path d="m365.32 151.609-20.684-11.902c-1.618-.925-4.276-.925-6.009 0l-20.569 11.902c-1.618.924-1.618 2.542 0 3.467l20.684 11.902c1.618.924 4.276.924 6.009 0l20.569-11.902c1.733-.925 1.733-2.543 0-3.467z" fill="#ffd6c0"/><path d="m377.338 155.076-30.969 18.026c-2.427 1.387-6.471 1.387-9.013 0l-31.2-18.026c-1.04-.578-1.618-1.387-1.849-2.196-.231 1.04.346 2.196 1.849 3.005l31.2 18.026c2.426 1.387 6.471 1.387 9.013 0l30.969-18.026c1.387-.809 2.08-1.965 1.849-3.005-.231.809-.809 1.618-1.849 2.196z" fill="#fff"/><path d="m350.529 177.956-1.502.808v-1.617l1.502-.925z" fill="#fff"/><path d="m353.649 176.222-1.503.809v-1.733l1.503-.809z" fill="#fff"/><path d="m356.769 174.373-1.502.925v-1.733l1.502-.809z" fill="#fff"/><path d="m354.227 179.342-1.503.809v-1.733l1.503-.809z" fill="#fff"/><path d="m356.884 177.725-1.502.924v-1.733l1.502-.925z" fill="#fff"/><path d="m366.591 168.711-1.502.809v-1.733l1.502-.809z" fill="#fff"/><path d="m375.142 163.742-1.502.925v-1.734l1.502-.808z" fill="#fff"/><path d="m359.773 172.64-1.387.809v-1.733l1.387-.809z" fill="#fff"/><path d="m208.462 288.912-27.2-15.803 27.2-15.804 27.2 15.804z" opacity=".7" stroke="#fff"/><path d="m236.658 261.61-28.196 16.382v-32.606l28.196-16.382z" fill="url(#M)"/><path d="m208.462 245.386-28.195-16.382 28.195-16.382 28.196 16.382z" fill="#d84b0e"/><path d="m208.462 277.992-28.195-16.382v-32.606l28.195 16.382z" fill="#f16822"/><path d="m198.224 260.35-7.876-4.568v-9.136l7.876 4.568z" fill="#fff"/><path d="m324.133 70.8045-26.147-14.9416 26.147-14.9416 26.148 14.9416z" opacity=".7" stroke="#f16822"/><path d="m350.513 46.2419-26.69 15.5175v-30.8798l26.69-15.3623z" fill="url(#N)"/><path d="m323.823 30.8797-26.845-15.3622 26.845-15.5175 26.69 15.5175z" fill="#8e8e8e"/><path d="m323.823 61.7594-26.845-15.5175v-30.7246l26.845 15.3623z" fill="#efefef"/><path d="m314.047 45.0006-7.448-4.1897v-8.6898l7.448 4.3449z" fill="#8e8e8e"/><path d="m93.0223 70.8045-26.1478-14.9416 26.1478-14.9416 26.1477 14.9416z" opacity=".7" stroke="#f16822"/><path d="m119.401 46.2419-26.6896 15.5175v-30.8798l26.6896-15.3623z" fill="url(#O)"/><path d="m92.7119 30.8797-26.8452-15.3622 26.8452-15.5175 26.6901 15.5175z" fill="#8e8e8e"/><path d="m92.7119 61.7594-26.8452-15.5175v-30.7246l26.8452 15.3623z" fill="#efefef"/><path d="m82.9362 45.0006-7.4484-4.1897v-8.6898l7.4484 4.3449z" fill="#8e8e8e"/><path d="m98.1645 128.151-20.6844-11.902c-1.6178-.924-4.2756-.924-6.0089 0l-20.5689 11.902c-1.6178.925-1.6178 2.542 0 3.467l20.6845 11.902c1.6177.925 4.2755.925 6.0088 0l20.5689-11.902c1.7334-.925 1.7334-2.542 0-3.467z" fill="#747474"/></svg>