<svg fill="none" height="183" viewBox="0 0 316 183" width="316" xmlns="http://www.w3.org/2000/svg" xmlns:xlink="http://www.w3.org/1999/xlink"><linearGradient id="a"><stop offset="0" stop-color="#f16822"/><stop offset="1" stop-color="#d84b0e"/></linearGradient><linearGradient id="b" gradientUnits="userSpaceOnUse" x1="-.345668" x2="315.646" xlink:href="#a" y1="91.5065" y2="91.5065"/><linearGradient id="c" gradientUnits="userSpaceOnUse" x1="183.99" x2="144.055" y1="75.9588" y2="114.109"><stop offset="0" stop-color="#f17922"/><stop offset="1" stop-color="#d74608"/></linearGradient><linearGradient id="d" gradientUnits="userSpaceOnUse" x1="128.406" x2="163.826" y1="55.4624" y2="90.1997"><stop offset="0" stop-color="#fff"/><stop offset="1" stop-color="#b9b9b9"/></linearGradient><linearGradient id="e" gradientUnits="userSpaceOnUse" x1="157.159" x2="158.112" xlink:href="#a" y1="47.3084" y2="73.4861"/><linearGradient id="f" gradientUnits="userSpaceOnUse" x1="157.653" x2="157.653" y1="69.8319" y2="32.5417"><stop offset="0" stop-color="#f16822"/><stop offset="1" stop-color="#f16822" stop-opacity="0"/></linearGradient><path d="m143.125 161.208-107.0851-61.218c-7.509-4.2107-6.5295-11.9844 2.2854-16.843l102.8407-58.9505c8.815-5.1825 22.2-5.5064 29.709-1.2956l107.085 61.2178c7.509 4.2108 6.53 11.9845-2.285 16.8433l-102.841 58.95c-8.815 4.859-22.2 5.507-29.709 1.296z" fill="#4d4d4d" opacity=".6"/><path d="m156.62 183c-6.21 0-12.074-1.377-16.559-3.787l-133.16144-76.767c-4.48471-2.754-6.89956-6.1965-6.89956-10.3274 0-4.8195 3.44978-9.639 9.65939-13.0815l127.98661-73.66905c11.385-6.54071 28.288-7.22918 38.293-1.37697l133.161 76.76732c4.485 2.754 6.9 6.1964 6.9 10.3274 0 4.8195-3.45 9.6392-9.659 13.0812l-128.332 73.669c-6.21 3.443-13.799 5.164-21.389 5.164zm-15.524-6.196c8.97 5.163 25.183 4.475 35.533-1.378l127.987-73.669c5.174-3.0978 8.279-6.8845 8.279-11.0155 0-3.0982-2.07-5.8522-5.864-7.9177l-133.162-76.76721c-8.969-5.163716-25.183-4.47524-35.533 1.37697l-127.6417 73.66904c-5.17465 3.0982-8.27946 6.885-8.27946 11.016 0 3.0982 2.06987 5.8521 5.86463 7.9174z" fill="url(#b)"/><path d="m159.623 51.0155 28.704-17.0576c1.419-.9477 1.262-2.3692-.473-3.3168l-26.338-14.8465c-1.735-.9476-4.416-1.1056-5.836-.1579l-28.703 17.0576c-1.42.9477-1.262 2.3692.473 3.3168l26.338 14.8465c1.735.9476 4.416 1.1056 5.835.1579z" fill="#f16822" opacity=".5"/><path d="m127.449 36.0111 26.338 14.8465c1.735.9476 4.416 1.1056 5.835.1579l28.704-17.0577c.631-.3158.946-.9476.946-1.4214v18.1632c0 .4739-.315 1.1056-.946 1.4215l-28.704 17.0577c-1.419.9476-4.1.7897-5.835-.158l-26.338-14.8465c-.946-.6317-1.419-1.2635-1.419-2.0532v-18.1633c0 .7898.473 1.5795 1.419 2.0533z" fill="#f16822" opacity=".4"/><path d="m126.03 102.973.157-30.0085 63.243-1.2636-.158 29.5351c.158.632 0 1.421-.946 1.895l-28.704 17.058c-1.419.948-4.1.79-5.835-.158l-26.338-15.004c-1.104-.632-1.577-1.264-1.419-2.054z" fill="url(#c)"/><path d="m159.78 89.7062 28.704-17.0576c1.419-.9477 1.261-2.3692-.473-3.3168l-26.338-14.8465c-1.735-.9477-4.416-1.1056-5.836-.1579l-28.704 17.0576c-1.419.9477-1.261 2.3691.474 3.3168l26.338 14.8465c1.735.9476 4.416.9476 5.835.1579z" fill="#ff9863"/><path d="m126.03 65.0675v-12.9512l21.291-.4738 8.359-5.0542c1.419-.9476 4.1-.7897 5.835.158l7.57 4.2644 20.187-.4738v12.9512c0 .4738-.315 1.1056-.946 1.4215l-28.704 17.0576c-1.419.9477-4.1.7897-5.835-.1579l-26.338-14.6886c-1.104-.6317-1.577-1.2635-1.419-2.0532z" fill="url(#d)"/><path d="m159.622 69.174 28.704-17.0577c1.419-.9476 1.262-2.3691-.473-3.3167l-26.338-14.8465c-1.735-.9477-4.416-1.1056-5.836-.158l-28.703 17.0577c-1.42.9477-1.262 2.3691.473 3.3168l26.338 14.8465c1.735.9476 4.416.9476 5.835.1579z" fill="#ff9863"/><path d="m158.676 61.9088 17.664-10.4241c.946-.4738.789-1.4215-.315-2.0533l-16.245-9.1606c-1.104-.6317-2.681-.6317-3.627-.1579l-17.664 10.4241c-.946.4739-.789 1.4215.315 2.0533l16.245 9.1606c1.104.6318 2.839.7897 3.627.1579z" fill="url(#e)"/><path d="m176.34 51.4847-2.997 1.7373-13.563-7.5811c-1.104-.6318-2.681-.6318-3.627-.158l-14.668 8.6868-2.681-1.4215c-1.104-.6317-1.262-1.5794-.315-2.0532l17.821-10.4241c.947-.4739 2.524-.4739 3.628.1579l16.244 9.1606c.946.4738 1.104 1.4215.158 1.8953z" fill="#d84b0e"/><path d="m127.449 36.0062 26.338 14.8465c1.735.9476 4.416 1.1056 5.835.1579l28.704-17.0576c.631-.3159.946-.9477.946-1.4215v18.1632c0 .4739-.315 1.1056-.946 1.4215l-28.704 17.0577c-1.419.9476-4.1.7897-5.835-.158l-26.338-14.8464c-.946-.6318-1.419-1.2636-1.419-2.0533v-18.1632c0 .7897.473 1.5794 1.419 2.0532z" fill="url(#f)" opacity=".4"/></svg>