<svg fill="none" height="20" viewBox="0 0 20 20" width="20" xmlns="http://www.w3.org/2000/svg"><g fill="#171717"><path d="m16.6954.00001578h-9.10751v12.33328422h12.29661v-9.14209c0-.41992-.0826-.83571-.2429-1.22354-.1604-.38783-.3955-.74007-.6918-1.036531-.2962-.296461-.6479-.531313-1.0348-.691094-.3868-.1597816-.8013-.24134972-1.2196-.24002922z"/><path d="m4.74869 0h-1.56957c-.84315 0-1.65177.336214-2.247976.934679-.596202.598461-.931144 1.410161-.931144 2.256511v1.57553h4.74869z"/><path d="m0 7.6167h4.74869v4.7667h-4.74869z"/><path d="m15.1755 19.96h1.5696c.4183 0 .8326-.0829 1.2189-.2439.3864-.161.7373-.397 1.0326-.6943.2954-.2974.5293-.6504.6885-1.0388.1592-.3883.2404-.8043.2391-1.2243v-1.5253h-4.7487z"/><path d="m7.58789 15.2334h4.74871v4.7667h-4.74871z"/><path d="m0 15.2334v1.5755c0 .8464.334942 1.6581.931144 2.2565.596206.5985 1.404826.9347 2.247976.9347h1.56957v-4.7667z"/></g></svg>