<svg
  fill="none"
  height="295"
  viewBox="0 0 48 295"
  width="48"
  xmlns="http://www.w3.org/2000/svg"
  xmlns:xlink="http://www.w3.org/1999/xlink"
>
  <linearGradient id="a" gradientUnits="userSpaceOnUse" x1="23.4991" x2="23.4991" y1="49.7336" y2="281">
    <stop offset="0" stop-color="#f16822" />
    <stop offset="1" stop-color="#f16822" stop-opacity="0" />
  </linearGradient>
  <radialGradient
    id="b"
    cx="0"
    cy="0"
    gradientTransform="matrix(3.50000305 -4.50000127 4.09729754 3.18678885 22.5 287.5)"
    gradientUnits="userSpaceOnUse"
    r="1"
  >
    <stop offset="0" stop-color="#ff8546" />
    <stop offset="1" stop-color="#f16822" />
  </radialGradient>
  <clipPath id="c"><path d="m9 277h30v18h-30z" /></clipPath>
  <circle cx="24" cy="24" r="23.5" stroke="#f16822" />
  <circle cx="24" cy="24" fill="#fff" r="16" />
  <path d="m23.5 47v234" stroke="url(#a)" />
  <g clip-path="url(#c)">
    <path
      d="m37.1136 286.051c.0126-4.334-5.8392-7.863-13.0704-7.883s-13.1035 3.477-13.1161 7.81c-.0126 4.334 5.8392 7.863 13.0704 7.883s13.1035-3.477 13.1161-7.81z"
    />
    <path
      d="m34.6153 279.637c5.8474 3.495 5.911 9.231.0635 12.726-5.8474 3.494-15.3813 3.494-21.2288 0-5.84743-3.495-5.91099-9.231-.1271-12.726 5.8475-3.494 15.3814-3.494 21.2924 0zm-19.8305 11.934c5.1483 3.099 13.411 3.099 18.5593 0 5.0847-3.098 5.0847-8.044-.0636-11.142-5.1483-3.033-13.4745-3.033-18.5593 0-5.08473 3.098-5.08473 8.109.0636 11.142z"
      fill="#f16822"
    />
  </g>
  <circle cx="24" cy="286" fill="url(#b)" r="4" />
  <path
    d="m29 21-6.875 7-3.125-3.1818"
    stroke="#171717"
    stroke-linecap="round"
    stroke-linejoin="round"
    stroke-width="1.5"
  />
</svg>
