<svg fill="none" height="36" viewBox="0 0 36 36" width="36" xmlns="http://www.w3.org/2000/svg"><path d="m36 17.9999c0-9.94112-8.0589-17.99998392-18-17.99998392-9.94113 0-18 8.05886392-18 17.99998392 0 8.9843 6.58234 16.431 15.1875 17.7813v-12.5782h-4.5703v-5.2031h4.5703v-3.9656c0-4.51126 2.6873-7.00313 6.7989-7.00313 1.9693 0 4.0292.35156 4.0292.35156v4.42967h-2.2697c-2.2361 0-2.9334 1.3875-2.9334 2.811v3.3765h4.9922l-.7981 5.2031h-4.1941v12.5782c8.6052-1.3503 15.1875-8.797 15.1875-17.7813z" fill="#f16822"/><path d="m25.0066 23.2031.7981-5.2031h-4.9922v-3.3765c0-1.4235.6973-2.811 2.9334-2.811h2.2697v-4.42969s-2.0599-.35156-4.0292-.35156c-4.1116 0-6.7989 2.49188-6.7989 7.00315v3.9656h-4.5703v5.2031h4.5703v12.5782c.9164.1438 1.8557.2187 2.8125.2187s1.8961-.0749 2.8125-.2187v-12.5782z" fill="#fff"/></svg>