<svg fill="none" height="36" viewBox="0 0 36 36" width="36" xmlns="http://www.w3.org/2000/svg"><path d="m18 36c9.9411 0 18-8.0589 18-18 0-9.94112-8.0589-18-18-18-9.94112 0-18 8.05888-18 18 0 9.9411 8.05888 18 18 18z" fill="#f16822"/><path d="m30.007 18.0001c0-1.4606-1.1811-2.6205-2.6205-2.6205-.7087 0-1.3533.2791-1.8257.7303-1.8042-1.2888-4.2745-2.1264-7.0239-2.2337l1.2027-5.62779 3.9093.83761c.0433.98818.8593 1.78288 1.869 1.78288 1.031 0 1.8686-.8376 1.8686-1.86897 0-1.03098-.8376-1.86858-1.8686-1.86858-.7303 0-1.3749.42961-1.6756 1.0526l-4.3601-.92368c-.129-.02162-.2579 0-.344.06446-.1073.06446-.1717.17177-.193.30069l-1.332 6.27198c-2.7923.0861-5.3055.9237-7.1312 2.2341-.4725-.4512-1.11711-.7302-1.82579-.7302-1.4606 0-2.6205 1.1811-2.6205 2.6205 0 1.0738.64421 1.9758 1.54667 2.3842-.04324.2575-.06446.5153-.06446.7948 0 4.0379 4.70408 7.3246 10.50368 7.3246 5.7995 0 10.5036-3.2651 10.5036-7.3246 0-.2579-.0216-.5373-.0645-.7948.9021-.4084 1.5463-1.332 1.5463-2.4059zm-18 1.8686c0-1.031.8376-1.8686 1.869-1.8686 1.031 0 1.8686.8376 1.8686 1.8686s-.8376 1.869-1.8686 1.869c-1.0314.0212-1.869-.838-1.869-1.869zm10.4608 4.962c-1.2888 1.2888-3.7376 1.3749-4.4462 1.3749-.7303 0-3.1791-.1077-4.4467-1.3749-.193-.1934-.193-.4941 0-.6875.1934-.193.4941-.193.6875 0 .8163.8164 2.5348 1.0955 3.7592 1.0955 1.2243 0 2.964-.2791 3.7588-1.0955.1933-.193.494-.193.6874 0 .1718.1934.1718.4941 0 .6875zm-.3439-3.0718c-1.031 0-1.8686-.8376-1.8686-1.8686 0-1.0309.8376-1.8685 1.8686-1.8685 1.0314 0 1.869.8376 1.869 1.8685 0 1.0094-.8376 1.8686-1.869 1.8686z" fill="#fff"/></svg>