<svg fill="none" height="36" viewBox="0 0 36 36" width="36" xmlns="http://www.w3.org/2000/svg" xmlns:xlink="http://www.w3.org/1999/xlink"><linearGradient id="a" gradientUnits="userSpaceOnUse" x1="20.2565" x2="23.0657" y1="18.0016" y2="24.4019"><stop offset="0" stop-color="#eff7fc"/><stop offset="1" stop-color="#fff"/></linearGradient><path d="m18 36c9.9411 0 18-8.0589 18-18 0-9.94112-8.0589-18-18-18-9.94112 0-18 8.05888-18 18 0 9.9411 8.05888 18 18 18z" fill="#f16822"/><path d="m14.6999 26.25c-.5832 0-.484-.2202-.6852-.7755l-1.7148-5.6434 13.2-7.8311" fill="#e4e4e4"/><path d="m14.7001 26.2501c.45 0 .6487-.2058.9-.45l2.4-2.3337-2.9937-1.8053" fill="#d1d1d1"/><path d="m15.006 21.6617 7.254 5.3593c.8278.4568 1.4251.2202 1.6314-.7684l2.9527-13.9145c.3023-1.212-.462-1.7619-1.254-1.4023l-17.33848 6.6856c-1.1835.4748-1.17645 1.1351-.2157 1.4292l4.44948 1.3889 10.3009-6.4988c.4863-.2949.9327-.1365.5664.1887" fill="url(#a)"/></svg>