<svg fill="none" height="36" viewBox="0 0 36 36" width="36" xmlns="http://www.w3.org/2000/svg"><circle cx="18" cy="18" fill="#f16822" r="18"/><path d="m14.8542 27c7.925 0 12.2588-6.6359 12.2588-12.3903 0-.1885-.0038-.3761-.0122-.5629.8413-.6147 1.5725-1.3817 2.1492-2.255-.772.3469-1.6027.5803-2.4742.6856.8895-.5391 1.5724-1.3919 1.8946-2.4086-.8325.4988-1.7543.8613-2.7359 1.0571-.7862-.8465-1.9055-1.3759-3.1449-1.3759-2.3794 0-4.3088 1.9502-4.3088 4.3541 0 .3417.0378.6741.1117.993-3.5808-.1821-6.7561-1.915-8.88115-4.5499-.37002.6436-.58338 1.3911-.58338 2.1888 0 1.5108.76065 2.8445 1.91733 3.6248-.7069-.0221-1.37091-.2182-1.95129-.5446-.00064.0182-.00064.0361-.00064.0556 0 2.109 1.48513 3.8698 3.45653 4.2688-.362.0997-.7429.1532-1.1361.1532-.2772 0-.5472-.0276-.8097-.0785.5485 1.7303 2.1391 2.9894 4.0248 3.0246-1.4746 1.1682-3.3322 1.864-5.35118 1.864-.34734 0-.69048-.02-1.02772-.0603 1.9068 1.2353 4.171 1.9561 6.6045 1.9561" fill="#fff"/></svg>