<svg fill="none" height="24" viewBox="0 0 43 24" width="43" xmlns="http://www.w3.org/2000/svg"><path d="m31.7135 7.24445 3.5454-6.14438c.0951-.16907.1198-.368834.0689-.556047-.0509-.187214-.1734-.346812-.3409-.4442428-.1676-.09743092-.3667-.124854-.5543-.0763321-.1875.0485219-.3485.1690839-.448.3355849l-3.5865 6.216437c-2.8629-1.28902-5.9661-1.9555-9.105-1.9555s-6.2422.66648-9.1051 1.9555l-3.58651-6.216437c-.09948-.166501-.26044-.287063-.44802-.3355849s-.3867-.02109882-.55425.0763321c-.16754.0974308-.29003.2570288-.34094.4442428-.05091.187213-.02616.386977.06892.556047l3.5454 6.14438c-6.11455 3.31405-10.266282 9.47905-10.8726 16.75555h42.545c-.6063-7.2765-4.7683-13.4415-10.8315-16.75555zm-20.2243 10.68325c-.3496 0-.6913-.1039-.982-.2984s-.51723-.471-.65102-.7944c-.13378-.3235-.16878-.6794-.10058-1.0228s.23655-.6589.4837-.9064c.2472-.2476.5622-.4162.9051-.4845.3428-.0683.6982-.0333 1.0212.1007s.5991.3609.7933.652.2979.6334.2979.9835c0 .4695-.1862.9198-.5177 1.2518-.3315.3319-.7811.5185-1.2499.5185zm19.5872 0c-.3496 0-.6914-.1039-.9821-.2984-.2906-.1945-.5172-.471-.651-.7944-.1338-.3235-.1688-.6794-.1006-1.0228s.2366-.6589.4838-.9064c.2472-.2476.5621-.4162.905-.4845s.6983-.0333 1.0213.1007.599.3609.7932.652c.1943.2911.2979.6334.2979.9835 0 .4695-.1862.9198-.5177 1.2518-.3315.3319-.7811.5185-1.2498.5185z" fill="#fff"/></svg>