<svg fill="none" height="30" viewBox="0 0 25 30" width="25" xmlns="http://www.w3.org/2000/svg"><g fill="#fff"><path d="m20.7828 15.9388c-.0346-3.7965 3.1589-5.6191 3.3034-5.708-1.7971-2.58077-4.5939-2.93433-5.5916-2.97592-2.3788-.23634-4.6439 1.37453-5.8497 1.37453-1.2057 0-3.07025-1.34049-5.04261-1.30268-2.59643.03781-4.98677 1.48041-6.32351 3.76057-2.69466 4.5887-.687624 11.3895 1.93577 15.1142 1.28474 1.8207 2.81408 3.8721 4.82497 3.7965 1.93769-.0757 2.66958-1.229 5.00798-1.229 2.3383 0 2.997 1.229 5.0445 1.1931 2.0822-.0398 3.4035-1.8605 4.6786-3.6869 1.4716-2.1138 2.0802-4.1595 2.1149-4.2673-.0462-.0189-4.0603-1.5295-4.1027-6.0691z"/><path d="m16.9361 4.79096c1.0671-1.26865 1.7875-3.03269 1.589-4.79096-1.5371.0605675-3.3977 1.00587-4.5014 2.27452-.9881 1.12123-1.8548 2.91733-1.6199 4.63981 1.7143.13046 3.4651-.85658 4.5323-2.12337z"/></g></svg>