<svg fill="none" height="30" viewBox="0 0 31 30" width="31" xmlns="http://www.w3.org/2000/svg"><path d="m20.6521 4.13114c.7548-.75485 7.8545-5.23634 9.4662-3.617833 1.6117 1.611703-2.863 8.711353-3.6179 9.466203-.7548.75489-2.6793.06119-4.291-1.5573-1.6185-1.6117-2.319-3.53622-1.5573-4.29107zm-13.1793-1.91092c-2.46856-1.400894-5.97759-2.958194-7.09286-1.836122-1.128873 1.128872.482832 4.719502 1.89732 7.188062 1.25809-2.18974 3.0466-4.03266 5.19554-5.35194zm20.1837 7.20166c.2244.76842.1836 1.40772-.1836 1.77492-1.3805 1.3805-5.9504-1.83613-7.4329-4.76711-1.2241-2.19654-.7548-3.63144 1.0133-3.31182.3876-.24481.8364-.51683 1.3329-.78885-2.0266-1.05406-4.3251-1.652503-6.7665-1.652503-8.09929 0-14.661722 6.562423-14.661722 14.661783 0 8.0925 6.562432 14.6617 14.661722 14.6617 8.0994 0 14.6618-6.5624 14.6618-14.6617 0-2.6114-.6869-5.0664-1.8837-7.1949-.2652.47603-.5169.90445-.7413 1.27848z" fill="#fff"/></svg>