<svg fill="none" height="30" viewBox="0 0 26 30" width="26" xmlns="http://www.w3.org/2000/svg"><path clip-rule="evenodd" d="m24.8925 24.966c-.4407-.3629-.8909-.7171-1.3031-1.1109-.4591-.4382-.7476-.9683-.6847-1.6395.0361-.3861-.0531-.7183-.5188-.8474.1095-.2833.2121-.4733.2536-.6759.0462-.2258.0437-.4632.0501-.6957.0648-2.4452-.8185-4.5886-2.1267-6.588-.6025-.9201-1.2317-1.8238-1.8739-2.7167-1.0046-1.39638-1.3648-2.96512-1.3829-4.6598-.0089-.77725-.1007-1.56628-.2654-2.3261-.3224-1.48281-1.1168-2.64231-2.5576-3.264154-1.104-.4767595-2.2468-.571277-3.4127-.266121-1.69419.443125-2.71866 1.702295-2.69951 3.458595.01817 1.69026.10237 3.38273.22635 5.06906.0707.95573-.0766 1.78032-.71072 2.53842-.60982.7289-1.15532 1.5153-1.68363 2.307-.30172.4527-.56882.9459-.7554 1.456-.50819 1.3903-.97537 2.7921-1.78625 4.0508-.3005.4664-.33462.9884-.12128 1.5218.05524.1382.08912.3508.02185.4621-.57791.9591-1.2302 1.8031-2.47119 1.9873-.976108.1451-1.0242263.3226-.9945209 1.3289.0245499.8192.0149749 1.646-.0687399 2.4601-.0891162.8728.001964 1.1099.8450078 1.3191 1.945333.4831 3.906623.8953 5.767263 1.6826.79222.3351 1.58715.2188 2.2252-.4328.66604-.6803 1.50757-.9464 2.41667-.9474 1.543-.0012 3.0864.0732 4.6301.0906.4179.0049.6577.1603.8259.5399.2062.4647.5548.8062 1.0912.8656 1.0294.1134 1.9672-.0393 2.7472-.8246.9618-.9693 2.071-1.7347 3.3424-2.2653.3639-.1519.7066-.3908 1.0073-.65.5477-.4719.5188-.7724-.0331-1.2275zm-12.6179-19.75656c.1861-.63855.6228-1.05295 1.2871-1.17864.5588-.10557 1.0319.1689 1.3844.79689.3795.67708.5042 1.38461.1802 2.12553-.2659.60736-.3906.66456-1.0122.45859-.1164-.03855-.23-.08421-.4363-.16007.1739-.14582.2833-.25409.4086-.33928.2783-.18952.3564-.45613.3304-.77283-.0341-.41587-.3611-.78412-.6965-.77946-.3007.00418-.5553.2865-.5892.71563-.0211.26735.0233.53986.0425.8811-.846-.25115-1.1566-.86538-.899-1.74746zm-3.13014-.55262c.31276-.47332.78486-.56809 1.25224-.25139.4982.3378.8708 1.29034.6784 1.8599-.07.2072-.2767.36825-.4213.55016l-.1483-.09182c-.0565-.30761-.0678-.63461-.1858-.91644-.0747-.17873-.3086-.29067-.47115-.43257-.1527.18142-.41563.35425-.43135.54697-.0216.26612.11711.55974.23789.81776.07635.16227.24575.28109.42051.47037l-.47182.37071c-.74091-.66285-.96112-2.16531-.45932-2.92365zm9.24644 15.76248c-.0498.6393-.1227.6661-.7654.7606-.4564.0668-.5792.1856-.6022.7276-.0266.6337-.0248 1.2695-.003 1.9034.015.4345-.1318.7753-.4308 1.0785-1.6606 1.6831-3.6445 2.4807-6.0177 2.1913-1.02374-.125-1.69297-.748-2.23332-1.6299.24059-.0891.41858-.149.59215-.2194.76644-.3118.90982-.971.29779-1.541-.46252-.4314-.97856-.806-1.47472-1.201-.4797-.3818-.96579-.7557-1.44623-1.1364-.40949-.3248-.56588-.7434-.5757-1.2737-.02307-1.2722.23863-2.4623.77038-3.6204.4743-1.0333.84182-2.1154 1.28617-3.1632.22954-.5406.46792-1.0937.80475-1.5683.32381-.4551.52389-.9007.48805-1.4582-.02062-.31329-.00393-.629-.00393-.94348l.17357-.08642c.28011.24182.56514.47848.84034.72643.993.89507 1.9375.93607 3.0243.16447.4635-.3292.9648-.60636 1.4551-.89654.122-.07218.2681-.10385.4748-.18118.528 1.24372 1.0463 2.46312 1.565 3.68252.2632.6196.4743 1.2685.8013 1.8527.6558 1.1723 1.0046 2.4091.9992 3.7493-.0029.6948.0336 1.392-.0199 2.0823z" fill="#fff" fill-rule="evenodd"/></svg>