<svg fill="none" height="22" viewBox="0 0 22 22" width="22" xmlns="http://www.w3.org/2000/svg"><path d="m11 21c5.5228 0 10-4.4772 10-10 0-5.52285-4.4772-10-10-10-5.52285 0-10 4.47715-10 10 0 5.5228 4.47715 10 10 10z" fill="#fff" stroke="#282828" stroke-linecap="round" stroke-linejoin="round"/><path d="m10.4446 1c-1.87184 2.99957-2.86422 6.46429-2.86422 10 0 3.5357.99238 7.0004 2.86422 10" fill="#fff"/><path d="m10.4446 1c-1.87184 2.99957-2.86422 6.46429-2.86422 10 0 3.5357.99238 7.0004 2.86422 10" stroke="#282828" stroke-linecap="round" stroke-linejoin="round"/><path d="m11.5556 1c1.8718 2.99957 2.8642 6.46429 2.8642 10 0 3.5357-.9924 7.0004-2.8642 10" fill="#fff"/><g stroke="#282828" stroke-linecap="round" stroke-linejoin="round"><path d="m11.5556 1c1.8718 2.99957 2.8642 6.46429 2.8642 10 0 3.5357-.9924 7.0004-2.8642 10"/><path d="m1.66693 7.66663h18.66667"/><path d="m1.66693 14.3334h18.66667"/></g></svg>