<svg fill="none" height="162" viewBox="0 0 260 162" width="260" xmlns="http://www.w3.org/2000/svg" xmlns:xlink="http://www.w3.org/1999/xlink"><mask id="a" height="154" maskUnits="userSpaceOnUse" width="256" x="0" y="0"><path d="m0 15c0-8.28428 6.71573-15 15-15h226c8.284 0 15 6.71573 15 15v124c0 8.284-6.716 15-15 15h-226c-8.28427 0-15-6.716-15-15z" fill="#f3f3f3"/></mask><rect fill="#f3f3f3" height="154" rx="15" width="256"/><g mask="url(#a)"><g fill="#d3d2d2"><path d="m253.311 48.0743s.097 0 0 0h.097c.096-.0981 0-.0981-.097 0 0-.0981.097-.0981 0 0z"/><path d="m249.251 119.535.097.097.097-.097-.097-.097c-.097 0-.193.097-.097.097z"/><path d="m245.965 114.696s.099 0 0 0h.099s0-.1-.099 0c0-.1.099-.1 0 0z"/><path d="m243.259 109.464c0 .097 0 .097 0 0h.097s-.097-.096-.097 0c-.096 0 0 0 0 0z"/><path d="m240.969 104.248c.052-.012.085-.064.073-.116s-.064-.085-.116-.073-.085.064-.073.116c.012.053.064.085.116.073z"/><path d="m239.104 98.5235c0 .0985 0 .0985 0 0h.098s0-.0985-.098 0z"/><path d="m237.75 92.8101c0 .0986.098.0986 0 0h.098s0-.0985-.098 0z"/><path d="m236.977 86.9998c0 .0985 0 .0985 0 0h.099s0-.0985-.099 0z"/><path d="m236.687 81.1918s.098 0 0 0h.098c0-.0998 0-.0998-.098 0 0-.0998 0-.0998 0 0z"/><path d="m236.977 75.284c0 .0985 0 .0985 0 0h.099s0-.0985-.099 0z"/><path d="m237.653 69.5696c0 .0969.097.0969.194.0969.096 0 .096-.0969.096-.1937s-.096-.0968-.193-.0968-.097.0968-.097.1936z"/><path d="m239.006 63.7597.097.0968.097-.0968-.097-.0969c-.097 0-.097.0969-.097.0969z"/><path d="m240.746 58.2408c0 .0968.097.0968.193.0968.097 0 .097-.0968.097-.1937 0-.0968-.097-.0968-.193-.0968-.097 0-.097.0968-.097.1937z"/><path d="m243.066 52.818s.097.0968 0 0h.097c.096-.0968 0-.0968-.097 0 0 0 .097-.0968 0 0z"/><path d="m245.772 47.6856c0 .0968.097.0968.193.0968.097 0 .097-.0968.097-.1936 0-.0969-.097-.0969-.193-.0969-.097 0-.097.0969-.097.1937z"/><path d="m248.961 42.7474c0 .0968.097.0968.194.0968.096 0 .096-.0968.096-.1937 0-.0968-.096-.0968-.193-.0968 0 .0968-.097.0968-.097.1937z"/><path d="m252.73 38.1984h.099c0-.0998 0-.0998-.099 0 0-.0998 0-.0998 0 0z"/><path d="m252.828 133.478c0 .097.096.097.193.097s.097-.097.097-.193c0-.097-.097-.097-.194-.097-.096.097-.096.096-.096.193z"/><path d="m248.671 129.315c0 .097.097.097.194.097.096 0 .096-.097.096-.194s-.096-.097-.193-.097c0 0-.097.097-.097.194z"/><path d="m244.999 124.764.097.097.096-.097-.096-.097c-.097 0-.097.097-.097.097z"/><path d="m241.52 120.019c0 .097.096.194.289.194.194 0 .194-.097.194-.291 0-.097-.097-.193-.29-.193-.193.096-.193.193-.193.29z"/><path d="m238.523 114.984c0 .097.097.194.29.194.097 0 .193-.097.193-.291 0-.097-.096-.193-.29-.193-.096.096-.193.193-.193.29z"/><path d="m236.204 109.949c.16 0 .29-.13.29-.291 0-.16-.13-.29-.29-.29s-.29.13-.29.29c0 .161.13.291.29.291z"/><path d="m233.884 104.235c0 .097.096.194.193.194s.193-.097.193-.194c0-.096-.096-.193-.193-.193s-.193.097-.193.193z"/><path d="m232.241 98.6194c0 .0968.097.1936.29.1936.097 0 .193-.0968.193-.2905 0-.0968-.096-.1936-.29-.1936-.193.0968-.29.1936-.193.2905z"/><path d="m231.213 93.0173c.104-.024.169-.1279.145-.2322-.024-.1042-.128-.1692-.232-.1452s-.169.1279-.145.2322c.024.1042.128.1693.232.1452z"/><path d="m230.308 87.0962c0 .0968.097.1936.29.1936.097 0 .193-.0968.193-.2905 0-.0968-.096-.1936-.29-.1936-.193 0-.193.1936-.193.2905z"/><path d="m229.921 81.2867c0 .1937.194.2905.387.2905s.29-.1936.29-.3873-.193-.2905-.387-.2905c-.193 0-.29.1937-.29.3873z"/><path d="m230.115 75.3795c.097.1937.29.3874.483.2905.194-.0968.387-.2904.29-.4841-.096-.1937-.29-.3873-.483-.2905s-.387.2905-.29.4841z"/><path d="m230.791 69.5697c.097.1937.29.3874.483.2905.194-.0968.387-.2905.29-.4841-.096-.1937-.29-.3874-.483-.2905-.193.0968-.29.2905-.29.4841z"/><path d="m232.145 63.7597c0 .0969.096.1937.289.1937.097 0 .194-.0968.194-.2905 0-.0968-.097-.1937-.29-.1937-.193.0969-.193.1937-.193.2905z"/><path d="m233.691 58.2406c0 .1937.193.2905.29.1937.193 0 .29-.1937.193-.2905 0-.1937-.193-.2905-.386-.1937 0-.0968-.097.0968-.097.2905z"/><path d="m235.817 52.7209c0 .0968.193.1937.29.1937.096 0 .193-.1937.193-.2905 0-.0969-.193-.1937-.29-.1937-.096 0-.193.0969-.193.2905z"/><path d="m238.33 47.395c0 .0968.193.1937.29.1937s.193-.1937.193-.2905c0-.0969-.193-.1937-.29-.1937-.096 0-.193.1937-.193.2905z"/><path d="m241.229 42.3601c0 .1937.194.2905.387.1937.193 0 .29-.1937.193-.3873 0-.1937-.193-.2905-.29-.1937-.193.0968-.29.2905-.29.3873z"/><path d="m244.709 37.5186c0 .0968.097.1937.193.1937.097 0 .194-.0969.194-.1937s-.097-.1936-.194-.1936c-.193 0-.193.0968-.193.1936z"/><path d="m248.478 33.0643c0 .0968.097.1936.194.1936.096 0 .193-.0968.193-.1936s-.097-.1937-.193-.1937c-.194-.0968-.29.0969-.194.1937z"/><path d="m252.441 28.9004c0 .0968.193.1936.29.1936s.193-.1936.193-.2905c0-.0968-.193-.1936-.29-.1936-.096 0-.193.0968-.193.2905z"/><path d="m253.214 142.388c0 .096.097.096.193.096.097 0 .097-.096.097-.193s-.097-.097-.193-.097c-.097 0-.194.194-.097.194z"/><path d="m248.768 138.611c0 .097.097.097.193.097.097 0 .097-.097.097-.194s-.097-.097-.193-.097c-.097.097-.097.097-.097.194z"/><path d="m244.322 134.544c.097.291.29.387.58.387.29-.096.386-.29.386-.581-.096-.29-.289-.387-.579-.387-.29.097-.484.387-.387.581z"/><path d="m240.553 130.09c0 .193.194.29.387.29s.29-.193.29-.387-.194-.291-.387-.291-.29.194-.29.388z"/><path d="m237.267 125.345c0 .097.096.194.193.194s.193-.097.193-.194-.096-.194-.193-.194-.29.097-.193.194z"/><path d="m233.981 120.406c0 .194.193.291.29.194.193 0 .29-.194.193-.387 0-.194-.193-.291-.29-.194-.096.097-.193.194-.193.387z"/><path d="m231.178 115.274c0 .194.193.291.386.291.194 0 .29-.194.29-.388 0-.193-.193-.29-.386-.29-.194 0-.29.194-.29.387z"/><path d="m228.858 109.852c0 .194.194.29.387.29s.29-.193.29-.387-.193-.29-.387-.29c-.193 0-.29.193-.29.387z"/><path d="m227.022 104.332c0 .097.193.194.29.194.096 0 .193-.194.193-.291 0-.096-.193-.193-.29-.193-.193 0-.29.193-.193.29z"/><path d="m225.476 98.7158c0 .0968.193.1937.29.1937.096 0 .193-.1937.193-.2905 0-.0969-.193-.1937-.29-.1937s-.193.0968-.193.2905z"/><path d="m224.219 92.9059c.097.1937.29.3873.483.2905.194 0 .387-.2905.29-.4841-.096-.1937-.29-.3874-.483-.2905-.193.0968-.29.2904-.29.4841z"/><path d="m223.64 87.0966c0 .1936.193.2905.386.2905.194 0 .29-.1937.29-.3874 0-.1936-.193-.2905-.386-.2905-.194.0969-.29.1937-.29.3874z"/><path d="m223.349 81.2863c.097.1937.29.3873.484.2905.193-.0968.386-.2905.29-.4842-.097-.1936-.29-.3873-.484-.2905-.193 0-.386.2905-.29.4842z"/><path d="m223.35 75.4767c.096.2905.386.4841.676.3873s.483-.3873.387-.6778c-.097-.2905-.387-.4842-.677-.3873-.193 0-.386.3873-.386.6778z"/><path d="m224.026 69.6664c.097.2905.386.4841.676.3873s.484-.3873.387-.6778-.387-.4842-.677-.3873c-.289.0968-.386.3873-.386.6778z"/><path d="m225.283 63.8568c0 .1937.289.3874.483.2905.193-.0968.386-.2905.29-.4841-.097-.1937-.29-.3874-.484-.2905-.193 0-.386.2905-.289.4841z"/><path d="m226.635 58.2401c.097.2905.387.4842.677.3873.29-.0968.483-.3873.387-.6778-.097-.2905-.387-.4841-.677-.3873-.29 0-.483.2905-.387.6778z"/><path d="m229.052 52.9148c.213 0 .386-.1734.386-.3873s-.173-.3874-.386-.3874c-.214 0-.387.1735-.387.3874s.173.3873.387.3873z"/><path d="m230.985 47.2988c.096.2905.29.3873.58.3873.289-.0968.386-.2905.386-.581-.097-.2905-.29-.3873-.58-.3873s-.483.2905-.386.581z"/><path d="m233.691 42.0697c.097.1937.29.3873.483.2905s.387-.2905.29-.4841c-.097-.1937-.29-.3874-.483-.2905-.193 0-.29.2905-.29.4841z"/><path d="m236.88 37.1315c0 .1936.194.2905.387.2905s.29-.1937.29-.3874c0-.1936-.193-.2905-.387-.2905-.193 0-.29.1937-.29.3874z"/><path d="m240.456 32.2895c0 .0968.097.1937.29.1937.097 0 .193-.0969.193-.2905 0-.0968-.096-.1937-.29-.1937-.096.0969-.193.1937-.193.2905z"/><path d="m244.226 27.9321c0 .0968.193.1937.29.1937.096 0 .193-.1937.193-.2905 0-.0969-.193-.1937-.29-.1937s-.193.0968-.193.2905z"/><path d="m248.381 23.7685c0 .0969.097.1937.29.1937.097 0 .194-.0968.194-.2905 0-.0968-.097-.1937-.29-.1937-.097 0-.194.0969-.194.2905z"/><path d="m252.828 19.8952c0 .0969.096.1937.29.1937.096 0 .193-.0968.193-.2905 0-.0968-.097-.1937-.29-.1937-.097.0969-.193.1937-.193.2905z"/><path d="m253.794 151.005c0 .097.097.097.193.097.097 0 .097-.097.097-.194 0-.096-.097-.096-.193-.096 0 .096-.097.096-.097.193z"/><path d="m248.961 147.616c0 .194.194.291.29.194.194 0 .29-.194.194-.291 0-.193-.194-.29-.29-.193-.097-.097-.194.096-.194.29z"/><path d="m244.419 143.84c.096.193.29.387.483.29s.387-.29.29-.484-.29-.387-.483-.29c-.194 0-.387.193-.29.484z"/><path d="m239.876 139.773c.097.387.484.581.87.581.387-.097.58-.484.58-.872-.096-.387-.483-.581-.87-.581-.386.097-.58.485-.58.872z"/><path d="m236.01 135.415c.097.388.484.581.87.581.387-.096.58-.484.58-.871-.096-.387-.483-.581-.87-.581-.386.097-.676.484-.58.871z"/><path d="m232.724 130.67c.097.291.29.388.58.388s.387-.291.387-.581c-.097-.291-.29-.388-.58-.388s-.483.388-.387.581z"/><path d="m229.438 125.829c.097.29.29.484.58.387s.483-.29.387-.581c-.097-.29-.29-.484-.58-.387-.29 0-.483.29-.387.581z"/><path d="m226.636 120.697c.096.194.29.387.483.29.193-.096.386-.29.29-.484-.097-.193-.29-.387-.483-.29-.194.097-.387.29-.29.484z"/><path d="m224.219 115.468c0 .194.194.291.29.194.193 0 .29-.194.193-.291 0-.193-.193-.29-.386-.193-.097-.097-.193.096-.097.29z"/><path d="m221.803 110.046c.097.29.29.387.58.387.29-.097.387-.291.387-.581-.097-.291-.29-.387-.58-.387-.29.096-.387.29-.387.581z"/><path d="m220.16 104.429c0 .194.193.291.386.291.194 0 .29-.194.29-.388 0-.193-.193-.29-.386-.29-.29 0-.387.193-.29.387z"/><path d="m218.71 98.7162c0 .1937.193.2905.387.2905.193 0 .289-.1937.289-.3873 0-.1937-.193-.2905-.386-.2905s-.29.1936-.29.3873z"/><path d="m217.55 93.0031c.097.2905.29.3874.58.3874.29-.0969.387-.2906.387-.5811-.097-.2905-.29-.3873-.58-.3873-.29.0969-.387.2905-.387.581z"/><path d="m216.874 87.193c.096.2905.386.4841.676.3873s.484-.3873.387-.6778-.387-.4842-.677-.3873c-.29.0968-.483.3873-.386.6778z"/><path d="m216.777 81.2863c.097.2905.29.3873.58.3873.29-.0968.387-.2905.387-.5809-.097-.2905-.29-.3874-.58-.3874-.29.0969-.484.3874-.387.581z"/><path d="m216.68 75.4762c.097.3873.484.6778.87.581.387-.0969.677-.4842.58-.8715s-.483-.6778-.87-.581c-.386.0968-.676.4842-.58.8715z"/><path d="m217.067 69.7634c.097.4842.58.7746 1.16.6778.483-.0968.773-.581.676-1.162-.096-.581-.58-.7746-1.16-.6778-.483.0968-.773.581-.676 1.162z"/><path d="m218.227 63.8566c.096.3873.483.6778.87.581.386-.0969.676-.4842.579-.8715-.096-.3874-.483-.6779-.869-.581-.387.0968-.677.4841-.58.8715z"/><path d="m219.677 58.2406c.096.3873.483.6778.869.581.387-.0968.677-.4842.58-.8715-.096-.3873-.483-.6778-.87-.581-.483 0-.676.3873-.579.8715z"/><path d="m221.32 52.6243c.097.4842.58.7747.967.6779.483-.0969.773-.581.676-.9684-.097-.4841-.58-.7746-1.063-.6778-.387.0968-.677.581-.58.9683z"/><path d="m223.253 47.2017c.096.581.676.8715 1.256.7747.58-.0969.87-.6779.773-1.2588-.096-.581-.676-.8715-1.256-.7747-.483.1937-.87.7747-.773 1.2588z"/><path d="m226.249 41.8761c.097.2905.387.4842.677.3873.29-.0968.483-.3873.386-.6778-.096-.2905-.386-.4841-.676-.3873-.194 0-.387.3873-.387.6778z"/><path d="m229.148 36.7435c.097.2905.387.4842.677.3874.29-.0969.483-.3874.387-.6779-.097-.2905-.387-.4841-.677-.3873s-.387.3873-.387.6778z"/><path d="m232.531 31.8053c.097.2905.29.3874.58.3874.29-.0969.386-.2905.386-.581-.096-.2905-.289-.3873-.579-.3873-.29.0968-.484.3873-.387.5809z"/><path d="m236.107 27.1576c.096.1937.29.3873.483.2905s.387-.2905.29-.4841c-.097-.1937-.29-.3874-.483-.2905-.194.0968-.387.2905-.29.4841z"/><path d="m239.973 22.8002c.097.1937.29.3873.483.2905.194-.0969.387-.2905.29-.4842-.096-.1936-.29-.3873-.483-.2905-.193 0-.29.2905-.29.4842z"/><path d="m244.032 18.6362c.097.2905.29.3873.58.3873.29-.0968.387-.2905.387-.581-.097-.2905-.29-.3873-.58-.3873-.193.0968-.387.3873-.387.581z"/><path d="m248.671 14.86c0 .1937.194.2905.387.2905s.29-.1937.29-.3873c0-.1937-.194-.2905-.387-.2905s-.386.1936-.29.3873z"/><path d="m253.504 11.2771c0 .0968.096.1936.29.1936.096 0 .193-.0968.193-.2905 0-.0968-.097-.1936-.29-.1936-.193.0968-.29.1936-.193.2905z"/><path d="m244.902 152.651c0 .194.194.291.29.194.194 0 .29-.194.194-.29 0-.194-.194-.291-.29-.194-.097 0-.194.194-.194.29z"/><path d="m240.263 148.972c.097.29.29.387.58.387.29-.097.387-.291.387-.581-.097-.291-.29-.387-.58-.387-.29.096-.387.29-.387.581z"/><path d="m236.493 145.486c.374 0 .677-.304.677-.678s-.303-.678-.677-.678c-.373 0-.676.304-.676.678s.303.678.676.678z"/><path d="m231.758 140.644c.096.485.58.775 1.063.678s.773-.581.676-1.065c-.096-.484-.579-.774-1.063-.678-.483.097-.773.581-.676 1.065z"/><path d="m228.278 135.996c.097.388.387.581.774.484.386-.096.579-.387.483-.774-.097-.387-.387-.581-.773-.484-.29.097-.484.484-.484.774z"/><path d="m224.703 131.252c.096.484.58.774 1.159.677.484-.096.774-.581.677-1.162-.097-.484-.58-.774-1.16-.677-.483.193-.87.677-.676 1.162z"/><path d="m221.61 126.313c.096.484.58.775 1.159.678.484-.097.774-.581.677-1.162-.097-.484-.58-.775-1.16-.678s-.773.581-.676 1.162z"/><path d="m219.29 120.987c.096.291.386.484.676.388.29-.097.484-.388.387-.678-.097-.291-.387-.484-.677-.388-.29.097-.483.388-.386.678z"/><path d="m216.874 115.662c.096.29.386.484.773.484.29-.097.483-.388.483-.775-.096-.29-.386-.484-.773-.484-.387.097-.58.387-.483.775z"/><path d="m214.747 110.142c.097.388.484.581.87.581.387-.096.58-.484.58-.871-.097-.387-.483-.581-.87-.581-.483.097-.676.484-.58.871z"/><path d="m213.201 104.526c.097.291.29.484.58.388.29-.097.483-.291.387-.581-.097-.291-.29-.484-.58-.388-.29 0-.387.291-.387.581z"/><path d="m211.751 98.8129c.097.3873.483.581.87.4842.387-.0969.58-.4842.483-.8715-.096-.3873-.483-.581-.87-.4842-.386.1937-.579.4842-.483.8715z"/><path d="m210.689 93.1001c.096.3873.483.6778.966.581.387-.0968.677-.4842.58-.9683-.097-.3873-.483-.6778-.966-.581-.387.0968-.677.4842-.58.9683z"/><path d="m210.108 87.2901c.097.3873.483.6778.967.581.386-.0969.676-.4842.579-.9684-.096-.3873-.483-.6778-.966-.581-.387.0969-.677.4842-.58.9684z"/><path d="m209.915 81.3832c.096.4841.58.6778.966.581.483-.0968.677-.581.58-.9684-.097-.4841-.58-.6778-.966-.581-.387.0969-.677.581-.58.9684z"/><path d="m209.818 75.5733c.097.581.677.9684 1.257.7747.579-.0968.966-.6778.773-1.2588-.097-.581-.677-.9683-1.257-.7747-.58.0969-.87.6779-.773 1.2588z"/><path d="m210.205 69.7636c.193.6778.773 1.0651 1.45.9683.676-.1937 1.063-.7747.966-1.4525-.193-.6778-.773-1.0651-1.449-.9683-.677.1937-1.16.7747-.967 1.4525z"/><path d="m211.365 63.9534c.096.581.676.8715 1.256.7747.58-.0969.87-.6778.773-1.2588-.096-.581-.676-.8715-1.256-.7747-.58.1937-.967.6778-.773 1.2588z"/><path d="m212.138 58.3373c.193.7747.967 1.3557 1.836 1.162.774-.1937 1.353-.9683 1.16-1.8398-.193-.7747-.966-1.3557-1.836-1.162-.773.1937-1.353 1.0651-1.16 1.8398z"/><path d="m213.974 52.7213c.193.6778.87 1.162 1.547.9683.676-.1937 1.159-.8715.966-1.5493-.193-.6779-.87-1.162-1.546-.9684-.677.0969-1.063.7747-.967 1.5494z"/><path d="m216.004 47.2018c.193.7746.87 1.1619 1.643 1.0651.773-.1937 1.16-.8715 1.063-1.6461-.193-.7747-.87-1.162-1.643-1.0652-.773.1937-1.256.8715-1.063 1.6462z"/><path d="m218.517 41.7792c.193.6778.773 1.0651 1.45.8715.676-.1937 1.063-.7747.87-1.4525-.194-.6778-.774-1.0652-1.45-.8715-.677.1937-1.063.7747-.87 1.4525z"/><path d="m221.126 36.647c.194.6779.87 1.0652 1.547.9683.676-.1936 1.063-.8714.966-1.5493-.193-.6778-.87-1.0651-1.546-.9683-.677.1937-1.16.8715-.967 1.5493z"/><path d="m224.606 31.5147c.096.4842.58.6779.966.581.483-.0968.677-.581.58-.9683-.097-.4841-.58-.6778-.966-.581-.484.0969-.677.4842-.58.9683z"/><path d="m227.989 26.6735c.096.3873.483.581.87.4842.386-.0969.58-.4842.483-.8715s-.483-.581-.87-.4842c-.29.0969-.483.4842-.483.8715z"/><path d="m231.661 22.0258c.097.3873.483.581.87.4842.387-.0969.58-.4842.483-.8715-.096-.3874-.483-.581-.87-.4842-.29.1937-.58.4842-.483.8715z"/><path d="m235.72 17.668c.097.2905.387.4841.774.4841.29-.0968.483-.3873.483-.7746 0-.3874-.387-.4842-.773-.4842-.387.0968-.58.4842-.484.7747z"/><path d="m239.973 13.6013c.097.2904.29.3873.58.3873.29-.0969.387-.2905.387-.581-.097-.2905-.29-.3873-.58-.3873s-.387.2905-.387.581z"/><path d="m244.419 9.72792c.096.29048.386.48418.676.38728.29-.0968.483-.38729.387-.67778-.097-.2905-.387-.48416-.677-.38733s-.483.38733-.386.67783z"/><path d="m249.058 6.24183c.097.29049.387.48415.677.38732s.483-.38732.386-.67782c-.096-.29049-.386-.48415-.676-.38732s-.483.38732-.387.67782z"/><path d="m253.891 3.04627c.096.2905.386.48417.676.38733.29-.09683.483-.38732.387-.67782-.097-.2905-.387-.48416-.677-.38733-.193.09683-.386.38733-.386.67782z"/><path d="m235.914 154.104c.096.484.58.678.966.581.484-.097.677-.581.58-.968-.096-.484-.58-.678-.966-.581-.484.097-.677.581-.58.968z"/><path d="m231.661 150.134c.097.484.58.677.967.581.483-.097.676-.581.58-.969-.097-.387-.58-.678-.967-.581-.386.097-.676.484-.58.969z"/><path d="m227.215 145.873c.194.678.774 1.066 1.45.969.677-.194 1.063-.775.967-1.453-.194-.678-.774-1.065-1.45-.968-.677.194-1.063.775-.967 1.452z"/><path d="m224.703 142.194c.587 0 1.063-.477 1.063-1.066 0-.588-.476-1.065-1.063-1.065s-1.063.477-1.063 1.065c0 .589.476 1.066 1.063 1.066z"/><path d="m220.353 136.577c.097.485.58.775 1.16.678s.773-.581.677-1.162c-.097-.484-.58-.774-1.16-.677-.483.193-.773.677-.677 1.161z"/><path d="m217.164 131.639c.097.484.58.774 1.16.677.483-.096.773-.581.676-1.162-.096-.484-.58-.774-1.159-.677-.387.193-.774.677-.677 1.162z"/><path d="m214.361 126.507c.096.484.58.774 1.16.678.483-.097.773-.581.676-1.162-.097-.485-.58-.775-1.16-.678-.483.193-.773.678-.676 1.162z"/><path d="m211.945 121.181c.096.387.483.678.869.581.387-.097.677-.484.58-.871-.096-.388-.483-.678-.87-.581-.386.096-.676.484-.579.871z"/><path d="m209.818 115.758c.097.388.483.581.87.581.387-.096.58-.484.58-.871-.097-.387-.483-.581-.87-.581-.483.097-.677.484-.58.871z"/><path d="m207.789 110.239c.096.388.483.678.966.581.387-.097.677-.484.58-.968-.097-.387-.483-.678-.966-.581-.387.194-.677.581-.58.968z"/><path d="m206.146 104.623c.097.484.58.774 1.063.678.483-.097.773-.581.677-1.066-.097-.484-.58-.774-1.063-.677-.484.193-.774.581-.677 1.065z"/><path d="m204.696 99.0067c.097.581.773.9683 1.353.8715s.967-.7747.87-1.3556c-.097-.581-.773-.9684-1.353-.8715-.58.0968-.967.6778-.87 1.3556z"/><path d="m203.826 93.1966c.097.581.773.9683 1.353.8715s.967-.7746.87-1.3556c-.096-.581-.773-.9683-1.353-.8715-.676.0968-.966.7747-.87 1.3556z"/><path d="m203.15 87.3869c.193.6778.773 1.0651 1.449.8714.677-.1936 1.063-.7746.87-1.4524-.193-.6779-.773-1.0652-1.45-.8715-.579.0968-.966.7746-.869 1.4525z"/><path d="m202.86 81.4802c.193.6778.87 1.162 1.643.9683.676-.1937 1.16-.8715.966-1.6461-.193-.6779-.869-1.162-1.643-.9684-.676.2905-1.159.9684-.966 1.6462z"/><path d="m203.053 75.6704c.194.6778.87 1.1619 1.643.9683.677-.1937 1.16-.8715.967-1.6462-.194-.6778-.87-1.1619-1.643-.9683-.677.1937-1.16.8715-.967 1.6462z"/><path d="m203.343 69.8602c.193.7747.967 1.3557 1.836 1.162.774-.1937 1.354-.9683 1.16-1.8398-.193-.7746-.966-1.3556-1.836-1.162-.773.1937-1.353 1.0652-1.16 1.8398z"/><path d="m204.309 64.0506c.194.7746.967 1.2588 1.74 1.0651.773-.1936 1.256-.9683 1.063-1.7429-.193-.7747-.966-1.2589-1.74-1.0652-.773.1937-1.256.9683-1.063 1.743z"/><path d="m205.276 58.3371c.193.8715 1.16 1.4525 2.03 1.2589.87-.1937 1.449-1.162 1.256-2.0335s-1.16-1.4525-2.03-1.2588c-.869.2905-1.449 1.162-1.256 2.0334z"/><path d="m207.015 52.7211c.194.7746.967 1.3556 1.837 1.1619.773-.1936 1.353-.9683 1.16-1.8397-.194-.7747-.967-1.3557-1.837-1.162-.87.1936-1.353.9683-1.16 1.8398z"/><path d="m208.755 47.105c.194.8715 1.063 1.4525 1.933 1.162.87-.1937 1.45-1.0652 1.16-1.9367-.193-.8715-1.063-1.4525-1.933-1.162-.773.2905-1.353 1.162-1.16 1.9367z"/><path d="m212.524 42.8444c.801 0 1.45-.6503 1.45-1.4525s-.649-1.4524-1.45-1.4524c-.8 0-1.449.6502-1.449 1.4524s.649 1.4525 1.449 1.4525z"/><path d="m213.395 36.4538c.193.9683 1.159 1.5493 2.126 1.3556.966-.1936 1.546-1.162 1.353-2.1303s-1.16-1.5493-2.126-1.3556c-1.063.2905-1.643 1.162-1.353 2.1303z"/><path d="m216.39 31.3213c.194.8715 1.064 1.4525 1.933 1.162.87-.1937 1.45-1.0652 1.16-1.9367-.193-.8715-1.063-1.4524-1.933-1.162-.87.1937-1.45 1.0652-1.16 1.9367z"/><path d="m219.483 26.3825c.194.8715 1.063 1.4525 1.933 1.162.87-.1936 1.45-1.0651 1.16-1.9366-.193-.8715-1.063-1.4525-1.933-1.162-.773.1937-1.353 1.0652-1.16 1.9366z"/><path d="m223.349 21.5416c.097.581.773.9683 1.353.8715s.967-.7746.87-1.3556c-.096-.581-.773-.9684-1.353-.8715-.58.0968-.966.6778-.87 1.3556z"/><path d="m227.312 16.8934c.097.4842.58.7747 1.16.6778.58-.0968.773-.5809.676-1.1619-.096-.4842-.579-.7747-1.159-.6779-.58.0969-.87.6779-.677 1.162z"/><path d="m232.368 13.3901c.52-.1201.845-.6399.725-1.161-.12-.5212-.639-.8463-1.159-.7263-.52.1201-.845.6399-.725 1.161.12.5212.639.8463 1.159.7263z"/><path d="m235.431 8.56607c.096.581.676.87149 1.159.77466.58-.09683.87-.67782.774-1.16198-.097-.581-.677-.87149-1.16-.77466-.58.09683-.967.67783-.773 1.16198z"/><path d="m239.973 4.78912c.097.48416.58.77465.967.67782.483-.09683.773-.58099.676-.96832-.097-.48416-.58-.77465-.966-.67782-.484 0-.774.48416-.677.96832z"/><path d="m244.806 1.20646c.096.38733.483.58099.869.48416.387-.09683.58-.48416.484-.871483-.097-.387327-.484-.58099-.87-.484158-.29.096832-.58.484156-.483.871481z"/><path d="m227.312 155.362c.097.581.773.969 1.353.872s.967-.775.87-1.356-.773-.968-1.353-.871c-.677.097-1.063.678-.87 1.355z"/><path d="m223.156 151.102c.193.678.773 1.065 1.45.968.677-.194 1.063-.775.966-1.452-.193-.678-.773-1.066-1.449-.969-.774.097-1.16.775-.967 1.453z"/><path d="m219.097 146.648c.193.775.966 1.355 1.836 1.162.773-.194 1.353-.968 1.16-1.84-.194-.775-.967-1.356-1.837-1.162-.87.291-1.353 1.065-1.159 1.84z"/><path d="m215.811 141.903c.193.678.869 1.066 1.546.969.676-.194 1.063-.872.966-1.55-.193-.677-.869-1.065-1.546-.968-.677.194-1.16.872-.966 1.549z"/><path d="m212.621 137.061c.097.581.773.969 1.353.872s.967-.775.87-1.356c-.096-.581-.773-.968-1.353-.871s-.966.774-.87 1.355z"/><path d="m209.528 132.026c.194.678.774 1.065 1.45.969.677-.194 1.063-.775.967-1.453-.194-.678-.774-1.065-1.45-.968-.677.097-1.063.774-.967 1.452z"/><path d="m206.726 126.894c.193.678.869 1.162 1.643.968.676-.193 1.159-.871.966-1.646-.193-.678-.87-1.162-1.643-.968-.676.194-1.063.871-.966 1.646z"/><path d="m204.406 121.472c.193.677.87 1.065 1.546.968.677-.194 1.063-.872.967-1.549-.194-.678-.87-1.066-1.547-.969-.676.194-1.063.872-.966 1.55z"/><path d="m203.82 117.002c.676-.156 1.098-.831.942-1.509-.156-.677-.83-1.1-1.506-.944-.677.156-1.098.832-.943 1.509.156.678.831 1.1 1.507.944z"/><path d="m200.347 110.53c.193.774.966 1.259 1.74 1.065.773-.194 1.256-.968 1.063-1.743-.194-.775-.967-1.259-1.74-1.065-.773.097-1.256.871-1.063 1.743z"/><path d="m198.897 104.817c.193.774.967 1.258 1.74 1.065.773-.194 1.256-.969 1.063-1.743-.193-.775-.967-1.259-1.74-1.065-.773.193-1.256.968-1.063 1.743z"/><path d="m197.64 99.1036c.194.8715 1.064 1.3554 1.837 1.1624.87-.194 1.353-1.0655 1.16-1.8402-.194-.8715-1.064-1.3556-1.837-1.162-.773.1937-1.353.9683-1.16 1.8398z"/><path d="m196.867 93.2934c.193.7746.967 1.3556 1.836 1.1619.774-.1936 1.353-.9683 1.16-1.8398-.193-.7746-.966-1.3556-1.836-1.1619-.87.1936-1.353.9683-1.16 1.8398z"/><path d="m196.191 87.4841c.193.8715 1.16 1.4525 2.03 1.2588.87-.1936 1.449-1.162 1.256-2.0334-.193-.8715-1.16-1.4525-2.03-1.2589-.869.1937-1.449 1.162-1.256 2.0335z"/><path d="m196.094 81.5769c.193.8715 1.063 1.3556 1.933 1.162.87-.1937 1.353-1.0652 1.16-1.9366-.193-.8715-1.063-1.3557-1.933-1.162-.773.2905-1.353 1.0651-1.16 1.9366z"/><path d="m196.191 75.7672c.193.8714 1.063 1.4524 1.933 1.2588.87-.1937 1.45-1.0652 1.256-1.9367-.193-.8714-1.063-1.4524-1.932-1.2588-.87.1937-1.45 1.0652-1.257 1.9367z"/><path d="m196.771 69.8601c.193.8715 1.063 1.3557 1.933 1.162s1.353-1.0652 1.16-1.9366c-.194-.8715-1.064-1.3557-1.933-1.162-.87.2905-1.353 1.162-1.16 1.9366z"/><path d="m197.544 64.0506c.194.8714 1.063 1.3556 1.933 1.1619.87-.1936 1.353-1.0651 1.16-1.9366s-1.063-1.3556-1.933-1.162c-.773.2905-1.353 1.162-1.16 1.9367z"/><path d="m198.607 58.3371c.193.8715 1.16 1.4525 2.03 1.2589.87-.1937 1.45-1.162 1.256-2.0335-.193-.8715-1.16-1.4525-2.029-1.2588-.967.1936-1.547 1.162-1.257 2.0334z"/><path d="m200.057 52.7209c.193.8715 1.16 1.4525 2.029 1.2588.87-.1936 1.45-1.1619 1.257-2.0334s-1.16-1.4525-2.03-1.2588c-.966.1936-1.546 1.0651-1.256 2.0334z"/><path d="m201.7 47.1048c.193.9683 1.16 1.5493 2.223 1.3556 1.063-.1936 1.546-1.1619 1.353-2.2271-.193-.9683-1.16-1.5493-2.223-1.3556-1.063.1936-1.643 1.2588-1.353 2.2271z"/><path d="m203.923 41.5852c.193.8715 1.063 1.4525 1.933 1.162.87-.1937 1.449-1.0652 1.16-1.9367-.194-.8714-1.064-1.4524-1.933-1.1619-.774.1936-1.354 1.0651-1.16 1.9366z"/><path d="m206.242 36.2598c.194.8714 1.16 1.4524 2.03 1.2588.87-.1937 1.45-1.162 1.256-2.0335-.193-.8715-1.159-1.4525-2.029-1.2588-.87.1936-1.45 1.162-1.257 2.0335z"/><path d="m210.592 32.4833c1.014 0 1.836-.8237 1.836-1.8398s-.822-1.8398-1.836-1.8398-1.837.8237-1.837 1.8398.823 1.8398 1.837 1.8398z"/><path d="m211.751 25.9957c.194.9683 1.257 1.6461 2.223 1.3556.967-.1937 1.643-1.2588 1.353-2.2271-.193-.9683-1.256-1.6462-2.223-1.3557-.966.2905-1.643 1.2588-1.353 2.2272z"/><path d="m215.037 21.154c.194.9683 1.16 1.5493 2.127 1.3556.966-.1936 1.546-1.1619 1.353-2.1303-.193-.9683-1.16-1.5493-2.126-1.3556-.967.1936-1.643 1.162-1.354 2.1303z"/><path d="m218.807 16.4093c.193.8715 1.063 1.3556 1.836 1.162.87-.1937 1.353-1.0652 1.16-1.8398-.193-.8715-1.063-1.3557-1.836-1.162-.87.1936-1.353.9683-1.16 1.8398z"/><path d="m222.576 11.8583c.194.8714 1.064 1.3556 1.837 1.1619.87-.1936 1.353-1.0651 1.16-1.8398-.194-.8714-1.064-1.3556-1.837-1.1619-.87.1936-1.353 1.0651-1.16 1.8398z"/><path d="m226.539 7.59755c.193.77465.966 1.35564 1.836 1.16198.773-.19367 1.353-.96832 1.16-1.8398-.193-.77465-.966-1.35564-1.836-1.16198-.773.19366-1.353 1.06515-1.16 1.8398z"/><path d="m231.178 3.53062c.097.58099.773.96832 1.353.87149s.966-.77465.87-1.35564c-.097-.58099-.773-.96832-1.353-.87148-.58.09683-.967.77465-.87 1.35563z"/><path d="m235.624-.245964c.193.677821.773 1.06515 1.45.871486.676-.193663 1.063-.774653.87-1.452474-.194-.677818-.774-1.065148-1.45-.871488-.677.09683-1.063.774655-.87 1.452476z"/><path d="m214.747 151.974c.194.968 1.16 1.452 2.03 1.258.966-.193 1.546-1.162 1.256-2.033-.193-.968-1.159-1.453-2.029-1.259-.967.194-1.547 1.065-1.257 2.034z"/><path d="m211.075 147.326c.193.968 1.16 1.549 2.029 1.259.967-.194 1.45-1.162 1.257-2.034-.193-.968-1.16-1.452-2.03-1.259-.87.194-1.449 1.065-1.256 2.034z"/><path d="m207.789 142.484c.193.968 1.16 1.549 2.126 1.259.967-.194 1.546-1.162 1.256-2.131-.193-.968-1.159-1.549-2.126-1.258-.966.29-1.546 1.258-1.256 2.13z"/><path d="m204.406 137.642c.29 1.066 1.257 1.743 2.32 1.453 1.063-.291 1.739-1.259 1.449-2.324s-1.256-1.743-2.319-1.453c-.967.194-1.643 1.259-1.45 2.324z"/><path d="m201.7 132.414c.193.968 1.256 1.646 2.223 1.355.966-.193 1.643-1.259 1.353-2.227-.194-.968-1.257-1.646-2.223-1.355-.967.29-1.547 1.258-1.353 2.227z"/><path d="m199.284 127.185c.193.968 1.16 1.549 2.126 1.258.967-.193 1.547-1.162 1.257-2.13-.194-.968-1.16-1.549-2.127-1.259-.87.194-1.449 1.162-1.256 2.131z"/><path d="m197.254 121.665c.193.775.966 1.356 1.836 1.162.773-.193 1.353-.968 1.16-1.839-.193-.775-.967-1.356-1.836-1.162-.87.193-1.354 1.065-1.16 1.839z"/><path d="m195.031 116.243c.193.968 1.16 1.452 2.03 1.259.966-.194 1.449-1.162 1.256-2.034-.193-.968-1.16-1.549-2.03-1.259-.87.194-1.449 1.065-1.256 2.034z"/><path d="m193.291 110.626c.194.969 1.16 1.55 2.127 1.356.966-.194 1.546-1.162 1.353-2.13-.193-.969-1.16-1.55-2.126-1.356-.967.194-1.547 1.162-1.354 2.13z"/><path d="m191.938 104.913c.194.969 1.16 1.55 2.127 1.356.966-.194 1.546-1.162 1.353-2.13-.194-.969-1.16-1.55-2.127-1.356-.966.194-1.643 1.162-1.353 2.13z"/><path d="m190.682 99.2001c.193 1.0649 1.256 1.6459 2.223 1.4529 1.063-.194 1.643-1.2593 1.45-2.2276-.194-1.0651-1.257-1.6461-2.223-1.4525-.967.1937-1.643 1.162-1.45 2.2272z"/><path d="m190.198 93.2935c.194.8715 1.063 1.4525 1.933 1.2589.87-.1937 1.45-1.0652 1.257-1.9367-.194-.8715-1.063-1.4525-1.933-1.2588-.967.1937-1.45 1.0651-1.257 1.9366z"/><path d="m189.715 87.4837c.193.8715 1.063 1.4525 1.933 1.2588.87-.1936 1.45-1.0651 1.256-1.9366-.193-.8715-1.063-1.4525-1.933-1.2588-.869.1936-1.449 1.0651-1.256 1.9366z"/><path d="m189.425 81.6735c.194.9683 1.16 1.5493 2.127 1.3556.966-.1936 1.546-1.162 1.353-2.1303s-1.16-1.5493-2.126-1.3556c-1.064.1937-1.643 1.162-1.354 2.1303z"/><path d="m189.329 75.8637c.29 1.0651 1.353 1.7429 2.416 1.5493 1.063-.2905 1.74-1.3557 1.546-2.4208-.29-1.0652-1.353-1.743-2.416-1.5493-1.16.1936-1.836 1.3556-1.546 2.4208z"/><path d="m189.909 69.9571c.193 1.0652 1.256 1.6462 2.223 1.4525.966-.1937 1.643-1.2588 1.45-2.2271-.194-1.0652-1.257-1.6461-2.223-1.4525-.967.1937-1.74 1.2588-1.45 2.2271z"/><path d="m190.682 64.1473c.193.9683 1.256 1.6461 2.223 1.3556.966-.2905 1.643-1.2588 1.353-2.2271-.194-.9683-1.257-1.6461-2.223-1.3557-.967.2905-1.547 1.2589-1.353 2.2272z"/><path d="m191.745 58.4341c.193.9684 1.256 1.6462 2.223 1.3557.966-.1937 1.643-1.2588 1.353-2.2271-.193-.9684-1.256-1.6462-2.223-1.3557-.966.1937-1.546 1.162-1.353 2.2271z"/><path d="m193.195 52.7211c.193.9683 1.159 1.5493 2.126 1.3557.966-.1937 1.546-1.162 1.353-2.1303-.193-.9684-1.16-1.5493-2.126-1.3557-.967.1937-1.643 1.162-1.353 2.1303z"/><path d="m194.548 47.105c.29 1.162 1.353 1.8398 2.513 1.5493 1.159-.2905 1.836-1.3557 1.546-2.5176-.29-1.162-1.353-1.8398-2.513-1.5493-1.063.2905-1.836 1.4524-1.546 2.5176z"/><path d="m196.674 41.5853c.29 1.0651 1.257 1.743 2.32 1.4525s1.74-1.2589 1.45-2.324c-.29-1.0652-1.257-1.743-2.32-1.4525-1.063.1937-1.74 1.2588-1.45 2.324z"/><path d="m198.897 36.1629c.29 1.0652 1.256 1.743 2.32 1.4525 1.063-.2905 1.739-1.2588 1.449-2.324-.29-1.0651-1.256-1.7429-2.319-1.4524-1.063.1936-1.74 1.2588-1.45 2.3239z"/><path d="m201.603 30.8371c.194.9683 1.16 1.5493 2.127 1.3556.966-.1937 1.546-1.162 1.353-2.1303s-1.16-1.5493-2.126-1.3556c-.967.1936-1.547 1.162-1.354 2.1303z"/><path d="m204.309 25.7051c.194.9683 1.257 1.6462 2.223 1.3557.967-.1937 1.643-1.2588 1.353-2.2272-.193-.9683-1.256-1.6461-2.222-1.3556-.967.1937-1.644 1.2588-1.354 2.2271z"/><path d="m207.402 20.6697c.193.9684 1.257 1.6462 2.223 1.3557.967-.2905 1.643-1.2588 1.353-2.2271-.193-.9684-1.256-1.6462-2.223-1.3557-.966.2905-1.643 1.2588-1.353 2.2271z"/><path d="m210.881 15.8281c.194.8715 1.064 1.4525 2.03 1.2588.87-.1936 1.45-1.0651 1.257-2.0334-.194-.8715-1.064-1.4525-2.03-1.2589-.87.2905-1.45 1.162-1.257 2.0335z"/><path d="m214.264 11.2774c.193.9683 1.257 1.6461 2.223 1.3557.967-.2905 1.643-1.2589 1.353-2.2272-.193-.9683-1.256-1.64612-2.223-1.35563-.966.2905-1.546 1.16203-1.353 2.22713z"/><path d="m218.324 6.72607c.193.87149 1.063 1.45248 1.933 1.16198.869-.19366 1.449-1.06515 1.159-1.93663-.193-.87149-1.063-1.45248-1.933-1.16199-.773.19367-1.353 1.06515-1.159 1.93664z"/><path d="m222.576 2.46545c.194.77465.967 1.2588 1.643 1.06514.774-.19366 1.257-.96831 1.063-1.64613-.193-.77465-.966-1.258807-1.643-1.065145-.773.096832-1.256.871485-1.063 1.646135z"/><path d="m206.919 152.555c.193.968 1.159 1.549 2.126 1.258.966-.193 1.546-1.161 1.256-2.13-.193-.968-1.159-1.549-2.126-1.259-.966.291-1.546 1.259-1.256 2.131z"/><path d="m203.343 147.907c.193.968 1.257 1.646 2.223 1.355.967-.193 1.643-1.258 1.353-2.227-.193-.968-1.256-1.646-2.223-1.355-.966.193-1.643 1.162-1.353 2.227z"/><path d="m200.057 142.968c.29 1.065 1.257 1.743 2.32 1.453 1.063-.291 1.739-1.259 1.449-2.324s-1.256-1.743-2.319-1.453c-1.063.194-1.74 1.259-1.45 2.324z"/><path d="m197.061 137.933c.29 1.066 1.353 1.84 2.513 1.55 1.063-.291 1.836-1.356 1.546-2.518-.29-1.065-1.353-1.84-2.513-1.549-1.159.29-1.836 1.355-1.546 2.517z"/><path d="m194.355 132.704c.29 1.162 1.353 1.84 2.512 1.549 1.16-.29 1.837-1.355 1.547-2.517s-1.353-1.84-2.513-1.55c-1.16.291-1.836 1.453-1.546 2.518z"/><path d="m192.132 127.379c.193 1.065 1.256 1.646 2.223 1.452 1.063-.194 1.643-1.259 1.449-2.227-.193-1.065-1.256-1.646-2.222-1.453-1.064.194-1.74 1.162-1.45 2.228z"/><path d="m189.908 121.859c.194 1.065 1.257 1.646 2.32 1.453 1.063-.194 1.643-1.259 1.45-2.324-.194-1.065-1.257-1.646-2.32-1.453-1.063.291-1.643 1.356-1.45 2.324z"/><path d="m187.975 116.34c.29 1.065 1.257 1.743 2.32 1.452 1.063-.29 1.74-1.259 1.45-2.324s-1.257-1.743-2.32-1.452c-.966.193-1.643 1.259-1.45 2.324z"/><path d="m186.526 110.723c.193.969 1.256 1.646 2.223 1.356.966-.194 1.643-1.259 1.353-2.227-.194-.969-1.257-1.646-2.223-1.356-.967.194-1.643 1.162-1.353 2.227z"/><path d="m184.979 105.01c.29 1.065 1.353 1.84 2.513 1.549 1.063-.29 1.837-1.355 1.547-2.517-.29-1.065-1.353-1.84-2.513-1.55-1.063.291-1.837 1.453-1.547 2.518z"/><path d="m184.11 99.2005c.193 1.0655 1.256 1.6465 2.319 1.4525 1.064-.194 1.643-1.2589 1.45-2.324-.193-1.0652-1.256-1.6462-2.319-1.4525-1.064.2905-1.74 1.3556-1.45 2.324z"/><path d="m183.337 93.3906c.193 1.0652 1.256 1.6462 2.319 1.4525s1.643-1.2588 1.45-2.3239c-.193-1.0652-1.256-1.6462-2.32-1.4525-1.063.2905-1.643 1.2588-1.449 2.3239z"/><path d="m182.95 87.5801c.193.9683 1.256 1.6462 2.223 1.3557.966-.1937 1.643-1.2588 1.353-2.2272-.194-.9683-1.257-1.6461-2.223-1.3556-.967.1937-1.547 1.162-1.353 2.2271z"/><path d="m182.66 81.6742c.29 1.0652 1.353 1.743 2.416 1.5494 1.063-.2905 1.74-1.3557 1.546-2.4208-.29-1.0652-1.353-1.743-2.416-1.5494-1.16.2905-1.836 1.3557-1.546 2.4208z"/><path d="m182.853 75.864c.29 1.0651 1.353 1.7429 2.416 1.4525 1.063-.2905 1.74-1.3557 1.45-2.4208-.29-1.0652-1.353-1.743-2.416-1.4525s-1.74 1.3556-1.45 2.4208z"/><path d="m183.143 70.054c.29 1.0652 1.353 1.8398 2.513 1.5493 1.063-.2905 1.836-1.3556 1.547-2.5176-.29-1.0651-1.354-1.8398-2.513-1.5493-1.063.2905-1.74 1.3556-1.547 2.5176z"/><path d="m183.917 64.244c.29 1.0651 1.353 1.8398 2.512 1.5493 1.064-.2905 1.837-1.3557 1.547-2.5177-.29-1.0651-1.353-1.8398-2.513-1.5493s-1.836 1.3557-1.546 2.5177z"/><path d="m184.883 58.4343c.29 1.162 1.353 1.8398 2.513 1.5493s1.836-1.3556 1.546-2.5176-1.353-1.8398-2.513-1.5493-1.836 1.3556-1.546 2.5176z"/><path d="m186.236 52.7209c.29 1.0652 1.353 1.743 2.416 1.4525s1.74-1.3556 1.45-2.4208c-.29-1.0651-1.353-1.743-2.416-1.4525-1.064.2905-1.74 1.3557-1.45 2.4208z"/><path d="m187.686 47.105c.29 1.162 1.353 1.8398 2.513 1.5493 1.159-.2905 1.836-1.3557 1.546-2.5176-.29-1.162-1.353-1.8398-2.513-1.5493-1.063.1936-1.74 1.3556-1.546 2.5176z"/><path d="m189.522 41.4886c.29 1.162 1.45 1.8398 2.513 1.5493 1.16-.2905 1.836-1.4525 1.643-2.5176-.29-1.162-1.45-1.8398-2.513-1.6462-1.16.3874-1.933 1.5493-1.643 2.6145z"/><path d="m191.745 36.0664c.29 1.0651 1.353 1.743 2.416 1.4525s1.74-1.3557 1.45-2.4208c-.29-1.0652-1.353-1.743-2.416-1.4525-.967.1937-1.643 1.3556-1.45 2.4208z"/><path d="m194.258 30.6438c.193 1.0652 1.256 1.6461 2.319 1.4525 1.064-.1937 1.643-1.2588 1.45-2.324-.193-1.0651-1.256-1.6461-2.319-1.4524-1.064.2905-1.74 1.3556-1.45 2.3239z"/><path d="m196.867 25.4146c.29 1.0652 1.353 1.743 2.416 1.5493 1.064-.2905 1.74-1.3556 1.45-2.4208-.29-1.0651-1.353-1.7429-2.416-1.4524-1.063.1936-1.74 1.2588-1.45 2.3239z"/><path d="m199.864 20.3794c.193.9684 1.256 1.6462 2.223 1.3557.966-.1937 1.643-1.2588 1.353-2.2271-.193-.9683-1.257-1.6462-2.223-1.3557-.87.1937-1.547 1.162-1.353 2.2271z"/><path d="m203.053 15.4407c.193.9683 1.257 1.6462 2.223 1.3557.967-.1937 1.643-1.2588 1.353-2.2272-.193-.9683-1.256-1.6461-2.223-1.3556-.966.1937-1.546 1.162-1.353 2.2271z"/><path d="m206.339 10.6964c.29 1.0651 1.257 1.7429 2.32 1.4524s1.739-1.2588 1.45-2.32393c-.29-1.06514-1.257-1.74297-2.32-1.45247-.967.19366-1.643 1.25881-1.45 2.324z"/><path d="m209.915 6.14517c.29 1.06514 1.353 1.74296 2.416 1.5493 1.063-.2905 1.74-1.35564 1.546-2.42079-.29-1.06514-1.353-1.74296-2.416-1.5493s-1.74 1.25881-1.546 2.42079z"/><path d="m213.781 1.69082c.29 1.06515 1.353 1.74297 2.416 1.54931 1.063-.29049 1.74-1.35564 1.547-2.420788-.29-1.065147-1.354-1.742971-2.417-1.549307-1.063.290494-1.739 1.355642-1.546 2.420785z"/><path d="m199.38 153.039c.194.774.967 1.355 1.837 1.162.773-.194 1.353-.969 1.159-1.84-.193-.775-.966-1.356-1.836-1.162-.773.29-1.353 1.065-1.16 1.84z"/><path d="m197.641 149.746c1.014 0 1.836-.823 1.836-1.839s-.822-1.84-1.836-1.84c-1.015 0-1.837.824-1.837 1.84s.822 1.839 1.837 1.839z"/><path d="m192.808 143.259c.193.968 1.16 1.549 2.126 1.356.967-.194 1.547-1.162 1.353-2.131-.193-.968-1.159-1.549-2.126-1.355-.966.193-1.546 1.162-1.353 2.13z"/><path d="m190.005 138.127c.194.968 1.257 1.646 2.223 1.355.967-.194 1.643-1.259 1.353-2.227-.193-.968-1.256-1.646-2.223-1.356-.966.291-1.643 1.259-1.353 2.228z"/><path d="m187.396 132.898c.193.968 1.256 1.646 2.223 1.355.966-.193 1.643-1.258 1.353-2.227-.29-.968-1.256-1.646-2.223-1.355-.966.193-1.546 1.162-1.353 2.227z"/><path d="m185.076 127.475c.193 1.065 1.256 1.646 2.319 1.453 1.064-.194 1.644-1.259 1.45-2.324-.193-1.065-1.256-1.646-2.319-1.453-1.064.291-1.643 1.259-1.45 2.324z"/><path d="m182.95 122.053c.29 1.065 1.353 1.743 2.416 1.549 1.063-.29 1.74-1.355 1.546-2.421-.29-1.065-1.353-1.743-2.416-1.549-1.16.194-1.836 1.259-1.546 2.421z"/><path d="m180.92 116.437c.29 1.162 1.45 1.936 2.706 1.646 1.16-.291 1.933-1.453 1.643-2.712-.29-1.162-1.449-1.936-2.706-1.646-1.16.388-1.933 1.55-1.643 2.712z"/><path d="m179.47 110.82c.29 1.162 1.45 1.937 2.61 1.646 1.16-.29 1.933-1.452 1.643-2.614s-1.45-1.937-2.61-1.646c-1.159.193-1.933 1.452-1.643 2.614z"/><path d="m178.311 105.011c.29 1.162 1.353 1.839 2.513 1.549 1.16-.291 1.836-1.356 1.546-2.518s-1.353-1.84-2.513-1.549c-1.063.29-1.836 1.452-1.546 2.518z"/><path d="m179.374 100.363c.854 0 1.546-.6941 1.546-1.5498 0-.8556-.692-1.5493-1.546-1.5493-.855 0-1.547.6937-1.547 1.5493 0 .8557.692 1.5498 1.547 1.5498z"/><path d="m176.958 93.3905c.193.9684 1.16 1.5493 2.126 1.3557.967-.1937 1.547-1.162 1.353-2.1303-.193-.9683-1.159-1.5493-2.126-1.3556-.966.1936-1.546 1.1619-1.353 2.1302z"/><path d="m176.088 87.5805c.29 1.162 1.45 1.9366 2.609 1.6461 1.16-.2905 1.933-1.4524 1.644-2.6144-.29-1.162-1.45-1.9366-2.61-1.6462-1.16.2905-1.836 1.4525-1.643 2.6145z"/><path d="m175.991 81.7709c.29 1.162 1.45 1.9367 2.61 1.6462s1.933-1.4525 1.643-2.6145-1.45-1.9366-2.61-1.6461c-1.159.2905-1.933 1.4524-1.643 2.6144z"/><path d="m175.991 75.9607c.29 1.2589 1.45 1.9367 2.707 1.743 1.256-.2905 1.933-1.4525 1.643-2.7113s-1.45-1.9366-2.707-1.6461c-1.159.1936-1.933 1.3556-1.643 2.6144z"/><path d="m176.668 70.0539c.29 1.0651 1.353 1.7429 2.416 1.5493 1.063-.2905 1.739-1.3557 1.546-2.4208-.29-1.0652-1.353-1.743-2.416-1.5493-1.16.1936-1.836 1.2588-1.546 2.4208z"/><path d="m177.247 64.2441c.29 1.162 1.354 1.8399 2.513 1.5494 1.16-.2905 1.837-1.3557 1.547-2.5177s-1.353-1.8398-2.513-1.5493c-1.063.1937-1.836 1.3557-1.547 2.5176z"/><path d="m178.117 58.4344c.29 1.162 1.45 1.8398 2.61 1.6461 1.16-.2905 1.836-1.4524 1.643-2.6144-.29-1.162-1.45-1.8398-2.61-1.6462-1.16.2905-1.836 1.4525-1.643 2.6145z"/><path d="m179.471 52.7212c.29 1.162 1.353 1.8398 2.513 1.5493 1.159-.2905 1.836-1.3556 1.546-2.5176s-1.353-1.8398-2.513-1.5493c-1.16.1936-1.836 1.3556-1.546 2.5176z"/><path d="m180.92 47.0081c.29 1.1619 1.353 1.8398 2.513 1.5493s1.837-1.3557 1.547-2.5177c-.29-1.1619-1.353-1.8398-2.513-1.5493-1.063.2905-1.837 1.4525-1.547 2.5177z"/><path d="m182.756 41.392c.29 1.0651 1.354 1.743 2.417 1.5493 1.063-.2905 1.739-1.3556 1.546-2.4208-.29-1.0651-1.353-1.743-2.416-1.5493-1.16.2905-1.837 1.3556-1.547 2.4208z"/><path d="m184.689 35.9695c.29 1.162 1.353 1.8398 2.513 1.5493s1.837-1.3557 1.547-2.5176c-.29-1.162-1.353-1.8398-2.513-1.5493-1.063.1936-1.837 1.3556-1.547 2.5176z"/><path d="m187.009 30.5464c.29 1.162 1.353 1.8398 2.513 1.5493s1.837-1.3557 1.547-2.5176c-.29-1.162-1.353-1.8398-2.513-1.5493s-1.837 1.3556-1.547 2.5176z"/><path d="m189.522 25.221c.29 1.0652 1.353 1.8398 2.513 1.5493 1.063-.2905 1.836-1.3556 1.546-2.5176-.289-1.0652-1.353-1.8398-2.512-1.5493-1.064.2905-1.74 1.4525-1.547 2.5176z"/><path d="m192.325 20.0888c.29 1.0651 1.353 1.743 2.416 1.5493 1.063-.2905 1.74-1.3557 1.547-2.4208-.29-1.0652-1.353-1.743-2.417-1.5493-1.063.1936-1.836 1.3556-1.546 2.4208z"/><path d="m197.35 16.6995c1.175 0 2.127-.9537 2.127-2.1302 0-1.1766-.952-2.1303-2.127-2.1303-1.174 0-2.126.9537-2.126 2.1303 0 1.1765.952 2.1302 2.126 2.1302z"/><path d="m200.998 11.723c1.092-.2521 1.773-1.3437 1.522-2.4381-.252-1.09442-1.341-1.77723-2.434-1.5251-1.092.25212-1.774 1.34371-1.522 2.4381.252 1.0944 1.341 1.7772 2.434 1.5251z"/><path d="m204.019 7.11338c1.175 0 2.127-.95377 2.127-2.1303s-.952-2.1303-2.127-2.1303c-1.174 0-2.126.95377-2.126 2.1303s.952 2.1303 2.126 2.1303z"/><path d="m205.663.916433c.29 1.161977 1.45 1.936627 2.609 1.646137 1.16-.2905 1.933-1.45247 1.643-2.6144512-.29-1.1619788-1.449-1.9366288-2.609-1.6461388-1.257.2905-1.933 1.452476-1.643 2.614453z"/><path d="m191.745 153.523c.193.871 1.063 1.355 1.836 1.162.87-.194 1.353-1.065 1.16-1.84-.193-.871-1.063-1.356-1.836-1.162s-1.353 1.065-1.16 1.84z"/><path d="m188.555 148.584c.194.872 1.063 1.453 1.933 1.259s1.45-1.065 1.257-1.937c-.194-.871-1.063-1.452-1.933-1.258-.87.193-1.45 1.065-1.257 1.936z"/><path d="m187.663 144.769c.884-.204 1.436-1.088 1.232-1.974s-1.086-1.439-1.97-1.235-1.436 1.088-1.232 1.974c.203.886 1.085 1.439 1.97 1.235z"/><path d="m182.853 138.32c.194.969 1.16 1.55 2.127 1.356.966-.194 1.546-1.162 1.353-2.13-.193-.969-1.16-1.55-2.126-1.356-.967.29-1.547 1.162-1.354 2.13z"/><path d="m180.63 132.994c.194.872 1.063 1.356 1.933 1.162.87-.193 1.353-1.065 1.16-1.936-.193-.872-1.063-1.356-1.933-1.162-.773.193-1.353 1.065-1.16 1.936z"/><path d="m178.214 127.572c.194.969 1.257 1.646 2.223 1.356.967-.194 1.643-1.259 1.353-2.227-.193-.968-1.256-1.646-2.223-1.356-.966.194-1.643 1.259-1.353 2.227z"/><path d="m176.185 122.053c.193.968 1.256 1.646 2.223 1.355.966-.193 1.643-1.259 1.353-2.227-.194-.968-1.257-1.646-2.223-1.356-.87.194-1.547 1.259-1.353 2.228z"/><path d="m174.445 116.437c.29 1.065 1.353 1.743 2.319 1.452 1.064-.29 1.74-1.259 1.45-2.324s-1.256-1.743-2.319-1.452c-1.064.193-1.74 1.258-1.45 2.324z"/><path d="m172.995 110.82c.29 1.065 1.257 1.743 2.32 1.452 1.063-.29 1.739-1.258 1.449-2.324-.29-1.065-1.353-1.743-2.319-1.452-1.063.194-1.74 1.259-1.45 2.324z"/><path d="m172.028 105.01c.194.968 1.16 1.549 2.127 1.356.966-.194 1.546-1.162 1.353-2.13-.193-.969-1.16-1.55-2.126-1.356-1.064.194-1.643 1.162-1.354 2.13z"/><path d="m170.869 99.2971c.29 1.0649 1.353 1.7429 2.416 1.4529 1.063-.291 1.74-1.356 1.45-2.4212s-1.354-1.743-2.417-1.4525-1.739 1.3557-1.449 2.4208z"/><path d="m170.482 93.3904c.193.8714 1.16 1.4524 2.03 1.2588.87-.1937 1.449-1.162 1.256-2.0335s-1.16-1.4525-2.029-1.2588c-.87.1937-1.45 1.0651-1.257 2.0335z"/><path d="m169.612 87.6773c.29 1.162 1.45 1.8398 2.61 1.6461 1.16-.2904 1.836-1.4524 1.643-2.6144-.29-1.162-1.45-1.8398-2.61-1.6461-1.159.2905-1.933 1.4524-1.643 2.6144z"/><path d="m169.226 81.8673c.29 1.3556 1.643 2.1303 2.899 1.8398 1.353-.2905 2.126-1.6462 1.836-2.905-.289-1.3556-1.643-2.1303-2.899-1.8398-1.353.2905-2.126 1.5493-1.836 2.905z"/><path d="m169.515 75.9605c.29 1.2588 1.547 2.0335 2.707 1.743 1.256-.2905 2.029-1.5493 1.739-2.7113-.29-1.2588-1.546-2.0335-2.706-1.743-1.256.2905-2.029 1.4525-1.74 2.7113z"/><path d="m172.125 71.8938c1.281 0 2.32-1.0405 2.32-2.324s-1.039-2.324-2.32-2.324-2.319 1.0405-2.319 2.324 1.038 2.324 2.319 2.324z"/><path d="m170.772 64.1473c.29 1.0651 1.256 1.743 2.319 1.4525 1.064-.2905 1.74-1.2588 1.45-2.324-.29-1.0651-1.256-1.743-2.319-1.4525-.967.2905-1.643 1.3557-1.45 2.324z"/><path d="m173.672 60.1772c1.227 0 2.223-.9972 2.223-2.2272s-.996-2.2271-2.223-2.2271c-1.228 0-2.223.9971-2.223 2.2271s.995 2.2272 2.223 2.2272z"/><path d="m172.705 52.7215c.29 1.162 1.45 1.8398 2.61 1.6461 1.16-.2905 1.836-1.4524 1.643-2.6144-.29-1.162-1.45-1.8398-2.61-1.6462-1.16.2905-1.933 1.4525-1.643 2.6145z"/><path d="m174.348 46.911c.193 1.0652 1.256 1.6462 2.223 1.4525 1.063-.1937 1.643-1.2588 1.45-2.2271-.194-1.0652-1.257-1.6462-2.223-1.4525-1.064.1936-1.643 1.2588-1.45 2.2271z"/><path d="m175.991 41.2948c.193 1.0651 1.257 1.6461 2.223 1.4525 1.063-.1937 1.643-1.2588 1.45-2.2272-.194-1.0651-1.257-1.6461-2.223-1.4524-.967.1936-1.643 1.2588-1.45 2.2271z"/><path d="m177.827 35.8725c.29 1.0651 1.353 1.7429 2.416 1.5493 1.064-.2905 1.74-1.3557 1.547-2.4208-.29-1.0652-1.353-1.743-2.416-1.5493-1.16.1936-1.837 1.2588-1.547 2.4208z"/><path d="m179.954 30.45c.29 1.1619 1.353 1.8398 2.513 1.5493 1.159-.2905 1.836-1.3557 1.546-2.5177-.29-1.1619-1.353-1.8398-2.513-1.5493-1.16.1937-1.836 1.3557-1.546 2.5177z"/><path d="m182.274 25.0272c.289 1.1619 1.449 1.8398 2.609 1.6461 1.16-.2905 1.836-1.4525 1.643-2.6145-.29-1.1619-1.45-1.8398-2.609-1.6461-1.16.3873-1.933 1.5493-1.643 2.6145z"/><path d="m184.883 19.7982c.29 1.162 1.45 1.8398 2.609 1.6461 1.16-.2905 1.837-1.4525 1.643-2.6144-.29-1.162-1.449-1.8399-2.609-1.6462-1.16.3873-1.836 1.5493-1.643 2.6145z"/><path d="m187.782 14.7631c.29 1.162 1.45 1.9366 2.61 1.6462 1.16-.2905 1.933-1.4525 1.643-2.6145s-1.45-1.9366-2.61-1.6461c-1.256.1936-1.933 1.4524-1.643 2.6144z"/><path d="m193.001 11.3739c1.175 0 2.127-.9538 2.127-2.13032 0-1.17653-.952-2.1303-2.127-2.1303-1.174 0-2.126.95377-2.126 2.1303 0 1.17652.952 2.13032 2.126 2.13032z"/><path d="m194.258 4.98322c.29 1.16198 1.45 1.8398 2.513 1.5493 1.16-.29049 1.836-1.45247 1.643-2.51762-.29-1.16197-1.45-1.8398-2.513-1.64613-1.16.29049-1.933 1.45247-1.643 2.61445z"/><path d="m197.834.238038c.29 1.161982 1.353 1.839802 2.513 1.549312 1.16-.2905 1.836-1.355648 1.546-2.517629s-1.353-1.839801-2.513-1.549301c-1.159.29049-1.836 1.45247-1.546 2.517618z"/><path d="m184.786 153.814c.097.581.677.871 1.257.774s.87-.678.773-1.259-.677-.871-1.256-.774c-.58.193-.87.774-.774 1.259z"/><path d="m182.66 148.584c0 .097.096.097.193.097s.097-.097.097-.194c0-.096-.097-.096-.194-.096 0 .096-.096.096-.096.193z"/><path d="m179.471 143.549c.096.291.386.485.676.388s.483-.388.387-.678c-.097-.291-.387-.484-.677-.387-.193.096-.386.387-.386.677z"/><path d="m176.475 138.417c.096.581.676.969 1.256.775.58-.097.967-.678.773-1.259-.096-.581-.676-.968-1.256-.774-.58.096-.967.677-.773 1.258z"/><path d="m173.671 133.091c.194.872 1.063 1.356 1.837 1.162.869-.193 1.353-1.065 1.159-1.84-.193-.871-1.063-1.355-1.836-1.162-.87.194-1.353 1.066-1.16 1.84z"/><path d="m171.159 127.669c.193 1.065 1.256 1.646 2.319 1.452 1.064-.193 1.644-1.258 1.45-2.324-.193-1.065-1.256-1.646-2.319-1.452-1.064.194-1.643 1.356-1.45 2.324z"/><path d="m169.322 122.149c.29 1.066 1.353 1.743 2.32 1.453 1.063-.291 1.74-1.356 1.45-2.324-.29-1.065-1.257-1.743-2.32-1.452-1.063.193-1.74 1.258-1.45 2.323z"/><path d="m167.776 116.533c.193.968 1.256 1.646 2.223 1.356.966-.194 1.643-1.259 1.353-2.227-.193-.969-1.257-1.647-2.223-1.356-.967.194-1.546 1.162-1.353 2.227z"/><path d="m166.423 110.82c.193.968 1.256 1.646 2.223 1.356.966-.194 1.643-1.259 1.353-2.227-.193-.969-1.257-1.646-2.223-1.356-.967.194-1.547 1.259-1.353 2.227z"/><path d="m165.167 105.107c.29 1.066 1.353 1.743 2.416 1.55 1.063-.291 1.74-1.356 1.546-2.421-.29-1.065-1.353-1.743-2.416-1.549-1.16.193-1.836 1.355-1.546 2.42z"/><path d="m164.103 99.2969c.29 1.1621 1.45 1.8401 2.61 1.6461 1.159-.29 1.836-1.4524 1.643-2.6144-.29-1.162-1.45-1.8398-2.61-1.6461-1.16.2905-1.836 1.4525-1.643 2.6144z"/><path d="m163.62 93.4871c.29 1.0652 1.353 1.8398 2.513 1.5493 1.063-.2905 1.836-1.3556 1.546-2.5176-.289-1.0651-1.353-1.8398-2.512-1.5493-1.16.2905-1.837 1.3556-1.547 2.5176z"/><path d="m163.233 87.5805c.29 1.0652 1.353 1.743 2.416 1.4525 1.064-.2905 1.74-1.3556 1.45-2.4208-.29-1.0651-1.353-1.7429-2.416-1.4524-.966.2904-1.643 1.3556-1.45 2.4207z"/><path d="m162.944 81.7709c.29 1.162 1.449 1.9367 2.609 1.6462s1.933-1.4525 1.643-2.6145-1.45-1.9366-2.609-1.6461c-1.257.2905-1.933 1.4524-1.643 2.6144z"/><path d="m163.04 75.9606c.29 1.162 1.45 1.9366 2.61 1.6462 1.159-.2905 1.933-1.4525 1.643-2.6145s-1.45-1.9366-2.61-1.6461c-1.16.1936-1.933 1.4524-1.643 2.6144z"/><path d="m163.523 70.0537c.29 1.0651 1.353 1.8398 2.513 1.5493 1.063-.2905 1.837-1.3556 1.547-2.5176s-1.353-1.8398-2.513-1.5493c-1.063.2905-1.837 1.4525-1.547 2.5176z"/><path d="m164.103 64.244c.29 1.0651 1.353 1.8398 2.513 1.5493s1.836-1.3557 1.547-2.5177c-.29-1.0651-1.354-1.8398-2.513-1.5493-1.064.2905-1.74 1.3557-1.547 2.5177z"/><path d="m164.877 58.4342c.29 1.162 1.449 1.9366 2.706 1.6461 1.16-.2905 1.933-1.4525 1.643-2.7113-.29-1.162-1.45-1.9366-2.706-1.6461-1.257.3873-1.933 1.5493-1.643 2.7113z"/><path d="m166.036 52.7212c.29 1.162 1.353 1.8398 2.513 1.5493s1.837-1.3556 1.547-2.5176-1.353-1.8398-2.513-1.5493c-1.063.1936-1.74 1.3556-1.547 2.5176z"/><path d="m167.389 47.0082c.29 1.162 1.45 1.9367 2.61 1.6462s1.933-1.4525 1.643-2.6145-1.45-1.9366-2.61-1.6461c-1.256.2905-1.933 1.4525-1.643 2.6144z"/><path d="m168.936 41.3918c.29 1.1619 1.449 1.9366 2.609 1.6461s1.933-1.4525 1.643-2.6144c-.29-1.162-1.45-1.9367-2.609-1.6462-1.16.1937-1.933 1.3557-1.643 2.6145z"/><path d="m170.675 35.776c.29 1.2588 1.45 1.9366 2.707 1.7429 1.256-.2905 1.933-1.4524 1.643-2.7113-.29-1.2588-1.45-1.9366-2.707-1.7429-1.159.2905-1.933 1.5493-1.643 2.7113z"/><path d="m172.802 30.3529c.29 1.2588 1.449 1.9366 2.706 1.7429 1.256-.2905 1.933-1.4525 1.739-2.7113-.289-1.2588-1.449-1.9366-2.706-1.7429-1.256.2905-2.029 1.4524-1.739 2.7113z"/><path d="m175.025 24.9305c.29 1.2588 1.546 2.0334 2.706 1.7429 1.256-.2904 2.03-1.5493 1.74-2.7112-.29-1.2589-1.547-2.0335-2.707-1.743-1.256.2905-2.029 1.4525-1.739 2.7113z"/><path d="m177.924 19.6048c.29 1.0652 1.257 1.743 2.32 1.4525s1.74-1.2588 1.45-2.324c-.29-1.0651-1.257-1.7429-2.32-1.4525-1.063.1937-1.74 1.2589-1.45 2.324z"/><path d="m180.534 14.4729c.29 1.162 1.353 1.8398 2.513 1.5493 1.159-.2905 1.836-1.3556 1.546-2.5176s-1.353-1.8398-2.513-1.5493c-1.16.1936-1.836 1.3556-1.546 2.5176z"/><path d="m183.337 9.43744c.289 1.16196 1.449 1.93666 2.609 1.64616s1.933-1.4525 1.643-2.61448-1.45-1.93664-2.609-1.64614c-1.16.19366-1.933 1.35564-1.643 2.61446z"/><path d="m187.009 4.40184c.193.87148 1.16 1.45247 2.03 1.25881.869-.19367 1.449-1.16199 1.256-2.03347s-1.16-1.45247-2.03-1.25881c-.869.19367-1.449 1.06515-1.256 2.03347z"/><path d="m190.005-.342777c.29 1.161978 1.353 1.839797 2.513 1.549307 1.16-.290499 1.836-1.355644 1.546-2.51762-.29-1.16198-1.353-1.8398-2.513-1.54931-1.063.2905-1.739 1.45248-1.546 2.517623z"/><path d="m178.311 154.007c0 .097.096.097.193.097.096 0 .096-.097.096-.194s-.096-.097-.193-.097c-.096 0-.193.097-.096.194z"/><path d="m168.163 132.899s0 .098 0 0h.098c0-.099 0-.099-.098 0z"/><path d="m166.133 127.38s.098.098 0 0h.098c0-.099 0-.099-.098 0z"/><path d="m164.393 121.956c.107 0 .193-.087.193-.194s-.086-.193-.193-.193-.193.086-.193.193.086.194.193.194z"/><path d="m162.267 116.243c.096.387.483.581.773.484.387-.097.58-.484.483-.775-.096-.387-.483-.581-.773-.484-.387.097-.58.484-.483.775z"/><path d="m161.59 111.111c.374 0 .677-.304.677-.678 0-.375-.303-.678-.677-.678s-.676.303-.676.678c0 .374.302.678.676.678z"/><path d="m159.947 104.817c.097.29.387.484.677.387s.483-.387.386-.678c-.096-.29-.386-.484-.676-.387s-.387.387-.387.678z"/><path d="m159.078 99.0067c.096.2905.386.4842.676.3874.29-.0969.483-.3874.387-.6779-.097-.2905-.387-.4841-.677-.3873-.193.0968-.386.3873-.386.6778z"/><path d="m158.498 93.1968c.096.2905.386.4841.773.4841.29-.0968.483-.3873.483-.7746-.096-.2905-.386-.4842-.773-.4842-.387.0969-.58.3874-.483.7747z"/><path d="m157.918 87.3868c.096.3873.483.6778.966.5809.387-.0968.677-.4841.58-.9683-.097-.3873-.483-.6778-.966-.581-.387.0969-.677.4842-.58.9684z"/><path d="m157.531 81.5767c.097.581.677.8715 1.256.7747.58-.0968.87-.6778.774-1.2588-.097-.581-.677-.8715-1.257-.7747s-.87.6778-.773 1.2588z"/><path d="m158.014 75.5732c.097.3873.484.5809.87.4841.387-.0968.58-.4841.483-.8715-.096-.3873-.483-.581-.869-.4841-.387.1936-.58.581-.484.8715z"/><path d="m158.981 71.797c1.227 0 2.223-.9971 2.223-2.2271s-.996-2.2271-2.223-2.2271c-1.228 0-2.223.9971-2.223 2.2271s.995 2.2271 2.223 2.2271z"/><path d="m157.918 64.1471c.193.9683 1.159 1.4524 2.029 1.2588.967-.1937 1.45-1.162 1.257-2.0335-.194-.9683-1.16-1.4524-2.03-1.2588-.87.1937-1.45 1.162-1.256 2.0335z"/><path d="m159.561 58.1436c.096.4842.58.6779.966.581.483-.0968.677-.581.58-.9683-.097-.4841-.58-.6778-.966-.581-.387.0969-.677.581-.58.9683z"/><path d="m159.174 52.7212c.29 1.2588 1.547 2.0334 2.803 1.7429s2.03-1.5493 1.74-2.8081-1.547-2.0335-2.803-1.743c-1.257.2905-2.03 1.5493-1.74 2.8082z"/><path d="m160.914 46.9112c.193 1.0651 1.256 1.6461 2.32 1.4524 1.063-.1936 1.643-1.2588 1.449-2.3239-.193-1.0652-1.353-1.6462-2.319-1.4525-1.063.2905-1.74 1.2588-1.45 2.324z"/><path d="m163.62 41.0046c.097.3874.387.581.773.4842.387-.0968.58-.3873.484-.7747-.097-.3873-.387-.5809-.774-.4841-.29.0968-.483.3873-.483.7746z"/><path d="m164.876 35.485c.194.6778.774 1.0651 1.45.8715.677-.1937 1.063-.7747.87-1.4525s-.773-1.0651-1.45-.8715c-.676.1937-1.063.8715-.87 1.4525z"/><path d="m167.679 29.7718c0 .1937.193.2905.29.1937.193 0 .29-.1937.193-.2905 0-.1937-.193-.2905-.386-.1937 0 0-.097.1937-.097.2905z"/><path d="m168.259 24.7366c.29 1.0652 1.353 1.743 2.416 1.4525 1.064-.2905 1.74-1.3557 1.45-2.4208s-1.353-1.743-2.416-1.5493c-1.063.3873-1.74 1.4525-1.45 2.5176z"/><path d="m171.449 19.2171c.097.581.773.9684 1.353.8715.58-.0968.966-.7746.87-1.3556-.097-.581-.773-.9683-1.353-.8715s-.967.6778-.87 1.3556z"/><path d="m173.961 13.9883c.194.6779.87 1.162 1.547.9683.676-.1936 1.16-.8714.966-1.5493-.193-.6778-.87-1.1619-1.546-.9683-.677.1937-1.16.8715-.967 1.5493z"/><path d="m176.281 9.05007c.193 1.06513 1.256 1.64613 2.319 1.45243 1.063-.1936 1.643-1.25877 1.45-2.32392-.193-1.06514-1.256-1.64613-2.32-1.45247-1.063.19366-1.739 1.25881-1.449 2.32396z"/><path d="m180.63 3.72411c.097.29049.29.48416.58.38732.29-.09683.484-.29049.387-.58099s-.29-.48416-.58-.38733c-.29 0-.387.2905-.387.581z"/><path d="m152.312 69.6671c0 .0968.096.1936.193.1936s.193-.0968.193-.1936c0-.0969-.096-.1937-.193-.1937-.193 0-.29.0968-.193.1937z"/><path d="m152.988 63.76c0 .0998 0 .0998 0 0h.099z"/><path d="m153.762 57.9497s0 .099 0 0c.098 0 .098 0 0 0 0 0 .098 0 0 0z"/><path d="m154.631 52.2369c0 .0968.097.0968.194.0968.096 0 .096-.0968.096-.1937 0-.0968-.096-.0968-.193-.0968 0 0-.097.0968-.097.1937z"/><path d="m155.888 46.5237c0 .0969.096.0969.193.0969s.097-.0969.097-.1937-.097-.0968-.194-.0968c-.096 0-.096.0968-.096.1936z"/><path d="m159.078 35.1946c0 .0969.096.0969.193.0969s.097-.0969.097-.1937-.097-.0968-.194-.0968c-.096.0968-.096.0968-.096.1936z"/><path d="m161.011 29.6774h.098c0-.0998 0-.0998-.098 0 0-.0998 0-.0998 0 0z"/><path d="m163.137 24.1568c0 .0985 0 .0985 0 0h.098s0-.0985-.098 0z"/><path d="m165.457 18.8327h.098c0-.0998 0-.0998-.098 0 0-.0998 0-.0998 0 0z"/><path d="m167.873 13.5045c0 .0968.096.0968.193.0968s.097-.0968.097-.1937c0-.0968-.097-.0968-.194-.0968 0 .0968-.096.0968-.096.1937z"/><path d="m149.316 46.4272c0 .0998 0 .0998 0 0 .098.0998.098 0 0 0 0 0 .098 0 0 0z"/><path d="m152.312 35.0977c0 .0998 0 .0998 0 0 .098.0998.098 0 0 0 .098 0 .098 0 0 0z"/><path d="m156.178 7.88809.097.09683.097-.09683-.097-.09683c-.097 0-.097 0-.097.09683z"/><path d="m146.61 13.0213c.098 0 .098 0 0 0 .098 0 .098-.099 0 0z"/></g><path d="m25.1378 75.1477v-13.0909h5.2415c.963 0 1.7663.1428 2.4098.4283.6434.2855 1.1271.6818 1.451 1.1889.3238.5028.4858 1.0824.4858 1.7386 0 .5114-.1023.961-.3069 1.3487-.2045.3836-.4858.6989-.8437.9461-.3537.2429-.7585.4154-1.2145.5177v.1279c.4986.0213.9652.1619 1.3999.4218.4389.26.7947.6243 1.0674 1.0931.2728.4645.4091 1.0184.4091 1.6619 0 .6946-.1726 1.3146-.5177 1.8601-.3409.5412-.8459.9695-1.515 1.2848-.669.3153-1.4936.473-2.4737.473zm2.7677-2.2628h2.2564c.7713 0 1.3338-.147 1.6875-.441.3537-.2983.5306-.6946.5306-1.189 0-.3622-.0874-.6818-.2621-.9588-.1747-.2769-.424-.4943-.7479-.6519-.3196-.1577-.701-.2366-1.1441-.2366h-2.3204zm0-5.3501h2.0519c.3792 0 .7159-.0661 1.0099-.1982.2983-.1363.5327-.3281.7032-.5753.1747-.2471.262-.5433.262-.8885 0-.473-.1683-.8544-.5049-1.1441-.3324-.2898-.8054-.4347-1.4191-.4347h-2.103zm9.0815 7.6129v-9.8182h2.64v1.7131h.1022c.179-.6094.4794-1.0696.9013-1.3807.4219-.3153.9077-.473 1.4574-.473.1364 0 .2834.0085.441.0256.1577.017.2962.0404.4155.0703v2.4162c-.1278-.0384-.3047-.0725-.5305-.1023-.2259-.0298-.4325-.0447-.62-.0447-.4006 0-.7586.0873-1.0739.262-.3111.1705-.5582.4091-.7415.7159-.179.3069-.2685.6605-.2685 1.0611v5.5547zm9.8837.1854c-.6264 0-1.1846-.1087-1.6747-.326-.49-.2216-.8778-.5476-1.1633-.978-.2813-.4347-.4219-.9759-.4219-1.6236 0-.5454.1001-1.0035.3004-1.3743.2003-.3707.473-.669.8182-.8949.3452-.2258.7372-.3963 1.1761-.5113.4432-.1151.9077-.196 1.3935-.2429.571-.0597 1.0313-.1151 1.3807-.1662.3494-.0554.603-.1364.7606-.2429.1577-.1065.2365-.2642.2365-.473v-.0384c0-.4048-.1278-.718-.3835-.9396-.2514-.2216-.6094-.3324-1.0738-.3324-.4901 0-.88.1087-1.1698.326-.2898.2131-.4815.4815-.5753.8054l-2.5184-.2045c.1278-.5966.3792-1.1123.7542-1.5469.375-.4389.8587-.7756 1.451-1.01.5966-.2386 1.287-.3579 2.071-.3579.5455 0 1.0675.0639 1.5661.1917.5028.1279.9481.326 1.3359.5945.3921.2685.701.6136.9269 1.0355.2258.4176.3388.9183.3388 1.5021v6.6222h-2.5824v-1.3615h-.0767c-.1577.3068-.3686.5774-.6328.8118-.2642.2301-.5817.4112-.9525.5433-.3707.1279-.799.1918-1.2848.1918zm.7799-1.8793c.4005 0 .7542-.0788 1.061-.2365.3069-.1619.5476-.3793.7223-.652.1748-.2727.2621-.5817.2621-.9268v-1.0419c-.0852.0554-.2024.1065-.3515.1534-.1449.0426-.309.0831-.4922.1214-.1833.0341-.3665.0661-.5497.0959-.1833.0256-.3495.049-.4986.0703-.3196.0469-.5987.1215-.8374.2237-.2386.1023-.424.2408-.5561.4155-.1321.1705-.1981.3835-.1981.6392 0 .3708.1342.6541.4027.8502.2727.1917.6179.2876 1.0355.2876zm9.5848-3.9822v5.6761h-2.723v-9.8182h2.5952v1.7323h.1151c.2173-.5711.5816-1.0228 1.093-1.3551.5114-.3367 1.1314-.505 1.8601-.505.6818 0 1.2763.1491 1.7834.4474s.9012.7245 1.1825 1.2784c.2812.5498.4219 1.206.4219 1.9688v6.2514h-2.723v-5.7656c.0042-.6009-.1492-1.0696-.4603-1.4063-.3111-.3409-.7393-.5113-1.2848-.5113-.3665 0-.6903.0788-.9716.2365-.277.1576-.4943.3878-.652.6903-.1534.2983-.2322.6584-.2365 1.0803zm12.0922 5.8359c-.7457 0-1.4212-.1918-2.0263-.5753-.6008-.3878-1.0781-.9567-1.4318-1.7067-.3494-.7542-.5242-1.6789-.5242-2.7741 0-1.125.1812-2.0604.5434-2.8061.3622-.75.8437-1.3104 1.4446-1.6811.6051-.375 1.2677-.5625 1.9879-.5625.5497 0 1.0078.0937 1.3743.2812.3707.1833.669.4134.8949.6904.2301.2727.4048.5412.5241.8054h.0831v-4.9219h2.7166v13.0909h-2.6846v-1.5724h-.1151c-.1278.2727-.3089.5433-.5433.8118-.2301.2642-.5305.4836-.9013.6583-.3665.1747-.8139.2621-1.3423.2621zm.8629-2.1669c.4389 0 .8097-.1193 1.1122-.358.3069-.2428.5412-.5816.7032-1.0163.1662-.4346.2492-.9439.2492-1.5277s-.0809-1.0909-.2428-1.5213c-.162-.4304-.3964-.7628-.7032-.9972-.3068-.2343-.6797-.3515-1.1186-.3515-.4474 0-.8246.1214-1.1314.3643s-.539.5796-.6967 1.01-.2365.929-.2365 1.4957c0 .571.0788 1.076.2365 1.5149.1619.4347.3942.7756.6967 1.0228.3068.2429.684.3643 1.1314.3643zm11.3986 2.1989c-.9929 0-1.8515-.211-2.576-.6328-.7201-.4262-1.2762-1.0185-1.6683-1.777-.392-.7628-.5881-1.6471-.5881-2.6527 0-1.0142.1961-1.9006.5881-2.6591.3921-.7628.9482-1.3551 1.6683-1.777.7245-.4261 1.5831-.6392 2.576-.6392s1.8495.2131 2.5696.6392c.7245.4219 1.2827 1.0142 1.6748 1.777.392.7585.588 1.6449.588 2.6591 0 1.0056-.196 1.8899-.588 2.6527-.3921.7585-.9503 1.3508-1.6748 1.777-.7201.4218-1.5767.6328-2.5696.6328zm.0128-2.1094c.4517 0 .8289-.1278 1.1314-.3835.3026-.26.5305-.6137.684-1.0611.1576-.4475.2365-.9567.2365-1.5277s-.0789-1.0803-.2365-1.5277c-.1535-.4475-.3814-.8011-.684-1.0611-.3025-.2599-.6797-.3899-1.1314-.3899-.4559 0-.8395.13-1.1506.3899-.3068.26-.539.6136-.6967 1.0611-.1534.4474-.2301.9567-.2301 1.5277s.0767 1.0802.2301 1.5277c.1577.4474.3899.8011.6967 1.0611.3111.2557.6947.3835 1.1506.3835zm9.3132-3.7585v5.6761h-2.723v-9.8182h2.5952v1.7323h.115c.2174-.5711.5817-1.0228 1.0931-1.3551.5113-.3367 1.1314-.505 1.8601-.505.6818 0 1.2762.1491 1.7833.4474.5072.2983.9013.7245 1.1826 1.2784.2812.5498.4219 1.206.4219 1.9688v6.2514h-2.7231v-5.7656c.0043-.6009-.1491-1.0696-.4602-1.4063-.3111-.3409-.7393-.5113-1.2848-.5113-.3665 0-.6903.0788-.9716.2365-.277.1576-.4943.3878-.652.6903-.1534.2983-.2322.6584-.2365 1.0803zm21.3719-3.1833c-.09-.311-.215-.5859-.377-.8245-.162-.2429-.36-.4475-.595-.6137-.23-.1704-.494-.3004-.792-.3899-.294-.0895-.62-.1342-.978-.1342-.669 0-1.257.1662-1.764.4986-.503.3323-.895.816-1.177 1.4509-.281.6307-.421 1.402-.421 2.314 0 .9119.138 1.6875.415 2.3267s.669 1.1271 1.176 1.4637c.507.3324 1.106.4986 1.796.4986.627 0 1.162-.1108 1.605-.3324.447-.2258.788-.5433 1.022-.9524.239-.4091.358-.8927.358-1.451l.563.0831h-3.375v-2.0838h5.478v1.6492c0 1.1505-.243 2.1392-.729 2.9659-.486.8224-1.155 1.4574-2.007 1.9048-.852.4432-1.828.6648-2.927.6648-1.228 0-2.306-.2706-3.235-.8118-.929-.5455-1.653-1.3189-2.173-2.3203-.516-1.0057-.774-2.1989-.774-3.5796 0-1.061.154-2.0071.461-2.838.311-.8353.745-1.5426 1.304-2.1222.558-.5795 1.208-1.0206 1.949-1.3231.742-.3026 1.545-.4539 2.41-.4539.741 0 1.432.1087 2.071.326.639.2131 1.206.5156 1.7.9077.499.392.906.8586 1.221 1.3998.316.537.518 1.1293.607 1.777zm9.398 9.0512c-.993 0-1.852-.211-2.576-.6328-.72-.4262-1.276-1.0185-1.668-1.777-.393-.7628-.589-1.6471-.589-2.6527 0-1.0142.196-1.9006.589-2.6591.392-.7628.948-1.3551 1.668-1.777.724-.4261 1.583-.6392 2.576-.6392s1.849.2131 2.569.6392c.725.4219 1.283 1.0142 1.675 1.777.392.7585.588 1.6449.588 2.6591 0 1.0056-.196 1.8899-.588 2.6527-.392.7585-.95 1.3508-1.675 1.777-.72.4218-1.576.6328-2.569.6328zm.013-2.1094c.451 0 .828-.1278 1.131-.3835.303-.26.531-.6137.684-1.0611.158-.4475.236-.9567.236-1.5277s-.078-1.0803-.236-1.5277c-.153-.4475-.381-.8011-.684-1.0611-.303-.2599-.68-.3899-1.131-.3899-.456 0-.84.13-1.151.3899-.307.26-.539.6136-.697 1.0611-.153.4474-.23.9567-.23 1.5277s.077 1.0802.23 1.5277c.158.4474.39.8011.697 1.0611.311.2557.695.3835 1.151.3835zm11.026 2.1094c-.993 0-1.852-.211-2.576-.6328-.72-.4262-1.276-1.0185-1.668-1.777-.392-.7628-.588-1.6471-.588-2.6527 0-1.0142.196-1.9006.588-2.6591.392-.7628.948-1.3551 1.668-1.777.724-.4261 1.583-.6392 2.576-.6392s1.849.2131 2.57.6392c.724.4219 1.282 1.0142 1.674 1.777.392.7585.588 1.6449.588 2.6591 0 1.0056-.196 1.8899-.588 2.6527-.392.7585-.95 1.3508-1.674 1.777-.721.4218-1.577.6328-2.57.6328zm.013-2.1094c.451 0 .829-.1278 1.131-.3835.303-.26.531-.6137.684-1.0611.158-.4475.237-.9567.237-1.5277s-.079-1.0803-.237-1.5277c-.153-.4475-.381-.8011-.684-1.0611-.302-.2599-.68-.3899-1.131-.3899-.456 0-.84.13-1.151.3899-.307.26-.539.6136-.697 1.0611-.153.4474-.23.9567-.23 1.5277s.077 1.0802.23 1.5277c.158.4474.39.8011.697 1.0611.311.2557.695.3835 1.151.3835zm10.208 2.0774c-.746 0-1.421-.1918-2.026-.5753-.601-.3878-1.079-.9567-1.432-1.7067-.35-.7542-.524-1.6789-.524-2.7741 0-1.125.181-2.0604.543-2.8061.362-.75.844-1.3104 1.444-1.6811.606-.375 1.268-.5625 1.988-.5625.55 0 1.008.0937 1.375.2812.37.1833.669.4134.895.6904.23.2727.404.5412.524.8054h.083v-4.9219h2.716v13.0909h-2.684v-1.5724h-.115c-.128.2727-.309.5433-.544.8118-.23.2642-.53.4836-.901.6583-.366.1747-.814.2621-1.342.2621zm.863-2.1669c.439 0 .809-.1193 1.112-.358.307-.2428.541-.5816.703-1.0163.166-.4346.249-.9439.249-1.5277s-.081-1.0909-.243-1.5213c-.161-.4304-.396-.7628-.703-.9972-.307-.2343-.679-.3515-1.118-.3515-.448 0-.825.1214-1.132.3643s-.539.5796-.696 1.01c-.158.4304-.237.929-.237 1.4957 0 .571.079 1.076.237 1.5149.162.4347.394.7756.696 1.0228.307.2429.684.3643 1.132.3643zm11.437 2.1989c-1.01 0-1.88-.2046-2.608-.6137-.725-.4133-1.283-.9971-1.675-1.7514-.392-.7585-.588-1.6555-.588-2.691 0-1.01.196-1.8963.588-2.6591s.944-1.3573 1.656-1.7834c.715-.4261 1.555-.6392 2.518-.6392.648 0 1.251.1044 1.809.3132.562.2045 1.053.5135 1.47.9268.422.4134.75.9333.985 1.5597.234.6222.351 1.3509.351 2.1861v.7478h-8.29v-1.6875h5.727c0-.392-.085-.7393-.256-1.0419-.17-.3025-.407-.539-.709-.7095-.299-.1747-.646-.262-1.042-.262-.414 0-.78.0958-1.1.2876-.315.1875-.562.441-.741.7606-.179.3154-.271.667-.275 1.0547v1.6044c0 .4858.089.9056.268 1.2593.184.3537.442.6264.774.8182.332.1917.726.2876 1.182.2876.303 0 .58-.0426.831-.1278.252-.0853.467-.2131.646-.3836.179-.1704.315-.3792.409-.6264l2.519.1662c-.128.6051-.39 1.1335-.787 1.5852-.392.4475-.899.7969-1.521 1.0483-.618.2472-1.332.3708-2.141.3708zm9.006-13.2827v13.0909h-2.723v-13.0909zm4.904 0v13.0909h-2.723v-13.0909zm3.933 0v4.973h-1.943v-4.973zm10.179 6.0724-2.492.1534c-.043-.213-.135-.4048-.275-.5752-.141-.1748-.326-.3132-.556-.4155-.226-.1066-.497-.1598-.812-.1598-.422 0-.778.0895-1.068.2684-.289.1748-.434.4091-.434.7032 0 .2343.093.4325.281.5944.187.162.509.2919.965.3899l1.777.358c.955.196 1.666.5114 2.135.946.469.4347.703 1.0057.703 1.7131 0 .6435-.19 1.2081-.569 1.6939-.375.4858-.89.865-1.547 1.1378-.652.2684-1.404.4027-2.256.4027-1.3 0-2.335-.2706-3.107-.8118-.767-.5455-1.216-1.287-1.348-2.2245l2.678-.1406c.081.3963.277.6989.588.9077.311.2045.71.3068 1.195.3068.478 0 .861-.0916 1.151-.2748.294-.1875.443-.4283.447-.7224-.004-.2471-.108-.4495-.313-.6072-.204-.1619-.52-.2855-.946-.3707l-1.7-.3388c-.959-.1918-1.673-.5242-2.141-.9972-.465-.473-.697-1.076-.697-1.8089 0-.6307.17-1.174.511-1.63.345-.456.829-.8075 1.451-1.0547.627-.2471 1.36-.3707 2.199-.3707 1.24 0 2.216.2621 2.928.7862.715.5242 1.133 1.2379 1.252 2.1413zm-155.1825 27.0185-3.7457-13.0909h3.0234l2.1669 9.0959h.1087l2.3906-9.0959h2.5888l2.3842 9.1151h.1151l2.1669-9.1151h3.0234l-3.7457 13.0909h-2.6975l-2.4929-8.5589h-.1022l-2.4865 8.5589zm18.3755-5.6761v5.6761h-2.723v-13.0909h2.6463v5.005h.1151c.2216-.5796.5795-1.0334 1.0739-1.3615.4943-.3324 1.1143-.4986 1.8601-.4986.6818 0 1.2762.1491 1.7833.4474.5114.2941.9077.7181 1.189 1.272.2855.5498.4261 1.2081.4218 1.9752v6.2514h-2.723v-5.7656c.0043-.6051-.1491-1.076-.4602-1.4127-.3068-.3366-.7372-.5049-1.2912-.5049-.3707 0-.6989.0788-.9844.2365-.2812.1576-.5028.3878-.6648.6903-.1576.2983-.2386.6584-.2429 1.0803zm8.5095 5.6761v-9.8182h2.723v9.8182zm1.3679-11.0838c-.4049 0-.7522-.1342-1.0419-.4027-.2856-.2727-.4283-.5987-.4283-.978 0-.375.1427-.6967.4283-.9652.2897-.2727.637-.4091 1.0419-.4091.4048 0 .75.1364 1.0355.4091.2897.2685.4346.5902.4346.9652 0 .3793-.1449.7053-.4346.978-.2855.2685-.6307.4027-1.0355.4027zm8.7587 1.2656v2.0455h-5.9127v-2.0455zm-4.5704-2.3522h2.7231v9.1534c0 .2514.0383.4474.115.588.0767.1364.1833.2323.3196.2877.1406.0554.3026.0831.4858.0831.1279 0 .2557-.0107.3835-.032.1279-.0256.2259-.0447.2941-.0575l.4282 2.0263c-.1363.0426-.3281.0916-.5752.147-.2472.0596-.5476.0959-.9013.1086-.6563.0256-1.2316-.0618-1.7259-.262-.49-.2003-.8714-.5114-1.1442-.9333-.2727-.4218-.4069-.9545-.4027-1.598zm10.7131 12.3622c-1.0099 0-1.8792-.2046-2.6079-.6137-.7245-.4133-1.2827-.9971-1.6748-1.7514-.392-.7585-.588-1.6555-.588-2.691 0-1.01.196-1.8963.588-2.6591.3921-.7628.9439-1.3573 1.6556-1.7834.7159-.4261 1.5554-.6392 2.5184-.6392.6478 0 1.2508.1044 1.809.3132.5625.2045 1.0526.5135 1.4702.9268.4218.4134.75.9333.9843 1.5597.2344.6222.3516 1.3509.3516 2.1861v.7478h-8.2905v-1.6875h5.7273c0-.392-.0852-.7393-.2557-1.0419-.1704-.3025-.4069-.539-.7095-.7095-.2983-.1747-.6456-.262-1.0419-.262-.4134 0-.7798.0958-1.0994.2876-.3154.1875-.5625.441-.7415.7606-.179.3154-.2706.667-.2749 1.0547v1.6044c0 .4858.0895.9056.2685 1.2593.1832.3537.441.6264.7734.8182.3324.1917.7266.2876 1.1826.2876.3025 0 .5795-.0426.8309-.1278.2514-.0853.4666-.2131.6456-.3836.179-.1704.3154-.3792.4091-.6264l2.5185.1662c-.1279.6051-.3899 1.1335-.7862 1.5852-.3921.4475-.8992.7969-1.5214 1.0483-.6178.2472-1.3316.3708-2.1413.3708zm6.2834 3.49v-13.5h2.6847v1.6492h.1214c.1193-.2642.2919-.5327.5178-.8054.2301-.277.5284-.5071.8948-.6904.3708-.1875.831-.2812 1.3807-.2812.7159 0 1.3764.1875 1.9816.5625.6051.3707 1.0887.9311 1.451 1.6811.3622.7457.5433 1.6811.5433 2.8061 0 1.0952-.1769 2.0199-.5306 2.7741-.3494.75-.8267 1.3189-1.4318 1.7067-.6008.3835-1.2741.5753-2.0199.5753-.5284 0-.9779-.0874-1.3487-.2621-.3665-.1747-.6669-.3941-.9013-.6583-.2343-.2685-.4133-.5391-.5369-.8118h-.0831v5.2542zm2.6655-8.5909c0 .5838.0809 1.0931.2429 1.5277.1619.4347.3963.7735.7031 1.0163.3068.2387.6797.358 1.1186.358.4432 0 .8182-.1214 1.125-.3643.3068-.2472.5391-.5881.6967-1.0228.162-.4389.2429-.9439.2429-1.5149 0-.5667-.0788-1.0653-.2365-1.4957-.1576-.4304-.3899-.7671-.6967-1.01s-.6839-.3643-1.1314-.3643c-.4432 0-.8182.1172-1.125.3515-.3025.2344-.5348.5668-.6967.9972-.162.4304-.2429.9375-.2429 1.5213zm11.5248 5.0945c-.6264 0-1.1846-.1087-1.6747-.326-.49-.2216-.8778-.5476-1.1633-.978-.2813-.4347-.4219-.9759-.4219-1.6236 0-.5454.1001-1.0035.3004-1.3743.2003-.3707.473-.669.8182-.8949.3452-.2258.7372-.3963 1.1761-.5113.4432-.1151.9077-.196 1.3935-.2429.571-.0597 1.0313-.1151 1.3807-.1662.3494-.0554.603-.1364.7606-.2429.1577-.1065.2365-.2642.2365-.473v-.0384c0-.4048-.1278-.718-.3835-.9396-.2514-.2216-.6094-.3324-1.0738-.3324-.4901 0-.88.1087-1.1698.326-.2898.2131-.4815.4815-.5753.8054l-2.5184-.2045c.1278-.5966.3792-1.1123.7542-1.5469.375-.4389.8587-.7756 1.451-1.01.5966-.2386 1.287-.3579 2.071-.3579.5455 0 1.0675.0639 1.5661.1917.5028.1279.9481.326 1.3359.5945.3921.2685.701.6136.9269 1.0355.2258.4176.3388.9183.3388 1.5021v6.6222h-2.5824v-1.3615h-.0767c-.1577.3068-.3686.5774-.6328.8118-.2643.2301-.5817.4112-.9525.5433-.3707.1279-.799.1918-1.2848.1918zm.7799-1.8793c.4005 0 .7542-.0788 1.061-.2365.3069-.1619.5476-.3793.7223-.652.1748-.2727.2621-.5817.2621-.9268v-1.0419c-.0852.0554-.2024.1065-.3515.1534-.1449.0426-.309.0831-.4922.1214-.1833.0341-.3665.0661-.5497.0959-.1833.0256-.3495.049-.4986.0703-.3196.0469-.5987.1215-.8374.2237-.2386.1023-.424.2408-.5561.4155-.1321.1705-.1981.3835-.1981.6392 0 .3708.1342.6541.4027.8502.2727.1917.6179.2876 1.0355.2876zm6.8618 5.3757v-13.5h2.6848v1.6492h.121c.12-.2642.292-.5327.518-.8054.23-.277.528-.5071.895-.6904.371-.1875.831-.2812 1.381-.2812.716 0 1.376.1875 1.981.5625.605.3707 1.089.9311 1.451 1.6811.362.7457.544 1.6811.544 2.8061 0 1.0952-.177 2.0199-.531 2.7741-.349.75-.827 1.3189-1.432 1.7067-.601.3835-1.274.5753-2.02.5753-.528 0-.978-.0874-1.348-.2621-.367-.1747-.667-.3941-.902-.6583-.234-.2685-.413-.5391-.537-.8118h-.083v5.2542zm2.6658-8.5909c0 .5838.081 1.0931.243 1.5277.162.4347.396.7735.703 1.0163.307.2387.679.358 1.118.358.444 0 .819-.1214 1.125-.3643.307-.2472.539-.5881.697-1.0228.162-.4389.243-.9439.243-1.5149 0-.5667-.079-1.0653-.237-1.4957-.157-.4304-.389-.7671-.696-1.01s-.684-.3643-1.132-.3643c-.443 0-.818.1172-1.125.3515-.302.2344-.534.5668-.696.9972s-.243.9375-.243 1.5213zm13.199 5.1009c-1.01 0-1.879-.2046-2.608-.6137-.724-.4133-1.282-.9971-1.674-1.7514-.392-.7585-.588-1.6555-.588-2.691 0-1.01.196-1.8963.588-2.6591s.944-1.3573 1.655-1.7834c.716-.4261 1.556-.6392 2.519-.6392.647 0 1.25.1044 1.809.3132.562.2045 1.052.5135 1.47.9268.422.4134.75.9333.984 1.5597.234.6222.352 1.3509.352 2.1861v.7478h-8.291v-1.6875h5.727c0-.392-.085-.7393-.255-1.0419-.171-.3025-.407-.539-.71-.7095-.298-.1747-.645-.262-1.042-.262-.413 0-.779.0958-1.099.2876-.315.1875-.563.441-.742.7606-.179.3154-.27.667-.274 1.0547v1.6044c0 .4858.089.9056.268 1.2593.183.3537.441.6264.773.8182.333.1917.727.2876 1.183.2876.303 0 .58-.0426.831-.1278.251-.0853.467-.2131.646-.3836.179-.1704.315-.3792.409-.6264l2.518.1662c-.128.6051-.39 1.1335-.786 1.5852-.392.4475-.899.7969-1.521 1.0483-.618.2472-1.332.3708-2.142.3708zm6.284-.1918v-9.8182h2.64v1.7131h.102c.179-.6094.479-1.0696.901-1.3807.422-.3153.908-.473 1.458-.473.136 0 .283.0085.441.0256.157.017.296.0404.415.0703v2.4162c-.128-.0384-.305-.0725-.53-.1023-.226-.0298-.433-.0447-.621-.0447-.4 0-.758.0873-1.073.262-.311.1705-.559.4091-.742.7159-.179.3069-.268.6605-.268 1.0611v5.5547zm11.582 0v-13.0909h5.165c.988 0 1.832.1768 2.531.5305.703.3495 1.238.8459 1.604 1.4894.371.6392.557 1.3913.557 2.2564 0 .8693-.188 1.6172-.563 2.2436-.375.6221-.918 1.0994-1.63 1.4318-.707.3324-1.564.4986-2.569.4986h-3.459v-2.2245h3.011c.528 0 .967-.0724 1.317-.2173.349-.1449.609-.3622.78-.652.174-.2897.262-.6498.262-1.0802 0-.4347-.088-.8012-.262-1.0995-.171-.2983-.433-.5241-.787-.6775-.349-.1577-.79-.2365-1.323-.2365h-1.866v10.8281zm7.07-5.9574 3.253 5.9574h-3.055l-3.183-5.9574zm9.008 6.1492c-1.01 0-1.88-.2046-2.608-.6137-.725-.4133-1.283-.9971-1.675-1.7514-.392-.7585-.588-1.6555-.588-2.691 0-1.01.196-1.8963.588-2.6591s.944-1.3573 1.656-1.7834c.715-.4261 1.555-.6392 2.518-.6392.648 0 1.251.1044 1.809.3132.562.2045 1.052.5135 1.47.9268.422.4134.75.9333.984 1.5597.235.6222.352 1.3509.352 2.1861v.7478h-8.29v-1.6875h5.727c0-.392-.085-.7393-.256-1.0419-.17-.3025-.407-.539-.709-.7095-.299-.1747-.646-.262-1.042-.262-.414 0-.78.0958-1.1.2876-.315.1875-.562.441-.741.7606-.179.3154-.271.667-.275 1.0547v1.6044c0 .4858.089.9056.268 1.2593.184.3537.441.6264.774.8182.332.1917.726.2876 1.182.2876.303 0 .58-.0426.831-.1278.252-.0853.467-.2131.646-.3836.179-.1704.315-.3792.409-.6264l2.519.1662c-.128.6051-.39 1.1335-.787 1.5852-.392.4475-.899.7969-1.521 1.0483-.618.2472-1.332.3708-2.141.3708zm15.173-10.01-3.433 9.8182h-3.068l-3.432-9.8182h2.876l2.039 7.0249h.102l2.033-7.0249zm1.393 9.8182v-9.8182h2.723v9.8182zm1.368-11.0838c-.405 0-.752-.1342-1.042-.4027-.285-.2727-.428-.5987-.428-.978 0-.375.143-.6967.428-.9652.29-.2727.637-.4091 1.042-.4091s.75.1364 1.036.4091c.289.2685.434.5902.434.9652 0 .3793-.145.7053-.434.978-.286.2685-.631.4027-1.036.4027zm8.011 11.2756c-1.01 0-1.879-.2046-2.608-.6137-.724-.4133-1.283-.9971-1.675-1.7514-.392-.7585-.588-1.6555-.588-2.691 0-1.01.196-1.8963.588-2.6591s.944-1.3573 1.656-1.7834c.716-.4261 1.555-.6392 2.518-.6392.648 0 1.251.1044 1.809.3132.563.2045 1.053.5135 1.47.9268.422.4134.75.9333.985 1.5597.234.6222.351 1.3509.351 2.1861v.7478h-8.29v-1.6875h5.727c0-.392-.085-.7393-.256-1.0419-.17-.3025-.407-.539-.709-.7095-.298-.1747-.646-.262-1.042-.262-.413 0-.78.0958-1.099.2876-.316.1875-.563.441-.742.7606-.179.3154-.27.667-.275 1.0547v1.6044c0 .4858.09.9056.269 1.2593.183.3537.441.6264.773.8182.333.1917.727.2876 1.183.2876.302 0 .579-.0426.831-.1278.251-.0853.466-.2131.645-.3836.179-.1704.316-.3792.409-.6264l2.519.1662c-.128.6051-.39 1.1335-.786 1.5852-.392.4475-.9.7969-1.522 1.0483-.618.2472-1.331.3708-2.141.3708zm8.15-.1918-2.672-9.8182h2.755l1.521 6.5966h.09l1.585-6.5966h2.704l1.611 6.5583h.083l1.495-6.5583h2.749l-2.666 9.8182h-2.882l-1.688-6.1747h-.121l-1.688 6.1747z" fill="#171717"/></g></svg>