<svg fill="none" height="162" viewBox="0 0 260 162" width="260" xmlns="http://www.w3.org/2000/svg" xmlns:xlink="http://www.w3.org/1999/xlink"><mask id="a" height="154" maskUnits="userSpaceOnUse" width="256" x="0" y="0"><path d="m0 15c0-8.28428 6.71573-15 15-15h226c8.284 0 15 6.71573 15 15v124c0 8.284-6.716 15-15 15h-226c-8.28427 0-15-6.716-15-15z" fill="#f3f3f3"/></mask><rect fill="#f3f3f3" height="154" rx="15" width="256"/><path d="m36.6882 65.4922h-2.7997c-.0511-.3622-.1555-.684-.3132-.9652-.1577-.2855-.3601-.5284-.6073-.7287-.2471-.2003-.5326-.3537-.8565-.4602-.3196-.1066-.6669-.1598-1.0419-.1598-.6776 0-1.2678.1683-1.7706.5049-.5028.3324-.8927.8182-1.1697 1.4574-.277.635-.4155 1.4063-.4155 2.3139 0 .9333.1385 1.7174.4155 2.3523.2812.635.6733 1.1144 1.1761 1.4382.5028.3239 1.0845.4858 1.745.4858.3708 0 .7138-.049 1.0291-.147.3196-.098.603-.2408.8502-.4283.2471-.1917.4517-.424.6136-.6967.1662-.2727.2813-.5838.3452-.9332l2.7997.0128c-.0724.6008-.2535 1.1804-.5433 1.7386-.2855.554-.6712 1.0504-1.157 1.4893-.4815.4347-1.0568.7799-1.7258 1.0355-.6648.2515-1.4169.3772-2.2564.3772-1.1676 0-2.2117-.2642-3.1321-.7926-.9162-.5284-1.6406-1.2934-2.1733-2.2948-.5284-1.0014-.7926-2.2138-.7926-3.6371 0-1.4275.2684-2.642.8054-3.6434.5369-1.0014 1.2656-1.7642 2.186-2.2884.9205-.5284 1.956-.7926 3.1066-.7926.7585 0 1.4616.1065 2.1094.3196.6519.2131 1.2294.5242 1.7322.9333.5028.4048.9119.9012 1.2273 1.4893.3196.5881.5241 1.2614.6136 2.0199zm1.9336 8.5078v-9.8182h2.6399v1.7131h.1023c.179-.6094.4794-1.0696.9013-1.3807.4218-.3153.9076-.473 1.4574-.473.1363 0 .2833.0085.441.0256.1577.017.2962.0404.4155.0703v2.4162c-.1279-.0384-.3047-.0725-.5305-.1023-.2259-.0298-.4326-.0448-.6201-.0448-.4005 0-.7585.0874-1.0738.2621-.3111.1705-.5583.4091-.7415.7159-.179.3069-.2685.6605-.2685 1.0611v5.5547zm9.3452 3.6818c-.3452 0-.6691-.0277-.9716-.0831-.2983-.0511-.5455-.1172-.7415-.1981l.6136-2.0327c.3196.098.6073.1513.863.1598.2599.0085.4836-.0511.6711-.179.1918-.1278.3473-.3451.4667-.652l.1598-.4155-3.5221-10.0994h2.8637l2.0326 7.2102h.1023l2.0519-7.2102h2.8828l-3.8161 10.8793c-.1832.5284-.4325.9886-.7478 1.3807-.3111.3963-.7053.701-1.1826.914-.4772.2174-1.0525.326-1.7258.326zm8.8657 0v-13.5h2.6847v1.6492h.1214c.1194-.2642.292-.5327.5178-.8054.2301-.277.5284-.5071.8949-.6904.3707-.1875.831-.2812 1.3807-.2812.7159 0 1.3764.1875 1.9815.5625.6051.3707 1.0888.9311 1.451 1.6811.3622.7457.5433 1.6811.5433 2.8061 0 1.0952-.1768 2.0199-.5305 2.7741-.3494.75-.8267 1.3189-1.4318 1.7067-.6009.3835-1.2742.5753-2.0199.5753-.5284 0-.978-.0874-1.3487-.2621-.3665-.1747-.6669-.3941-.9013-.6584-.2344-.2684-.4134-.539-.537-.8117h-.083v5.2542zm2.6655-8.5909c0 .5838.081 1.093.2429 1.5277.162.4347.3963.7734.7031 1.0163.3069.2387.6797.358 1.1187.358.4431 0 .8181-.1215 1.125-.3643.3068-.2472.539-.5881.6967-1.0228.1619-.4389.2429-.9439.2429-1.5149 0-.5668-.0788-1.0653-.2365-1.4957s-.3899-.7671-.6968-1.01c-.3068-.2429-.6839-.3643-1.1313-.3643-.4432 0-.8182.1172-1.125.3515-.3026.2344-.5348.5668-.6968.9972-.1619.4304-.2429.9375-.2429 1.5213zm13.9475-4.9091v2.0455h-5.9127v-2.0455zm-4.5703-2.3523h2.723v9.1535c0 .2514.0383.4474.115.588.0767.1364.1833.2323.3196.2877.1407.0554.3026.0831.4858.0831.1279 0 .2557-.0107.3835-.032.1279-.0256.2259-.0447.2941-.0575l.4282 2.0263c-.1363.0426-.3281.0916-.5752.147-.2472.0596-.5476.0958-.9013.1086-.6563.0256-1.2316-.0618-1.7259-.262-.49-.2003-.8714-.5114-1.1441-.9333-.2728-.4219-.407-.9545-.4027-1.598zm10.6747 12.3623c-.9929 0-1.8516-.211-2.576-.6329-.7202-.4261-1.2763-1.0184-1.6683-1.7769-.3921-.7628-.5881-1.6471-.5881-2.6527 0-1.0142.196-1.9006.5881-2.6591.392-.7628.9481-1.3551 1.6683-1.777.7244-.4262 1.5831-.6392 2.576-.6392s1.8494.213 2.5696.6392c.7244.4219 1.2826 1.0142 1.6747 1.777.392.7585.5881 1.6449.5881 2.6591 0 1.0056-.1961 1.8899-.5881 2.6527-.3921.7585-.9503 1.3508-1.6747 1.7769-.7202.4219-1.5767.6329-2.5696.6329zm.0128-2.1094c.4517 0 .8288-.1279 1.1313-.3835.3026-.26.5306-.6137.684-1.0611.1577-.4475.2365-.9567.2365-1.5277s-.0788-1.0803-.2365-1.5277c-.1534-.4475-.3814-.8012-.684-1.0611-.3025-.2599-.6796-.3899-1.1313-.3899-.456 0-.8395.13-1.1506.3899-.3068.2599-.5391.6136-.6967 1.0611-.1535.4474-.2302.9567-.2302 1.5277s.0767 1.0802.2302 1.5277c.1576.4474.3899.8011.6967 1.0611.3111.2556.6946.3835 1.1506.3835zm9.3132-3.7585v5.6761h-2.723v-9.8182h2.5951v1.7323h.1151c.2173-.5711.5817-1.0228 1.093-1.3552.5114-.3366 1.1314-.5049 1.8601-.5049.6818 0 1.2763.1491 1.7834.4474s.9013.7245 1.1825 1.2784c.2813.5497.4219 1.206.4219 1.9688v6.2514h-2.723v-5.7656c.0042-.6009-.1492-1.0696-.4602-1.4063-.3111-.3409-.7394-.5113-1.2848-.5113-.3665 0-.6904.0788-.9716.2365-.277.1576-.4944.3878-.652.6903-.1534.2983-.2323.6584-.2365 1.0803zm12.9099 5.8679c-.992 0-1.8512-.211-2.5756-.6329-.7202-.4261-1.2763-1.0184-1.6683-1.7769-.3921-.7628-.5881-1.6471-.5881-2.6527 0-1.0142.196-1.9006.5881-2.6591.392-.7628.9481-1.3551 1.6683-1.777.7244-.4262 1.5836-.6392 2.5756-.6392.993 0 1.85.213 2.57.6392.724.4219 1.283 1.0142 1.675 1.777.392.7585.588 1.6449.588 2.6591 0 1.0056-.196 1.8899-.588 2.6527-.392.7585-.951 1.3508-1.675 1.7769-.72.4219-1.577.6329-2.57.6329zm.013-2.1094c.452 0 .829-.1279 1.132-.3835.302-.26.53-.6137.684-1.0611.157-.4475.236-.9567.236-1.5277s-.079-1.0803-.236-1.5277c-.154-.4475-.382-.8012-.684-1.0611-.303-.2599-.68-.3899-1.132-.3899-.456 0-.839.13-1.15.3899-.307.2599-.539.6136-.6971 1.0611-.1534.4474-.2301.9567-.2301 1.5277s.0767 1.0802.2301 1.5277c.1581.4474.3901.8011.6971 1.0611.311.2556.694.3835 1.15.3835zm11.813-7.9006v2.0455h-5.913v-2.0455zm-4.571-2.3523h2.723v9.1535c0 .2514.039.4474.115.588.077.1364.184.2323.32.2877.141.0554.303.0831.486.0831.128 0 .256-.0107.383-.032.128-.0256.226-.0447.294-.0575l.429 2.0263c-.137.0426-.328.0916-.576.147-.247.0596-.547.0958-.901.1086-.656.0256-1.231-.0618-1.726-.262-.49-.2003-.871-.5114-1.144-.9333s-.407-.9545-.403-1.598zm10.713 12.3623c-1.01 0-1.879-.2046-2.608-.6137-.724-.4133-1.282-.9971-1.674-1.7514-.392-.7585-.588-1.6555-.588-2.691 0-1.01.196-1.8964.588-2.6591.392-.7628.944-1.3573 1.655-1.7834.716-.4262 1.556-.6392 2.519-.6392.648 0 1.25.1044 1.809.3132.562.2045 1.052.5135 1.47.9268.422.4134.75.9333.984 1.5597.235.6222.352 1.3508.352 2.1861v.7478h-8.291v-1.6875h5.728c0-.392-.086-.7393-.256-1.0419-.171-.3025-.407-.539-.71-.7095-.298-.1747-.645-.2621-1.041-.2621-.414 0-.78.0959-1.1.2877-.315.1875-.562.441-.741.7606-.179.3154-.271.6669-.275 1.0547v1.6044c0 .4858.089.9056.268 1.2593.183.3537.441.6264.774.8181.332.1918.726.2877 1.182.2877.303 0 .58-.0426.831-.1279.252-.0852.467-.213.646-.3835.179-.1704.315-.3792.409-.6264l2.518.1662c-.128.6051-.39 1.1335-.786 1.5852-.392.4475-.899.7969-1.521 1.0483-.618.2472-1.332.3708-2.142.3708zm-91.6695 19.8082-3.7457-13.0909h3.0234l2.1669 9.0959h.1087l2.3906-9.0959h2.5888l2.3842 9.115h.1151l2.1669-9.115h3.0234l-3.7457 13.0909h-2.6975l-2.4929-8.5589h-.1022l-2.4865 8.5589zm18.3755-5.6761v5.6761h-2.723v-13.0909h2.6463v5.005h.1151c.2216-.5796.5795-1.0334 1.0739-1.3615.4943-.3324 1.1143-.4986 1.8601-.4986.6818 0 1.2762.1491 1.7833.4474.5114.2941.9077.7181 1.189 1.272.2855.5498.4261 1.2081.4218 1.9752v6.2514h-2.723v-5.7656c.0043-.6051-.1491-1.076-.4602-1.4127-.3068-.3366-.7372-.5049-1.2912-.5049-.3707 0-.6989.0788-.9844.2365-.2812.1576-.5028.3878-.6648.6903-.1576.2983-.2386.6584-.2429 1.0803zm8.5095 5.6761v-9.8182h2.723v9.8182zm1.3679-11.0838c-.4049 0-.7522-.1342-1.0419-.4027-.2856-.2727-.4283-.5987-.4283-.978 0-.375.1427-.6967.4283-.9652.2897-.2727.637-.4091 1.0419-.4091.4048 0 .75.1364 1.0355.4091.2897.2685.4346.5902.4346.9652 0 .3793-.1449.7053-.4346.978-.2855.2685-.6307.4027-1.0355.4027zm8.7587 1.2656v2.0455h-5.9127v-2.0455zm-4.5704-2.3523h2.7231v9.1535c0 .2514.0383.4474.115.588.0767.1364.1833.2323.3196.2877.1406.0554.3026.0831.4858.0831.1279 0 .2557-.0107.3835-.032.1279-.0256.2259-.0447.2941-.0575l.4282 2.0263c-.1363.0426-.3281.0916-.5752.147-.2472.0596-.5476.0958-.9013.1086-.6563.0256-1.2316-.0618-1.7259-.262-.49-.2003-.8714-.5114-1.1442-.9333-.2727-.4219-.4069-.9545-.4027-1.598zm10.7131 12.3623c-1.0099 0-1.8792-.2046-2.6079-.6137-.7245-.4133-1.2827-.9971-1.6748-1.7514-.392-.7585-.588-1.6555-.588-2.691 0-1.01.196-1.8964.588-2.6591.3921-.7628.9439-1.3573 1.6556-1.7834.7159-.4262 1.5554-.6392 2.5184-.6392.6478 0 1.2508.1044 1.809.3132.5625.2045 1.0526.5135 1.4702.9268.4218.4134.75.9333.9843 1.5597.2344.6222.3516 1.3508.3516 2.1861v.7478h-8.2905v-1.6875h5.7273c0-.392-.0852-.7393-.2557-1.0419-.1704-.3025-.4069-.539-.7095-.7095-.2983-.1747-.6456-.2621-1.0419-.2621-.4134 0-.7798.0959-1.0994.2877-.3154.1875-.5625.441-.7415.7606-.179.3154-.2706.6669-.2749 1.0547v1.6044c0 .4858.0895.9056.2685 1.2593.1832.3537.441.6264.7734.8181.3324.1918.7266.2877 1.1826.2877.3025 0 .5795-.0426.8309-.1279.2514-.0852.4666-.213.6456-.3835.179-.1704.3154-.3792.4091-.6264l2.5185.1662c-.1279.6051-.3899 1.1335-.7862 1.5852-.3921.4475-.8992.7969-1.5214 1.0483-.6178.2472-1.3316.3708-2.1413.3708zm6.2834 3.49v-13.5h2.6847v1.6492h.1214c.1193-.2642.2919-.5327.5178-.8054.2301-.277.5284-.5071.8948-.6904.3708-.1875.831-.2812 1.3807-.2812.7159 0 1.3764.1875 1.9816.5625.6051.3707 1.0887.9311 1.451 1.6811.3622.7457.5433 1.6811.5433 2.8061 0 1.0952-.1769 2.0199-.5306 2.7741-.3494.75-.8267 1.3189-1.4318 1.7067-.6008.3835-1.2741.5753-2.0199.5753-.5284 0-.9779-.0874-1.3487-.2621-.3665-.1747-.6669-.3941-.9013-.6584-.2343-.2684-.4133-.539-.5369-.8117h-.0831v5.2542zm2.6655-8.5909c0 .5838.0809 1.093.2429 1.5277.1619.4347.3963.7734.7031 1.0163.3068.2387.6797.358 1.1186.358.4432 0 .8182-.1215 1.125-.3643.3068-.2472.5391-.5881.6967-1.0228.162-.4389.2429-.9439.2429-1.5149 0-.5668-.0788-1.0653-.2365-1.4957-.1576-.4304-.3899-.7671-.6967-1.01s-.6839-.3643-1.1314-.3643c-.4432 0-.8182.1172-1.125.3515-.3025.2344-.5348.5668-.6967.9972-.162.4304-.2429.9375-.2429 1.5213zm11.5248 5.0945c-.6264 0-1.1846-.1087-1.6747-.326-.49-.2216-.8778-.5476-1.1633-.978-.2813-.4347-.4219-.9759-.4219-1.6236 0-.5454.1001-1.0035.3004-1.3743.2003-.3707.473-.669.8182-.8949.3452-.2258.7372-.3963 1.1761-.5113.4432-.1151.9077-.1961 1.3935-.2429.571-.0597 1.0313-.1151 1.3807-.1662.3494-.0554.603-.1364.7606-.2429.1577-.1066.2365-.2642.2365-.473v-.0384c0-.4048-.1278-.718-.3835-.9396-.2514-.2216-.6094-.3324-1.0738-.3324-.4901 0-.88.1087-1.1698.326-.2898.2131-.4815.4815-.5753.8054l-2.5184-.2045c.1278-.5966.3792-1.1123.7542-1.5469.375-.4389.8587-.7756 1.451-1.01.5966-.2386 1.287-.3579 2.071-.3579.5455 0 1.0675.0639 1.5661.1917.5028.1279.9481.326 1.3359.5945.3921.2685.701.6136.9269 1.0355.2258.4176.3388.9183.3388 1.5021v6.6222h-2.5824v-1.3615h-.0767c-.1577.3068-.3686.5774-.6328.8118-.2643.2301-.5817.4112-.9525.5433-.3707.1278-.799.1918-1.2848.1918zm.7799-1.8793c.4005 0 .7542-.0788 1.061-.2365.3069-.1619.5476-.3793.7223-.652.1748-.2727.2621-.5817.2621-.9268v-1.0419c-.0852.0554-.2024.1065-.3515.1534-.1449.0426-.309.0831-.4922.1214-.1833.0341-.3665.0661-.5497.0959-.1833.0256-.3495.049-.4986.0703-.3196.0469-.5987.1215-.8374.2237-.2386.1023-.424.2408-.5561.4155-.1321.1705-.1981.3835-.1981.6392 0 .3708.1342.6541.4027.8502.2727.1917.6179.2876 1.0355.2876zm6.8618 5.3757v-13.5h2.6848v1.6492h.121c.12-.2642.292-.5327.518-.8054.23-.277.528-.5071.895-.6904.371-.1875.831-.2812 1.381-.2812.716 0 1.376.1875 1.981.5625.605.3707 1.089.9311 1.451 1.6811.362.7457.544 1.6811.544 2.8061 0 1.0952-.177 2.0199-.531 2.7741-.349.75-.827 1.3189-1.432 1.7067-.601.3835-1.274.5753-2.02.5753-.528 0-.978-.0874-1.348-.2621-.367-.1747-.667-.3941-.902-.6584-.234-.2684-.413-.539-.537-.8117h-.083v5.2542zm2.6658-8.5909c0 .5838.081 1.093.243 1.5277s.396.7734.703 1.0163c.307.2387.679.358 1.118.358.444 0 .819-.1215 1.125-.3643.307-.2472.539-.5881.697-1.0228.162-.4389.243-.9439.243-1.5149 0-.5668-.079-1.0653-.237-1.4957-.157-.4304-.389-.7671-.696-1.01s-.684-.3643-1.132-.3643c-.443 0-.818.1172-1.125.3515-.302.2344-.534.5668-.696.9972s-.243.9375-.243 1.5213zm13.199 5.1009c-1.01 0-1.879-.2046-2.608-.6137-.724-.4133-1.282-.9971-1.674-1.7514-.392-.7585-.588-1.6555-.588-2.691 0-1.01.196-1.8964.588-2.6591.392-.7628.944-1.3573 1.655-1.7834.716-.4262 1.556-.6392 2.519-.6392.647 0 1.25.1044 1.809.3132.562.2045 1.052.5135 1.47.9268.422.4134.75.9333.984 1.5597.234.6222.352 1.3508.352 2.1861v.7478h-8.291v-1.6875h5.727c0-.392-.085-.7393-.255-1.0419-.171-.3025-.407-.539-.71-.7095-.298-.1747-.645-.2621-1.042-.2621-.413 0-.779.0959-1.099.2877-.315.1875-.563.441-.742.7606-.179.3154-.27.6669-.274 1.0547v1.6044c0 .4858.089.9056.268 1.2593.183.3537.441.6264.773.8181.333.1918.727.2877 1.183.2877.303 0 .58-.0426.831-.1279.251-.0852.467-.213.646-.3835.179-.1704.315-.3792.409-.6264l2.518.1662c-.128.6051-.39 1.1335-.786 1.5852-.392.4475-.899.7969-1.521 1.0483-.618.2472-1.332.3708-2.142.3708zm6.284-.1918v-9.8182h2.64v1.7131h.102c.179-.6094.479-1.0696.901-1.3807.422-.3153.908-.473 1.458-.473.136 0 .283.0085.441.0256.157.017.296.0404.415.0703v2.4162c-.128-.0384-.305-.0725-.53-.1023-.226-.0298-.433-.0448-.621-.0448-.4 0-.758.0874-1.073.2621-.311.1705-.559.4091-.742.7159-.179.3069-.268.6605-.268 1.0611v5.5547z" fill="#171717"/><g fill="#d3d2d2" mask="url(#a)"><path d="m253.311 49.0752s.097 0 0 0h.097c.096-.097 0-.097-.097 0 .097-.097 0-.097 0 0z"/><path d="m249.251 120.626.097.097.097-.097-.097-.097c-.097 0-.193.097-.097.097z"/><path d="m245.965 115.78s.099 0 0 0h.099s0-.099-.099 0c.099-.099 0-.099 0 0z"/><path d="m243.259 110.543c0 .097 0 .097 0 0h.097s-.097-.097-.097 0z"/><path d="m240.969 105.32c.052-.012.085-.064.073-.116s-.064-.085-.116-.073-.085.064-.073.116.064.085.116.073z"/><path d="m239.104 99.5883c0 .0986 0 .0986 0 0h.098s0-.0987-.098 0z"/><path d="m237.75 93.8678c0 .0986.098.0986 0 0h.098s0-.0986-.098 0z"/><path d="m236.977 88.0507c0 .0986 0 .0986 0 0h.099s0-.0987-.099 0z"/><path d="m236.687 82.2341s.098 0 0 0h.098c0-.0986 0-.0986-.098 0 0-.0986 0-.0986 0 0z"/><path d="m236.977 76.3197c0 .0987 0 .0987 0 0h.099s0-.0986-.099 0z"/><path d="m237.653 70.5984c0 .097.097.097.194.097.096 0 .096-.097.096-.1939 0-.097-.096-.097-.193-.097s-.097.097-.097.1939z"/><path d="m239.006 64.7813.097.0969.097-.0969-.097-.097c-.097 0-.097.097-.097.097z"/><path d="m240.746 59.2552c0 .0969.097.0969.193.0969.097 0 .097-.0969.097-.1939 0-.0969-.097-.0969-.193-.0969-.097 0-.097.0969-.097.1939z"/><path d="m243.066 53.8256s.097.097 0 0h.097c.096-.0969 0-.0969-.097 0 .097-.0969 0 0 0 0z"/><path d="m245.772 48.6871c0 .0969.097.0969.193.0969.097 0 .097-.0969.097-.1939 0-.0969-.097-.0969-.193-.0969-.097 0-.097.0969-.097.1939z"/><path d="m248.961 43.7425c0 .0969.097.0969.194.0969.096 0 .096-.0969.096-.1939 0-.0969-.096-.0969-.193-.0969 0 .0969-.097.0969-.097.1939z"/><path d="m252.73 39.187h.099c0-.0986 0-.0986-.099 0 0-.0986 0-.0986 0 0z"/><path d="m252.828 134.587c0 .097.096.097.193.097s.097-.097.097-.194-.097-.097-.194-.097c-.096.097-.096.097-.096.194z"/><path d="m248.671 130.418c0 .097.097.097.194.097.096 0 .096-.097.096-.194s-.096-.097-.193-.097c0 0-.097.097-.097.194z"/><path d="m244.999 125.862.097.097.096-.097-.096-.097c-.097 0-.097.097-.097.097z"/><path d="m241.52 121.111c0 .097.096.194.289.194.194 0 .194-.097.194-.291 0-.097-.097-.194-.29-.194-.193.097-.193.194-.193.291z"/><path d="m238.523 116.07c0 .097.097.194.29.194.097 0 .193-.097.193-.291 0-.097-.096-.194-.29-.194-.096.097-.193.194-.193.291z"/><path d="m236.204 111.028c.16 0 .29-.13.29-.291 0-.16-.13-.291-.29-.291s-.29.131-.29.291c0 .161.13.291.29.291z"/><path d="m233.884 105.308c0 .097.096.194.193.194s.193-.097.193-.194-.096-.194-.193-.194-.193.097-.193.194z"/><path d="m232.241 99.6844c0 .097.097.1939.29.1939.097 0 .193-.0969.193-.2908 0-.097-.096-.1939-.29-.1939-.193.0969-.29.1939-.193.2908z"/><path d="m231.213 94.0756c.104-.024.169-.1281.145-.2325s-.128-.1695-.232-.1454c-.104.024-.169.1281-.145.2325.024.1043.128.1695.232.1454z"/><path d="m230.308 88.1468c0 .097.097.1939.29.1939.097 0 .193-.0969.193-.2908 0-.097-.096-.1939-.29-.1939-.193 0-.193.1939-.193.2908z"/><path d="m229.921 82.33c0 .1939.194.2908.387.2908s.29-.1939.29-.3878-.193-.2909-.387-.2909c-.193 0-.29.194-.29.3879z"/><path d="m230.115 76.4156c.097.1939.29.3878.483.2909.194-.097.387-.2909.29-.4848-.096-.1939-.29-.3878-.483-.2909-.193.097-.387.2909-.29.4848z"/><path d="m230.791 70.5985c.097.1939.29.3878.483.2908.194-.0969.387-.2908.29-.4848-.096-.1939-.29-.3878-.483-.2908-.193.0969-.29.2908-.29.4848z"/><path d="m232.145 64.7813c0 .097.096.1939.289.1939.097 0 .194-.0969.194-.2908 0-.097-.097-.1939-.29-.1939-.193.0969-.193.1939-.193.2908z"/><path d="m233.691 59.2552c0 .1939.193.2908.29.1939.193 0 .29-.1939.193-.2909 0-.1939-.193-.2909-.386-.1939 0-.097-.097.097-.097.2909z"/><path d="m235.817 53.7286c0 .097.193.1939.29.1939.096 0 .193-.1939.193-.2909 0-.0969-.193-.1939-.29-.1939-.096 0-.193.097-.193.2909z"/><path d="m238.33 48.3961c0 .0969.193.1939.29.1939s.193-.1939.193-.2909c0-.0969-.193-.1939-.29-.1939-.096 0-.193.1939-.193.2909z"/><path d="m241.229 43.3548c0 .1939.194.2909.387.1939.193 0 .29-.1939.193-.3878 0-.1939-.193-.2909-.29-.1939-.193.0969-.29.2908-.29.3878z"/><path d="m244.709 38.5071c0 .097.097.1939.193.1939.097 0 .194-.0969.194-.1939 0-.0969-.097-.1939-.194-.1939-.193 0-.193.097-.193.1939z"/><path d="m248.478 34.0472c0 .097.097.1939.194.1939.096 0 .193-.0969.193-.1939 0-.0969-.097-.1939-.193-.1939-.194-.0969-.29.097-.194.1939z"/><path d="m252.441 29.8783c0 .0969.193.1939.29.1939s.193-.1939.193-.2909c0-.0969-.193-.1939-.29-.1939-.096 0-.193.097-.193.2909z"/><path d="m253.214 143.507c0 .097.097.097.193.097.097 0 .097-.097.097-.194s-.097-.097-.193-.097c-.097 0-.194.194-.097.194z"/><path d="m248.768 139.726c0 .097.097.097.193.097.097 0 .097-.097.097-.194s-.097-.097-.193-.097c-.097.097-.097.097-.097.194z"/><path d="m244.322 135.654c.097.291.29.388.58.388.29-.097.386-.291.386-.582-.096-.291-.289-.388-.579-.388-.29.097-.484.388-.387.582z"/><path d="m240.553 131.194c0 .194.194.291.387.291s.29-.194.29-.388-.194-.291-.387-.291-.29.194-.29.388z"/><path d="m237.267 126.443c0 .097.096.194.193.194s.193-.097.193-.194-.096-.193-.193-.193-.29.096-.193.193z"/><path d="m233.981 121.499c0 .194.193.29.29.194.193 0 .29-.194.193-.388 0-.194-.193-.291-.29-.194-.096.097-.193.194-.193.388z"/><path d="m231.178 116.36c0 .194.193.291.386.291.194 0 .29-.194.29-.388s-.193-.291-.386-.291c-.194 0-.29.194-.29.388z"/><path d="m228.858 110.931c0 .194.194.291.387.291s.29-.194.29-.388-.193-.291-.387-.291c-.193 0-.29.194-.29.388z"/><path d="m227.022 105.405c0 .097.193.194.29.194.096 0 .193-.194.193-.291s-.193-.194-.29-.194c-.193 0-.29.194-.193.291z"/><path d="m225.476 99.7811c0 .097.193.1939.29.1939.096 0 .193-.1939.193-.2909 0-.0969-.193-.1939-.29-.1939s-.193.097-.193.2909z"/><path d="m224.219 93.9639c.097.1939.29.3878.483.2909.194 0 .387-.2909.29-.4848-.096-.1939-.29-.3878-.483-.2908-.193.0969-.29.2908-.29.4847z"/><path d="m223.64 88.1471c0 .1939.193.2909.386.2909.194 0 .29-.194.29-.3879s-.193-.2908-.386-.2908c-.194.0969-.29.1939-.29.3878z"/><path d="m223.349 82.3296c.097.194.29.3879.484.2909.193-.0969.386-.2908.29-.4848-.097-.1939-.29-.3878-.484-.2908-.193 0-.386.2908-.29.4847z"/><path d="m223.35 76.5127c.096.2909.386.4848.676.3878.29-.0969.483-.3878.387-.6786-.097-.2909-.387-.4848-.677-.3878-.193 0-.386.3878-.386.6786z"/><path d="m224.026 70.6953c.097.2909.386.4848.676.3879.29-.097.484-.3879.387-.6787-.097-.2909-.387-.4848-.677-.3878-.289.0969-.386.3878-.386.6786z"/><path d="m225.283 64.8785c0 .1939.289.3878.483.2908.193-.0969.386-.2908.29-.4847-.097-.1939-.29-.3878-.484-.2909-.193 0-.386.2909-.289.4848z"/><path d="m226.635 59.2549c.097.2909.387.4848.677.3878.29-.0969.483-.3878.387-.6786-.097-.2909-.387-.4848-.677-.3879-.29 0-.483.2909-.387.6787z"/><path d="m229.052 53.9226c.213 0 .386-.1736.386-.3878s-.173-.3878-.386-.3878c-.214 0-.387.1736-.387.3878s.173.3878.387.3878z"/><path d="m230.985 48.2995c.096.2909.29.3878.58.3878.289-.0969.386-.2908.386-.5817-.097-.2909-.29-.3878-.58-.3878s-.483.2908-.386.5817z"/><path d="m233.691 43.064c.097.1939.29.3878.483.2909.193-.097.387-.2909.29-.4848s-.29-.3878-.483-.2908c-.193 0-.29.2908-.29.4847z"/><path d="m236.88 38.1195c0 .1939.194.2909.387.2909s.29-.194.29-.3879-.193-.2908-.387-.2908c-.193 0-.29.1939-.29.3878z"/><path d="m240.456 33.2716c0 .0969.097.1939.29.1939.097 0 .193-.097.193-.2909 0-.0969-.096-.1939-.29-.1939-.096.097-.193.1939-.193.2909z"/><path d="m244.226 28.9088c0 .0969.193.1939.29.1939.096 0 .193-.1939.193-.2909 0-.0969-.193-.1939-.29-.1939s-.193.097-.193.2909z"/><path d="m248.381 24.7398c0 .097.097.1939.29.1939.097 0 .194-.0969.194-.2908 0-.097-.097-.1939-.29-.1939-.097 0-.194.0969-.194.2908z"/><path d="m252.828 20.8617c0 .0969.096.1939.29.1939.096 0 .193-.097.193-.2909 0-.0969-.097-.1939-.29-.1939-.097.097-.193.1939-.193.2909z"/><path d="m253.794 152.136c0 .097.097.097.193.097.097 0 .097-.097.097-.194s-.097-.097-.193-.097c0 .097-.097.097-.097.194z"/><path d="m248.961 148.743c0 .194.194.291.29.194.194 0 .29-.194.194-.291 0-.194-.194-.291-.29-.194-.097-.097-.194.097-.194.291z"/><path d="m244.419 144.961c.096.194.29.388.483.291s.387-.291.29-.484c-.097-.194-.29-.388-.483-.291-.194 0-.387.194-.29.484z"/><path d="m239.876 140.889c.097.388.484.582.87.582.387-.097.58-.485.58-.872-.096-.388-.483-.582-.87-.582-.386.097-.58.485-.58.872z"/><path d="m236.01 136.527c.097.387.484.581.87.581.387-.097.58-.484.58-.872-.096-.388-.483-.582-.87-.582-.386.097-.676.485-.58.873z"/><path d="m232.724 131.776c.097.291.29.388.58.388s.387-.291.387-.582c-.097-.291-.29-.388-.58-.388s-.483.388-.387.582z"/><path d="m229.438 126.928c.097.291.29.485.58.388s.483-.291.387-.582c-.097-.291-.29-.484-.58-.387-.29 0-.483.29-.387.581z"/><path d="m226.636 121.79c.096.194.29.387.483.29.193-.096.386-.29.29-.484-.097-.194-.29-.388-.483-.291-.194.097-.387.291-.29.485z"/><path d="m224.219 116.554c0 .194.194.291.29.194.193 0 .29-.194.193-.291 0-.194-.193-.291-.386-.194-.097-.097-.193.097-.097.291z"/><path d="m221.803 111.125c.097.291.29.388.58.388.29-.097.387-.291.387-.582-.097-.291-.29-.388-.58-.388-.29.097-.387.291-.387.582z"/><path d="m220.16 105.502c0 .193.193.29.386.29.194 0 .29-.193.29-.387s-.193-.291-.386-.291c-.29 0-.387.194-.29.388z"/><path d="m218.71 99.7814c0 .1939.193.2906.387.2906.193 0 .289-.1937.289-.3876s-.193-.2908-.386-.2908-.29.1939-.29.3878z"/><path d="m217.55 94.0612c.097.2909.29.3878.58.3878.29-.0969.387-.2908.387-.5817-.097-.2909-.29-.3878-.58-.3878-.29.0969-.387.2908-.387.5817z"/><path d="m216.874 88.2439c.096.2909.386.4848.676.3878.29-.0969.484-.3878.387-.6786-.097-.2909-.387-.4848-.677-.3878-.29.0969-.483.3878-.386.6786z"/><path d="m216.777 82.3298c.097.2908.29.3878.58.3878.29-.097.387-.2909.387-.5817-.097-.2909-.29-.3879-.58-.3879-.29.097-.484.3879-.387.5818z"/><path d="m216.68 76.5125c.097.3878.484.6786.87.5817.387-.097.677-.4848.58-.8726s-.483-.6787-.87-.5817c-.386.0969-.676.4847-.58.8726z"/><path d="m217.067 70.7925c.097.4847.58.7756 1.16.6786.483-.0969.773-.5817.676-1.1634-.096-.5817-.58-.7756-1.16-.6787-.483.097-.773.5818-.676 1.1635z"/><path d="m218.227 64.8782c.096.3878.483.6787.87.5817.386-.097.676-.4848.579-.8726-.096-.3878-.483-.6786-.869-.5817-.387.097-.677.4848-.58.8726z"/><path d="m219.677 59.2551c.096.3878.483.6787.869.5818.387-.097.677-.4848.58-.8726-.096-.3878-.483-.6787-.87-.5817-.483 0-.676.3878-.579.8725z"/><path d="m221.32 53.6317c.097.4847.58.7756.967.6786.483-.0969.773-.5817.676-.9695-.097-.4848-.58-.7756-1.063-.6787-.387.097-.677.5818-.58.9696z"/><path d="m223.253 48.2023c.096.5817.676.8726 1.256.7757.58-.097.87-.6787.773-1.2604-.096-.5817-.676-.8726-1.256-.7756-.483.1939-.87.7756-.773 1.2603z"/><path d="m226.249 42.8701c.097.2909.387.4848.677.3879.29-.097.483-.3878.386-.6787-.096-.2909-.386-.4848-.676-.3878-.194 0-.387.3878-.387.6786z"/><path d="m229.148 37.7312c.097.2909.387.4848.677.3878.29-.0969.483-.3878.387-.6786-.097-.2909-.387-.4848-.677-.3878-.29.0969-.387.3878-.387.6786z"/><path d="m232.531 32.7868c.097.2908.29.3878.58.3878.29-.097.386-.2909.386-.5817-.096-.2909-.289-.3878-.579-.3878-.29.0969-.484.3878-.387.5817z"/><path d="m236.107 28.1331c.096.1939.29.3878.483.2909.193-.097.387-.2909.29-.4848s-.29-.3878-.483-.2909c-.194.097-.387.2909-.29.4848z"/><path d="m239.973 23.7701c.097.1939.29.3878.483.2908.194-.0969.387-.2908.29-.4847-.096-.1939-.29-.3878-.483-.2909-.193 0-.29.2909-.29.4848z"/><path d="m244.032 19.6012c.097.2909.29.3879.58.3879.29-.097.387-.2909.387-.5818-.097-.2908-.29-.3878-.58-.3878-.193.097-.387.3878-.387.5817z"/><path d="m248.671 15.8202c0 .1939.194.2908.387.2908s.29-.1939.29-.3878-.194-.2908-.387-.2908-.386.1939-.29.3878z"/><path d="m253.504 12.2328c0 .0969.096.1939.29.1939.096 0 .193-.097.193-.2909 0-.097-.097-.1939-.29-.1939-.193.0969-.29.1939-.193.2909z"/><path d="m244.902 153.784c0 .194.194.291.29.194.194 0 .29-.194.194-.291 0-.194-.194-.291-.29-.194-.097 0-.194.194-.194.291z"/><path d="m240.263 150.1c.097.291.29.388.58.388.29-.097.387-.291.387-.582-.097-.291-.29-.388-.58-.388-.29.097-.387.291-.387.582z"/><path d="m236.493 146.61c.374 0 .677-.304.677-.679s-.303-.679-.677-.679c-.373 0-.676.304-.676.679s.303.679.676.679z"/><path d="m231.758 141.762c.096.485.58.776 1.063.679s.773-.582.676-1.067c-.096-.485-.579-.775-1.063-.678-.483.097-.773.581-.676 1.066z"/><path d="m228.278 137.108c.097.388.387.582.774.485.386-.097.579-.388.483-.776-.097-.387-.387-.581-.773-.484-.29.097-.484.484-.484.775z"/><path d="m224.703 132.358c.096.484.58.775 1.159.678.484-.097.774-.582.677-1.163-.097-.485-.58-.776-1.16-.679-.483.194-.87.679-.676 1.164z"/><path d="m221.61 127.413c.096.485.58.776 1.159.679.484-.097.774-.582.677-1.164-.097-.485-.58-.775-1.16-.678-.58.096-.773.581-.676 1.163z"/><path d="m219.29 122.08c.096.291.386.485.676.388s.484-.388.387-.679c-.097-.29-.387-.484-.677-.387s-.483.387-.386.678z"/><path d="m216.874 116.748c.096.291.386.485.773.485.29-.097.483-.388.483-.776-.096-.291-.386-.485-.773-.485-.387.097-.58.388-.483.776z"/><path d="m214.747 111.222c.097.388.484.582.87.582.387-.097.58-.485.58-.873-.097-.388-.483-.582-.87-.582-.483.097-.676.485-.58.873z"/><path d="m213.201 105.599c.097.29.29.484.58.387s.483-.29.387-.581c-.097-.291-.29-.485-.58-.388-.29 0-.387.291-.387.582z"/><path d="m211.751 99.8782c.097.3878.483.5818.87.4848s.58-.4848.483-.8726c-.096-.3878-.483-.5817-.87-.4847-.386.1939-.579.4847-.483.8725z"/><path d="m210.689 94.1582c.096.3878.483.6787.966.5818.387-.097.677-.4848.58-.9696-.097-.3878-.483-.6786-.966-.5817-.387.097-.677.4848-.58.9695z"/><path d="m210.108 88.3409c.097.3878.483.6786.967.5817.386-.097.676-.4848.579-.9695-.096-.3879-.483-.6787-.966-.5818-.387.097-.677.4848-.58.9696z"/><path d="m209.915 82.4267c.096.4847.58.6786.966.5817.483-.097.677-.5817.58-.9696-.097-.4847-.58-.6787-.966-.5817-.387.097-.677.5817-.58.9696z"/><path d="m209.818 76.6097c.097.5817.677.9695 1.257.7756.579-.097.966-.6787.773-1.2604-.097-.5817-.677-.9695-1.257-.7756-.58.0969-.87.6786-.773 1.2604z"/><path d="m210.205 70.7925c.193.6787.773 1.0665 1.45.9695.676-.1939 1.063-.7756.966-1.4542-.193-.6787-.773-1.0665-1.449-.9696-.677.1939-1.16.7756-.967 1.4543z"/><path d="m211.365 64.975c.096.5818.676.8726 1.256.7757.58-.097.87-.6787.773-1.2604-.096-.5817-.676-.8726-1.256-.7756-.58.1939-.967.6786-.773 1.2603z"/><path d="m212.138 59.3519c.193.7756.967 1.3573 1.836 1.1634.774-.1939 1.353-.9695 1.16-1.8421-.193-.7756-.966-1.3574-1.836-1.1635-.773.194-1.353 1.0665-1.16 1.8422z"/><path d="m213.974 53.7286c.193.6787.87 1.1635 1.547.9696.676-.1939 1.159-.8726.966-1.5513s-.87-1.1634-1.546-.9695c-.677.0969-1.063.7756-.967 1.5512z"/><path d="m216.004 48.2024c.193.7756.87 1.1634 1.643 1.0665.773-.1939 1.16-.8726 1.063-1.6482-.193-.7757-.87-1.1635-1.643-1.0665-.773.1939-1.256.8726-1.063 1.6482z"/><path d="m218.517 42.773c.193.6787.773 1.0665 1.45.8726.676-.1939 1.063-.7756.87-1.4543-.194-.6787-.774-1.0665-1.45-.8726-.677.1939-1.063.7756-.87 1.4543z"/><path d="m221.126 37.6346c.194.6787.87 1.0665 1.547.9695.676-.1939 1.063-.8726.966-1.5512-.193-.6787-.87-1.0665-1.546-.9696-.677.194-1.16.8726-.967 1.5513z"/><path d="m224.606 32.4957c.096.4848.58.6787.966.5817.483-.0969.677-.5817.58-.9695-.097-.4848-.58-.6787-.966-.5817-.484.0969-.677.4848-.58.9695z"/><path d="m227.989 27.6485c.096.3878.483.5817.87.4848.386-.097.58-.4848.483-.8726s-.483-.5817-.87-.4848c-.29.097-.483.4848-.483.8726z"/><path d="m231.661 22.9949c.097.3879.483.5818.87.4848.387-.0969.58-.4848.483-.8726-.096-.3878-.483-.5817-.87-.4847-.29.1939-.58.4847-.483.8725z"/><path d="m235.72 18.6318c.097.2909.387.4848.774.4848.29-.097.483-.3878.483-.7756s-.387-.4848-.773-.4848c-.387.097-.58.4848-.484.7756z"/><path d="m239.973 14.56c.097.2908.29.3878.58.3878.29-.097.387-.2909.387-.5817-.097-.2909-.29-.3878-.58-.3878s-.387.2908-.387.5817z"/><path d="m244.419 10.6817c.096.2908.386.4847.676.3878.29-.097.483-.3878.387-.6787-.097-.2908-.387-.48475-.677-.3878-.29.097-.483.3878-.386.6787z"/><path d="m249.058 7.19119c.097.29086.387.48477.677.38782.29-.09696.483-.38782.386-.67867-.096-.29086-.386-.48477-.676-.38782-.29.09696-.483.38782-.387.67867z"/><path d="m253.891 3.99174c.096.29085.386.48476.676.38781s.483-.38781.387-.67867c-.097-.29086-.387-.48477-.677-.38782-.193.09696-.386.38782-.386.67868z"/><path d="m231.661 151.263c.097.485.58.679.967.582.483-.097.676-.582.58-.97-.097-.387-.58-.678-.967-.581-.386.097-.676.484-.58.969z"/><path d="m227.215 146.998c.194.678.774 1.066 1.45.969.677-.194 1.063-.776.967-1.454-.194-.679-.774-1.067-1.45-.97-.677.194-1.063.776-.967 1.455z"/><path d="m224.703 143.313c.587 0 1.063-.477 1.063-1.066s-.476-1.067-1.063-1.067-1.063.478-1.063 1.067.476 1.066 1.063 1.066z"/><path d="m220.353 137.69c.097.485.58.776 1.16.679s.773-.582.677-1.164c-.097-.484-.58-.775-1.16-.678-.483.194-.773.678-.677 1.163z"/><path d="m217.164 132.745c.097.485.58.776 1.16.679.483-.097.773-.582.676-1.164-.096-.484-.58-.775-1.159-.678-.387.194-.774.678-.677 1.163z"/><path d="m214.361 127.607c.096.485.58.775 1.16.678.483-.096.773-.581.676-1.163-.097-.485-.58-.776-1.16-.679-.483.194-.773.679-.676 1.164z"/><path d="m211.945 122.274c.096.388.483.679.869.582.387-.097.677-.485.58-.872-.096-.388-.483-.679-.87-.582-.386.097-.676.485-.579.872z"/><path d="m209.818 116.845c.097.388.483.582.87.582.387-.097.58-.485.58-.873-.097-.388-.483-.582-.87-.582-.483.097-.677.485-.58.873z"/><path d="m207.789 111.319c.096.388.483.679.966.582.387-.097.677-.485.58-.97-.097-.388-.483-.679-.966-.582-.387.194-.677.582-.58.97z"/><path d="m206.146 105.695c.097.485.58.776 1.063.679s.773-.582.677-1.066c-.097-.485-.58-.776-1.063-.679-.484.194-.774.582-.677 1.066z"/><path d="m204.696 100.072c.097.582.773.97 1.353.873s.967-.776.87-1.3576c-.097-.5817-.773-.9696-1.353-.8726s-.967.6787-.87 1.3572z"/><path d="m203.826 94.255c.097.5817.773.9695 1.353.8726.58-.097.967-.7756.87-1.3574-.096-.5817-.773-.9695-1.353-.8725-.676.0969-.966.7756-.87 1.3573z"/><path d="m203.15 88.4378c.193.6787.773 1.0665 1.449.8726.677-.1939 1.063-.7756.87-1.4543s-.773-1.0665-1.45-.8726c-.579.097-.966.7756-.869 1.4543z"/><path d="m202.86 82.5238c.193.6787.87 1.1634 1.643.9695.676-.1939 1.16-.8725.966-1.6482-.193-.6786-.869-1.1634-1.643-.9695-.676.2909-1.159.9695-.966 1.6482z"/><path d="m203.053 76.7067c.194.6786.87 1.1634 1.643.9695.677-.1939 1.16-.8726.967-1.6482-.194-.6787-.87-1.1634-1.643-.9695-.677.1939-1.16.8725-.967 1.6482z"/><path d="m203.343 70.8894c.193.7757.967 1.3574 1.836 1.1635.774-.1939 1.354-.9695 1.16-1.8421-.193-.7756-.966-1.3574-1.836-1.1635-.773.194-1.353 1.0665-1.16 1.8421z"/><path d="m204.309 65.0723c.194.7757.967 1.2604 1.74 1.0665s1.256-.9695 1.063-1.7451c-.193-.7757-.966-1.2604-1.74-1.0665-.773.1939-1.256.9695-1.063 1.7451z"/><path d="m205.276 59.3517c.193.8726 1.16 1.4543 2.03 1.2604s1.449-1.1634 1.256-2.036-1.16-1.4543-2.03-1.2604c-.869.2908-1.449 1.1634-1.256 2.036z"/><path d="m207.015 53.7288c.194.7756.967 1.3573 1.837 1.1634.773-.1939 1.353-.9695 1.16-1.8421-.194-.7756-.967-1.3573-1.837-1.1634s-1.353.9695-1.16 1.8421z"/><path d="m208.755 48.1055c.194.8726 1.063 1.4543 1.933 1.1635.87-.1939 1.45-1.0665 1.16-1.9391-.193-.8726-1.063-1.4543-1.933-1.1634-.773.2908-1.353 1.1634-1.16 1.939z"/><path d="m212.524 43.8395c.801 0 1.45-.6511 1.45-1.4543s-.649-1.4543-1.45-1.4543c-.8 0-1.449.6511-1.449 1.4543s.649 1.4543 1.449 1.4543z"/><path d="m213.395 37.4409c.193.9695 1.159 1.5512 2.126 1.3573.966-.1939 1.546-1.1634 1.353-2.133-.193-.9695-1.16-1.5512-2.126-1.3573-1.063.2909-1.643 1.1634-1.353 2.133z"/><path d="m216.39 32.3021c.194.8725 1.064 1.4543 1.933 1.1634.87-.1939 1.45-1.0665 1.16-1.939-.193-.8726-1.063-1.4543-1.933-1.1635-.87.1939-1.45 1.0665-1.16 1.9391z"/><path d="m219.483 27.3572c.194.8726 1.063 1.4543 1.933 1.1635.87-.1939 1.45-1.0665 1.16-1.9391-.193-.8725-1.063-1.4543-1.933-1.1634-.773.1939-1.353 1.0665-1.16 1.939z"/><path d="m223.349 22.5099c.097.5817.773.9695 1.353.8726.58-.097.967-.7757.87-1.3574-.096-.5817-.773-.9695-1.353-.8726-.58.097-.966.6787-.87 1.3574z"/><path d="m227.312 17.8561c.097.4847.58.7756 1.16.6786.58-.0969.773-.5817.676-1.1634-.096-.4847-.579-.7756-1.159-.6787-.58.097-.87.6787-.677 1.1635z"/><path d="m232.368 14.3482c.52-.1202.845-.6406.725-1.1624s-.639-.8474-1.159-.7272-.845.6407-.725 1.1625.639.8473 1.159.7271z"/><path d="m235.431 9.51824c.096.58176.676.87256 1.159.77566.58-.097.87-.67871.774-1.16348-.097-.58172-.677-.87257-1.16-.77562-.58.09695-.967.67867-.773 1.16344z"/><path d="m239.973 5.73689c.097.48476.58.77562.967.67867.483-.09695.773-.58172.676-.96953-.097-.48477-.58-.77563-.966-.67867-.484 0-.774.48476-.677.96953z"/><path d="m244.806 2.14972c.096.38782.483.58172.869.48477.387-.09696.58-.48476.484-.87258-.097-.38781-.484-.58171-.87-.48476-.29.09695-.58.48476-.483.87257z"/><path d="m223.156 152.233c.193.678.773 1.066 1.45.969.677-.194 1.063-.775.966-1.454-.193-.679-.773-1.067-1.449-.97-.774.097-1.16.776-.967 1.455z"/><path d="m219.097 147.773c.193.776.966 1.357 1.836 1.163.773-.193 1.353-.969 1.16-1.842-.194-.775-.967-1.357-1.837-1.163-.87.291-1.353 1.066-1.159 1.842z"/><path d="m215.811 143.023c.193.678.869 1.066 1.546.969.676-.194 1.063-.873.966-1.551-.193-.679-.869-1.067-1.546-.97-.677.194-1.16.873-.966 1.552z"/><path d="m212.621 138.175c.097.581.773.969 1.353.872s.967-.775.87-1.357c-.096-.582-.773-.97-1.353-.873s-.966.776-.87 1.358z"/><path d="m209.528 133.133c.194.679.774 1.067 1.45.97.677-.194 1.063-.776.967-1.454-.194-.679-.774-1.067-1.45-.97-.677.097-1.063.776-.967 1.454z"/><path d="m206.726 127.995c.193.678.869 1.163 1.643.969.676-.194 1.159-.873.966-1.648-.193-.679-.87-1.164-1.643-.97-.676.194-1.063.873-.966 1.649z"/><path d="m204.406 122.566c.193.678.87 1.066 1.546.969.677-.194 1.063-.873.967-1.551-.194-.679-.87-1.067-1.547-.97-.676.194-1.063.873-.966 1.552z"/><path d="m203.82 118.09c.676-.156 1.098-.833.942-1.511s-.83-1.101-1.506-.945c-.677.156-1.098.833-.943 1.511.156.678.831 1.102 1.507.945z"/><path d="m200.347 111.61c.193.775.966 1.26 1.74 1.066.773-.194 1.256-.969 1.063-1.745-.194-.776-.967-1.26-1.74-1.066-.773.096-1.256.872-1.063 1.745z"/><path d="m198.897 105.889c.193.776.967 1.261 1.74 1.067s1.256-.97 1.063-1.745c-.193-.776-.967-1.261-1.74-1.067s-1.256.97-1.063 1.745z"/><path d="m197.64 100.169c.194.873 1.064 1.358 1.837 1.164.87-.194 1.353-1.067 1.16-1.8425-.194-.8725-1.064-1.3573-1.837-1.1634s-1.353.9695-1.16 1.8419z"/><path d="m196.867 94.3519c.193.7756.967 1.3573 1.836 1.1634.774-.1939 1.353-.9695 1.16-1.8421-.193-.7756-.966-1.3574-1.836-1.1634-.87.1939-1.353.9695-1.16 1.8421z"/><path d="m196.191 88.535c.193.8726 1.16 1.4544 2.03 1.2604.87-.1939 1.449-1.1634 1.256-2.036s-1.16-1.4543-2.03-1.2604c-.869.1939-1.449 1.1635-1.256 2.036z"/><path d="m196.094 82.6206c.193.8726 1.063 1.3574 1.933 1.1635s1.353-1.0665 1.16-1.9391c-.193-.8725-1.063-1.3573-1.933-1.1634-.773.2909-1.353 1.0665-1.16 1.939z"/><path d="m196.191 76.8036c.193.8725 1.063 1.4543 1.933 1.2604.87-.194 1.45-1.0665 1.256-1.9391-.193-.8726-1.063-1.4543-1.932-1.2604-.87.1939-1.45 1.0665-1.257 1.9391z"/><path d="m196.771 70.8895c.193.8725 1.063 1.3573 1.933 1.1634s1.353-1.0665 1.16-1.9391c-.194-.8725-1.064-1.3573-1.933-1.1634-.87.2909-1.353 1.1634-1.16 1.9391z"/><path d="m197.544 65.0723c.194.8726 1.063 1.3574 1.933 1.1634.87-.1939 1.353-1.0664 1.16-1.939s-1.063-1.3573-1.933-1.1634c-.773.2908-1.353 1.1634-1.16 1.939z"/><path d="m198.607 59.3517c.193.8726 1.16 1.4543 2.03 1.2604s1.45-1.1634 1.256-2.036c-.193-.8726-1.16-1.4543-2.029-1.2604-.967.1939-1.547 1.1634-1.257 2.036z"/><path d="m200.057 53.7287c.193.8725 1.16 1.4542 2.029 1.2603.87-.1939 1.45-1.1634 1.257-2.036-.193-.8725-1.16-1.4543-2.03-1.2604-.966.1939-1.546 1.0665-1.256 2.0361z"/><path d="m201.7 48.1052c.193.9695 1.16 1.5512 2.223 1.3573s1.546-1.1634 1.353-2.2299c-.193-.9695-1.16-1.5512-2.223-1.3573s-1.643 1.2604-1.353 2.2299z"/><path d="m203.923 42.5789c.193.8726 1.063 1.4543 1.933 1.1634.87-.1939 1.449-1.0664 1.16-1.939-.194-.8726-1.064-1.4543-1.933-1.1634-.774.1939-1.354 1.0664-1.16 1.939z"/><path d="m206.242 37.2467c.194.8726 1.16 1.4543 2.03 1.2604s1.45-1.1634 1.256-2.036c-.193-.8726-1.159-1.4543-2.029-1.2604s-1.45 1.1634-1.257 2.036z"/><path d="m210.592 33.4657c1.014 0 1.836-.8247 1.836-1.8421s-.822-1.8421-1.836-1.8421-1.837.8247-1.837 1.8421.823 1.8421 1.837 1.8421z"/><path d="m211.751 26.9697c.194.9696 1.257 1.6482 2.223 1.3574.967-.1939 1.643-1.2604 1.353-2.2299-.193-.9696-1.256-1.6482-2.223-1.3574-.966.2909-1.643 1.2604-1.353 2.2299z"/><path d="m215.037 22.122c.194.9696 1.16 1.5513 2.127 1.3574.966-.1939 1.546-1.1635 1.353-2.133s-1.16-1.5512-2.126-1.3573c-.967.1939-1.643 1.1634-1.354 2.1329z"/><path d="m218.807 17.3714c.193.8725 1.063 1.3573 1.836 1.1634.87-.1939 1.353-1.0665 1.16-1.8421-.193-.8726-1.063-1.3573-1.836-1.1634-.87.1939-1.353.9695-1.16 1.8421z"/><path d="m222.576 12.8145c.194.8726 1.064 1.3573 1.837 1.1634.87-.1939 1.353-1.0665 1.16-1.8421-.194-.8726-1.064-1.3573-1.837-1.1634-.87.1939-1.353 1.0665-1.16 1.8421z"/><path d="m226.539 8.54863c.193.77562.966 1.35734 1.836 1.16343.773-.1939 1.353-.96953 1.16-1.8421-.193-.77562-.966-1.35734-1.836-1.16343-.773.1939-1.353 1.06648-1.16 1.8421z"/><path d="m231.178 4.47668c.097.58171.773.96952 1.353.87257s.966-.77562.87-1.35734c-.097-.58171-.773-.96952-1.353-.87257s-.967.77562-.87 1.35734z"/><path d="m235.624.69537c.193.67867.773 1.06648 1.45.87258.676-.19391 1.063-.775625.87-1.454296-.194-.67867-.774-1.066483-1.45-.872577-.677.096953-1.063.7756231-.87 1.454293z"/><path d="m214.747 153.106c.194.969 1.16 1.454 2.03 1.26.966-.194 1.546-1.164 1.256-2.036-.193-.97-1.159-1.454-2.029-1.261-.967.194-1.547 1.067-1.257 2.037z"/><path d="m211.075 148.452c.193.969 1.16 1.551 2.029 1.26.967-.194 1.45-1.163 1.257-2.036-.193-.969-1.16-1.454-2.03-1.26s-1.449 1.066-1.256 2.036z"/><path d="m207.789 143.604c.193.97 1.16 1.551 2.126 1.26.967-.193 1.546-1.163 1.256-2.132-.193-.97-1.159-1.552-2.126-1.261-.966.291-1.546 1.261-1.256 2.133z"/><path d="m204.406 138.756c.29 1.067 1.257 1.746 2.32 1.455s1.739-1.261 1.449-2.327c-.29-1.067-1.256-1.745-2.319-1.454-.967.194-1.643 1.26-1.45 2.326z"/><path d="m201.7 133.521c.193.97 1.256 1.648 2.223 1.357.966-.194 1.643-1.26 1.353-2.23-.194-.969-1.257-1.648-2.223-1.357-.967.291-1.547 1.26-1.353 2.23z"/><path d="m199.284 128.285c.193.97 1.16 1.552 2.126 1.261.967-.194 1.547-1.164 1.257-2.133-.194-.97-1.16-1.551-2.127-1.26-.87.193-1.449 1.163-1.256 2.132z"/><path d="m197.254 122.759c.193.776.966 1.358 1.836 1.164.773-.194 1.353-.97 1.16-1.842-.193-.776-.967-1.358-1.836-1.164-.87.194-1.354 1.067-1.16 1.842z"/><path d="m195.031 117.33c.193.969 1.16 1.454 2.03 1.26.966-.194 1.449-1.163 1.256-2.036-.193-.969-1.16-1.551-2.03-1.26-.87.194-1.449 1.066-1.256 2.036z"/><path d="m193.291 111.707c.194.969 1.16 1.551 2.127 1.357.966-.194 1.546-1.164 1.353-2.133-.193-.97-1.16-1.551-2.126-1.357-.967.193-1.547 1.163-1.354 2.133z"/><path d="m191.938 105.986c.194.97 1.16 1.552 2.127 1.358.966-.194 1.546-1.164 1.353-2.133-.194-.97-1.16-1.552-2.127-1.358-.966.194-1.643 1.164-1.353 2.133z"/><path d="m190.682 100.266c.193 1.066 1.256 1.648 2.223 1.454 1.063-.194 1.643-1.26 1.45-2.2297-.194-1.0665-1.257-1.6482-2.223-1.4543-.967.1939-1.643 1.1634-1.45 2.23z"/><path d="m190.198 94.3519c.194.8726 1.063 1.4543 1.933 1.2604s1.45-1.0665 1.257-1.9391c-.194-.8725-1.063-1.4543-1.933-1.2603-.967.1939-1.45 1.0664-1.257 1.939z"/><path d="m189.715 88.5348c.193.8726 1.063 1.4543 1.933 1.2604s1.45-1.0665 1.256-1.9391c-.193-.8726-1.063-1.4543-1.933-1.2604-.869.1939-1.449 1.0665-1.256 1.9391z"/><path d="m189.425 82.7175c.194.9695 1.16 1.5512 2.127 1.3573.966-.1939 1.546-1.1634 1.353-2.133-.193-.9695-1.16-1.5512-2.126-1.3573-1.064.1939-1.643 1.1634-1.354 2.133z"/><path d="m189.329 76.9004c.29 1.0665 1.353 1.7452 2.416 1.5513 1.063-.2909 1.74-1.3574 1.546-2.4238-.29-1.0665-1.353-1.7452-2.416-1.5513-1.16.1939-1.836 1.3574-1.546 2.4238z"/><path d="m189.909 70.9863c.193 1.0665 1.256 1.6482 2.223 1.4543.966-.1939 1.643-1.2604 1.45-2.2299-.194-1.0665-1.257-1.6482-2.223-1.4543-.967.1939-1.74 1.2604-1.45 2.2299z"/><path d="m190.682 65.1692c.193.9695 1.256 1.6482 2.223 1.3573.966-.2908 1.643-1.2604 1.353-2.2299-.194-.9695-1.257-1.6482-2.223-1.3573-.967.2908-1.547 1.2604-1.353 2.2299z"/><path d="m191.745 59.449c.193.9695 1.256 1.6482 2.223 1.3573.966-.1939 1.643-1.2604 1.353-2.2299-.193-.9695-1.256-1.6482-2.223-1.3573-.966.1939-1.546 1.1634-1.353 2.2299z"/><path d="m193.195 53.7287c.193.9695 1.159 1.5513 2.126 1.3574.966-.194 1.546-1.1635 1.353-2.133s-1.16-1.5513-2.126-1.3574c-.967.194-1.643 1.1635-1.353 2.133z"/><path d="m194.548 48.1055c.29 1.1635 1.353 1.8421 2.513 1.5513 1.159-.2909 1.836-1.3574 1.546-2.5208s-1.353-1.8421-2.513-1.5512c-1.063.2908-1.836 1.4542-1.546 2.5207z"/><path d="m196.674 42.579c.29 1.0665 1.257 1.7452 2.32 1.4543s1.74-1.2604 1.45-2.3269-1.257-1.7451-2.32-1.4543c-1.063.1939-1.74 1.2604-1.45 2.3269z"/><path d="m198.897 37.1498c.29 1.0665 1.256 1.7451 2.32 1.4543 1.063-.2909 1.739-1.2604 1.449-2.3269s-1.256-1.7451-2.319-1.4543c-1.063.1939-1.74 1.2604-1.45 2.3269z"/><path d="m201.603 31.8173c.194.9695 1.16 1.5513 2.127 1.3574.966-.194 1.546-1.1635 1.353-2.133s-1.16-1.5512-2.126-1.3573c-.967.1939-1.547 1.1634-1.354 2.1329z"/><path d="m204.309 26.679c.194.9695 1.257 1.6481 2.223 1.3573.967-.1939 1.643-1.2604 1.353-2.2299-.193-.9695-1.256-1.6482-2.222-1.3574-.967.1939-1.644 1.2604-1.354 2.23z"/><path d="m207.402 21.6372c.193.9695 1.257 1.6482 2.223 1.3574.967-.2909 1.643-1.2604 1.353-2.23-.193-.9695-1.256-1.6482-2.223-1.3573-.966.2909-1.643 1.2604-1.353 2.2299z"/><path d="m210.881 16.7897c.194.8726 1.064 1.4543 2.03 1.2604.87-.1939 1.45-1.0665 1.257-2.036-.194-.8726-1.064-1.4543-2.03-1.2604-.87.2908-1.45 1.1634-1.257 2.036z"/><path d="m214.264 12.2329c.193.9695 1.257 1.6482 2.223 1.3574.967-.2909 1.643-1.2604 1.353-2.23-.193-.9695-1.256-1.64816-2.223-1.3573-.966.2909-1.546 1.1634-1.353 2.2299z"/><path d="m218.324 7.6761c.193.87258 1.063 1.4543 1.933 1.16344.869-.19391 1.449-1.06649 1.159-1.93906-.193-.87258-1.063-1.4543-1.933-1.16344-.773.1939-1.353 1.06648-1.159 1.93906z"/><path d="m222.576 3.41019c.194.77562.967 1.26038 1.643 1.06648.774-.19391 1.257-.96953 1.063-1.6482-.193-.77562-.966-1.26038-1.643-1.06647-.773.09695-1.256.87257-1.063 1.64819z"/><path d="m226.829-.564907c.193.775621.966 1.260386 1.643 1.066481.773-.193906 1.256-.969527 1.063-1.648194-.193-.77562-.967-1.26039-1.643-1.06648-.773.09695-1.257.87257-1.063 1.648193z"/><path d="m206.919 153.687c.193.97 1.159 1.552 2.126 1.261.966-.194 1.546-1.164 1.256-2.133-.193-.97-1.159-1.551-2.126-1.261-.966.291-1.546 1.261-1.256 2.133z"/><path d="m203.343 149.034c.193.969 1.257 1.648 2.223 1.357.967-.194 1.643-1.26 1.353-2.23-.193-.969-1.256-1.648-2.223-1.357-.966.194-1.643 1.163-1.353 2.23z"/><path d="m200.057 144.089c.29 1.066 1.257 1.745 2.32 1.454s1.739-1.26 1.449-2.327c-.29-1.066-1.256-1.745-2.319-1.454-1.063.194-1.74 1.26-1.45 2.327z"/><path d="m197.061 139.047c.29 1.067 1.353 1.843 2.513 1.552 1.063-.291 1.836-1.358 1.546-2.521-.29-1.067-1.353-1.842-2.513-1.551-1.159.291-1.836 1.357-1.546 2.52z"/><path d="m194.355 133.812c.29 1.163 1.353 1.842 2.512 1.551 1.16-.291 1.837-1.358 1.547-2.521s-1.353-1.842-2.513-1.551-1.836 1.454-1.546 2.521z"/><path d="m192.132 128.479c.193 1.067 1.256 1.649 2.223 1.455 1.063-.194 1.643-1.261 1.449-2.23-.193-1.067-1.256-1.648-2.222-1.454-1.064.193-1.74 1.163-1.45 2.229z"/><path d="m189.908 122.953c.194 1.067 1.257 1.649 2.32 1.455s1.643-1.261 1.45-2.327c-.194-1.067-1.257-1.648-2.32-1.454-1.063.29-1.643 1.357-1.45 2.326z"/><path d="m187.975 117.427c.29 1.066 1.257 1.745 2.32 1.454s1.74-1.26 1.45-2.327c-.29-1.066-1.257-1.745-2.32-1.454-.966.194-1.643 1.26-1.45 2.327z"/><path d="m186.526 111.803c.193.97 1.256 1.649 2.223 1.358.966-.194 1.643-1.261 1.353-2.23-.194-.97-1.257-1.648-2.223-1.357-.967.193-1.643 1.163-1.353 2.229z"/><path d="m184.979 106.083c.29 1.067 1.353 1.842 2.513 1.552 1.063-.291 1.837-1.358 1.547-2.521-.29-1.067-1.353-1.842-2.513-1.551-1.063.29-1.837 1.454-1.547 2.52z"/><path d="m184.11 100.266c.193 1.067 1.256 1.648 2.319 1.454 1.064-.193 1.643-1.26 1.45-2.3264-.193-1.0665-1.256-1.6482-2.319-1.4543-1.064.2908-1.74 1.3573-1.45 2.3267z"/><path d="m183.337 94.449c.193 1.0665 1.256 1.6482 2.319 1.4543s1.643-1.2604 1.45-2.3269c-.193-1.0664-1.256-1.6482-2.32-1.4542-1.063.2908-1.643 1.2603-1.449 2.3268z"/><path d="m182.95 88.6316c.193.9695 1.256 1.6482 2.223 1.3573.966-.1939 1.643-1.2604 1.353-2.2299-.194-.9695-1.257-1.6482-2.223-1.3573-.967.1939-1.547 1.1634-1.353 2.2299z"/><path d="m182.66 82.7178c.29 1.0665 1.353 1.7452 2.416 1.5513 1.063-.2909 1.74-1.3573 1.546-2.4238-.29-1.0665-1.353-1.7452-2.416-1.5513-1.16.2909-1.836 1.3574-1.546 2.4238z"/><path d="m182.853 76.9005c.29 1.0665 1.353 1.7452 2.416 1.4543 1.063-.2908 1.74-1.3573 1.45-2.4238s-1.353-1.7451-2.416-1.4543c-1.063.2909-1.74 1.3574-1.45 2.4238z"/><path d="m183.143 71.0834c.29 1.0664 1.353 1.8421 2.513 1.5512 1.063-.2909 1.836-1.3573 1.547-2.5208-.29-1.0664-1.354-1.8421-2.513-1.5512-1.063.2909-1.74 1.3573-1.547 2.5208z"/><path d="m183.917 65.266c.29 1.0665 1.353 1.8421 2.512 1.5512 1.064-.2908 1.837-1.3573 1.547-2.5207-.29-1.0665-1.353-1.8421-2.513-1.5513-1.16.2909-1.836 1.3574-1.546 2.5208z"/><path d="m184.883 59.449c.29 1.1635 1.353 1.8421 2.513 1.5513 1.16-.2909 1.836-1.3574 1.546-2.5208s-1.353-1.8421-2.513-1.5512c-1.16.2908-1.836 1.3573-1.546 2.5207z"/><path d="m186.236 53.7287c.29 1.0665 1.353 1.7451 2.416 1.4543 1.063-.2909 1.74-1.3574 1.45-2.4238-.29-1.0665-1.353-1.7452-2.416-1.4543-1.064.2908-1.74 1.3573-1.45 2.4238z"/><path d="m187.686 48.1055c.29 1.1635 1.353 1.8421 2.513 1.5513 1.159-.2909 1.836-1.3574 1.546-2.5208s-1.353-1.8421-2.513-1.5512c-1.063.1939-1.74 1.3573-1.546 2.5207z"/><path d="m189.522 42.4821c.29 1.1635 1.45 1.8422 2.513 1.5513 1.16-.2909 1.836-1.4543 1.643-2.5208-.29-1.1634-1.45-1.8421-2.513-1.6482-1.16.3878-1.933 1.5513-1.643 2.6177z"/><path d="m191.745 37.0529c.29 1.0665 1.353 1.7452 2.416 1.4543s1.74-1.3573 1.45-2.4238-1.353-1.7452-2.416-1.4543c-.967.1939-1.643 1.3573-1.45 2.4238z"/><path d="m194.258 31.6236c.193 1.0665 1.256 1.6482 2.319 1.4543 1.064-.1939 1.643-1.2604 1.45-2.3269s-1.256-1.6482-2.319-1.4543c-1.064.2909-1.74 1.3573-1.45 2.3269z"/><path d="m196.867 26.3881c.29 1.0665 1.353 1.7451 2.416 1.5512 1.064-.2908 1.74-1.3573 1.45-2.4238s-1.353-1.7452-2.416-1.4543c-1.063.1939-1.74 1.2604-1.45 2.3269z"/><path d="m199.864 21.3464c.193.9696 1.256 1.6482 2.223 1.3574.966-.1939 1.643-1.2604 1.353-2.2299-.193-.9696-1.257-1.6482-2.223-1.3574-.87.1939-1.547 1.1635-1.353 2.2299z"/><path d="m203.053 16.4016c.193.9695 1.257 1.6482 2.223 1.3574.967-.194 1.643-1.2604 1.353-2.23-.193-.9695-1.256-1.6482-2.223-1.3573-.966.1939-1.546 1.1634-1.353 2.2299z"/><path d="m206.339 11.6513c.29 1.0664 1.257 1.7451 2.32 1.4543 1.063-.2909 1.739-1.2604 1.45-2.3269-.29-1.0665-1.257-1.74517-2.32-1.45431-.967.1939-1.643 1.26041-1.45 2.32691z"/><path d="m209.915 7.09453c.29 1.06648 1.353 1.74514 2.416 1.55124 1.063-.29086 1.74-1.35734 1.546-2.42382-.29-1.06648-1.353-1.74514-2.416-1.55124-1.063.19391-1.74 1.26039-1.546 2.42382z"/><path d="m213.781 2.63433c.29 1.06648 1.353 1.74515 2.416 1.55124 1.063-.29085 1.74-1.35734 1.547-2.42382-.29-1.066478-1.354-1.7451501-2.417-1.551244-1.063.290858-1.739 1.357344-1.546 2.423824z"/><path d="m199.38 154.172c.194.776.967 1.357 1.837 1.163.773-.194 1.353-.969 1.159-1.842-.193-.775-.966-1.357-1.836-1.163-.773.291-1.353 1.066-1.16 1.842z"/><path d="m197.641 150.876c1.014 0 1.836-.825 1.836-1.842 0-1.018-.822-1.843-1.836-1.843-1.015 0-1.837.825-1.837 1.843 0 1.017.822 1.842 1.837 1.842z"/><path d="m192.808 144.38c.193.969 1.16 1.551 2.126 1.357.967-.194 1.547-1.163 1.353-2.133-.193-.969-1.159-1.551-2.126-1.357-.966.194-1.546 1.163-1.353 2.133z"/><path d="m190.005 139.241c.194.97 1.257 1.648 2.223 1.358.967-.194 1.643-1.261 1.353-2.23-.193-.97-1.256-1.649-2.223-1.358-.966.291-1.643 1.261-1.353 2.23z"/><path d="m187.396 134.006c.193.969 1.256 1.648 2.223 1.357.966-.194 1.643-1.26 1.353-2.23-.29-.969-1.256-1.648-2.223-1.357-.966.194-1.546 1.163-1.353 2.23z"/><path d="m185.076 128.576c.193 1.067 1.256 1.649 2.319 1.455 1.064-.194 1.644-1.261 1.45-2.327-.193-1.067-1.256-1.648-2.319-1.454-1.064.29-1.643 1.26-1.45 2.326z"/><path d="m182.95 123.147c.29 1.067 1.353 1.745 2.416 1.552 1.063-.291 1.74-1.358 1.546-2.424-.29-1.067-1.353-1.745-2.416-1.552-1.16.194-1.836 1.261-1.546 2.424z"/><path d="m180.92 117.524c.29 1.163 1.45 1.939 2.706 1.648 1.16-.291 1.933-1.454 1.643-2.714-.29-1.164-1.449-1.939-2.706-1.649-1.16.388-1.933 1.552-1.643 2.715z"/><path d="m179.47 111.9c.29 1.164 1.45 1.94 2.61 1.649s1.933-1.455 1.643-2.618-1.45-1.939-2.61-1.648c-1.159.194-1.933 1.454-1.643 2.617z"/><path d="m178.311 106.083c.29 1.164 1.353 1.842 2.513 1.552 1.16-.291 1.836-1.358 1.546-2.521-.29-1.164-1.353-1.842-2.513-1.551-1.063.29-1.836 1.454-1.546 2.52z"/><path d="m179.374 101.43c.854 0 1.546-.695 1.546-1.5516 0-.8567-.692-1.5513-1.546-1.5513-.855 0-1.547.6946-1.547 1.5513 0 .8566.692 1.5516 1.547 1.5516z"/><path d="m176.958 94.4492c.193.9695 1.16 1.5512 2.126 1.3573.967-.1939 1.547-1.1634 1.353-2.133-.193-.9695-1.159-1.5512-2.126-1.3573-.966.1939-1.546 1.1634-1.353 2.133z"/><path d="m176.088 88.6317c.29 1.1634 1.45 1.9391 2.609 1.6482 1.16-.2909 1.933-1.4543 1.644-2.6177-.29-1.1635-1.45-1.9391-2.61-1.6482-1.16.2908-1.836 1.4543-1.643 2.6177z"/><path d="m175.991 82.8148c.29 1.1634 1.45 1.9391 2.61 1.6482s1.933-1.4543 1.643-2.6177c-.29-1.1635-1.45-1.9391-2.61-1.6482-1.159.2908-1.933 1.4543-1.643 2.6177z"/><path d="m175.991 76.9973c.29 1.2604 1.45 1.9391 2.707 1.7451 1.256-.2908 1.933-1.4542 1.643-2.7146s-1.45-1.9391-2.707-1.6482c-1.159.1939-1.933 1.3573-1.643 2.6177z"/><path d="m176.668 71.0833c.29 1.0665 1.353 1.7451 2.416 1.5512 1.063-.2908 1.739-1.3573 1.546-2.4238-.29-1.0665-1.353-1.7451-2.416-1.5512-1.16.1939-1.836 1.2604-1.546 2.4238z"/><path d="m177.247 65.2662c.29 1.1634 1.354 1.8421 2.513 1.5512 1.16-.2908 1.837-1.3573 1.547-2.5207-.29-1.1635-1.353-1.8422-2.513-1.5513-1.063.1939-1.836 1.3573-1.547 2.5208z"/><path d="m178.117 59.4489c.29 1.1635 1.45 1.8422 2.61 1.6482 1.16-.2908 1.836-1.4543 1.643-2.6177-.29-1.1634-1.45-1.8421-2.61-1.6482-1.16.2909-1.836 1.4543-1.643 2.6177z"/><path d="m179.471 53.7286c.29 1.1634 1.353 1.8421 2.513 1.5512 1.159-.2908 1.836-1.3573 1.546-2.5207-.29-1.1635-1.353-1.8422-2.513-1.5513-1.16.1939-1.836 1.3573-1.546 2.5208z"/><path d="m180.92 48.0084c.29 1.1634 1.353 1.8421 2.513 1.5512s1.837-1.3573 1.547-2.5208c-.29-1.1634-1.353-1.8421-2.513-1.5512-1.063.2908-1.837 1.4543-1.547 2.5208z"/><path d="m182.756 42.3853c.29 1.0665 1.354 1.7451 2.417 1.5512 1.063-.2908 1.739-1.3573 1.546-2.4238-.29-1.0665-1.353-1.7451-2.416-1.5512-1.16.2908-1.837 1.3573-1.547 2.4238z"/><path d="m184.689 36.9559c.29 1.1634 1.353 1.8421 2.513 1.5512 1.16-.2908 1.837-1.3573 1.547-2.5208-.29-1.1634-1.353-1.8421-2.513-1.5512-1.063.1939-1.837 1.3573-1.547 2.5208z"/><path d="m187.009 31.5262c.29 1.1634 1.353 1.8421 2.513 1.5512 1.16-.2908 1.837-1.3573 1.547-2.5207-.29-1.1635-1.353-1.8421-2.513-1.5513-1.16.2909-1.837 1.3573-1.547 2.5208z"/><path d="m189.522 26.1942c.29 1.0665 1.353 1.8421 2.513 1.5513 1.063-.2909 1.836-1.3574 1.546-2.5208-.289-1.0665-1.353-1.8421-2.512-1.5513-1.064.2909-1.74 1.4543-1.547 2.5208z"/><path d="m192.325 21.0555c.29 1.0665 1.353 1.7451 2.416 1.5512 1.063-.2908 1.74-1.3573 1.547-2.4238-.29-1.0665-1.353-1.7452-2.417-1.5513-1.063.194-1.836 1.3574-1.546 2.4239z"/><path d="m197.35 17.6622c1.175 0 2.127-.955 2.127-2.133s-.952-2.133-2.127-2.133c-1.174 0-2.126.955-2.126 2.133s.952 2.133 2.126 2.133z"/><path d="m200.998 12.6793c1.092-.2524 1.773-1.3454 1.522-2.4412-.252-1.09574-1.341-1.77941-2.434-1.52697-1.092.25244-1.774 1.34537-1.522 2.44117s1.341 1.7795 2.434 1.527z"/><path d="m204.019 8.06403c1.175 0 2.127-.95497 2.127-2.13297s-.952-2.13296-2.127-2.13296c-1.174 0-2.126.95496-2.126 2.13296s.952 2.13297 2.126 2.13297z"/><path d="m205.663 1.85899c.29 1.16344 1.45 1.93906 2.609 1.6482 1.16-.29086 1.933-1.45429 1.643-2.617724-.29-1.163433-1.449-1.939056-2.609-1.648197-1.257.290858-1.933 1.454291-1.643 2.617721z"/><path d="m191.745 154.657c.193.872 1.063 1.357 1.836 1.163.87-.194 1.353-1.066 1.16-1.842-.193-.872-1.063-1.357-1.836-1.163s-1.353 1.066-1.16 1.842z"/><path d="m188.555 149.712c.194.873 1.063 1.454 1.933 1.26s1.45-1.066 1.257-1.939c-.194-.872-1.063-1.454-1.933-1.26s-1.45 1.066-1.257 1.939z"/><path d="m187.663 145.891c.884-.204 1.436-1.089 1.232-1.976s-1.086-1.44-1.97-1.236-1.436 1.089-1.232 1.976c.203.887 1.085 1.441 1.97 1.236z"/><path d="m182.853 139.435c.194.97 1.16 1.551 2.127 1.357.966-.194 1.546-1.163 1.353-2.133-.193-.969-1.16-1.551-2.126-1.357-.967.291-1.547 1.163-1.354 2.133z"/><path d="m180.63 134.103c.194.872 1.063 1.357 1.933 1.163s1.353-1.066 1.16-1.939-1.063-1.357-1.933-1.163c-.773.193-1.353 1.066-1.16 1.939z"/><path d="m178.214 128.673c.194.97 1.257 1.649 2.223 1.358.967-.194 1.643-1.261 1.353-2.23-.193-.97-1.256-1.648-2.223-1.358-.966.194-1.643 1.261-1.353 2.23z"/><path d="m176.185 123.147c.193.969 1.256 1.648 2.223 1.357.966-.194 1.643-1.26 1.353-2.23-.194-.969-1.257-1.648-2.223-1.357-.87.194-1.547 1.26-1.353 2.23z"/><path d="m174.445 117.524c.29 1.066 1.353 1.745 2.319 1.454 1.064-.291 1.74-1.26 1.45-2.327-.29-1.066-1.256-1.745-2.319-1.454-1.064.194-1.74 1.26-1.45 2.327z"/><path d="m172.995 111.9c.29 1.067 1.257 1.745 2.32 1.455 1.063-.291 1.739-1.261 1.449-2.327-.29-1.067-1.353-1.745-2.319-1.455-1.063.194-1.74 1.261-1.45 2.327z"/><path d="m172.028 106.083c.194.97 1.16 1.552 2.127 1.358.966-.194 1.546-1.164 1.353-2.133-.193-.97-1.16-1.551-2.126-1.358-1.064.194-1.643 1.164-1.354 2.133z"/><path d="m170.869 100.363c.29 1.066 1.353 1.745 2.416 1.454s1.74-1.357 1.45-2.4236c-.29-1.0664-1.354-1.7451-2.417-1.4543-1.063.2909-1.739 1.3574-1.449 2.4239z"/><path d="m170.482 94.4489c.193.8725 1.16 1.4543 2.03 1.2603.87-.1939 1.449-1.1634 1.256-2.036-.193-.8725-1.16-1.4543-2.029-1.2603-.87.1939-1.45 1.0664-1.257 2.036z"/><path d="m169.612 88.7287c.29 1.1634 1.45 1.8421 2.61 1.6482 1.16-.2908 1.836-1.4543 1.643-2.6177-.29-1.1634-1.45-1.8421-2.61-1.6482-1.159.2909-1.933 1.4543-1.643 2.6177z"/><path d="m169.226 82.9115c.29 1.3573 1.643 2.133 2.899 1.8421 1.353-.2908 2.126-1.6482 1.836-2.9086-.289-1.3573-1.643-2.1329-2.899-1.8421-1.353.2909-2.126 1.5513-1.836 2.9086z"/><path d="m169.515 76.9972c.29 1.2604 1.547 2.036 2.707 1.7451 1.256-.2908 2.029-1.5512 1.739-2.7146-.29-1.2604-1.546-2.0361-2.706-1.7452-1.256.2909-2.029 1.4543-1.74 2.7147z"/><path d="m172.125 72.9255c1.281 0 2.32-1.0418 2.32-2.3269s-1.039-2.3269-2.32-2.3269-2.319 1.0418-2.319 2.3269 1.038 2.3269 2.319 2.3269z"/><path d="m170.772 65.1693c.29 1.0665 1.256 1.7452 2.319 1.4543 1.064-.2908 1.74-1.2604 1.45-2.3268-.29-1.0665-1.256-1.7452-2.319-1.4543-.967.2908-1.643 1.3573-1.45 2.3268z"/><path d="m173.672 61.194c1.227 0 2.223-.9984 2.223-2.23 0-1.2315-.996-2.2299-2.223-2.2299-1.228 0-2.223.9984-2.223 2.2299 0 1.2316.995 2.23 2.223 2.23z"/><path d="m172.705 53.729c.29 1.1634 1.45 1.8421 2.61 1.6482 1.16-.2909 1.836-1.4543 1.643-2.6178-.29-1.1634-1.45-1.8421-2.61-1.6482-1.16.2909-1.933 1.4543-1.643 2.6178z"/><path d="m174.348 47.9114c.193 1.0665 1.256 1.6482 2.223 1.4543 1.063-.1939 1.643-1.2604 1.45-2.2299-.194-1.0665-1.257-1.6482-2.223-1.4543-1.064.1939-1.643 1.2604-1.45 2.2299z"/><path d="m175.991 42.2881c.193 1.0665 1.257 1.6482 2.223 1.4543 1.063-.1939 1.643-1.2604 1.45-2.2299-.194-1.0665-1.257-1.6482-2.223-1.4543-.967.1939-1.643 1.2604-1.45 2.2299z"/><path d="m177.827 36.8589c.29 1.0665 1.353 1.7452 2.416 1.5513 1.064-.2909 1.74-1.3574 1.547-2.4238-.29-1.0665-1.353-1.7452-2.416-1.5513-1.16.1939-1.837 1.2604-1.547 2.4238z"/><path d="m179.954 31.4295c.29 1.1635 1.353 1.8421 2.513 1.5513 1.159-.2909 1.836-1.3574 1.546-2.5208-.29-1.1635-1.353-1.8421-2.513-1.5513-1.16.1939-1.836 1.3574-1.546 2.5208z"/><path d="m182.274 26c.289 1.1634 1.449 1.8421 2.609 1.6482 1.16-.2909 1.836-1.4543 1.643-2.6178-.29-1.1634-1.45-1.8421-2.609-1.6482-1.16.3878-1.933 1.5513-1.643 2.6178z"/><path d="m184.883 20.7649c.29 1.1634 1.45 1.8421 2.609 1.6482 1.16-.2909 1.837-1.4543 1.643-2.6178-.29-1.1634-1.449-1.8421-2.609-1.6482-1.16.3878-1.836 1.5513-1.643 2.6178z"/><path d="m187.782 15.7233c.29 1.1634 1.45 1.939 2.61 1.6482 1.16-.2909 1.933-1.4543 1.643-2.6178-.29-1.1634-1.45-1.939-2.61-1.6482-1.256.1939-1.933 1.4543-1.643 2.6178z"/><path d="m193.001 12.3296c1.175 0 2.127-.9549 2.127-2.1329 0-1.17802-.952-2.13298-2.127-2.13298-1.174 0-2.126.95496-2.126 2.13298 0 1.178.952 2.1329 2.126 2.1329z"/><path d="m194.258 5.93087c.29 1.16343 1.45 1.8421 2.513 1.55124 1.16-.29085 1.836-1.45429 1.643-2.52077-.29-1.16343-1.45-1.8421-2.513-1.6482-1.16.29086-1.933 1.4543-1.643 2.61773z"/><path d="m197.834 1.18c.29 1.16343 1.353 1.8421 2.513 1.55125 1.16-.29086 1.836-1.35735 1.546-2.520784-.29-1.163436-1.353-1.842106-2.513-1.551246-1.159.29086-1.836 1.454293-1.546 2.52078z"/><path d="m184.786 154.948c.097.581.677.872 1.257.775s.87-.678.773-1.26-.677-.873-1.256-.776c-.58.194-.87.776-.774 1.261z"/><path d="m182.66 149.712c0 .097.096.097.193.097s.097-.097.097-.194-.097-.097-.194-.097c0 .097-.096.097-.096.194z"/><path d="m179.471 144.671c.096.291.386.484.676.388.29-.097.483-.388.387-.679-.097-.291-.387-.485-.677-.388-.193.097-.386.388-.386.679z"/><path d="m176.475 139.532c.096.582.676.97 1.256.776.58-.097.967-.679.773-1.261-.096-.581-.676-.969-1.256-.775-.58.097-.967.679-.773 1.26z"/><path d="m173.671 134.2c.194.872 1.063 1.357 1.837 1.163.869-.194 1.353-1.067 1.159-1.842-.193-.873-1.063-1.358-1.836-1.164-.87.194-1.353 1.067-1.16 1.843z"/><path d="m171.159 128.77c.193 1.067 1.256 1.649 2.319 1.455 1.064-.194 1.644-1.261 1.45-2.327-.193-1.067-1.256-1.648-2.319-1.455-1.064.194-1.643 1.358-1.45 2.327z"/><path d="m169.322 123.244c.29 1.067 1.353 1.745 2.32 1.454 1.063-.291 1.74-1.357 1.45-2.327-.29-1.066-1.257-1.745-2.32-1.454-1.063.194-1.74 1.261-1.45 2.327z"/><path d="m167.776 117.621c.193.969 1.256 1.648 2.223 1.357.966-.194 1.643-1.26 1.353-2.23-.193-.969-1.257-1.648-2.223-1.357-.967.194-1.546 1.163-1.353 2.23z"/><path d="m166.423 111.9c.193.97 1.256 1.649 2.223 1.358.966-.194 1.643-1.261 1.353-2.23-.193-.97-1.257-1.648-2.223-1.358-.967.194-1.547 1.261-1.353 2.23z"/><path d="m165.167 106.18c.29 1.067 1.353 1.746 2.416 1.552 1.063-.291 1.74-1.358 1.546-2.424-.29-1.067-1.353-1.745-2.416-1.551-1.16.194-1.836 1.357-1.546 2.423z"/><path d="m164.103 100.363c.29 1.163 1.45 1.842 2.61 1.648 1.159-.291 1.836-1.454 1.643-2.6175-.29-1.1635-1.45-1.8421-2.61-1.6482-1.16.2908-1.836 1.4543-1.643 2.6177z"/><path d="m163.62 94.5458c.29 1.0665 1.353 1.8421 2.513 1.5512 1.063-.2908 1.836-1.3573 1.546-2.5208-.289-1.0664-1.353-1.8421-2.512-1.5512-1.16.2909-1.837 1.3573-1.547 2.5208z"/><path d="m163.233 88.6317c.29 1.0665 1.353 1.7452 2.416 1.4543 1.064-.2908 1.74-1.3573 1.45-2.4238s-1.353-1.7451-2.416-1.4543c-.966.2909-1.643 1.3574-1.45 2.4238z"/><path d="m162.944 82.8148c.29 1.1634 1.449 1.9391 2.609 1.6482s1.933-1.4543 1.643-2.6177c-.29-1.1635-1.45-1.9391-2.609-1.6482-1.257.2908-1.933 1.4543-1.643 2.6177z"/><path d="m163.04 76.9974c.29 1.1635 1.45 1.9391 2.61 1.6482 1.159-.2908 1.933-1.4543 1.643-2.6177s-1.45-1.9391-2.61-1.6482c-1.16.1939-1.933 1.4543-1.643 2.6177z"/><path d="m163.523 71.0833c.29 1.0665 1.353 1.8421 2.513 1.5513 1.063-.2909 1.837-1.3574 1.547-2.5208-.29-1.1635-1.353-1.8421-2.513-1.5513-1.063.2909-1.837 1.4543-1.547 2.5208z"/><path d="m164.103 65.266c.29 1.0665 1.353 1.8421 2.513 1.5512 1.16-.2908 1.836-1.3573 1.547-2.5207-.29-1.0665-1.354-1.8421-2.513-1.5513-1.064.2909-1.74 1.3574-1.547 2.5208z"/><path d="m164.877 59.4489c.29 1.1634 1.449 1.939 2.706 1.6482 1.16-.2909 1.933-1.4543 1.643-2.7147-.29-1.1634-1.45-1.9391-2.706-1.6482-1.257.3878-1.933 1.5512-1.643 2.7147z"/><path d="m166.036 53.7286c.29 1.1634 1.353 1.8421 2.513 1.5512 1.16-.2908 1.837-1.3573 1.547-2.5207-.29-1.1635-1.353-1.8422-2.513-1.5513-1.063.1939-1.74 1.3573-1.547 2.5208z"/><path d="m167.389 48.0084c.29 1.1634 1.45 1.9391 2.61 1.6482 1.16-.2908 1.933-1.4543 1.643-2.6177s-1.45-1.9391-2.61-1.6482c-1.256.2908-1.933 1.4543-1.643 2.6177z"/><path d="m168.936 42.3851c.29 1.1634 1.449 1.9391 2.609 1.6482s1.933-1.4543 1.643-2.6177-1.45-1.9391-2.609-1.6482c-1.16.1939-1.933 1.3573-1.643 2.6177z"/><path d="m170.675 36.7621c.29 1.2603 1.45 1.939 2.707 1.7451 1.256-.2909 1.933-1.4543 1.643-2.7147s-1.45-1.939-2.707-1.7451c-1.159.2908-1.933 1.5512-1.643 2.7147z"/><path d="m172.802 31.3326c.29 1.2604 1.449 1.9391 2.706 1.7452 1.256-.2909 1.933-1.4543 1.739-2.7147-.289-1.2604-1.449-1.9391-2.706-1.7452-1.256.2909-2.029 1.4543-1.739 2.7147z"/><path d="m175.025 25.9032c.29 1.2604 1.546 2.036 2.706 1.7451 1.256-.2908 2.03-1.5512 1.74-2.7146-.29-1.2604-1.547-2.0361-2.707-1.7452-1.256.2909-2.029 1.4543-1.739 2.7147z"/><path d="m177.924 20.5709c.29 1.0665 1.257 1.7452 2.32 1.4543 1.063-.2908 1.74-1.2604 1.45-2.3268-.29-1.0665-1.257-1.7452-2.32-1.4543-1.063.1939-1.74 1.2604-1.45 2.3268z"/><path d="m180.534 15.4324c.29 1.1635 1.353 1.8421 2.513 1.5513 1.159-.2909 1.836-1.3574 1.546-2.5208s-1.353-1.8421-2.513-1.5512c-1.16.1939-1.836 1.3573-1.546 2.5207z"/><path d="m183.337 10.3907c.289 1.1635 1.449 1.9391 2.609 1.6482 1.16-.2908 1.933-1.4543 1.643-2.61769-.29-1.16344-1.45-1.93906-2.609-1.6482-1.16.1939-1.933 1.35734-1.643 2.61769z"/><path d="m187.009 5.34901c.193.87257 1.16 1.45429 2.03 1.26038.869-.1939 1.449-1.16343 1.256-2.03601-.193-.87257-1.16-1.45429-2.03-1.26038-.869.1939-1.449 1.06648-1.256 2.03601z"/><path d="m190.005.598448c.29 1.163432 1.353 1.842102 2.513 1.551242s1.836-1.357337 1.546-2.52077c-.29-1.16343-1.353-1.8421-2.513-1.55124-1.063.29086-1.739 1.454287-1.546 2.520768z"/><path d="m168.163 134.007s0 .098 0 0h.098c0-.099 0-.099-.098 0z"/><path d="m166.133 128.481s.098.098 0 0h.098c0-.099 0-.099-.098 0z"/><path d="m164.393 123.05c.107 0 .193-.087.193-.194s-.086-.194-.193-.194-.193.087-.193.194.086.194.193.194z"/><path d="m162.267 117.33c.096.388.483.582.773.485.387-.097.58-.485.483-.776-.096-.388-.483-.582-.773-.485-.387.097-.58.485-.483.776z"/><path d="m161.59 112.191c.374 0 .677-.304.677-.678 0-.375-.303-.679-.677-.679s-.676.304-.676.679c0 .374.302.678.676.678z"/><path d="m159.947 105.889c.097.291.387.485.677.388s.483-.388.386-.678c-.096-.291-.386-.485-.676-.388s-.387.388-.387.678z"/><path d="m159.078 100.072c.096.291.386.485.676.388s.483-.388.387-.6786c-.097-.2908-.387-.4847-.677-.3878-.193.097-.386.3879-.386.6784z"/><path d="m158.498 94.2551c.096.2909.386.4848.773.4848.29-.097.483-.3878.483-.7756-.096-.2909-.386-.4848-.773-.4848-.387.0969-.58.3878-.483.7756z"/><path d="m157.918 88.4378c.096.3878.483.6787.966.5817.387-.0969.677-.4848.58-.9695-.097-.3878-.483-.6787-.966-.5817-.387.0969-.677.4847-.58.9695z"/><path d="m157.531 82.6206c.097.5817.677.8726 1.256.7756.58-.097.87-.6787.774-1.2604-.097-.5817-.677-.8726-1.257-.7756-.58.0969-.87.6787-.773 1.2604z"/><path d="m158.014 76.6097c.097.3878.484.5817.87.4847.387-.0969.58-.4847.483-.8725-.096-.3878-.483-.5817-.869-.4848-.387.1939-.58.5817-.484.8726z"/><path d="m158.981 72.8285c1.227 0 2.223-.9984 2.223-2.2299 0-1.2316-.996-2.2299-2.223-2.2299-1.228 0-2.223.9983-2.223 2.2299 0 1.2315.995 2.2299 2.223 2.2299z"/><path d="m157.918 65.169c.193.9695 1.159 1.4543 2.029 1.2603.967-.1939 1.45-1.1634 1.257-2.036-.194-.9695-1.16-1.4543-2.03-1.2603-.87.1939-1.45 1.1634-1.256 2.036z"/><path d="m159.561 59.1581c.096.4847.58.6786.966.5817.483-.097.677-.5817.58-.9695-.097-.4848-.58-.6787-.966-.5818-.387.097-.677.5818-.58.9696z"/><path d="m159.174 53.7287c.29 1.2603 1.547 2.036 2.803 1.7451s2.03-1.5512 1.74-2.8116-1.547-2.036-2.803-1.7452c-1.257.2909-2.03 1.5513-1.74 2.8117z"/><path d="m160.914 47.9117c.193 1.0665 1.256 1.6482 2.32 1.4543 1.063-.1939 1.643-1.2604 1.449-2.3269-.193-1.0665-1.353-1.6482-2.319-1.4543-1.063.2909-1.74 1.2604-1.45 2.3269z"/><path d="m163.62 41.9973c.097.3878.387.5817.773.4848.387-.097.58-.3878.484-.7756-.097-.3878-.387-.5817-.774-.4848-.29.097-.483.3878-.483.7756z"/><path d="m164.876 36.471c.194.6787.774 1.0665 1.45.8726.677-.1939 1.063-.7756.87-1.4543s-.773-1.0665-1.45-.8726c-.676.1939-1.063.8726-.87 1.4543z"/><path d="m167.679 30.7508c0 .1939.193.2908.29.1939.193 0 .29-.1939.193-.2909 0-.1939-.193-.2908-.386-.1939 0 0-.097.1939-.097.2909z"/><path d="m168.259 25.7093c.29 1.0665 1.353 1.7451 2.416 1.4543 1.064-.2909 1.74-1.3574 1.45-2.4238-.29-1.0665-1.353-1.7452-2.416-1.5513-1.063.3878-1.74 1.4543-1.45 2.5208z"/><path d="m171.449 20.183c.097.5817.773.9695 1.353.8725.58-.0969.966-.7756.87-1.3573-.097-.5817-.773-.9695-1.353-.8726-.58.097-.967.6787-.87 1.3574z"/><path d="m173.961 14.9474c.194.6786.87 1.1634 1.547.9695.676-.1939 1.16-.8726.966-1.5513-.193-.6786-.87-1.1634-1.546-.9695-.677.1939-1.16.8726-.967 1.5513z"/><path d="m176.281 10.003c.193 1.0665 1.256 1.6482 2.319 1.4543s1.643-1.2604 1.45-2.3269c-.193-1.06648-1.256-1.6482-2.32-1.45429-1.063.1939-1.739 1.26039-1.449 2.32689z"/><path d="m180.63 4.67042c.097.29086.29.48477.58.38781.29-.09695.484-.29086.387-.58172s-.29-.48477-.58-.38781c-.29 0-.387.29086-.387.58172z"/><path d="m152.312 70.6956c0 .097.096.1939.193.1939s.193-.0969.193-.1939c0-.0969-.096-.1939-.193-.1939-.193 0-.29.097-.193.1939z"/><path d="m152.988 64.7812c0 .0987 0 .0987 0 0h.099z"/><path d="m153.762 58.9641s0 .0986 0 0c.098 0 .098 0 0 0z"/><path d="m154.631 53.244c0 .0969.097.0969.194.0969.096 0 .096-.097.096-.1939 0-.097-.096-.097-.193-.097 0 0-.097.097-.097.194z"/><path d="m155.888 47.5237c0 .097.096.097.193.097s.097-.097.097-.1939c0-.097-.097-.097-.194-.097-.096 0-.096.097-.096.1939z"/><path d="m159.078 36.1802c0 .097.096.097.193.097s.097-.097.097-.1939c0-.097-.097-.097-.194-.097-.096.097-.096.097-.096.1939z"/><path d="m161.011 30.6553h.098c0-.0987 0-.0987-.098 0 0-.0987 0-.0987 0 0z"/><path d="m163.137 25.1286c0 .0986 0 .0986 0 0h.098s0-.0987-.098 0z"/><path d="m165.457 19.7966h.098c0-.0986 0-.0986-.098 0 0-.0986 0-.0986 0 0z"/><path d="m167.873 14.4629c0 .097.096.097.193.097s.097-.097.097-.1939c0-.097-.097-.097-.194-.097 0 .097-.096.097-.096.1939z"/><path d="m149.316 47.427c0 .0986 0 .0986 0 0 .098 0 .098.0986 0 0z"/><path d="m152.312 36.0833c0 .0986 0 .0986 0 0 .098 0 .098.0986 0 0 .098 0 .098 0 0 0z"/><path d="m156.178 8.83963.097.09695.097-.09695-.097-.09695c-.097 0-.097-.00001-.097.09695z"/><path d="m146.61 13.9789c.098 0 .098 0 0 0 .098-.0987.098 0 0 0z"/></g></svg>