<svg fill="none" height="272" viewBox="0 0 420 272" width="420" xmlns="http://www.w3.org/2000/svg" xmlns:xlink="http://www.w3.org/1999/xlink"><linearGradient id="a" gradientUnits="userSpaceOnUse" x1="100.32" x2="305.933" y1="17.0427" y2="169.2"><stop offset="0" stop-color="#4f1fec"/><stop offset="1" stop-color="#a92ffb"/></linearGradient><linearGradient id="b" gradientUnits="userSpaceOnUse" x1="310.212" x2="167.581" y1="49.4187" y2="189.83"><stop offset="0" stop-color="#ededed"/><stop offset="1" stop-color="#6d6d6d"/></linearGradient><linearGradient id="c"><stop offset="0" stop-color="#f16822"/><stop offset="1" stop-color="#d84b0e"/></linearGradient><linearGradient id="d" gradientUnits="userSpaceOnUse" x1="290.718" x2="172.6" xlink:href="#c" y1="87.4897" y2="79.7796"/><linearGradient id="e"><stop offset="0" stop-color="#f17922"/><stop offset="1" stop-color="#d74608"/></linearGradient><linearGradient id="f" gradientUnits="userSpaceOnUse" x1="236" x2="218.53" xlink:href="#e" y1="4.99985" y2="102.352"/><linearGradient id="g" gradientUnits="userSpaceOnUse" x1="301.399" x2="404.763" y1="90.8477" y2="147.974"><stop offset="0" stop-color="#d84b0e"/><stop offset="1" stop-color="#f16822"/></linearGradient><linearGradient id="h" gradientUnits="userSpaceOnUse" x1="342.206" x2="86.0371" xlink:href="#c" y1="200.151" y2="174.588"/><linearGradient id="i" gradientUnits="userSpaceOnUse" x1="122.847" x2="9.16642" y1="55.7254" y2="109.949"><stop offset="0" stop-color="#fff"/><stop offset="1" stop-color="#b9b9b9"/></linearGradient><linearGradient id="j" gradientUnits="userSpaceOnUse" x1="64.6203" x2="63.1304" y1="50.7728" y2="84.7402"><stop offset="0" stop-color="#d5d5d5"/><stop offset="1" stop-color="#6b6b6b"/></linearGradient><linearGradient id="k" gradientUnits="userSpaceOnUse" x1=".615327" x2="127.657" y1="37.3402" y2="37.3402"><stop offset="0" stop-color="#e39a65"/><stop offset="1" stop-color="#e95f8d"/></linearGradient><linearGradient id="l" gradientUnits="userSpaceOnUse" x1="24" x2="57" xlink:href="#c" y1="119.5" y2="101.5"/><linearGradient id="m" gradientUnits="userSpaceOnUse" x1="61.5002" x2="9.00019" xlink:href="#c" y1="102.5" y2="126"/><linearGradient id="n" gradientUnits="userSpaceOnUse" x1="108.54" x2="76.1034" xlink:href="#c" y1="123.513" y2="123.067"/><linearGradient id="o" gradientUnits="userSpaceOnUse" x1="104.76" x2="90.0523" xlink:href="#c" y1="118.825" y2="118.527"/><linearGradient id="p" gradientUnits="userSpaceOnUse" x1="95.0007" x2="111.032" xlink:href="#e" y1="111.5" y2="114.611"/><linearGradient id="q"><stop offset="0" stop-color="#5761d7"/><stop offset=".1779" stop-color="#5c66d9"/><stop offset=".3876" stop-color="#6a73df"/><stop offset=".6134" stop-color="#8289e8"/><stop offset=".849" stop-color="#a3a7f5"/><stop offset="1" stop-color="#bcbeff"/></linearGradient><linearGradient id="r" gradientUnits="userSpaceOnUse" x1="293.927" x2="244.728" xlink:href="#q" y1="222.454" y2="234.461"/><linearGradient id="s" gradientUnits="userSpaceOnUse" x1="288.154" x2="275.423" xlink:href="#q" y1="216.889" y2="204.583"/><linearGradient id="t" gradientUnits="userSpaceOnUse" x1="291.332" x2="286.4" xlink:href="#c" y1="162.116" y2="162.08"/><linearGradient id="u" gradientUnits="userSpaceOnUse" x1="189.858" x2="319.371" y1="196.629" y2="196.629"><stop offset="0" stop-color="#42e8e0"/><stop offset=".1507" stop-color="#43e3e0"/><stop offset=".3285" stop-color="#45d5df"/><stop offset=".5199" stop-color="#49bddd"/><stop offset=".7209" stop-color="#4e9cdb"/><stop offset=".9274" stop-color="#5472d8"/><stop offset="1" stop-color="#5761d7"/></linearGradient><linearGradient id="v" gradientUnits="userSpaceOnUse" x1="190.415" x2="266.29" xlink:href="#c" y1="184.96" y2="219.631"/><linearGradient id="w" gradientUnits="userSpaceOnUse" x1="321" x2="221.763" xlink:href="#e" y1="203.5" y2="146.631"/><clipPath id="x"><path d="m0 0h420v272h-420z"/></clipPath><g clip-path="url(#x)"><path d="m380.193 163.668c-.862 0-1.725-.246-2.464-.616l-99.701-57.555c-2.342-1.356-3.204-4.437-1.849-6.7785 1.356-2.3416 4.314-3.2044 6.779-1.8487l99.7 57.5552c2.342 1.356 3.204 4.437 1.849 6.778-.986 1.602-2.588 2.465-4.314 2.465z" fill="#4d4d4d" opacity=".6"/><path d="m185.723 157.383-119.1723-68.7704c-3.4507-1.9719-3.081-5.546.9859-7.8876l117.2004-67.6611c4.067-2.3416 10.229-2.5881 13.68-.6162l119.172 68.7703c3.451 1.9719 3.081 5.546-.985 7.8876l-117.201 67.6614c-4.067 2.341-10.229 2.588-13.68.616z" fill="url(#a)"/><path d="m185.723 157.383-119.1723-68.7704c-3.4507-1.9719-3.081-5.546.9859-7.8876l117.2004-67.6611c4.067-2.3416 10.229-2.5881 13.68-.6162l119.172 68.7703c3.451 1.9719 3.081 5.546-.985 7.8876l-117.201 67.6614c-4.067 2.341-10.229 2.588-13.68.616z" fill="url(#b)"/><path d="m66.5495 88.6126 3.081 1.8487 115.1055-66.4286c4.067-2.3417 10.229-2.5882 13.68-.6163l116.091 67.0449 2.095-1.2324c4.067-2.3417 4.437-5.9158.986-7.8877l-119.172-68.8935c-3.451-1.9719-9.613-1.7254-13.68.6162l-117.2006 67.6611c-4.0669 2.3416-4.5598 5.7925-.9859 7.8876z" fill="#4d4d4d"/><path d="m89.4719 88.7359 111.0391-64.087-2.095-1.2324c-3.451-1.972-9.613-1.7255-13.68.6162l-115.1056 66.3054 116.0916 67.0449c2.465 1.479 6.285 1.725 9.736.986l-106.972-61.7455c-3.5739-1.9719-3.081-5.546.9859-7.8876z" fill="#737373" opacity=".6"/><path d="m161.568 105.25c-1.479.863-1.356 2.342.246 3.451l9.366 6.162c1.602.986 4.067 1.233 5.546.37s1.356-2.342-.247-3.451l-9.366-6.162c-1.602-1.109-4.067-1.232-5.545-.37z" fill="#4d4d4d"/><path d="m174.138 99.3347c-1.479.8623-1.356 2.3413.246 3.4513l8.257 5.422c1.602.986 4.067 1.233 5.546.37s1.356-2.342-.246-3.451l-8.257-5.4226c-1.602-1.1092-4.067-1.2324-5.546-.3697z" fill="#f16822"/><path d="m176.48 86.7639c-1.479.8627-1.356 2.3416.246 3.4508l17.377 11.3383c1.602.986 4.067 1.233 5.546.37s1.355-2.3417-.247-3.4509l-17.377-11.3385c-1.602-1.1092-4.066-1.2324-5.545-.3697z" fill="#f16822"/><path d="m177.958 73.5764c-1.479.8627-1.355 2.3416.247 3.4508l27.236 17.8705c1.602.9859 4.066 1.2324 5.545.3697s1.356-2.3416-.246-3.4508l-27.236-17.8705c-1.602-1.1092-4.067-1.2324-5.546-.3697z" fill="#4d4d4d"/><path d="m192.254 68.8933c-1.479.8627-1.356 2.3416.247 3.4508l24.524 16.0218c1.602.9859 4.067 1.2324 5.546.3697s1.356-2.3416-.247-3.4508l-24.524-16.0218c-1.602-1.1092-4.067-1.2324-5.546-.3697z" fill="#f16822"/><path d="m185.476 50.2835c-1.479.8627-1.356 2.3416.246 3.4508l42.764 28.0997c1.602.9859 4.067 1.2324 5.546.3697s1.356-2.3416-.246-3.4508l-42.764-28.2229c-1.603-.986-4.067-1.1092-5.546-.2465z" fill="#4d4d4d"/><path d="m157.993 99.7044c1.602.9856 1.602 2.5886.247 3.3276-1.479.863-3.944.74-5.423-.37-1.602-.986-1.602-2.588-.246-3.3273 1.479-.8627 3.944-.7395 5.422.3697z" fill="#4d4d4d"/><path d="m149.243 93.912c1.603.9859 1.603 2.5881.247 3.3276-1.479.8627-3.944.7394-5.423-.3698-1.602-.9859-1.602-2.5881-.246-3.3276 1.355-.8627 3.82-.7394 5.422.3698z" fill="#4d4d4d"/><path d="m131.004 49.7905c0 1.2324-.863 2.5881-1.849 3.2044-.986.6162-1.848.1232-1.848-1.1092 0-1.2325.862-2.5882 1.848-3.2044s1.849-.1232 1.849 1.1092z" fill="#fff"/><path d="m138.275 45.6006c0 1.2324-.863 2.5881-1.849 3.2043s-1.848.1233-1.848-1.1092c0-1.2324.862-2.5881 1.848-3.2043 1.109-.6163 1.849-.1233 1.849 1.1092z" fill="#fff"/><path d="m145.669 41.2868c0 1.2324-.862 2.5881-1.848 3.2043-.986.6163-1.849.1233-1.849-1.1092 0-1.2324.863-2.5881 1.849-3.2043.986-.493 1.848-.1233 1.848 1.1092z" fill="#fff"/><path d="m324.47 52.1322c-.37-.986-.863-1.9719-1.356-2.9579-.37 3.3276-1.725 6.6552-3.328 10.106.247 2.2184.247 4.4368-.123 6.532l-3.82 1.3557-10.599 10.4757-14.172 7.3947-16.268 5.6692-19.102 3.4509h-16.268l-19.225-3.5741-22.183-5.546-17.747-12.3244-6.901-6.1623c-.246-1.3556-.37-2.7113-.37-4.067-1.725-3.5741-2.834-7.5179-4.067-11.4617-.246.493-.369.9859-.616 1.4789l-1.848-3.2043v13.8033c.369 11.585 8.133 23.0467 23.415 31.797 31.18 17.9941 81.831 17.9941 113.134 0 15.651-9.1201 23.539-20.9515 23.415-32.7829v-12.8174z" fill="url(#d)"/><path d="m194.452 32.2898c28.715-16.638 75.299-16.638 104.014 0 13.063 7.5179 20.211 17.2542 21.321 27.1137 1.602-3.3276 2.957-6.6552 3.327-10.106-.739-1.6022-1.725-3.0811-2.835-4.6833l2.465-.2465-11.461-19.9655-33.398-16.02177-30.07-3.69732-25.757 3.20435-16.268 3.20434-13.31 6.1622-13.679 9.9828-6.779 13.4336-.862 6.039c-.863 1.3557-1.602 2.8346-2.219 4.3135 1.11 4.0671 2.219 7.8877 4.067 11.4617-.123-10.9687 7.025-21.9374 21.444-30.1948z" fill="#d84b0e"/><path d="m246.459 96.8696c40.633 0 73.574-19.0365 73.574-42.5193 0-23.4827-32.941-42.5192-73.574-42.5192-40.634 0-73.574 19.0365-73.574 42.5192 0 23.4828 32.94 42.5193 73.574 42.5193z" fill="#d84b0e" opacity=".5"/><path d="m303.027 16.6378c-31.179-17.99364-81.831-17.99364-113.134 0-31.179 17.9937-31.179 47.3258 0 65.3195 31.18 17.9936 81.831 17.9936 113.134 0 31.303-17.9937 31.303-47.2026 0-65.3195zm-4.56 62.7313c-28.714 16.638-75.299 16.638-104.014 0-28.714-16.6379-28.714-43.5052 0-60.0199 28.715-16.51473 75.3-16.63798 104.014 0 28.838 16.5147 28.838 43.5052 0 60.0199z" fill="url(#f)"/><path d="m194.452 26.9902c-12.694 7.2714-19.718 16.638-21.197 26.251 1.479 9.6131 8.627 18.8564 21.197 26.251 28.715 16.638 75.299 16.638 104.014 0 12.694-7.2714 19.718-16.6379 21.197-26.251-1.479-9.613-8.626-18.8564-21.197-26.251-28.715-16.638-75.299-16.638-104.014 0z" fill="#fff" opacity=".3"/><path d="m399.523 154.301c-.863 0-1.726-.246-2.465-.616l-99.701-57.5548c-2.341-1.3557-3.204-4.4368-1.849-6.7784 1.356-2.3416 4.314-3.2043 6.779-1.8487l99.7 57.5549c2.342 1.356 3.205 4.437 1.849 6.779-.863 1.602-2.588 2.464-4.313 2.464z" fill="url(#g)"/><path d="m302.287 87.503c-2.342-1.3557-5.423-.6162-6.779 1.8487-1.355 2.3416-.492 5.4227 1.849 6.7784l7.148 4.1899s-2.588-6.6548 5.176-8.3802z" fill="#171717" opacity=".6"/><path d="m143.944 229.973c-1.972 0-4.067-.616-5.792-1.725l-16.268-10.969c-2.835-1.848-4.437-5.053-4.437-8.38v-15.652c0-2.958-1.602-5.793-4.19-7.395l-41.6548-25.019c-.3697-.246-.4929-.739-.2464-.985.2465-.37.7394-.493 1.1091-.247l41.6551 25.019c3.081 1.848 4.929 5.176 4.929 8.627v15.652c0 2.834 1.356 5.546 3.821 7.148l16.267 10.969c2.835 1.972 6.655 1.972 9.613.123l126.69-79.862c3.574-2.342 8.134-2.342 11.955-.247l93.785 53.242c1.355.739 2.834.739 4.067-.124l31.302-20.705c1.233-.862 2.096-2.218 2.096-3.82v-11.708c0-1.603-.863-3.205-2.342-3.944l-14.173-8.011c-.369-.247-.493-.616-.246-.986.246-.37.616-.493.986-.247l14.172 8.011c1.849 1.11 3.081 3.081 3.081 5.3v11.708c0 2.095-.986 3.944-2.711 5.053l-31.303 20.705c-1.725 1.109-3.943 1.232-5.669.247l-93.785-53.242c-3.204-1.849-7.148-1.725-10.352.247l-126.69 79.862c-1.849.862-3.697 1.355-5.669 1.355z" fill="url(#h)"/><path d="m58.169 193.123-56.19718-32.536c-2.095066-1.232-1.848588-3.204.6162-4.683l59.52468-34.509c2.3415-1.355 5.9155-1.479 8.0105-.369l56.1968 32.413c2.095 1.232 1.849 3.204-.616 4.683l-59.5244 34.508c-2.3416 1.479-5.9155 1.603-8.0106.493z" fill="#4d4d4d" opacity=".6"/><path d="m127.183 52.9948c.863-1.2325.616-2.4649-.863-3.3276l-56.1967-32.4133c-2.0951-1.2324-5.6691-.9859-8.0106.3698l-59.52466 34.5084c-1.971829 1.1092-2.464787 2.7113-1.47887 3.9438h-.492959v76.4111c0 .74.369718 1.479 1.355629 2.095l56.19716 32.414c2.0951 1.232 5.669.986 8.0106-.37l59.5244-34.508c1.233-.74 1.849-1.603 1.972-2.465v-76.6582z" fill="url(#i)"/><path d="m62.3593 81.2181c-1.1092 0-2.0951-.2465-2.8345-.6163l-39.8064-23.0466c-.8626-.493-1.3556-1.2325-1.3556-2.0952 0-.9859.6162-1.8487 1.7253-2.4649l42.1479-24.4023c1.9719-1.1092 4.8064-1.2325 6.4085-.2465l39.8065 23.0467c.862.4929 1.355 1.2324 1.355 2.0951 0 .986-.616 1.8487-1.725 2.4649l-42.1478 24.4023c-.9859.6163-2.3415.8628-3.5739.8628zm3.5739-52.1324c-.9859 0-2.095.2465-2.8345.7395l-42.2711 24.4024c-.6162.3697-.9859.8627-.9859 1.2324s.3697.6162.6162.7395l39.8063 23.0467c1.2324.7394 3.4507.6162 4.9296-.2465l42.1482-24.4024c.616-.3697.986-.8627.986-1.2324 0-.3698-.37-.6163-.617-.7395l-39.6827-23.0467c-.6162-.2465-1.3556-.493-2.0951-.493z" fill="#f16822"/><path d="m125.704 54.3505-59.5243 34.3852c-2.3416 1.3556-5.9155 1.4789-8.0106.3697l-56.19716-32.4132c-.6162-.3698-1.109154-.8627-1.232394-1.3557-.369718.9859.12324 1.9719 1.232394 2.5881l56.19716 32.4132c2.0951 1.2325 5.669.986 8.0106-.3697l59.5243-34.5084c1.602-.8627 2.219-2.2184 1.849-3.2043-.247.7394-.863 1.4789-1.849 2.0951z" fill="url(#j)"/><path d="m61.6197 74.6865c-1.3556 0-2.7112-.2464-3.8204-.8627l-56.07395-32.4132c-1.109153-.6162-1.72535-1.6022-1.72535-2.5881 0-1.1092.862676-2.3417 2.21831-3.2044l59.52469-34.38512c2.588-1.478927 6.4084-1.602171 8.6267-.369729l56.1973 32.413249c1.109.6162 1.725 1.4789 1.725 2.5881 0 1.2325-.862 2.3417-2.218 3.2044l-59.5247 34.3851c-1.4789.8627-3.2042 1.2324-4.9296 1.2324zm-3.2042-1.9719c1.8486 1.1092 5.2993.8627 7.3944-.3697l59.5251-34.5084c1.109-.6162 1.602-1.3557 1.602-2.0951 0-.7395-.617-1.2325-1.11-1.479l-56.0735-32.28995c-1.8486-1.109199-5.2993-.86271-7.3943.36973l-59.52469 34.50842c-.98592.4929-1.60212 1.2324-1.60212 1.9719 0 .7394.6162 1.2324 1.10916 1.4789z" fill="#e8975b"/><path d="m58.169 73.2067-56.19718-32.4132c-2.095066-1.2324-1.848588-3.2043.6162-4.6833l59.52468-34.50836c2.3415-1.355687 5.9155-1.478931 8.0105-.36973l56.1968 32.41319c2.095 1.2325 1.849 3.2044-.616 4.6833l-59.5244 34.5084c-2.3416 1.4789-5.9155 1.6022-8.0106.3697z" fill="url(#k)" opacity=".2"/><path d="m8.75 123.367v-45.9699c0-1.7255 1.3556-2.2184 3.081-1.2325l42.2711 24.2794c1.7254.986 3.081 3.081 3.081 4.806v45.97c0 1.726-1.3556 2.219-3.081 1.233l-42.2711-24.279c-1.7254-.986-3.081-3.205-3.081-4.807z" fill="url(#l)"/><path d="m14.9122 125.955c-1.7254-.986-3.081-3.081-3.081-4.806v-44.9842h-.1233c-1.72531-.986-3.08095-.3698-3.08095 1.2324v45.9698c0 1.726 1.35564 3.821 3.08095 4.807l42.2712 24.279c1.7253.986 3.081.37 3.081-1.233v-.985z" fill="url(#m)"/><path d="m21.074 110.427c-.6162-.37-1.1092-.124-1.1092.616v4.313c0 .74.493 1.603 1.1092 1.972.6162.37 1.1092.124 1.1092-.616v-4.313c.1232-.74-.493-1.603-1.1092-1.972z" fill="#fff"/><path d="m26.0037 113.877c-.6162-.369-1.1092-.123-1.1092.617v3.82c0 .74.493 1.602 1.1092 1.972s1.1091.123 1.1091-.616v-3.821c.1233-.739-.4929-1.602-1.1091-1.972z" fill="#4d4d4d"/><path d="m30.9334 112.398c-.6162-.369-1.1092-.123-1.1092.617v8.01c0 .74.493 1.603 1.1092 1.972.6162.37 1.1091.124 1.1091-.616v-8.011c0-.616-.4929-1.602-1.1091-1.972z" fill="#fff"/><path d="m35.8626 110.673c-.6162-.369-1.1092-.123-1.1092.617v12.694c0 .739.493 1.602 1.1092 1.972.6162.369 1.1091.123 1.1091-.617v-12.694c0-.739-.4929-1.602-1.1091-1.972z" fill="#fff"/><path d="m40.7923 114.864c-.6162-.37-1.1092-.124-1.1092.616v11.338c0 .74.493 1.603 1.1092 1.972.6162.37 1.1091.124 1.1091-.616v-11.338c0-.74-.4929-1.603-1.1091-1.972z" fill="#4d4d4d"/><path d="m45.7219 109.194c-.6162-.369-1.1091-.123-1.1091.617v19.719c0 .739.4929 1.602 1.1091 1.971.6162.37 1.1092.124 1.1092-.616v-19.719c0-.739-.493-1.602-1.1092-1.972z" fill="#fff"/><path d="m22.1832 108.208c0 .74-.493.986-1.1092.616-.6162-.369-1.1092-1.232-1.1092-1.972 0-.739.493-.985 1.1092-.616.6162.37 1.1092 1.356 1.1092 1.972z" fill="#4d4d4d"/><path d="m21.8773 104.933c.4126-.238.3884-1.053-.0541-1.819s-1.1357-1.194-1.5483-.956-.3883 1.053.0542 1.819 1.1356 1.194 1.5482.956z" fill="#4d4d4d"/><path d="m115.969 127.804-39.0674 22.554c-1.2324.739-2.3415 0-2.3415-1.726v-47.572c0-1.7252.9859-3.6971 2.3415-4.4366l39.0674-22.5537c1.232-.7395 2.341 0 2.341 1.7254v47.6959c-.123 1.725-1.109 3.697-2.341 4.313z" fill="url(#n)"/><path d="m115.969 74.0714-.617.3698v47.4488c0 1.726-.986 3.697-2.341 4.437l-38.4509 22.184v.246c0 1.726.9859 2.465 2.3415 1.726l39.0674-22.554c1.232-.739 2.341-2.711 2.341-4.437v-47.6952c-.123-1.6021-1.109-2.4649-2.341-1.7254z" fill="#d84b0e" opacity=".4"/><path d="m107.835 106.606c0 7.518-5.299 16.638-11.7078 20.336-6.5317 3.697-11.7078.739-11.7078-6.779s5.2993-16.638 11.7078-20.3351c6.4088-3.8206 11.7078-.7395 11.7078 6.7781z" fill="#fff" opacity=".4"/><path d="m97.2365 127.188 4.0665-6.778c1.356-1.602 2.588-3.574 3.328-5.546l4.56-7.518-5.546-3.205c-1.479-.985-3.574-.862-6.0388.493-4.5599 2.589-8.2571 8.997-8.2571 14.174 0 2.588.8627 4.436 2.3416 5.299z" fill="url(#o)"/><path d="m111.409 112.399c0 5.299-3.697 11.585-8.257 14.173-4.5598 2.588-8.257.493-8.257-4.683 0-5.3 3.6972-11.585 8.257-14.173 4.56-2.589 8.257-.493 8.257 4.683z" fill="url(#p)"/><path d="m108.575 114.124c0 3.451-2.465 7.642-5.423 9.367s-5.4225.37-5.4225-3.081 2.4645-7.641 5.4225-9.367c3.081-1.848 5.423-.369 5.423 3.081z" fill="#d84b0e"/><path d="m105.617 110.181c.492.616.739 1.602.739 2.711 0 3.451-2.465 7.641-5.423 9.367-.862.493-1.7932.741-2.5326.741.9859 1.356 2.5326 1.809 4.8746.368 2.958-1.726 5.423-5.916 5.423-9.367-.124-2.341-1.356-3.82-3.081-3.82z" fill="#ff8546"/><path d="m288.257 270.891-87.5-50.53c-2.834-1.603-2.465-4.56.74-6.409l40.176-23.17c3.327-1.849 8.257-2.095 11.091-.493l87.5 50.53c2.835 1.602 2.465 4.56-.739 6.409l-40.053 23.17c-3.327 1.972-8.38 2.218-11.215.493z" fill="#373737" opacity=".6"/><g fill="#fff"><path d="m293.063 245.379c0 1.479-1.232 2.712-2.711 2.712s-2.711-1.233-2.711-2.712 1.232-2.711 2.711-2.711c1.602 0 2.711 1.232 2.711 2.711z"/><path d="m319.806 215.061c0 1.479-1.232 2.712-2.711 2.712s-2.711-1.233-2.711-2.712c0-1.478 1.232-2.711 2.711-2.711s2.711 1.109 2.711 2.711z"/><path d="m323.011 238.477c1.497 0 2.711-1.214 2.711-2.711s-1.214-2.711-2.711-2.711c-1.498 0-2.712 1.214-2.712 2.711s1.214 2.711 2.712 2.711z"/><path d="m264.348 233.301c1.498 0 2.712-1.214 2.712-2.711 0-1.498-1.214-2.712-2.712-2.712-1.497 0-2.711 1.214-2.711 2.712 0 1.497 1.214 2.711 2.711 2.711z"/></g><path d="m283.821 212.227c0 1.478-1.233 2.711-2.712 2.711s-2.711-1.233-2.711-2.711c0-1.479 1.232-2.712 2.711-2.712s2.712 1.233 2.712 2.712z" fill="#24126a"/><path d="m294.296 222.333-29.824 5.792c-.124 0-.247 0-.37 0v-.246l-1.479-.37v1.725.247c.123.616 1.232 1.109 2.465.986l29.824-5.793z" fill="url(#r)"/><path d="m319.313 212.104-.863.739c-.739-.37-1.971-.247-2.834.246l-21.321 9.244 2.958 1.725 21.321-9.243c.493-.247.739-.616.739-.986z" fill="#959595"/><path d="m283.081 210.008c-.493-.616-1.849-.863-2.835-.493-.123 0-.246.123-.369.123 0-.123-.124-.123-.124-.246-.246-.247-.616-.493-.616-.493v1.725c0 .124.123.37.247.493l13.679 12.571 3.697-1.109z" fill="url(#s)"/><path d="m324.982 232.808-.493.123-.246.617c-.124 0-.247-.124-.37-.124l-26.99-10.968-1.971 2.218 26.989 10.969c.986.246 2.342.123 2.835-.493.123-.124.246-.37.246-.616z" fill="#959595"/><path d="m293.063 223.688-4.436 18.98-.37-.123v1.725c0 .616.739.986 1.725 1.109 1.109.124 2.219-.369 2.465-.985l4.683-20.213z" fill="#959595"/><path d="m323.75 231.822-25.018-10.106 19.718-8.627c.863-.493.986-1.232.247-1.725l-.247-.123c-.739-.493-2.095-.37-2.957.123l-19.719 8.627-12.693-11.585c-.493-.616-1.849-.863-2.835-.493-.986.246-1.479.986-.863 1.602l12.694 11.585-27.729 5.3c-1.109.123-1.972.739-1.725 1.355.123.617 1.232 1.11 2.465.986l27.729-5.299-4.437 18.733c-.123.616.616 1.232 1.725 1.356 1.109.123 2.219-.37 2.465-.986l4.437-18.734 25.017 10.107c.986.246 2.342.123 2.835-.493.37-.617 0-1.233-1.109-1.603zm-27.606-10.106-.493.493-.986-.123-.123-.616.863-.247z" fill="#d7d7d7"/><path d="m295.282 223.195c-1.233 0-2.219-.986-2.219-2.218v-25.265h4.314v25.265c.123 1.356-.863 2.218-2.095 2.218z" fill="#3d3d3d"/><path d="m283.697 165.887c-.123-.616-.493-1.109-1.109-1.479l-.493-.246c-1.725-.986-4.683-.863-6.655.246l-13.803 8.011c-.986.616-1.602 1.356-1.602 2.095v2.342c0 .616.37 1.232 1.109 1.602l.493.247c1.726.985 4.683.862 6.655-.247l13.803-8.011c.986-.616 1.602-1.356 1.602-1.972z" fill="#707070"/><path d="m261.761 176.363-.493-.247c-1.726-.986-1.479-2.711.493-3.82l13.802-8.011c1.972-1.11 4.93-1.233 6.655-.247l.493.247c1.726.986 1.479 2.711-.493 3.82l-13.803 8.011c-2.095 1.109-5.052 1.233-6.654.247z" fill="#ededed"/><path d="m290.845 187.454-28.838 16.638c-1.479.863-2.588 0-2.588-1.971 0-1.849 1.109-4.068 2.588-4.93l33.028-19.103v1.356c0 3.081-1.848 6.778-4.19 8.01z" fill="#515151"/><path d="m292.94 116.466c-.986-.493-2.342-.493-3.697.37l-.863.493c-3.204 1.848-5.792 6.778-5.792 11.092v57.062l7.641-4.437v1.849l-9.243 7.517-20.828 14.05 29.331 16.638 16.884-12.94 9.613-8.258 6.038-66.798z" fill="#d7d7d7"/><path d="m271.496 210.624s-.739-2.095.74-3.574 9.612-4.93 10.229-5.299c.616-.37 3.45-2.465 3.45-2.465l.863-1.972s-16.514 1.602-16.637 1.849c-.247.246-7.764 7.025-7.518 7.271.247.247 5.176 1.479 5.176 1.479l.986 1.356z" fill="#2d2d2d"/><path d="m318.451 133.227-.863.493c-3.204 1.849-5.792 6.779-5.792 11.092v57.062l-20.581 11.955c-1.479.863-2.588 3.081-2.588 4.93 0 1.848 1.109 2.834 2.588 1.972l28.838-16.638c2.342-1.356 4.19-4.93 4.19-8.011v-1.356-57.062c0-4.314-2.588-6.162-5.792-4.437z" fill="#959595"/><path d="m263.733 222.949s-4.19 2.711-5.669 4.313c-1.479 1.603-4.314 4.93-3.081 6.409 1.232 1.602 5.176 2.465 9.366-1.479s3.081-4.19 6.655-6.039c3.574-1.972 4.56-4.067 4.19-5.299-.37-1.233-2.218-3.328-3.204-2.835-1.109.493-8.257 4.93-8.257 4.93z" fill="#3d3d3d"/><path d="m284.314 234.41s-1.479 3.328-2.342 4.437c-.739 1.109-4.56 7.518-2.588 8.997s5.792 1.109 8.75-2.219c2.958-3.204 3.697-7.148 4.437-8.503.739-1.356 2.588-4.807 1.725-6.779-.862-1.972-1.109-2.342-1.109-2.342z" fill="#3d3d3d"/><path d="m268.908 186.592s-12.57 12.447-14.665 18.733c0 0-.863 3.328 1.602 6.039s7.641 11.338 7.641 11.338 3.82 4.684 8.873.986c0 0 2.218-3.574.863-6.039-1.356-2.341-5.053-10.106-5.053-10.106s8.134-5.546 12.077-7.025c3.944-1.355 6.162-2.464 6.162-2.464s-.739 3.82-3.697 7.394c-2.957 3.697-7.764 9.613-6.162 13.68s2.588 5.423 4.067 7.765c1.479 2.341 2.958 7.271 4.314 7.764 1.355.493 7.394 1.109 8.38-2.835.986-3.943-2.095-11.585-3.451-14.173 0 0 16.268-18.856 17.87-20.951 1.479-1.849-33.768-13.311-38.821-10.106z" fill="#4c4c4c"/><path d="m273.099 217.526c-1.356-2.342-5.053-10.106-5.053-10.106s8.134-5.546 12.078-7.025c3.943-1.356 6.162-2.465 6.162-2.465.739-1.109 3.204-5.053 4.313-8.257-9.243-2.712-19.225-4.684-21.69-3.082.862 2.219 5.546 2.219 5.546 2.219s1.725 4.313 2.957 4.806c1.109.493 3.944 0 3.944 0s-.493.74-2.465 2.096c-1.972 1.478-14.419 11.584-14.419 11.584s.74.37 4.067 6.409c3.328 6.039 3.697 9.86 3.697 9.86s2.342-3.574.863-6.039z" fill="#160a5b"/><path d="m301.074 193.247c-7.271-.739-15.775-.739-13.926 3.081 3.204 6.532 9.736 6.779 9.736 6.779 0 2.341-10.106 13.926-10.106 13.926s0 0 2.342 4.56c2.341 4.56 2.095 12.818 2.095 12.818.863-.493 1.602-1.233 1.849-2.342.985-3.944-2.096-11.585-3.451-14.173 0 0 16.267-18.856 17.87-20.952.616-.739-2.219-2.095-6.409-3.697z" fill="#171717" opacity=".6"/><path d="m256.215 153.316 1.972-1.479s10.475-5.793 13.926-7.641c1.848-.986 3.82-2.835 5.299-4.314 1.356-1.479 3.204-2.218 5.176-2.218l18.363-.123s2.095 3.45 2.834 4.067c.493.493 5.546 4.683 9.12 8.134 1.972 1.848 3.451 4.313 4.19 6.901 2.095 7.149 1.972 21.691 2.342 32.044 0 0-1.233.493-4.437 1.109-3.081.616-2.711.247-2.711.247s-4.683 10.475-10.968 11.585c-6.409.985-14.912-1.972-16.391-11.955 0 0-12.324-1.849-15.775-3.205-.37-.123-.37-.492-.246-.739 1.478-1.972 7.024-9.736 7.64-14.666.617-5.793.37-14.173 0-16.515 0 0-9.366 3.574-12.324 4.191 0 0-11.338 12.447-16.144 15.898 0 0 1.602-2.588-1.602-4.314z" fill="#3d3d3d"/><path d="m314.877 189.919c.493-.123.863-.246 1.356-.246l-.616-1.356-17.254-1.849-10.106.493-3.45 3.328c.246 1.109.493 2.095.862 2.958 0 0 4.314.616 6.286.246 1.971-.37 17.253 1.849 17.376 1.849 1.726-2.465 2.835-4.807 2.958-5.053-.123 0 0 .246 2.588-.37z" fill="#171717" opacity=".6"/><path d="m291.585 183.88c0-.123-.123-.123-.123-.123-.863 0-6.162-.123-8.257-.863-2.219-.739-4.56-.616-4.684-.493-.123.124-3.82 1.726-4.066 2.342-.247.616-.493 2.465 0 3.204.492.74.739 1.233.739 1.233h.37s.493.986.739 1.355c.123.124.247.37.247.493.246.493.616 1.356.862 1.356.247 0 1.356.247 1.726.123.246 0 .493-.739.369-1.109 0-.123 0-.123.124-.123.493-.123 1.971-.247 3.943-.123 2.342.246 5.793-1.356 6.039-1.479l3.327-.247c.124 0 .124-.123.124-.246z" fill="#fcd1c5"/><path d="m287.518 148.386s-2.835 10.599.123 21.445c0 0 11.092-20.582 12.201-23.91 1.232-3.327 1.602-5.669.493-6.901-1.109-1.233-11.092 5.053-11.092 5.053z" fill="#f0f6ff"/><path d="m290.352 164.901s2.095-6.409 1.726-8.504c-.37-2.095-.863-3.574-.863-3.574l1.849-1.726.862 1.726s4.19-3.081 4.437-3.698c0 0-3.328 2.342-4.437 2.712 0 0-.493-.863-1.109-1.109-.616-.247-2.341 1.972-2.341 1.972l-.247 3.943-1.602 9.12.616 1.356z" fill="#c4ccd6"/><path d="m292.817 150.727s-1.849-3.327-4.313-2.341c0 0-.37 4.067-.124 4.437-.493.739-1.848 2.711-2.095 4.806-.616 6.039 1.356 12.078 1.356 12.078l1.602-3.081s.37-3.697 1.479-7.641c.739-2.958.37-5.3.123-6.286.863-.493 1.972-1.972 1.972-1.972z" fill="url(#t)"/><path d="m282.465 131.501s-.493 2.588-.37 3.081c.124.493.863.863.617 1.849-.247.986.369 3.944.739 5.053 0 0-.246 1.109.123 1.356.247.369.74.369.986.862.247.493.37 3.082 1.479 3.944 1.109.863 2.465 1.109 3.081.863.74-.247 1.479-.739 1.479-.739l1.602.616s8.257-2.342 8.011-8.134v-.617s.616-.862.739-1.355 1.479-2.958.863-3.944c0 0 3.204-12.571-6.655-13.31-9.983-.74-11.461 6.038-12.694 10.475z" fill="#fcd1c5"/><path d="m300.088 140.252c-.37-.37-.863-.493-1.109-.37-1.109.247-.863-2.095-.863-2.095s-.246.37-.739 3.451c-.616 2.958-6.778 6.532-6.778 6.532l1.602.616c-.123 0 8.134-2.342 7.887-8.134z" fill="#e2b1a6"/><path d="m282.465 126.079c-.986 2.095-1.479 4.437.616 6.162 0 0 1.725.493 4.93-.986 2.218-.986 4.313-.616 5.545-.123.493.123.863.739.863 1.232v1.849c0 .493.247.863.74 1.109l1.478.616.247 1.726c.123.493.616.862 1.109.616l.37-.123s.246-3.821 3.451-3.698c0 0 2.588-5.546-.124-10.722-2.588-5.053-9.859-4.806-11.461-4.19-2.095.739-1.725.616-2.958 1.355-2.095 1.11-3.82 2.958-4.806 5.177z" fill="#3e3e3e"/><path d="m308.592 165.394s-1.479 10.968-2.095 14.049l-4.807 2.589 8.504-.493z" fill="#171717" opacity=".6"/><path d="m301.691 134.336s.862-1.848 1.109-4.437c-3.944 3.205-8.381 2.465-8.381 2.465v1.849c0 .493.247.863.74 1.109l1.479.616.246 1.726c.123.493.616.862 1.109.616l.37-.123c-.123-.123.123-4.067 3.328-3.821z" fill="#4d4d4d"/><path d="m303.785 143.949s-2.588 8.751-3.081 10.476l-2.095-.247.37 2.712-10.968 14.543 12.2-14.05-.493-2.465 1.849.246z" fill="#171717" opacity=".6"/><path d="m292.94 191.398s25.88-.863 26.497-1.356c.616-.493.739-7.148.739-10.968 0-2.712 0-13.311-2.341-20.705 1.848 6.285.862 28.469 0 29.578-.863 1.109-25.388 1.726-25.388 1.726.247 1.109.493 1.725.493 1.725z" fill="#263649"/><path d="m242.166 170.693s-.124.616-1.233 1.232c-1.109.617-3.943 2.096-4.436 2.465-.493.37-2.588 2.219-2.588 2.465 0 .247-.74 2.342-.74 2.465s.247 1.109.247 1.109l-.616 3.081s-.863 1.233.123 1.479c.862.37 1.355-.616 1.355-.739 0 0 1.356-.616 2.342-1.356.986-.739 4.93-3.944 5.546-3.697.616.246 0 1.356-.247 1.479-.369.246-2.341 2.218-1.479 3.697.863 1.356 1.479-.739 1.972-1.232.616-.493 1.849-2.219 2.588-2.465.74-.247 2.095-3.081 2.342-4.314.123-1.232 1.109-2.095 1.355-2.465.37-.369-.739-3.574-.739-3.574l-3.944-1.232-1.355.863z" fill="#fcd1c5"/><path d="m315.986 154.056c-.863-1.233-1.232-.37-2.218.739-1.479 1.479-3.328 3.697-4.314 6.409-1.725 5.053-1.109 17.87-.493 19.596 0 0-16.144 2.711-17.253 2.588-1.109 0 1.355 7.887 1.355 7.887s25.881-.862 26.497-1.355.739-7.149.739-10.969c-.123-3.081-.123-18.24-4.313-24.895z" fill="#334659"/><path d="m292.94 191.399s25.88-.863 26.497-1.356c.616-.493.739-7.148.739-10.969 0-2.711 0-13.31-2.341-20.705 1.848 6.286.862 28.47 0 29.579-.863 1.109-25.388 1.725-25.388 1.725.247 1.109.493 1.726.493 1.726z" fill="#263649"/><path d="m323.258 188.564c-.124-.616-.493-1.109-1.109-1.479l-.493-.247c-1.726-.985-4.684-.862-6.655.247l-13.803 8.011c-.986.616-1.602 1.356-1.602 2.095v2.342c0 .616.369 1.232 1.109 1.602l.493.246c1.725.986 4.683.863 6.655-.246l13.803-8.011c.985-.616 1.602-1.356 1.602-1.972z" fill="#707070"/><path d="m301.198 199.039-.493-.246c-1.726-.986-1.479-2.712.493-3.821l13.802-8.011c1.972-1.109 4.93-1.232 6.655-.246l.493.246c1.726.986 1.479 2.712-.493 3.821l-13.803 8.011c-1.971 1.109-4.929 1.232-6.654.246z" fill="#ededed"/><path d="m276.303 266.947c-.616 0-1.109-.123-1.602-.37-1.109-.616-1.725-1.848-1.725-3.574v-37.096h1.602v37.096c0 .986.369 1.849.862 2.096.617.369 1.356.246 2.342-.247l30.933-17.87c2.218-1.233 3.944-4.437 3.944-6.902v-37.097h1.602v37.097c0 3.081-2.095 6.778-4.807 8.257l-30.809 17.871c-.74.493-1.603.739-2.342.739z" fill="#d7d7d7"/><path d="m197.306 222.949c-.616 0-1.109-.123-1.602-.37-1.109-.616-1.725-1.848-1.725-3.574v-37.096h1.602v37.096c0 .986.37 1.849.863 2.095.616.37 1.355.247 2.341-.246l30.933-17.87c2.219-1.233 3.944-4.437 3.944-6.902v-37.097h1.602v37.097c0 3.081-2.095 6.778-4.806 8.257l-30.81 17.871c-.739.493-1.602.739-2.342.739z" fill="#d7d7d7"/><path d="m195.297 195.075-.791 1.394 79.011 44.807.79-1.394z" fill="#d7d7d7"/><path d="m274.085 234.041-84.173-48.682 45.229-26.128 84.173 48.682z" fill="url(#u)" opacity=".5"/><path d="m189.912 181.292v4.068l84.173 48.681 45.229-26.128v-4.067l-45.229 26.128z" fill="url(#v)"/><path d="m274.085 229.974-84.173-48.682 45.229-26.127 84.173 48.681z" fill="url(#w)"/><path d="m279.014 192.138s3.204 1.109 5.669.739 14.419-.616 14.419-.616l-1.849-1.109-4.19-2.958-10.352.739-3.943 1.479z" fill="#020230" opacity=".4"/><path d="m291.585 183.881c0-.124-.123-.124-.123-.124-.863 0-6.162-.123-8.257-.862-2.219-.74-4.56-.616-4.684-.493-.123.123-3.82 1.725-4.066 2.341-.247.617-.493 2.465 0 3.205.492.739.739 1.232.739 1.232h.37s.493.986.739 1.356c.123.123.247.37.247.493.246.493.616 1.356.862 1.356.247 0 1.356.246 1.726.123.246 0 .493-.74.369-1.109 0-.124 0-.124.124-.124.493-.123 1.971-.246 3.943-.123 2.342.247 5.793-1.356 6.039-1.479l3.327-.246c.124 0 .124-.124.124-.247z" fill="#fcd1c5"/><path d="m315.986 154.056c-.863-1.233-1.232-.37-2.218.739-1.479 1.479-3.328 3.697-4.314 6.409-1.725 5.053-1.109 17.87-.493 19.596 0 0-16.144 2.711-17.253 2.588-1.109 0 1.355 7.887 1.355 7.887s25.881-.862 26.497-1.355.739-7.149.739-10.969c-.123-3.081-.123-18.24-4.313-24.895z" fill="#3d3d3d"/><path d="m292.94 191.399s25.88-.863 26.497-1.356c.616-.493.739-7.148.739-10.969 0-2.711 0-13.31-2.341-20.705 1.848 6.286.862 28.47 0 29.579-.863 1.109-25.388 1.725-25.388 1.725.247 1.109.493 1.726.493 1.726z" fill="#171717" opacity=".6"/><path d="m246.602 178.211s9.243-7.271 10.599-7.887c1.356-.74 1.849-1.233 1.849-1.233l-3.081-1.725-5.176 2.095-6.532 6.532-10.106 7.148v1.725s8.381-3.574 9.366-4.19c.74-.739 3.081-2.465 3.081-2.465z" fill="#180d5b" opacity=".3"/><path d="m241.056 184.743s1.972-1.725 3.205-2.341c1.232-.617 3.327-2.096 3.573-3.328.247-1.232 2.342-3.821 2.342-3.821l-3.327 1.972-4.93 2.835-8.134 4.683s.493.616 1.479.247c.986-.37 2.958-1.602 3.82-1.726.863-.123 2.342-.369 2.342-.369z" fill="#2d2d2d" opacity=".63"/><path d="m242.166 170.693s-.124.617-1.233 1.233-3.943 2.095-4.436 2.465-2.588 2.218-2.588 2.465c0 .246-.74 2.341-.74 2.465 0 .123.247 1.109.247 1.109l-.616 3.081s-.863 1.232.123 1.479c.862.37 1.355-.616 1.355-.74 0 0 1.356-.616 2.342-1.355.986-.74 4.93-3.944 5.546-3.698.616.247 0 1.356-.247 1.479-.369.247-2.341 2.219-1.479 3.698.863 1.355 1.479-.74 1.972-1.233.616-.493 1.849-2.218 2.588-2.465.74-.246 2.095-3.081 2.342-4.313.123-1.233 1.109-2.095 1.355-2.465.37-.37-.739-3.574-.739-3.574l-3.944-1.233-1.355.863z" fill="#fcd1c5"/><path d="m277.166 149.372s-.124-5.792.862-10.229c-.246.247-.493.493-.739.74-1.356 1.478-3.328 3.327-5.299 4.313-3.451 1.849-13.926 7.641-13.926 7.641l-1.972 1.479c-6.162 4.807-12.94 15.282-14.05 17.378.493-.617 1.726-1.726 4.067-.493 3.205 1.725 1.726 4.313 1.726 4.313 4.806-3.451 16.021-15.898 16.021-15.898 2.834-.617 11.215-3.698 12.201-4.067.862-1.726 1.232-3.451 1.109-5.177z" fill="#3d3d3d"/><path d="m226.884 191.522 33.891 19.596c.37.246.986.246 1.232 0l20.212-11.709c.369-.246.246-.493-.124-.739l-33.891-19.596c-.369-.246-.985-.246-1.232 0l-20.211 11.708c-.37.123-.247.493.123.74z" fill="#020230" opacity=".6"/><path d="m225.282 188.933 1.849.986 18.732-10.845c.37-.123.863-.123 1.233 0l32.288 18.61c.37-.123 1.726-.863 1.726-.863l-.74 1.725c0 .124-.123.124-.246.247l-19.719 11.338c-.369.124-.862.124-1.232 0l-33.028-19.102c-.123-.124-.247-.247-.247-.247z" fill="#171717"/><path d="m225.653 189.303 33.89 19.596c.37.246.986.246 1.233 0l20.211-11.708c.37-.247.247-.493-.123-.74l-33.891-19.596c-.37-.246-.986-.246-1.232 0l-20.212 11.708c-.369.124-.246.493.124.74z" fill="#4d4d4d"/><path d="m237.36 186.592 22.922 13.31 1.11-.616-22.923-13.31z" fill="#24126a"/><path d="m235.634 187.578 26.99 15.652 1.109-.617-26.99-15.652z" fill="#06033e" opacity=".4"/><path d="m233.909 188.563 26.99 15.653.986-.617-26.867-15.652z" fill="#06033e" opacity=".4"/><path d="m232.184 189.673 26.989 15.529.986-.617-26.866-15.528z" fill="#24126a"/><path d="m267.183 199.532-26.126-15.035-.986.616 25.88 14.912 1.109.617.986-.617z" fill="#06033e" opacity=".4"/><path d="m258.927 199.04 5.422 3.204 1.109-.616-5.422-3.205z" fill="#06033e" opacity=".4"/><path d="m225.405 188.44 4.314-25.388-.37-.123.493-.247c.123-.123.246-.123.37 0l34.137 19.719c.246.124.493.617.493.863l-4.313 25.635c0 .123-.124.246-.124.246l-.493.247-.123-.493-34.014-19.596c-.246-.123-.493-.493-.37-.863z" fill="#878787"/><path d="m264.226 183.141.616-.246c.123.123.123.246.123.369l-4.313 25.635c0 .123-.123.247-.123.247l-.493.246-.124-.493-1.725-.986z" fill="#b6b6b6"/><path d="m225.282 189.674 34.137 19.719c.247.123.493.123.493-.247l4.314-25.635c0-.246-.124-.739-.493-.862l-34.138-19.719c-.246-.124-.493-.124-.493.246l-4.313 25.635c0 .246.247.616.493.863z" fill="#e8e8e8"/></g></svg>