<svg width="32" height="32" viewBox="0 0 32 32" fill="none" xmlns="http://www.w3.org/2000/svg">
<g clip-path="url(#clip0_0_4740)">
<path d="M27.9999 6V16C27.9999 19.308 25.3079 22 21.9999 22H13.1099L8.71191 25.768C9.11991 25.908 9.54791 26 9.99991 26H19.6299L26.3479 31.76C26.5339 31.918 26.7659 32 26.9999 32C27.1419 32 27.2859 31.97 27.4179 31.908C27.7739 31.746 27.9999 31.39 27.9999 31V26C30.2059 26 31.9999 24.206 31.9999 22V10C31.9999 7.794 30.2059 6 27.9999 6Z" fill="white"/>
<path d="M22 0H4C1.794 0 0 1.794 0 4V16C0 18.206 1.794 20 4 20V25C4 25.39 4.228 25.746 4.582 25.908C4.716 25.97 4.858 26 5 26C5.234 26 5.466 25.918 5.65 25.76L12.37 20H22C24.206 20 26 18.206 26 16V4C26 1.794 24.206 0 22 0ZM15 12H7C6.448 12 6 11.552 6 11C6 10.448 6.448 10 7 10H15C15.552 10 16 10.448 16 11C16 11.552 15.552 12 15 12ZM19 8H7C6.448 8 6 7.552 6 7C6 6.448 6.448 6 7 6H19C19.552 6 20 6.448 20 7C20 7.552 19.552 8 19 8Z" fill="white"/>
</g>
<defs>
<clipPath id="clip0_0_4740">
<rect width="32" height="32" fill="white"/>
</clipPath>
</defs>
</svg>
