<svg fill="none" height="46" viewBox="0 0 36 46" width="36" xmlns="http://www.w3.org/2000/svg"><g fill="#fff"><path d="m24.168 13.4766c-1.7339 0-3.1446-1.4107-3.1446-3.1446v-10.332h-16.08199c-2.7247 0-4.94141 2.21671-4.94141 4.94141v36.11719c0 2.7247 2.21671 4.9414 4.94141 4.9414h25.15629c2.7246 0 4.9414-2.2167 4.9414-4.9414v-27.582zm-16.80081 18.8672h6.53341c.7443 0 1.3477.6033 1.3477 1.3476s-.6034 1.3477-1.3477 1.3477h-6.53341c-.74427 0-1.34766-.6034-1.34766-1.3477s.60339-1.3476 1.34766-1.3476zm-1.34766-5.8399c0-.7443.60339-1.3477 1.34766-1.3477h19.76561c.7443 0 1.3477.6034 1.3477 1.3477s-.6034 1.3477-1.3477 1.3477h-19.76561c-.74427 0-1.34766-.6034-1.34766-1.3477zm21.11327-8.5351c.7443 0 1.3477.6033 1.3477 1.3476s-.6034 1.3477-1.3477 1.3477h-19.76561c-.74427 0-1.34766-.6034-1.34766-1.3477s.60339-1.3476 1.34766-1.3476z"/><path d="m23.7188 10.3322c0 .2477.2015.4492.4492.4492h10.2704c-.2466-.4551-.5637-.87318-.9447-1.23372l-8.663-8.19573c-.3362-.31804-.7107-.583352-1.1119-.792868z"/></g></svg>