<svg fill="none" height="46" viewBox="0 0 35 46" width="35" xmlns="http://www.w3.org/2000/svg"><g fill="#fff"><path d="m10.1046 8.56499v-8.56499h-.0961c-.35732 0-.7002.142136-.95288.394821l-8.660799 8.660799c-.252685.25268-.394821.59556-.394821.95288v.0961h8.56534c.8486 0 1.53926-.69066 1.53926-1.53961z"/><path d="m30.2177 0h-17.4178v8.56499c0 2.33491-1.8997 4.23461-4.23456 4.23461h-8.56534v28.9658c0 2.3349 1.8997 4.2346 4.23459 4.2346h25.98311c2.3282 0 4.2346-1.8825 4.2346-4.2346v-37.53081c0-2.32822-1.8825-4.23459-4.2346-4.23459zm-17.8126 30.708c.5264.5264.5264 1.3796 0 1.906-.5261.5261-1.3792.5264-1.906 0l-4.33041-4.3304c-.52608-.5264-.52608-1.3796 0-1.906l4.33041-4.3304c.5264-.5265 1.3796-.5265 1.906 0 .5264.526.5264 1.3796 0 1.9056l-3.37756 3.3776zm7.5718-8.8247-2.8869 11.5481c-.1706.6819-.8725 1.1711-1.6344.9805-.7219-.1807-1.161-.9125-.9806-1.6344l2.8873-11.5477c.1804-.7223.9121-1.1613 1.634-.9806.7223.1804 1.1613.9122.9806 1.6341zm8.3067 6.4003-4.3308 4.3304c-.526.5261-1.3792.5264-1.9056 0-.5265-.5264-.5265-1.3796 0-1.906l3.3775-3.3776-3.3775-3.3776c-.5265-.526-.5265-1.3796 0-1.9056.526-.5265 1.3796-.5265 1.9056 0l4.3308 4.3304c.5261.526.5261 1.3796 0 1.906z"/></g></svg>