<svg fill="none" height="26" viewBox="0 0 26 26" width="26" xmlns="http://www.w3.org/2000/svg"><circle cx="13" cy="13" fill="#fff" r="12"/><g stroke="#171717" stroke-linecap="round" stroke-linejoin="round" stroke-width="2"><path d="m13 25c6.6274 0 12-5.3726 12-12 0-6.62742-5.3726-12-12-12-6.62742 0-12 5.37258-12 12 0 6.6274 5.37258 12 12 12z"/><path d="m1.7998 9h22.4"/><path d="m1.7998 17h22.4"/><path d="m12.3326 1c-2.2462 3.59948-3.43709 7.75715-3.43709 12 0 4.2428 1.19089 8.4005 3.43709 12"/><path d="m13.667 1c2.2462 3.59948 3.4371 7.75715 3.4371 12 0 4.2428-1.1909 8.4005-3.4371 12"/></g></svg>