<svg fill="none" height="46" viewBox="0 0 35 46" width="35" xmlns="http://www.w3.org/2000/svg"><g fill="#fff"><path d="m34.2397 42.368-5.3298-10.8081c-7.2258-2.9509-13.2877-6.5902-21.41266-4.3689l-7.304302 15.1988c-.695301 1.7271.574461 3.6103 2.434222 3.6103h29.18724c1.8699 0 3.1399-1.902 2.4253-3.6321zm-24.3351-3.6856c-.56009.5601-1.46751.5606-2.02688.0013-1.29231-1.3917.637-3.3203 2.02814-2.0282.55934.5594.55884 1.4669-.00126 2.0269zm4.7658-4.1561c-.5601.5601-1.4675.5607-2.0269.0013-1.2923-1.3917.637-3.3203 2.0281-2.0281.5593.5593.5588 1.4668-.0012 2.0268zm7.6031 7.207c-2.355 0-4.2708-1.9176-4.2708-4.2746.2147-5.6626 8.3278-5.6611 8.5416 0 0 2.357-1.9158 4.2746-4.2708 4.2746z"/><path d="m22.2737 35.8799c-.8687 0-1.5755.7083-1.5755 1.5789.0793 2.0924 3.0722 2.0918 3.151 0 0-.8706-.7067-1.5789-1.5755-1.5789z"/><path d="m27.1129 0h-20.00644c-.72567 0-1.35008.55766-1.38423 1.28252-.03638.77391.58031 1.41279 1.34622 1.41279h3.78125v1.59563c.0478-.01312 4.0808.00485 4.1299-.00216.7255 0 1.3499.55766 1.3841 1.28252.0365.77391-.5802 1.41279-1.3461 1.41279-.057-.00637-4.1125.00719-4.1679-.00215v3.19376c.0478-.0131 3.8689.0049 3.9178-.0022.7256 0 1.35.5577 1.3842 1.2826.0364.7739-.5803 1.4128-1.3462 1.4128-.082-.008-3.869.0084-3.9558-.0022v3.4531c.0478-.0131 3.8689.005 3.9178-.0021.7256 0 1.35.5577 1.3842 1.2825.0364.7739-.5803 1.4128-1.3462 1.4128-.082-.008-3.869.0085-3.9558-.0022 0 .7926-.1782 1.5752-.5216 2.2896l-1.36179 2.8335c6.88329-1.1774 11.98689 1.0588 18.12899 3.7466l-3.2349-6.5601c-.3585-.7271-.5451-1.527-.5451-2.3378v-16.28729h3.7595c1.8151-.05759 1.8445-2.6157084.0381-2.69531z"/></g></svg>