<svg fill="none" height="46" viewBox="0 0 46 46" width="46" xmlns="http://www.w3.org/2000/svg"><path d="m46 23c0 12.7027-10.2973 23-23 23s-23-10.2973-23-23 10.2973-23 23-23 23 10.2973 23 23z" fill="#fff"/><path d="m23.0001 6.91455c-8.8696 0-16.08555 7.21595-16.08555 16.08555s7.21595 16.0855 16.08555 16.0855 16.0855-7.2159 16.0855-16.0855-7.2159-16.08555-16.0855-16.08555zm0 2.69531c7.3833 0 13.3902 6.00654 13.3902 13.39024 0 1.6804-.312 3.2891-.8798 4.7722h-3.2319v-11.9158l-9.2785 9.3518-9.2788-9.3518v11.9158h-3.2316c-.56784-1.4831-.87984-3.0918-.87984-4.7722 0-7.3833 6.00694-13.39024 13.39024-13.39024zm0 26.78044c-4.6206 0-8.7019-2.3524-11.1094-5.9226h4.5259v-8.0677l6.5835 6.6351 6.5832-6.6351v8.0677h4.5262c-2.4075 3.5702-6.4888 5.9226-11.1094 5.9226z" fill="#323232"/></svg>