<svg fill="none" height="46" viewBox="0 0 46 46" width="46" xmlns="http://www.w3.org/2000/svg"><path d="m43.3047 27.7486v-9.4972c1.5385-.3311 2.6953-1.7014 2.6953-3.3373 0-2.7027-3.0004-4.318-5.2491-2.8787l-6.7863-6.78628c1.4395-2.24897-.1763-5.24912-2.8787-5.24912-2.1187 0-3.7438 1.92499-3.3573 4.03129l-7.8986 3.28226-2.0477-2.04781c1.4484-2.23306-.1433-5.26574-2.8682-5.26574-2.6992 0-4.3203 2.99683-2.8787 5.24921l-6.78628 6.78629c-2.24924-1.4398-5.24912.1767-5.24912 2.8786 0 2.1229 1.92859 3.7429 4.03129 3.3573l1.96497 4.7286-1.96497 4.7286c-2.11034-.3873-4.03129 1.2426-4.03129 3.3573 0 2.7027 3.00042 4.318 5.24912 2.8787l6.78628 6.7863c-1.4397 2.2492.1768 5.2491 2.8787 5.2491 1.6359 0 3.0061-1.1568 3.3372-2.6953h9.4973c.3311 1.5385 1.7014 2.6953 3.3372 2.6953 1.8825 0 3.4141-1.5316 3.4141-3.4141s-1.5316-3.414-3.4141-3.414c-1.6359 0-3.0061 1.1568-3.3372 2.6953h-9.2328l21.2647-8.8365c1.8856 2.7292 6.2195 1.4019 6.2195-1.9448 0-1.6359-1.1568-3.0061-2.6953-3.3373zm-36.53183 2.7281 1.98914-.8212 4.11599 9.905-6.6061-6.6062c.48363-.7359.65586-1.6213.50097-2.4776zm18.73993-15.4474-3.0633 7.4204-12.91034 5.3298-1.98618-4.7795 4.53482-10.9127 7.4054-3.07768zm6.8967 4.8637 4.0513-1.6725 4.0699 9.7937zm5.3801-2.2211 1.9858-.8198c.4928.7175 1.2401 1.2173 2.0918 1.3991v9.233zm1.4375-2.1486-1.9891.8212-4.116-9.90486 6.6061 6.60616c-.4836.7358-.6559 1.6212-.501 2.4775zm-8.75-8.75043c.3965.07179.8039.07601 1.2261-.00144l4.206 10.12157-4.6004 1.8993-4.101-4.101zm-.6073 12.61343-5.5455 2.2894 2.2894-5.5454zm-8.1943 4.9381-6.1522 14.9028c-.4096-.074-.8165-.0737-1.2265.0015l-4.2061-10.1217zm-3.9571 16.3174c-.2347-.3371-.5291-.6308-.8669-.8647l6.6989-16.2266 7.4202-3.0633 8.7472 8.7471c-.4821.7433-.6438 1.6266-.4891 2.4691zm10.5632-35.2837c.2346.33719.5292.63106.8672.86502l-3.0419 7.36718-5.1775-5.17751zm-15.412 4.8479 1.4272-3.43466c.8443.15498 1.7272-.00799 2.4689-.48911l1.6281 1.62806zm-6.42996 2.672 6.43836-6.43836-1.89 4.54836zm-1.08091 4.8417c1.09879-.7591 1.65681-2.0919 1.41279-3.4229l3.43468-1.4274-3.43153 8.2576zm2.85164 10.6084-1.98743.8204c-.23396-.3378-.52774-.6323-.86475-.8669l1.41648-3.4085z" fill="#fff"/></svg>