<svg fill="none" height="46" viewBox="0 0 46 46" width="46" xmlns="http://www.w3.org/2000/svg"><path d="m32.637 0h-19.274c-8.372 0-13.363 4.991-13.363 13.363v19.251c0 8.395 4.991 13.386 13.363 13.386h19.251c8.372 0 13.363-4.991 13.363-13.363v-19.274c.023-8.372-4.968-13.363-13.34-13.363zm-25.162 22.747c.069-4.048 1.679-7.866 4.531-10.718 2.944-2.944 6.854-4.554 10.994-4.554s8.05 1.61 10.971 4.554c.069.069.138.161.207.253v-1.978c0-.943.782-1.725 1.725-1.725s1.725.782 1.725 1.725v6.095c0 .943-.782 1.725-1.725 1.725h-6.095c-.943 0-1.725-.782-1.725-1.725s.782-1.725 1.725-1.725h1.909c-.069-.069-.115-.138-.184-.207-2.277-2.277-5.313-3.542-8.533-3.542s-6.256 1.265-8.533 3.542c-2.231 2.231-3.473 5.198-3.519 8.349-.023.92-.805 1.679-1.748 1.679h-.023c-.943 0-1.702-.805-1.702-1.748zm26.496 11.224c-2.921 2.921-6.831 4.554-10.971 4.554s-8.05-1.61-10.971-4.554c-.069-.069-.138-.161-.207-.253v1.955c0 .943-.782 1.725-1.725 1.725s-1.725-.782-1.725-1.725v-6.095c0-.943.782-1.725 1.725-1.725h6.095c.943 0 1.725.782 1.725 1.725s-.782 1.725-1.725 1.725h-1.909c.069.069.115.138.184.207 2.277 2.277 5.313 3.542 8.533 3.542s6.256-1.265 8.533-3.542c2.254-2.254 3.519-5.267 3.519-8.487 0-.943.782-1.725 1.725-1.725s1.725.782 1.725 1.725c0 4.163-1.61 8.05-4.531 10.948z" fill="#fff"/></svg>