<svg fill="none" height="32" viewBox="0 0 32 32" width="32" xmlns="http://www.w3.org/2000/svg" xmlns:xlink="http://www.w3.org/1999/xlink"><clipPath id="a"><path d="m6.66699 9.33325h18v14h-18z"/></clipPath><circle cx="16" cy="16" fill="#4d4d4d" r="16"/><g clip-path="url(#a)"><path d="m21.9048 10.5799c-1.1473-.5285-2.3776-.91795-3.6639-1.14098-.0234-.0043-.0468.00646-.0589.02797-.1582.28255-.3335.65111-.4562.94091-1.3835-.208-2.7599-.208-4.1151 0-.1227-.2962-.3043-.65836-.4633-.94091-.012-.0208-.0354-.03155-.0589-.02797-1.2856.22232-2.5158.61168-3.66381 1.14098-.00993.0043-.01845.0115-.02411.0208-2.33354 3.5003-2.9728 6.9147-2.6592 10.2867.00142.0165.01064.0322.02341.0423 1.53961 1.1352 3.03098 1.8244 4.49471 2.2812.0234.0072.0482-.0015.0631-.0208.3462-.4747.6549-.9753.9195-1.5017.0156-.0308.0007-.0674-.0312-.0796-.4896-.1865-.9557-.4138-1.4041-.672-.0355-.0208-.0383-.0717-.0057-.0961.0944-.071.1888-.1448.2789-.2194.0163-.0136.039-.0165.0581-.0079 2.9459 1.3504 6.135 1.3504 9.0461 0 .0192-.0093.0419-.0065.0589.0072.0901.0745.1845.1491.2796.2201.0326.0244.0305.0753-.005.0961-.4484.2632-.9146.4855-1.4048.6713-.0319.0122-.0461.0495-.0305.0803.2703.5256.5789 1.0262.9188 1.501.0142.02.0397.0287.0631.0215 1.4708-.4568 2.9622-1.146 4.5018-2.2812.0135-.0101.022-.0251.0234-.0416.3753-3.8984-.6286-7.2847-2.6613-10.2867-.005-.01-.0135-.0172-.0234-.0215zm-9.2228 8.2543c-.8869 0-1.6177-.8176-1.6177-1.8216s.7166-1.8215 1.6177-1.8215c.9081 0 1.6318.8247 1.6177 1.8215 0 1.004-.7167 1.8216-1.6177 1.8216zm5.9811 0c-.8869 0-1.6177-.8176-1.6177-1.8216s.7166-1.8215 1.6177-1.8215c.9081 0 1.6318.8247 1.6176 1.8215 0 1.004-.7095 1.8216-1.6176 1.8216z" fill="#fff"/></g></svg>