<svg fill="none" height="32" viewBox="0 0 32 32" width="32" xmlns="http://www.w3.org/2000/svg"><path d="m32 16c0-8.83653-7.1634-15.99996376-16-15.99996376-8.83656 0-16 7.16343376-16 15.99996376 0 7.9861 5.85097 14.6053 13.5 15.8057v-11.1807h-4.0625v-4.625h4.0625v-3.525c0-4.00996 2.3887-6.22496 6.0434-6.22496 1.7506 0 3.5816.3125 3.5816.3125v3.93746h-2.0176c-1.9876 0-2.6074 1.2334-2.6074 2.4987v3.0013h4.4375l-.7094 4.625h-3.7281v11.1807c7.649-1.2004 13.5-7.8196 13.5-15.8057z" fill="#4d4d4d"/><path d="m22.2281 20.625.7094-4.625h-4.4375v-3.0013c0-1.2654.6198-2.4987 2.6074-2.4987h2.0176v-3.9375s-1.831-.3125-3.5816-.3125c-3.6547 0-6.0434 2.215-6.0434 6.225v3.525h-4.0625v4.625h4.0625v11.1806c.8146.1278 1.6495.1944 2.5.1944s1.6854-.0666 2.5-.1944v-11.1806z" fill="#fff"/></svg>