<svg fill="none" height="32" viewBox="0 0 32 32" width="32" xmlns="http://www.w3.org/2000/svg" xmlns:xlink="http://www.w3.org/1999/xlink"><linearGradient id="a" gradientUnits="userSpaceOnUse" x1="18.0058" x2="20.5028" y1="16.0013" y2="21.6905"><stop offset="0" stop-color="#eff7fc"/><stop offset="1" stop-color="#fff"/></linearGradient><path d="m16 32c8.8366 0 16-7.1634 16-16 0-8.83656-7.1634-16-16-16-8.83656 0-16 7.16344-16 16 0 8.8366 7.16344 16 16 16z" fill="#4d4d4d"/><path d="m13.0669 23.3334c-.5184 0-.4302-.1957-.609-.6893l-1.5243-5.0164 11.7333-6.961" fill="#e4e4e4"/><path d="m13.0664 23.3332c.4 0 .5767-.1829.8-.4l2.1333-2.0744-2.661-1.6046" fill="#d1d1d1"/><path d="m13.3386 19.2547 6.448 4.7639c.7359.406 1.2668.1957 1.4502-.6831l2.6246-12.3684c.2687-1.07734-.4106-1.56614-1.1146-1.24654l-15.41203 5.94284c-1.052.422-1.04573 1.0089-.19173 1.2704l3.95506 1.2345 9.1564-5.7767c.4323-.2621.8291-.1213.5035.1678" fill="url(#a)"/></svg>