<svg width="32" height="32" viewBox="0 0 32 32" fill="none" xmlns="http://www.w3.org/2000/svg">
<g id="Group 29">
<circle id="Ellipse 14" cx="16" cy="16" r="16" fill="#4D4D4D"/>
<g id="Group">
<path id="Vector" d="M13.2035 24.0001C20.2478 24.0001 24.1001 18.1015 24.1001 12.9865C24.1001 12.819 24.0967 12.6522 24.0893 12.4861C24.8371 11.9398 25.487 11.2579 25.9997 10.4817C25.3135 10.79 24.575 10.9975 23.8004 11.0911C24.591 10.6119 25.1981 9.85383 25.4845 8.95013C24.7445 9.3935 23.9251 9.71575 23.0526 9.88973C22.3537 9.13734 21.3588 8.66675 20.2571 8.66675C18.1421 8.66675 16.4271 10.4003 16.4271 12.5371C16.4271 12.8408 16.4607 13.1363 16.5264 13.4197C13.3434 13.2578 10.5209 11.7175 8.63199 9.37539C8.30308 9.94743 8.11343 10.6119 8.11343 11.3209C8.11343 12.6639 8.78955 13.8495 9.81771 14.543C9.18938 14.5234 8.59913 14.3491 8.08324 14.0589C8.08267 14.0751 8.08267 14.091 8.08267 14.1083C8.08267 15.983 9.40279 17.5481 11.1552 17.9028C10.8334 17.9915 10.4948 18.039 10.1453 18.039C9.89891 18.039 9.65885 18.0145 9.42552 17.9692C9.91309 19.5072 11.3269 20.6265 13.0031 20.6577C11.6924 21.6962 10.0411 22.3146 8.24654 22.3146C7.93779 22.3146 7.63278 22.2969 7.33301 22.2611C9.02796 23.3591 11.0405 23.9998 13.2037 23.9998" fill="white"/>
</g>
</g>
</svg>
