<svg fill="none" height="69" viewBox="0 0 69 69" width="69" xmlns="http://www.w3.org/2000/svg"><path d="m69 34.5c0-2.4613-1.6731-4.5908-4.0515-5.1715l-.5531-.1383-.1106-.5531c-.7606-3.775-2.3784-7.5499-4.6738-10.9377l-.318-.484.3042-.4978c1.286-2.1018.9541-4.7843-.7882-6.5266s-4.4248-2.06034-6.5266-.78819l-.4978.3042-.484-.31803c-3.4293-2.32305-7.1074-3.88557-10.9377-4.67375l-.5531-.11062-.1383-.55311c-.5807-2.37835-2.7102-4.0515-5.1715-4.0515s-4.5908 1.67315-5.1715 4.0515l-.1383.55311-.5531.11062c-3.8303.77435-7.5084 2.3507-10.9377 4.67375l-.484.31803-.4978-.3042c-2.1018-1.27215-4.7843-.95411-6.5266.78819s-2.07417 4.4248-.78819 6.5266l.3042.4978-.31803.484c-2.28157 3.3739-3.8994 7.1627-4.67375 10.9377l-.11062.5531-.55311.1383c-2.37835.5807-4.0515 2.7102-4.0515 5.1715s1.67315 4.5908 4.0515 5.1715l.55311.1383.11062.5531c.77435 3.8303 2.3507 7.5084 4.67375 10.9377l.31803.484-.3042.4978c-1.27215 2.1018-.95411 4.7843.78819 6.5266s4.4248 2.0603 6.5266.7882l.4978-.3042.484.318c3.4293 2.3231 7.1074 3.8856 10.9377 4.6738l.5531.1106.1383.5531c.5807 2.3922 2.7102 4.0515 5.1715 4.0515s4.5908-1.6731 5.1715-4.0515l.1383-.5531.5531-.1106c3.8303-.7744 7.5084-2.3507 10.9377-4.6738l.484-.318.4978.3042c2.1018 1.2721 4.7843.9541 6.5266-.7882s2.0603-4.4248.7882-6.5266l-.3042-.4978.318-.484c2.3231-3.4293 3.8856-7.1074 4.6738-10.9377l.1106-.5531.5531-.1383c2.3784-.5807 4.0515-2.7102 4.0515-5.1715zm-16.0677-22.6359c.5669-.5669 1.3136-.8711 2.1018-.8711.7881 0 1.5348.3042 2.1018.8711.5669.567.8711 1.3137.8711 2.1018 0 .7882-.3042 1.5349-.8711 2.1018-.567.567-1.3137.8712-2.1018.8712-.7882 0-1.5349-.3042-2.1018-.8712-1.1616-1.1615-1.1616-3.042 0-4.2036zm-18.4323-9.5134c1.6455 0 2.9729 1.32746 2.9729 2.97295s-1.3274 2.97294-2.9729 2.97294-2.9729-1.32745-2.9729-2.97294 1.3274-2.97295 2.9729-2.97295zm-22.6359 9.5134c.567-.5669 1.3137-.8711 2.1018-.8711.7882 0 1.5349.3042 2.1018.8711 1.1616 1.1616 1.1616 3.0421 0 4.2036-.5669.567-1.3136.8712-2.1018.8712-.7881 0-1.5348-.3042-2.1018-.8712-.5669-.5669-.8711-1.3136-.8711-2.1018 0-.7881.3042-1.5348.8711-2.1018zm-9.5134 22.6359c0-1.6455 1.32746-2.9729 2.97295-2.9729s2.97294 1.3274 2.97294 2.9729-1.32745 2.9729-2.97294 2.9729-2.97295-1.3274-2.97295-2.9729zm13.717 22.6359c-.5669.5669-1.3136.8711-2.1018.8711-.7881 0-1.5348-.3042-2.1018-.8711-.5669-.567-.8711-1.3137-.8711-2.1018 0-.7882.3042-1.5349.8711-2.1018 1.1616-1.1616 3.0421-1.1616 4.2036 0 1.1616 1.1615 1.1616 3.042 0 4.2036zm18.4323 9.5134c-1.6455 0-2.9729-1.3275-2.9729-2.973 0-1.6454 1.3274-2.9729 2.9729-2.9729s2.9729 1.3275 2.9729 2.9729c0 1.6455-1.3274 2.973-2.9729 2.973zm22.6359-9.5134c-.567.5669-1.3137.8711-2.1018.8711-.7882 0-1.5349-.3042-2.1018-.8711-1.1616-1.1616-1.1616-3.0421 0-4.2036 1.1615-1.1616 3.042-1.1616 4.2036 0 .5669.5669.8711 1.3136.8711 2.1018 0 .7881-.318 1.5348-.8711 2.1018zm4.7429-16.8283c-.7191 3.2633-2.0742 6.4022-4.0101 9.3475l-.3871.5808-.6638-.2351c-1.9358-.6776-4.1068-.1936-5.5449 1.2445-1.438 1.4381-1.9358 3.6228-1.2444 5.5449l.235.6637-.5807.3872c-2.9453 1.9497-6.098 3.291-9.3475 4.01l-.6914.1521-.3042-.6499c-.885-1.8529-2.7656-3.0421-4.812-3.0421-2.0327 0-3.9271 1.1892-4.8121 3.0421l-.3042.6499-.6914-.1521c-3.2633-.719-6.4022-2.0741-9.3475-4.01l-.5807-.3872.2351-.6637c.6775-1.9359.1935-4.1068-1.2445-5.5449-1.4381-1.4381-3.6229-1.9359-5.5449-1.2445l-.6638.2351-.3871-.5808c-1.94973-2.9453-3.29101-6.098-4.01005-9.3475l-.1521-.6914.6499-.3042c1.8529-.8849 3.04205-2.7655 3.04205-4.812 0-2.0327-1.18915-3.9271-3.04205-4.812l-.6499-.3042.1521-.6914c.71904-3.2633 2.07415-6.4022 4.01005-9.3475l.3871-.5808.6638.2351c1.9358.6776 4.1068.1936 5.5449-1.2445 1.4519-1.4519 1.9358-3.6228 1.2583-5.5587l-.2351-.6637.5946-.3872c2.9453-1.93588 6.098-3.29099 9.3475-4.01003l.6914-.1521.3042.6499c.885 1.8529 2.7655 3.04203 4.812 3.04203 2.0327 0 3.9271-1.18913 4.812-3.04203l.3042-.6499.6914.1521c3.2634.71904 6.4022 2.07415 9.3475 4.01003l.5946.3872-.2351.6637c-.6775 1.922-.1935 4.1068 1.2584 5.5449 1.438 1.4381 3.6228 1.9359 5.5448 1.2445l.6638-.2351.3871.5808c1.9497 2.9453 3.291 6.098 4.0101 9.3475l.1521.6913-.6499.3042c-1.8529.885-3.0421 2.7656-3.0421 4.8121 0 2.0326 1.1892 3.927 3.0421 4.812l.6499.3042zm1.7975-2.8347c-1.6454 0-2.9729-1.3274-2.9729-2.9729s1.3275-2.9729 2.9729-2.9729c1.6455 0 2.973 1.3274 2.973 2.9729s-1.3275 2.9729-2.973 2.9729z" fill="#fff"/><path d="m34.5 16.7314c-9.8038 0-17.7686 7.9648-17.7686 17.7686s7.9648 17.7685 17.7686 17.7685 17.7685-7.9647 17.7685-17.7685-7.9647-17.7686-17.7685-17.7686zm6.4298 3.7612c2.489 1.1477 4.6461 2.9453 6.2225 5.1992l.9818 1.4104h-6.8586l-.1521-.7191c-.3595-1.7699-.8296-3.3601-1.4104-4.729l-.8988-2.1295zm-1.3827 14.0074c0 1.4242-.0692 2.8623-.2074 4.2451l-.083.802h-9.5134l-.083-.802c-.1383-1.3828-.2074-2.807-.2074-4.2451s.0691-2.8623.2074-4.2451l.083-.802h9.5134l.083.802c.1382 1.3828.2074 2.8208.2074 4.2451zm-5.0471-15.4179c1.0232 0 1.9082.9265 2.807 2.9039.6222 1.3827 1.1062 3.0282 1.3413 4.01l.2627 1.1062h-8.7944l.2627-1.1062c.7882-3.4431 2.3784-6.9139 4.1207-6.9139zm-12.6385 6.6097c1.5764-2.2539 3.7335-4.0515 6.2225-5.1992l2.1018-.968-.8988 2.1295c-.5808 1.3689-1.0509 2.9591-1.4105 4.729l-.1521.7191h-6.8585zm-2.1433 13.2192c-.4286-1.4242-.6361-2.9038-.6361-4.411 0-1.4934.2213-2.973.6361-4.411l.1936-.6361h7.4669l-.0968.9818c-.1244 1.3274-.1797 2.6963-.1797 4.0653 0 1.3689.0553 2.7379.1797 4.0653l.0968.9818h-7.4669zm8.3519 9.5964c-2.489-1.1477-4.6461-2.9453-6.2224-5.1992l-.9818-1.4104h6.8585l.1521.719c.3596 1.77.8297 3.3601 1.4105 4.7291l.8988 2.1294zm6.4299 1.4104c-1.0233 0-1.9221-.9264-2.807-2.9176-.6223-1.3828-1.1062-3.0283-1.3413-4.01l-.2627-1.1063h8.7944l-.2628 1.1063c-.5807 2.5857-2.1294 6.9276-4.1206 6.9276zm12.6385-6.6096c-1.5764 2.2539-3.7335 4.0653-6.2225 5.1992l-2.1018.9679.8988-2.1294c.5808-1.369 1.0509-2.9591 1.4104-4.7291l.1521-.719h6.8586zm1.9497-3.7611h-7.467l.083-.9818c.1244-1.3413.1797-2.7102.1797-4.0653 0-1.369-.0553-2.7379-.1797-4.0653l-.083-.9818h7.467l.1935.6361c.4287 1.4242.6361 2.9038.6361 4.411 0 1.4934-.2212 2.9729-.6361 4.411z" fill="#f16822"/></svg>