<svg fill="none" height="488" viewBox="0 0 413 488" width="413" xmlns="http://www.w3.org/2000/svg" xmlns:xlink="http://www.w3.org/1999/xlink"><linearGradient id="a"><stop offset="0" stop-color="#d5d5d5"/><stop offset="1" stop-color="#6b6b6b"/></linearGradient><linearGradient id="b" gradientUnits="userSpaceOnUse" x1="270.909" x2="406.014" xlink:href="#a" y1="286.5" y2="302.202"/><linearGradient id="c"><stop offset="0" stop-color="#fff"/><stop offset="1" stop-color="#b9b9b9"/></linearGradient><linearGradient id="d" gradientUnits="userSpaceOnUse" x1="406.41" x2="279.837" xlink:href="#c" y1="286.5" y2="292.066"/><linearGradient id="e" gradientUnits="userSpaceOnUse" x1="158.145" x2="253.07" y1="162.668" y2="217.483"><stop offset=".24" stop-color="#7f7f7f"/><stop offset=".44" stop-color="#9c9c9c"/><stop offset=".63" stop-color="#b1b1b1"/><stop offset=".82" stop-color="#bdbdbd"/><stop offset="1" stop-color="#c1c1c1"/></linearGradient><linearGradient id="f" gradientUnits="userSpaceOnUse" x1="174.97" x2="171.028" xlink:href="#a" y1="152.436" y2="190.732"/><linearGradient id="g"><stop offset="0" stop-color="#f4f4f4"/><stop offset=".02" stop-color="#f3f3f3"/><stop offset=".55" stop-color="#e5e5e5"/><stop offset="1" stop-color="#e0e0e0"/></linearGradient><linearGradient id="h" gradientUnits="userSpaceOnUse" x1="-143.087" x2="7437.61" xlink:href="#g" y1="7378.01" y2="7378.01"/><linearGradient id="i" gradientUnits="userSpaceOnUse" x1="140.409" x2="270.78" xlink:href="#a" y1="371.5" y2="390.561"/><linearGradient id="j" gradientUnits="userSpaceOnUse" x1="266.409" x2="157.059" xlink:href="#c" y1="374" y2="405.606"/><linearGradient id="k" gradientUnits="userSpaceOnUse" x1="205.893" x2="201.45" xlink:href="#a" y1="329.679" y2="383.062"/><linearGradient id="l" gradientUnits="userSpaceOnUse" x1="-.09082" x2="70.3514" xlink:href="#c" y1="290" y2="225.163"/><linearGradient id="m" gradientUnits="userSpaceOnUse" x1="1.40918" x2="131.909" y1="277" y2="277"><stop offset="0" stop-color="#171717"/><stop offset="1" stop-color="#4d4d4d"/></linearGradient><linearGradient id="n" gradientUnits="userSpaceOnUse" x1="20.4092" x2="97.2878" xlink:href="#a" y1="237" y2="255.805"/><linearGradient id="o" gradientUnits="userSpaceOnUse" x1="105.909" x2="17.397" xlink:href="#c" y1="212" y2="220.536"/><linearGradient id="p" gradientUnits="userSpaceOnUse" x1="65.5241" x2="53.0632" xlink:href="#a" y1="136.399" y2="199.766"/><linearGradient id="q" gradientUnits="userSpaceOnUse" x1="239.288" x2="234.239" xlink:href="#a" y1="186.312" y2="231.51"/><linearGradient id="r" gradientUnits="userSpaceOnUse" x1="311.409" x2="206.89" xlink:href="#c" y1="160" y2="260.714"/><linearGradient id="s" gradientUnits="userSpaceOnUse" x1="13651.7" x2="23782.1" xlink:href="#g" y1="8431.82" y2="8431.82"/><linearGradient id="t"><stop offset="0" stop-color="#f17922"/><stop offset="1" stop-color="#d74608"/></linearGradient><linearGradient id="u" gradientUnits="userSpaceOnUse" x1="252.471" x2="208.158" xlink:href="#t" y1="280.514" y2="349.376"/><linearGradient id="v" gradientUnits="userSpaceOnUse" x1="231.97" x2="196.865" xlink:href="#t" y1="286.892" y2="343.205"/><linearGradient id="w" gradientUnits="userSpaceOnUse" x1="377.943" x2="298.71" y1="241.657" y2="239.783"><stop offset="0" stop-color="#f16822"/><stop offset="1" stop-color="#d84b0e"/></linearGradient><linearGradient id="x" gradientUnits="userSpaceOnUse" x1="205.416" x2="205.416" y1="223.163" y2="41"><stop offset="0" stop-color="#f16822"/><stop offset="1" stop-color="#f16822" stop-opacity="0"/></linearGradient><mask id="y" height="100" maskUnits="userSpaceOnUse" width="75" x="168" y="254"><path d="m205.183 259.142c-10.478-6.014-19.953-6.56-26.787-2.642l-9.658 5.557c6.834-4.008 16.309-3.462 26.787 2.643 20.774 12.027 37.63 41.182 37.539 65.054 0 11.845-4.283 20.227-11.025 24.145l9.658-5.558c6.742-3.918 10.933-12.3 11.024-24.145.092-23.78-16.764-53.027-37.538-65.054z" fill="#f16822"/></mask><g fill="#f60"><path d="m205.5 469.844c-28.376 0-56.752-6.226-78.317-18.695-20.999-12.135-32.5658-28.276-32.5658-45.468s11.5668-33.383 32.5658-45.468c43.181-24.921 113.503-24.921 156.6 0 20.998 12.118 32.566 28.276 32.566 45.468s-11.568 33.383-32.566 45.468c-21.582 12.452-49.941 18.695-78.283 18.695zm0-127.441c-28.192 0-56.385 6.193-77.833 18.594-20.731 11.952-32.1151 27.825-32.1151 44.684 0 16.858 11.4001 32.732 32.1151 44.683 42.914 24.787 112.768 24.787 155.682 0 20.715-11.951 32.115-27.825 32.115-44.683 0-16.859-11.4-32.732-32.115-44.684-21.482-12.401-49.674-18.594-77.866-18.594z" opacity=".4"/><path d="m205.499 487.019c-35.987 0-71.974-7.895-99.365-23.719-26.7066-15.373-41.2784-35.836-41.2951-57.619s14.6719-42.263 41.2951-57.62c54.782-31.714 143.915-31.714 198.63 0 26.707 15.373 41.279 35.837 41.279 57.62s-14.655 42.246-41.279 57.619c-27.274 15.824-63.294 23.719-99.265 23.719zm0-161.792c-35.82 0-71.624 7.862-98.898 23.602-26.339 15.206-40.8274 35.403-40.8274 56.852s14.4884 41.629 40.8274 56.835c54.532 31.497 143.281 31.48 197.813 0 26.323-15.206 40.828-35.386 40.828-56.835s-14.505-41.646-40.828-56.752c-27.291-15.773-63.111-23.702-98.931-23.702z" opacity=".2"/><path d="m205.5 456.307c-22.35 0-44.7-4.907-61.759-14.739-16.475-9.564-25.655-22.317-25.655-35.887s9.18-26.323 25.688-35.803c34.035-19.646 89.401-19.646 123.418 0 16.575 9.564 25.705 22.3 25.705 35.887s-9.13 26.322-25.688 35.887c-17.026 9.748-39.376 14.655-61.709 14.655zm0-100.367c-22.183 0-44.366 4.874-61.258 14.639-16.275 9.397-25.238 21.866-25.238 35.052s8.963 25.705 25.238 35.053c33.784 19.495 88.749 19.512 122.516 0 16.291-9.398 25.255-21.867 25.255-35.053s-8.964-25.705-25.255-35.052c-16.908-9.765-39.092-14.639-61.275-14.639z"/><path d="m302.911 283.677-.451.781 2.891 1.669.451-.781z"/><path d="m297.204 281.412-5.291-3.054.467-.785 5.274 3.055zm-10.566-6.092-5.275-3.055.451-.784 5.275 3.054zm-10.566-6.11-5.258-3.004.451-.785 5.275 3.038zm-10.566-6.092-5.274-3.055.45-.784 5.275 3.055zm-10.565-6.109-5.275-3.038.451-.784 5.291 3.037z"/><path d="m241.951 248.508-.451.781 2.891 1.669.451-.78z"/><path d="m345.258 353.77c-3.384.071-6.729-.728-9.715-2.32l-51.594-29.778c-2.687-1.552-4.156-3.639-4.156-5.875.101-1.263.54-2.475 1.271-3.509s1.728-1.852 2.885-2.367l51.594-29.794c3.015-1.523 6.345-2.316 9.723-2.316 3.377 0 6.708.793 9.723 2.316l51.594 29.794c1.187.448 2.211 1.246 2.933 2.29s1.109 2.283 1.109 3.552c0 1.27-.387 2.509-1.109 3.552-.722 1.044-1.746 1.843-2.933 2.29l-51.594 29.912c-2.999 1.567-6.349 2.343-9.731 2.253zm0-75.112c-3.225-.064-6.414.694-9.264 2.203l-51.594 29.795c-1.073.352-2.007 1.033-2.669 1.948-.662.914-1.019 2.014-1.019 3.143s.357 2.228 1.019 3.143c.662.914 1.596 1.596 2.669 1.948l51.594 29.777c2.874 1.457 6.05 2.216 9.272 2.216s6.398-.759 9.272-2.216l51.577-29.777c1.073-.352 2.007-1.034 2.669-1.948.662-.915 1.019-2.014 1.019-3.143s-.357-2.229-1.019-3.143c-.662-.915-1.596-1.596-2.669-1.948l-51.577-29.795c-2.861-1.492-6.055-2.232-9.28-2.153z"/><path d="m412.342 304.363v-17.677l-3.238-1.786c-.918 5.508-7.411 9.147-12.836 9.898l-36.989 21.666-16.14 5.826-51.461-26.624 1.185-.684c-4.406-2.053-6.776-6.677-9.147-11.05l-3.472 2.07-2.053.584v17.96c0 2.287 1.503 4.59 4.524 6.326l51.527 29.778c3.397 1.721 7.151 2.617 10.958 2.617s7.561-.896 10.958-2.617l51.577-29.778c2.971-1.669 4.49-3.956 4.54-6.209.009-.1.009-.2 0-.3z" opacity=".4"/></g><path d="m407.802 283.298-51.577 29.828c-3.405 1.731-7.171 2.633-10.991 2.633s-7.586-.902-10.992-2.633l-51.593-29.778c-1.125-.53-2.114-1.312-2.889-2.284-.776-.972-1.318-2.11-1.585-3.324-.35 2.537 1.135 5.124 4.474 7.06l51.593 29.728c3.397 1.72 7.151 2.617 10.958 2.617 3.808 0 7.562-.897 10.958-2.617l51.644-29.778c3.339-1.936 4.841-4.523 4.49-7.061-.274 1.214-.821 2.35-1.599 3.322-.778.971-1.766 1.753-2.891 2.287z" fill="#595959"/><path d="m107.72 287.337-.45-.784 63.862-36.872.467.785z" fill="#f60"/><path clip-rule="evenodd" d="m345.259 327.577c-.02 0-.039 0-.059 0-3.807 0-7.561-.896-10.958-2.617l-51.527-29.794c-3.021-1.736-4.524-4.023-4.524-6.326v-11.985l2.053-.584 3.472-2.053c.096.176.192.353.289.531 2.277 4.196 4.63 8.532 8.858 10.502l-1.185.701 51.494 26.657 2.087-.754v-.064l14.043-5.004.011-.004 36.955-21.699c.007-.001.013-.002.019-.003 3.828-.546 8.182-2.511 10.734-5.561 1.028-1.231 1.762-2.639 2.05-4.201h.006c.01-.05.019-.1.027-.15l.27.15h.014l.971.549 1.983 1.104v.016 11.685c.009.1.009.2 0 .3-.05 2.253-1.569 4.54-4.54 6.209l-51.577 29.795c-3.375 1.784-7.149 2.68-10.966 2.604z" fill="url(#b)" fill-rule="evenodd"/><path d="m67.2595 353.77c-3.3776.092-6.7222-.684-9.7145-2.253l-51.59386-29.845c-2.68736-1.552-4.15622-3.639-4.15622-5.875.10056-1.263.53967-2.475 1.2711-3.509s1.72811-1.852 2.88512-2.367l51.59386-29.794c3.0148-1.523 6.3452-2.316 9.7228-2.316 3.3777 0 6.708.793 9.7229 2.316l51.5943 29.794c1.187.448 2.211 1.246 2.933 2.29s1.109 2.283 1.109 3.552c0 1.27-.387 2.509-1.109 3.552-.722 1.044-1.746 1.843-2.933 2.29l-51.5943 29.912c-2.9991 1.567-6.3485 2.343-9.7312 2.253zm-9.2639-3.104c2.8739 1.456 6.0504 2.215 9.2722 2.215s6.3983-.759 9.2722-2.215l51.594-29.778c1.072-.352 2.006-1.034 2.669-1.948.662-.914 1.018-2.014 1.018-3.143s-.356-2.229-1.018-3.143c-.663-.915-1.597-1.596-2.669-1.948l-51.594-29.795c-2.8739-1.456-6.0504-2.215-9.2722-2.215s-6.3983.759-9.2722 2.215l-51.59379 29.795c-1.07258.352-2.0066 1.033-2.66879 1.948-.66219.914-1.01872 2.014-1.01872 3.143s.35653 2.229 1.01872 3.143 1.59621 1.596 2.66879 1.948z" fill="#f60"/><path d="m134.343 304.363v-17.677l-3.239-1.786c-.918 5.508-7.411 9.147-12.835 9.898l-36.9557 21.666-16.1409 5.826-51.4102-26.624 1.1851-.684c-4.4066-2.053-6.77677-6.677-9.14698-11.05l-3.47186 2.07-2.053069.584v17.96c0 2.287 1.502249 4.59 4.523429 6.326l51.59388 29.778c3.3966 1.721 7.1506 2.617 10.958 2.617s7.5614-.896 10.9581-2.617l51.5772-29.778c2.971-1.669 4.49-3.956 4.54-6.209.008-.1.008-.2 0-.3z" fill="#f60" opacity=".4"/><path d="m334.243 313.126-51.594-29.778c-6.042-3.489-6.042-9.164 0-12.652l51.594-29.845c3.396-1.72 7.15-2.617 10.958-2.617 3.807 0 7.561.897 10.958 2.617l51.577 29.795c6.042 3.488 6.042 9.163 0 12.652l-51.51 29.828c-3.406 1.731-7.172 2.633-10.992 2.633s-7.586-.902-10.991-2.633z" fill="url(#d)"/><path d="m129.803 283.298-51.5772 29.828c-3.3966 1.72-7.1506 2.617-10.958 2.617-3.8075 0-7.5614-.897-10.9581-2.617l-51.59379-29.828c-1.12499-.53-2.1133-1.312-2.88883-2.284-.77554-.972-1.317621-2.11-1.584523-3.325-.350524 2.538 1.135033 5.125 4.473353 7.061l51.59379 29.778c3.3967 1.72 7.1506 2.617 10.9581 2.617 3.8074 0 7.5614-.897 10.958-2.617l51.5772-29.778c3.338-1.936 4.841-4.523 4.49-7.061-.274 1.214-.821 2.35-1.599 3.322-.778.971-1.767 1.753-2.891 2.287z" fill="#595959"/><path d="m247.512 374.301-.45-.768 2.887-1.669.451.768z" fill="#f60"/><path d="m255.692 369.594-.467-.785 5.291-3.054.451.784zm10.549-6.109-.451-.785 5.292-3.038.45.785zm10.566-6.093-.451-.784 5.291-3.055.451.785zm10.566-6.092-.451-.785 5.275-3.054.467.784zm10.565-6.109-.45-.785 5.274-3.038.451.785z" fill="#f60"/><path d="m308.503 339.098-.45-.784 2.887-1.669.451.784z" fill="#f60"/><path d="m205.5 439.532c-3.389.069-6.738-.73-9.731-2.32l-51.594-29.795c-1.155-.518-2.15-1.336-2.881-2.37-.731-1.033-1.171-2.244-1.275-3.505 0-2.237 1.485-4.323 4.156-5.876l51.527-29.778c3.012-1.53 6.344-2.328 9.723-2.328s6.71.798 9.723 2.328l51.593 29.778c2.671 1.553 4.157 3.639 4.157 5.892-.107 1.259-.549 2.466-1.28 3.496s-1.724 1.846-2.877 2.363l-51.593 29.795c-2.967 1.581-6.287 2.38-9.648 2.32zm0-75.113c-3.226-.058-6.415.706-9.264 2.22l-51.611 29.812c-1.07.356-2.001 1.041-2.661 1.956s-1.015 2.015-1.015 3.143.355 2.228 1.015 3.143 1.591 1.6 2.661 1.956l51.594 29.778c2.874 1.456 6.051 2.215 9.272 2.215 3.222 0 6.399-.759 9.273-2.215l51.594-29.828c1.078-.348 2.019-1.029 2.686-1.945s1.027-2.021 1.027-3.154c0-1.134-.36-2.238-1.027-3.154s-1.608-1.597-2.686-1.945l-51.594-29.778c-2.86-1.499-6.053-2.246-9.281-2.17z" fill="#f60"/><path d="m272.567 390.124v-17.676l-3.239-1.803c-.901 5.525-7.394 9.164-12.819 9.915l-36.972 21.616-16.14 5.825-51.494-26.573 1.185-.684c-4.39-2.053-6.677-6.677-9.147-11.05l-3.472 2.07-2.053.567v17.977c0 2.287 1.519 4.574 4.523 6.326l51.594 29.778c3.397 1.72 7.151 2.617 10.958 2.617 3.808 0 7.562-.897 10.958-2.617l51.594-29.828c2.971-1.669 4.474-3.973 4.524-6.226v-.3z" fill="#f60" opacity=".4"/><path d="m268.043 369.043-51.594 29.794c-3.396 1.721-7.15 2.617-10.958 2.617-3.807 0-7.561-.896-10.958-2.617l-51.593-29.794c-1.122-.531-2.108-1.31-2.883-2.279s-1.319-2.102-1.591-3.313c-.35 2.521 1.135 5.125 4.474 7.061l51.593 29.778c3.397 1.72 7.151 2.616 10.958 2.616 3.808 0 7.562-.896 10.958-2.616l51.594-29.778c3.339-1.936 4.824-4.54 4.474-7.061-.272 1.211-.816 2.344-1.591 3.313s-1.761 1.748-2.883 2.279z" fill="#595959"/><path d="m205.5 266.857c-3.39.063-6.74-.741-9.731-2.337l-51.594-29.845c-2.671-1.552-4.156-3.639-4.156-5.875 0-2.237 1.485-4.324 4.156-5.876l51.527-29.711c3.012-1.531 6.344-2.328 9.723-2.328s6.71.797 9.723 2.328l51.66 29.778c2.671 1.552 4.156 3.639 4.156 5.875 0 2.237-1.485 4.323-4.156 5.876l-51.594 29.778c-2.984 1.597-6.329 2.402-9.714 2.337zm0-75.113c-3.225-.064-6.413.694-9.264 2.203l-51.611 29.828c-1.072.352-2.006 1.034-2.668 1.948-.663.915-1.019 2.015-1.019 3.143 0 1.129.356 2.229 1.019 3.143.662.915 1.596 1.596 2.668 1.948l51.594 29.795c2.876 1.448 6.052 2.203 9.272 2.203 3.221 0 6.396-.755 9.273-2.203l51.593-29.795c1.073-.352 2.007-1.033 2.669-1.948.662-.914 1.019-2.014 1.019-3.143 0-1.128-.357-2.228-1.019-3.143-.662-.914-1.596-1.596-2.669-1.948l-51.593-29.794c-2.857-1.511-6.05-2.269-9.281-2.203z" fill="#f60"/><path d="m272.567 217.433v-17.66l-3.239-1.819c-.901 5.508-7.394 9.147-12.819 9.914l-36.972 21.699-16.14 5.826-51.494-26.573 1.185-.701c-4.39-2.053-6.677-6.677-9.147-11.05l-3.472 2.07-2.053.584v17.96c0 2.303 1.519 4.59 4.523 6.326l51.594 29.795c3.397 1.72 7.151 2.616 10.958 2.616 3.808 0 7.562-.896 10.958-2.616l51.594-29.795c2.971-1.669 4.474-3.956 4.524-6.209v-.301z" fill="#f60" opacity=".4"/><path d="m153.087 198.338 48.89-28.226c1.089-.551 2.293-.839 3.514-.839s2.424.288 3.513.839l48.022 27.725-.517.317c5.424-.751 11.918-4.39 12.819-9.915l-53.897-30.045-15.691-4.139-12.769 7.494-43.014 25.739c2.37 4.289 4.74 8.997 9.13 11.05z" fill="url(#e)"/><path d="m205.499 155.641-5.759-1.519-12.769 7.494-43.014 25.672c2.387 4.29 4.757 8.997 9.147 11.05l48.89-28.226c1.082-.578 2.295-.865 3.522-.834z" fill="url(#f)" opacity=".3"/><path d="m260.599 188.022-51.544-29.795c-1.089-.551-2.293-.838-3.513-.838-1.221 0-2.425.287-3.514.838l-51.577 29.795c-1.302.734-1.669 1.803-1.285 2.754.277-.561.727-1.018 1.285-1.302l51.577-29.794c1.092-.544 2.294-.827 3.514-.827 1.219 0 2.422.283 3.513.827l51.594 29.794c.554.284.999.742 1.269 1.302.384-.951-.034-2.02-1.319-2.754z" fill="#595959"/><path d="m268.043 196.368-51.594 29.778c-3.396 1.72-7.15 2.617-10.958 2.617-3.807 0-7.561-.897-10.958-2.617l-51.593-29.778c-1.122-.531-2.108-1.31-2.883-2.279s-1.319-2.102-1.591-3.313c-.35 2.521 1.135 5.125 4.474 7.044l51.593 29.795c3.397 1.72 7.151 2.617 10.958 2.617 3.808 0 7.562-.897 10.958-2.617l51.594-29.795c3.339-1.919 4.824-4.523 4.474-7.044-.272 1.211-.816 2.344-1.591 3.313s-1.761 1.748-2.883 2.279z" fill="#595959"/><path d="m209.055 158.227c-1.089-.551-2.293-.838-3.514-.838s-2.424.287-3.513.838l-51.578 29.795c-.42.145-.784.418-1.042.78-.259.362-.397.795-.397 1.24 0 .444.138.878.397 1.24.258.362.622.634 1.042.779l51.578 29.795c1.089.551 2.292.839 3.513.839s2.425-.288 3.514-.839l51.594-29.795c.42-.145.784-.417 1.042-.779.259-.362.397-.796.397-1.24 0-.445-.138-.878-.397-1.24-.258-.362-.622-.635-1.042-.78z" fill="#f60" opacity=".4"/><path d="m83.1998 311.857-51.2099-29.577c-3.6888-2.12-3.2381-5.842 1.0182-8.346 4.2731-2.454 10.6994-2.721 14.3882-.601l51.2266 29.577c3.6721 2.12 3.2211 5.843-1.0349 8.346-4.2563 2.454-10.6993 2.721-14.3882.601z" fill="url(#h)" opacity=".008"/><path d="m83.1998 295.984-51.2099-29.595c-3.6888-2.136-3.2381-5.858 1.0182-8.345 4.2731-2.454 10.6994-2.721 14.3882-.601l51.2266 29.644c3.6721 2.137 3.2211 5.842-1.0349 8.346-4.2563 2.42-10.6993 2.671-14.3882.551z" fill="#333" opacity=".5"/><path clip-rule="evenodd" d="m272.567 374.401v.017.284c-.05 2.253-1.553 4.54-4.524 6.209l-51.594 29.778c-.508.257-1.024.496-1.547.716-2.436 1.067-5.044 1.691-7.699 1.84-.569.04-1.14.061-1.712.061-3.807 0-7.561-.897-10.958-2.617l-51.594-29.778c-3.004-1.753-4.523-4.039-4.523-6.326v-11.985l2.053-.584 3.472-2.07c.258.448.513.9.769 1.352 2.201 3.891 4.446 7.859 8.378 9.698l-1.185.685 51.494 26.573 10.598-3.749 5.542-1.977 36.972-21.699c5.375-.751 11.784-4.29 12.803-9.815h.005c.004-.022.008-.044.011-.066l.121.066h.163l2.954 1.67v.05h.001z" fill="url(#i)" fill-rule="evenodd"/><path d="m194.533 398.838-51.594-29.795c-6.025-3.489-6.025-9.164 0-12.652l51.594-29.778c3.397-1.72 7.151-2.617 10.958-2.617 3.808 0 7.561.897 10.958 2.617l51.594 29.794c6.042 3.489 6.042 9.147 0 12.636l-51.594 29.795c-3.397 1.72-7.15 2.616-10.958 2.616-3.807 0-7.561-.896-10.958-2.616z" fill="url(#j)"/><path d="m205.5 393.429c-3.064.062-6.092-.662-8.797-2.103l-40.31-23.268c-1.102-.391-2.056-1.114-2.73-2.069-.675-.955-1.037-2.095-1.037-3.264s.362-2.31 1.037-3.265c.674-.955 1.628-1.677 2.73-2.068l40.31-23.268c2.723-1.383 5.734-2.103 8.788-2.103s6.065.72 8.789 2.103l40.31 23.268c1.102.391 2.056 1.113 2.73 2.068.675.955 1.037 2.096 1.037 3.265s-.362 2.309-1.037 3.264c-.674.955-1.628 1.678-2.73 2.069l-40.31 23.268c-2.7 1.438-5.722 2.162-8.78 2.103zm-8.346-2.888c2.587 1.311 5.446 1.995 8.346 1.995s5.759-.684 8.346-1.995l40.276-23.268c.965-.307 1.808-.914 2.405-1.731.598-.818.92-1.804.92-2.817s-.322-2-.92-2.817c-.597-.818-1.44-1.424-2.405-1.732l-40.293-23.268c-2.587-1.311-5.446-1.994-8.346-1.994s-5.759.683-8.346 1.994l-40.277 23.285c-.965.307-1.807.914-2.404 1.732-.598.817-.92 1.804-.92 2.816 0 1.013.322 2 .92 2.817.597.818 1.439 1.424 2.404 1.732z" fill="url(#k)"/><path clip-rule="evenodd" d="m77.158 325.506c.3877-.172.7715-.354 1.1508-.546l51.5772-29.794c2.971-1.669 4.49-3.956 4.54-6.21.008-.099.008-.2 0-.3h-.083v-11.668-.016l-1.951-1.086-1.003-.567h-.015l-.27-.15c-.008.05-.017.1-.026.15h-.006c-.267 1.451-.919 2.768-1.834 3.935-2.521 3.207-7.028 5.272-10.969 5.83l-36.9557 21.699-.0465.017-14.007 4.991v.064l-2.0874.754-51.4102-26.657 1.1851-.701c-4.228-1.97-6.58131-6.306-8.85867-10.502-.09619-.178-.19225-.355-.28831-.531l-3.47186 2.053-2.053069.584v11.985c0 2.303 1.502249 4.59 4.523429 6.326l51.59388 29.794c3.3696 1.707 7.0908 2.603 10.8671 2.617v.004c3.4192.068 6.8036-.644 9.8982-2.075z" fill="url(#l)" fill-rule="evenodd"/><path d="m56.3102 313.126-51.59385-29.828c-6.04237-3.489-6.04237-9.164 0-12.652l51.59385-29.795c3.3966-1.72 7.1506-2.617 10.958-2.617 3.8075 0 7.5614.897 10.9581 2.617l51.5767 29.795c6.043 3.488 6.043 9.163 0 12.652l-51.5767 29.828c-3.3967 1.72-7.1506 2.617-10.9581 2.617-3.8074 0-7.5614-.897-10.958-2.617z" fill="url(#m)"/><path d="m85.9658 293.643-48.7105-27.853c-3.4907-2.046-3.0147-5.508.952-7.868 4.1253-2.361 10.1546-2.518 13.6453-.63l48.7104 27.854c3.491 2.046 3.015 5.508-.9519 7.868-3.9667 2.36-10.1546 2.675-13.6453.629z" fill="#161616" opacity=".5"/><path d="m219.891 375.412-36.533-21.387c-2.156-1.259-1.862-3.39.588-4.842 2.548-1.453 6.272-1.55 8.428-.388l36.533 21.388c2.156 1.258 1.862 3.389-.588 4.842-2.45 1.452-6.272 1.646-8.428.387z" fill="#acacac" opacity=".5"/><path clip-rule="evenodd" d="m29.5029 246.927v-61.642l57.7813 22.35h.0052l13.8036 5.341v61.659c.017.417-.045.842-.184 1.265-.417 1.271-1.5307 2.532-3.3208 3.559-.0001 0-.0001 0-.0001 0-4.2564 2.454-10.6994 2.721-14.3882.601l-51.2099-29.578c-.6942-.316-1.291-.813-1.7284-1.438-.4373-.626-.6993-1.356-.7587-2.117z" fill="url(#n)" fill-rule="evenodd"/><path d="m83.1998 218.418-51.2099-29.578c-3.6888-2.12-3.2381-5.842 1.0182-8.346 4.2731-2.453 10.6994-2.72 14.3882-.601l51.2266 29.578c3.6721 2.12 3.2211 5.842-1.0349 8.346-4.2563 2.47-10.6993 2.721-14.3882.601z" fill="url(#o)"/><path d="m88.308 214.462c-1.1775 0-2.3068-.468-3.1395-1.301-.8326-.832-1.3004-1.962-1.3004-3.139v-27.375c0-9.347-6.8269-21.181-14.9223-25.855l-11.6842-6.777c-3.1046-1.802-5.9088-2.236-7.6948-1.202-1.786 1.035-2.8042 3.673-2.8042 7.261v27.375c0 1.173-.466 2.298-1.2956 3.127-.8295.83-1.9546 1.296-3.1277 1.296s-2.2982-.466-3.1277-1.296c-.8296-.829-1.2956-1.954-1.2956-3.127v-27.375c0-6.943 2.5705-12.235 7.2275-15.022 4.657-2.788 10.5324-2.254 16.5414 1.202l11.6841 6.793c10.8496 6.259 19.3456 20.981 19.3456 33.517v27.374c.0134.588-.0907 1.173-.306 1.72-.2152.547-.5374 1.046-.9477 1.467s-.9005.756-1.4418.986c-.5414.229-1.1231.349-1.7111.351z" fill="url(#p)"/><path clip-rule="evenodd" d="m272.567 201.709v.017.284c-.05 2.253-1.553 4.54-4.524 6.209l-51.594 29.794c-1.081.548-2.198 1.012-3.342 1.391-1.267.428-2.57.742-3.893.939-1.228.191-2.472.287-3.723.287-3.807 0-7.561-.896-10.958-2.617l-51.594-29.777c-3.004-1.736-4.523-4.023-4.523-6.31v-12.001l2.053-.568 3.472-2.069c.207.366.412.734.618 1.102 2.25 4.027 4.507 8.066 8.529 9.947l-1.185.685 51.494 26.573 2.103-.759v-.059l14.037-5.007 36.972-21.616c5.375-.751 11.784-4.323 12.803-9.848h.005c.004-.022.008-.045.011-.067l.12.067h.164l2.954 1.669v.067h.001z" fill="url(#q)" fill-rule="evenodd"/><path d="m194.533 226.146-51.594-29.778c-6.025-3.488-6.025-9.164 0-12.652l51.594-29.778c3.397-1.72 7.151-2.617 10.958-2.617 3.808 0 7.561.897 10.958 2.617l51.594 29.778c6.042 3.488 6.042 9.164 0 12.652l-51.594 29.778c-3.397 1.72-7.15 2.617-10.958 2.617-3.807 0-7.561-.897-10.958-2.617zm14.522-67.918c-1.089-.552-2.293-.839-3.514-.839s-2.424.287-3.513.839l-51.578 29.794c-.42.145-.784.418-1.042.78-.259.362-.397.795-.397 1.24s.138.878.397 1.24c.258.362.622.635 1.042.78l51.578 29.794c1.089.552 2.292.839 3.513.839s2.425-.287 3.514-.839l51.594-29.794c.42-.145.784-.418 1.042-.78.259-.362.397-.795.397-1.24s-.138-.878-.397-1.24c-.258-.362-.622-.635-1.042-.78z" fill="url(#r)"/><path d="m196.001 225.312-51.594-29.778c-5.241-3.038-5.241-7.946 0-10.983l51.578-29.778c2.947-1.491 6.203-2.267 9.505-2.267 3.303 0 6.559.776 9.506 2.267l51.577 29.828c5.242 3.021 5.242 7.928 0 10.966l-51.577 29.778c-2.946 1.485-6.201 2.256-9.501 2.25s-6.552-.788-9.494-2.283zm14.455-67.919c-1.549-.795-3.266-1.21-5.007-1.21-1.742 0-3.458.415-5.008 1.21l-51.477 29.778c-2.737 1.586-2.737 4.156 0 5.742l51.594 29.778c1.549.795 3.266 1.21 5.008 1.21 1.741 0 3.458-.415 5.007-1.21l51.477-29.745c2.737-1.669 2.737-4.156 0-5.741z" fill="url(#s)"/><path d="m198.858 264.575c20.62 11.638 37.212 39.888 37.212 62.976-.095 23.183-16.783 32.474-37.404 20.836-20.62-11.638-37.308-39.794-37.308-62.977.096-23.182 16.88-32.473 37.5-20.835z" fill="url(#u)"/><path d="m205.183 259.194c-10.478-6.014-19.953-6.56-26.787-2.643l-9.658 5.558c6.834-4.009 16.309-3.462 26.787 2.642 20.774 12.027 37.63 41.183 37.539 65.055 0 11.844-4.283 20.227-11.025 24.144l9.658-5.557c6.742-3.918 10.933-12.301 11.024-24.145.092-23.872-16.764-53.119-37.538-65.054z" fill="#f16822"/><path d="m195.525 264.751c20.774 12.027 37.63 41.183 37.539 65.055-.091 23.871-17.038 33.529-37.812 21.593-20.682-12.027-37.538-41.183-37.538-65.054.091-23.962 17.311-34.076 37.811-21.594zm-.182 81.455c18.314 10.569 33.256 2.095 33.256-18.951.091-21.047-14.76-46.741-33.074-57.31-18.222-10.569-33.164-2.005-33.256 18.951-.091 21.047 14.761 46.741 33.074 57.31z" fill="url(#v)"/><path d="m176.848 311.309 3.28-1.913 4.464 2.642-3.28 1.823z" fill="#f16822"/><path d="m181.312 313.861 3.281-1.822 2.368 1.366-3.188 1.823z" fill="#f16822"/><path d="m174.844 304.932 3.189-1.823 6.56 3.736-3.189 1.913z" fill="#fff"/><path d="m186.142 303.291 3.189-1.822v13.303l-3.189 1.822z" fill="#fff"/><path d="m183.772 315.228 3.189-1.823 2.369 1.367-3.189 1.822z" fill="#f16822"/><path d="m192.337 314.043 3.189-1.913 3.28 5.649-3.189 1.913z" fill="#f16822"/><path d="m186.142 303.291 3.189-1.822 6.195 10.66-3.189 1.914z" fill="#f16822"/><path d="m195.617 319.692 3.189-1.914 3.28-1.822-3.189 1.822z" fill="#f16822"/><path d="m181.403 287.62 3.28-1.913-.091 21.138-3.189 1.913z" fill="#f16822"/><path d="m181.403 287.62 3.28-1.913 14.123 24.6-3.189 1.823z" fill="#fff"/><path d="m205.001 327.528 3.28-1.822.456.273-3.189 1.822z" fill="#f16822"/><path d="m205.548 327.801 3.189-1.822 4.282 2.46-3.189 1.822z" fill="#f16822"/><path d="m209.83 330.261 3.189-1.823 4.465 2.552-3.189 1.913z" fill="#f16822"/><path d="m205.092 314.225 3.189-1.822v13.302l-3.28 1.822z" fill="#f16822"/><path d="m198.897 317.778 3.189-1.822 6.196-3.553-3.189 1.822z" fill="#f16822"/><path d="m205.092 314.225v13.303l.456.273 4.282 2.46 4.465 2.551c-3.827 5.011-10.843 5.831-18.769 1.276-7.927-4.556-14.852-13.394-18.678-22.869l4.464 2.551 2.369 1.366 2.369 1.367v-13.302l6.287 10.842 3.28 5.649 3.28-1.913z" fill="#f16822"/><path d="m209.83 325.158 3.189-1.913 6.56 3.827-3.189 1.822z" fill="#fff"/><path d="m209.83 304.021 3.28-1.914-.091 21.138-3.189 1.914z" fill="#fff"/><path d="m195.617 312.13 3.189-1.822 14.305-8.201-3.28 1.914z" fill="#fff"/><path d="m209.83 304.021v21.138l6.56 3.735c-.546 1.549-1.184 2.825-2.095 3.918l-4.465-2.551-4.282-2.46-.456-.273v-13.303l-6.195 3.554-3.28 1.913-3.28-5.649-6.196-10.751v13.302l-2.369-1.366-2.369-1.367-4.555-2.551c-.82-2.096-1.549-4.191-2.096-6.287l6.651 3.736v-21.138l14.214 24.509z" fill="#fff"/><path d="m209.102 290.809c-1.64-1.913-3.28-3.644-5.103-5.193-1.64-1.367-3.371-2.642-5.102-3.645-6.104-3.462-11.571-3.826-15.58-1.548l-3.189 1.822c4.009-2.278 9.476-2.005 15.58 1.549 1.731 1.002 3.462 2.186 5.102 3.644 1.823 1.549 3.554 3.28 5.103 5.194 6.924 8.2 11.662 19.315 11.571 28.973v.274.273c-.091 2.551-.456 4.738-1.093 6.651-.547 1.458-1.185 2.734-2.005 3.827-.911 1.184-2.095 2.278-3.28 2.915l3.189-1.822c1.185-.729 2.278-1.64 3.189-2.824.82-1.094 1.549-2.46 2.096-3.918.637-1.913 1.093-4.1 1.093-6.651 0-.091 0-.183 0-.274s0-.182 0-.273c.091-9.658-4.647-20.774-11.571-28.974z" fill="#d84b0e"/><path d="m195.708 283.885c3.645 2.095 7.107 5.193 10.205 8.747 6.924 8.2 11.662 19.315 11.571 28.973v.274.273c-.091 2.551-.456 4.738-1.093 6.651l-6.561-3.644.092-21.138-14.305 8.109-14.214-24.509v21.138l-6.56-3.736c-.637-2.551-1.002-5.102-1.093-7.562 0-.091 0-.183 0-.274 0-.182 0-.182 0-.273 0-.182 0-.273 0-.364 0-14.032 9.84-19.681 21.958-12.665z" fill="#f16822"/><path d="m195.708 283.885c3.644 2.095 7.107 5.193 10.205 8.747-3.098-3.554-6.561-6.652-10.205-8.747z" fill="#d84b0e"/><path d="m198.168 346.206c-19.589-11.298-35.352-38.723-35.352-61.137 0-2.187.182-4.282.456-6.195-.911 2.915-1.458 6.286-1.458 10.113-.091 21.047 14.76 46.741 33.074 57.31 5.558 3.189 10.751 4.646 15.398 4.555-3.827-.729-7.927-2.186-12.118-4.646z" fill="#a14011"/><g fill="#d84b0e" mask="url(#y)" opacity=".48"><path d="m202.94 243.21-64.78 37.402 1.048 1.815 64.78-37.402z"/><path d="m205.946 246.219-64.78 37.401 1.048 1.815 64.779-37.402z"/><path d="m208.95 249.227-64.779 37.401 1.048 1.815 64.779-37.401z"/><path d="m211.957 252.235-64.779 37.402 1.048 1.814 64.779-37.401z"/><path d="m214.963 255.243-64.779 37.402 1.047 1.815 64.78-37.402z"/><path d="m217.968 258.251-64.78 37.402 1.048 1.815 64.78-37.402z"/><path d="m220.974 261.26-64.78 37.401 1.048 1.815 64.78-37.402z"/><path d="m223.98 264.268-64.78 37.401 1.048 1.815 64.78-37.401z"/><path d="m226.985 267.276-64.78 37.402 1.048 1.815 64.779-37.402z"/><path d="m229.991 270.284-64.779 37.402 1.048 1.815 64.779-37.402z"/><path d="m232.997 273.293-64.779 37.401 1.048 1.815 64.779-37.401z"/><path d="m236.002 276.301-64.779 37.402 1.047 1.814 64.78-37.401z"/><path d="m239.008 279.309-64.779 37.401 1.047 1.815 64.78-37.401z"/><path d="m242.014 282.317-64.78 37.402 1.048 1.815 64.78-37.402z"/><path d="m245.02 285.325-64.78 37.402 1.048 1.815 64.78-37.402z"/><path d="m248.026 288.334-64.78 37.401 1.048 1.815 64.779-37.401z"/><path d="m251.032 291.342-64.78 37.402 1.048 1.814 64.779-37.401z"/><path d="m254.036 294.35-64.779 37.402 1.048 1.815 64.779-37.402z"/><path d="m257.042 297.359-64.779 37.401 1.047 1.815 64.78-37.402z"/><path d="m260.048 300.366-64.779 37.402 1.047 1.815 64.78-37.402z"/><path d="m263.054 303.375-64.78 37.401 1.048 1.815 64.78-37.401z"/><path d="m266.06 306.383-64.78 37.402 1.048 1.814 64.78-37.401z"/><path d="m269.065 309.391-64.78 37.402 1.048 1.815 64.78-37.402z"/><path d="m272.071 312.4-64.78 37.401 1.048 1.815 64.779-37.402z"/><path d="m275.076 315.408-64.779 37.402 1.048 1.814 64.779-37.401z"/><path d="m278.082 318.416-64.779 37.402 1.048 1.815 64.779-37.402z"/></g><path clip-rule="evenodd" d="m339.951 256.758c.674.27 1.753.135 2.292-.269.025-.019.048-.037.069-.056l3.397 1.482-6.475.833c-.112-.179-.323-.352-.631-.507-.674-.269-1.753-.134-2.292.27-.156.117-.256.257-.299.403l-1.675.136 5.192-2.51c.111.086.252.161.422.218zm-3.962 2.278-1.907.137-4.084 1.975c.038.018.075.038.11.06.809.269.944.943.405 1.348-.417.313-1.157.464-1.782.392l.015 2.934 7.87-6.059c-.442-.178-.651-.486-.627-.787zm.802.851c.572.196 1.389.127 1.942-.135l5.593 4.983c-.123.07-.235.153-.33.248-.539.404-.405 1.078.404 1.348.092.037.19.066.294.088l-.865 1.73-3.671 1.806-5.158-1.94c.034-.021.066-.043.097-.066.539-.404.404-1.079-.405-1.348-.809-.27-1.887-.135-2.292.269-.437.328-.431.833.017 1.156l-3.645 2.835-.025-4.835zm8.21 6.575-.752 1.48 1.933-.952-.243-.602c-.302.072-.631.099-.938.074zm1.06-.105.234.578 2.914-1.435-2.2.013c-.026.179-.132.364-.317.548-.167.126-.387.226-.631.296zm.954-.97h2.424l1.782-.877-2.836-1.244-1.862 1.446c.313.203.477.433.492.675zm-.659-.773 1.86-1.422-8.934-3.919c-.051.111-.143.218-.274.317-.031.022-.063.044-.097.065l5.679 4.956c.546-.212 1.223-.223 1.698-.033.023.012.046.024.068.036zm-7.034-5.461 9.029 3.935 3.347-2.559-5.877-2.565-6.581.793c.08.132.108.266.082.396zm-.001-2.84c.038.061.087.12.147.175l-5.481 2.59-5.746.466zm3.217-.191c.116-.33-.117-.691-.699-.982-.674-.269-1.753-.135-2.292.27-.279.209-.377.489-.297.749l-.075.022-14.898 3.447c-.107-.068-.23-.127-.371-.173-.674-.27-1.752-.135-2.292.269-.45.338-.336.864.107 1.186l-7.279 6.85c-.674-.193-1.633-.05-2.131.324-.287.215-.383.507-.288.774-.131.366.1.781.693.979.184.074.4.117.626.133l-1.234 9.086c-.339.066-.653.187-.875.354-.54.404-.405 1.078.404 1.348.477.19 1.156.179 1.703.013l.626.591 4.835 6.71c-.054.032-.105.065-.153.101-.539.405-.404 1.079.405 1.349.526.21 1.298.174 1.868-.044l12.93 4.384c-.501.406-.355 1.058.437 1.322.674.27 1.753.135 2.292-.269.154-.116.254-.254.298-.398l15.45 1.334c-.11.36.124.759.702.951.674.27 1.753.135 2.292-.269.397-.298.429-.742.095-1.063l12.794-5.118c.116.099.269.185.458.248.675.27 1.753.135 2.293-.269.539-.405.404-.944-.405-1.349-.073-.029-.15-.053-.231-.073l7.226-6.005c.622.069 1.355-.083 1.769-.393.54-.54.405-1.079-.404-1.349-.093-.037-.194-.066-.3-.089l.985-8.425c.411-.053.804-.187 1.067-.385.54-.404.27-1.078-.404-1.348-.473-.189-1.146-.179-1.692-.016l-6.297-6.949c.274-.069.523-.177.708-.315.539-.54.27-1.079-.404-1.349-.638-.255-1.636-.148-2.199.206l-12.316-5.15c.08-.052.155-.111.223-.179.539-.405.404-1.079-.405-1.349-.256-.102-.571-.146-.893-.139-.564-.013-1.171.137-1.534.409-.14.106-.235.229-.284.36zm-20.72 4.852-7.108 6.896c.154.086.279.177.376.271l7.465-5.898.065-1.029c-.207-.031-.409-.079-.597-.141-.072-.029-.139-.062-.201-.099zm.726 1.381-7.4 5.847c.06.067.105.135.137.204l7.109-3.62zm-.163 2.582-7.074 3.537c.035.111.032.222-.007.33.025.076.035.153.03.23l6.003 1.476c.042-.047.091-.092.147-.134.131-.132.334-.235.576-.304zm-8.391 15.502c.092-.083.155-.175.191-.271l2.303.526c.122.135.304.253.546.333.15.06.319.1.499.122l.29 1.179zm-.378.232c.084-.038.163-.08.234-.125l4.008 1.923.781 3.175-4.481-4.231zm-.172.067c.021-.007.041-.014.061-.022l.178.247zm.775-.728c.024-.337-.245-.692-.69-.87-.207-.083-.452-.128-.708-.138l3.327-2.815 1.137 3.107c-.277.067-.51.191-.655.385-.304.228-.394.541-.27.82zm-1.53-1.01 3.427-2.9-2.246-6.14c-.091.009-.182.015-.272.017l-1.342 9.055c.143-.021.289-.032.433-.032zm24.217 15.385 15.482 1.336c.054-.096.134-.187.241-.267.351-.263.929-.412 1.477-.41l1.526-2.606-3.794.677c.096.252 0 .506-.288.721-.539.405-1.618.539-2.292.27-.251-.084-.437-.207-.558-.348l-11.794.541c.002.028.002.057 0 .086zm-.026-.22 11.729-.538c-.115-.211-.104-.446.034-.652l-7.092-3.993h-1.678c-.01.194-.118.386-.322.54-.425.318-1.185.47-1.818.388l-1.837 3.571c.1.022.196.05.284.085.391.131.625.356.7.599zm-1.223-.723 1.883-3.566c-.099-.022-.194-.05-.281-.085-.368-.122-.597-.329-.686-.555l-2.076-.031.714 4.224c.151-.007.302-.003.446.013zm-.699.01-.658-4.25-10.839-.16c-.027.026-.057.051-.09.075-.064.049-.136.093-.215.133l9.885 4.194.947.324c.258-.161.607-.27.97-.316zm-.662-4.275-10.742-.239c.187-.244.188-.537.003-.782l8.991-2.997c.121.129.298.24.531.318.195.078.424.122.665.136zm-1.849-4.148-8.931 3.077c-.122-.137-.305-.256-.549-.337-.687-.344-1.471-.298-2.022.053l-2.068-1.953-.755-3.273 2.858 1.372c-.012.008-.024.017-.035.026-.54.404-.405 1.078.404 1.348.674.269 1.753.135 2.292-.27.162-.121.251-.267.278-.419l8.451-.103c-.042.16-.016.327.077.479zm-13.532 1.003 1.952 1.843-.004.003c-.507-.151-1.059-.147-1.527-.022zm13.432 7.175-10.852-3.71c.524.081 1.149-.004 1.599-.216zm22.083 1.857c.018.002.035.004.053.007l3.658-3.081-2.181.389zm.491.12c.132.044.245.098.341.161l12.823-5.13-.001-.001-9.689 1.731-3.688 3.17c.075.019.147.042.214.069zm13.972-6.225c.376-.108.808-.145 1.194-.095l7.22-6c-.096-.022-.188-.05-.274-.084-.52-.173-.761-.514-.724-.842l-7.163-.581c-.034.125-.101.243-.203.344-.105.079-.231.148-.37.205zm-.418.164c.083-.043.174-.082.27-.116l-.425-7.013c-.542.157-1.202.164-1.669-.023-.322-.107-.537-.279-.646-.472l-2.775.503c.192.3.119.659-.219.913-.15.112-.341.204-.553.271l5.473 5.579zm-.073.041-.223-.147.173.177c.016-.01.033-.02.05-.03zm-.852-.651-5.196-5.296c-.293.081-.618.118-.927.106l.049 1.185zm-6.07-3.913 6.317 4.165.475.485-.003.002c-.306.229-.395.545-.267.825l-9.502 1.777 2.085-1.792c.675.268 1.752.133 2.291-.271s.404-1.078-.405-1.348c-.262-.087-.552-.146-.838-.168zm-.143-.183-.046-1.103c-.051-.005-.103-.011-.153-.019l-.41.72zm-.646-.337.65.428.157 3.76c-.55-.019-1.066.108-1.319.445-.104.078-.183.166-.237.26l-2.034-.012zm-.117-.077-2.904 4.957-9.551-.055-1.344-2.919c.387-.058.751-.188 1-.374.317-.238.401-.568.254-.854l10.739-1.947zm.038-.065.391-.668c-.1-.021-.196-.05-.284-.085-.392-.131-.626-.357-.701-.6l-1.145.207zm-1.911-1.26 1.291-.232c-.008-.118.02-.237.084-.348l-3.176-.607zm-1.99-1.223-12.317-2.355c-.242.139-.553.236-.879.283l2.402 4.804c.494-.102 1.047-.086 1.454.076.255.085.443.21.564.354l10.66-1.92zm-.119-.079-12.049-2.374c.257-.195.359-.45.306-.693l3.705-.653c.087.052.187.098.3.135.597.239 1.511.161 2.087-.141zm.192.038-5.77-3.805c.047-.027.091-.056.132-.087.146-.109.242-.238.289-.373l2.426-.427 6.496 5.084c-.015.01-.029.02-.043.03-.093.07-.166.148-.219.231zm21.693-.366.871-8.378c-.276.013-.549-.011-.789-.077l-9.515 8.156c.095.148.137.313.125.474l7.173.574c.048-.132.144-.258.287-.365.432-.324 1.209-.475 1.848-.384zm-.113-8.521c-.327-.113-.541-.292-.643-.493l-9.04 1.878-.594 6.326c.162.022.315.061.452.115.158.064.287.149.386.249zm-9.307-2.605 8.801 1.367c-.173.179-.236.393-.19.597l-8.973 1.878zm9.334 1.04c-.151.059-.287.13-.401.213l-8.921-1.386.304-3.232c.356-.063.687-.187.918-.361.058-.043.106-.089.146-.137zm-9.291-4.368-.297 3.153-7.563-1.175c.12-.327-.073-.703-.461-.932l5.101-2.233 1.466-.008c-.205.386.012.853.653 1.067.312.124.71.163 1.101.128zm-7.924 2.103 7.615 1.183-.371 3.942-4.492.94c-.042-.077-.102-.151-.179-.219l-3.438-5.342c.262-.07.499-.175.677-.308.08-.06.143-.126.188-.196zm9.052-6.09-12.227-5.224c-.075.043-.155.079-.238.109l7.383 4.974 5.05.171c.01-.01.021-.02.032-.03zm-.144.161-4.727-.16 2.558 1.723 2.118-.932c-.101-.206-.084-.432.051-.631zm.045.778-2.048.897.458.309c.466-.079.97-.055 1.348.096.575.23.855.753.592 1.153l7.987 4.924-6.297-6.949c-.499.107-1.061.093-1.473-.072-.257-.085-.446-.212-.567-.358zm-13.631-5.986c-.21-.019-.416-.058-.607-.119l-3.923 3.046 3.169 1.353c.219-.053.461-.071.706-.051l.952-4.19c-.099-.008-.198-.021-.297-.039zm-.711-.155c-.342-.133-.55-.342-.622-.567l-9.154 1.103 5.822 2.488zm-9.892.487 9.244-1.189c-.004-.042-.003-.084.003-.125l-12.667-.322c-.029.044-.065.087-.107.129zm-21.57 1.765c.084.058.155.121.214.188l2.879-.234 9.86-2.875zm.397.741c.032-.18-.028-.369-.17-.538l2.673-.192zm-.073.191c.036-.061.06-.124.072-.188l.133.132 3.164-.922 5.719-.412-3.947 1.864c-.658-.211-1.51-.045-1.97.414-.262.197-.365.457-.308.704l-4.917 2.503.125-2.464 2.134-1.687h-.135zm-1.879.643c.44.045.889.007 1.251-.147l-1.296 1.024zm25.994 31.601-6.839-3.851h5.998l1.571 3.478c-.247.07-.47.17-.64.297-.032.025-.062.05-.09.076zm.965-.429-1.575-3.422h9.503l-1.994 3.403-3.83.716c-.088-.215-.317-.428-.687-.613-.396-.159-.932-.178-1.417-.084zm-15.236-3.223-.602-3.564c.426.002.872-.088 1.215-.252l1.904 2.941c-.055.042-.107.088-.156.137-.291.218-.386.515-.284.785zm4.106-2.071-3.295-1.856c.023-.015.045-.031.067-.047.163-.163.252-.326.278-.481l4.075.134zm1.192-2.385-4.134-.134c-.019-.304-.28-.568-.691-.732-.126-.051-.266-.087-.415-.11l3.666-6.375 3.561.605c-.462.408-.306 1.037.469 1.296.073.029.151.053.233.073zm-1.768-7.384-3.671 6.385c-.041-.003-.083-.005-.125-.006l-4.647-7.107c.258-.07.491-.173.667-.305.1-.075.177-.159.23-.248zm-8.565-.697 4.582 7.076c-.325.011-.655.074-.937.18l-5.877-7.486.255-.098c.117.105.275.196.474.262.42.168.997.179 1.503.066zm-2.43-.153 5.894 7.488c-.091.045-.174.095-.248.15-.032.024-.062.049-.09.075l-13.85-3.163c.228-.069.434-.164.592-.283.477-.358.427-.927-.151-1.24zm-8.653 4.634 14.091 3.218c-.016.023-.03.047-.043.071l-8.496.103c-.018-.313-.279-.629-.69-.793-.632-.253-1.62-.15-2.185.197l-2.961-1.461-.299-1.293c.193.004.391-.01.583-.042zm33.034-16.705-2.886-1.258 3.315-2.574 3.051 1.331c-.211.085-.388.209-.507.367-.299.224-.391.531-.276.806zm-.092.131-1.682.836h3.589zm2.067.73-1.884-.821 2.633-1.31c.097.18.285.342.566.453zm.244.106-.124-.054 1.308-1.688c.676.256 1.734.119 2.266-.28.385-.289.427-.715.125-1.033l8.012.271 2.619 1.764-2.316 1.02zm4.416 3.292-8.319 3.665c-.06-.03-.126-.057-.197-.08-.318-.128-.726-.165-1.125-.126l-.059-.147 5.048-6.514h.036l5.054 2.217c-.069.037-.133.077-.19.12-.321.24-.403.576-.248.865zm.083.122-8.265 3.619c.459.294.517.766.172 1.104l1.75 1.385 6.509-5.951c-.065-.049-.121-.101-.166-.157zm.414.301c.048.022.1.042.155.06.397.159.934.178 1.418.084l3.244 5.068c-.025-.01-.051-.019-.078-.028-.674-.27-1.752-.27-2.292.27-.305.229-.394.544-.268.824l-6.822 1.201-1.946-1.54zm-6.868 5.908-1.764-1.381c-.203.145-.476.254-.773.32l.843 2.085c.177.004.349.024.508.061zm-.964 1.151 1.132-1.02 1.879 1.471-2.253.397c.033-.327-.209-.663-.725-.835-.011-.005-.022-.009-.033-.013zm17.29-11.682.435.293c-.326.067-.625.185-.839.346-.108.08-.189.172-.243.269h-1.428zm-9.304 3.117c.572-.225 1.357-.264 1.889-.052l.019.008 4.865-2.143-11.64.066zm4.99 8.038c.142-.106.237-.231.286-.363l3.193 4.991c-.355.063-.686.187-.917.361-.279.209-.378.489-.297.749l-2.817.508c-.121-.127-.297-.237-.527-.313-.27-.09-.556-.135-.836-.14l.61-5.387c.493-.026.991-.17 1.305-.406zm3.723 4.594c.137-.014.276-.018.411-.013l.587-6.246-4.424.919c.003.01.006.02.008.03zm-23.238-12.123 2.054-1.021 1.957 4.839-.229.292c-.277.07-.529.178-.716.318-.025.019-.048.038-.07.057l-4.428-1.666zm2.166-1.077 1.934 4.781 4.96-6.331-3.821.021zm1.875 5.134.044-.057.02.048c-.022.003-.043.006-.064.009zm-.571 1.719c.384.154.899.176 1.371.092l.834 2.061c-.523.012-1.062.159-1.395.409-.415.311-.431.782-.048 1.105l-3.595.633c-.097-.214-.321-.407-.673-.524-.046-.019-.093-.035-.143-.05l3.126-4.034c.121.125.296.233.523.308zm10.033-16.359c-.2.06-.416.088-.639.088l-1.049 4.195c.237.034.472.103.689.212.141.047.262.106.362.174l7.968.27zm-1.681 34.801 2.254-.421 2.232-1.88c-.565-.23-.745-.673-.541-1.04h-2.04zm-8.104-3.42-6.166-.035-3.018-1.699 1.153-2.304 4.904.161c-.045.333.196.68.722.855.311.124.708.163 1.098.128zm-2.156-4.671-2.441-4.825c-.236.017-.472.007-.689-.033l-2.678 5.356 4.872.159c.049-.129.144-.252.283-.356.173-.13.401-.232.653-.301zm-4.388 4.634-2.722-1.533-.305.611c.278.02.561.095.829.229.437.146.677.409.721.684zm-2.827-1.592-3.112-1.752 1.754 2.683c.296-.178.654-.271 1.026-.267zm-.226-10.03 3.636.624c.136-.087.299-.16.476-.215l-1.445-2.855c-.419.061-.862.039-1.211-.084zm1.281-2.596-1.474 2.563-7.555-1.295c.058-.184.025-.379-.098-.551l8.575-1.185c.089.185.273.353.552.468zm-.484-1.113-4.369-.729-4.588 2.283c.081.047.151.099.21.155l8.633-1.192c-.042-.175-.004-.356.114-.517zm2.312-.521c-.674-.187-1.624-.043-2.119.328-.032.024-.062.049-.089.075l-4.27-.712 5.192-2.582 2.299.865zm.235.08 1.024-2.014 4.381 1.648c-.051.072-.087.147-.108.224l-4.686.648c-.09-.203-.294-.387-.611-.506zm.653.635 4.624-.639c-.003.114.028.229.092.336l-3.235 4.129c-.361-.064-.775-.047-1.149.039l-1.42-2.841c.301-.069.577-.182.777-.332.259-.194.362-.449.311-.692zm-14.933 2.449-.242.093-1.497-1.907 1.936.864-.002.002c-.351.263-.416.642-.195.948zm-.44.169-1.703-2.164-.208-.093-6.613 5.189c.183.03.363.074.531.13l.027.01zm-1.665-2.45.13.166 2.3 1.027c.236-.209.592-.334.981-.36l-.015-2.936-.589-.098zm2.515-2.25-2.658 2.068-1.546-1.969c.239-.069.455-.168.619-.291.141-.106.227-.23.265-.361zm-5.877.077c-.114-.038-.216-.085-.303-.137l-.605.512 3.942 1.76.021-.017-1.606-2.041c-.492.101-1.043.085-1.449-.077zm6.728-5.739-5.228 4.025c-.355-.06-.731-.057-1.063.001l.262-5.176 4.986-2.493c.106.198.324.374.652.483.115.046.241.081.375.104zm0 .144-5.115 3.903c.094.02.186.045.275.074.44.176.707.524.691.857l3.441.573.733-.57zm-13.307 3.04 5.929 1.482c-.161.298-.071.644.27.886l-.617.522-5.778-2.579c.097-.095.163-.201.196-.311zm12.889 2.416.447.074-.002-.423zm.583.232.015 2.908c.351-.003.721.072 1.046.235.031.01.06.021.088.032l4.528-2.229zm5.882.845-5.883-.98-.003-.551 3.822-2.998c.064.032.134.06.21.086.565.226 1.413.168 1.991-.095l5.149 1.937zm7.828-1.83 1.259-2.517-3.423 1.702zm-28.031 10.992 4.507 6.164c.072-.034.148-.064.227-.09l-.514-2.088zm1.828-5.756 1.131 3.198c.185-.031.385-.04.589-.029l6.755-5.254-3.934-1.757zm4.452-3.881-4.483 3.793-2.142-6.056c.321-.06.62-.168.843-.319zm40.052 3.315-6.755 1.189 6.399 5.063c.317-.195.738-.31 1.181-.326l.508-5.385c-.265-.009-.519-.054-.732-.139-.283-.094-.483-.238-.601-.402z" fill="#ababab" fill-rule="evenodd"/><path clip-rule="evenodd" d="m337.891 175.499c.457.39 1.027.606 1.621.633l-2.785 1.19zm-.672-.865c-.049-.132-.089-.266-.118-.4l-18.575 9.741.008.016c.126.337.187.685.187 1.027l17.471-7.467 1.459-2.285c-.167-.183-.313-.394-.432-.632zm-.173-.742-18.685 9.799c-.718-1.086-2.063-1.466-3.269-1.013-.535.267-.934.672-1.185 1.146-.777.756-1.011 1.909-.618 2.957.197.396.47.718.789.96l-13.721 18.996c-.577-.174-1.215-.156-1.819.07-1.311.657-1.803 2.134-1.311 3.447.441.884 1.254 1.396 2.138 1.487l.045 3.016-2.49 17.632c-.172.042-.344.105-.513.19-1.311.656-1.802 2.134-1.311 3.447.554 1.11 1.694 1.633 2.825 1.471l10.784 19.626c-1.192.692-1.624 2.102-1.153 3.361.656 1.313 2.131 1.806 3.442 1.313.316-.18.594-.423.822-.707l18.383 14.955c-.562.742-.699 1.741-.355 2.66.656 1.313 2.131 1.805 3.442 1.313.98-.491 1.594-1.44 1.568-2.436l23.487-1.268c.012.305.073.613.185.913.656 1.313 2.131 1.806 3.442 1.313 1.148-.656 1.803-2.134 1.312-3.447-.071-.141-.15-.272-.238-.394l17.62-7.94c.751.645 1.809.819 2.777.455 1.311-.493 1.803-1.97 1.311-3.447-.062-.126-.133-.245-.21-.355l12.216-17.831c.604.212 1.285.206 1.926-.035 1.311-.656 1.803-2.133 1.311-3.447-.417-.836-1.168-1.34-1.996-1.468l1.042-20.352c.423.039.861-.017 1.282-.176 1.311-.656 1.803-2.133 1.311-3.447-.646-1.293-2.087-1.79-3.383-1.334l-8.776-20.76c.065-.02.13-.042.194-.066.803-.402 1.298-1.111 1.449-1.903.188-.598.163-1.27-.137-1.872-.656-1.313-2.131-1.806-3.442-1.313-.42.21-.756.504-1.002.851l-15.918-10.715c.571-.697.712-1.736.366-2.776-.656-1.313-2.131-1.805-3.442-1.313-.71.355-1.179.951-1.383 1.631l-24.051-4.108c-.031-.16-.075-.32-.134-.477-.656-1.314-2.131-1.806-3.442-1.314-1.068.535-1.592 1.614-1.485 2.705zm-19.25 13.259c.043-.066.082-.134.119-.203.289-.281.502-.617.637-.981l13.795-2.393-7.075 11.08c-.437-.048-.892.007-1.329.171-.165.082-.316.178-.455.284zm14.736-3.867-13.918 2.492c.054-.186.087-.377.1-.572l17.221-7.25zm-31.241 23.957c-.182-.152-.381-.277-.592-.374l13.581-18.988c.154.096.316.174.484.236l-5.261 15.357zm.423 3.523c.487-.692.591-1.668.266-2.643-.119-.24-.266-.452-.434-.636l7.811-3.584-2.648 7.728c-.503-.105-1.059-.083-1.615.103-.71.355-1.18.952-1.383 1.632zm-.868.729c.243-.115.454-.266.632-.446l2.137 2.783c-.052.443.002.905.168 1.349.165.331.383.611.637.835l-1.11 2.635zm-.674.213c.112-.02.224-.048.335-.083l2.592 7.528-3.182 7.556-.179-11.93zm-.479.049c.047-.001.094-.003.142-.006l-.129.909zm11.118 45.254c-.549-.196-1.162-.214-1.752-.038l-7.986-18.525c.137-.029.274-.069.409-.12l14.027 8.993zm-10.072-18.511c-.938.09-1.866-.289-2.445-1.079-.042.012-.085.022-.127.032l9.427 16.949zm-1.135-5.015c.029-.008.058-.016.086-.023l-.077-5.186-1.72 4.084c.67.12 1.286.525 1.711 1.125zm.325-5.96.088 5.876c1.117-.142 2.235.382 2.782 1.478.134.402.195.803.187 1.185l15.71.238c.061-.489.251-.955.563-1.345l-11.071-6.23c-.249.367-.579.679-.963.899-1.311.493-2.786 0-3.442-1.313-.489-1.305-.006-2.772 1.287-3.435l-1.811-5.26zm18.746 9.105-15.714-.238c-.1.754-.485 1.401-1.128 1.772l13.82 8.859 4.051-8.356c-.342-.246-.634-.58-.842-.998-.127-.341-.189-.693-.187-1.039zm-6.868 21.019c-.2-.204-.428-.371-.674-.498l4.62-9.674 2.781 1.783c-.058.452-.005.924.165 1.377.087.174.188.334.302.48zm.417 2.769c.281-.639.34-1.375.082-2.066-.083-.165-.178-.316-.284-.455l7.197-6.535c.755.753 1.889.976 2.922.588.459-.23.817-.56 1.068-.949l2.187 1.33 3.906 14.417c-.492.411-.801.966-.912 1.567zm-.217.407c.04-.064.078-.129.114-.195l16.226 8.059c-.017.383.043.775.184 1.153.656 1.314 2.131 1.806 3.442 1.314.568-.325 1.015-.85 1.262-1.457l5.919 1.465-5.274 4.506c-.747-.608-1.779-.766-2.725-.411-.287.144-.535.327-.742.539zm46.34 15.17-23.505 1.41c-.029-.279-.108-.559-.245-.832-.035-.071-.073-.14-.113-.206l8.858-4.166 15.012 3.717-.003.036c-.001.014-.003.028-.004.041zm-15.439-3.901-8.627 3.982c-.05-.064-.103-.124-.158-.181l5.423-4.634zm37.502-5.579-17.584 7.924c-.418-.448-.964-.724-1.548-.813l8.882-16.095c.221-.028.442-.083.659-.164.326-.163.602-.378.824-.628l8.508 6.813c-.388.698-.452 1.554-.154 2.351.115.229.254.433.413.612zm-10.638-8.961-8.852 16.041c-.168-.003-.337.008-.506.035l-.147-.785.195-16.932c.338-.001.682-.062 1.015-.187.868-.435 1.377-1.229 1.479-2.098l4.257 1.045c-.059.453-.006.927.164 1.381.484.969 1.414 1.491 2.395 1.5zm-9.814 13.641.176-15.301c-.496-.057-.969-.249-1.364-.564l-1.336 2.383zm-.021 1.797-2.763-14.817-4.594 8.19c.353.248.652.588.866 1.015.491 1.313 0 2.791-1.312 3.447-1.264.475-2.681.034-3.369-1.176l-5.06 2.38 14.699 3.576c.168-.76.657-1.436 1.434-1.825l.09-.033zm-2.839-15.227-4.817 8.418c-.683-.355-1.509-.405-2.277-.116-.239.12-.451.267-.635.435l-2.492-1.503 9.98-8.527zm.26-.455 1.227-2.144c-.031-.03-.062-.06-.091-.092l-1.34 1.144zm-.274-1.464 1.2-1.025c-.092-.126-.176-.262-.249-.409-.249-.665-.246-1.373-.011-1.994l-1.658-.407zm-1.076-3.923-16.534-4.059c-.165.795-.655 1.495-1.436 1.788-.609.229-1.254.245-1.836.065l-2.154 7.546 12.532 7.557 10.207-8.72zm-.037-.196-16.468-4.023c.075-.496.026-1.019-.153-1.499-.386-.772-1.054-1.26-1.805-1.431l3.158-12.158c.597.208 1.268.205 1.902-.027l12.535 14.681zm.358.087 1.767.431c.14-.304.338-.583.591-.822l-3.113-3.646zm-.877-4.684 3.487 4.084c.126-.092.261-.176.407-.249.032-.016.063-.031.095-.045l-1.632-16.427-3.699-.963c-.258.303-.595.543-.993.692-.025.01-.051.019-.076.028zm-2.723-12.791c-1.204.272-2.462-.245-3.054-1.43-.07-.188-.12-.38-.151-.572l-5.5-1.431c-.171.607-.552 1.151-1.126 1.521l12.122 14.196zm31.583 28.79c-.753-.821-1.933-1.075-3.003-.673-.407.203-.735.486-.98.819l-8.483-6.794c.229-.334.377-.714.438-1.112l23.152-10.8c.285.417.663.727 1.089.922zm9.227-39.399 3.818 16.879c-.27.02-.541.08-.806.179l-.033.017-9.547-9.903 4.677-6.9c.524.117 1.088.081 1.625-.121.093-.046.181-.097.266-.151zm1.635 18.67c.174-.563.53-1.067 1.054-1.423l-9.445-9.797-5.733 8.458zm-14.473-2.83 5.849-8.632-8.488-8.805c-.16.109-.335.2-.523.271-.393.147-.8.206-1.196.181l-2.715 14.917c.004.228-.021.453-.071.67zm-2.38-17.64 8.417 8.731 4.579-6.756c-.619-.224-1.156-.677-1.486-1.337-.368-.984-.185-2.059.481-2.813l-1.798-1.069-9.442 1.006c.143.88-.156 1.699-.751 2.238zm2.576 17.934 14.199 2.861c-.087.491-.042 1.012.144 1.51l.01.019.011.022.005.011-22.95 10.704c.007-.356-.054-.719-.186-1.071-.105-.211-.231-.4-.374-.567zm15.795-22.05c.005.326.067.657.187.978.39.782 1.071 1.273 1.835 1.438l-1.039 20.296-3.848-17.009c.887-.75 1.173-1.975.758-3.083-.367-.734-.989-1.212-1.696-1.404l-.138-.796zm.784-1.958c-.445.443-.707 1.019-.769 1.628l-4.012.427-1.039-6.011zm.481-.38c-.079.049-.154.101-.226.156l-6.153-4.181-2.899-16.766c.156-.001.314-.016.47-.044zm-27.505-35.751 15.899 10.833c-.05.095-.094.193-.133.293l-13.451-4.676-2.565-6.24c.09-.064.173-.134.25-.21zm2.472 6.833 13.201 4.589c-.071.274-.098.56-.082.849-.015.249.003.502.056.754l-9.12 3.675zm-30.772-13.237c.01.131.01.262.001.392l4.681 1.977 17.032 1.339zm-.624 1.952c.321-.379.523-.835.598-1.318l3.882 1.671zm28.391 4.835c-.079.04-.162.077-.248.109-1.311.493-2.786 0-3.442-1.313-.087-.232-.143-.469-.169-.706l-9.781 1.483 2.051.867c.227-.263.512-.489.852-.659 1.311-.492 2.786 0 3.442 1.313.232.524.3 1.048.232 1.528l9.497 3.302zm-7.573 3.802c.206-.255.358-.551.446-.873l9.719 3.378 4.164 10.133-7.839 3.16zm-1.238.808c.068-.02.137-.043.204-.069.299-.112.564-.275.787-.478l6.432 15.659-4.407 1.777c-.008-.017-.016-.034-.025-.05-.46-.922-1.323-1.439-2.25-1.496zm.406 15.343-.732-15.267c-1.073.187-2.169-.246-2.776-1.216l-18.468 7.373-6.44 10.807 8.211-3.386c-.116-1.098.409-2.187 1.483-2.725 1.475-.656 2.95 0 3.442 1.314.491 1.313 0 2.79-1.312 3.447l-.032.012-.024.008-.026.009 4.028 8.18 7.455-1.224 3.395-3.138c-.142-.167-.267-.355-.372-.564-.491-1.314 0-2.791 1.311-3.447.282-.106.571-.166.857-.183zm-1.569 4.43-3.035 2.805 3.866-.635.48-1.517c-.484-.091-.938-.311-1.311-.653zm1.626.693-.45 1.421 5.545-.911-2.766-1.645c-.271.391-.651.724-1.112.955-.4.15-.814.209-1.217.18zm2.454-1.334 3.022 1.782 3.623-.596-2.066-5.029-4.414 1.752c.282.715.193 1.464-.165 2.091zm-6.173-20.564c-.297-.84-.196-1.742.263-2.45l-2.463-1.06-8.055 1.221c.039.067.077.135.112.205.492 1.313 0 2.791-1.311 3.447-.985.37-2.062.185-2.815-.486l-3.769 6.325zm8.212-5.755c-.014.112-.021.224-.022.337l-10.342 1.568-7.908-3.341zm-36.612 89.101-3.732-14.103 7.957 4.841-2.528 8.853c-.43-.045-.877.011-1.306.172-.14.07-.27.149-.391.237zm2.023-.356 2.492-8.73 12.34 7.508-6.933 5.923-6.066-1.476c.187-.57.199-1.198-.023-1.793-.386-.773-1.056-1.261-1.81-1.432zm-15.579-19.097 4.003-8.384c.568.336 1.248.451 1.917.325l.045.167-1.368 7.767c-.162.031-.324.076-.483.136-.742.371-1.221 1.005-1.409 1.723zm6.307-7.942.041-.233.06-.021c.413-.207.761-.495 1.023-.834l5.217 3.52-4.57 4.262zm6.512 2.272-5.256-3.546c.462-.71.569-1.602.156-2.428-.077-.155-.166-.298-.264-.43l13.161-11.28 3.755 4.124c-1.137.707-1.543 2.085-1.081 3.319.054.108.114.211.179.308zm7.576-17.927-13.152 11.273c-.045-.047-.092-.092-.14-.136l3.439-19.516c.369.011.746-.049 1.111-.186.219-.11.415-.242.587-.393zm-13.584 10.909c-.471-.317-1.032-.473-1.605-.455l2.327-20.999.51-.024c.027.232.083.464.168.691.419.839 1.172 1.343 2.004 1.469zm.391-21.438-2.329 21.014c-.2.03-.4.082-.596.155-.11.055-.214.116-.313.183l-13.605-17.724c.323-.006.651-.067.969-.187 1.085-.543 1.609-1.647 1.479-2.756zm-17.322 3.595 13.799 17.977c-.031.027-.061.055-.09.083l-11.128-6.263c.363-.681.465-1.501.179-2.266-.602-1.207-1.897-1.72-3.12-1.414l-1.946-5.649 1.218-2.893c.328.222.699.365 1.088.425zm86.798 1.605.131.733c-.507-.1-1.047-.059-1.562.135-.212.106-.402.233-.57.377l-1.483-.874zm-23.886 34.354c.621-.233 1.278-.246 1.868-.055l2.406-13.221c-.223.254-.501.471-.832.636-.835.314-1.737.228-2.451-.215l-7.787 11.454c.366.267.677.633.896 1.072.143.381.202.775.184 1.159l4.273 1.043c.157-.779.65-1.476 1.443-1.873zm2.179.068c.237.111.458.257.655.437l9.027-13.318-7.047-1.42c-.02.062-.042.123-.066.183zm2.589-16.117.007.022 2.554-14.035c-.798-.146-1.515-.644-1.92-1.455-.01-.027-.02-.054-.029-.082l-16.499 8.149.476 5.058 10.539 2.743c.183-.73.665-1.375 1.416-1.751 1.311-.657 2.95 0 3.442 1.313zm-15.909-7.636-.42-4.466c.816-.598 1.194-1.568 1.072-2.538l15.716-1.676c.012.184.041.369.089.553zm-.277.137-2.979 1.472c-.154-.246-.339-.457-.548-.632l1.595-5.034c.454.06.929.008 1.385-.163.037-.019.073-.038.108-.057zm-2.869 1.662 2.892-1.428.482 4.852-3.456-.899c.422-.677.507-1.574.109-2.471-.009-.018-.018-.036-.027-.054zm19.513-10.807-15.774 1.682c-.028-.115-.063-.229-.106-.342-.219-.585-.633-1.007-1.156-1.252l.086-.27 15.387-10.605 3.45 8.399c-.132.03-.263.069-.393.117-.925.464-1.442 1.336-1.494 2.271zm5.087-.542c-.039-.138-.089-.277-.151-.415-.536-1.075-1.621-1.6-2.717-1.486l-3.342-8.134 15.254 9.07zm9.363-24.701c-.36-.036-.709-.143-1.025-.316l-6.805 8.503c.242.232.451.513.61.833.097.259.156.525.178.79l10.007 6.801zm3.046 17.062-10.084-6.852c-.055.929-.572 1.795-1.493 2.257-1.181.443-2.495.088-3.223-.946l-3.97 2.736 15.978 9.418 3.898-.415zm-51.643 59.34 3.505.852 5.393-2.488c-.321-.935-.151-1.942.454-2.672l-2.517-1.531zm-6.01-13.986-8.128-4.902-1.587-6 4.699-4.383 6.065 4.092c-.438.713-.521 1.612-.21 2.445.296.593.759 1.018 1.299 1.261zm1.176-11.382c.244-.33.57-.611.975-.813.431-.162.88-.218 1.312-.172l3.177-12.232c-.339-.168-.645-.411-.894-.723l-10.591 9.877zm-9.63 6.284-1.51-5.572-1.174 1.095c.339.245.626.577.833.991.29.775.238 1.608-.124 2.295zm-1.578-5.825-1.662-6.133-1.229 6.978c.559-.039 1.112.089 1.586.371zm48.775-37.538 3.937-2.713c-.016-.029-.031-.059-.046-.089-.166-.442-.22-.903-.168-1.345l-5.085.832zm-.349.014-4.64-2.735 3.295-.539zm-1.149-3.658 5.288-.869c.186-.723.666-1.362 1.412-1.736.416-.208.849-.284 1.267-.249l-2.204-5.361-7.856 3.119zm-3.876.986 4.955 2.946-14.956 10.308 3.881-12.252zm-12.097 18.838-1.551 4.897c-.721-.465-1.641-.561-2.492-.241-1.009.505-1.533 1.498-1.496 2.527l-5.397-1.404c.074-.474.025-.974-.154-1.451-.053-.107-.111-.208-.174-.306l9.329-6.429c.004.33.066.664.187.989.376.752 1.02 1.235 1.748 1.418zm1.246-4.998.431-.297 3.954-12.484-4.202.687-5.522 5.104 3.539 7.186c.038-.022.077-.043.117-.063.582-.194 1.163-.235 1.683-.133zm-14.27 7.796c.599.113 1.154.455 1.566.959l9.55-6.581c.047-.344.159-.675.332-.976l-6.794-2.17c-.245.527-.665.979-1.245 1.269-.494.186-1.011.232-1.499.146zm1.591-7.428-1.92 7.389c-.363-.017-.736.051-1.099.217l-3.828-4.16 5.357-4.591c.36.577.892.964 1.49 1.145zm-1.77-2.883c-.081.468-.043.963.124 1.439l-5.423 4.648-8.214-8.926c.34-.357.566-.794.669-1.263zm.949-1.622-4.646-4.956-9.108 1.491c.03.22.034.441.013.657l12.868 4.109c.15-.5.445-.954.873-1.301zm3.803.728 4.039-3.733-1.821-3.697-10.344 1.693 4.522 4.863c.097-.065.2-.125.309-.18 1.221-.458 2.584-.063 3.295 1.054zm.201 2.131c.187-.579.179-1.223-.04-1.833l4.029-3.724 3.519 7.146c-.255.169-.47.374-.645.603zm-22.859-5.845-.454.022.633-5.718 1.314 3.27c-.974.49-1.494 1.434-1.493 2.426zm-.786.038.707-6.377-.144-.357-15.576 6.422c.173.188.314.402.415.636.045.121.082.243.11.365zm1.101-6.956-.078.701 1.472 3.72c.693-.195 1.417-.085 2.031.236l3.941-6.672-.692-.737zm6.987-2.881.545.586.633-1.072zm.567 1.067-3.926 6.588c.41.256.758.609.997 1.029.039.104.072.21.099.317l8.898-1.462zm6.394 6.419-6.228-6.697.862-1.447 8.547-3.524c.029.131.068.262.116.39.607 1.216 1.916 1.728 3.147 1.407l4.014 8.153zm12.602 2.139 5.086-4.7-6.848 1.121zm-19.802-9.882-3.833-4.122c.407-.7.535-1.564.235-2.367-.048-.096-.1-.187-.156-.274l11.818-4.719-6.37 10.784zm-.314.13-3.712-3.96c-.238.319-.538.591-.883.788-.386.145-.786.204-1.175.183l-.623 5.625zm-8.037-4.485c-.051-.135-.091-.271-.121-.408l-1.488.683 2.785 7.039.122-.051.644-5.804c-.807-.141-1.534-.641-1.942-1.459zm-1.73-.031 1.556-.714c-.083-.848.216-1.688.854-2.271l-5.657-7.908c-.21.266-.476.497-.796.678zm11.882-14.743-7.162 11.218c.538.132 1.032.428 1.405.874l12.294-4.907 4.007-6.784c-.142-.167-.268-.355-.372-.565-.195-.52-.236-1.067-.132-1.577zm-33.342 33.378-2.182 15.455c.097-.009.195-.012.292-.009l2.048-4.863zm10.326-13.164-2.742 8.003c.308.103.589.255.83.448l15.719-6.481-2.818-7.013zm10.866-5.348-10.72 4.92 5.164-15.075c.469.11.97.096 1.456-.048zm15.833-20.634-3.496 5.475 9.943-1.78c.217-.641.676-1.199 1.353-1.538 1.13-.566 2.381-.157 3.125.807l7.69-1.166-8.138-3.502-5.464-.429v.022zm40.603 18.914 2.279 5.545c.334.084.652.239.935.454l6.776-8.467c-.339-.246-.628-.578-.835-.993-.019-.05-.036-.101-.052-.152zm-8.547 40.635-10.445-2.718 1.533 16.288c.72-.263 1.47-.152 2.092.228l7.788-11.456c-.326-.243-.602-.568-.803-.969-.169-.451-.221-.922-.165-1.373z" fill="url(#w)" fill-rule="evenodd"/><path d="m261.878 189.436v-189.436h-112.969v189.436c0 .688.501 1.547 1.502 2.063l51.562 30.599c2.002 1.203 5.006 1.203 7.008 0l51.562-30.599c1.001-.516 1.501-1.203 1.335-2.063z" fill="url(#x)" opacity=".5"/></svg>