<svg fill="none" height="424" viewBox="0 0 606 424" width="606" xmlns="http://www.w3.org/2000/svg" xmlns:xlink="http://www.w3.org/1999/xlink"><radialGradient id="a" cx="0" cy="0" gradientTransform="matrix(244.11370077 .38222063 -.17406247 111.16886373 304.804 249.535)" gradientUnits="userSpaceOnUse" r="1"><stop offset="0" stop-color="#f16822"/><stop offset="1" stop-color="#f16822" stop-opacity="0"/></radialGradient><linearGradient id="b"><stop offset="0" stop-color="#c1c1c1"/><stop offset=".3271" stop-color="#afafaf"/><stop offset=".9806" stop-color="#808080"/><stop offset="1" stop-color="#7f7f7f"/></linearGradient><linearGradient id="c" gradientUnits="userSpaceOnUse" x1="147.47" x2="241.872" xlink:href="#b" y1="264.337" y2="318.84"/><linearGradient id="d"><stop offset="0" stop-color="#f4f4f4"/><stop offset=".0228415" stop-color="#f3f3f3"/><stop offset=".5511" stop-color="#e5e5e5"/><stop offset="1" stop-color="#e0e0e0"/></linearGradient><linearGradient id="e" gradientUnits="userSpaceOnUse" x1="135.633" x2="254.615" xlink:href="#d" y1="284.939" y2="284.939"/><linearGradient id="f" gradientUnits="userSpaceOnUse" x1="374.429" x2="468.831" xlink:href="#b" y1="128.794" y2="183.297"/><linearGradient id="g" gradientUnits="userSpaceOnUse" x1="362.592" x2="481.574" xlink:href="#d" y1="149.396" y2="149.396"/><linearGradient id="h"><stop offset="0" stop-color="#bfbfbf"/><stop offset=".0740529" stop-color="#b9b9b9"/><stop offset=".4141" stop-color="#a1a1a1"/><stop offset=".731" stop-color="#939393"/><stop offset="1" stop-color="#8e8e8e"/></linearGradient><linearGradient id="i" gradientUnits="userSpaceOnUse" x1="191.934" x2="178.075" xlink:href="#h" y1="262.477" y2="261.499"/><linearGradient id="j" gradientUnits="userSpaceOnUse" x1="185.606" x2="183.713" xlink:href="#h" y1="149.067" y2="148.934"/><linearGradient id="k" gradientUnits="userSpaceOnUse" x1="208.799" x2="175.621" xlink:href="#h" y1="221.278" y2="218.937"/><linearGradient id="l" gradientUnits="userSpaceOnUse" x1="180.594" x2="173.39" xlink:href="#h" y1="178.715" y2="178.207"/><linearGradient id="m" gradientUnits="userSpaceOnUse" x1="224.243" x2="196.938" xlink:href="#h" y1="256.009" y2="254.082"/><linearGradient id="n" gradientUnits="userSpaceOnUse" x1="209.683" x2="206.223" xlink:href="#h" y1="244.037" y2="243.792"/><linearGradient id="o" gradientUnits="userSpaceOnUse" x1="216.689" x2="213.247" xlink:href="#h" y1="237.46" y2="237.217"/><linearGradient id="p" gradientUnits="userSpaceOnUse" x1="212.253" x2="187.28" xlink:href="#h" y1="206.36" y2="204.598"/><linearGradient id="q" gradientUnits="userSpaceOnUse" x1="284.405" x2="336.126" y1="190.489" y2="264.813"><stop offset="0" stop-color="#d1d1d1"/><stop offset=".2404" stop-color="#d8d8d8"/><stop offset=".5775" stop-color="#eaeaea"/><stop offset=".5808" stop-color="#eaeaea"/><stop offset=".9091" stop-color="#fafafa"/><stop offset="1" stop-color="#fff"/></linearGradient><radialGradient id="r" cx="0" cy="0" gradientTransform="matrix(-17.9291 0 -0 -17.9012 341.481 222.033)" gradientUnits="userSpaceOnUse" r="1"><stop offset="0" stop-color="#c4c4c4"/><stop offset="1" stop-color="#fff"/></radialGradient><linearGradient id="s"><stop offset="0" stop-color="#f16822"/><stop offset="1" stop-color="#c73b00"/></linearGradient><linearGradient id="t" gradientUnits="userSpaceOnUse" x1="240.655" x2="376.472" xlink:href="#s" y1="270.065" y2="211.863"/><linearGradient id="u"><stop offset="0" stop-color="#f17922"/><stop offset="1" stop-color="#d74608"/></linearGradient><linearGradient id="v" gradientUnits="userSpaceOnUse" x1="342.069" x2="311.172" xlink:href="#u" y1="154.486" y2="202.5"/><linearGradient id="w" gradientUnits="userSpaceOnUse" x1="327.775" x2="303.298" xlink:href="#u" y1="158.933" y2="198.198"/><linearGradient id="x" gradientUnits="userSpaceOnUse" x1="246.023" x2="270.257" xlink:href="#s" y1="201.849" y2="201.849"/><linearGradient id="y" gradientUnits="userSpaceOnUse" x1="251.046" x2="269.454" xlink:href="#s" y1="165.694" y2="165.694"/><linearGradient id="z" gradientUnits="userSpaceOnUse" x1="233.694" x2="287.047" xlink:href="#s" y1="158.995" y2="158.995"/><clipPath id="A"><path d="m260.952 204.997h112.389v68.3323h-112.389z"/></clipPath><clipPath id="B"><path d="m231.282 122.279h55.7448v92.6083h-55.7448z"/></clipPath><mask id="C" height="70" maskUnits="userSpaceOnUse" width="53" x="283" y="136"><path d="m309.098 139.585c-7.306-4.193-13.913-4.574-18.677-1.842l-6.734 3.875c4.765-2.795 11.371-2.414 18.677 1.842 14.484 8.386 26.237 28.715 26.173 45.359 0 8.259-2.985 14.103-7.686 16.835l6.734-3.875c4.701-2.732 7.623-8.577 7.686-16.835.064-16.581-11.689-36.973-26.173-45.359z" fill="#f16822"/></mask><path d="m601.547 249.066-1.299-.74h-.186l-11.318-6.471h.186l-1.299-.74h-.186l-11.318-6.471h.185l-1.299-.74h-.185l-11.319-6.471h.186l-1.299-.74h-.185l-11.319-6.471h.186l-1.299-.74h-.186l-11.318-6.471h.186l-1.299-.74h-.186l-11.318-6.472h.185l-1.299-.739h-.185l-11.319-6.472h.186l-1.299-.739h-.185l-11.319-6.472h.186l-1.299-.739h-.186l-11.318-6.472h.185l-1.298-.739h-.186l-11.318-6.472h.185l-1.299-.739h-.185l-11.319-6.472h.186l-1.299-.74h-.186l-11.318-6.471h.186l-1.299-.74h-.186l-11.318-6.471h.185l.557-.185h-.186l-11.318-6.471h.186l-1.299-.74h-.186l-11.318-6.472h.185l-1.299-.739h-.185l-11.319-6.472h.186l-1.299-.739h-.185l-11.319-6.472h.186l-1.299-.739h-.186l-10.576-6.287h.186l-1.299-.74h-.186l-11.318-6.471h.185l-1.298-.74h-.186l-11.318-6.471h.185l-1.299-.74h-.185l-11.319-6.4711h.186l-1.299-.7397h-.186l-11.318-6.4714h.186l-1.299-.7396h-.186l-11.318-6.4715h.185l-1.299-.7396h-.185l-11.318-6.4715h.185l-1.299-.7396h-.185l-1.299.7396-11.319 6.4715-1.298.7396-11.319 6.4715-1.299.7396-11.318 6.4714-1.299.7397-11.318 6.4711-1.299.74-11.319 6.471-1.299.74-11.318 6.471.557.74-11.319 6.472-1.299.739-11.318 6.472-1.299.739-11.318 6.472-1.299.739-11.319 6.472-1.298.739-11.319 6.472-1.299.739-11.318 6.472-1.299.74-11.318 6.471-1.299.74-11.319 6.471-1.113.74-11.318 6.471-1.299.74-11.319 6.471-1.2984.74-11.3185 6.471-1.2988.74-11.3184 6.471-1.2989.74-11.3184 6.472-1.2988.739-11.3185 6.472-1.2988.739-11.3184 6.472-1.2989.739-11.3184 6.472-1.2988.739-11.3185 6.472 1.1133.185-11.31842 6.471-1.298832.74h-.185548l1.29884.739h.18554l11.31842 6.472h-.1855l1.2988.74h.1856l11.3184 6.471h-.1856l1.2989.74h.1855l11.3185 6.471h-.1856l1.2988.74h.1856l11.3184 6.471h-.1855l1.2988.74h.1856l11.3184 6.471h-.1856l1.2989.74h.1855l11.3184 6.471h-.1855l1.2988.74h.1856l11.3184 6.471h-.1855l1.2988.74h.1856l11.3187 6.471h-.186l1.299.74h.186l11.318 6.472h-.186l1.299.739h.186l11.318 6.472h-.185l1.299.739h.185l11.318 6.472h-.185l1.299.739h.185l11.319 6.472h-.186l1.299.739h.186l11.318 6.472h-.186l1.299.739h.186l11.318 6.472h-.185l1.299.74h.185l11.319 6.471h-.186l1.299.74h.185l11.319 6.471h-.186l1.299.74h.186l11.318 6.471h-.185l1.298.74h.186l11.318 6.471h-.185l1.299.74h.185l11.319 6.471h-.186l1.299.74h.185l11.319 6.471h-.186l1.299.74h.186l11.318 6.472h-.185l1.298.739h.186l11.318 6.472h-.185l1.299.739h.185l11.319 6.472h-.186l1.299.739h.186l11.318 6.472h-.186l1.299.739.557-.369.928-.555 12.06-6.841.371-.185 11.319-6.472 1.299-.739 11.318-6.472.928-.555 11.504-6.656.556-.37 11.876-6.841 1.298-.74 11.319-6.471 1.113-.74 11.69-6.656.742-.37 11.318-6.471 1.299-.74 11.319-6.471 1.113-.74 11.318-6.472 1.299-.739 11.318-6.472 1.299-.739 11.319-6.472 1.299-.739 11.318-6.472 1.299-.739 11.318-6.472 1.299-.739 11.319-6.472 1.298-.74 11.319-6.471 1.299-.74 11.318-6.471 1.299-.74 11.318-6.471 1.299-.74 11.319-6.471 1.299-.74 11.318-6.471 1.299-.74 11.318-6.471 1.299-.74 11.318-6.471 1.299-.74 11.319-6.472 1.299-.739 11.318-6.472zm-15.215-7.026-11.319 6.471-11.318-6.471 11.318-6.472zm-286.672 7.026-11.318 6.471-11.319-6.471 11.319-6.472zm-10.019-7.026 11.318-6.472 11.318 6.472-11.318 6.471zm11.132 7.766 11.319 6.471-11.319 6.472-11.318-6.472zm1.299-.74 11.319-6.472 11.318 6.472-11.318 6.471zm12.432-7.026 11.318-6.472 11.319 6.472-11.319 6.471zm-1.113-.74-11.319-6.471 11.319-6.472 11.318 6.472zm-12.618-7.211-11.318-6.471 11.318-6.472 11.319 6.472zm-1.113.74-11.318 6.471-11.319-6.471 11.319-6.472zm-12.617 7.211-11.319 6.471-11.318-6.471 11.318-6.472zm-12.432 7.026-11.318 6.471-11.319-6.471 11.319-6.472zm1.299.74 11.318 6.471-11.318 6.472-11.318-6.472zm12.432 7.211 11.318 6.471-11.318 6.472-11.319-6.472zm12.431 7.211 11.319 6.471-11.319 6.472-11.318-6.472zm1.299-.74 11.319-6.471 11.318 6.471-11.318 6.472zm12.432-7.211 11.318-6.471 11.319 6.471-11.319 6.472zm12.432-7.211 11.318-6.472 11.319 6.472-11.319 6.471zm12.617-7.026 11.318-6.472 11.319 6.472-11.319 6.471zm-1.299-.74-11.318-6.471 11.318-6.472 11.319 6.472zm-12.432-7.211-11.318-6.471 11.318-6.472 11.319 6.472zm-12.431-7.211-11.319-6.471 11.319-6.472 11.318 6.472zm-12.618-7.211-11.318-6.472 11.318-6.471 11.319 6.471zm-1.113.74-11.318 6.471-11.319-6.471 11.319-6.472zm-12.617 7.211-11.319 6.471-11.318-6.471 11.318-6.472zm-12.432 7.211-11.318 6.471-11.319-6.471 11.319-6.472zm-12.432 7.211-11.318 6.471-11.318-6.471 11.318-6.472zm-12.431 7.026-11.319 6.471-11.318-6.471 11.318-6.472zm1.299.74 11.318 6.471-11.318 6.472-11.319-6.472zm12.431 7.211 11.319 6.471-11.319 6.472-11.318-6.472zm12.432 7.211 11.318 6.471-11.318 6.472-11.318-6.472zm12.432 7.211 11.318 6.471-11.318 6.472-11.319-6.472zm12.431 7.026 11.319 6.471-11.319 6.472-11.318-6.472zm1.299-.555 11.319-6.471 11.318 6.471-11.318 6.472zm12.432-7.211 11.318-6.471 11.319 6.471-11.319 6.472zm12.432-7.211 11.318-6.471 11.319 6.471-11.319 6.472zm12.617-7.211 11.318-6.471 11.319 6.471-11.319 6.472zm12.432-7.211 11.318-6.472 11.319 6.472-11.319 6.471zm12.431-7.026 11.319-6.472 11.318 6.472-11.318 6.471zm-1.298-.74-11.319-6.471 11.319-6.472 11.318 6.472zm-12.432-7.211-11.319-6.471 11.319-6.472 11.318 6.472zm-12.432-7.211-11.318-6.471 11.318-6.472 11.319 6.472zm-12.432-7.211-11.318-6.472 11.318-6.471 11.319 6.471zm-12.431-7.026-11.319-6.472 11.319-6.471 11.318 6.471zm-12.618-7.211-11.318-6.472 11.318-6.471 11.319 6.471zm-1.113.739-11.318 6.472-11.319-6.472 11.319-6.471zm-12.617 7.026-11.319 6.472-11.318-6.472 11.318-6.471zm-12.432 7.212-11.318 6.471-11.319-6.471 11.319-6.472zm-12.432 7.211-11.318 6.471-11.318-6.471 11.318-6.472zm-12.431 7.211-11.319 6.471-11.318-6.471 11.318-6.472zm-12.432 7.211-11.318 6.471-11.319-6.471 11.319-6.472zm-12.617 7.026-11.319 6.471-11.318-6.471 11.318-6.472zm1.299.74 11.318 6.471-11.318 6.472-11.319-6.472zm12.431 7.211 11.319 6.471-11.319 6.472-11.318-6.472zm12.618 7.211 11.318 6.471-11.318 6.472-11.319-6.472zm12.431 7.211 11.319 6.471-11.319 6.472-11.318-6.472zm12.432 7.026 11.318 6.471-11.318 6.472-11.318-6.472zm12.432 7.211 11.318 6.472-11.318 6.471-11.319-6.471zm12.431 7.211 11.319 6.472-11.319 6.471-11.132-6.471zm1.299-.739 11.319-6.472 11.318 6.472-11.318 6.471zm12.432-7.212 11.318-6.471 11.319 6.471-11.319 6.472zm12.432-7.026 11.318-6.471 11.319 6.471-11.319 6.472zm12.617-7.211 11.318-6.471 11.319 6.471-11.319 6.472zm12.432-7.211 11.318-6.471 11.319 6.471-11.319 6.472zm12.431-7.211 11.319-6.471 11.318 6.471-11.318 6.472zm12.432-7.211 11.319-6.472 11.318 6.472-11.318 6.471zm12.617-7.026 11.319-6.472 11.318 6.472-11.318 6.471zm-1.298-.74-11.319-6.471 11.319-6.472 11.318 6.472zm-12.432-7.211-11.319-6.471 11.319-6.472 11.318 6.472zm-12.617-7.211-11.319-6.471 11.319-6.472 11.318 6.472zm-12.432-7.211-11.319-6.472 11.319-6.471 11.318 6.471zm-12.432-7.026-11.318-6.472 11.318-6.471 11.319 6.471zm-12.432-7.211-11.318-6.472 11.318-6.471 11.319 6.471zm-12.431-7.211-11.319-6.472 11.319-6.471 11.318 6.471zm-12.618-7.212-11.318-6.471 11.318-6.471 11.319 6.471zm-1.113.74-11.318 6.472-11.319-6.472 11.319-6.471zm-12.617 7.211-11.319 6.472-11.318-6.472 11.318-6.471zm-12.432 7.211-11.318 6.472-11.319-6.472 11.319-6.471zm-12.432 7.026-11.318 6.472-11.318-6.472 11.318-6.471zm-12.431 7.212-11.319 6.471-11.318-6.471 11.318-6.472zm-12.432 7.211-11.318 6.471-11.319-6.471 11.319-6.472zm-12.617 7.211-11.319 6.471-11.318-6.471 11.318-6.472zm-12.432 7.211-11.318 6.471-11.319-6.471 11.319-6.472zm-12.432 7.026-11.318 6.471-11.319-6.471 11.319-6.472zm1.299.74 11.319 6.471-11.319 6.472-11.318-6.472zm12.432 7.211 11.318 6.471-11.318 6.472-11.319-6.472zm12.432 7.211 11.318 6.471-11.318 6.472-11.319-6.472zm12.431 7.211 11.319 6.471-11.319 6.472-11.318-6.472zm12.618 7.026 11.318 6.471-11.318 6.472-11.319-6.472zm12.431 7.211 11.319 6.472-11.319 6.471-11.318-6.471zm12.432 7.211 11.318 6.472-11.318 6.471-11.318-6.471zm12.432 7.211 11.318 6.472-11.318 6.471-11.319-6.471zm12.431 7.211 11.319 6.472-11.319 6.471-11.318-6.471zm1.299-.739 11.319-6.472 11.318 6.472-11.318 6.471zm12.432-7.211 11.318-6.472 11.319 6.472-11.319 6.471zm12.432-7.211 11.318-6.472 11.319 6.472-11.319 6.471zm12.617-7.212 11.318-6.471 11.319 6.471-11.319 6.472zm12.432-7.026 11.318-6.471 11.319 6.471-11.319 6.472zm12.431-7.211 11.319-6.471 11.318 6.471-11.318 6.472zm12.432-7.211 11.319-6.471 11.318 6.471-11.318 6.472zm12.617-7.211 11.319-6.471 11.318 6.471-11.318 6.472zm12.432-7.211 11.319-6.472 11.318 6.472-11.318 6.471zm12.432-7.026 11.318-6.472 11.319 6.472-11.319 6.471zm-1.299-.74-11.318-6.471 11.318-6.472 11.318 6.472zm-12.432-7.211-11.318-6.471 11.318-6.472 11.319 6.472zm-12.431-7.211-11.319-6.471 11.319-6.472 11.318 6.472zm-12.432-7.211-11.319-6.472 11.319-6.471 11.318 6.471zm-12.617-7.026-11.319-6.472 11.319-6.471 11.318 6.471zm-12.432-7.211-11.319-6.472 11.319-6.471 11.318 6.471zm-12.432-7.211-11.318-6.472 11.318-6.471 11.319 6.471zm-12.432-7.212-11.318-6.471 11.318-6.471 11.319 6.471zm-12.431-7.211-11.319-6.471 11.319-6.472 11.318 6.472zm-12.618-7.211-11.318-6.471 11.318-6.472 11.319 6.472zm-1.113.74-11.318 6.471-11.319-6.471 11.319-6.472zm-12.617 7.211-11.319 6.471-11.318-6.471 11.318-6.471zm-12.432 7.211-11.318 6.472-11.319-6.472 11.319-6.471zm-12.432 7.211-11.318 6.472-11.318-6.472 11.318-6.471zm-12.431 7.211-11.319 6.472-11.318-6.472 11.318-6.471zm-12.432 7.026-11.318 6.472-11.319-6.472 11.319-6.471zm-12.617 7.212-11.319 6.471-11.318-6.471 11.318-6.472zm-12.432 7.211-11.318 6.471-11.319-6.471 11.319-6.472zm-12.432 7.211-11.318 6.471-11.319-6.471 11.319-6.472zm-12.431 7.211-11.319 6.471-11.318-6.471 11.318-6.472zm-12.432 7.026-11.319 6.471-11.318-6.471 11.318-6.472zm1.113.74 11.319 6.471-11.319 6.472-11.318-6.472zm12.432 7.211 11.318 6.471-11.318 6.472-11.319-6.472zm12.617 7.211 11.319 6.471-11.319 6.472-11.318-6.472zm12.432 7.211 11.318 6.471-11.318 6.472-11.319-6.472zm12.432 7.026 11.318 6.471-11.318 6.472-11.319-6.472zm12.431 7.211 11.319 6.472-11.319 6.471-11.318-6.471zm12.618 7.211 11.318 6.472-11.318 6.471-11.319-6.471zm12.431 7.211 11.319 6.472-11.319 6.471-11.318-6.471zm12.432 7.211 11.318 6.472-11.318 6.471-11.318-6.471zm12.432 7.026 11.318 6.472-11.318 6.471-11.319-6.471zm12.431 7.212 11.319 6.471-11.319 6.472-11.318-6.472zm1.299-.74 11.319-6.472 11.318 6.472-11.318 6.471zm12.432-7.026 11.318-6.472 11.319 6.472-11.319 6.471zm12.432-7.211 11.318-6.472 11.319 6.472-11.319 6.471zm12.617-7.211 11.318-6.472 11.319 6.472-11.319 6.471zm12.432-7.211 11.318-6.472 11.319 6.472-11.319 6.471zm12.431-7.212 11.319-6.471 11.318 6.471-11.318 6.472zm12.432-7.026 11.319-6.471 11.318 6.471-11.318 6.472zm12.617-7.211 11.319-6.471 11.318 6.471-11.318 6.472zm12.432-7.211 11.319-6.471 11.318 6.471-11.318 6.472zm12.432-7.211 11.318-6.471 11.319 6.471-11.319 6.472zm12.432-7.211 11.318-6.472 11.318 6.472-11.318 6.471zm12.431-7.026 11.319-6.472 11.318 6.472-11.318 6.471zm-1.113-.74-11.318-6.471 11.318-6.472 11.318 6.472zm-12.617-7.211-11.319-6.471 11.319-6.472 11.318 6.472zm-12.432-7.211-11.318-6.471 11.318-6.472 11.318 6.472zm-12.432-7.211-11.318-6.472 11.318-6.471 11.319 6.471zm-12.431-7.026-11.319-6.472 11.319-6.471 11.318 6.471zm-12.432-7.211-11.319-6.472 11.319-6.471 11.318 6.471zm-12.617-7.211-11.319-6.472 11.319-6.471 11.318 6.471zm-12.432-7.212-11.319-6.471 11.319-6.471 11.318 6.471zm-12.432-7.211-11.318-6.471 11.318-6.472 11.319 6.472zm-12.432-7.211-11.318-6.471 11.318-6.472 11.319 6.472zm-12.431-7.026-11.319-6.471 11.319-6.472 11.318 6.472zm-12.618-7.211-11.318-6.471 11.318-6.472 11.319 6.472zm-1.113.74-11.318 6.471-11.319-6.471 11.319-6.472zm-12.617 7.211-11.319 6.471-11.318-6.471 11.318-6.472zm-12.432 7.026-11.318 6.471-11.319-6.471 11.319-6.472zm-12.432 7.211-11.318 6.471-11.318-6.471 11.318-6.471zm-12.431 7.211-11.319 6.472-11.318-6.472 11.318-6.471zm-12.432 7.211-11.318 6.472-11.319-6.472 11.319-6.471zm-12.617 7.211-11.133 6.287-11.319-6.472 11.319-6.471zm-12.432 7.026-11.318 6.472-11.319-6.472 11.319-6.471zm-12.432 7.212-11.318 6.471-11.319-6.471 11.319-6.472zm-12.431 7.211-11.319 6.471-11.318-6.471 11.318-6.472zm-12.432 7.211-11.319 6.471-11.318-6.471 11.318-6.472zm-12.617 7.211-11.319 6.471-11.318-6.471 11.318-6.472zm-12.432 7.026-11.319 6.471-11.318-6.471 11.318-6.472zm1.299.74 11.318 6.471-11.318 6.472-11.319-6.472zm12.431 7.211 11.319 6.471-11.319 6.472-11.318-6.472zm12.432 7.211 11.319 6.471-11.319 6.472-11.318-6.472zm12.432 7.211 11.318 6.471-11.318 6.472-11.319-6.472zm12.617 7.026 11.319 6.471-11.319 6.472-11.318-6.472zm12.432 7.211 11.318 6.472-11.318 6.471-11.319-6.471zm12.432 7.211 11.318 6.472-11.318 6.471-11.319-6.471zm12.431 7.211 11.319 6.472-11.319 6.471-11.318-6.471zm12.618 7.211 11.318 6.472-11.318 6.471-11.319-6.471zm12.431 7.026 11.319 6.472-11.319 6.471-11.318-6.471zm12.432 7.212 11.318 6.471-11.318 6.472-11.318-6.472zm12.432 7.211 11.318 6.471-11.318 6.472-11.319-6.472zm12.431 7.211 11.319 6.471-11.319 6.472-11.318-6.472zm1.299-.74 11.319-6.471 11.318 6.471-11.318 6.472zm12.432-7.211 11.318-6.471 11.319 6.471-11.319 6.472zm12.432-7.211 11.318-6.472 11.319 6.472-11.319 6.471zm12.617-7.026 11.318-6.472 11.319 6.472-11.319 6.471zm12.432-7.211 11.318-6.472 11.319 6.472-11.319 6.471zm12.431-7.211 11.319-6.472 11.318 6.472-11.318 6.471zm12.432-7.211 11.319-6.472 11.318 6.472-11.318 6.471zm12.617-7.212 11.319-6.471 11.318 6.471-11.318 6.472zm12.432-7.026 11.319-6.471 11.318 6.471-11.318 6.472zm12.432-7.211 11.318-6.471 11.319 6.471-11.319 6.472zm12.432-7.211 11.318-6.471 11.318 6.471-11.318 6.472zm12.431-7.211 11.319-6.471 11.318 6.471-11.318 6.472zm12.618-7.211 11.318-6.472 11.318 6.472-11.318 6.471zm12.431-7.026 11.319-6.472 11.318 6.472-11.318 6.471zm-1.299-.74-11.318-6.471 11.318-6.472 11.319 6.472zm-12.431-7.211-11.319-6.471 11.319-6.472 11.318 6.472zm-12.432-7.211-11.318-6.471 11.318-6.472 11.318 6.472zm-12.617-7.211-11.319-6.472 11.319-6.471 11.318 6.471zm-12.432-7.026-11.318-6.472 11.318-6.471 11.318 6.471zm-12.432-7.211-11.318-6.472 11.318-6.471 11.319 6.471zm-12.431-7.211-11.319-6.472 11.319-6.471 11.318 6.471zm-12.432-7.212-11.319-6.471 11.319-6.471 11.318 6.471zm-12.617-7.211-11.319-6.471 11.319-6.472 11.318 6.472zm-12.432-7.211-11.319-6.471 11.319-6.472 11.318 6.472zm-12.432-7.026-11.318-6.471 11.318-6.472 11.319 6.472zm-12.432-7.211-11.318-6.471 11.318-6.472 11.319 6.472zm-12.431-7.211-11.319-6.471 11.319-6.472 11.318 6.472zm-12.618-7.211-11.318-6.472 11.318-6.471 11.319 6.471zm-1.113.74-11.318 6.471-11.319-6.471 11.319-6.472zm-12.617 7.211-11.319 6.471-11.318-6.471 11.318-6.472zm-12.432 7.211-11.318 6.471-11.319-6.471 11.319-6.472zm-12.432 7.211-11.318 6.471-11.318-6.471 11.318-6.472zm-12.431 7.026-11.319 6.471-11.318-6.471 11.318-6.472zm-12.432 7.211-11.318 6.471-11.319-6.471 11.319-6.471zm-12.617 7.211-11.319 6.472-11.318-6.472 11.318-6.471zm-12.432 7.211-11.318 6.472-11.319-6.472 11.319-6.471zm-12.432 7.211-11.318 6.472-11.319-6.472 11.319-6.471zm-12.431 7.026-11.319 6.472-11.318-6.472 11.318-6.471zm-12.432 7.212-11.319 6.471-11.318-6.471 11.318-6.472zm-12.617 7.211-11.319 6.471-11.318-6.471 11.318-6.472zm-12.432 7.211-11.319 6.471-11.318-6.471 11.318-6.472zm-12.432 7.211-11.318 6.471-11.319-6.471 11.319-6.472zm-12.432 7.026-11.318 6.471-11.318-6.471 11.318-6.472zm1.114.74 11.318 6.471-11.318 6.472-11.319-6.472zm12.617 7.211 11.318 6.471-11.318 6.472-11.318-6.472zm12.432 7.211 11.318 6.471-11.318 6.472-11.319-6.472zm12.431 7.211 11.319 6.471-11.319 6.472-11.318-6.472zm12.432 7.026 11.319 6.471-11.319 6.472-11.318-6.472zm12.432 7.211 11.318 6.472-11.318 6.471-11.319-6.471zm12.617 7.211 11.319 6.472-11.319 6.471-11.318-6.471zm12.432 7.211 11.318 6.472-11.318 6.471-11.319-6.471zm12.432 7.211 11.318 6.472-11.318 6.471-11.319-6.471zm12.431 7.026 11.319 6.472-11.319 6.471-11.318-6.471zm12.618 7.212 11.318 6.471-11.318 6.472-11.319-6.472zm12.431 7.211 11.319 6.471-11.319 6.472-11.318-6.472zm12.432 7.211 11.318 6.471-11.318 6.472-11.318-6.472zm12.432 7.211 11.318 6.471-11.318 6.472-11.319-6.472zm12.431 7.211 11.319 6.471-11.319 6.472-11.132-6.657zm1.299-.74 11.319-6.471 11.318 6.471-11.318 6.472zm12.432-7.211 11.318-6.471 11.319 6.471-11.319 6.472zm12.432-7.211 11.318-6.471 11.319 6.471-11.319 6.472zm12.617-7.211 11.318-6.471 11.319 6.471-11.319 6.472zm12.432-7.211 11.318-6.472 11.319 6.472-11.319 6.471zm12.431-7.026 11.319-6.472 11.318 6.472-11.318 6.471zm12.432-7.211 11.319-6.472 11.318 6.472-11.318 6.471zm12.617-7.211 11.319-6.472 11.318 6.472-11.318 6.471zm12.432-7.211 11.319-6.472 11.318 6.472-11.318 6.471zm12.432-7.212 11.318-6.471 11.319 6.471-11.319 6.472zm12.432-7.026 11.318-6.471 11.318 6.471-11.318 6.472zm12.431-7.211 11.319-6.471 11.318 6.471-11.318 6.472zm12.618-7.211 11.318-6.471 11.318 6.471-11.318 6.472zm12.431-7.211 11.319-6.471 11.318 6.471-11.318 6.472zm12.432-7.211 11.318-6.472 11.319 6.472-11.319 6.471zm12.432-7.026 11.318-6.472 11.319 6.472-11.319 6.471zm-1.299-.74-11.319-6.471 11.319-6.472 11.318 6.472zm-12.432-7.211-11.318-6.471 11.318-6.472 11.319 6.472zm-12.432-7.211-11.318-6.471 11.318-6.472 11.319 6.472zm-12.431-7.211-11.319-6.472 11.319-6.471 11.318 6.471zm-12.432-7.026-11.318-6.472 11.318-6.471 11.318 6.471zm-12.617-7.211-11.319-6.472 11.319-6.471 11.318 6.471zm-12.432-7.211-11.318-6.472 11.318-6.471 11.318 6.471zm-12.432-7.212-11.318-6.471 11.318-6.471 11.319 6.471zm-12.431-7.211-11.319-6.471 11.319-6.472 11.318 6.472zm-12.432-7.211-11.319-6.471 11.319-6.472 11.318 6.472zm-12.617-7.026-11.319-6.471 11.319-6.472 11.318 6.472zm-12.432-7.211-11.319-6.471 11.319-6.472 11.318 6.472zm-12.432-7.211-11.318-6.471 11.318-6.472 11.319 6.472zm-12.432-7.211-11.318-6.472 11.318-6.471 11.319 6.471zm-12.431-7.211-11.319-6.472 11.319-6.471 11.318 6.471zm-12.618-7.026-11.318-6.472 11.318-6.471 11.319 6.471zm-1.113.739-11.318 6.472-11.319-6.472 11.319-6.471zm-12.617 7.026-11.319 6.472-11.318-6.472 11.318-6.471zm-12.432 7.212-11.318 6.471-11.319-6.471 11.319-6.472zm-12.432 7.211-11.318 6.471-11.318-6.471 11.318-6.472zm-12.431 7.211-11.319 6.471-11.318-6.471 11.318-6.472zm-12.432 7.211-11.318 6.471-11.319-6.471 11.319-6.472zm-12.617 7.026-11.319 6.471-11.318-6.471 11.318-6.472zm-12.432 7.211-11.318 6.471-11.319-6.471 11.319-6.471zm-12.432 7.211-11.318 6.472-11.319-6.472 11.319-6.471zm-12.431 7.211-11.319 6.472-11.318-6.472 11.318-6.471zm-12.432 7.211-11.319 6.472-11.318-6.472 11.318-6.471zm-12.617 7.026-11.319 6.472-11.318-6.472 11.318-6.471zm-12.432 7.212-11.319 6.471-11.318-6.471 11.318-6.472zm-12.432 7.211-11.318 6.471-11.319-6.471 11.319-6.472zm-12.432 7.211-11.318 6.471-11.318-6.471 11.318-6.472zm-12.431 7.211-11.319 6.471-11.3182-6.471 11.3182-6.472zm-12.618 7.026-11.318 6.471-11.3185-6.471 11.3185-6.472zm1.299.74 11.319 6.471-11.319 6.472-11.3182-6.472zm12.432 7.211 11.318 6.471-11.318 6.472-11.318-6.472zm12.432 7.211 11.318 6.471-11.318 6.472-11.319-6.472zm12.617 7.211 11.318 6.471-11.318 6.472-11.318-6.472zm12.432 7.026 11.318 6.471-11.318 6.472-11.319-6.472zm12.431 7.211 11.319 6.472-11.319 6.471-11.318-6.471zm12.432 7.211 11.319 6.472-11.319 6.471-11.318-6.471zm12.432 7.211 11.318 6.472-11.318 6.471-11.319-6.471zm12.617 7.211 11.319 6.472-11.319 6.471-11.318-6.471zm12.432 7.026 11.318 6.472-11.318 6.471-11.319-6.471zm12.432 7.212 11.318 6.471-11.318 6.472-11.319-6.472zm12.431 7.211 11.319 6.471-11.319 6.472-11.318-6.472zm12.618 7.211 11.318 6.471-11.318 6.472-11.319-6.472zm12.431 7.211 11.319 6.471-11.319 6.472-11.318-6.472zm12.432 7.026 11.318 6.471-11.318 6.472-11.318-6.472zm12.432 7.211 11.318 6.472-11.318 6.471-11.319-6.471zm12.431 7.211 11.319 6.472-11.319 6.471-11.318-6.471zm1.299-.739 11.319-6.472 11.318 6.472-11.318 6.471zm12.432-7.212 11.318-6.471 11.319 6.471-11.319 6.472zm12.432-7.026 11.318-6.471 11.319 6.471-11.319 6.472zm12.617-7.211 11.318-6.471 11.319 6.471-11.319 6.472zm12.432-7.211 11.318-6.471 11.319 6.471-11.319 6.472zm12.431-7.211 11.319-6.471 11.318 6.471-11.318 6.472zm12.432-7.211 11.319-6.472 11.318 6.472-11.318 6.471zm12.617-7.026 11.319-6.472 11.318 6.472-11.318 6.471zm12.432-7.211 11.319-6.472 11.318 6.472-11.318 6.471zm12.432-7.211 11.318-6.472 11.319 6.472-11.319 6.471zm12.432-7.211 11.318-6.472 11.318 6.472-11.318 6.471zm12.431-7.212 11.319-6.471 11.318 6.471-11.318 6.472zm12.618-7.026 11.318-6.471 11.318 6.471-11.318 6.472zm12.431-7.211 11.319-6.471 11.318 6.471-11.318 6.472zm12.432-7.211 11.318-6.471 11.319 6.471-11.319 6.472zm12.432-7.211 11.318-6.471 11.319 6.471-11.319 6.472zm12.431-7.211 11.319-6.472 11.318 6.472-11.318 6.471zm12.618-7.026 11.318-6.472 11.319 6.472-11.319 6.471zm-1.299-.74-11.319-6.471 11.319-6.472 11.318 6.472zm-12.432-7.211-11.318-6.471 11.318-6.472 11.319 6.472zm-12.617-7.211-11.319-6.471 11.319-6.472 11.318 6.472zm-12.432-7.211-11.318-6.472 11.318-6.471 11.319 6.471zm-12.432-7.026-11.318-6.472 11.318-6.471 11.319 6.471zm-12.431-7.211-11.319-6.472 11.319-6.471 11.318 6.471zm-12.432-7.211-11.318-6.472 11.318-6.471 11.318 6.471zm-12.617-7.212-11.319-6.471 11.319-6.471 11.318 6.471zm-12.432-7.211-11.318-6.471 11.318-6.472 11.318 6.472zm-12.432-7.211-11.318-6.471 11.318-6.472 11.319 6.472zm-12.431-7.026-11.319-6.471 11.319-6.472 11.318 6.472zm-12.432-7.211-11.319-6.471 11.319-6.472 11.318 6.472zm-12.617-7.211-11.319-6.471 11.319-6.472 11.318 6.472zm-12.432-7.211-11.319-6.472 11.319-6.471 11.318 6.471zm-12.432-7.211-11.318-6.472 11.318-6.471 11.319 6.471zm-12.432-7.026-11.318-6.472 11.318-6.471 11.319 6.471zm-12.431-7.211-11.319-6.472 11.319-6.471 11.318 6.471zm-12.618-7.212-11.318-6.471 11.318-6.471 11.319 6.471zm-1.113.74-11.318 6.472-11.319-6.472 11.319-6.471zm-12.617 7.211-11.319 6.472-11.318-6.472 11.318-6.471zm-12.432 7.211-11.318 6.472-11.319-6.472 11.319-6.471zm-12.432 7.026-11.318 6.472-11.318-6.472 11.318-6.471zm-12.431 7.212-11.319 6.471-11.318-6.471 11.318-6.472zm-12.432 7.211-11.318 6.471-11.319-6.471 11.319-6.472zm-12.617 7.211-11.319 6.471-11.318-6.471 11.318-6.472zm-12.432 7.211-11.318 6.471-11.319-6.471 11.319-6.472zm-12.432 7.026-11.318 6.471-11.319-6.471 11.319-6.472zm-12.431 7.211-11.319 6.471-11.318-6.471 11.318-6.471zm-12.432 7.211-11.319 6.472-11.318-6.472 11.318-6.471zm-12.617 7.211-11.319 6.472-11.318-6.472 11.318-6.471zm-12.432 7.211-11.319 6.472-11.318-6.472 11.318-6.471zm-12.432 7.026-11.318 6.472-11.319-6.472 11.319-6.471zm-12.432 7.212-11.318 6.471-11.318-6.471 11.318-6.472zm-12.431 7.211-11.319 6.471-11.3182-6.471 11.3182-6.472zm-12.618 7.211-11.318 6.471-11.3185-6.471 11.3185-6.472zm-12.4313 7.211-11.3184 6.471-11.1329-6.471 11.3184-6.472zm-12.4317 7.026-11.3185 6.471-11.3184-6.471 11.3184-6.472zm1.2988.74 11.3184 6.471-11.3184 6.472-11.3184-6.472zm12.4317 7.211 11.3185 6.471-11.3185 6.472-11.3184-6.472zm12.4315 7.211 11.319 6.471-11.319 6.472-11.3182-6.472zm12.432 7.211 11.318 6.471-11.318 6.472-11.318-6.472zm12.432 7.026 11.318 6.471-11.318 6.472-11.319-6.472zm12.617 7.211 11.318 6.472-11.318 6.471-11.318-6.471zm12.432 7.211 11.318 6.472-11.318 6.471-11.319-6.471zm12.431 7.211 11.319 6.472-11.319 6.471-11.318-6.471zm12.432 7.211 11.319 6.472-11.319 6.471-11.318-6.471zm12.432 7.026 11.318 6.472-11.318 6.471-11.319-6.471zm12.617 7.212 11.319 6.471-11.319 6.472-11.318-6.472zm12.432 7.211 11.318 6.471-11.318 6.472-11.319-6.472zm12.432 7.211 11.318 6.471-11.318 6.472-11.319-6.472zm12.431 7.211 11.319 6.471-11.319 6.472-11.318-6.472zm12.618 7.026 11.318 6.471-11.318 6.472-11.319-6.472zm12.431 7.211 11.319 6.472-11.319 6.471-11.318-6.471zm12.432 7.211 11.318 6.472-11.318 6.471-11.318-6.471zm12.432 7.211 11.318 6.472-11.318 6.471-11.319-6.471zm12.431 7.211 11.319 6.472-11.319 6.471-11.318-6.471zm1.299-.739 11.319-6.472 11.318 6.472-11.318 6.471zm12.432-7.211 11.318-6.472 11.319 6.472-11.319 6.471zm12.432-7.211 11.318-6.472 11.319 6.472-11.319 6.471zm12.617-7.212 11.318-6.471 11.319 6.471-11.319 6.472zm12.432-7.026 11.318-6.471 11.319 6.471-11.319 6.472zm12.431-7.211 11.319-6.471 11.318 6.471-11.318 6.472zm12.432-7.211 11.319-6.471 11.318 6.471-11.318 6.472zm12.617-7.211 11.319-6.471 11.318 6.471-11.318 6.472zm12.432-7.211 11.319-6.472 11.318 6.472-11.318 6.471zm12.432-7.026 11.318-6.472 11.319 6.472-11.319 6.471zm12.432-7.211 11.318-6.472 11.318 6.472-11.318 6.471zm12.431-7.211 11.319-6.472 11.318 6.472-11.318 6.471zm12.618-7.211 11.318-6.472 11.318 6.472-11.318 6.471zm12.431-7.212 11.319-6.471 11.318 6.471-11.318 6.472zm12.432-7.026 11.318-6.471 11.319 6.471-11.319 6.472zm12.432-7.211 11.318-6.471 11.319 6.471-11.319 6.472zm12.431-7.211 11.319-6.471 11.318 6.471-11.318 6.472zm12.618-7.211 11.318-6.471 11.319 6.471-11.319 6.472zm12.431-7.211 11.319-6.472 11.318 6.472-11.318 6.471zm12.432-7.026 11.319-6.472 11.318 6.472-11.318 6.471zm-1.299-.74-11.318-6.471 11.318-6.472 11.319 6.472zm-12.431-7.211-11.319-6.471 11.319-6.472 11.318 6.472zm-12.432-7.211-11.319-6.471 11.319-6.472 11.318 6.472zm-12.432-7.211-11.318-6.472 11.318-6.471 11.319 6.471zm-12.617-7.026-11.319-6.472 11.319-6.471 11.318 6.471zm-12.432-7.211-11.318-6.472 11.318-6.471 11.319 6.471zm-12.432-7.211-11.318-6.472 11.318-6.471 11.319 6.471zm-12.431-7.212-11.319-6.471 11.319-6.471 11.318 6.471zm-12.432-7.211-11.318-6.471 11.318-6.472 11.318 6.472zm-12.617-7.211-11.319-6.471 11.319-6.472 11.318 6.472zm-12.432-7.026-11.318-6.471 11.318-6.472 11.318 6.472zm-12.432-7.211-11.318-6.471 11.318-6.472 11.319 6.472zm-12.431-7.211-11.319-6.471 11.319-6.472 11.318 6.472zm-12.432-7.211-11.319-6.472 11.319-6.471 11.318 6.471zm-12.617-7.211-11.319-6.472 11.319-6.471 11.318 6.471zm-12.432-7.026-11.319-6.472 11.319-6.471 11.318 6.471zm-12.432-7.211-11.318-6.472 11.318-6.471 11.319 6.471zm-12.432-7.212-11.318-6.471 11.318-6.471 11.319 6.471zm-12.431-7.211-11.319-6.471 11.319-6.4716 11.318 6.4716zm-12.618-7.211-11.318-6.4711 11.318-6.4715 11.319 6.4715zm-1.113.74-11.318 6.471-11.319-6.471 11.319-6.4716zm-12.617 7.211-11.319 6.471-11.318-6.471 11.318-6.471zm-12.432 7.211-11.318 6.472-11.319-6.472 11.319-6.471zm-12.432 7.211-11.318 6.472-11.318-6.472 11.318-6.471zm-12.431 7.211-11.319 6.472-11.318-6.472 11.318-6.471zm-12.432 7.026-11.318 6.472-11.319-6.472 11.319-6.471zm-12.617 7.212-11.133 6.471-11.319-6.471 11.319-6.472zm-12.432 7.211-11.318 6.471-11.319-6.471 11.319-6.472zm-12.432 7.211-11.318 6.471-11.319-6.471 11.319-6.472zm-12.431 7.211-11.319 6.471-11.318-6.471 11.318-6.472zm-12.432 7.026-11.319 6.471-11.318-6.471 11.318-6.472zm-12.617 7.211-11.319 6.471-11.318-6.471 11.318-6.471zm-12.432 7.211-11.319 6.472-11.318-6.472 11.318-6.471zm-12.432 7.211-11.318 6.472-11.319-6.472 11.319-6.471zm-12.432 7.211-11.318 6.472-11.318-6.472 11.318-6.471zm-12.431 7.026-11.319 6.472-11.3182-6.472 11.3182-6.471zm-12.618 7.212-11.318 6.471-11.3185-6.471 11.3185-6.472zm-12.4313 7.211-11.3184 6.471-11.3185-6.471 11.3185-6.472zm-12.4317 7.211-11.3185 6.471-11.3184-6.471 11.3184-6.472zm-12.4318 7.211-11.3184 6.471-11.3184-6.471 11.3184-6.472zm-12.6172 7.026-11.3185 6.471-11.3184-6.471 11.3184-6.472zm1.2988.74 11.3184 6.471-11.3184 6.472-11.3184-6.472zm12.4317 7.211 11.3185 6.471-11.3185 6.472-11.3184-6.472zm12.6173 7.211 11.3184 6.471-11.3184 6.472-11.3184-6.472zm12.4317 7.211 11.3185 6.471-11.3185 6.472-11.3184-6.472zm12.4315 7.026 11.319 6.471-11.319 6.472-11.3182-6.472zm12.432 7.211 11.318 6.472-11.318 6.471-11.318-6.471zm12.432 7.211 11.318 6.472-11.318 6.471-11.319-6.471zm12.617 7.211 11.318 6.472-11.318 6.471-11.318-6.471zm12.432 7.211 11.318 6.472-11.318 6.471-11.319-6.471zm12.431 7.026 11.319 6.472-11.319 6.471-11.318-6.471zm12.432 7.212 11.319 6.471-11.319 6.472-11.318-6.472zm12.432 7.211 11.318 6.471-11.318 6.472-11.319-6.472zm12.617 7.211 11.319 6.471-11.319 6.472-11.318-6.472zm12.432 7.211 11.318 6.471-11.318 6.472-11.319-6.472zm12.432 7.026 11.318 6.471-11.318 6.472-11.319-6.472zm12.431 7.211 11.319 6.472-11.319 6.471-11.318-6.471zm12.618 7.211 11.318 6.472-11.318 6.471-11.319-6.471zm12.431 7.211 11.319 6.472-11.319 6.471-11.318-6.471zm12.432 7.211 11.318 6.472-11.318 6.471-11.318-6.471zm12.432 7.211 11.318 6.472-11.318 6.471-11.319-6.471zm12.431 7.027 11.319 6.471-11.319 6.471-11.318-6.471zm1.299-.74 11.319-6.472 11.318 6.472-11.318 6.471zm12.432-7.026 11.318-6.472 11.319 6.472-11.319 6.471zm12.432-7.211 11.318-6.472 11.319 6.472-11.319 6.471zm12.617-7.211 11.318-6.472 11.319 6.472-11.319 6.471zm12.432-7.211 11.318-6.472 11.319 6.472-11.319 6.471zm12.431-7.212 11.319-6.471 11.318 6.471-11.318 6.472zm12.432-7.026 11.319-6.471 11.318 6.471-11.318 6.472zm12.617-7.211 11.319-6.471 11.318 6.471-11.318 6.472zm12.432-7.211 11.319-6.471 11.318 6.471-11.318 6.472zm12.432-7.211 11.318-6.471 11.319 6.471-11.319 6.472zm12.432-7.211 11.318-6.472 11.318 6.472-11.318 6.471zm12.431-7.026 11.319-6.472 11.318 6.472-11.318 6.471zm12.618-7.211 11.318-6.472 11.318 6.472-11.318 6.471zm12.431-7.211 11.319-6.472 11.318 6.472-11.318 6.471zm12.432-7.211 11.318-6.472 11.319 6.472-11.319 6.471zm12.432-7.212 11.318-6.471 11.319 6.471-11.319 6.472zm12.431-7.026 11.319-6.471 11.318 6.471-11.318 6.472zm12.618-7.211 11.318-6.471 11.319 6.471-11.504 6.472zm12.431-7.211 11.319-6.471 11.318 6.471-11.318 6.472zm12.432-7.211 11.319-6.471 11.318 6.471-11.318 6.472zm12.432-7.211 11.318-6.472 11.319 6.472-11.319 6.471zm22.451-14.237-11.318 6.471-11.319-6.471 11.319-6.472zm-12.432-7.211-11.318 6.471-11.318-6.471 11.318-6.472zm-12.431-7.211-11.319 6.471-11.318-6.471 11.318-6.472zm-12.432-7.212-11.318 6.472-11.319-6.472 11.319-6.471zm-12.617-7.026-11.319 6.472-11.318-6.472 11.318-6.471zm-12.432-7.211-11.318 6.472-11.319-6.472 11.319-6.471zm-12.432-7.211-11.318 6.472-11.319-6.472 11.319-6.471zm-12.431-7.211-11.319 6.471-11.318-6.471 11.318-6.471zm-12.432-7.211-11.319 6.471-11.318-6.471 11.318-6.472zm-12.617-7.026-11.319 6.471-11.318-6.471 11.318-6.472zm-12.432-7.211-11.319 6.471-11.318-6.471 11.318-6.472zm-12.432-7.211-11.318 6.471-11.319-6.471 11.319-6.472zm-12.432-7.211-11.318 6.471-11.318-6.471 11.318-6.472zm-12.431-7.212-11.319 6.472-11.318-6.472 11.318-6.471zm-12.618-7.026-11.318 6.472-11.318-6.472 11.318-6.471zm-12.431-7.211-11.319 6.472-11.318-6.472 11.318-6.471zm-12.432-7.211-11.318 6.472-11.319-6.472 11.319-6.471zm-12.432-7.211-11.318 6.471-11.319-6.471 11.319-6.471zm-12.617-7.211-11.318 6.471-11.319-6.471 11.319-6.4716zm-12.432-7.0263-11.318 6.4713-11.319-6.4713 11.319-6.4714zm-12.431-7.211-11.319 6.4714-11.318-6.4714 11.318-6.4715zm-23.751-13.6826 11.319 6.4715-11.319 6.4715-11.318-6.4715zm-12.431 7.2111 11.318 6.4715-11.318 6.4714-11.319-6.4714zm-12.432 7.2111 11.318 6.4714-11.318 6.4713-11.318-6.4713zm-12.432 7.0261 11.319 6.4716-11.319 6.471-11.318-6.471zm-12.617 7.2116 11.318 6.471-11.318 6.471-11.318-6.471zm-12.432 7.211 11.319 6.471-11.319 6.472-11.318-6.472zm-12.431 7.211 11.318 6.471-11.318 6.472-11.319-6.472zm-12.432 7.211 11.318 6.471-11.318 6.472-11.319-6.472zm-12.432 7.026 11.319 6.471-11.319 6.472-11.318-6.472zm-12.617 7.211 11.318 6.472-11.318 6.471-11.319-6.471zm-12.432 7.211 11.319 6.472-11.319 6.471-11.318-6.471zm-12.432 7.211 11.319 6.472-11.319 6.471-11.318-6.471zm-12.431 7.211 11.318 6.472-11.318 6.471-11.319-6.471zm-1.299 13.498-11.319 6.471-11.318-6.471 11.318-6.472zm-23.75.74 11.318 6.471-11.318 6.471-11.319-6.471zm-12.432 7.211 11.318 6.471-11.318 6.472-11.318-6.472zm-12.432 7.211 11.319 6.471-11.319 6.472-11.3182-6.472zm-12.4315 7.211 11.3185 6.471-11.3185 6.472-11.3184-6.472zm-12.4317 7.026 11.3184 6.471-11.3184 6.472-11.3184-6.472zm-12.6173 7.211 11.3185 6.472-11.3185 6.471-11.3184-6.471zm-12.4317 7.211 11.3184 6.472-11.3184 6.471-11.3184-6.471zm-12.4317 7.211 11.3184 6.472-11.3184 6.471-11.3184-6.471zm-12.4317 7.211 11.3184 6.472-11.3184 6.471-11.3185-6.471zm-23.75018 13.498 11.31848-6.472 11.3184 6.472-11.3184 6.471zm12.43168 7.211 11.3185-6.471 11.3184 6.471-11.3184 6.472zm12.4318 7.211 11.3184-6.471 11.3184 6.471-11.3184 6.472zm12.6172 7.211 11.3185-6.471 11.3184 6.471-11.3184 6.472zm12.4317 7.211 11.3185-6.471 11.3184 6.471-11.3184 6.472zm12.4318 7.026 11.3184-6.471 11.3184 6.471-11.3184 6.472zm12.4317 7.212 11.3184-6.472 11.3185 6.472-11.3185 6.471zm12.4317 7.211 11.3182-6.472 11.319 6.472-11.319 6.471zm12.6172 7.211 11.319-6.472 11.318 6.472-11.318 6.471zm12.432 7.211 11.318-6.472 11.319 6.472-11.319 6.471zm12.432 7.026 11.318-6.472 11.318 6.472-11.318 6.471zm12.431 7.211 11.319-6.471 11.318 6.471-11.318 6.472zm12.618 7.211 11.318-6.471 11.318 6.471-11.318 6.472zm12.431 7.211 11.319-6.471 11.318 6.471-11.318 6.472zm12.432 7.211 11.318-6.471 11.319 6.471-11.319 6.472zm12.432 7.026 11.318-6.471 11.319 6.471-11.319 6.472zm12.431 7.212 11.319-6.472 11.318 6.472-11.318 6.471zm12.618 7.211 11.318-6.472 11.319 6.472-11.319 6.471zm12.431 7.211 11.319-6.472 11.318 6.472-11.318 6.471zm12.432 7.211 11.319-6.472 11.318 6.472-11.318 6.471zm12.432 7.026 11.318-6.472 11.319 6.472-11.319 6.471zm12.432 7.211 11.318-6.471 11.318 6.471-11.318 6.471zm12.617 7.211 11.318-6.471 11.319 6.471-11.319 6.472zm12.432 7.211 11.318-6.471 11.318 6.471-11.318 6.472zm23.75-.739-11.319-6.472 11.319-6.471 11.318 6.471zm12.431-7.212-11.318-6.471 11.318-6.471 11.319 6.471zm12.432-7.211-11.318-6.471 11.318-6.472 11.319 6.472zm12.432-7.026-11.319-6.471 11.319-6.472 11.318 6.472zm1.299-13.682 11.318-6.472 11.319 6.472-11.319 6.471zm12.431-7.211 11.319-6.472 11.318 6.472-11.318 6.471zm23.751-.74-11.319-6.471 11.319-6.472 11.318 6.472zm12.431-7.211-11.318-6.472 11.318-6.471 11.319 6.471zm12.432-7.026-11.318-6.472 11.318-6.471 11.318 6.471zm12.432-7.211-11.319-6.472 11.319-6.471 11.318 6.471zm12.617-7.211-11.318-6.472 11.318-6.471 11.318 6.471zm12.432-7.211-11.319-6.472 11.319-6.471 11.318 6.471zm12.431-7.212-11.318-6.471 11.318-6.472 11.319 6.472zm12.432-7.026-11.318-6.471 11.318-6.472 11.319 6.472zm12.617-7.211-11.318-6.471 11.318-6.472 11.319 6.472zm12.432-7.211-11.318-6.471 11.318-6.472 11.319 6.472zm12.432-7.211-11.319-6.471 11.319-6.472 11.318 6.472zm12.432-7.211-11.319-6.472 11.319-6.471 11.318 6.471zm12.431-7.026-11.318-6.472 11.318-6.471 11.319 6.471zm12.618-7.211-11.319-6.472 11.319-6.471 11.318 6.471zm1.113-13.683 11.318-6.471 11.319 6.471-11.319 6.472zm23.75-.739-11.318-6.472 11.318-6.471 11.318 6.471zm12.432-7.212-11.319-6.471 11.319-6.472 11.318 6.472z" fill="url(#a)" opacity=".3"/><path d="m195.146 353.037c-3.109 0-6.218-.741-8.586-2.073l-45.745-26.351c-2.517-1.333-3.701-3.257-3.701-5.182 0-1.924 1.332-3.849 3.701-5.181l45.745-26.352c4.737-2.813 12.435-2.813 17.321 0l45.744 26.352c2.369 1.332 3.702 3.257 3.702 5.181 0 1.925-1.333 3.849-3.702 5.182l-45.892 26.351c-2.369 1.48-5.478 2.073-8.587 2.073zm-8.29-2.665c4.589 2.665 11.843 2.665 16.432 0l45.745-26.352c2.073-1.184 3.257-2.812 3.257-4.589 0-1.628-1.184-3.257-3.257-4.589l-45.745-26.352c-4.589-2.664-11.843-2.664-16.432 0l-45.745 26.352c-2.073 1.184-3.257 2.813-3.257 4.589 0 1.629 1.184 3.257 3.257 4.589z" fill="#f60"/><path d="m254.659 309.216v-15.692l-2.961-1.481c-.74 4.886-6.514 8.143-11.399 8.735l-32.717 19.245-14.36 5.182-45.597-23.687 1.036-.592c-3.849-1.777-6.07-5.922-8.142-9.771l-3.109 1.777-1.777.592v15.988c0 2.073 1.333 3.997 3.997 5.626l45.745 26.351c5.33 3.109 14.064 3.109 19.394 0l45.745-26.351c2.664-1.481 3.997-3.553 3.997-5.478.148-.296.148-.296.148-.444z" fill="#f60" opacity=".4"/><path d="m254.659 295.3v-10.363l-2.813-1.628c-.74 4.885-6.514 8.142-11.399 8.734l-32.865 19.246-14.36 5.181-45.597-23.538 1.036-.593c-3.849-1.776-6.07-5.921-8.142-9.77l-3.109 1.776-1.777.444v10.659c0 2.073 1.333 3.997 3.997 5.626l45.745 26.351c5.33 3.109 14.064 3.109 19.394 0l45.745-26.351c2.664-1.481 3.997-3.553 3.997-5.478.148-.148.148-.148.148-.296z" fill="url(#c)"/><path d="m240.299 292.191-32.717 19.098-12.436 4.441v14.064c3.553 0 7.106-.74 9.771-2.369l45.745-26.351c2.665-1.48 3.997-3.553 3.997-5.478 0-.148 0-.148 0-.296v-10.363l-2.665-1.48h-.296c-.888 4.885-6.513 7.994-11.399 8.734z" fill="#282828" opacity=".3"/><path d="m185.375 316.914-45.745-26.351c-5.329-3.109-5.329-8.142 0-11.251l45.745-26.352c5.33-3.109 14.064-3.109 19.394 0l45.745 26.352c5.329 3.109 5.329 8.142 0 11.251l-45.745 26.351c-5.33 3.109-14.064 3.109-19.394 0z" fill="url(#e)"/><path d="m185.375 316.914-45.745-26.351c-5.329-3.109-5.329-8.142 0-11.251l45.745-26.352c5.33-3.109 14.064-3.109 19.394 0l45.745 26.352c5.329 3.109 5.329 8.142 0 11.251l-45.745 26.351c-5.33 3.109-14.064 3.109-19.394 0z" fill="#333"/><path d="m185.375 316.914-45.745-26.351c-5.329-3.109-5.329-8.142 0-11.251l45.745-26.352c5.33-3.109 14.064-3.109 19.394 0l45.745 26.352c5.329 3.109 5.329 8.142 0 11.251l-45.745 26.351c-5.33 3.109-14.064 3.109-19.394 0z" fill="#515151" opacity=".2601"/><path d="m250.662 290.563-45.893 26.351c-5.33 3.109-14.064 3.109-19.394 0l-45.745-26.351c-2.368-1.332-3.701-3.109-3.997-5.033-.296 2.22 1.036 4.589 3.997 6.217l45.745 26.352c5.33 3.109 14.064 3.109 19.394 0l45.745-26.352c2.96-1.776 4.293-3.997 3.997-6.217-.148 1.924-1.481 3.701-3.849 5.033z" fill="#595959"/><path d="m422.105 219.781c-3.109 0-6.218-.74-8.586-2.072l-45.745-26.352c-2.517-1.332-3.701-3.257-3.701-5.181 0-1.925 1.332-3.849 3.701-5.182l45.745-26.351c4.737-2.813 12.435-2.813 17.321 0l45.744 26.351c2.369 1.333 3.702 3.257 3.702 5.182 0 1.924-1.333 3.849-3.702 5.181l-45.892 26.352c-2.369 1.48-5.478 2.072-8.587 2.072zm-8.29-2.665c4.589 2.665 11.843 2.665 16.432 0l45.745-26.351c2.073-1.184 3.257-2.813 3.257-4.589 0-1.629-1.184-3.257-3.257-4.59l-45.745-26.351c-4.589-2.665-11.843-2.665-16.432 0l-45.745 26.351c-2.073 1.185-3.257 2.813-3.257 4.59 0 1.628 1.184 3.257 3.257 4.589z" fill="#f60"/><path d="m481.618 173.673v-15.692l-2.961-1.48c-.74 4.885-6.514 8.142-11.399 8.734l-32.717 19.245-14.36 5.182-45.597-23.687 1.036-.592c-3.849-1.776-6.07-5.922-8.142-9.771l-3.109 1.777-1.777.592v15.988c0 2.073 1.333 3.998 3.997 5.626l45.745 26.351c5.33 3.109 14.064 3.109 19.394 0l45.745-26.351c2.664-1.48 3.997-3.553 3.997-5.477.148-.297.148-.297.148-.445z" fill="#f60" opacity=".4"/><path d="m481.618 159.757v-10.362l-2.813-1.629c-.74 4.885-6.514 8.142-11.399 8.735l-32.865 19.245-14.36 5.181-45.597-23.538 1.036-.592c-3.849-1.777-6.07-5.922-8.142-9.771l-3.109 1.776-1.777.445v10.659c0 2.072 1.333 3.997 3.997 5.625l45.745 26.352c5.33 3.108 14.064 3.108 19.394 0l45.745-26.352c2.664-1.48 3.997-3.553 3.997-5.477.148-.148.148-.148.148-.297z" fill="url(#f)"/><path d="m467.258 156.649-32.717 19.097-12.436 4.441v14.064c3.553 0 7.106-.74 9.771-2.369l45.745-26.351c2.665-1.48 3.997-3.553 3.997-5.478 0-.148 0-.148 0-.296v-10.363l-2.665-1.48h-.296c-.888 4.885-6.513 7.994-11.399 8.735z" fill="#282828" opacity=".3"/><path d="m412.334 181.372-45.745-26.352c-5.329-3.109-5.329-8.142 0-11.251l45.745-26.351c5.33-3.109 14.064-3.109 19.394 0l45.745 26.351c5.329 3.109 5.329 8.142 0 11.251l-45.745 26.352c-5.33 3.108-14.064 3.108-19.394 0z" fill="url(#g)"/><path d="m412.334 181.372-45.745-26.352c-5.329-3.109-5.329-8.142 0-11.251l45.745-26.351c5.33-3.109 14.064-3.109 19.394 0l45.745 26.351c5.329 3.109 5.329 8.142 0 11.251l-45.745 26.352c-5.33 3.108-14.064 3.108-19.394 0z" fill="#333"/><path d="m412.334 181.372-45.745-26.352c-5.329-3.109-5.329-8.142 0-11.251l45.745-26.351c5.33-3.109 14.064-3.109 19.394 0l45.745 26.351c5.329 3.109 5.329 8.142 0 11.251l-45.745 26.352c-5.33 3.108-14.064 3.108-19.394 0z" fill="#fff" opacity=".51"/><path d="m477.621 155.02-45.893 26.351c-5.33 3.109-14.064 3.109-19.394 0l-45.745-26.351c-2.368-1.332-3.701-3.109-3.997-5.033-.296 2.22 1.036 4.589 3.997 6.217l45.745 26.352c5.33 3.109 14.064 3.109 19.394 0l45.745-26.352c2.96-1.776 4.293-3.997 3.997-6.217-.148 1.924-1.481 3.701-3.849 5.033z" fill="#595959"/><path d="m194.418 303c18.373 0 33.267-8.454 33.267-18.881 0-10.428-14.894-18.882-33.267-18.882-18.372 0-33.267 8.454-33.267 18.882 0 10.427 14.895 18.881 33.267 18.881z" fill="#c4c4c4" opacity=".2"/><path d="m194.826 285.775s2.943.075 5.735-.301c2.792-.452 10.489-.527 10.564 1.957.076 2.484-3.546 6.699-8.527 8.129-4.98 1.43-11.545 1.355-14.789 2.107-3.245.678-5.735-1.806-4.679-4.742 1.057-3.01 11.696-7.15 11.696-7.15z" fill="#929292"/><path d="m178.301 277.947s-1.056 1.957-.604 3.086c.528 1.129 1.962 3.989 6.565.978 4.603-2.935 13.432-7.226 13.432-7.226s5.055-3.086 4.753-6.473c-.301-3.387-4.904-2.71-4.904-2.71z" fill="#929292"/><path d="m207.654 229.246s-1.66 21.528-5.659 29.958c-4.151 8.656-5.207 24.463-6.037 27.549-.905 3.086-3.622 7.603-7.998 8.732-4.377 1.129-5.056-2.108-4.83-4.065.227-1.957 1.434-5.118 1.434-7.151 0-2.107-.453-3.01-.453-3.989 0 0-4.98 1.731-5.735-2.333 0 0 .378-1.205.453-1.807.076-.602-.377-15.43-.453-17.237-.075-1.806.83-11.366 2.189-16.033 1.358-4.666.905-14.376.905-14.376l13.733-2.409z" fill="#dbdbdb"/><path d="m180.564 242.72c1.359-4.667.906-14.377.906-14.377l1.207-.226c.076 1.355.302 9.861-.905 14.151-1.358 4.742-2.264 14.302-2.188 16.033.15 1.806.603 16.635.528 17.237-.076.602-.453 1.806-.453 1.806.755 4.14 5.735 2.334 5.735 2.334.075.978.528 1.882.528 3.989 0 2.108-1.207 5.269-1.434 7.151-.226 1.957.528 5.194 4.83 4.064.15 0 .226-.075.377-.15-.528.301-1.132.527-1.736.677-4.376 1.129-5.055-2.107-4.829-4.064s1.434-5.119 1.434-7.151c0-2.108-.453-3.237-.528-4.14 0 0-4.981 1.957-5.735-2.183 0 0 .377-1.204.453-1.806.075-.602-.378-15.431-.453-17.237-.076-1.807.83-11.366 2.263-16.108z" fill="url(#i)"/><path d="m185.545 229.848s.075 3.312 1.358 6.097c0 0 0 11.442 1.057 17.313 0 0-1.811 11.968-2.943 15.731-1.132 3.839-.981 11.366-.981 11.366s-.528.226-1.358.301c-.83.076-.83-14.678.377-17.312 1.207-2.635 2.188-13.925 1.735-17.312-.452-3.388-.301-12.947-.905-14.603s.755-2.559.755-2.559z" fill="#ededed"/><path d="m196.638 155.932s3.848 2.71 3.697 7.603l-2.867-.527c0-.075.83-5.495-.83-7.076z" fill="#ededed"/><path d="m195.581 234.139c-9.13.602-14.035-3.538-14.035-3.538 0-1.355-.075-2.258-.075-2.258l13.733-2.409 12.526 3.312s-.302 4.215-1.056 9.635c-2.264.301-4.452-5.42-4.452-5.42l-6.263.603s8.677-.452-.378.075z" fill="#ededed"/><path d="m205.919 229.623s-19.77 9.183-29.278-6.699c-.301-.452-.377-.979-.377-1.581l.151-3.764c0-.451-.075-.903-.151-1.355-.302-.903-.377-1.957-.151-2.935.755-4.14 2.792-15.28 3.245-18.366.604-3.764-1.283-18.442-4.452-24.614-3.094-6.097 4.98-20.022 4.98-20.022s1.962-3.237 5.81-2.183c0 0-3.622 2.635-1.66 5.345 2.038 2.709 7.999 4.742 7.999 4.742s11.167 5.645 15.016 12.72c0 0 1.358 3.689 1.509 8.506s-.226 16.56 0 18.216c.226 1.655.981 13.021.905 13.548 0 .377-3.546 18.442-3.546 18.442z" fill="#d3d3d3"/><path d="m183.885 150.061c-.302-.752-.226-1.505.075-2.183.529 0 1.057 0 1.736.151 0 0-1.132.828-1.811 2.032z" fill="url(#j)"/><path d="m199.958 231.58s-11.696-32.291-11.168-43.883c.528-11.14 16.827 22.506 16.827 22.506l.302 19.42s-3.698 1.58-5.961 1.957z" fill="#dbdbdb"/><path d="m176.566 213.063c.151.452.226.903.151 1.355l-.151 3.688c0 .527.075 1.129.377 1.581 9.508 15.732 29.127 6.699 29.127 6.699s2.565-12.947 3.32-17.086c.075.978.075 1.731.075 1.806-.075.527-3.546 18.592-3.546 18.592s-19.77 9.183-29.278-6.699c-.302-.452-.377-.979-.377-1.581l.151-3.763c0-.452-.076-.904-.151-1.355-.302-.903-.377-1.957-.151-2.936.076-.451.151-.978.302-1.505-.076.376 0 .752.151 1.204z" fill="url(#k)"/><path d="m175.208 167.524c3.169 6.172 4.98 20.7 4.376 24.388-.075.376-.151.828-.226 1.28 0-5.345-1.736-17.463-4.528-22.958-.905-1.731-.83-4.065-.377-6.549.076 1.43.226 2.785.755 3.839z" fill="url(#l)"/><path d="m205.843 193.041c-.453-2.559-.679-5.194-.755-7.753-.075-4.441-1.358-11.818-9.205-10.312-11.093 2.032-6.339 17.99-5.056 20.85s6.263 15.732 6.489 16.409c.227.677 8.225 17.011 11.092 20.925.227.377.68.377 1.057.076 1.132-1.054 3.622-3.613 3.999-5.119.377-1.957-1.358-9.108-1.358-9.108s-4.603-17.538-4.98-18.29c-.378-.603-.604-3.463-1.283-7.678z" fill="#adadad"/><path d="m196.486 156.233s.83-2.032 2.868-2.258c2.037-.225 3.169-.828 3.32-1.58.226-.753.226-1.656.679-2.785s.83-3.839.83-3.914c0-.076 1.509-.527 1.584-1.205.076-.677-.754-3.011-.679-3.236.076-.151.906-1.656.755-2.785-.151-1.13-.302-2.786-.906-4.14-.603-1.355-4.904-9.635-15.77-5.119-11.092 4.592-2.641 13.775-3.773 19.872 0 0-.981 1.279.83 3.462 1.886 2.183 7.168 2.559 10.262 3.688z" fill="#fcd1c5"/><path d="m186.225 152.545c-1.811-2.183-.83-3.462-.83-3.462.151-.828.151-1.807 0-2.71l4.376.753s6.414-5.871 5.961-2.785c-.452 3.086 1.132 3.613 1.132 3.613l-1.283 1.731c-.301.452-.15.978.151 1.43 1.887 3.161 6.339 2.108 6.339 2.108-.528.376-1.434.677-2.717.828-2.037.225-2.867 2.258-2.867 2.258-3.094-1.205-8.376-1.581-10.262-3.764z" fill="#e2b1a6"/><path d="m205.39 131.168s.755 2.258-.452 3.162c-1.208.978-2.339 1.881-2.339 1.881v2.861c0 .376-.076.828-.302 1.204l-1.509 2.484c-.302.452-.453 1.054-.453 1.581v1.204c0 .376-.227.677-.604.677l-.377.076c-.377.075-.679-.226-.755-.602l-.151-1.656s-.83-1.28-2.641.301l-1.584.677c-.453.226-.83.602-.981 1.054-.453 1.28-1.434 3.763-2.188 4.215-.981.602-4.83-1.355-5.358-2.183-.528-.903-1.811-6.699-2.565-9.409-.755-2.709-.302-9.484 7.847-11.366 7.999-1.881 13.281 1.431 14.412 3.839z" fill="#3e3e3e"/><path d="m185.696 148.029c-.528-.903-1.811-6.699-2.565-9.409 0 0 3.169 2.033 7.319 2.635 4.15.527 12.224-4.215 12.224-4.215v2.107c0 .376-.075.828-.301 1.204l-1.51 2.484c-.301.452-.452 1.054-.452 1.581v1.204c0 .377-.227.678-.604.678l-.377.075c-.378.075-.679-.226-.755-.602l-.151-1.656s-.83-1.28-2.641.301l-2.339.979s-1.434 4.365-2.415 4.968c-1.131.451-4.904-1.431-5.433-2.334z" fill="#4d4d4d"/><path d="m185.545 148.33s-3.245 2.032-1.585 4.817c1.585 2.861 13.281 7.678 13.884 8.431 0 0 .453-4.291-1.132-5.721 0 0-8.904-1.581-10.337-3.839-1.434-2.183-.83-3.688-.83-3.688z" fill="#f0f6ff"/><path d="m185.545 148.33s-.528 1.505.83 3.764c1.056 1.731 6.414 3.01 8.979 3.537 0 0-.981.527-2.49 3.312-3.622-1.806-7.923-4.14-8.904-5.796-1.66-2.785 1.585-4.817 1.585-4.817z" fill="#c4ccd6"/><path d="m183.356 157.438s5.207 2.935 7.773 4.215c2.565 1.355 5.357 3.086 5.357 3.086l.981-.979 1.207 2.56s4 2.333 5.886 4.365c1.886 2.033 3.396 4.667 3.547 5.269 0 0-5.056-6.623-9.055-8.505l-1.057-.527-.603-2.032-.981 1.053s-11.47-6.699-13.055-8.505z" fill="#f8f8f8"/><path d="m197.317 251.075c.151-.526.453-.978.754-1.279l22.034-20.549c.604-.527 1.132-.151 1.283.828l3.094 23.033c.15 1.054-.227 2.408-.83 3.011l-18.714 18.366.755 6.925-5.735-2.635c-.227-.15-.453-.527-.528-1.129l-2.264-24.839c-.151-.527-.076-1.129.151-1.732z" fill="url(#m)"/><path d="m226.066 231.354-5.282-2.258-.15-.076c-.227-.075-.378 0-.604.226l-22.034 20.549c-.302.301-.528.753-.754 1.28l.83.376 4.603 2.183 19.317-18.441z" fill="#757575"/><path d="m229.159 258.602-22.712 22.581c-.604.602-1.208.226-1.358-.978l-2.491-24.99c-.075-1.054.302-2.409.906-3.011l21.883-20.7c.603-.526 1.131-.15 1.282.828l3.245 23.184c.151 1.129-.226 2.484-.755 3.086z" fill="#a7a7a7"/><path d="m202.146 278.85-2.34-24.915c-.075-1.054.302-2.409.906-3.011l21.958-20.624c.151-.151.377-.226.528-.226-.226-.075-.453 0-.679.226l-22.033 20.624c-.604.602-1.057 1.882-.906 3.011l2.339 24.915c.076.828.378 1.279.755 1.279-.302-.15-.528-.602-.528-1.279z" fill="#7b7b7b"/><path d="m209.994 242.042-1.207-.602c-.302-.151-.528-.151-.754-.151h-.076c-.151 0-.151.151-.151.377v.225l3.32 1.656v-.225c0-.226-.151-.377-.226-.527l-.076-.151c-.301-.226-.603-.451-.83-.602z" fill="#ededed"/><path d="m209.617 245.053 1.584-1.43-3.32-2.183-1.509 1.43z" fill="#ededed"/><path d="m208.409 243.547-1.207-.602c-.302-.15-.528-.15-.754-.15h-.076c-.151 0-.151.15-.151.376v.226l3.32 1.656v-.226c0-.226-.151-.376-.226-.527l-.076-.15c-.301-.302-.528-.527-.83-.603z" fill="url(#n)"/><path d="m207.73 244.15-.075-1.054.075.075.076 1.054z" fill="#7b7b7b"/><path d="m207.655 243.096 1.584-1.43.076.075-1.585 1.43z" fill="#7b7b7b"/><path d="m216.936 235.493-1.132-.602c-.226-.15-.528-.15-.754-.075h-.076c-.151 0-.151.151-.151.376v.226l3.32 1.581v-.226c0-.15-.151-.376-.226-.527l-.075-.15c-.378-.226-.604-.452-.906-.603z" fill="#ededed"/><path d="m216.634 238.504 1.509-1.505-3.244-2.032-1.509 1.354z" fill="#ededed"/><path d="m215.427 236.924-1.132-.603c-.302-.15-.528-.15-.755-.15h-.075c-.151 0-.151.15-.151.376v.226l3.32 1.581v-.226c0-.151-.151-.376-.226-.527l-.076-.15c-.377-.151-.603-.377-.905-.527z" fill="url(#o)"/><path d="m214.748 237.526-.151-.979.151.076.075.978z" fill="#7b7b7b"/><path d="m214.597 236.547 1.584-1.43.076.075-1.509 1.431z" fill="#7b7b7b"/><path d="m206.975 238.279.453 4.29 1.056-.978-.452-4.216c-.076-.602.226-1.43.603-1.806l4.452-4.14c.378-.376.755-.151.83.376l.529 4.14 1.056-.978-.528-4.215c-.151-1.28-.981-1.732-1.887-.904l-4.754 4.366c-.905.979-1.509 2.71-1.358 4.065z" fill="#d3d3d3"/><path d="m214.672 231.203-1.886-.151-5.282 5.495-.227 3.312.151 2.785 1.208.602v-3.462-2.333l1.131-1.732s1.962-1.806 2.038-1.806c0-.151 2.867-2.71 2.867-2.71z" fill="#d3d3d3"/><path d="m215.653 236.623-1.207-.603-.377-3.01 1.132.075h.302z" fill="#d3d3d3"/><path d="m215.502 230.224-1.283-.602.378.753.452.151z" fill="#d3d3d3"/><path d="m208.183 238.881.453 4.29 1.056-.978-.453-4.215c-.075-.603.227-1.431.604-1.807l4.452-4.14c.377-.376.754-.15.83.452l.528 4.14 1.056-.979-.528-4.215c-.151-1.28-.981-1.731-1.886-.903l-4.754 4.441c-.905.828-1.509 2.559-1.358 3.914z" fill="#ededed"/><path d="m213.087 227.891s.83 4.14.604 5.194-2.037 3.161-3.169 3.538c-1.132.376-.679-1.054-.981-1.957-.302-.904-.226-2.861-.226-2.861z" fill="#fcd1c5"/><path d="m209.239 231.881 3.773-3.99s.151.828.301 1.882c0 0-1.358 3.162-3.999 4.441-.075-.903-.075-2.333-.075-2.333z" fill="#e2b1a6"/><path d="m213.314 228.193s-1.283 4.516-4.679 5.043l1.132-4.968s2.868-.979 2.943-.979c.075.076.604.904.604.904z" fill="#adadad"/><path d="m190.978 177.535c-3.094 9.71 4.754 24.764 5.886 29.205 1.132 4.517 13.356 25.592 13.356 25.592.075.151.151.226.151.226-.227.226-.529.452-.755.602-.302.151-.151.151-.528.226-.227.075-.528 0-.679-.301-2.868-3.914-10.866-20.173-11.093-20.925-.301-.753-5.282-13.624-6.489-16.409-1.056-2.258-4.301-13.022.151-18.216z" fill="url(#p)"/><path d="m421.5 167c17.949 0 32.5-8.507 32.5-19s-14.551-19-32.5-19-32.5 8.507-32.5 19 14.551 19 32.5 19z" fill="#3d3d3d" opacity=".2"/><path d="m411.083 134.596s-.645.717-1.36 1.505c-.716.861-2.649 2.008-3.508 2.509-.787.502-4.58 3.37-5.368 6.166-.787 2.796 1.933 3.154 4.653 2.724 2.72-.502 5.296-3.011 6.084-3.943.715-.932 3.363-3.011 6.727-4.732 3.364-1.72 1.36-4.086 1.36-4.086z" fill="#3d3d3d"/><path d="m436.133 142.984s.573 1.29.716 2.867c.143 1.649.358 5.162.501 6.166.071 1.003.143 3.584-1.718 5.95-1.789 2.438-2.72 3.37-5.153 2.438-2.434-.932-2.362-5.019-1.933-7.098.43-2.079.788-6.739.788-7.241-.072-.501.143-.788.143-.788z" fill="#3d3d3d"/><path d="m402.708 86.7776s.501 18.5684 4.867 28.4614c0 0 3.077 8.675 3.507 18.998 0 0-.716 1.793.286 3.226 1.002 1.434 7.372 2.796 8.446-2.007 1.073-4.732.644-13.621-.501-17.349-1.146-3.728.429-13.908.429-13.908s1.718 1.075 4.008 8.459c2.291 7.313 3.937 10.18 4.724 12.188.787 2.007 1.503 14.481 1.002 20.575 0 0 5.153.717 6.656-1.72 1.503-2.438 2.005-15.199 1.575-19.285-.358-4.087-2.076-17.063-1.861-21.078.215-4.0144 1.074-7.3122.143-11.3269-.93-4.0148-28.057-12.9762-28.057-12.9762z" fill="#4c4c4c"/><path d="m435.847 103.338c.215-4.0144 1.073-7.3122.143-11.3269-.358-1.5055-4.366-3.728-9.305-5.8787-8.302-.7886-18.823-1.6489-19.539-1.5055-.644.0717-2.362.7886-3.794 1.2904l-.572.8603s0 1.1471.143 3.011c1.932.5736 5.654 0 5.654 0 .501 1.2905 3.794 5.9504 7.802 7.9578s15.818 1.2904 16.462 2.0791c.644.7885.787 10.9685.715 12.2595-.071 1.29 1.146 9.463 2.219 16.632 1.074 7.098-.572 15.701-.644 15.987.358-.215.716-.573.931-.932 1.503-2.437 2.004-15.198 1.574-19.285-.358-4.158-2.004-17.134-1.789-21.149z" fill="#3d3d3d"/><path d="m411.798 25.9831s-6.012 1.3622-8.016 1.864c-.358.0717-.573.2868-.716.6452-.573 1.5056-2.076 6.0938-.931 12.8328 1.36 8.2445.931 13.8365.931 13.8365l-2.791 14.4816s-3.508 13.8365-3.221 14.195c.286.3584 8.088 6.3088 10.521 5.4485 2.434-.8603 1.646-2.2224 1.646-2.2224s1.933 10.0368 10.665 9.8934c8.732-.0717 15.818-.0717 17.249-3.5846 1.503-3.5129-.429-18.353-1.932-24.16-1.504-5.8787-5.154-17.5644-5.154-17.5644l12.74-14.1232-10.879-8.3162s-2.577-4.8751-3.65-5.4486c-1.074-.6452-1.646-.0717-1.646-.0717z" fill="#3d3d3d"/><path d="m407.646 86.0607c0 .5019-.286 1.2188-1.861 1.7923-1.717.5736-5.797-1.9356-8.517-3.8713 1.36 1.1471 8.016 6.0221 10.235 5.2335.501-.1434.859-.3585 1.074-.5736-.43-1.0036-.716-2.0073-.931-2.5809z" fill="#4c4c4c"/><path d="m437.063 92.2262c-1.575 3.728-9.09 3.6563-18.251 3.7997-2.362 0-4.223-.6452-5.726-1.6489 1.575 1.5055 3.793 2.6526 6.728 2.6526 8.732-.0717 15.818-.0717 17.249-3.5846.501-1.1471.573-3.5129.501-6.3805.072 2.2941-.143 4.1581-.501 5.1617z" fill="#4c4c4c"/><path d="m427.902 23.689s2.219 2.7243-1.002 6.3089c-2.004 2.2224-5.368 7.0974-8.231 12.1158-1.789 3.1544-3.436 4.8033-4.438 7.5276 0 0-.143-3.2261-.286-8.1011-.143-4.66-.215-9.535 0-10.7537.573-2.5809 11.523-8.3879 13.957-7.0975z" fill="#f0f6ff"/><path d="m419.599 31.7902s-1.145.717-1.503.6453-1.646-1.2905-1.646-1.2905-3.149-.0717-3.507-1.4338c-.358-1.3622-.573-2.7243-.859-3.4412s-1.646-4.0864-1.718-5.4486c0-1.3621.072-3.7996-.572-5.0901-.573-1.2904-1.36-14.26655 11.094-13.90809 12.525.35845 8.66 13.40629 8.66 13.40629s.93.3585.358 2.0791c-.573 1.6489-.644 1.8639-.931 2.6525-.286.8603-.429 1.3622-1.216 2.0074l-.215 1.5772s.573 2.3658-.93 4.66c-1.647 2.2224-7.015 3.5845-7.015 3.5845z" fill="#fcd1c5"/><path d="m403.424 27.9905s-1.36.2151-5.655 11.1122c-2.433 6.0937-6.155 12.4026-6.942 16.9191-.788 4.5166-.358 9.3916.572 9.6784.859.3584 16.391 6.1655 21.258 8.0294.286.0717.572-.0717.644-.3584l1.36-7.5276-9.663-3.728s-1.861-2.2224-3.578-3.0827c0 0 1.932-3.5846 1.789-4.5166-.143-1.0037.143-11.0405-.931-15.1986-1.145-4.1581 1.146-11.3272 1.146-11.3272z" fill="#4c4c4c"/><path d="m409.078 56.8105s-1.36-.8603-1.646-1.0037c-.358-.1433-2.076-.7169-2.434-.8603-.286-.1433-1.288 0-1.789 0-.215 0-.358.1434-.43.2868-.429.7886-1.574 3.011-1.431 3.7997 0 0 3.221 2.0073 3.578 2.9393l.501.1434c0-.0717 2.148-4.66 3.651-5.3052z" fill="#fcd1c5"/><path d="m435.13 69.2132c-.357-1.4338-.858-3.1544-1.359-5.0184l-19.54 8.3879s5.869 7.2409 16.104 6.739c2.791-.1434 4.867-1.147 6.37-2.0073-.501-3.1545-1.002-6.0938-1.575-8.1012z" fill="#4c4c4c"/><path d="m442.718 37.5256s-5.153.717-9.305 7.3126c-4.151 6.5956-7.229 14.2666-7.229 14.2666l-.143.8603c-.358 2.2224-2.791 3.5128-4.867 2.5809-4.366-1.9357-10.879-4.9468-12.096-5.8071 0 0-3.865 2.1508-4.938 7.2409-.859 4.0864-.644 4.0864-.644 4.0864s17.392 8.1011 24.048 8.0294c6.728-.0717 15.174-22.1526 16.176-26.7409.93-4.5165 1.932-10.5386-1.002-11.8291z" fill="#4c4c4c"/><path d="m442.718 37.5256s-5.153.717-9.305 7.3126c-4.151 6.5956-7.229 14.2666-7.229 14.2666l-.143.8603c-.358 2.2224-2.791 3.5128-4.867 2.5809-4.366-1.9357-10.879-4.9468-12.096-5.8071 0 0-3.865 2.1508-4.938 7.2409-.859 4.0864-.644 4.0864-.644 4.0864s17.392 8.1011 24.048 8.0294c6.728-.0717 15.174-22.1526 16.176-26.7409.93-4.5165 1.932-10.5386-1.002-11.8291z" fill="#3d3d3d"/><path d="m423.679 63.6213s2.219 2.0791 3.149.932c.931-1.147.645-1.2187.645-1.2187s2.004 0 2.218-1.2188c.215-1.2187 1.217-.5735 1.289-1.9357.071-1.3621-1.575-1.0753-1.575-1.0753z" fill="#3d3d3d"/><path d="m421.031 62.5459s.572-.5736 1.36-1.2188c.787-.6452 2.004-3.3695 2.218-3.6563.215-.215 2.863-2.2224 4.08-2.2941 1.288 0 .358 1.3621 0 1.5772-.286.2151-1.503.7886-1.503.7886s-1.288 1.0754-1.431 1.2188c-.144.1434 3.507-.2868 4.079.0717.573.3584.43 1.2904.072 1.5772-.43.2868-.716.2151-.716.2151s.43 1.0753-.716 1.6489c-1.073.5018-1.359.215-1.359.215s-.072 1.9357-1.933 1.5056z" fill="#fcd1c5"/><path d="m409.507 9.06401s-1.646 5.23349 2.649 3.72799c4.294-1.5056 8.159-3.94306 9.519-3.01108 1.002.71688 1.002 2.93938.93 3.94308 0 .3584.072.7169.287 1.0036l1.288 1.864c.143.2151.215.4302.215.7169l.071 1.2905c0 .3584.286.5735.573.5735h.286c.358 0 .644-.2151.644-.5018l.358-1.864s1.002-2.5809 3.149-1.5772c0 0 1.432-1.9357.931-6.02211-.358-4.1581-2.219-8.459591-10.307-9.1765052-8.088-.6452228-10.593 9.0331252-10.593 9.0331252z" fill="#3e3e3e"/><path d="m421.818 36.3784-1.217-.932s-1.145.932-1.574 1.9357c-.43 1.0037 0 4.0864 0 4.0864l-.358.6452-.43-.8603-.358-3.7279s.43-2.7243.43-2.796c.071-.0717 2.362.2151 2.362.2151s.787.6452 1.145 1.4338z" fill="#c4ccd6"/><path d="m416.021 32.6504s-1.289.0717-1.861.5735c0 0 1.36.0717 1.574.0717.215.0717.287-.6452.287-.6452z" fill="#c4ccd6"/><path d="m418.455 32.9372 2.147 2.0073s-1.933.8603-2.434 2.5809c0 0-2.362.4302-2.576-.4301-.215-.8603 0-3.0111-.287-3.9431-.214-.932 3.15-.215 3.15-.215z" fill="#4c4c4c"/><path d="m415.734 37.0953s-.43 1.7923-.859 2.5092-.859 1.5772-.859 1.5772l.072 10.3952s3.793-7.886 4.652-9.4632c0 0-.143-3.7997-.501-4.5166-.358-.7886-2.505-.5018-2.505-.5018z" fill="#4c4c4c"/><path d="m425.969 21.7534c-2.505 7.2409-9.591 9.3916-9.591 9.3916s1.289 1.2188 1.647 1.2904c.357.0717 1.503-.6452 1.503-.6452s5.368-1.2904 6.942-3.5846c1.575-2.2941.931-4.6599.931-4.6599l.214-1.5772c-1.002.3585-1.646-.2151-1.646-.2151z" fill="#e2b1a6"/><path d="m431.695 30.2131s-1.002 3.4412-1.145 3.5846-2.505-.1434-2.505-.1434l1.145 2.1508s-11.881 12.7611-14.315 19.6434c0 0 5.655-8.6746 15.532-19.0699l-1.431-2.1507 2.433.5018z" fill="#4c4c4c"/><path d="m412.227 27.2019-.644.7169.716.7169-2.219 2.0074s-.644 13.9798 2.004 23.228c0 0-3.65-8.4596-2.792-23.5865l2.362-1.6489-.787-.7886z" fill="#4c4c4c"/><path d="m419.671 104.199s0 0 .071.071l-3.077-3.298c1.431 2.008-.215 11.184-.358 13.263s1.646 6.453 2.29 11.543-.715 12.331-.715 12.331c.858-.502 1.574-1.363 1.86-2.653 1.074-4.732.645-13.621-.501-17.349-1.073-3.657.43-13.908.43-13.908z" fill="#3d3d3d"/><path d="m427.544 76.1673c6.728-.0717 15.174-22.1527 16.176-26.7409.143-.7886.286-1.5772.429-2.3659 0 .0717-1.789 4.8034-3.435 9.0332-1.718 4.2298-10.665 17.1342-15.246 17.9945-4.151.7886-18.967-6.1654-21.83-7.5276-.286 1.5772-.143 1.5772-.143 1.5772s17.393 8.1012 24.049 8.0295z" fill="#3d3d3d"/><path d="m425.397 19.1725c.358 0 .644-.2151.644-.5019l.358-1.8639s1.002-2.5809 3.149-1.5772c0 0 1.36-1.864 1.002-5.73536-2.362 3.58456-7.658 5.23346-7.658 5.23346l1.288 1.864c.143.2151.215.4301.215.7169l.071 1.2905c0 .3584.287.5735.573.5735z" fill="#4d4d4d"/><g clip-path="url(#A)"><path d="m285.789 266.421 3.982 2.336 4.43.944v1.243.347l-33.249.05.1-19.133 9.009 5.169 79.04-45.572-9.009-5.168v-1.591l6.272 1.591 26.977-.05-.1 19.133-8.411-4.821z" fill="#d1d1d1"/><path d="m260.952 269.801.1-19.183 9.009 5.169 79.04-45.522-9.009-5.218 33.249-.05-.1 19.183-8.411-4.87-79.041 45.571 8.412 4.821z" fill="url(#q)"/><path d="m260.952 269.801.1-19.183 9.009 5.169 79.04-45.522-9.009-5.218 33.249-.05-.1 19.183-8.411-4.87-79.041 45.571 8.412 4.821z" fill="url(#r)"/><path d="m289.174 268.36-6.123-3.479 81.778-47.112 7.068 4.075.1-15.505-26.878.05 6.67 3.876-81.728 47.112-7.666-4.423-.099 15.455z" fill="url(#t)"/><g fill="#c4c4c4"><path d="m351.789 211.607-81.728 47.112-7.666-4.423-.099 14.113.099-15.455 7.666 4.423 81.778-47.162z" opacity=".95"/><path d="m283.151 264.931 6.022 3.429h-2.339l-3.783-2.137z" opacity=".95"/><path d="m347.458 207.73-2.339-1.341 26.878-.05-.05 1.342z" opacity=".95"/></g></g><path d="m304.688 143.373c14.377 8.114 25.946 27.812 25.946 43.91-.067 16.164-11.703 22.642-26.08 14.528-14.377-8.115-26.013-27.747-26.013-43.911.067-16.163 11.769-22.642 26.147-14.527z" fill="url(#v)"/><path d="m309.098 139.621c-7.306-4.193-13.913-4.574-18.677-1.842l-6.734 3.875c4.765-2.795 11.371-2.414 18.677 1.842 14.484 8.386 26.237 28.715 26.173 45.359 0 8.258-2.985 14.103-7.686 16.835l6.734-3.876c4.701-2.731 7.623-8.576 7.686-16.834.064-16.645-11.689-37.037-26.173-45.359z" fill="#f16822"/><path d="m302.364 143.496c14.484 8.386 26.237 28.715 26.173 45.359-.063 16.644-11.879 23.378-26.364 15.056-14.42-8.386-26.173-28.715-26.173-45.359.064-16.707 12.07-23.759 26.364-15.056zm-.127 56.794c12.769 7.369 23.187 1.461 23.187-13.214.064-14.675-10.291-32.59-23.06-39.959-12.706-7.369-23.124-1.397-23.188 13.214-.063 14.675 10.292 32.59 23.061 39.959z" fill="url(#w)"/><path d="m289.341 175.959 2.287-1.334 3.113 1.842-2.287 1.271z" fill="#f16822"/><path d="m292.454 177.738 2.287-1.271 1.652.953-2.224 1.271z" fill="#f16822"/><path d="m287.943 171.512 2.224-1.271 4.574 2.605-2.224 1.334z" fill="#fff"/><path d="m295.821 170.368 2.223-1.271v9.275l-2.223 1.271z" fill="#fff"/><path d="m294.169 178.69 2.224-1.27 1.652.953-2.224 1.27z" fill="#f16822"/><path d="m300.14 177.865 2.224-1.334 2.287 3.938-2.224 1.334z" fill="#f16822"/><path d="m295.821 170.368 2.223-1.271 4.32 7.433-2.223 1.334z" fill="#f16822"/><path d="m302.428 181.803 2.223-1.334 2.287-1.271-2.223 1.271z" fill="#f16822"/><path d="m292.518 159.441 2.287-1.334-.064 14.739-2.223 1.334z" fill="#f16822"/><path d="m292.518 159.441 2.287-1.334 9.846 17.153-2.223 1.27z" fill="#fff"/><g fill="#f16822"><path d="m308.971 187.267 2.287-1.271.317.191-2.223 1.27z"/><path d="m309.353 187.457 2.223-1.27 2.986 1.715-2.224 1.27z"/><path d="m312.338 189.172 2.224-1.271 3.113 1.779-2.224 1.334z"/><path d="m309.034 177.991 2.224-1.27v9.275l-2.287 1.271z"/><path d="m304.715 180.469 2.223-1.27 4.32-2.478-2.223 1.27z"/><path d="m309.035 177.991v9.275l.317.191 2.986 1.715 3.113 1.779c-2.668 3.494-7.56 4.065-13.087.889-5.526-3.176-10.355-9.339-13.023-15.945l3.113 1.778 1.652.953 1.652.953v-9.275l4.383 7.56 2.287 3.939 2.287-1.334z"/></g><path d="m312.338 185.614 2.224-1.334 4.574 2.668-2.224 1.271z" fill="#fff"/><path d="m312.338 170.876 2.287-1.334-.063 14.739-2.224 1.334z" fill="#fff"/><path d="m302.428 176.53 2.223-1.27 9.974-5.718-2.287 1.334z" fill="#fff"/><path d="m312.338 170.876v14.739l4.574 2.604c-.381 1.08-.825 1.97-1.461 2.732l-3.113-1.779-2.985-1.715-.318-.191v-9.275l-4.32 2.478-2.287 1.334-2.287-3.939-4.32-7.496v9.275l-1.651-.953-1.652-.953-3.176-1.778c-.572-1.462-1.08-2.923-1.462-4.384l4.638 2.605v-14.739l9.91 17.089z" fill="#fff"/><path d="m311.83 161.665c-1.144-1.334-2.287-2.541-3.558-3.621-1.143-.953-2.35-1.843-3.557-2.541-4.257-2.414-8.068-2.669-10.864-1.08l-2.223 1.27c2.795-1.588 6.607-1.397 10.863 1.08 1.207.699 2.414 1.525 3.558 2.541 1.27 1.08 2.477 2.287 3.557 3.621 4.828 5.718 8.132 13.468 8.068 20.202v.191.19c-.063 1.779-.317 3.304-.762 4.638-.381 1.016-.826 1.906-1.398 2.668-.635.826-1.461 1.588-2.287 2.033l2.224-1.271c.826-.508 1.588-1.143 2.223-1.969.572-.762 1.08-1.715 1.461-2.732.445-1.334.763-2.859.763-4.637 0-.064 0-.127 0-.191 0-.063 0-.127 0-.19.063-6.734-3.24-14.485-8.068-20.202z" fill="#d84b0e"/><path d="m302.491 156.837c2.541 1.461 4.955 3.621 7.115 6.098 4.828 5.718 8.132 13.468 8.068 20.202v.191.19c-.063 1.779-.317 3.304-.762 4.638l-4.574-2.541.064-14.739-9.974 5.654-9.911-17.089v14.739l-4.574-2.605c-.444-1.779-.698-3.557-.762-5.273 0-.063 0-.127 0-.19 0-.127 0-.127 0-.191 0-.127 0-.19 0-.254 0-9.783 6.861-13.722 15.31-8.83z" fill="#f16822"/><path d="m302.491 156.837c2.541 1.461 4.955 3.621 7.115 6.098-2.16-2.477-4.574-4.637-7.115-6.098z" fill="#d84b0e"/><path d="m304.207 200.29c-13.659-7.878-24.649-27-24.649-42.627 0-1.525.127-2.986.318-4.32-.636 2.033-1.017 4.383-1.017 7.051-.063 14.675 10.292 32.59 23.061 39.959 3.875 2.224 7.496 3.24 10.736 3.177-2.668-.509-5.527-1.525-8.449-3.24z" fill="#a14011"/><g fill="#d84b0e" mask="url(#C)" opacity=".48"><path d="m307.533 128.477-45.167 26.078.731 1.266 45.167-26.078z"/><path d="m309.629 130.575-45.167 26.078.73 1.265 45.168-26.078z"/><path d="m311.725 132.672-45.167 26.078.73 1.266 45.167-26.078z"/><path d="m313.821 134.77-45.168 26.078.731 1.265 45.167-26.078z"/><path d="m315.916 136.867-45.167 26.078.731 1.266 45.167-26.078z"/><path d="m318.012 138.965-45.167 26.078.731 1.265 45.167-26.078z"/><path d="m320.108 141.062-45.167 26.078.73 1.265 45.168-26.078z"/><path d="m322.203 143.16-45.167 26.078.731 1.265 45.167-26.078z"/><path d="m324.3 145.257-45.168 26.078.731 1.266 45.167-26.078z"/><path d="m326.395 147.354-45.167 26.078.73 1.265 45.167-26.078z"/><path d="m328.49 149.452-45.167 26.078.731 1.265 45.167-26.078z"/><path d="m330.586 151.549-45.168 26.078.731 1.266 45.167-26.079z"/><path d="m332.682 153.647-45.167 26.078.73 1.265 45.167-26.078z"/><path d="m334.778 155.745-45.168 26.078.731 1.265 45.167-26.078z"/><path d="m336.873 157.842-45.167 26.078.731 1.266 45.167-26.079z"/><path d="m338.969 159.939-45.167 26.078.73 1.266 45.168-26.078z"/><path d="m341.065 162.037-45.168 26.078.731 1.265 45.167-26.078z"/><path d="m343.16 164.135-45.167 26.078.731 1.265 45.167-26.078z"/><path d="m345.257 166.232-45.168 26.078.731 1.265 45.167-26.078z"/><path d="m347.352 168.329-45.167 26.078.731 1.266 45.167-26.078z"/><path d="m349.447 170.427-45.167 26.078.731 1.265 45.167-26.078z"/><path d="m351.544 172.524-45.168 26.079.731 1.265 45.167-26.078z"/><path d="m353.639 174.622-45.167 26.078.73 1.265 45.167-26.078z"/><path d="m355.735 176.72-45.167 26.078.73 1.265 45.168-26.078z"/><path d="m357.831 178.816-45.167 26.078.73 1.266 45.167-26.078z"/><path d="m359.926 180.914-45.167 26.078.731 1.266 45.167-26.079z"/></g><g clip-path="url(#B)"><path d="m268.123 195.896c-1.396-2.454-3.222-4.268-5.263-5.441-2.148-1.174-3.974-1.387-5.37-.64 0 0-.108 0-.108.106l-11.385 6.508s.107 0 .107-.106c1.504-.747 3.223-.534 5.371.64 2.041 1.174 3.867 2.987 5.263 5.441s2.148 4.908 2.148 7.255-.644 3.948-2.041 4.801l11.386-6.508c1.396-.747 2.04-2.347 2.04-4.801s-.752-4.801-2.148-7.255z" fill="url(#x)"/><g fill="#f16822"><path d="m251.475 196.963c2.041 1.173 3.867 2.987 5.263 5.441s2.148 4.908 2.148 7.255c0 2.454-.752 4.054-2.148 4.801s-3.222.534-5.263-.64-3.867-2.987-5.37-5.441c-1.504-2.454-2.256-4.908-2.256-7.362 0-2.347.752-3.947 2.256-4.694 1.503-.854 3.329-.64 5.37.64z"/><path d="m250.293 170.93 11.386-6.508c.215-.107.537-.32.752-.427l-11.386 6.508c-.215.214-.537.32-.752.427z"/><path d="m241.056 146.178 11.386-6.509c-.645.321-1.182.747-1.826 1.174l-11.386 6.508c.538-.427 1.182-.853 1.826-1.173z"/></g><path d="m269.412 160.794-11.278 6.615c-.751.427-1.933.961-3.544 1.601-1.933.747-3.115 1.28-3.437 1.493l11.278-6.508c.322-.213 1.503-.747 3.437-1.493 1.611-.641 2.9-1.281 3.544-1.708z" fill="url(#y)"/><path d="m281.012 141.59c-4.082-6.615-9.345-11.736-15.682-15.364-7.948-4.481-14.714-5.121-20.3-1.92l-11.385 6.508c5.585-3.201 12.352-2.561 20.193 1.921 6.444 3.627 11.6 8.748 15.681 15.363 4.082 6.615 6.123 13.123 6.123 19.525 0 5.548-1.826 9.495-5.478 11.629.859-1.067 1.718-1.92 2.578-2.347l-11.386 6.508c-.859.533-1.718 1.28-2.577 2.347-.86 1.067-1.289 2.347-1.289 3.841v6.082l11.385-6.509v-6.081c0-1.387.43-2.667 1.289-3.734l11.17-6.402c3.759-2.134 5.693-6.081 5.693-11.843 0-6.401-2.041-12.909-6.015-19.524z" fill="url(#z)"/><path d="m269.627 148.205c4.081 6.615 6.122 13.123 6.122 19.524 0 6.082-2.148 10.136-6.444 12.163-.645.32-1.934.854-3.76 1.707-1.826.747-3.222 1.387-4.081 1.921-.859.533-1.719 1.28-2.578 2.347s-1.289 2.347-1.289 3.841v6.081l-12.459-7.148v-6.935c0-5.548 1.933-9.282 5.907-11.203.323-.213 1.504-.747 3.437-1.493 1.934-.747 3.223-1.387 3.974-1.921.645-.427 1.397-1.28 2.256-2.454.859-1.173 1.289-2.56 1.289-4.054 0-2.667-.859-5.441-2.578-8.215-1.718-2.774-3.867-4.908-6.552-6.402-4.511-2.56-9.022-2.134-13.641 1.281l-7.948-14.724c6.015-5.014 13.641-4.908 22.663.213 6.337 3.735 11.6 8.856 15.682 15.471z" fill="#f16822"/></g></svg>