<svg fill="none" height="339" viewBox="0 0 332 339" width="332" xmlns="http://www.w3.org/2000/svg" xmlns:xlink="http://www.w3.org/1999/xlink"><linearGradient id="a"><stop offset="0" stop-color="#d4088c"/><stop offset=".2258" stop-color="#d4088c"/><stop offset=".5108" stop-color="#6ee1f8"/><stop offset=".7796" stop-color="#6ee8fc"/><stop offset="1" stop-color="#6ee8fc"/></linearGradient><linearGradient id="b" gradientUnits="userSpaceOnUse" x1="68.5966" x2="179.213" xlink:href="#a" y1="208.584" y2="208.584"/><linearGradient id="c"><stop offset="0" stop-color="#fff"/><stop offset="1" stop-color="#b9b9b9"/></linearGradient><linearGradient id="d" gradientUnits="userSpaceOnUse" x1="167.095" x2="83.863" xlink:href="#c" y1="108.708" y2="148.655"/><linearGradient id="e" gradientUnits="userSpaceOnUse" x1="68.5475" x2="181.983" xlink:href="#a" y1="176.626" y2="176.626"/><linearGradient id="f"><stop offset="0" stop-color="#f16822"/><stop offset="1" stop-color="#d84b0e"/></linearGradient><linearGradient id="g" gradientUnits="userSpaceOnUse" x1="0" x2="110.618" xlink:href="#f" y1="251.194" y2="251.194"/><linearGradient id="h" gradientUnits="userSpaceOnUse" x1="98.5" x2="19.5" xlink:href="#c" y1="161" y2="204"/><linearGradient id="i" gradientUnits="userSpaceOnUse" x1="135.983" x2="246.6" xlink:href="#f" y1="250.755" y2="250.755"/><linearGradient id="j" gradientUnits="userSpaceOnUse" x1="234.463" x2="155.329" xlink:href="#c" y1="160.43" y2="203.093"/><linearGradient id="k" gradientUnits="userSpaceOnUse" x1="67.3868" x2="178.005" xlink:href="#f" y1="293.365" y2="293.365"/><linearGradient id="l" gradientUnits="userSpaceOnUse" x1="165.887" x2="86.8872" xlink:href="#c" y1="203.268" y2="246.268"/><linearGradient id="m" gradientUnits="userSpaceOnUse" x1="165.82" x2="124.154" xlink:href="#c" y1="178.684" y2="260.482"/><linearGradient id="n"><stop offset="0" stop-color="#f16822"/><stop offset="1" stop-color="#f16822" stop-opacity="0"/></linearGradient><linearGradient id="o" gradientUnits="userSpaceOnUse" x1="55.1177" x2="55.1177" xlink:href="#n" y1="164.03" y2="42.663"/><linearGradient id="p" gradientUnits="userSpaceOnUse" x1="123.947" x2="123.947" xlink:href="#n" y1="121.367" y2="0"/><linearGradient id="q" gradientUnits="userSpaceOnUse" x1="191.301" x2="191.301" xlink:href="#n" y1="163.538" y2="42.1711"/><linearGradient id="r" gradientUnits="userSpaceOnUse" x1="122.717" x2="122.717" xlink:href="#n" y1="206.404" y2="85.0371"/><linearGradient id="s"><stop offset="0" stop-color="#d84b0e"/><stop offset="1" stop-color="#f16822"/></linearGradient><linearGradient id="t" gradientUnits="userSpaceOnUse" x1="311" x2="258" xlink:href="#s" y1="154.5" y2="258"/><linearGradient id="u"><stop offset="0" stop-color="#d5d5d5"/><stop offset="1" stop-color="#6b6b6b"/></linearGradient><linearGradient id="v" gradientUnits="userSpaceOnUse" x1="229.339" x2="199.469" xlink:href="#u" y1="212.335" y2="291.924"/><linearGradient id="w" gradientUnits="userSpaceOnUse" x1="251" x2="295.512" xlink:href="#u" y1="276" y2="183.011"/><linearGradient id="x" gradientUnits="userSpaceOnUse" x1="282.5" x2="242.178" xlink:href="#u" y1="190.5" y2="320.362"/><linearGradient id="y" gradientUnits="userSpaceOnUse" x1="228.458" x2="331.475" xlink:href="#s" y1="258.998" y2="258.998"/><clipPath id="z"><path d="m0 0h246.602v325.462h-246.602z"/></clipPath><clipPath id="A"><path d="m181.147 138.88h150.352v199.987h-150.352z"/></clipPath><g clip-path="url(#z)"><path d="m118.833 234.405-39.6113-22.825c-2.7776-1.57-2.4153-4.468.8454-6.28l38.0409-21.979c3.261-1.932 8.212-2.053 10.99-.483l39.611 22.825c2.777 1.57 2.415 4.468-.846 6.28l-38.041 21.979c-3.26 1.811-8.212 2.053-10.989.483z" fill="#0c0f38" opacity=".8"/><path d="m123.543 240.685c-2.174 0-4.227-.483-5.797-1.329l-46.6154-26.93c-1.5699-.966-2.4153-2.174-2.4153-3.623 0-1.691 1.2077-3.382 3.3815-4.589l44.8042-25.844c3.985-2.295 9.902-2.536 13.405-.483l46.615 26.931c1.57.966 2.415 2.173 2.415 3.622 0 1.691-1.208 3.382-3.381 4.59l-44.804 25.843c-2.295 1.208-4.952 1.812-7.608 1.812zm-5.435-2.174c3.14 1.811 8.816 1.57 12.439-.483l44.804-25.844c1.811-1.087 2.898-2.415 2.898-3.864 0-1.087-.724-2.053-2.053-2.778l-46.615-26.93c-3.14-1.812-8.816-1.57-12.439.483l-44.683 25.843c-1.8114 1.087-2.8983 2.416-2.8983 3.865 0 1.087.7246 2.053 2.053 2.777z" fill="url(#b)"/><path clip-rule="evenodd" d="m78.0845 106.877 1.9822-3.381 39.1283-22.1004 2.536-.9662 2.173-.3623 2.416.2416 3.743 1.9322 38.283 22.1001 1.087 1.932v.604h1.087.121v56.639c-.121 1.207-.966 2.415-2.657 3.381l-38.041 21.979c-3.26 1.933-8.212 2.053-10.989.483l-39.6112-22.824c-1.4492-.725-2.053-1.812-1.9323-2.898v-56.76z" fill="url(#d)" fill-rule="evenodd"/><path d="m167.743 166.173-38.041 21.979c-3.261 1.932-8.212 2.053-10.99.483l-39.6109-22.825c-1.3284-.724-1.9323-1.811-1.9323-2.898v.966c-.1207 1.087.4831 2.174 1.9323 2.899l39.6109 22.824c2.778 1.57 7.729 1.449 10.99-.483l38.041-21.979c1.69-.966 2.536-2.174 2.656-3.382v-.966c0 1.087-.966 2.416-2.656 3.382z" fill="url(#e)"/><path d="m169.313 107.964v56.759c0 .725-.362 1.329-.966 2.053 1.328-.845 1.932-1.932 2.053-3.019v-56.759c-.363.241-.725.604-1.087.966z" fill="#fff"/><path d="m120.161 126.079-29.4667-17.028c-2.053-1.208-1.8114-3.382.6039-4.71l28.2588-16.3033c2.415-1.4491 6.038-1.5699 8.212-.3623l29.467 17.0276c2.053 1.208 1.811 3.382-.604 4.71l-28.259 16.303c-2.536 1.45-6.159 1.57-8.212.363z" fill="#4d4d4d"/><path d="m121.127 120.765-21.2544-12.318c-1.57-.845-1.3284-2.415.4834-3.381l20.53-11.8353c1.811-.9661 4.347-1.0869 5.917-.2416l21.376 12.3179c1.57.846 1.328 2.415-.483 3.382l-20.531 11.835c-1.811.966-4.468 1.086-6.038.241z" fill="#f16822"/><path d="m100.477 109.051 20.288-11.7143c1.812-.9661 4.348-1.0869 5.918-.2415l20.771 11.9558c.846-.483 1.208-.966 1.45-1.208.483-.845.241-1.932-.725-2.415l-21.496-12.4389c-1.57-.8453-4.227-.7245-5.918.2416l-20.53 11.8353c-1.3282.845-1.8113 2.053-1.2075 2.898.1208.121.4831.604 1.4495 1.087z" fill="#bc3a0c"/><path d="m168.588 103.979-39.611-22.825c-1.087-.6038-2.415-.9661-3.865-1.0869h-.12c-.483 0-1.087 0-1.57 0-1.933.1208-3.865.6039-5.435 1.57l-37.9199 21.8589c-3.2607 1.932-3.623 4.709-.8454 6.279l39.6113 22.825c1.087.604 2.536.966 3.985 1.087h1.57s0 0-.121 0c1.932-.121 3.865-.604 5.434-1.57l38.041-21.979c3.261-1.691 3.623-4.589.846-6.159zm-2.415 6.279c-.725.363-1.329.725-2.054 1.208-1.69.966-3.502 2.053-5.192 3.019-2.416 1.329-4.831 2.778-7.246 4.106-2.657 1.57-5.314 3.019-7.85 4.589-2.415 1.449-4.951 2.899-7.367 4.227-1.811 1.087-3.743 2.174-5.555 3.261-1.932 1.087-3.985 2.173-6.28 2.294-2.294.242-4.468-.362-6.4-1.57-.966-.604-1.812-1.087-2.778-1.69-2.415-1.329-4.71-2.778-7.125-4.106-2.778-1.57-5.555-3.261-8.4535-4.831-2.7776-1.57-5.5552-3.14-8.3328-4.831-2.2945-1.328-4.4683-2.536-6.7628-3.864-1.2077-.725-2.4153-1.449-3.7437-2.174-.1208-.121-.2415-.121-.3623-.241-2.7776-1.57-2.4153-4.469.8453-6.28.8454-.483 1.6907-.966 2.5361-1.449 2.053-1.208 4.2268-2.4157 6.2798-3.6233 2.7776-1.57 5.5552-3.2607 8.3328-4.8306 2.8981-1.6908 5.7971-3.3815 8.6951-5.0722.241 0 .604-.3623.845-.483.363-.2416.604-.3623.966-.6039.604-.3623 1.329-.7246 1.933-1.0868 1.57-.8454 3.019-1.6908 4.589-2.6569 3.019-1.8115 6.28-3.6229 9.902-2.8983 1.57.3623 3.02 1.0868 4.348 1.8114 1.811 1.0869 3.623 2.1738 5.434 3.2607 3.02 1.6907 5.918 3.3814 8.937 5.1929 3.14 1.8115 6.28 3.6229 9.42 5.4344 2.657 1.57 5.313 3.0191 7.97 4.5886 1.449.846 3.019 1.691 4.469 2.537.12.12.241.12.362.241 3.26 1.812 2.898 4.71-.362 6.521z" fill="#a4a4a4"/><path d="m137.552 174.506-2.174 1.207c-.604.362-.966 0-.966-.724v-30.675c0-.724.483-1.57.966-1.932l2.174-1.208c.603-.362.966 0 .966.725v30.674c0 .725-.363 1.57-.966 1.933z" fill="#f16822"/><path d="m137.552 141.054-.484.362v30.07c0 .725-.483 1.57-.966 1.933l-1.69.966v.603c0 .725.483 1.087.966.725l2.174-1.208c.603-.362.966-1.207.966-1.932v-30.674c0-.725-.363-1.087-.966-.845z" fill="#d14b15"/><path d="m145.643 169.796-2.174 1.207c-.604.363-.966 0-.966-.724v-30.675c0-.724.483-1.57.966-1.932l2.174-1.208c.604-.362.966 0 .966.725v30.674c0 .725-.362 1.57-.966 1.933z" fill="#f16822"/><path d="m153.734 165.086-2.174 1.207c-.603.363-.966 0-.966-.724v-30.674c0-.725.483-1.57.966-1.933l2.174-1.207c.604-.363.966 0 .966.724v30.675c0 .845-.362 1.69-.966 1.932z" fill="#f16822"/><path d="m161.825 160.497-2.173 1.207c-.604.363-.966 0-.966-.724v-30.675c0-.724.483-1.569.966-1.932l2.173-1.207c.604-.363.967 0 .967.724v30.674c0 .725-.483 1.57-.967 1.933z" fill="#f16822"/><path d="m145.643 136.464-.483.363v30.07c0 .725-.483 1.57-.966 1.932l-1.691.967v.603c0 .725.483 1.087.966.725l2.174-1.208c.604-.362.966-1.207.966-1.932v-30.674c0-.846-.362-1.208-.966-.846z" fill="#d14b15"/><path d="m153.734 131.755-.483.362v30.07c0 .725-.483 1.57-.966 1.933l-1.691.966v.604c0 .724.483 1.087.966.724l2.174-1.207c.604-.363.966-1.208.966-1.933v-30.674c0-.845-.362-1.208-.966-.845z" fill="#d14b15"/><path d="m161.825 127.166-.483.362v30.07c0 .725-.483 1.57-.966 1.933l-1.69.966v.603c0 .725.483 1.087.966.725l2.173-1.208c.604-.362.967-1.207.967-1.932v-30.674c0-.845-.483-1.208-.967-.845z" fill="#d14b15"/><path d="m115.572 178.249c-.241 0-.483-.121-.845-.241l-28.6216-16.545c-.9661-.604-1.8115-2.053-1.8115-3.382v-32.365c0-.724.2416-1.328.7246-1.57.3623-.241.8454-.241 1.3284.121l28.6211 16.545c.966.604 1.812 2.053 1.812 3.381v32.365c0 .725-.242 1.329-.725 1.57-.121 0-.241.121-.483.121zm-29.8289-53.62c-.1207 0-.1207 0-.2415.121-.2415.121-.3623.483-.3623.966v32.486c0 1.087.6038 2.295 1.4492 2.778l28.6215 16.545c.241.12.483.241.724.12.242-.12.363-.483.363-.966v-32.365c0-1.087-.604-2.294-1.45-2.777l-28.6208-16.545c-.2415-.242-.3623-.363-.4831-.363z" fill="#a4a4a4"/><path d="m89.9696 132.117c0 .845-.6038 1.208-1.4491.845-.7246-.483-1.4492-1.57-1.4492-2.415s.6038-1.208 1.4492-.845c.8453.362 1.4491 1.449 1.4491 2.415z" fill="#f16822"/><path d="m89.9696 136.585c0 .846-.6038 1.208-1.4491.846-.7246-.483-1.4492-1.57-1.4492-2.416 0-.845.6038-1.207 1.4492-.845.8453.483 1.4491 1.57 1.4491 2.415z" fill="#f16822"/><path d="m89.9696 141.053c0 .846-.6038 1.208-1.4491.846-.7246-.483-1.4492-1.57-1.4492-2.415 0-.846.6038-1.208 1.4492-.846.8453.483 1.4491 1.57 1.4491 2.415z" fill="#f16822"/><path d="m89.2454 141.416c-.7246-.483-1.4492-1.57-1.4492-2.415 0-.121 0-.363.1208-.483-.4831 0-.7246.362-.7246.966 0 .845.6038 1.932 1.4492 2.415.6038.362 1.0869.242 1.3284-.362-.2415 0-.4831 0-.7246-.121z" fill="#d14b15"/><path d="m89.2454 136.827c-.7246-.483-1.4492-1.57-1.4492-2.415 0-.121 0-.363.1208-.484-.4831 0-.7246.363-.7246.967 0 .845.6038 1.932 1.4492 2.415.6038.362 1.0869.241 1.3284-.362-.2415.12-.4831 0-.7246-.121z" fill="#d14b15"/><path d="m89.2454 132.358c-.7246-.483-1.4492-1.57-1.4492-2.415 0-.121 0-.362.1208-.483-.4831 0-.7246.362-.7246.966 0 .845.6038 1.932 1.4492 2.415.6038.363 1.0869.242 1.3284-.362-.2415 0-.4831 0-.7246-.121z" fill="#d14b15"/><path d="m112.915 162.067-.966-.483c-.242-.121-.483-.604-.483-.966v-4.469c0-.362.241-.604.483-.362l.966.483c.242.121.483.604.483.966v4.468c.121.363-.121.483-.483.363z" fill="#878787"/><path d="m113.881 98.0613c0 1.0869-.845 1.8114-1.811 1.8114-1.087 0-1.812-.8453-1.812-1.8114 0-1.0869.846-1.8115 1.812-1.8115.966-.1208 1.811.7246 1.811 1.8115z" fill="#9c9c9c"/><path d="m126.079 88.6416c1.734 0 3.14-1.4058 3.14-3.1399s-1.406-3.1399-3.14-3.1399-3.14 1.4058-3.14 3.1399 1.406 3.1399 3.14 3.1399z" fill="#9c9c9c"/><g fill="#fff"><path d="m136.102 68.9568c.867 0 1.57-.7029 1.57-1.57 0-.867-.703-1.5699-1.57-1.5699s-1.57.7029-1.57 1.5699c0 .8671.703 1.57 1.57 1.57z"/><path d="m127.648 54.9482c.601 0 1.087-.4866 1.087-1.0869s-.486-1.0869-1.087-1.0869c-.6 0-1.086.4866-1.086 1.0869s.486 1.0869 1.086 1.0869z"/><path d="m115.934 45.2869c0 1.0869-.966 2.053-2.053 2.053s-2.053-.9661-2.053-2.053.966-2.053 2.053-2.053 2.053.8453 2.053 2.053z"/><path d="m119.92 29.225c.6 0 1.087-.4866 1.087-1.0868 0-.6003-.487-1.0869-1.087-1.0869s-1.087.4866-1.087 1.0869c0 .6002.487 1.0868 1.087 1.0868z"/><path d="m128.494 37.0748c.734 0 1.328-.5948 1.328-1.3284 0-.7337-.594-1.3284-1.328-1.3284s-1.328.5947-1.328 1.3284c0 .7336.594 1.3284 1.328 1.3284z"/><path d="m139.242 18.9601c0 1.0869-.845 1.9322-1.932 1.9322s-1.933-.8453-1.933-1.9322.846-1.9323 1.933-1.9323c1.087.1208 1.932.9662 1.932 1.9323z"/></g><path d="m50.2384 277.035-39.6109-22.946c-2.77763-1.569-2.41534-4.468.8453-6.279l37.9202-21.98c3.2607-1.932 8.2121-2.053 10.9897-.483l39.6109 22.825c2.7774 1.57 2.4154 4.468-.8454 6.28l-37.9202 22.1c-3.2606 1.811-8.212 2.053-10.9896.483z" fill="#4d4d4d" opacity=".6"/><path d="m54.9481 283.315c-2.1738 0-4.2268-.483-5.7967-1.329l-46.7361-26.93c-1.569945-.967-2.4153-2.174-2.4153-3.623 0-1.691 1.20765-3.382 3.38142-4.589l44.80378-25.844c3.9853-2.295 9.9028-2.536 13.405-.483l46.6148 26.93c1.57.967 2.416 2.174 2.416 3.623 0 1.691-1.208 3.382-3.382 4.589l-44.8035 25.723c-2.1738 1.329-4.8306 1.933-7.4874 1.933zm-5.4344-2.174c3.1399 1.811 8.8158 1.57 12.4388-.483l44.8035-25.844c1.812-1.087 2.899-2.415 2.899-3.864 0-1.087-.725-2.053-2.053-2.778l-46.6157-26.931c-3.1398-1.811-8.8158-1.57-12.4388.483l-44.68302 25.844c-1.81147 1.087-2.89836 2.415-2.89836 3.865 0 1.087.72459 2.053 2.05301 2.777z" fill="url(#g)"/><path d="m101.805 149.507h-19.5641l-21.8584-12.68c-2.7776-1.57-7.729-1.45-10.9896.483l-21.0132 12.197h-19.56389v56.76c-.12077 1.086.48306 2.173 1.93219 2.898l39.611 22.825c2.7776 1.569 7.7289 1.449 10.9896-.484l38.041-21.979c1.6904-.966 2.5364-2.174 2.6564-3.381v-56.639z" fill="url(#h)"/><path d="m99.1482 208.682-37.9202 21.979c-3.2607 1.932-8.212 2.053-10.9896.483l-39.611-22.824c-1.32837-.725-1.9322-1.812-1.9322-2.899v.966c-.12076 1.087.48306 2.174 1.9322 2.899l39.611 22.824c2.7776 1.57 7.7289 1.45 10.9896-.483l38.041-21.979c1.691-.966 2.536-2.174 2.657-3.381v-.966c-.121 1.207-1.087 2.415-2.7778 3.381z" fill="#a4a4a4"/><path d="m10.0235 207.112v-56.76h19.5639l21.1339-12.076c3.2606-1.932 8.212-2.053 10.9896-.483l21.8585 12.559h18.3566v-.966h-19.685l-21.8585-12.559c-2.7776-1.57-7.729-1.45-10.9896.483l-21.0132 12.197h-19.56389v56.76c-.12077 1.086.48306 2.173 1.93219 2.898l.2416.121c-.7246-.604-1.08691-1.329-.9661-2.174z" fill="#a4a4a4"/><path d="m100.718 150.594v56.759c0 .725-.362 1.329-.966 2.053 1.328-.845 1.932-1.932 2.053-3.019v-56.638c-.362.12-.725.483-1.087.845z" fill="#fff"/><path d="m50.2384 175.23-39.6109-22.825c-2.77763-1.57-2.41534-4.468.8453-6.279l38.041-21.98c3.2607-1.932 8.212-2.053 10.9896-.483l39.6106 22.825c2.778 1.57 2.416 4.468-.845 6.28l-38.041 21.979c-3.2606 1.932-8.212 2.174-10.9896.483z" fill="#a4a4a4"/><path d="m51.5668 168.709-29.4667-17.028c-2.053-1.208-1.8115-3.382.6038-4.71l28.2591-16.303c2.4153-1.45 6.0382-1.57 8.212-.363l29.3459 17.028c2.053 1.208 1.8115 3.382-.6038 4.71l-28.2591 16.303c-2.4153 1.329-6.0382 1.57-8.0912.363z" fill="#4d4d4d"/><path d="m52.5326 163.395-21.3754-12.318c-1.5699-.845-1.3284-2.415.4831-3.381l20.53-11.835c1.8115-.967 4.3476-1.087 5.9175-.242l21.3754 12.318c1.57.845 1.3285 2.415-.483 3.381l-20.5301 11.835c-1.6907.967-4.3475 1.087-5.9175.242z" fill="#f16822"/><path d="m31.8818 151.681 20.2886-11.714c1.8114-.966 4.3475-1.087 5.9174-.242l20.7716 11.956c.8454-.483 1.2077-.966 1.4492-1.208.4831-.845.2415-1.932-.7246-2.415l-21.3754-12.318c-1.5699-.845-4.2268-.725-5.9175.241l-20.53 11.835c-1.3285.846-1.8115 2.053-1.2077 2.899 0 0 .3623.483 1.3284.966z" fill="#bc3a0c"/><path d="m99.9936 146.488-39.6109-22.825c-1.0869-.604-2.4153-.966-3.8645-1.087h-.1208c-.483 0-1.0869 0-1.5699 0-1.9323.121-3.8645.604-5.4345 1.57l-37.9202 21.98c-3.26064 1.932-3.62293 4.709-.8453 6.279l39.6109 22.825c1.0869.604 2.5361.966 3.9852 1.087h1.57s0 0-.1208 0c1.9323-.121 3.8645-.604 5.4344-1.57l38.041-21.979c3.2608-1.812 3.6228-4.589.8454-6.28zm-2.4153 6.4c-.1208 0-.2415.121-.2415.121-.2416.121-.4831.363-.8454.483-.4831.242-.8454.483-1.3284.725-.6038.362-1.0869.604-1.6907.966-.7246.362-1.3284.725-2.053 1.208s-1.57.845-2.2946 1.328c-.8453.483-1.6907.966-2.536 1.449-.8454.483-1.8115 1.087-2.6569 1.57-.9661.604-1.9322 1.087-2.7776 1.691-.9661.604-1.9322 1.087-2.8983 1.691-.9661.603-1.9323 1.086-2.8984 1.69-.9661.483-1.8115 1.087-2.7776 1.57-.8453.483-1.8114 1.087-2.6568 1.57s-1.6907.966-2.5361 1.449c-.7246.483-1.4491.846-2.2945 1.329-.6038.362-1.3284.724-1.9322 1.087-.1208 0-.3623.241-.4831.241-1.3284.725-2.5361 1.57-3.9853 2.053-.9661.363-2.053.483-3.1398.483-1.4492 0-3.0192-.12-4.3476-.724-.483-.242-.9661-.604-1.4492-.846-.6038-.362-1.0869-.603-1.6907-.966-.7246-.362-1.3284-.845-2.053-1.207-.8453-.483-1.5699-.967-2.4153-1.329-.8453-.483-1.8115-.966-2.6568-1.57-.9661-.604-1.9323-1.087-2.8984-1.691-.9661-.603-1.9322-1.086-3.0191-1.69-.9661-.604-2.053-1.208-3.0191-1.812s-2.053-1.207-3.0192-1.811c-.9661-.604-1.9322-1.087-3.0191-1.691-.9661-.604-1.9322-1.087-2.7776-1.691-.8453-.483-1.8114-.966-2.6568-1.57-.8454-.483-1.5699-.966-2.4153-1.328-.7246-.362-1.3284-.845-2.053-1.208-.6038-.362-1.0869-.603-1.6907-.966-.3623-.241-.8454-.483-1.2077-.724-.2415-.121-.483-.242-.7246-.363l-.1207-.12c-2.77762-1.57-2.41533-4.469.8453-6.28.9661-.483 1.8115-1.087 2.7776-1.57 2.2946-1.329 4.7099-2.657 7.0044-4.106 3.0191-1.812 6.0382-3.502 9.1781-5.314 3.0192-1.811 6.0383-3.502 9.1782-5.313 2.4153-1.45 5.0721-2.657 7.3666-4.227 2.0531-1.449 4.7099-2.295 7.2459-2.295 3.0192 0 5.3137 1.812 7.8498 3.261 2.4153 1.328 4.7098 2.777 7.1251 4.106 2.7776 1.691 5.676 3.261 8.4536 4.951 2.7776 1.57 5.5552 3.261 8.3328 4.831 2.2945 1.328 4.4683 2.657 6.7628 3.864 1.2076.725 2.4153 1.45 3.6229 2.174.1208 0 .2416.121.2416.121 2.8981 1.691 2.5361 4.468-.7246 6.4z" fill="#a4a4a4"/><path d="m68.9568 217.135-2.1738 1.208c-.6038.362-.9661 0-.9661-.725v-30.674c0-.724.4831-1.57.9661-1.932l2.1738-1.208c.6038-.362.9661 0 .9661.725v30.674c0 .725-.3623 1.57-.9661 1.932z" fill="#f16822"/><path d="m68.9568 183.683-.4831.363v30.07c0 .725-.483 1.57-.9661 1.933l-1.6907.966v.603c0 .725.4831 1.087.9661.725l2.1738-1.208c.6038-.362.9661-1.207.9661-1.932v-30.674c0-.846-.3623-1.087-.9661-.846z" fill="#d14b15"/><path d="m77.0481 212.426-2.1738 1.207c-.6038.363-.9661 0-.9661-.724v-30.675c0-.724.4831-1.57.9661-1.932l2.1738-1.207c.6038-.363.9661 0 .9661.724v30.674c0 .725-.3623 1.57-.9661 1.933z" fill="#f16822"/><path d="m85.1394 207.716-2.1738 1.207c-.6038.363-.9661 0-.9661-.724v-30.675c0-.724.4831-1.569.9661-1.932l2.1738-1.207c.6038-.363.9661 0 .9661.724v30.674c0 .725-.3623 1.691-.9661 1.933z" fill="#f16822"/><path d="m93.2307 203.127-2.1738 1.207c-.6038.363-.9661 0-.9661-.724v-30.674c0-.725.4831-1.57.9661-1.933l2.1738-1.207c.6038-.363.9661 0 .9661.724v30.675c0 .724-.483 1.57-.9661 1.932z" fill="#f16822"/><path d="m77.0481 179.094-.4831.363v30.07c0 .725-.483 1.57-.9661 1.933l-1.6907.966v.603c0 .725.4831 1.087.9661.725l2.1738-1.208c.6038-.362.9661-1.207.9661-1.932v-30.674c0-.846-.3623-1.208-.9661-.846z" fill="#d14b15"/><path d="m85.1394 174.385-.4831.362v30.07c0 .725-.483 1.57-.9661 1.933l-1.6907.966v.604c0 .724.4831 1.086.9661.724l2.1738-1.207c.6038-.363.9661-1.208.9661-1.933v-30.795c0-.724-.3623-1.087-.9661-.724z" fill="#d14b15"/><path d="m93.2307 169.675-.483.362v30.071c0 .724-.4831 1.57-.9662 1.932l-1.6907.966v.604c0 .724.4831 1.087.9661.724l2.1738-1.207c.6038-.363.9661-1.208.9661-1.932v-30.675c0-.724-.483-1.087-.9661-.845z" fill="#d14b15"/><path d="m46.9777 220.879c-.2415 0-.4831-.121-.8454-.241l-28.5005-16.545c-.9661-.604-1.8115-2.053-1.8115-3.382v-32.365c0-.724.2415-1.328.7246-1.57.3623-.241.8454-.241 1.3284.121l28.6213 16.545c.9662.604 1.8115 2.053 1.8115 3.381v32.366c0 .724-.2415 1.328-.7246 1.569-.2415 0-.483.121-.6038.121zm-.4831-.845c.2416.121.4831.241.7246.121.2415-.121.3623-.483.3623-.966v-32.366c0-1.086-.6038-2.294-1.4492-2.777l-28.6213-16.545c-.2415-.121-.483-.241-.7246-.121-.2415.121-.3623.483-.3623.966v32.365c0 1.087.6039 2.295 1.4492 2.778z" fill="#a4a4a4"/><path d="m21.3754 174.747c0 .845-.6038 1.208-1.4492.845-.7246-.483-1.4491-1.57-1.4491-2.415s.6038-1.208 1.4491-.845c.8454.362 1.4492 1.449 1.4492 2.415z" fill="#f16822"/><path d="m21.3754 179.215c0 .846-.6038 1.208-1.4492.846-.7246-.483-1.4491-1.57-1.4491-2.416 0-.845.6038-1.207 1.4491-.845.8454.483 1.4492 1.57 1.4492 2.415z" fill="#f16822"/><path d="m21.3754 183.684c0 .845-.6038 1.207-1.4492.845-.7246-.483-1.4491-1.57-1.4491-2.415 0-.846.6038-1.208 1.4491-.846.8454.483 1.4492 1.57 1.4492 2.416z" fill="#f16822"/><path d="m20.6507 183.925c-.7246-.483-1.4492-1.57-1.4492-2.415 0-.121 0-.362.1207-.483-.483 0-.7245.362-.7245.966 0 .845.6038 1.932 1.4491 2.415.6039.363 1.0869.242 1.3285-.362-.2416.121-.4831 0-.7246-.121z" fill="#d14b15"/><path d="m20.6507 179.457c-.7246-.483-1.4492-1.57-1.4492-2.416 0-.12 0-.362.1207-.483-.483 0-.7245.363-.7245.966 0 .846.6038 1.933 1.4491 2.416.6039.362 1.0869.241 1.3285-.363-.2416.121-.4831 0-.7246-.12z" fill="#d14b15"/><path d="m20.6507 174.988c-.7246-.483-1.4492-1.57-1.4492-2.415 0-.121 0-.362.1207-.483-.483 0-.7245.362-.7245.966 0 .846.6038 1.932 1.4491 2.416.6039.362 1.0869.241 1.3285-.363-.2416 0-.4831 0-.7246-.121z" fill="#d14b15"/><path d="m44.3206 204.697-.8454-.604c-.2415-.121-.483-.604-.483-.966v-4.469c0-.362.2415-.603.483-.362l.9662.483c.2415.121.483.604.483.966v4.469c0 .483-.2415.604-.6038.483z" fill="#a4a4a4"/><path d="m43.4755 142.503c1.0005 0 1.8115-.811 1.8115-1.812 0-1-.811-1.811-1.8115-1.811-1.0004 0-1.8114.811-1.8114 1.811 0 1.001.811 1.812 1.8114 1.812z" fill="#929292"/><path d="m57.4841 131.271c1.7341 0 3.1399-1.405 3.1399-3.139 0-1.735-1.4058-3.14-3.1399-3.14s-3.1399 1.405-3.1399 3.14c0 1.734 1.4058 3.139 3.1399 3.139z" fill="#929292"/><path d="m67.5074 111.587c.8671 0 1.57-.703 1.57-1.57s-.7029-1.57-1.57-1.57c-.867 0-1.5699.703-1.5699 1.57s.7029 1.57 1.5699 1.57z" fill="#fff"/><path d="m59.0542 97.5781c.6002 0 1.0869-.4866 1.0869-1.0869s-.4867-1.0869-1.0869-1.0869c-.6003 0-1.0869.4866-1.0869 1.0869s.4866 1.0869 1.0869 1.0869z" fill="#fff"/><path d="m45.2869 89.97c1.1338 0 2.053-.9191 2.053-2.053 0-1.1338-.9192-2.053-2.053-2.053-1.1339 0-2.053.9192-2.053 2.053 0 1.1339.9191 2.053 2.053 2.053z" fill="#fff"/><path d="m52.4121 70.7682c0 .6038-.4831 1.0869-1.0869 1.0869-.6039 0-1.0869-.4831-1.0869-1.0869s.483-1.0869 1.0869-1.0869c.6038-.1208 1.0869.4831 1.0869 1.0869z" fill="#fff"/><path d="m61.2281 78.3765c0 .7246-.6038 1.3284-1.3284 1.3284s-1.3284-.6038-1.3284-1.3284.6038-1.3284 1.3284-1.3284 1.3284.6038 1.3284 1.3284z" fill="#fff"/><path d="m70.6477 61.5902c0 1.0869-.8454 1.9322-1.9323 1.9322-1.0868 0-1.9322-.8453-1.9322-1.9322s.8454-1.9322 1.9322-1.9322c1.0869 0 1.9323.8453 1.9323 1.9322z" fill="#fff"/><path d="m186.22 276.552-39.611-22.825c-2.778-1.57-2.415-4.468.845-6.28l38.041-21.979c3.261-1.932 8.212-2.053 10.99-.483l39.611 22.825c2.777 1.57 2.415 4.468-.846 6.279l-38.041 21.98c-3.26 1.932-8.212 2.053-10.989.483z" fill="#4d4d4d" opacity=".6"/><path d="m190.929 282.832c-2.173 0-4.226-.483-5.796-1.329l-46.616-26.93c-1.57-.966-2.415-2.174-2.415-3.623 0-1.691 1.208-3.382 3.381-4.589l44.804-25.844c3.986-2.295 9.903-2.536 13.405-.483l46.616 26.93c1.569.967 2.415 2.174 2.415 3.623 0 1.691-1.208 3.382-3.382 4.59l-44.803 25.843c-2.295 1.208-4.952 1.812-7.609 1.812zm-5.434-2.053c3.14 1.811 8.816 1.57 12.439-.483l44.804-25.844c1.811-1.087 2.898-2.415 2.898-3.865 0-1.086-.725-2.053-2.053-2.777l-46.615-26.931c-3.14-1.811-8.816-1.57-12.439.483l-44.804 25.844c-1.811 1.087-2.898 2.415-2.898 3.865 0 1.086.724 2.053 2.053 2.777z" fill="url(#i)"/><path d="m237.88 148.736h-19.513l-21.921-12.647c-2.77-1.581-7.709-1.459-10.961.486l-20.958 12.282h-19.512v57.153c-.12 1.094.482 2.189 1.927 2.918l39.507 22.983c2.77 1.581 7.708 1.459 10.96-.486l37.941-22.132c1.686-.973 2.53-2.189 2.65-3.405v-57.152z" fill="url(#j)"/><path d="m235.129 208.32-38.041 21.979c-3.26 1.932-8.212 2.053-10.989.483l-39.611-22.825c-1.329-.724-1.932-1.811-1.932-2.898v.966c-.121 1.087.483 2.174 1.932 2.898l39.611 22.825c2.777 1.57 7.729 1.449 10.989-.483l38.041-21.979c1.691-.966 2.536-2.174 2.657-3.382v-.966c0 1.208-.966 2.416-2.657 3.382z" fill="#a4a4a4"/><path d="m146.005 206.75v-56.76h19.564l21.013-12.197c3.261-1.932 8.212-2.053 10.99-.483l21.858 12.559h18.477v-.966h-19.564l-21.979-12.439c-2.778-1.57-7.729-1.449-10.99.483l-21.013 12.198h-19.564v56.759c-.121 1.087.483 2.174 1.932 2.899l.242.12c-.725-.724-1.087-1.449-.966-2.173z" fill="#a4a4a4"/><path d="m236.7 150.111v56.76c0 .724-.363 1.328-.967 2.053 1.329-.846 1.933-1.933 2.053-3.02v-56.638c-.362.12-.724.483-1.086.845z" fill="#a4a4a4"/><path d="m186.22 174.868-39.611-22.825c-2.778-1.57-2.415-4.468.845-6.28l38.041-21.979c3.261-1.932 8.212-2.053 10.99-.483l39.611 22.825c2.777 1.57 2.415 4.468-.846 6.279l-38.041 21.98c-3.26 1.811-8.212 2.053-10.989.483z" fill="#a4a4a4"/><path d="m187.548 167.984-29.466-17.028c-2.053-1.208-1.812-3.381.603-4.71l28.259-16.303c2.416-1.449 6.039-1.57 8.212-.362l29.467 17.028c2.053 1.207 1.812 3.381-.604 4.709l-28.259 16.304c-2.415 1.449-6.159 1.57-8.212.362z" fill="#4d4d4d"/><path d="m188.514 162.912-21.375-12.318c-1.57-.845-1.329-2.415.483-3.381l20.53-11.835c1.811-.966 4.347-1.087 5.917-.242l21.376 12.318c1.57.845 1.328 2.415-.483 3.382l-20.53 11.835c-1.691 1.086-4.348 1.207-5.918.241z" fill="#f16822"/><path d="m167.863 150.956 20.289-11.714c1.811-.966 4.347-1.087 5.917-.241l20.772 11.955c.845-.483 1.208-.966 1.449-1.207.483-.846.242-1.933-.725-2.416l-21.375-12.318c-1.57-.845-4.227-.724-5.917.242l-20.53 11.835c-1.329.845-1.812 2.053-1.208 2.898 0 .121.362.483 1.328.966z" fill="#bc3a0c"/><path d="m235.975 146.126-39.611-22.825c-1.087-.604-2.416-.966-3.865-1.087h-.12c-.484 0-1.087 0-1.57 0-1.933.121-3.865.604-5.435 1.57l-38.041 21.979c-3.26 1.933-3.623 4.71-.845 6.28l39.611 22.825c1.087.603 2.536.966 3.985 1.087h1.57s0 0-.121 0c1.932-.121 3.865-.604 5.435-1.57l38.041-21.98c3.381-1.811 3.743-4.709.966-6.279zm-2.416 6.279c-1.449.846-3.019 1.691-4.468 2.657-3.502 2.053-7.004 4.106-10.506 6.038-5.676 3.261-11.473 6.522-17.028 10.024-2.174 1.328-4.348 2.536-6.763 3.261-1.812.483-3.865.724-5.797.362-2.053-.483-3.864-1.449-5.676-2.536-2.415-1.329-4.71-2.899-7.125-4.227-3.14-1.811-6.159-3.623-9.299-5.434-3.985-2.295-7.97-4.589-11.956-6.884-2.173-1.208-4.226-2.415-6.4-3.623l-.121-.121c-2.778-1.57-2.415-4.468.845-6.279.604-.363 1.208-.725 1.812-1.087 1.57-.966 3.14-1.812 4.83-2.778 2.174-1.328 4.469-2.536 6.643-3.864 2.536-1.45 4.951-2.899 7.487-4.348 2.415-1.449 4.831-2.778 7.246-4.227 1.087-.604 2.174-1.207 3.14-1.811 1.328-.725 2.657-1.57 4.106-2.416 2.294-1.449 4.71-2.415 7.487-2.294 1.329 0 2.657.362 3.865.845 1.328.483 2.415 1.329 3.623 2.053 1.207.725 2.415 1.449 3.623 2.174.362.121.603.362.966.483 2.053 1.208 3.985 2.295 6.038 3.502 2.174 1.208 4.348 2.536 6.521 3.744 2.053 1.208 4.227 2.415 6.28 3.623 1.812 1.087 3.623 2.053 5.434 3.14 1.329.724 2.657 1.57 3.986 2.294.604.363 1.328.725 1.932 1.087h.121c2.777 1.933 2.415 4.831-.846 6.642z" fill="#a4a4a4"/><path d="m204.938 216.652-2.174 1.208c-.603.362-.966 0-.966-.724v-30.675c0-.724.483-1.57.966-1.932l2.174-1.208c.604-.362.966 0 .966.725v30.674c0 .725-.362 1.57-.966 1.932z" fill="#f16822"/><path d="m204.938 183.321-.483.363v30.07c0 .725-.483 1.57-.966 1.932l-1.691.966v.604c0 .725.483 1.087.966.725l2.174-1.208c.604-.362.966-1.207.966-1.932v-30.674c0-.846-.362-1.208-.966-.846z" fill="#d14b15"/><path d="m213.03 211.943-2.174 1.207c-.604.362-.966 0-.966-.724v-30.675c0-.724.483-1.57.966-1.932l2.174-1.208c.603-.362.966 0 .966.725v30.674c0 .725-.363 1.691-.966 1.933z" fill="#f16822"/><path d="m221.121 207.354-2.174 1.207c-.604.363-.966 0-.966-.724v-30.675c0-.724.483-1.57.966-1.932l2.174-1.207c.604-.363.966-.001.966.724v30.554c0 .845-.362 1.69-.966 2.053z" fill="#f16822"/><path d="m229.212 202.644-2.174 1.207c-.603.363-.966 0-.966-.724v-30.675c0-.724.483-1.57.966-1.932l2.174-1.207c.604-.363.966 0 .966.724v30.674c0 .725-.483 1.57-.966 1.933z" fill="#f16822"/><path d="m213.03 178.612-.484.362v30.07c0 .725-.483 1.57-.966 1.933l-1.69.966v.604c0 .724.483 1.086.966.724l2.174-1.207c.603-.363.966-1.208.966-1.933v-30.674c0-.845-.363-1.208-.966-.845z" fill="#d14b15"/><path d="m221.121 173.902-.483.362v30.07c0 .725-.483 1.57-.966 1.933l-1.691.966v.604c0 .724.483 1.087.966.724l2.174-1.207c.604-.363.966-1.208.966-1.933v-30.674c0-.725-.362-1.087-.966-.845z" fill="#d14b15"/><path d="m229.212 169.313-.483.362v30.07c0 .725-.483 1.57-.966 1.933l-1.691.966v.603c0 .725.483 1.087.966.725l2.174-1.208c.604-.362.966-1.207.966-1.932v-30.674c0-.846-.483-1.208-.966-.845z" fill="#d14b15"/><path d="m182.959 220.396c-.242 0-.483-.121-.846-.241l-28.621-16.545c-.966-.604-1.811-2.053-1.811-3.382v-32.365c0-.724.241-1.328.724-1.57.363-.241.846-.241 1.329.121l28.621 16.545c.966.604 1.811 2.053 1.811 3.381v32.365c0 .725-.241 1.329-.724 1.57-.121.121-.242.121-.483.121zm-29.829-53.499c-.121 0-.121 0-.242.121-.241.121-.362.483-.362.966v32.365c0 1.087.604 2.295 1.449 2.778l28.622 16.544c.241.121.483.242.724.121.242-.121.362-.483.362-.966v-32.365c0-1.087-.603-2.294-1.449-2.777l-28.621-16.545c-.242-.242-.362-.242-.483-.242z" fill="#a4a4a4"/><path d="m157.357 174.264c0 .845-.604 1.208-1.449.845-.725-.483-1.45-1.57-1.45-2.415s.604-1.208 1.45-.845c.845.483 1.449 1.57 1.449 2.415z" fill="#f16822"/><path d="m157.357 178.732c0 .846-.604 1.208-1.449.846-.725-.484-1.45-1.57-1.45-2.416 0-.845.604-1.207 1.45-.845.845.483 1.449 1.57 1.449 2.415z" fill="#f16822"/><path d="m157.357 183.321c0 .846-.604 1.208-1.449.846-.725-.483-1.45-1.57-1.45-2.416 0-.845.604-1.207 1.45-.845.845.362 1.449 1.449 1.449 2.415z" fill="#f16822"/><path d="m156.632 183.563c-.724-.483-1.449-1.57-1.449-2.415 0-.121 0-.363.121-.483-.483 0-.725.362-.725.966 0 .845.604 1.932 1.449 2.415.604.362 1.087.241 1.329-.362-.242 0-.483 0-.725-.121z" fill="#d14b15"/><path d="m156.632 178.974c-.724-.483-1.449-1.57-1.449-2.416 0-.12 0-.362.121-.483-.483 0-.725.363-.725.967 0 .845.604 1.932 1.449 2.415.604.362 1.087.241 1.329-.362-.242.12-.483 0-.725-.121z" fill="#d14b15"/><path d="m156.632 174.506c-.724-.484-1.449-1.57-1.449-2.416 0-.121 0-.362.121-.483-.483 0-.725.362-.725.966 0 .846.604 1.933 1.449 2.416.604.362 1.087.241 1.329-.363-.242.121-.483 0-.725-.12z" fill="#d14b15"/><path d="m180.302 204.214-.966-.483c-.241-.121-.483-.604-.483-.966v-4.469c0-.362.242-.604.483-.362l.966.483c.242.121.483.604.483.966v4.468c.121.363-.121.483-.483.363z" fill="#a4a4a4"/><path d="m181.268 140.208c0 1.087-.845 1.812-1.811 1.812-1.087 0-1.811-.846-1.811-1.812 0-1.087.845-1.811 1.811-1.811.966-.121 1.811.724 1.811 1.811z" fill="#929292"/><path d="m193.466 130.789c1.734 0 3.139-1.406 3.139-3.14s-1.405-3.14-3.139-3.14c-1.735 0-3.14 1.406-3.14 3.14s1.405 3.14 3.14 3.14z" fill="#929292"/><path d="m203.489 111.225c.867 0 1.57-.703 1.57-1.57s-.703-1.57-1.57-1.57-1.57.703-1.57 1.57.703 1.57 1.57 1.57z" fill="#fff"/><path d="m195.036 97.0952c.6 0 1.086-.4866 1.086-1.0869s-.486-1.0869-1.086-1.0869c-.601 0-1.087.4866-1.087 1.0869s.486 1.0869 1.087 1.0869z" fill="#fff"/><path d="m183.321 87.4339c0 1.0868-.966 2.053-2.053 2.053s-2.053-.9662-2.053-2.053c0-1.0869.966-2.053 2.053-2.053s2.053.9661 2.053 2.053z" fill="#fff"/><path d="m188.393 70.2851c0 .6039-.483 1.0869-1.086 1.0869-.604 0-1.087-.483-1.087-1.0869 0-.6038.483-1.0869 1.087-1.0869.603 0 1.086.4831 1.086 1.0869z" fill="#fff"/><path d="m195.881 79.2218c.733 0 1.328-.5948 1.328-1.3284 0-.7337-.595-1.3285-1.328-1.3285-.734 0-1.329.5948-1.329 1.3285 0 .7336.595 1.3284 1.329 1.3284z" fill="#fff"/><path d="m206.629 61.107c0 1.0869-.845 1.9323-1.932 1.9323s-1.932-.8454-1.932-1.9323c0-1.0868.845-1.9322 1.932-1.9322 1.087.1208 1.932.9661 1.932 1.9322z" fill="#fff"/><path d="m117.625 319.182-39.6108-22.825c-2.7776-1.57-2.4153-4.468.8453-6.279l38.0415-21.98c3.26-1.932 8.212-2.053 10.989-.483l39.611 22.825c2.778 1.57 2.415 4.468-.845 6.28l-38.041 21.979c-3.261 1.811-8.212 2.053-10.99.483z" fill="#4d4d4d" opacity=".6"/><path d="m122.335 325.462c-2.174 0-4.227-.483-5.797-1.329l-46.6149-26.93c-1.5699-.967-2.4153-2.174-2.4153-3.623 0-1.691 1.2077-3.382 3.3814-4.589l44.8038-25.844c3.985-2.295 9.903-2.536 13.405-.483l46.615 26.93c1.57.966 2.416 2.174 2.416 3.623 0 1.691-1.208 3.382-3.382 4.589l-44.924 25.844c-2.174 1.208-4.831 1.812-7.488 1.812zm-5.434-2.174c3.14 1.811 8.816 1.57 12.439-.483l44.803-25.844c1.812-1.087 2.899-2.415 2.899-3.864 0-1.087-.725-2.053-2.053-2.778l-46.616-26.931c-3.139-1.811-8.815-1.57-12.438.483l-44.6835 25.844c-1.8114 1.087-2.8983 2.415-2.8983 3.865 0 1.087.7246 2.053 2.053 2.777z" fill="url(#k)"/><path d="m169.192 191.654h-19.564l-21.858-12.559c-2.778-1.57-7.729-1.45-10.99.483l-21.013 12.197h-19.564v56.759c-.1208 1.087.4831 2.174 1.9323 2.899l39.6107 22.824c2.778 1.57 7.729 1.45 10.99-.483l38.041-21.979c1.691-.966 2.536-2.174 2.657-3.381v-56.76z" fill="url(#l)"/><path d="m166.535 250.95-38.041 21.979c-3.261 1.932-8.212 2.053-10.99.483l-39.6104-22.825c-1.3285-.724-1.9323-1.811-1.9323-2.898v.966c-.1207 1.087.4831 2.174 1.9323 2.899l39.6104 22.824c2.778 1.57 7.729 1.449 10.99-.483l38.041-21.979c1.691-.966 2.536-2.174 2.657-3.382v-.966c0 1.087-.966 2.416-2.657 3.382z" fill="#a4a4a4"/><path d="m77.4107 249.38v-56.76h19.5639l21.0134-12.197c3.26-1.932 8.212-2.053 10.989-.483l21.859 12.559h18.356v-.966h-19.564l-21.858-12.559c-2.778-1.57-7.729-1.45-10.99.483l-21.013 12.197h-19.564v56.76c-.1208 1.086.4831 2.173 1.9323 2.898l.2415.121c-.7246-.604-1.0869-1.329-.9661-2.053z" fill="#a4a4a4"/><path d="m168.406 192.741v56.759c0 .725-.362 1.329-.966 2.053 1.328-.845 1.932-1.932 2.053-3.019v-56.638c-.362.12-.725.483-1.087.845z" fill="#a4a4a4"/><path d="m117.625 217.377-39.6108-22.825c-2.7776-1.57-2.4153-4.468.8453-6.279l38.0415-21.98c3.26-1.932 8.212-2.053 10.989-.483l39.611 22.825c2.778 1.57 2.415 4.468-.845 6.28l-38.041 21.979c-3.261 1.932-8.212 2.174-10.99.483z" fill="url(#m)"/><path d="m118.953 210.856-29.4662-17.028c-2.053-1.208-1.8114-3.382.6039-4.71l28.2593-16.303c2.415-1.45 6.038-1.57 8.212-.363l29.466 17.028c2.053 1.208 1.812 3.382-.603 4.71l-28.259 16.303c-2.537 1.449-6.16 1.57-8.213.363z" fill="#4d4d4d"/><path d="m119.92 205.663-21.3756-12.318c-1.5699-.846-1.3284-2.416.4831-3.382l20.5305-11.835c1.811-.966 4.347-1.087 5.917-.241l21.375 12.318c1.57.845 1.329 2.415-.483 3.381l-20.53 11.835c-1.69.966-4.347 1.087-5.917.242z" fill="#f16822"/><path d="m99.2685 193.828 20.2885-11.714c1.812-.966 4.348-1.087 5.918-.242l20.771 11.956c.845-.483 1.208-.966 1.449-1.208.483-.845.242-1.932-.724-2.415l-21.376-12.318c-1.57-.846-4.226-.725-5.917.241l-20.5302 11.835c-1.3284.846-1.8115 2.053-1.2077 2.899 0 .12.3623.483 1.3284.966z" fill="#bc3a0c"/><path d="m167.38 188.756-39.61-22.825c-1.087-.604-2.416-.966-3.865-1.087h-.121c-.483 0-1.087 0-1.57 0-1.932.121-3.864.604-5.434 1.57l-38.0411 21.979c-3.2606 1.933-3.6229 4.71-.8453 6.28l39.7314 22.704c1.087.604 2.536.966 3.986 1.087h1.569s0 0-.12 0c1.932-.121 3.864-.604 5.434-1.57l38.041-21.979c3.261-1.691 3.623-4.589.845-6.159zm-2.415 6.279c-.845.484-1.57.967-2.415 1.329-2.053 1.208-3.985 2.294-6.038 3.502-2.657 1.57-5.435 3.14-8.092 4.71-2.898 1.691-5.676 3.261-8.574 4.951-1.811 1.087-3.623 2.174-5.434 3.14-1.812.966-3.503 2.174-5.314 3.14-2.053 1.208-4.348 2.174-6.642 2.053-3.502-.121-6.401-2.415-9.299-4.106-2.536-1.449-5.193-3.019-7.729-4.468-2.898-1.691-5.9175-3.382-8.8158-5.072-2.7776-1.57-5.5552-3.14-8.2121-4.71-2.053-1.208-4.106-2.415-6.159-3.502-.8453-.483-1.5699-.967-2.4153-1.45-2.7776-1.57-2.4153-4.468.8454-6.279.483-.242.9661-.604 1.5699-.846 1.3284-.724 2.6569-1.57 3.9853-2.294 1.9322-1.087 3.8644-2.174 5.7967-3.261 2.1738-1.328 4.4683-2.536 6.6421-3.864 2.2948-1.329 4.4678-2.657 6.7628-3.865 2.053-1.208 4.106-2.294 6.159-3.502 1.328-.845 2.778-1.57 4.106-2.415 1.328-.846 2.657-1.57 4.227-2.053 1.691-.483 3.381-.725 5.072-.483 1.449.241 2.898.966 4.227 1.811 1.328.845 2.777 1.57 4.106 2.415.845.483 1.69.966 2.536 1.57 2.053 1.208 4.106 2.416 6.159 3.502 2.174 1.208 4.347 2.537 6.521 3.744 2.053 1.208 4.227 2.416 6.28 3.623 1.811 1.087 3.623 2.053 5.434 3.14 1.329.725 2.657 1.449 3.865 2.295.604.362 1.207.724 1.691.966 2.777 1.57 2.415 4.468-.846 6.279z" fill="#a4a4a4"/><path d="m136.344 259.283-2.174 1.207c-.604.363-.966 0-.966-.724v-30.675c0-.724.483-1.57.966-1.932l2.174-1.208c.603-.362.966 0 .966.725v30.674c0 .725-.363 1.57-.966 1.933z" fill="#f16822"/><path d="m136.344 225.951-.484.363v30.07c0 .725-.483 1.57-.966 1.932l-1.69.967v.603c0 .725.483 1.087.966.725l2.174-1.208c.603-.362.966-1.207.966-1.932v-30.674c0-.846-.363-1.208-.966-.846z" fill="#d14b15"/><path d="m144.435 254.573-2.174 1.207c-.604.363-.966 0-.966-.724v-30.675c0-.724.483-1.57.966-1.932l2.174-1.208c.604-.362.966.001.966.725v30.674c0 .725-.362 1.57-.966 1.933z" fill="#f16822"/><path d="m152.526 249.984-2.174 1.207c-.603.362-.966 0-.966-.724v-30.675c0-.724.483-1.57.966-1.932l2.174-1.208c.604-.362.966 0 .966.725v30.674c0 .725-.362 1.57-.966 1.933z" fill="#f16822"/><path d="m160.617 245.274-2.173 1.207c-.604.363-.966 0-.966-.724v-30.674c0-.725.483-1.57.966-1.933l2.173-1.207c.604-.363.967 0 .967.724v30.675c0 .724-.484 1.57-.967 1.932z" fill="#f16822"/><path d="m144.435 221.241-.483.363v30.07c0 .725-.483 1.57-.966 1.932l-1.691.967v.603c0 .725.483 1.087.966.725l2.174-1.208c.604-.362.966-1.207.966-1.932v-30.674c0-.846-.362-1.208-.966-.846z" fill="#d14b15"/><path d="m152.526 216.532-.483.362v30.07c0 .725-.483 1.57-.966 1.933l-1.691.966v.604c0 .724.483 1.086.966.724l2.174-1.207c.604-.363.966-1.208.966-1.933v-30.674c0-.845-.483-1.087-.966-.845z" fill="#d14b15"/><path d="m160.617 211.943-.483.362v30.07c0 .725-.483 1.57-.966 1.933l-1.69.966v.604c0 .724.483 1.086.966.724l2.173-1.207c.604-.363.967-1.208.967-1.933v-30.674c0-.845-.484-1.208-.967-.845z" fill="#d14b15"/><path d="m114.365 263.026c-.242 0-.483-.121-.846-.241l-28.6211-16.545c-.9661-.604-1.8115-2.053-1.8115-3.382v-32.365c0-.724.2416-1.328.7246-1.57.3623-.241.8454-.241 1.3284.121l28.6216 16.545c.966.604 1.811 2.053 1.811 3.381v32.365c0 .725-.241 1.329-.724 1.57-.121.121-.363.121-.483.121zm-29.8294-53.619c-.1208 0-.1208 0-.2415.12-.2416.121-.3623.483-.3623.966v32.365c0 1.087.6038 2.295 1.4492 2.778l28.621 16.545c.242.121.483.241.725.121.241-.121.362-.483.362-.967v-32.365c0-1.086-.604-2.294-1.449-2.777l-28.6213-16.545c-.2416-.121-.3623-.241-.4831-.241z" fill="#a4a4a4"/><path d="m88.7621 216.894c0 .845-.6038 1.208-1.4491.845-.7246-.483-1.4492-1.57-1.4492-2.415s.6038-1.208 1.4492-.845c.8453.483 1.4491 1.449 1.4491 2.415z" fill="#f16822"/><path d="m88.7621 221.362c0 .846-.6038 1.208-1.4491.846-.7246-.483-1.4492-1.57-1.4492-2.416 0-.845.6038-1.207 1.4492-.845.8453.483 1.4491 1.57 1.4491 2.415z" fill="#f16822"/><path d="m88.7621 225.951c0 .846-.6038 1.208-1.4491.846-.7246-.483-1.4492-1.57-1.4492-2.416 0-.845.6038-1.207 1.4492-.845.8453.362 1.4491 1.449 1.4491 2.415z" fill="#f16822"/><path d="m88.0379 226.193c-.7246-.483-1.4492-1.57-1.4492-2.415 0-.121 0-.363.1208-.484-.4831 0-.7246.363-.7246.967 0 .845.6038 1.932 1.4491 2.415.6039.362 1.0869.241 1.3285-.362-.2416 0-.4831 0-.7246-.121z" fill="#d14b15"/><path d="m88.0379 221.604c-.7246-.483-1.4492-1.57-1.4492-2.415 0-.121 0-.363.1208-.483-.4831 0-.7246.362-.7246.966 0 .845.6038 1.932 1.4491 2.415.6039.362 1.0869.242 1.3285-.362-.2416.12-.4831 0-.7246-.121z" fill="#d14b15"/><path d="m88.0379 217.135c-.7246-.483-1.4492-1.57-1.4492-2.415 0-.121 0-.362.1208-.483-.4831 0-.7246.362-.7246.966 0 .846.6038 1.932 1.4491 2.415.6039.363 1.0869.242 1.3285-.362-.2416 0-.4831 0-.7246-.121z" fill="#d14b15"/><path d="m111.707 246.844-.966-.483c-.241-.121-.483-.604-.483-.966v-4.469c0-.362.242-.604.483-.362l.966.483c.242.121.484.604.484.966v4.469c.12.362-.121.483-.484.362z" fill="#a4a4a4"/><path d="m110.862 184.65c1.001 0 1.812-.811 1.812-1.812 0-1-.811-1.811-1.812-1.811-1 0-1.811.811-1.811 1.811 0 1.001.811 1.812 1.811 1.812z" fill="#929292"/><path d="m124.871 173.418c1.734 0 3.14-1.405 3.14-3.139 0-1.735-1.406-3.14-3.14-3.14s-3.14 1.405-3.14 3.14c0 1.734 1.406 3.139 3.14 3.139z" fill="#929292"/><path d="m134.895 153.734c.867 0 1.57-.703 1.57-1.57s-.703-1.57-1.57-1.57-1.57.703-1.57 1.57.703 1.57 1.57 1.57z" fill="#929292"/><path d="m126.441 139.725c.6 0 1.087-.487 1.087-1.087s-.487-1.087-1.087-1.087-1.087.487-1.087 1.087.487 1.087 1.087 1.087z" fill="#a9a9a9"/><path d="m123.905 119.678c2.268 0 4.106-1.838 4.106-4.106s-1.838-4.106-4.106-4.106-4.106 1.838-4.106 4.106 1.838 4.106 4.106 4.106z" fill="#fff"/><path d="m119.799 112.915c0 .604-.483 1.087-1.087 1.087s-1.087-.483-1.087-1.087.483-1.087 1.087-1.087 1.087.483 1.087 1.087z" fill="#f16822"/><path d="m138.034 103.737c0 1.087-.845 1.932-1.932 1.932s-1.932-.845-1.932-1.932.845-1.932 1.932-1.932c1.087.121 1.932.966 1.932 1.932z" fill="#fff"/><path d="m78.6178 134.774-1.2076-.483v-27.293h1.2076z" fill="#a4a4a4"/><path d="m80.2383 42.6299h-50.2383v106.9981c0 .604.3623 1.087.9661 1.449l21.3754 12.318c1.57.845 4.106.725 5.9175-.242l20.5301-11.835c.9661-.483 1.4492-1.207 1.4492-1.811z" fill="url(#o)" opacity=".6"/><path d="m149.033 0h-50.2381v106.998c0 .604.3623 1.087.9661 1.449l21.375 12.318c1.57.845 4.106.725 5.918-.241l20.53-11.835c.966-.484 1.449-1.208 1.449-1.812z" fill="url(#p)" opacity=".6"/><path d="m216.42 42.147h-50.238v106.998c0 .604.362 1.087.966 1.449l21.375 12.318c1.57.845 4.106.725 5.918-.242l20.53-11.834c.966-.484 1.449-1.208 1.449-1.812z" fill="url(#q)" opacity=".6"/><path d="m147.838 84.98h-50.2384v106.998c0 .604.3623 1.087.9661 1.449l21.3753 12.318c1.57.845 4.106.725 5.918-.242l20.53-11.835c.966-.483 1.449-1.207 1.449-1.811z" fill="url(#r)" opacity=".6"/></g><g clip-path="url(#A)"><g fill="#d84b0e"><path d="m308.313 139.363c-.725-.483-1.691-.604-2.898-.241l-59.779 16.545-51.325 44.924-8.575 7.488c-2.898 2.536-4.951 6.883-4.589 10.265l7.005 78.376c1.207 13.164 6.521 22.825 14.733 27.776l13.526 7.85-.242-4.106 4.952.604 24.394 2.777 32.365-40.939c14.13-17.873 23.429-40.215 25.119-60.141l6.642-80.792 11.111-3.261z"/><path d="m194.311 200.591-8.574 7.487c-2.898 2.536-4.951 6.884-4.589 10.265l7.004 78.377c1.208 13.163 6.522 22.824 14.734 27.776l13.525 7.849-.241-4.106 4.951.604c1.087-12.68 5.314-24.273 8.816-36.712 8.091-35.022-17.511-62.074-35.626-91.54z"/><path clip-rule="evenodd" d="m305.415 139.122c1.208-.363 2.174-.242 2.898.241l12.439 7.125-11.11 3.261-6.642 80.792c-1.691 19.926-10.99 42.267-25.12 60.141l-32.365 40.939-24.394-2.778c.86-10.031 3.685-19.458 6.561-29.057.76-2.535 1.523-5.082 2.255-7.655 6.465-28.507-9.081-51.61-24.851-75.047-.648-.962-1.295-1.924-1.942-2.888l-7.142 6.683-13.526-8.332c.845-1.691 1.932-3.261 3.261-4.348l8.603-7.561c-.01-.015-.019-.031-.029-.047l20.927-18.317 30.277-26.608.073.043.048-.043z" fill-rule="evenodd"/></g><path d="m203.611 324.978c-7.971-4.951-13.043-14.491-14.13-27.293l-7.004-78.376c-.242-3.381 1.691-7.729 4.589-10.265l8.574-7.488 51.205-44.924 59.899-16.786c1.087-.363 2.053-.242 2.898.241l10.99 6.401h.121l-12.318-7.246c-.725-.483-1.691-.604-2.899-.242l-59.899 16.666-51.325 44.924-8.575 7.488c-2.898 2.536-4.951 6.883-4.589 10.265l7.005 78.376c1.207 13.164 6.521 22.825 14.733 27.776z" fill="#fff"/><path d="m258.075 162.912-59.9 52.412c-2.898 2.536-4.951 6.884-4.589 10.265l7.005 78.377c1.57 17.994 10.869 29.587 25.119 31.157l32.365 3.623 32.365-40.939c14.129-17.873 23.428-40.215 25.119-60.141l7.004-86.589c.242-3.623-1.69-5.796-4.589-4.951z" fill="url(#t)"/><path d="m200.591 304.087-7.005-78.377c-.241-3.381 1.691-7.729 4.589-10.265l59.9-52.412 59.899-16.666c1.087-.241 1.933-.241 2.657.121-.845-1.087-2.174-1.57-3.744-1.087l-60.02 16.545-59.778 52.412c-2.899 2.536-4.952 6.884-4.59 10.265l7.005 78.377c1.087 11.472 5.193 20.288 11.714 25.602-5.917-5.314-9.661-13.767-10.627-24.515z" fill="#fff"/><path d="m219.793 216.29-6.763 5.918c-2.295 2.053-3.865 5.434-3.623 8.091l5.555 61.711c.966 10.386 5.072 17.994 11.593 21.858l10.628 6.159-.242-3.26 3.985.483c.846-9.903 4.106-19.081 6.884-28.863 6.28-27.655-13.767-48.91-28.017-72.097z" fill="url(#v)"/><path clip-rule="evenodd" d="m307.226 167.743c.966-.242 1.691-.121 2.295.241l9.661 5.676-8.695 2.536-5.193 63.644c-1.208 15.699-8.574 33.21-19.685 47.339l-25.481 32.245-19.202-2.174c.569-7.777 2.777-15.108 5.044-22.635.62-2.057 1.244-4.128 1.84-6.228 5.188-22.415-7.078-40.625-19.501-59.068-.525-.779-1.05-1.559-1.574-2.34l-5.614 5.252-10.627-6.521c.603-1.328 1.449-2.536 2.536-3.502l10.66-9.349 36.438-32.074z" fill="url(#w)" fill-rule="evenodd"/><path d="m269.91 186.582-47.099 41.302c-2.294 2.053-3.864 5.434-3.622 8.091l5.555 61.711c1.328 14.13 8.574 23.308 19.684 24.515l25.482 2.899 25.481-32.244c11.111-14.13 18.477-31.641 19.685-47.34l5.555-68.112c.242-2.898-1.328-4.589-3.623-3.864z" fill="url(#x)"/><path d="m282.349 248.535v11.593l.483-.241 3.744-2.174 3.864-2.295c-3.381 8.212-9.42 15.941-16.303 19.927-6.884 3.985-12.922 3.26-16.304-1.087l3.865-2.295 2.053-1.208 2.053-1.207v-11.594l5.434 3.14 2.899 1.57 2.777-4.951z" fill="#fff"/><path d="m274.016 231.628c10.507-6.039 19.081-1.208 19.081 10.868 0 2.416-.362 4.952-.966 7.488l-5.676 3.261v-18.477l-12.318 21.496-12.439-7.125v18.477l-5.676 3.26c-.604-1.811-.966-3.985-.966-6.4-.121-12.077 8.453-26.81 18.96-32.848z" fill="#fff"/><path d="m279.934 196.21-47.099 41.302c-2.294 2.053-3.864 5.434-3.623 8.091l5.556 61.711c1.328 14.13 8.574 23.308 19.684 24.515l25.482 2.899 25.481-32.245c11.111-14.129 18.477-31.64 19.685-47.339l5.555-68.112c.242-2.898-1.328-4.589-3.623-3.864z" fill="#ff9769" opacity=".09"/><path d="m280.296 335.606-25.844-2.898c-11.473-1.328-19.081-10.748-20.41-25.24l-5.555-61.711c-.241-2.898 1.329-6.521 3.865-8.695l47.219-41.422 47.34-13.164c1.207-.362 2.415-.121 3.26.604.967.845 1.45 2.295 1.329 4.106l-5.555 68.112c-1.329 15.699-8.695 33.572-19.927 47.702zm0-138.638-46.978 41.181c-2.174 1.932-3.623 5.072-3.382 7.487l5.556 61.711c1.207 13.768 8.332 22.704 19.081 23.912l25.119 2.777 25.24-32.002c10.989-13.888 18.356-31.52 19.564-46.978l5.555-68.111c.12-1.329-.242-2.295-.846-2.899-.603-.483-1.328-.362-1.811-.241z" fill="url(#y)"/></g></svg>