<svg fill="none" height="365" viewBox="0 0 417 365" width="417" xmlns="http://www.w3.org/2000/svg" xmlns:xlink="http://www.w3.org/1999/xlink"><linearGradient id="a"><stop offset="0" stop-color="#f17922"/><stop offset="1" stop-color="#d74608"/></linearGradient><linearGradient id="b" gradientUnits="userSpaceOnUse" x1="61.8024" x2="95.0755" xlink:href="#a" y1="202.238" y2="230.587"/><linearGradient id="c" gradientUnits="userSpaceOnUse" x1="59.7514" x2="84.0073" xlink:href="#a" y1="202.238" y2="212.542"/><linearGradient id="d" gradientUnits="userSpaceOnUse" x1="61.8024" x2="83.5226" xlink:href="#a" y1="187.274" y2="215.123"/><linearGradient id="e" gradientUnits="userSpaceOnUse" x1="61.8019" x2="95.075" xlink:href="#a" y1="137.046" y2="165.396"/><linearGradient id="f" gradientUnits="userSpaceOnUse" x1="59.7514" x2="84.0073" xlink:href="#a" y1="137.046" y2="147.35"/><linearGradient id="g" gradientUnits="userSpaceOnUse" x1="61.8014" x2="83.5216" xlink:href="#a" y1="122.082" y2="149.931"/><linearGradient id="h" gradientUnits="userSpaceOnUse" x1="149.265" x2="214.866" xlink:href="#a" y1="229.194" y2="312.815"/><linearGradient id="i" gradientUnits="userSpaceOnUse" x1="133.61" x2="216.479" xlink:href="#a" y1="220.101" y2="326.373"/><linearGradient id="j" gradientUnits="userSpaceOnUse" x1="75.4502" x2="106.043" xlink:href="#a" y1="294.332" y2="398.874"/><linearGradient id="k" gradientUnits="userSpaceOnUse" x1="264.668" x2="317.671" xlink:href="#a" y1="173.335" y2="240.905"/><linearGradient id="l" gradientUnits="userSpaceOnUse" x1="56.5117" x2="110.065" xlink:href="#a" y1="173.515" y2="241.091"/><linearGradient id="m" gradientUnits="userSpaceOnUse" x1="330.92" x2="373.798" xlink:href="#a" y1="238.988" y2="293.729"/><linearGradient id="n"><stop offset="0" stop-color="#d5d5d5"/><stop offset="1" stop-color="#6b6b6b"/></linearGradient><linearGradient id="o" gradientUnits="userSpaceOnUse" x1="314.605" x2="407.1" xlink:href="#n" y1="241.13" y2="262.467"/><linearGradient id="p"><stop offset="0" stop-color="#fff"/><stop offset="1" stop-color="#b9b9b9"/></linearGradient><linearGradient id="q" gradientUnits="userSpaceOnUse" x1="412.028" x2="360.517" xlink:href="#p" y1="219.627" y2="270.216"/><linearGradient id="r" gradientUnits="userSpaceOnUse" x1="409.234" x2="361.464" xlink:href="#p" y1="219.089" y2="266.142"/><linearGradient id="s" gradientUnits="userSpaceOnUse" x1="348.394" x2="371.812" xlink:href="#a" y1="218.853" y2="248.822"/><linearGradient id="t"><stop offset="0" stop-color="#f16822"/><stop offset="1" stop-color="#f16822" stop-opacity="0"/></linearGradient><linearGradient id="u" gradientUnits="userSpaceOnUse" x1="369.645" x2="369.645" xlink:href="#t" y1="245.759" y2="152.185"/><linearGradient id="v" gradientUnits="userSpaceOnUse" x1="385.793" x2="388.089" xlink:href="#a" y1="176.044" y2="177.733"/><linearGradient id="w" gradientUnits="userSpaceOnUse" x1="360.548" x2="364.083" xlink:href="#a" y1="157.629" y2="160.244"/><linearGradient id="x" gradientUnits="userSpaceOnUse" x1="357.762" x2="360.257" xlink:href="#a" y1="196.789" y2="198.635"/><linearGradient id="y" gradientUnits="userSpaceOnUse" x1="8.03198" x2="50.9108" xlink:href="#a" y1="239.656" y2="294.397"/><linearGradient id="z" gradientUnits="userSpaceOnUse" x1="8.30731" x2="47.9477" xlink:href="#a" y1="226.032" y2="279.216"/><linearGradient id="A" gradientUnits="userSpaceOnUse" x1="8.37085" x2="50.4659" xlink:href="#a" y1="210.95" y2="264.789"/><linearGradient id="B" gradientUnits="userSpaceOnUse" x1="11.2584" x2="50.2662" xlink:href="#a" y1="211.215" y2="261.253"/><linearGradient id="C" gradientUnits="userSpaceOnUse" x1="46.6926" x2="46.6926" xlink:href="#t" y1="246.564" y2="146.976"/><linearGradient id="D" gradientUnits="userSpaceOnUse" x1="62.9069" x2="65.1939" xlink:href="#a" y1="176.727" y2="178.419"/><linearGradient id="E" gradientUnits="userSpaceOnUse" x1="37.662" x2="41.1966" xlink:href="#a" y1="158.297" y2="160.913"/><linearGradient id="F" gradientUnits="userSpaceOnUse" x1="34.7428" x2="37.2377" xlink:href="#a" y1="197.457" y2="199.303"/><linearGradient id="G" gradientUnits="userSpaceOnUse" x1="162.592" x2="213.212" xlink:href="#a" y1="235.364" y2="300.078"/><linearGradient id="H" gradientUnits="userSpaceOnUse" x1="163" x2="210.117" xlink:href="#a" y1="225.123" y2="288.209"/><linearGradient id="I" gradientUnits="userSpaceOnUse" x1="255.529" x2="198.724" xlink:href="#p" y1="217.709" y2="273.561"/><linearGradient id="J" gradientUnits="userSpaceOnUse" x1="163.001" x2="210.117" xlink:href="#a" y1="209.894" y2="272.98"/><linearGradient id="K" gradientUnits="userSpaceOnUse" x1="258.749" x2="200.541" xlink:href="#p" y1="210.676" y2="270.654"/><linearGradient id="L" gradientUnits="userSpaceOnUse" x1="255.529" x2="198.724" xlink:href="#p" y1="192.861" y2="248.714"/><linearGradient id="M" gradientUnits="userSpaceOnUse" x1="163.001" x2="210.117" xlink:href="#a" y1="185.18" y2="248.266"/><linearGradient id="N" gradientUnits="userSpaceOnUse" x1="258.749" x2="200.408" xlink:href="#p" y1="185.996" y2="245.978"/><linearGradient id="O" gradientUnits="userSpaceOnUse" x1="255.529" x2="198.724" xlink:href="#p" y1="168.147" y2="223.999"/><linearGradient id="P" gradientUnits="userSpaceOnUse" x1="163.001" x2="210.117" xlink:href="#a" y1="160.332" y2="223.418"/><linearGradient id="Q" gradientUnits="userSpaceOnUse" x1="163.001" x2="210.117" xlink:href="#a" y1="150.714" y2="213.8"/><linearGradient id="R" gradientUnits="userSpaceOnUse" x1="166.395" x2="212.803" xlink:href="#a" y1="134.344" y2="193.767"/><linearGradient id="S" gradientUnits="userSpaceOnUse" x1="200.171" x2="203.082" xlink:href="#a" y1="132.979" y2="135.133"/><linearGradient id="T" gradientUnits="userSpaceOnUse" x1="214.889" x2="218.007" xlink:href="#a" y1="111.895" y2="114.203"/><linearGradient id="U" gradientUnits="userSpaceOnUse" x1="214.641" x2="216.72" xlink:href="#a" y1="118.86" y2="120.398"/><linearGradient id="V" gradientUnits="userSpaceOnUse" x1="52.8736" x2="86.2665" xlink:href="#a" y1="312.462" y2="340.981"/><linearGradient id="W" gradientUnits="userSpaceOnUse" x1="60.8074" x2="52.2814" xlink:href="#n" y1="307.277" y2="341.519"/><linearGradient id="X" gradientUnits="userSpaceOnUse" x1="95.805" x2="71.9734" xlink:href="#p" y1="319.642" y2="327.478"/><linearGradient id="Y" gradientUnits="userSpaceOnUse" x1="72.9224" x2="67.4858" xlink:href="#n" y1="293.913" y2="350.225"/><linearGradient id="Z" gradientUnits="userSpaceOnUse" x1="308.698" x2="342.091" xlink:href="#a" y1="130.378" y2="158.897"/><linearGradient id="aa" gradientUnits="userSpaceOnUse" x1="316.632" x2="308.106" xlink:href="#n" y1="125.193" y2="159.435"/><linearGradient id="ab" gradientUnits="userSpaceOnUse" x1="351.63" x2="327.798" xlink:href="#p" y1="137.558" y2="145.394"/><linearGradient id="ac" gradientUnits="userSpaceOnUse" x1="328.747" x2="323.31" xlink:href="#n" y1="111.829" y2="168.142"/><linearGradient id="ad" gradientUnits="userSpaceOnUse" x1="208.269" x2="208.269" xlink:href="#t" y1="191.812" y2=".05228"/><linearGradient id="ae"><stop offset="0" stop-color="#f16822"/><stop offset="1" stop-color="#d84b0e"/></linearGradient><linearGradient id="af" gradientUnits="userSpaceOnUse" x1="238.606" x2="157.204" xlink:href="#ae" y1="123.214" y2="119.472"/><linearGradient id="ag" gradientUnits="userSpaceOnUse" x1="238.606" x2="157.175" xlink:href="#ae" y1="113.903" y2="110.495"/><g opacity=".1"><path d="m81.491 212.408-23.7791-13.76v27.654l23.7791 13.759 23.913-13.759v-27.654z" fill="url(#b)" opacity=".1"/><path d="m81.491 240.061-23.7791-13.759v-27.654l23.7791 13.76z" fill="url(#c)" opacity=".1"/><path d="m105.403 226.302-23.9123 13.759v-27.653l23.9123-13.76z" fill="#f16822" opacity=".1"/><path d="m81.491 212.408-23.7791-13.76 23.7791-13.759 23.913 13.759z" fill="url(#d)" opacity=".1"/><path d="m81.491 212.408-23.7791-13.76v1.203l23.7791 13.76 23.913-13.76v-1.203z" fill="#fff" opacity=".1"/></g><path d="m81.4905 187.694-23.7791-13.759 23.7791-13.76 23.9125 13.76z" fill="#373737" opacity=".4"/><path d="m81.4905 147.216-23.7791-13.759v27.519l23.7791 13.893 23.9125-13.893v-27.519z" fill="url(#e)"/><path d="m81.491 174.869-23.7791-13.893v-27.519l23.7791 13.759z" fill="url(#f)"/><path d="m105.403 160.976-23.9128 13.893v-27.653l23.9128-13.759z" fill="#f16822"/><path d="m81.49 147.216-23.7791-13.759 23.7791-13.76 23.913 13.76z" fill="url(#g)"/><path d="m81.491 147.216-23.7791-13.759v1.202l23.7791 13.76 23.913-13.76v-1.202z" fill="#fff"/><path d="m356.551 364.167-23.511-13.626 23.511-13.626 23.512 13.626z" fill="#bababa" opacity=".2"/><path d="m208.579 305c-18.289 0-36.578-4.107-50.61-12.162-13.559-7.897-20.969-18.321-20.969-29.377 0-11.057 7.41-21.639 20.969-29.378 27.906-16.111 73.156-16.111 101.062 0 13.559 7.897 20.969 18.321 20.969 29.378 0 11.056-7.41 21.638-20.969 29.377-13.717 8.213-32.163 12.162-50.452 12.162zm0-82.289c-18.131 0-36.42 3.948-50.295 12.004-13.401 7.739-20.653 18.005-20.653 28.903 0 10.899 7.41 21.165 20.653 28.904 27.749 15.953 72.841 15.953 100.432 0l.157.316-.157-.316c13.401-7.739 20.653-18.005 20.653-28.904 0-10.898-7.41-21.164-20.653-28.903-13.717-8.056-31.848-12.004-50.137-12.004z" fill="url(#h)" opacity=".4"/><path d="m209 316c-23.224 0-46.606-5.041-64.3-15.281-17.221-9.925-26.7-23.159-26.7-37.18s9.479-27.254 26.7-37.179c35.389-20.48 93.053-20.48 128.6 0 17.221 9.925 26.7 23.158 26.7 37.179s-9.479 27.255-26.7 37.18l-.158-.315.158.315c-17.694 10.082-40.918 15.281-64.3 15.281zm0-104.449c-23.224 0-46.29 5.042-63.984 15.282-17.063 9.767-26.384 22.843-26.384 36.706 0 13.864 9.321 26.782 26.384 36.707 35.231 20.323 92.737 20.323 127.968 0 17.063-9.767 26.384-22.843 26.384-36.707 0-13.863-9.321-26.781-26.384-36.706-17.536-10.083-40.76-15.282-63.984-15.282z" fill="url(#i)" opacity=".2"/><path d="m208.668 358.022c-43.016 0-86.032-9.485-118.7619-28.321-19.6378-11.356-34.1991-25.383-42.0809-40.612l.4008-.267c7.8818 15.229 22.4431 29.123 41.9473 40.478 65.3257 37.672 171.6637 37.672 237.1227 0 19.771-11.489 34.466-25.65 42.214-41.012l.401.267c-7.882 15.496-22.577 29.79-42.482 41.279-32.729 18.703-75.745 28.188-118.761 28.188z" fill="url(#j)"/><path d="m369.778 234.584c-7.748-15.763-22.443-30.191-42.749-41.947-20.172-11.622-45.153-20.172-72.272-24.581l.133-.534c27.253 4.542 52.368 13.092 72.54 24.714 20.306 11.756 35.134 26.317 42.882 42.081z" fill="url(#k)"/><path d="m47.0243 235.252-.4008-.267c7.7483-16.164 22.5768-30.859 43.1496-42.749 20.0389-11.622 44.8859-20.038 72.0049-24.58l.134.534c-26.985 4.542-51.833 12.958-71.7381 24.581-20.5729 11.756-35.535 26.451-43.1496 42.481z" fill="url(#l)"/><path d="m369.778 288.555c-12.023 0-23.913-2.672-33.131-7.882-8.95-5.077-13.759-12.023-13.759-19.237 0-7.348 4.943-14.161 13.759-19.237 18.302-10.554 47.959-10.554 66.128 0 8.95 5.076 13.759 12.023 13.759 19.237 0 7.347-4.942 14.16-13.759 19.237-8.951 5.21-20.974 7.882-32.997 7.882zm0-53.837c-11.89 0-23.779 2.672-32.863 7.882-8.684 5.076-13.493 11.756-13.493 18.836s4.809 13.76 13.493 18.836c18.168 10.42 47.558 10.42 65.726 0 8.683-5.076 13.493-11.756 13.493-18.836s-4.81-13.76-13.493-18.836c-9.084-5.344-20.974-7.882-32.863-7.882zm0 43.016c-7.214 0-14.294-1.603-19.772-4.676-5.343-3.072-8.282-7.214-8.282-11.622 0-4.409 2.939-8.55 8.282-11.622 10.955-6.279 28.722-6.279 39.677 0 5.343 3.072 8.282 7.213 8.282 11.622 0 4.408-2.939 8.55-8.282 11.622-5.477 3.073-12.691 4.676-19.905 4.676zm0-32.195c-7.08 0-14.161 1.603-19.504 4.675-5.21 2.939-8.016 6.947-8.016 11.222 0 4.141 2.806 8.149 8.016 11.221 10.82 6.279 28.321 6.279 39.142 0 5.21-2.939 8.015-6.946 8.015-11.221 0-4.141-2.805-8.149-8.015-11.222-5.478-3.072-12.558-4.675-19.638-4.675z" fill="url(#m)"/><path d="m351.075 235.519c10.152-5.878 26.718-5.878 36.87 0 1.604.935 3.073 2.004 4.142 3.073 5.744-5.744 4.408-13.226-4.142-18.168-10.152-5.878-26.718-5.878-36.87 0-8.55 4.942-9.886 12.424-4.142 18.168 1.069-1.069 2.539-2.138 4.142-3.073z" fill="#dedede"/><path d="m408.786 231.244c-1.87-1.736-4.008-3.339-6.68-4.809-4.007-2.404-8.683-4.141-13.626-5.477 9.485 6.012 9.218 15.363-.935 21.107-10.42 6.012-27.119 6.012-37.539 0-9.752-5.611-10.286-14.427-1.87-20.439-4.141 1.202-7.882 2.805-11.355 4.809-2.539 1.47-4.81 3.073-6.68 4.809h-6.813v13.894c0 6.813 4.542 13.626 13.493 18.836 18.034 10.42 47.157 10.42 65.192 0 8.95-5.21 13.492-12.023 13.492-18.836v-13.894z" fill="url(#o)"/><path d="m402.107 213.61c-18.035-10.42-47.158-10.42-65.192 0-18.035 10.42-18.035 27.253 0 37.673 18.034 10.42 47.157 10.42 65.192 0 17.901-10.554 17.901-27.386 0-37.673zm-14.161 29.524c-10.42 6.011-27.119 6.011-37.539 0-10.42-6.012-10.42-15.63 0-21.642 10.42-6.011 27.119-6.011 37.539 0 10.287 6.012 10.287 15.764 0 21.642z" fill="url(#q)"/><path d="m402.107 249.68c-18.035 10.42-47.158 10.42-65.192 0-8.684-5.077-13.226-11.489-13.493-18.035-.267 7.08 4.141 14.161 13.493 19.504 18.034 10.42 47.157 10.42 65.192 0 9.351-5.343 13.759-12.424 13.492-19.504-.4 6.546-4.809 13.092-13.492 18.035z" fill="#fff"/><path d="m387.946 220.156c-10.42-6.011-27.119-6.011-37.539 0-5.477 3.206-8.015 7.348-7.748 11.489.267-3.741 2.939-7.348 7.748-10.153 10.42-6.012 27.119-6.012 37.539 0 4.81 2.805 7.481 6.412 7.749 10.153.267-4.141-2.272-8.416-7.749-11.489z" fill="#fff"/><path d="m399.969 213.477c-16.699-9.618-43.951-9.618-60.65 0-16.699 9.619-16.699 25.382 0 35.001 16.699 9.618 43.951 9.618 60.65 0 16.699-9.619 16.699-25.249 0-35.001zm-12.157 28.054c-10.019 5.744-26.183 5.744-36.203 0-10.019-5.744-10.019-15.096 0-20.974 10.02-5.744 26.184-5.744 36.203 0 9.886 5.745 9.886 15.23 0 20.974z" fill="url(#r)"/><path d="m369.644 245.939c14.166 0 25.649-6.639 25.649-14.828 0-8.19-11.483-14.829-25.649-14.829s-25.649 6.639-25.649 14.829c0 8.189 11.483 14.828 25.649 14.828z" fill="url(#s)" opacity=".4"/><path d="m395.293 230.71v-78.551h-51.298v78.685c0 3.874 2.404 7.614 7.481 10.553 10.019 5.745 26.183 5.745 36.203 0 5.21-2.805 7.748-6.813 7.614-10.687z" fill="url(#u)" opacity=".5"/><path d="m388.479 177.274c0 .802-.667 1.47-1.469 1.47s-1.469-.668-1.469-1.47c0-.801.667-1.469 1.469-1.469.802-.134 1.469.534 1.469 1.469z" fill="url(#v)" opacity=".4"/><path d="m364.701 159.506c0 1.203-1.069 2.271-2.271 2.271-1.203 0-2.271-1.068-2.271-2.271 0-1.202 1.068-2.271 2.271-2.271 1.336 0 2.271 1.069 2.271 2.271z" fill="url(#w)" opacity=".4"/><path d="m360.693 198.114c0 .935-.668 1.603-1.603 1.603s-1.603-.668-1.603-1.603.668-1.603 1.603-1.603c.801 0 1.603.668 1.603 1.603z" fill="url(#x)" opacity=".8"/><path d="m46.8901 289.223c-12.0231 0-23.9126-2.672-33.1303-7.882-8.95055-5.077-13.7598-12.023-13.7598-19.237 0-7.348 4.94284-14.161 13.7598-19.237 18.3018-10.554 47.9588-10.554 66.1271 0 8.9505 5.076 13.7598 12.023 13.7598 19.237 0 7.347-4.9429 14.16-13.7598 19.237-9.0841 5.21-20.9737 7.882-32.9968 7.882zm0-53.837c-11.8895 0-23.779 2.672-32.8631 7.882-8.68339 5.076-13.492639 11.756-13.492639 18.836s4.809249 13.76 13.492639 18.836c18.1682 10.42 47.5581 10.42 65.7263 0 8.6834-5.076 13.4926-11.756 13.4926-18.836s-4.8092-13.76-13.4926-18.836c-9.0841-5.344-20.9736-7.882-32.8632-7.882zm0 43.016c-7.2138 0-14.2941-1.603-19.7713-4.676-5.3436-3.072-8.2826-7.214-8.2826-11.622 0-4.409 2.939-8.55 8.2826-11.622 10.9544-6.279 28.7219-6.279 39.6763 0 5.3436 3.072 8.2826 7.213 8.2826 11.622 0 4.408-2.939 8.55-8.2826 11.622l-.1336-.267.1336.267c-5.6108 3.073-12.6911 4.676-19.905 4.676zm0-32.195c-7.0802 0-14.1605 1.603-19.5041 4.675-5.21 2.939-8.0154 6.947-8.0154 11.222 0 4.141 2.8054 8.149 8.0154 11.221 10.8208 6.279 28.3211 6.279 39.1419 0 5.21-2.939 8.0154-6.946 8.0154-11.221 0-4.141-2.8054-8.149-8.0154-11.222-5.4772-3.072-12.5575-4.675-19.6378-4.675z" fill="url(#y)"/><path d="m28.0536 236.187c10.1529-5.878 26.718-5.878 36.8709 0 1.6031.935 3.0726 2.004 4.1413 3.073 5.7444-5.745 4.4085-13.226-4.1413-18.168-10.1529-5.878-26.718-5.878-36.8709 0-8.5498 4.942-9.8857 12.423-4.1413 18.168 1.2023-1.069 2.5382-2.138 4.1413-3.073z" fill="#dedede"/><path d="m85.7655 231.912c-1.8703-1.736-4.0077-3.339-6.6795-4.809-4.0077-2.404-8.6834-4.141-13.6262-5.477 9.4849 6.012 9.2177 15.363-.9352 21.107-10.42 6.012-27.1188 6.012-37.5388 0-9.7521-5.611-10.2864-14.428-1.8703-20.439-4.1413 1.202-7.8818 2.805-11.3551 4.809-2.5382 1.47-4.80926 3.073-6.67953 4.809h-6.679503v13.894c0 6.813 4.542063 13.626 13.492633 18.836 18.0346 10.42 47.1573 10.42 65.192 0 8.9505-5.21 13.4926-12.023 13.4926-18.836v-13.894z" fill="url(#z)"/><path d="m79.0851 226.97c-4.0078-2.405-8.6834-4.141-13.6262-5.477 9.4849 6.011 9.2177 15.363-.9352 21.107-5.0764 2.939-11.4887 4.408-18.1682 4.542v25.249c11.7559 0 23.6454-2.539 32.596-7.749 8.9505-5.21 13.4926-12.023 13.4926-18.836v-13.893h-6.8131c-1.7367-1.737-3.8741-3.474-6.5459-4.943z" fill="#d84b0e" opacity=".3"/><path d="m79.0856 214.145c-18.0347-10.42-47.1574-10.42-65.192 0-17.9011 10.42-17.9011 27.252 0 37.673 18.0346 10.42 47.1573 10.42 65.192 0 18.0346-10.421 18.0346-27.253 0-37.673zm-14.1606 29.657c-10.42 6.012-27.1188 6.012-37.5388 0-10.42-6.011-10.42-15.63 0-21.641 10.42-6.012 27.1188-6.012 37.5388 0 10.42 6.011 10.42 15.763 0 21.641z" fill="url(#A)"/><path d="m79.0859 250.348c-18.0347 10.42-47.1574 10.42-65.192 0-8.68338-5.077-13.225448-11.489-13.492628-18.035-.26718 7.08 4.274888 14.161 13.492628 19.504 18.0346 10.42 47.1573 10.42 65.192 0 9.3513-5.343 13.7597-12.424 13.4926-19.504-.2672 6.546-4.8093 13.092-13.4926 18.035z" fill="#fff"/><path d="m64.9258 220.691c-10.4201-6.012-27.1188-6.012-37.5389 0-5.4772 3.206-8.0154 7.347-7.7482 11.489.2672-3.741 2.939-7.348 7.7482-10.153 10.4201-6.012 27.1188-6.012 37.5389 0 4.8092 2.805 7.481 6.412 7.7482 10.153.4008-4.008-2.2711-8.283-7.7482-11.489z" fill="#fff"/><path d="m77.0822 214.145c-16.6988-9.618-43.9512-9.618-60.6499 0-16.698789 9.619-16.698789 25.382 0 35.001 16.6987 9.618 43.9511 9.618 60.6499 0 16.6988-9.619 16.6988-25.249 0-35.001zm-12.2903 28.054c-10.0193 5.744-26.1837 5.744-36.2029 0-10.0193-5.744-10.0193-15.096 0-20.974 10.0192-5.744 26.1836-5.744 36.2029 0 10.0193 5.745 10.0193 15.23 0 20.974z" fill="url(#B)"/><path d="m64.7921 242.199c-10.0193 5.744-26.1837 5.744-36.2029 0-10.0193-5.744-10.0193-15.096 0-20.974 10.0192-5.744 26.1836-5.744 36.2029 0 10.0192 5.745 10.0192 15.23 0 20.974z" fill="#fff" opacity=".4"/><path d="m72.2739 231.512v-84.563h-51.165v84.696c0 3.874 2.4046 7.615 7.481 10.554 10.0193 5.744 26.1837 5.744 36.203 0 5.21-2.805 7.6146-6.813 7.481-10.687z" fill="url(#C)" opacity=".5"/><path d="m65.5938 177.942c0 .802-.668 1.47-1.4695 1.47-.8016 0-1.4695-.668-1.4695-1.47 0-.801.6679-1.469 1.4695-1.469.8015 0 1.4695.534 1.4695 1.469z" fill="url(#D)" opacity=".4"/><path d="m41.8145 160.175c0 1.202-1.0687 2.271-2.271 2.271s-2.271-1.069-2.271-2.271 1.0687-2.271 2.271-2.271 2.271 1.069 2.271 2.271z" fill="url(#E)" opacity=".4"/><path d="m37.6739 198.782c0 .935-.6679 1.603-1.603 1.603-.9352 0-1.6031-.668-1.6031-1.603s.6679-1.603 1.6031-1.603c.9351 0 1.603.668 1.603 1.603z" fill="url(#F)" opacity=".8"/><path d="m208.4 293.898c-14.16 0-28.321-3.072-39.008-9.351-10.554-6.011-16.298-14.16-16.298-22.71s5.744-16.699 16.298-22.71c21.508-12.424 56.642-12.424 78.15 0 10.554 6.011 16.298 14.16 16.298 22.71s-5.744 16.699-16.298 22.71l-.134-.267.134.267c-10.954 6.279-25.115 9.351-39.142 9.351zm0-63.455c-14.027 0-28.054 3.073-38.741 9.218-10.287 5.878-15.897 13.76-15.897 22.176s5.61 16.298 15.897 22.176c21.374 12.29 56.108 12.29 77.482 0 10.287-5.878 15.897-13.76 15.897-22.176s-5.61-16.298-15.897-22.176c-10.687-6.145-24.714-9.218-38.741-9.218z" fill="url(#G)"/><path d="m186.491 237.123c12.024-6.947 31.661-6.947 43.684 0 2.004 1.069 3.607 2.405 4.943 3.741 6.813-6.814 5.21-15.631-4.943-21.508-12.023-6.947-31.66-6.947-43.684 0-10.152 5.877-11.755 14.694-4.942 21.508 1.336-1.336 3.072-2.539 4.942-3.741z" fill="#dedede"/><path d="m254.889 232.046c-2.137-2.004-4.809-4.007-7.882-5.744-4.809-2.805-10.286-4.943-16.164-6.412 11.222 7.08 10.954 18.168-1.069 25.115-12.29 7.08-32.195 7.08-44.485 0-11.489-6.68-12.29-17.234-2.138-24.314-4.809 1.47-9.351 3.34-13.492 5.745-3.073 1.736-5.745 3.74-7.882 5.744h-8.149v16.565c0 8.016 5.344 16.165 16.031 22.31 21.374 12.29 55.974 12.29 77.215 0 10.687-6.145 16.031-14.294 16.031-22.31v-16.565h-8.016z" fill="url(#H)"/><path d="m247.008 226.302c-4.81-2.805-10.287-4.943-16.165-6.412 11.222 7.08 10.955 18.168-1.068 25.115-5.878 3.473-13.627 5.21-21.508 5.343v29.924c14.027 0 27.92-3.072 38.607-9.217s16.031-14.294 16.031-22.31v-16.565h-8.149c-2.004-2.137-4.676-4.141-7.748-5.878z" fill="#d84b0e" opacity=".3"/><path d="m247.007 211.073c-21.374-12.291-55.974-12.291-77.215 0-21.374 12.29-21.374 32.329 0 44.619s55.974 12.29 77.215 0c21.375-12.29 21.375-32.329 0-44.619zm-16.832 35.134c-12.29 7.08-32.195 7.08-44.486 0-12.29-7.08-12.29-18.569 0-25.649 12.291-7.081 32.196-7.081 44.486 0 12.29 7.08 12.29 18.569 0 25.649z" fill="#dedede"/><path d="m247.008 253.955c-21.375 12.291-55.975 12.291-77.215 0-10.287-5.878-15.631-13.626-16.031-21.508-.401 8.416 4.943 16.833 16.031 23.111 21.374 12.291 55.974 12.291 77.215 0 11.088-6.412 16.431-14.828 16.03-23.111-.4 7.882-5.744 15.63-16.03 21.508z" fill="#fff"/><path d="m230.176 218.821c-12.29-7.08-32.195-7.08-44.486 0-6.546 3.74-9.618 8.817-9.217 13.626.4-4.408 3.473-8.683 9.217-12.023 12.291-7.08 32.196-7.08 44.486 0 5.744 3.34 8.817 7.615 9.218 12.023.4-4.809-2.672-9.886-9.218-13.626z" fill="#fff"/><path d="m244.47 211.073c-19.905-11.489-52.101-11.489-71.872 0-19.905 11.488-19.905 30.057 0 41.546s52.1 11.489 71.872 0c19.905-11.489 19.905-30.058 0-41.546zm-14.428 33.13c-11.89 6.813-31.127 6.813-43.016 0-11.89-6.813-11.89-17.901 0-24.848 11.889-6.813 31.126-6.813 43.016 0 11.889 6.947 11.889 18.035 0 24.848z" fill="url(#I)"/><path d="m254.89 216.817c-2.138-2.003-4.81-4.007-7.882-5.744-4.809-2.805-10.287-4.943-16.164-6.412 11.221 7.08 10.954 18.168-1.069 25.115-12.29 7.08-32.195 7.08-44.486 0-11.488-6.68-12.29-17.234-2.137-24.314-4.809 1.47-9.351 3.34-13.493 5.745-3.072 1.736-5.744 3.74-7.882 5.744h-8.149v16.565c0 8.016 5.344 16.165 16.031 22.31 21.375 12.29 55.975 12.29 77.215 0 10.688-6.145 16.031-14.294 16.031-22.31v-16.565h-8.015z" fill="url(#J)" opacity=".5"/><path d="m186.491 212.409c12.024-6.947 31.661-6.947 43.684 0 2.004 1.068 3.607 2.404 4.943 3.74 6.813-6.813 5.21-15.63-4.943-21.508-12.023-6.947-31.66-6.947-43.684 0-10.152 5.878-11.755 14.695-4.942 21.508 1.336-1.469 3.072-2.672 4.942-3.74z" fill="#dedede"/><path d="m254.889 207.199c-2.137-2.004-4.809-4.008-7.882-5.745-4.809-2.805-10.286-4.943-16.164-6.412 11.222 7.08 10.954 18.168-1.069 25.115-12.29 7.08-32.195 7.08-44.485 0-11.489-6.68-12.29-17.233-2.138-24.313-4.809 1.469-9.351 3.339-13.492 5.744-3.073 1.737-5.745 3.74-7.882 5.744h-8.149v16.432c0 8.015 5.344 16.164 16.031 22.309 21.374 12.291 55.974 12.291 77.215 0 10.687-6.145 16.031-14.294 16.031-22.309v-16.565z" fill="url(#K)"/><path d="m247.007 186.225c-21.374-12.29-55.974-12.29-77.215 0-21.374 12.29-21.374 32.329 0 44.619s55.974 12.29 77.215 0 21.375-32.195 0-44.619zm-16.832 35.268c-12.29 7.08-32.195 7.08-44.486 0-12.29-7.08-12.29-18.569 0-25.649 12.291-7.081 32.196-7.081 44.486 0 12.29 7.08 12.29 18.435 0 25.649z" fill="#dedede"/><path d="m247.008 229.241c-21.375 12.291-55.975 12.291-77.215 0-10.287-5.878-15.631-13.626-16.031-21.508-.401 8.417 4.943 16.833 16.031 23.111 21.374 12.291 55.974 12.291 77.215 0 11.088-6.412 16.431-14.828 16.03-23.111-.4 7.749-5.744 15.497-16.03 21.508z" fill="#fff"/><path d="m230.176 194.107c-12.29-7.08-32.195-7.08-44.486 0-6.546 3.741-9.618 8.817-9.217 13.626.4-4.408 3.473-8.683 9.217-12.023 12.291-7.08 32.196-7.08 44.486 0 5.744 3.34 8.817 7.615 9.218 12.023.4-4.943-2.672-9.885-9.218-13.626z" fill="#fff"/><path d="m244.47 186.225c-19.905-11.489-52.101-11.489-71.872 0-19.905 11.489-19.905 30.058 0 41.546 19.905 11.489 52.1 11.489 71.872 0 19.905-11.488 19.905-30.057 0-41.546zm-14.428 33.264c-11.89 6.813-31.127 6.813-43.016 0-11.89-6.813-11.89-17.901 0-24.848 11.889-6.813 31.126-6.813 43.016 0 11.889 6.813 11.889 17.901 0 24.848z" fill="url(#L)"/><path d="m254.89 192.103c-2.138-2.004-4.81-4.008-7.882-5.744-4.809-2.806-10.287-4.943-16.164-6.413 11.221 7.081 10.954 18.169-1.069 25.115-12.29 7.081-32.195 7.081-44.486 0-11.488-6.679-12.29-17.233-2.137-24.313-4.809 1.469-9.351 3.34-13.493 5.744-3.072 1.737-5.744 3.741-7.882 5.745h-8.149v16.565c0 8.015 5.344 16.164 16.031 22.309 21.375 12.291 55.975 12.291 77.215 0 10.688-6.145 16.031-14.294 16.031-22.309v-16.699z" fill="url(#M)" opacity=".5"/><path d="m186.491 187.561c12.024-6.947 31.661-6.947 43.684 0 2.004 1.069 3.607 2.405 4.943 3.741 6.813-6.814 5.21-15.631-4.943-21.508-12.023-6.947-31.66-6.947-43.684 0-10.152 5.877-11.755 14.694-4.942 21.508 1.336-1.336 3.072-2.672 4.942-3.741z" fill="#dedede"/><path d="m254.889 182.484c-2.137-2.004-4.809-4.007-7.882-5.744-4.809-2.805-10.286-4.943-16.164-6.412 11.222 7.08 10.954 18.168-1.069 25.115-12.29 7.08-32.195 7.08-44.485 0-11.489-6.68-12.29-17.234-2.138-24.314-4.809 1.47-9.351 3.34-13.492 5.745-3.073 1.736-5.745 3.74-7.882 5.744h-8.149v16.565c0 8.016 5.344 16.165 16.031 22.31 21.374 12.29 55.974 12.29 77.215 0 10.687-6.145 16.031-14.294 16.031-22.31v-16.699z" fill="url(#N)"/><path d="m247.007 161.511c-21.374-12.291-55.974-12.291-77.215 0-21.374 12.29-21.374 32.329 0 44.619s55.974 12.29 77.215 0c21.375-12.29 21.375-32.329 0-44.619zm-16.832 35.134c-12.29 7.08-32.195 7.08-44.486 0-12.29-7.08-12.29-18.569 0-25.649 12.291-7.081 32.196-7.081 44.486 0 12.29 7.08 12.29 18.569 0 25.649z" fill="#dedede"/><path d="m247.008 204.393c-21.375 12.291-55.975 12.291-77.215 0-10.287-5.878-15.631-13.626-16.031-21.508-.401 8.416 4.943 16.833 16.031 23.111 21.374 12.291 55.974 12.291 77.215 0 11.088-6.412 16.431-14.828 16.03-23.111-.4 7.882-5.744 15.63-16.03 21.508z" fill="#fff"/><path d="m230.176 169.259c-12.29-7.08-32.195-7.08-44.486 0-6.546 3.74-9.618 8.817-9.217 13.626.4-4.408 3.473-8.683 9.217-12.023 12.291-7.08 32.196-7.08 44.486 0 5.744 3.34 8.817 7.615 9.218 12.023.4-4.809-2.672-9.886-9.218-13.626z" fill="#fff"/><path d="m244.47 161.511c-19.905-11.489-52.101-11.489-71.872 0-19.905 11.488-19.905 30.057 0 41.546s52.1 11.489 71.872 0c19.905-11.489 19.905-30.058 0-41.546zm-14.428 33.13c-11.89 6.813-31.127 6.813-43.016 0-11.89-6.813-11.89-17.901 0-24.848 11.889-6.813 31.126-6.813 43.016 0 11.889 6.947 11.889 18.035 0 24.848z" fill="url(#O)"/><path d="m254.89 167.255c-2.138-2.004-4.81-4.007-7.882-5.744-4.809-2.805-10.287-4.943-16.164-6.412 11.221 7.08 10.954 18.168-1.069 25.115-12.29 7.08-32.195 7.08-44.486 0-11.488-6.68-12.29-17.234-2.137-24.314-4.809 1.47-9.351 3.34-13.493 5.745-3.072 1.736-5.744 3.74-7.882 5.744h-8.149v16.565c0 8.016 5.344 16.165 16.031 22.31 21.375 12.29 55.975 12.29 77.215 0 10.688-6.145 16.031-14.294 16.031-22.31v-16.699z" fill="url(#P)" opacity=".5"/><path d="m186.492 162.713c12.023-6.946 31.661-6.946 43.684 0 2.004 1.069 3.607 2.405 4.943 3.741 6.813-6.813 5.21-15.63-4.943-21.508-12.023-6.947-31.661-6.947-43.684 0-10.153 5.878-11.756 14.695-4.943 21.508 1.336-1.336 3.073-2.538 4.943-3.741z" fill="#dedede"/><path d="m254.89 157.637c-2.138-2.004-4.81-4.008-7.882-5.745-4.809-2.805-10.287-4.943-16.164-6.412 11.221 7.08 10.954 18.168-1.069 25.115-12.29 7.08-32.195 7.08-44.486 0-11.488-6.68-12.29-17.233-2.137-24.313-4.809 1.469-9.351 3.339-13.493 5.744-3.072 1.737-5.744 3.74-7.882 5.744h-8.149v16.565c0 8.016 5.344 16.165 16.031 22.31 21.375 12.29 55.975 12.29 77.215 0 10.688-6.145 16.031-14.294 16.031-22.31v-16.698z" fill="url(#Q)"/><path d="m254.89 157.637c-2.138-2.004-4.81-4.008-7.882-5.745-4.809-2.805-10.287-4.943-16.164-6.412 11.221 7.08 10.954 18.168-1.069 25.115-12.29 7.08-32.195 7.08-44.486 0-11.488-6.68-12.29-17.233-2.137-24.313-4.809 1.469-9.351 3.339-13.493 5.744-3.072 1.737-5.744 3.74-7.882 5.744h-8.149v16.565c0 8.016 5.344 16.165 16.031 22.31 21.375 12.29 55.975 12.29 77.215 0 10.688-6.145 16.031-14.294 16.031-22.31v-16.698z" fill="url(#Q)"/><path d="m247.008 151.892c-4.809-2.805-10.286-4.943-16.164-6.412 11.221 7.08 10.954 18.168-1.069 25.115-5.878 3.473-13.626 5.21-21.508 5.344v29.924c14.027 0 27.92-3.073 38.608-9.218 10.687-6.145 16.03-14.294 16.03-22.31v-16.698h-8.149c-2.003-2.138-4.675-4.008-7.748-5.745z" fill="#d84b0e" opacity=".3"/><path d="m247.008 136.663c-21.375-12.29-55.975-12.29-77.215 0-21.375 12.29-21.375 32.329 0 44.619 21.374 12.29 55.974 12.29 77.215 0 21.374-12.29 21.374-32.329 0-44.619zm-16.833 35.134c-12.29 7.081-32.195 7.081-44.485 0-12.291-7.08-12.291-18.569 0-25.649 12.29-7.08 32.195-7.08 44.485 0 12.291 7.08 12.291 18.569 0 25.649z" fill="#f5f5f5"/><path d="m247.008 179.546c-21.375 12.29-55.975 12.29-77.215 0-10.287-5.878-15.631-13.627-16.031-21.508-.401 8.416 4.943 16.832 16.031 23.111 21.374 12.29 55.974 12.29 77.215 0 11.088-6.413 16.431-14.829 16.03-23.111-.4 7.881-5.744 15.63-16.03 21.508z" fill="#fff"/><path d="m244.47 137.866c-19.905-11.489-52.1-11.489-71.871 0-19.905 11.488-19.905 30.057 0 41.546s52.1 11.489 71.871 0c19.905-11.489 19.905-30.191 0-41.546zm-14.428 33.13c-11.889 6.813-31.126 6.813-43.016 0-11.889-6.813-11.889-17.901 0-24.848 11.89-6.813 31.127-6.813 43.016 0 11.89 6.947 11.89 18.035 0 24.848z" fill="url(#R)"/><path d="m208.533 176.072c16.748 0 30.325-7.835 30.325-17.5 0-9.666-13.577-17.501-30.325-17.501s-30.325 7.835-30.325 17.501c0 9.665 13.577 17.5 30.325 17.5z" fill="#f16822" opacity=".2"/><path d="m203.591 134.526c0 1.068-.802 1.87-1.871 1.87-1.068 0-1.87-.802-1.87-1.87 0-1.069.802-1.871 1.87-1.871 1.069 0 1.871.935 1.871 1.871z" fill="url(#S)" opacity=".4"/><path d="m216.549 115.556c1.106 0 2.004-.898 2.004-2.004 0-1.107-.898-2.004-2.004-2.004-1.107 0-2.004.897-2.004 2.004 0 1.106.897 2.004 2.004 2.004z" fill="url(#T)" opacity=".8"/><path d="m217.084 119.964c0 .801-.534 1.336-1.336 1.336s-1.336-.535-1.336-1.336c0-.802.534-1.336 1.336-1.336.668 0 1.336.668 1.336 1.336z" fill="url(#U)" opacity=".8"/><path d="m72.6729 363.365-23.9126-13.893 23.9126-13.893 24.0462 13.893z" fill="#373737" opacity=".4"/><path d="m72.6729 322.621-23.9126-13.76v27.653l23.9126 13.893 24.0462-13.893v-27.653z" fill="url(#V)"/><path d="m72.6729 350.407-23.9126-13.893v-27.653l23.9126 13.76z" fill="url(#W)"/><path d="m96.7196 336.514-24.0463 13.893v-27.786l24.0463-13.76z" fill="url(#X)"/><path d="m72.6734 322.62-23.9127-13.759 23.9127-13.894 24.0462 13.894z" fill="url(#Y)"/><path d="m72.6729 322.621-23.9126-13.76v1.202l23.9126 13.76 24.0462-13.76v-1.202z" fill="#fff"/><path d="m328.498 181.282-23.913-13.893 23.913-13.894 24.046 13.894z" fill="#373737" opacity=".4"/><path d="m328.498 140.537-23.913-13.76v27.654l23.913 13.893 24.046-13.893v-27.654z" fill="url(#Z)"/><path d="m328.498 168.324-23.913-13.893v-27.654l23.913 13.76z" fill="url(#aa)"/><path d="m352.544 154.431-24.046 13.893v-27.787l24.046-13.76z" fill="url(#ab)"/><path d="m328.498 140.537-23.913-13.76 23.913-13.893 24.046 13.893z" fill="url(#ac)"/><path d="m328.498 140.537-23.913-13.76v1.203l23.913 13.759 24.046-13.759v-1.203z" fill="#fff"/><path d="m263.033 159.58v-159.58h-109.533v159.866c0 8.299 5.134 16.312 15.974 22.607 21.393 12.305 55.907 12.305 77.3 0 11.125-6.009 16.544-14.594 16.259-22.893z" fill="url(#ad)" opacity=".3"/><path d="m263.173 105.496h-1.394c-2.154-5.7788-7.096-11.1723-14.699-15.6668-21.414-12.5848-56.26-12.5848-77.801 0-7.223 4.2377-12.038 9.2459-14.319 14.6398h-1.774v7.191c-.38 8.604 4.942 17.208 16.093 23.757 21.414 12.584 56.26 12.584 77.801 0 10.771-6.293 16.093-14.511 16.093-22.73z" fill="#ff7d3a"/><path d="m263.173 104.548h-1.394c-2.154-5.7786-7.096-11.172-14.699-15.6666-21.414-12.5847-56.26-12.5847-77.801 0-7.223 4.2377-12.038 9.2459-14.319 14.6396h-1.774v7.191c-.38 8.604 4.942 17.208 16.093 23.757 21.414 12.585 56.26 12.585 77.801 0 10.771-6.292 16.093-14.511 16.093-22.73z" fill="#ff7d3a"/><path d="m261.9 104.821c-.128-.254-.128-.381-.255-.634v-4.5656h-2.928v-.3804c-.764-1.0146-1.528-1.9023-2.42-2.9168v3.1704h-1.655v-4.8191c-.764-.634-1.655-1.395-2.419-2.029v6.8481h-1.655v-7.9895c-.764-.5073-1.655-1.1413-2.419-1.6486v9.6381h-1.655v-10.6527c-.764-.5072-1.656-.8877-2.547-1.2681v11.9208h-1.655v-12.6817c-.764-.3805-1.655-.7609-2.546-1.0146v13.6963h-1.656v-11.1599h-2.546v11.1599h-1.655v-8.1163h-2.547v8.1163h-1.655v-5.0727h-2.546v5.0727h-1.655v-2.0291h-2.547v2.0291h-30.43v-2.0291h-2.546v2.0291h-1.655v-5.0727h-2.547v5.0727h-1.273v-8.1163h-2.546v8.1163h-1.656v-11.1599h-2.546v11.1599h-1.655v-13.6963c-.891.3805-1.655.7609-2.547 1.0146v12.6817h-1.655v-11.9208c-.891.3804-1.655.8877-2.546 1.2681v10.6527h-1.401v-9.6381c-.891.5073-1.655 1.0145-2.419 1.6486v8.1163h-1.655v-6.8481c-.891.6341-1.655 1.395-2.419 2.0291v4.819h-1.655v-3.2972c-.892.8877-1.783 1.9022-2.419 2.9168v.3804h-2.929v4.3116h-1.273v11.794c.382 2.156 1.273 4.185 2.419 6.214v-7.355h1.655v9.892c.764 1.014 1.528 1.902 2.419 2.916v-12.808h1.656v14.33c.764.634 1.655 1.395 2.419 2.029v-16.359h1.655v17.627c.764.508 1.655 1.142 2.419 1.649v-19.149h1.655v20.164c.764.507 1.655.887 2.547 1.268v-21.432h1.655v22.066c.764.38 1.655.761 2.546 1.014v-23.334h1.655v23.968c.764.254 1.656.635 2.547.888v-24.856h1.655v25.363c.764.254 1.655.508 2.546.761v-25.997h1.656v26.505c.891.253 1.655.38 2.546.634v-27.012h1.655v27.392c.891.127 1.655.254 2.547.507v-27.773h1.655v28.027c.891.127 1.655.254 2.546.38v-28.407h1.528v28.281c.891.126 1.655.126 2.547.253v-28.787h1.527v28.914c.892 0 1.656.127 2.547.127v-29.041h1.528v29.041h2.546v-29.041h1.528v29.041c.891 0 1.655 0 2.546-.127v-28.914h1.528v28.787c.891 0 1.655-.127 2.547-.253v-28.534h1.528v28.407c.891-.127 1.655-.254 2.546-.381v-28.026h1.655v27.773c.891-.127 1.655-.254 2.547-.508v-27.392h1.655v27.012c.891-.127 1.655-.38 2.546-.634v-26.505h1.655v26.251c.892-.253 1.656-.507 2.547-.761v-25.363h1.655v24.856c.891-.253 1.655-.634 2.546-.888v-23.968h1.656v23.208c.891-.381 1.655-.761 2.546-1.015v-22.193h1.655v21.432c.891-.38 1.655-.888 2.547-1.268v-20.164h1.655v19.149c.891-.507 1.655-1.014 2.419-1.648v-17.628h1.655v16.36c.891-.634 1.655-1.395 2.419-2.029v-14.331h1.655v12.682c.892-.888 1.783-1.902 2.42-2.917v-9.892h1.655v7.356c1.146-2.029 2.037-4.185 2.419-6.341v-10.78z" fill="url(#af)" opacity=".48"/><path d="m208.17 136.323c30.377 0 55.003-14.218 55.003-31.758 0-17.5397-24.626-31.7584-55.003-31.7584s-55.003 14.2187-55.003 31.7584c0 17.54 24.626 31.758 55.003 31.758z" fill="url(#ag)"/><path d="m174.097 86.8861c19.092-11.1528 50.019-11.1528 69.11 0 9.164 5.256 13.873 12.1784 14.255 19.1009.382-7.5635-4.327-15.2551-14.255-21.0238-19.091-11.1528-50.018-11.1528-69.11 0-9.927 5.7687-14.764 13.4603-14.254 21.0238.381-6.9225 5.091-13.7167 14.254-19.1009z" fill="#a24011"/><path d="m210.692 90.106v3.6882l18.193 10.4288v-3.561z" fill="#f16822"/><path d="m228.884 100.662v3.561l6.489-3.688-.128-3.6883z" fill="#f16822"/><g fill="#fff"><path d="m233.21 103.205v3.689l4.453-2.671v-3.688z"/><path d="m229.012 105.622v3.688l4.199-2.416v-3.688z"/><path d="m228.503 105.876v3.689l.509-.255v-3.688z"/><path d="m217.052 99.2627.127 3.6883 11.323 6.613v-3.688z"/></g><path d="m210.565 106.385v3.688l.128-16.2788v-3.6882z" fill="#f16822"/><path d="m182.574 106.385v3.689h27.989v-3.689z" fill="#f16822"/><path d="m217.052 106.385v3.688l.127-7.122-.127-3.6883z" fill="#fff"/><path d="m198.351 110.073v3.689h12.213v-3.689z" fill="#fff"/><path d="m210.565 110.073v3.689h6.489v-3.689z" fill="#fff"/><path d="m198.351 110.073v3.688l11.45 6.614-.127-3.688z" fill="#f16822"/><path d="m194.152 120.629v3.689l6.489-3.816v-3.688z" fill="#f16822"/><path d="m182.574 106.385v3.689l18.066 10.428v-3.688z" fill="#fff"/><path d="m207.383 118.086v3.688l2.418-1.399-.128-3.688z" fill="#fff"/><path d="m204.965 119.485.127 3.561 2.29-1.272v-3.688z" fill="#fff"/><path d="m186.391 92.2679c-11.959 6.8678-12.086 18.1871-.127 25.0551.127 0 .127.127.254.127.128.127.255.127.255.127.127.127.254.127.254.127 2.163 1.145 4.58 2.162 7.125 2.925l6.488-3.688-18.066-10.556h28.117l.127-16.2792 18.066 10.5562 6.488-3.6884c-1.272-1.399-2.926-2.798-4.834-4.0698-.128-.1272-.128-.1271-.255-.1271-.127-.1272-.254-.1272-.254-.1272-.127-.1272-.255-.1272-.382-.1272-11.959-7.1222-31.297-7.1222-43.256-.2544z" fill="#f16822"/><path d="m182.574 106.385 18.066 10.556-6.488 3.689c2.035.635 4.198 1.017 6.488 1.398l4.453-2.543 2.29-1.399 2.29-1.399-11.45-6.614h12.213 6.489v-3.688-7.122l11.45 6.613.509-.254 4.198-2.416 4.453-2.544c-.509-1.2718-1.272-2.5436-2.29-3.6882l-6.489 3.6882-18.065-10.556-.128 16.279z" fill="#fff"/><path d="m200.639 122.028v3.689l4.453-2.671-.127-3.561z" fill="#fff"/><path d="m194.152 120.63v3.688c-2.545-.763-4.835-1.653-7.125-2.925 0 0-.127-.127-.254-.127 0 0-.127 0-.254-.128-.128 0-.128-.127-.255-.127-5.852-3.434-8.906-7.885-8.906-12.464v-3.688c0 4.451 2.927 9.03 8.906 12.464.127 0 .127.127.255.127.127.127.254.127.254.127.127.127.254.127.254.127 2.29 1.272 4.58 2.163 7.125 2.926zm0 3.688c2.036.636 4.198 1.017 6.488 1.399v-3.688c-2.162-.255-4.325-.763-6.488-1.399zm44.401-19.586c0 4.578-3.053 9.157-9.033 12.591-7.888 4.578-18.829 6.105-28.88 4.706v3.688c10.051 1.399 20.992-.127 28.88-4.706 5.98-3.434 9.033-8.012 9.033-12.591z" fill="#d84b0e"/><path d="m198.351 110.073 11.45 6.614-2.29 1.399-2.29 1.399-4.453 2.543c10.051 1.399 20.992-.127 28.88-4.706 7.888-4.578 10.559-10.937 8.142-16.66l-4.453 2.543-4.198 2.417-.636.254-11.451-6.6133v7.1223 3.688h-6.488z" fill="#f16822"/></svg>