<svg fill="none" height="207" viewBox="0 0 358 207" width="358" xmlns="http://www.w3.org/2000/svg" xmlns:xlink="http://www.w3.org/1999/xlink"><linearGradient id="a"><stop offset="0" stop-color="#f17922"/><stop offset="1" stop-color="#d74608"/></linearGradient><linearGradient id="b" gradientUnits="userSpaceOnUse" x1="115.404" x2="242.552" xlink:href="#a" y1="49.2988" y2="97.1662"/><linearGradient id="c" gradientUnits="userSpaceOnUse" x1="255.458" x2="134.784" xlink:href="#a" y1="36.9742" y2="-3.77929"/><linearGradient id="d"><stop offset="0" stop-color="#fff"/><stop offset="1" stop-color="#b9b9b9"/></linearGradient><linearGradient id="e" gradientUnits="userSpaceOnUse" x1="280.712" x2="320.604" xlink:href="#d" y1="90.1944" y2="90.6835"/><linearGradient id="f" gradientUnits="userSpaceOnUse" x1="328.285" x2="235.47" xlink:href="#a" y1="115.964" y2="91.4791"/><linearGradient id="g" gradientUnits="userSpaceOnUse" x1="216.237" x2="282.447" xlink:href="#a" y1="59.1097" y2="140.667"/><linearGradient id="h" gradientUnits="userSpaceOnUse" x1="47.6178" x2="153.082" xlink:href="#d" y1="71.1471" y2="63.4017"/><linearGradient id="i" gradientUnits="userSpaceOnUse" x1="177.588" x2="65.6758" y1="94.116" y2="149.107"><stop offset=".0209121" stop-color="#fff"/><stop offset="1" stop-color="#b9b9b9"/></linearGradient><linearGradient id="j" gradientUnits="userSpaceOnUse" x1="154.619" x2="241.079" xlink:href="#d" y1="133.891" y2="112.434"/><linearGradient id="k" gradientUnits="userSpaceOnUse" x1="254.236" x2="177.128" xlink:href="#d" y1="128.073" y2="207.168"/><linearGradient id="l" gradientUnits="userSpaceOnUse" x1="9.51553" x2="41.5984" xlink:href="#a" y1="22.9047" y2="41.0661"/><linearGradient id="m" gradientUnits="userSpaceOnUse" x1="8.46577" x2="39.204" xlink:href="#a" y1="24.3741" y2="41.4325"/><linearGradient id="n" gradientUnits="userSpaceOnUse" x1="360.666" x2="348.807" xlink:href="#d" y1="195.711" y2="177"/><linearGradient id="o" gradientUnits="userSpaceOnUse" x1="39.7753" x2="21.6675" xlink:href="#a" y1="194.395" y2="195.481"/><linearGradient id="p" gradientUnits="userSpaceOnUse" x1="320.443" x2="345.584" xlink:href="#d" y1="17.3667" y2="65.2458"/><linearGradient id="q" gradientUnits="userSpaceOnUse" x1="316.521" x2="339.368" xlink:href="#d" y1="17.9269" y2="66.4309"/><linearGradient id="r" gradientUnits="userSpaceOnUse" x1="312.25" x2="286.483" xlink:href="#d" y1="62.0655" y2="71.6248"/><linearGradient id="s"><stop offset="0" stop-color="#d5d5d5"/><stop offset="1" stop-color="#6b6b6b"/></linearGradient><linearGradient id="t" gradientUnits="userSpaceOnUse" x1="292.775" x2="281.468" xlink:href="#s" y1="94.5371" y2="141.471"/><linearGradient id="u" gradientUnits="userSpaceOnUse" x1="308.335" x2="299.233" xlink:href="#s" y1="87.5547" y2="132.255"/><linearGradient id="v" gradientUnits="userSpaceOnUse" x1="305.144" x2="292.579" xlink:href="#d" y1="64.3189" y2="65.8463"/><linearGradient id="w" gradientUnits="userSpaceOnUse" x1="293.695" x2="272.526" xlink:href="#d" y1="69.122" y2="73.4971"/><linearGradient id="x" gradientUnits="userSpaceOnUse" x1="294.638" x2="268.02" xlink:href="#d" y1="71.8481" y2="82.2185"/><linearGradient id="y" gradientUnits="userSpaceOnUse" x1="83.116" x2="57.0577" xlink:href="#a" y1="55.0019" y2="67.5913"/><linearGradient id="z" gradientUnits="userSpaceOnUse" x1="79.2032" x2="90.5107" xlink:href="#s" y1="94.5371" y2="141.471"/><linearGradient id="A" gradientUnits="userSpaceOnUse" x1="63.6439" x2="72.7458" xlink:href="#s" y1="87.5547" y2="132.255"/><linearGradient id="B" gradientUnits="userSpaceOnUse" x1="77.0076" x2="63.3683" xlink:href="#a" y1="54.9414" y2="57.1006"/><linearGradient id="C" gradientUnits="userSpaceOnUse" x1="95.8938" x2="73.3272" xlink:href="#a" y1="59.5747" y2="65.6486"/><linearGradient id="D" gradientUnits="userSpaceOnUse" x1="101.801" x2="75.0676" xlink:href="#a" y1="64.8133" y2="78.377"/><path d="m243.581 42.7163-46.385-26.7782c-5.266-3.0252-13.782-3.0252-19.048 0l-48.626 28.1227-13.894-5.6021v13.6692l22.521 12.997v9.0755c-.112 1.6806 1.008 3.3613 3.137 4.5938 4.258 2.4649 11.093 2.4649 15.35 0 .896-.5603 1.681-1.1205 2.129-1.7927l28.795 16.5823 29.355-16.9185v-12.1006c3.586-.5602 7.619 0 10.42 1.6806 1.457.7844 2.353 1.7927 2.801 2.8011l29.356-16.9185v-13.6692z" fill="url(#b)"/><path d="m217.027 62.9961c-1.792-.224-3.473-.7843-4.93-1.6806-4.257-2.4649-4.257-6.3864 0-8.8514 4.258-2.4649 11.093-2.4649 15.35 0 1.457.7843 2.353 1.7927 2.801 2.8011l29.356-16.9185-62.408-36.07783c-5.266-3.02516-13.782-3.02516-19.048 0l-62.52 36.07783 28.795 16.5824c-1.12.3361-2.128.6722-3.025 1.2324-4.257 2.465-4.257 6.3865 0 8.8514 4.258 2.465 11.093 2.465 15.35 0 .897-.5602 1.681-1.1204 2.129-1.7927l28.795 16.5824z" fill="url(#c)"/><path d="m234.505 100.306v24.314c.112-1.457 1.233-2.913 3.138-4.034 4.257-2.465 11.092-2.465 15.349 0 .897.56 1.569 1.121 2.129 1.793 2.241-.672 4.594-1.121 7.059-1.233v-20.84z" fill="#173d7a"/><path d="m276.297 65.573-.224.112v82.912l.224.112 62.52-36.078c2.689-1.569 4.034-3.585 3.922-5.602v-13.4453l-10.532 4.2577z" fill="url(#e)"/><path clip-rule="evenodd" d="m276.297 65.573 55.91 32.2684 10.644-4.2577v13.4453c.112 2.017-1.233 4.033-3.922 5.602l-62.52 36.078-30.251-17.479v-12.549c-3.025-.112-6.051.449-8.403 1.793-1.905 1.12-3.026 2.577-3.138 4.034l-30.251-17.479v-13.6693l14.565 5.266 14.79-8.5153c-1.793-.3361-3.473-.8963-4.93-1.6806-2.129-1.2325-3.137-2.8011-3.137-4.4818v-13.6692s8.627 2.4649 8.963 2.577c.224.112 3.474 3.9215 4.37 5.154 1.905.2241 3.697.7843 5.154 1.6806 1.344.7843 2.353 1.7927 2.801 2.8011z" fill="url(#f)" fill-rule="evenodd"/><path d="m338.817 87.9816-62.52-36.0778-29.355 16.9185c-.448-1.0084-1.457-2.0168-2.801-2.8011-4.258-2.4649-11.092-2.4649-15.35 0-4.258 2.465-4.258 6.3865 0 8.8514 1.457.7843 3.137 1.3445 4.93 1.6807l-29.355 16.9184 30.251 17.4783c.112-1.456 1.233-2.913 3.138-4.033 4.257-2.465 11.092-2.465 15.349 0 4.258 2.465 4.258 6.386 0 8.851-1.904 1.121-4.481 1.681-6.946 1.793l30.251 17.479 62.52-36.0782c5.154-3.0251 5.154-7.955-.112-10.9802z" fill="url(#g)"/><path clip-rule="evenodd" d="m170.753 93.4717v13.6693l-21.288 12.325v10.532c.112 1.68-.897 3.361-3.137 4.593-4.258 2.465-11.093 2.465-15.35 0-1.345-.784-2.353-1.792-2.801-2.801l-29.3556 16.919-62.52-36.078c-2.577-1.569-3.9215-3.473-3.9215-5.49v-13.6693l11.2043 4.0335 55.2372-31.9322 17.3666 10.0839 1.008-7.0587h10.42v16.9184l-3.361-1.9047c-4.033 2.465-3.921 6.3865.224 8.7394 4.258 2.4649 11.092 2.4649 15.35 0 .896-.5603 1.569-1.1205 2.129-1.7927l14.453 8.2912z" fill="url(#h)" fill-rule="evenodd"/><path d="m146.328 112.071c-1.345-.784-3.025-1.345-4.818-1.569l29.355-16.9182-28.795-16.5823c-.56.6722-1.232 1.2324-2.129 1.7927-4.257 2.4649-11.092 2.4649-15.35 0-4.257-2.465-4.257-6.3865 0-8.8514.897-.5603 2.017-.8964 3.026-1.2325l-28.7955-16.5824-62.5199 35.8538c-5.2661 3.0251-5.2661 7.955 0 10.9802l62.5199 36.0781 29.3555-16.919c.448 1.009 1.456 2.017 2.801 2.801 4.257 2.465 11.092 2.465 15.35 0 4.145-2.465 4.145-6.386 0-8.851z" fill="url(#i)"/><path d="m245.598 154.423-16.246-9.299c2.577-.112 5.042-.673 6.947-1.793 1.793-1.008 2.801-2.353 3.137-3.697l.112.112v-.785s0 0 0-.112v-13.669l-13.669 5.378 3.137 2.129c-2.913 0-5.826.56-7.955 1.793-1.905 1.12-3.025 2.577-3.137 4.033l-30.252-17.479-17.815 10.308-1.792-6.162-9.748-.784v15.126l3.025-.785c.672.224 1.233.56 1.905.897 4.258 2.465 4.258 6.386 0 8.851s-11.092 2.465-15.35 0c-1.344-.784-2.353-1.793-2.801-2.801l-16.246 9.411-13.109-6.05v13.669l62.52 36.078c5.266 3.025 13.781 3.025 19.047 0l62.52-36.078v-13.669z" fill="url(#j)"/><path d="m229.464 131.454c2.577-.112 5.042-.672 6.947-1.792 4.257-2.465 4.257-6.387 0-8.852-4.258-2.465-11.093-2.465-15.35 0-1.905 1.121-3.025 2.577-3.137 4.034l-30.252-17.479-29.355 16.919c1.792.224 3.473.784 4.818 1.568 4.257 2.465 4.257 6.387 0 8.852-4.258 2.465-11.093 2.465-15.35 0-1.345-.785-2.353-1.793-2.801-2.801l-29.356 16.918 62.52 36.078c5.266 3.025 13.782 3.025 19.048 0l62.52-36.078z" fill="url(#k)"/><path d="m39.3266 35.6577-28.5709-16.4703c-.5602-.3361-1.12045-.3361-1.45658-.112l-2.80107 1.5686s1.23247.4481 1.90473.6722v20.84c0 1.6807 1.00838 3.6974 2.35292 4.3697l27.3385 15.9101v2.4649l2.801-1.5686c.4482-.3361.7843-.8963.7843-1.7927v-21.2881c0-1.9047-1.0083-3.8095-2.3529-4.5938z" fill="url(#l)"/><path d="m36.5259 64.7888-28.57095-16.5823c-1.23247-.7843-2.3529-2.689-2.3529-4.3697v-21.2882c0-1.6806 1.00839-2.4649 2.3529-1.7926l28.68295 16.5823c1.2325.7843 2.3529 2.689 2.3529 4.3697v21.2882c-.112 1.6806-1.1204 2.4649-2.4649 1.7926z" fill="url(#m)"/><g fill="#fff"><path d="m36.5262 37.3384-28.57092-16.5824c-.67225-.4482-1.34451-.3361-1.79268.1121.33613 0 .67226 0 1.00838.224l28.68302 16.5824c1.2325.7843 2.3529 2.689 2.3529 4.3697v21.2881c0 .7843-.2241 1.2325-.5602 1.5686.7843-.112 1.2324-.7843 1.2324-2.0167v-21.2882c0-1.5686-1.0083-3.5854-2.3529-4.2576z"/><path d="m17.5907 40.9237c0 1.2325-.8963 1.6807-1.9047 1.1205-1.1204-.5603-1.9048-2.1289-1.9048-3.3613 0-1.2325.8964-1.6807 1.9048-1.1205 1.0084.5603 1.9047 2.1289 1.9047 3.3613z"/><path d="m23.4169 44.2851c0 1.2324-.8964 1.6806-1.9047 1.1204-1.1205-.5602-1.9048-2.1288-1.9048-3.3613s.8964-1.6806 1.9048-1.1204c1.0083.5602 1.9047 2.1288 1.9047 3.3613z"/><path d="m29.2431 47.6464c0 1.2325-.8964 1.6806-1.9048 1.1204-1.1204-.5602-1.9047-2.1288-1.9047-3.3613 0-1.2324.8963-1.6806 1.9047-1.1204 1.0084.6723 1.9048 2.1288 1.9048 3.3613z"/></g><path d="m357.753 193.61-19.272 11.205v-22.297l19.272-11.092z" fill="url(#n)"/><path d="m338.482 182.518-19.383-11.092 19.383-11.205 19.271 11.205z" fill="#8e8e8e"/><path d="m338.482 204.815-19.384-11.205v-22.184l19.384 11.092z" fill="#efefef"/><path d="m331.423 192.714-5.378-3.025v-6.275l5.378 3.138z" fill="#8e8e8e"/><path d="m40.1113 194.423-20.0556 11.652v-23.193l20.0556-11.652z" fill="url(#o)"/><path d="m20.0557 182.882-20.0557-11.652 20.0557-11.653 20.0557 11.653z" fill="#d84b0e"/><path d="m20.0557 206.075-20.0557-11.652v-23.193l20.0557 11.652z" fill="#f16822"/><path d="m12.7726 193.526-5.60219-3.249v-6.499l5.60219 3.25z" fill="#fff"/><path d="m350.695 35.3216-28.011-16.1342c-.56-.3361-1.008-.3361-1.456-.112l-2.689 1.5686s1.232.4481 1.904.6722v20.3918c0 1.6807 1.009 3.5854 2.241 4.2577l26.778 15.4619v2.3529l2.689-1.5686c.449-.3361.785-.8963.785-1.7927v-20.84c0-1.6806-1.009-3.5854-2.241-4.2576z" fill="url(#p)"/><path d="m348.006 63.7805-28.011-16.1342c-1.233-.6722-2.241-2.689-2.241-4.2576v-20.84c0-1.6806 1.008-2.4649 2.241-1.6806l28.011 16.1342c1.232.6722 2.24 2.689 2.24 4.2576v20.84c0 1.5686-1.008 2.3529-2.24 1.6806z" fill="url(#q)"/><path d="m348.678 36.442-28.011-16.1342c-.784-.4482-1.457-.3361-1.905.2241.336-.1121.785 0 1.233.2241l28.01 16.1342c1.233.6722 2.241 2.689 2.241 4.2576v20.84c0 .5602-.112 1.1204-.336 1.4565.672-.112 1.009-.8963 1.009-1.9047v-20.84c0-1.6806-1.009-3.5854-2.241-4.2576z" fill="#4d4d4d"/><path d="m329.406 40.3634c0 1.2325-.896 1.6807-1.905 1.1205-1.008-.5602-1.904-2.0168-1.904-3.2493 0-1.2324.896-1.6806 1.904-1.1204 1.009.5602 1.905 2.0168 1.905 3.2492z" fill="#4d4d4d"/><path d="m335.12 43.7248c0 1.2324-.896 1.6806-1.904 1.1204-1.009-.5602-1.905-2.0168-1.905-3.2492 0-1.2325.896-1.6807 1.905-1.1205 1.008.5602 1.904 2.0168 1.904 3.2493z" fill="#4d4d4d"/><path d="m340.835 46.974c0 1.2325-.896 1.6807-1.905 1.1205-1.008-.5603-1.905-2.0168-1.905-3.2493s.897-1.6806 1.905-1.1204c1.009.5602 1.905 2.0168 1.905 3.2492z" fill="#4d4d4d"/><path d="m312.638 84.4275c-.314-.3136-9.724-5.4891-13.959-8.7826l5.176-10.6647c.314-.3136.941-1.4115.941-1.4115.157-.4705.314-.7841.314-1.4115.47-3.4503-1.412-7.8416-4.078-9.8804-2.509-1.882-4.705-.1569-5.646 1.5683 0 0-8.783 21.1724-8.783 22.1134-.157 1.4115.314 2.823 1.098 3.9209.157.1568 1.098.941 1.412 1.2546 4.234 2.9799 14.271 8.7827 17.408 10.6647.157.1568.471.3136.784.4705h.157c.471.1568 1.098 0 1.725-.1569 2.039-.7841 3.921-3.1366 4.078-5.3323 0-1.2546-.157-1.882-.627-2.3525z" fill="url(#r)"/><path d="m321.106 90.7008-5.019-3.6072c-.157-.1568-.313-.3137-.627-.3137 0 0-3.45-1.5683-4.078-1.4115-.157 0-.157 0-.313 0-.157 0-.157 0-.314.1569-1.568.6273-2.98 2.5093-3.137 4.0776-.157 1.0979.471 1.5684.941 2.0389l3.764 2.1956c.314.1569.471.3137.784.3137l5.96 1.0978c.627.1569 1.255 0 1.882-.4705 1.568-1.0978 1.568-3.1366.157-4.0776z" fill="#ffd4c0"/><path d="m293.504 116.735c11.346 0 20.545-5.617 20.545-12.547 0-6.9288-9.199-12.5462-20.545-12.5462-11.347 0-20.546 5.6174-20.546 12.5462 0 6.93 9.199 12.547 20.546 12.547z" fill="#c44812"/><path d="m309.814 155.316-6.587-7.685c-.784-.941-2.038-1.098-3.136-.47l-2.98 1.725h-.157v4.862c0 .784.314 1.568 1.098 2.039l5.646 4.077c1.255.784 2.823.941 4.078.314l1.411-.784c.784-.471 1.255-1.255 1.255-2.196s-.314-1.411-.628-1.882z" fill="#f16822"/><path d="m330.047 145.279-7.215-8.469c-.47-.628-1.411-.941-2.195-.628l-3.764 1.098h-.157l-.941 4.548c-.157.785.157 1.726.784 2.196l6.901 4.862c.941.627 2.195.941 3.293.47l2.196-.627c.784-.157 1.254-.784 1.411-1.568.314-.784.157-1.412-.313-1.882z" fill="#f16822"/><path d="m309.03 157.982-1.411.784c-1.255.785-2.823.628-4.078-.313l-5.646-5.489c-.627-.471-1.098-1.255-1.098-2.039v2.509c0 .784.314 1.568 1.098 2.039l5.646 4.078c1.255.784 2.823.941 4.078.313l1.411-.784c.784-.47 1.255-1.255 1.255-2.196 0-.156 0-.313-.157-.47 0 .627-.47 1.255-1.098 1.568z" fill="#d84b0e"/><path d="m329.106 147.631-2.196.628c-1.098.313-2.353.156-3.294-.471l-6.9-6.587c-.314-.157-.471-.47-.628-.627l-.313 1.254c-.157.785.157 1.726.784 2.196l6.901 4.862c.941.627 2.195.941 3.293.47l2.196-.627c.784-.157 1.254-.784 1.411-1.568 0-.314 0-.628 0-.941 0 .627-.627 1.254-1.254 1.411z" fill="#d84b0e"/><path d="m307.462 114.54-18.036-15.2132c-1.882-2.1957-5.018-3.2935-8.469-2.1957-3.293 1.0979-5.332 4.0779-5.175 7.5279 0 3.294 1.882 5.489 5.019 7.058l15.683 8.312c.784.47 1.254 1.254 1.254 2.195l-1.725 27.76c0 1.882 2.666 3.45 5.803 3.45 3.294 0 5.803-1.568 5.803-3.45l1.882-30.896c.157-1.882-.627-3.451-2.039-4.548z" fill="url(#t)"/><path d="m326.752 111.717c0-1.882-.941-3.608-2.352-4.705l-21.329-14.8995c-1.726-1.882-4.392-2.9799-7.372-2.3525-3.136.6273-5.489 3.1366-6.116 6.2733-.627 3.764 1.568 7.2147 4.705 8.4687l19.447 8.312c.784.314 1.412 1.098 1.412 2.039l.156 24.466c0 1.882 2.667 3.45 5.803 3.45 3.294 0 5.803-1.568 5.803-3.45z" fill="url(#u)"/><path d="m305.266 58.8638c.157-4.2345-3.136-7.9985-7.371-8.1553-1.098 0-3.764.6273-4.234.6273-5.49 1.2547-10.508 4.2345-13.174 6.9007l-.157.1568c-2.039 1.2547-3.451 3.6072-3.607 6.1165l-1.569 34.3464c-.157 4.7048 6.117 8.9398 14.272 9.2528 8.155.471 13.331-2.352 13.644-7.057 0 0 2.039-38.581 2.196-42.1882z" fill="#4d4d4d"/><path d="m305.581 58.707c.157-4.5481-3.294-8.3121-7.685-8.469-1.098 0-2.196.1569-2.666.3137-.314.1568-.784.1568-1.255.3137 2.509.6273 4.235 2.1956 4.235 3.9208 0 0-1.569 13.8013-1.882 21.9566-.314 6.7438-.628 20.3883-1.098 27.7592 5.959-.941 7.841-1.882 8.155-5.8026 0 0 2.039-36.2284 2.196-39.9924z" fill="url(#v)"/><path d="m294.445 78.3111c.314-5.3324-4.705-18.5063-7.841-21.4861 0 0-1.255-1.2547-1.412-2.0389-2.195 1.2547-3.921 2.5094-5.018 3.6072l-.157.1568c-2.039 1.4115-3.607 3.764-3.764 6.4302l-1.882 37.0127c-.157 2.509 1.568 4.862 4.234 6.587s14.115 4.391 14.742-8.7828c.471-9.2532.941-17.4085 1.098-21.4861z" fill="url(#w)"/><path d="m276.253 64.9802-1.882 37.0128c-.157 2.509 1.568 4.862 4.234 6.587 1.255.784 4.235 1.725 7.371 1.411-1.882-1.568-2.509-3.136-2.509-5.175l3.137-33.5625z" fill="#999"/><path d="m283.623 42.3965c-.941 7.3711 2.666 9.41 7.371 10.3509 5.49 1.0979 9.41-.4705 9.724-8.3121.314-7.6848-2.666-9.7236-7.371-10.351-4.705-.4705-8.783.7842-9.724 8.3122z" fill="#ffd4c0"/><path d="m297.895 48.8264c.157-1.7251-2.353-3.4503-5.333-3.6071-3.136-.1568-5.646 1.0978-5.802 2.823l-.471 6.7438c-.157 1.882 2.196 3.4503 5.332 3.6072 3.137.1568 5.646-1.0979 5.803-2.823 0-.1569.471-6.7439.471-6.7439z" fill="#ffd4c0"/><path d="m290.053 41.769c-5.489 3.1367-3.293 9.8805-4.705 8.6259-2.352-2.0389-3.607-5.4892-3.293-8.7827.627-5.3323 5.489-9.0963 10.978-8.469 7.528.941 6.587 4.5482 11.135 7.0575-2.823 5.3323-8.939-1.5683-14.115 1.5683z" fill="#4d4d4d"/><path d="m303.541 116.578 24.623-14.115c.47-.313.627-.627.627-.941v-1.254c0-.4707-.314.313-.941 0l-13.958-7.9987c-1.098-.6273-2.823-.7841-3.764-.1568l-24.623 14.1145c-.313.157-.627-.627-.627-.313v1.254c0 .471.314.941.941 1.255l13.958 7.999c1.098.627 2.823.627 3.764.156z" fill="#171717"/><path d="m303.542 115.324 24.623-14.115c.941-.628.784-1.5685-.314-2.1958l-13.958-7.9985c-1.098-.6273-2.823-.7842-3.764-.1568l-24.623 14.1151c-.941.627-.784 1.568.314 2.195l13.958 7.999c1.098.627 2.823.784 3.764.157z" fill="#717171"/><path d="m301.972 115.324c.628 0 1.098-.157 1.412-.314l24.623-14.115c.156-.157.47-.313.47-.47 0-.314-.314-.6276-.627-.7844l-13.958-7.9985c-.471-.3136-1.255-.4705-1.882-.4705-.628 0-1.098.1569-1.412.3137l-24.623 14.1147c-.156.157-.47.314-.47.471 0 .313.314.627.627.784l13.958 7.998c.471.157 1.255.471 1.882.471z" fill="#4d4d4d"/><path d="m302.443 112.03 19.918-11.605c.47-.157.313-.6276-.157-.9412l-7.528-4.3914c-.471-.3136-1.098-.3136-1.568 0l-19.918 11.6056c-.471.157-.314.627.157.941l7.528 4.391c.47.157 1.097.157 1.568 0z" fill="#868686"/><path d="m314.363 95.7197c-.157-.1569-.471-.1569-.628 0l-1.254.7841c-.157.1569-.157.3137 0 .3137.157.1568.47.1568.627 0l1.255-.7842c.157 0 .157-.1568 0-.3136zm-2.196 1.2546c-.157-.1568-.47-.1568-.627 0l-.628.3137c-.156.1568-.156.3137 0 .3137.157.1568.471.1568.628 0l.627-.3137c.157 0 .157-.1568 0-.3137zm-1.568.941c-.157-.1568-.471-.1568-.628 0l-.627.3137c-.157.1568-.157.3137 0 .3137.157.1568.471.1568.627 0l.628-.3137c.157-.1568.157-.1568 0-.3137zm-1.569.941c-.156-.1568-.47-.1568-.627 0l-.627.3137c-.157.1568-.157.3137 0 .3137.157.1568.47.1568.627 0l.627-.3137c.157-.1568.157-.3137 0-.3137zm-1.411.7842c-.157-.1568-.471-.1568-.627 0l-.628.3137c-.157.1568-.157.3138 0 .3138.157.157.471.157.628 0l.627-.3138c.157 0 .157-.1569 0-.3137zm-1.568.9405c-.157-.156-.471-.156-.628 0l-.627.314c-.157.157-.157.314 0 .314.157.157.47.157.627 0l.628-.314c.156-.157.156-.314 0-.314zm-1.569.785c-.157-.157-.47-.157-.627 0l-.627.313c-.157.157-.157.314 0 .314.156.157.47.157.627 0l.627-.314c.157 0 .157-.157 0-.313zm-1.411.941c-.157-.157-.471-.157-.628 0l-.627.313c-.157.157-.157.314 0 .314.157.157.471.157.627 0l.628-.314c.157-.157.157-.313 0-.313zm-1.569.784c-.156-.157-.47-.157-.627 0l-.627.47c-.157.157-.157.314 0 .314.157.157.47.157.627 0l.627-.314c.157-.157.157-.313 0-.47zm-1.568.941c-.157-.157-.47-.157-.627 0l-.628.313c-.156.157-.156.314 0 .314.157.157.471.157.628 0l.627-.314c.157 0 .157-.156 0-.313zm-1.411.941c-.157-.157-.471-.157-.628 0l-.627.313c-.157.157-.157.314 0 .314.157.157.47.157.627 0l.628-.314c.156-.156.156-.313 0-.313zm-1.569.784c-.157-.157-.47-.157-.627 0l-.627.314c-.157.156-.157.313 0 .313.156.157.47.157.627 0l.627-.313c.157 0 .157-.157 0-.314zm-1.568.941c-.157-.157-.471-.157-.627 0l-.628.314c-.157.156-.157.313 0 .313.157.157.471.157.628 0l.627-.313c.157-.157.157-.314 0-.314zm20.231-10.1942-.47-.3136c-.157-.1569-.471-.1569-.627 0l-.471.3136c-.157.1569-.157.3137 0 .3137l.471.3137c.156.1568.47.1568.627 0l.47-.3137c.157 0 .157-.1568 0-.3137zm-2.038 1.5684.47-.3137c.157-.1568.157-.3137 0-.3137l-.47-.3136c-.157-.1569-.471-.1569-.628 0l-.47.3136c-.157.1569-.157.3137 0 .3137l.47.3137c.157.1568.471.1568.628 0zm-.941.1568-.471-.3137c-.157-.1568-.47-.1568-.627 0l-.471.3137c-.157.1568-.157.3137 0 .3137l.471.3136c.157.1569.47.1569.627 0l.471-.3136c.156 0 .156-.1569 0-.3137zm-1.569.941-.47-.3137c-.157-.1568-.471-.1568-.628 0l-.47.3137c-.157.1568-.157.3137 0 .3137l.47.3136c.157.1569.471.1569.628 0l.47-.3136c.157 0 .157-.1569 0-.3137zm-3.136 1.255.47.313c.157.157.471.157.627 0l.471-.313c.157-.157.157-.314 0-.314l-.471-.3137c-.156-.1568-.47-.1568-.627 0l-.47.3137c-.314 0-.314.157 0 .314zm-1.569.941.471.313c.157.157.47.157.627 0l.471-.313c.156-.157.156-.314 0-.314l-.471-.314c-.157-.157-.47-.157-.627 0l-.471.314c-.157 0-.157.157 0 .314zm-1.568.784.47.313c.157.157.471.157.628 0l.47-.313c.157-.157.157-.314 0-.314l-.47-.314c-.157-.156-.471-.156-.628 0l-.47.314c-.157 0-.157.314 0 .314zm-1.412.941.471.313c.157.157.47.157.627 0l.471-.313c.157-.157.157-.314 0-.314l-.471-.314c-.157-.156-.47-.156-.627 0l-.471.314c-.313 0-.313.157 0 .314zm-1.568.784.471.314c.156.156.47.156.627 0l.47-.314c.157-.157.157-.314 0-.314l-.47-.313c-.157-.157-.471-.157-.627 0l-.471.313c-.157.157-.157.314 0 .314zm-1.568.941.47.314c.157.156.471.156.628 0l.47-.314c.157-.157.157-.314 0-.314l-.47-.313c-.157-.157-.471-.157-.628 0l-.47.313c-.157 0-.157.157 0 .314zm.313.47-.47-.313c-.157-.157-.471-.157-.627 0l-.471.313c-.157.157-.157.314 0 .314l.471.314c.156.157.47.157.627 0l.47-.314c.157 0 .157-.157 0-.314zm-3.293 1.255.47.314c.157.157.471.157.628 0l.47-.314c.157-.157.157-.314 0-.314l-.47-.313c-.157-.157-.471-.157-.628 0l-.47.313c-.157 0-.157.157 0 .314zm-2.196 1.255.471.313c.157.157.47.157.627 0l1.255-.627c.157-.157.157-.314 0-.314l-.471-.47c-.157-.157-.47-.157-.627 0l-1.255.627c-.157.314-.157.471 0 .471zm21.957-10.508-.471-.3137c-.156-.1568-.47-.1568-.627 0l-1.255.6274c-.156.1568-.156.3136 0 .3136l.471.3137c.157.1568.47.1568.627 0l1.255-.6273c.157 0 .157-.1569 0-.3137zm-2.196 1.4115-.47-.3137c-.157-.1568-.471-.1568-.628 0l-.47.3137c-.157.1568-.157.3137 0 .3137l.47.3136c.157.1569.471.1569.628 0l.47-.3136c.157-.1569.157-.3137 0-.3137zm-1.411 1.2547c.157-.1569.157-.3137 0-.3137l-.471-.3137c-.157-.1568-.47-.1568-.627 0l-.627.1569c-.157.1568-.157.3136 0 .3136l.47.3137c.157.157.471.157.627 0zm-1.569.7838c.157-.157.157-.313 0-.313l-.47-.314c-.157-.1568-.471-.1568-.627 0l-.628.314c-.157.156-.157.313 0 .313l.471.314c.157.157.47.157.627 0zm-2.666.157-.627.314c-.157.157-.157.313 0 .313l.47.314c.157.157.471.157.628 0l.47-.314c.157-.156.157-.313 0-.313l-.47-.314s-.314 0-.471 0zm-1.568.941-.627.314c-.157.157-.157.313 0 .313l.627.314c.157.157.47.157.627 0l.628-.314c.156-.156.156-.313 0-.313l-.628-.314c-.157-.157-.47-.157-.627 0zm-1.412.784-.627.314c-.157.157-.157.314 0 .314l.627.313c.157.157.471.157.628 0l.627-.313c.157-.157.157-.314 0-.314l-.627-.314c-.314 0-.471 0-.628 0zm-1.568.941-.627.314c-.157.157-.157.314 0 .314l.627.313c.157.157.471.157.627 0l.628-.313c.157-.157.157-.314 0-.314l-.628-.314c-.156-.157-.47-.157-.627 0zm-1.568.941-.628.314c-.156.157-.156.314 0 .314l.628.313c.157.157.47.157.627 0l.627-.313c.157-.157.157-.314 0-.314l-.627-.314c-.157-.157-.47-.157-.627 0zm-1.412.784-.627.314c-.157.157-.157.314 0 .314l.627.313c.157.157.471.157.628 0l.627-.313c.157-.157.157-.314 0-.314l-.627-.314c-.314 0-.471 0-.628 0zm-.941 1.882.628-.313c.156-.157.156-.314 0-.314l-.628-.314c-.157-.156-.47-.156-.627 0l-.627.314c-.157.157-.157.314 0 .314l.627.313c.157.157.47.157.627 0zm-1.568.941.627-.313c.157-.157.157-.314 0-.314l-.627-.47c-.157-.157-.471-.157-.627 0l-.628.313c-.157.157-.157.314 0 .314l.628.314c.156.156.47.156.627.156zm-2.666.471.627.314c.157.156.471.156.627 0l.628-.314c.157-.157.157-.314 0-.314l-.784-.313c-.157-.157-.471-.157-.628 0l-.47.313c-.157.157-.157.314 0 .314zm21.956-10.351-.47-.3137c-.157-.1568-.471-.1568-.627 0l-1.882 1.0979c-.157.1568-.157.3136 0 .3136l.627.3137c.157.1568.47.1568.627 0l1.882-1.0978c0-.1569 0-.3137-.157-.3137zm-2.823 1.5683-.627-.3136c-.157-.1569-.47-.1569-.627 0l-.628.3136c-.156.1569-.156.3137 0 .3137l.628.314c.157.156.47.156.627 0l.627-.314c.157 0 .157-.1568 0-.3137zm-1.411.9407-.627-.313c-.157-.157-.471-.157-.628 0l-.627.313c-.157.157-.157.314 0 .314l.627.314c.157.156.471.156.628 0l.627-.314c.157-.157.157-.314 0-.314zm-1.568.784-.628-.313c-.157-.157-.47-.157-.627 0l-.627.313c-.157.157-.157.314 0 .314l.627.314c.157.157.47.157.627 0l.628-.314c.156 0 .156-.157 0-.314zm-2.039 1.569.627-.314c.157-.157.157-.314 0-.314l-.627-.313c-.157-.157-.471-.157-.628 0l-.627.313c-.157.157-.157.314 0 .314l.627.314c.157.157.471.157.628 0zm-1.569.941.628-.314c.157-.157.157-.314 0-.314l-.628-.313c-.156-.157-.47-.157-.627 0l-.627.313c-.157.157-.157.314 0 .314l.627.314c.157.157.471 0 .627 0zm-1.568.784.627-.314c.157-.157.157-.313 0-.313l-.627-.314c-.157-.157-.47-.157-.627 0l-.628.314c-.156.156-.156.313 0 .313l.628.314c.157.157.47.157.627 0zm-1.411.941.627-.314c.157-.157.157-.313 0-.313l-.627-.314c-.157-.157-.471-.157-.628 0l-.627.314c-.157.156-.157.313 0 .313l.627.314c.157.157.471.157.628 0zm-1.569.941.628-.314c.156-.157.156-.313 0-.313l-.628-.314c-.157-.157-.47-.157-.627 0l-.627.314c-.157.156-.157.313 0 .313l.627.314zm-1.568.784.627-.314c.157-.156.157-.313 0-.313l-.627-.314c-.157-.157-.471-.157-.627 0l-.628.314c-.157.157-.157.313 0 .313l.628.314c.156.157.47.157.627 0zm-.941.157-.627-.314c-.157-.157-.471-.157-.628 0l-.627.314c-.157.157-.157.314 0 .314l.627.313c.157.157.471.157.628 0l.627-.313c.157 0 .157-.157 0-.314zm-4.078 1.882.628.314c.156.156.47.156.627 0l1.568-.941c.157-.157.157-.314 0-.314l-.784-.314c-.157-.157-.47-.157-.627 0l-1.569.941c-.156 0-.156.157.157.314zm21.957-10.5078-.471-.3137c-.156-.1568-.47-.1568-.627 0l-2.666 1.5685c-.157.157-.157.313 0 .47l.47.314c.157.157.471.157.628 0l2.666-1.5683c.157-.1569.157-.3137 0-.4705zm-3.607 2.1958-.471-.314c-.157-.157-.47-.157-.627 0l-.471.314c-.156.157-.156.313 0 .47l.471.314c.157.157.47.157.627 0l.471-.314c.157-.313.157-.47 0-.47zm-1.569.784-.47-.314c-.157-.157-.471-.157-.627 0l-.628.314c-.157.157-.157.314 0 .47l.471.314c.157.157.47.157.627 0l.471-.314c.313-.156.313-.313.156-.47zm-1.568.941-.47-.314c-.157-.157-.471-.157-.628 0l-.47.314c-.157.157-.157.314 0 .47l.47.314c.157.157.471.157.628 0l.47-.314c.314-.156.314-.47 0-.47zm-1.411.784-.471-.314c-.157-.156-.47-.156-.627 0l-.471.314c-.157.157-.157.314 0 .471l.471.313c.157.157.47.157.627 0l.471-.313c.156-.157.156-.314 0-.471zm-1.569.941-.47-.314c-.157-.156-.471-.156-.628 0l-.47.314c-.157.157-.157.314 0 .471l.47.313c.157.157.471.157.628 0l.47-.313c.157-.157.157-.314 0-.471zm-1.568.784-.471-.313c-.156-.157-.47-.157-.627 0l-.47.313c-.157.157-.157.314 0 .471l.47.313c.157.157.471.157.627 0l.471-.313c.314-.157.314-.314 0-.471zm-1.412.941-.47-.313c-.157-.157-.471-.157-.627 0l-.628.313c-.157.157-.157.314 0 .471l.471.313c.157.157.47.157.627 0l.471-.313c.313-.157.313-.314.156-.471zm-1.568.941-.47-.313c-.157-.157-.471-.157-.628 0l-.627.313c-.157.157-.157.314 0 .471l.47.313c.157.157.471.157.628 0l.47-.313c.314-.314.314-.471.157-.471zm-1.568.784-.471-.313c-.157-.157-.47-.157-.627 0l-.471.313c-.156.157-.156.314 0 .471l.471.314c.157.156.47.156.627 0l.471-.314c.313-.157.313-.314 0-.471zm-1.412.941-.47-.313c-.157-.157-.471-.157-.628 0l-.47.313c-.157.157-.157.314 0 .471l.47.314c.157.156.471.156.628 0l.47-.314c.157-.157.157-.471 0-.471zm-3.293 1.255.47.314c.157.157.471.157.628 0l.47-.314c.157-.157.157-.314 0-.47l-.47-.314c-.157-.157-.471-.157-.628 0l-.47.314c-.157.156-.157.313 0 .47zm19.604-9.724.47.314c.157.157.471.157.628 0l1.254-.627c.157-.157.157-.3138 0-.4707l-.47-.3136c-.157-.1569-.471-.1569-.627 0l-1.255.6273c-.157.157-.157.314 0 .47zm-1.568.941.47.314c.157.157.471.157.627 0l.471-.314c.157-.156.157-.313 0-.47l-.471-.314c-.156-.157-.47-.157-.627 0l-.47.314c-.157.157-.157.314 0 .47zm-1.412.785.471.313c.156.157.47.157.627 0l.47-.313c.157-.157.157-.314 0-.471l-.47-.314c-.157-.156-.471-.156-.627 0l-.471.471c-.157 0-.157.314 0 .314zm-10.665 6.116.471.314c.157.157.47.157.627 0l9.567-5.489c.157-.157.157-.314 0-.471l-.47-.314c-.157-.156-.471-.156-.628 0l-9.567 5.49c-.156.156-.156.47 0 .47zm-1.568.941.471.314c.156.157.47.157.627 0l.47-.314c.157-.157.157-.314 0-.47l-.47-.314c-.157-.157-.471-.157-.627 0l-.471.314c-.157.156-.157.313 0 .47zm-1.411.784.47.314c.157.157.471.157.627 0l.471-.314c.157-.157.157-.313 0-.47l-.471-.314c-.156-.157-.47-.157-.627 0l-.47.471c-.157.156-.157.313 0 .313zm-1.569.941.471.314c.157.157.47.157.627 0l.471-.314c.156-.157.156-.313 0-.47l-.471-.314c-.157-.157-.47-.157-.627 0l-.471.471c-.157 0-.157.156 0 .313z" fill="#d0d0d0"/><path d="m294.758 93.6807c-.313-.1568-10.351-4.0776-15.055-6.7438l6.116-12.8603c.314-.3137.784-1.5683.784-1.5683.157-.4705.157-.941.157-1.4115 0-3.4504-2.353-7.528-5.332-9.2532-2.666-1.5683-4.705.4705-5.333 2.3525-.156 0-8.312 23.6818-8.312 24.6228 0 1.4115.628 2.823 1.569 3.764.156.1568 1.254.7841 1.568.941 4.705 2.5093 15.369 6.9011 18.663 8.1551.314.157.47.314.941.314h.157c.47 0 1.098-.157 1.568-.471 1.882-1.097 3.45-3.7636 3.45-5.8025-.156-.941-.47-1.5683-.941-2.0388z" fill="url(#x)"/><path d="m305.266 99.4835-6.744-3.6072c-.156-.1568-.47-.1568-.627-.1568 0 0-3.607-1.0978-4.234-.941-.157 0-.157 0-.314.1568-.157 0-.157.1569-.314.1569-1.411.7841-2.509 2.823-2.509 4.3913 0 1.0975.627 1.5685 1.255 1.8815l1.568.628c1.882.784 3.764 1.254 5.803 1.254l3.45.157c.627 0 1.255-.157 1.725-.627 2.039-.157 2.51-2.509.941-3.2935z" fill="#ffd4c0"/><path d="m304.481 115.48 23.682-13.644c.941-.471 1.725-1.8821 1.725-3.1367v-18.6631c0-1.2547-.784-1.7252-1.725-1.2547l-23.682 13.6445c-.941.4705-1.725 1.882-1.725 3.1366v18.5064c0 1.411.784 1.882 1.725 1.411z" fill="#4d4d4d"/><path d="m304.011 92.2692 23.682-13.8013c.314-.1568.627-.3137.941-.1568l.471.3136c-.314-.1568-.628-.1568-1.098.1569l-23.682 13.6444c-.941.4705-1.725 1.882-1.725 3.1367v18.5063c0 .784.313 1.255.784 1.411h-.157l-.47-.313c-.314-.157-.471-.628-.471-1.255v-18.5062c0-1.2546.784-2.6661 1.725-3.1366z" fill="#171717"/><path d="m282.212 40.5144c0 .3137-.157.6273-.157.941-.471 3.4503.941 6.9006 3.293 8.9395.941.7841.157-2.1957 1.569-5.1755-1.882-1.0978-3.451-2.6662-4.705-4.705z" fill="#4d4d4d"/><path d="m59.341 84.4275c.3136-.3136 9.7236-5.4891 13.9581-8.7826l-5.1755-10.6647c-.3137-.3136-.941-1.4115-.941-1.4115-.1568-.4705-.3137-.7841-.3137-1.4115-.4705-3.4503 1.4115-7.8416 4.0777-9.8804 2.5093-1.882 4.705-.1569 5.646 1.5683 0 0 8.7826 21.1724 8.7826 22.1134.1569 1.4115-.3136 2.823-1.0978 3.9209-.1568.1568-1.0978.941-1.4115 1.2546-4.2345 2.9799-14.2718 8.7827-17.4085 10.6647-.1568.1568-.4705.3136-.7841.4705h-.1569c-.4704.1568-1.0978 0-1.7251-.1569-2.0388-.7841-3.9208-3.1366-4.0777-5.3323 0-1.2546.1569-1.882.6274-2.3525z" fill="url(#y)"/><path d="m50.8726 90.7008 5.0186-3.6072c.1569-.1568.3137-.3137.6274-.3137 0 0 3.4503-1.5683 4.0776-1.4115h.3137c.1568 0 .1568 0 .3136.1569 1.5684.6273 2.9799 2.5093 3.1367 4.0776.1568 1.0979-.4705 1.5684-.941 2.0389l-3.764 2.1956c-.3136.1569-.4705.3137-.7841.3137l-5.9597 1.0978c-.6273.1569-1.2547 0-1.882-.4705-1.5683-1.0978-1.5683-3.1366-.1568-4.0776z" fill="#ffd4c0"/><path d="m78.4749 116.735c-11.3467 0-20.5451-5.617-20.5451-12.547 0-6.9288 9.1984-12.5462 20.5451-12.5462 11.3468 0 20.5451 5.6174 20.5451 12.5462 0 6.93-9.1983 12.547-20.5451 12.547z" fill="#888"/><path d="m62.1641 155.316 6.587-7.685c.7842-.941 2.0388-1.098 3.1367-.47l2.9798 1.725h.1568v4.862c0 .784-.3136 1.568-1.0978 2.039l-5.646 4.077c-1.2547.784-2.823.941-4.0777.314l-1.4115-.784c-.7841-.471-1.2546-1.255-1.2546-2.196s.3137-1.411.6273-1.882z" fill="#f16822"/><path d="m41.9319 145.279 7.2143-8.469c.4705-.628 1.4115-.941 2.1957-.628l3.764 1.098h.1568l.941 4.548c.1568.785-.1568 1.726-.7842 2.196l-6.9006 4.862c-.941.627-2.1957.941-3.2935.47l-2.1957-.627c-.7841-.157-1.2546-.784-1.4115-1.568-.3136-.784-.1568-1.412.3137-1.882z" fill="#f16822"/><path d="m62.9482 157.982 1.4115.784c1.2546.785 2.823.628 4.0776-.313l5.646-5.489c.6274-.471 1.0979-1.255 1.0979-2.039v2.509c0 .784-.3137 1.568-1.0979 2.039l-5.646 4.078c-1.2546.784-2.823.941-4.0776.313l-1.4115-.784c-.7842-.47-1.2547-1.255-1.2547-2.196 0-.156 0-.313.1569-.47 0 .627.4705 1.255 1.0978 1.568z" fill="#d84b0e"/><path d="m42.8729 147.631 2.1956.628c1.0979.313 2.3525.156 3.2935-.471l6.9007-6.587c.3137-.157.4705-.47.6273-.627l.3137 1.254c.1568.785-.1568 1.726-.7842 2.196l-6.9006 4.862c-.941.627-2.1957.941-3.2935.47l-2.1957-.627c-.7841-.157-1.2546-.784-1.4115-1.568 0-.314 0-.628 0-.941 0 .627.6274 1.254 1.2547 1.411z" fill="#d84b0e"/><path d="m64.5164 114.54 18.0358-15.2132c1.882-2.1957 5.0186-3.2935 8.4689-2.1957 3.2935 1.0979 5.3324 4.0779 5.1755 7.5279 0 3.294-1.882 5.489-5.0186 7.058l-15.6833 8.312c-.7842.47-1.2547 1.254-1.2547 2.195l1.7252 27.76c0 1.882-2.6662 3.45-5.8028 3.45-3.2935 0-5.8028-1.568-5.8028-3.45l-1.882-30.896c-.1569-1.882.6273-3.451 2.0388-4.548z" fill="url(#z)"/><path d="m45.2262 111.717c0-1.882.941-3.608 2.3525-4.705l21.3293-14.8995c1.7252-1.882 4.3913-2.9799 7.3712-2.3525 3.1366.6273 5.4891 3.1366 6.1164 6.2733.6274 3.764-1.5683 7.2147-4.7049 8.4687l-19.4473 8.312c-.7842.314-1.4115 1.098-1.4115 2.039l-.1569 24.466c0 1.882-2.6661 3.45-5.8028 3.45-3.2935 0-5.8028-1.568-5.8028-3.45z" fill="url(#A)"/><path d="m66.7124 58.8638c-.1569-4.2345 3.1366-7.9985 7.3711-8.1553 1.0978 0 3.764.6273 4.2345.6273 5.4891 1.2547 10.5078 4.2345 13.174 6.9007l.1568.1568c2.0388 1.2547 3.4503 3.6072 3.6071 6.1165l1.5684 34.3464c.1568 4.7048-6.1165 8.9398-14.2718 9.2528-8.1553.471-13.3308-2.352-13.6445-7.057 0 0-2.0388-38.581-2.1956-42.1882z" fill="#fff"/><path d="m66.3978 58.707c-.1568-4.5481 3.2935-8.3121 7.6848-8.469 1.0978 0 2.1957.1569 2.6662.3137.3136.1568.7841.1568 1.2546.3137-2.5093.6273-4.2345 2.1956-4.2345 3.9208 0 0 1.5684 13.8013 1.882 21.9566.3137 6.7438.6274 20.3883 1.0979 27.7592-5.9597-.941-7.8417-1.882-8.1554-5.8026 0 0-2.0388-36.2284-2.1956-39.9924z" fill="url(#B)"/><path d="m77.5332 78.3111c-.3137-5.3324 4.705-18.5063 7.8416-21.4861 0 0 1.2547-1.2547 1.4115-2.0389 2.1957 1.2547 3.9209 2.5094 5.0187 3.6072l.1568.1568c2.0388 1.4115 3.6072 3.764 3.764 6.4302l1.882 37.0127c.1568 2.509-1.5683 4.862-4.2345 6.587-2.6661 1.725-14.1149 4.391-14.7423-8.7828-.4705-9.2532-.941-17.4085-1.0978-21.4861z" fill="url(#C)"/><path d="m95.7258 64.9802 1.882 37.0128c.1568 2.509-1.5683 4.862-4.2345 6.587-1.2546.784-4.2345 1.725-7.3711 1.411 1.882-1.568 2.5093-3.136 2.5093-5.175l-3.1367-33.5625z" fill="#d84b0e"/><path d="m88.3558 42.3965c.941 7.3711-2.6662 9.41-7.3712 10.3509-5.4891 1.0979-9.4099-.4705-9.7236-8.3121-.3137-7.6848 2.6662-9.7236 7.3711-10.351 4.705-.4705 8.7827.7842 9.7237 8.3122z" fill="#ffd4c0"/><path d="m74.0837 48.8264c-.1568-1.7251 2.3525-3.4503 5.3324-3.6071 3.1366-.1568 5.6459 1.0978 5.8028 2.823l.4705 6.7438c.1568 1.882-2.1957 3.4503-5.3323 3.6072-3.1367.1568-5.646-1.0979-5.8029-2.823 0-.1569-.4705-6.7439-.4705-6.7439z" fill="#ffd4c0"/><path d="m81.9252 41.769c5.4891 3.1367 3.2935 9.8805 4.705 8.6259 2.3525-2.0389 3.6071-5.4892 3.2935-8.7827-.6274-5.3323-5.4892-9.0963-10.9783-8.469-7.528.941-6.587 4.5482-11.1352 7.0575 2.823 5.3323 8.9395-1.5683 14.115 1.5683z" fill="#4d4d4d"/><path d="m68.4375 116.578-24.6228-14.115c-.4705-.313-.6273-.627-.6273-.941v-1.254c0-.4707.3136.313.941 0l13.9581-7.9987c1.0978-.6273 2.823-.7841 3.764-.1568l24.6228 14.1145c.3136.157.6273-.627.6273-.313v1.254c0 .471-.3137.941-.941 1.255l-13.9581 7.999c-1.0979.627-2.823.627-3.764.156z" fill="#171717"/><path d="m68.4367 115.324-24.6228-14.115c-.941-.628-.7842-1.5685.3137-2.1958l13.9581-7.9985c1.0978-.6273 2.823-.7842 3.764-.1568l24.6228 14.1151c.941.627.7841 1.568-.3137 2.195l-13.9581 7.999c-1.0979.627-2.823.784-3.764.157z" fill="#717171"/><path d="m70.0062 115.324c-.6274 0-1.0979-.157-1.4115-.314l-24.6228-14.115c-.1568-.157-.4705-.313-.4705-.47 0-.314.3137-.6276.6273-.7844l13.9582-7.9985c.4705-.3136 1.2546-.4705 1.882-.4705.6273 0 1.0978.1569 1.4115.3137l24.6227 14.1147c.1569.157.4705.314.4705.471 0 .313-.3136.627-.6273.784l-13.9581 7.998c-.4705.157-1.2547.471-1.882.471z" fill="#4d4d4d"/><path d="m69.5355 112.03-19.9177-11.605c-.4705-.157-.3137-.6276.1568-.9412l7.528-4.3914c.4705-.3136 1.0978-.3136 1.5683 0l19.9178 11.6056c.4705.157.3136.627-.1569.941l-7.5279 4.391c-.4705.157-1.0979.157-1.5684 0z" fill="#868686"/><path d="m57.6158 95.7197c.1568-.1569.4705-.1569.6273 0l1.2547.7841c.1568.1569.1568.3137 0 .3137-.1569.1568-.4705.1568-.6274 0l-1.2546-.7842c-.1569 0-.1569-.1568 0-.3136zm2.1956 1.2546c.1569-.1568.4705-.1568.6274 0l.6273.3137c.1568.1568.1568.3137 0 .3137-.1568.1568-.4705.1568-.6273 0l-.6274-.3137c-.1568 0-.1568-.1568 0-.3137zm1.5684.941c.1568-.1568.4705-.1568.6273 0l.6273.3137c.1569.1568.1569.3137 0 .3137-.1568.1568-.4705.1568-.6273 0l-.6273-.3137c-.1569-.1568-.1569-.1568 0-.3137zm1.5683.941c.1568-.1568.4705-.1568.6273 0l.6274.3137c.1568.1568.1568.3137 0 .3137-.1569.1568-.4705.1568-.6274 0l-.6273-.3137c-.1568-.1568-.1568-.3137 0-.3137zm1.4115.7842c.1568-.1568.4705-.1568.6273 0l.6274.3137c.1568.1568.1568.3138 0 .3138-.1569.157-.4705.157-.6274 0l-.6273-.3138c-.1568 0-.1568-.1569 0-.3137zm1.5683.9405c.1569-.156.4705-.156.6273 0l.6274.314c.1568.157.1568.314 0 .314-.1569.157-.4705.157-.6274 0l-.6273-.314c-.1568-.157-.1568-.314 0-.314zm1.5683.785c.1569-.157.4705-.157.6274 0l.6273.313c.1568.157.1568.314 0 .314-.1568.157-.4705.157-.6273 0l-.6274-.314c-.1568 0-.1568-.157 0-.313zm1.4115.941c.1569-.157.4705-.157.6274 0l.6273.313c.1568.157.1568.314 0 .314-.1568.157-.4705.157-.6273 0l-.6274-.314c-.1568-.157-.1568-.313 0-.313zm1.5684.784c.1568-.157.4705-.157.6273 0l.6273.47c.1569.157.1569.314 0 .314-.1568.157-.4705.157-.6273 0l-.6273-.314c-.1569-.157-.1569-.313 0-.47zm1.5683.941c.1568-.157.4705-.157.6273 0l.6274.313c.1568.157.1568.314 0 .314-.1569.157-.4705.157-.6274 0l-.6273-.314c-.1568 0-.1568-.156 0-.313zm1.4115.941c.1568-.157.4705-.157.6273 0l.6274.313c.1568.157.1568.314 0 .314-.1569.157-.4705.157-.6274 0l-.6273-.314c-.1568-.156-.1568-.313 0-.313zm1.5683.784c.1569-.157.4705-.157.6274 0l.6273.314c.1568.156.1568.313 0 .313-.1568.157-.4705.157-.6273 0l-.6274-.313c-.1568 0-.1568-.157 0-.314zm1.5684.941c.1568-.157.4705-.157.6273 0l.6273.314c.1569.156.1569.313 0 .313-.1568.157-.4705.157-.6273 0l-.6273-.313c-.1569-.157-.1569-.314 0-.314zm-20.2315-10.1942.4705-.3136c.1568-.1569.4705-.1569.6273 0l.4705.3136c.1569.1569.1569.3137 0 .3137l-.4705.3137c-.1568.1568-.4705.1568-.6273 0l-.4705-.3137c-.1568 0-.1568-.1568 0-.3137zm2.0388 1.5684-.4705-.3137c-.1568-.1568-.1568-.3137 0-.3137l.4705-.3136c.1569-.1569.4705-.1569.6274 0l.4705.3136c.1568.1569.1568.3137 0 .3137l-.4705.3137c-.1569.1568-.4705.1568-.6274 0zm.941.1568.4705-.3137c.1569-.1568.4705-.1568.6274 0l.4705.3137c.1568.1568.1568.3137 0 .3137l-.4705.3136c-.1569.1569-.4705.1569-.6274 0l-.4705-.3136c-.1568 0-.1568-.1569 0-.3137zm1.5684.941.4705-.3137c.1568-.1568.4705-.1568.6273 0l.4705.3137c.1568.1568.1568.3137 0 .3137l-.4705.3136c-.1568.1569-.4705.1569-.6273 0l-.4705-.3136c-.1569 0-.1569-.1569 0-.3137zm3.1366 1.255-.4705.313c-.1568.157-.4705.157-.6273 0l-.4705-.313c-.1568-.157-.1568-.314 0-.314l.4705-.3137c.1568-.1568.4705-.1568.6273 0l.4705.3137c.3137 0 .3137.157 0 .314zm1.5684.941-.4705.313c-.1569.157-.4705.157-.6274 0l-.4705-.313c-.1568-.157-.1568-.314 0-.314l.4705-.314c.1569-.157.4705-.157.6274 0l.4705.314c.1568 0 .1568.157 0 .314zm1.5683.784-.4705.313c-.1568.157-.4705.157-.6273 0l-.4705-.313c-.1569-.157-.1569-.314 0-.314l.4705-.314c.1568-.156.4705-.156.6273 0l.4705.314c.1568 0 .1568.314 0 .314zm1.4115.941-.4705.313c-.1569.157-.4705.157-.6274 0l-.4705-.313c-.1568-.157-.1568-.314 0-.314l.4705-.314c.1569-.156.4705-.156.6274 0l.4705.314c.3136 0 .3136.157 0 .314zm1.5683.784-.4705.314c-.1568.156-.4705.156-.6273 0l-.4705-.314c-.1569-.157-.1569-.314 0-.314l.4705-.313c.1568-.157.4705-.157.6273 0l.4705.313c.1568.157.1568.314 0 .314zm1.5683.941-.4705.314c-.1568.156-.4705.156-.6273 0l-.4705-.314c-.1568-.157-.1568-.314 0-.314l.4705-.313c.1568-.157.4705-.157.6273 0l.4705.313c.1569 0 .1569.157 0 .314zm-.3136.47.4705-.313c.1568-.157.4705-.157.6273 0l.4705.313c.1568.157.1568.314 0 .314l-.4705.314c-.1568.157-.4705.157-.6273 0l-.4705-.314c-.1569 0-.1569-.157 0-.314zm3.2935 1.255-.4705.314c-.1569.157-.4705.157-.6274 0l-.4705-.314c-.1568-.157-.1568-.314 0-.314l.4705-.313c.1569-.157.4705-.157.6274 0l.4705.313c.1568 0 .1568.157 0 .314zm2.1956 1.255-.4705.313c-.1568.157-.4705.157-.6273 0l-1.2547-.627c-.1568-.157-.1568-.314 0-.314l.4705-.47c.1569-.157.4705-.157.6274 0l1.2546.627c.1569.314.1569.471 0 .471zm-21.9566-10.508.4705-.3137c.1568-.1568.4705-.1568.6273 0l1.2547.6274c.1568.1568.1568.3136 0 .3136l-.4705.3137c-.1568.1568-.4705.1568-.6273 0l-1.2547-.6273c-.1568 0-.1568-.1569 0-.3137zm2.1957 1.4115.4705-.3137c.1568-.1568.4705-.1568.6273 0l.4705.3137c.1568.1568.1568.3137 0 .3137l-.4705.3136c-.1568.1569-.4705.1569-.6273 0l-.4705-.3136c-.1569-.1569-.1569-.3137 0-.3137zm1.4115 1.2547c-.1569-.1569-.1569-.3137 0-.3137l.4705-.3137c.1568-.1568.4705-.1568.6273 0l.6273.1569c.1569.1568.1569.3136 0 .3136l-.4705.3137c-.1568.157-.4705.157-.6273 0zm1.5683.7838c-.1568-.157-.1568-.313 0-.313l.4705-.314c.1568-.1568.4705-.1568.6273 0l.6274.314c.1568.156.1568.313 0 .313l-.4705.314c-.1569.157-.4705.157-.6274 0zm2.6662.157.6273.314c.1568.157.1568.313 0 .313l-.4705.314c-.1568.157-.4705.157-.6273 0l-.4705-.314c-.1569-.156-.1569-.313 0-.313l.4705-.314zm1.5683.941.6273.314c.1569.157.1569.313 0 .313l-.6273.314c-.1568.157-.4705.157-.6273 0l-.6274-.314c-.1568-.156-.1568-.313 0-.313l.6274-.314c.1568-.157.4705-.157.6273 0zm1.4115.784.6273.314c.1568.157.1568.314 0 .314l-.6273.313c-.1568.157-.4705.157-.6273 0l-.6274-.313c-.1568-.157-.1568-.314 0-.314l.6274-.314zm1.5683.941.6273.314c.1569.157.1569.314 0 .314l-.6273.313c-.1568.157-.4705.157-.6273 0l-.6273-.313c-.1569-.157-.1569-.314 0-.314l.6273-.314c.1568-.157.4705-.157.6273 0zm1.5683.941.6274.314c.1568.157.1568.314 0 .314l-.6274.313c-.1568.157-.4705.157-.6273 0l-.6273-.313c-.1569-.157-.1569-.314 0-.314l.6273-.314c.1568-.157.4705-.157.6273 0zm1.4115.784.6274.314c.1568.157.1568.314 0 .314l-.6274.313c-.1568.157-.4705.157-.6273 0l-.6273-.313c-.1569-.157-.1569-.314 0-.314l.6273-.314zm.941 1.882-.6273-.313c-.1568-.157-.1568-.314 0-.314l.6273-.314c.1569-.156.4705-.156.6274 0l.6273.314c.1568.157.1568.314 0 .314l-.6273.313c-.1569.157-.4705.157-.6274 0zm1.5684.941-.6274-.313c-.1568-.157-.1568-.314 0-.314l.6274-.47c.1568-.157.4705-.157.6273 0l.6273.313c.1569.157.1569.314 0 .314l-.6273.314c-.1568.156-.4705.156-.6273.156zm2.6661.471-.6273.314c-.1568.156-.4705.156-.6273 0l-.6274-.314c-.1568-.157-.1568-.314 0-.314l.7842-.313c.1568-.157.4705-.157.6273 0l.4705.313c.1569.157.1569.314 0 .314zm-21.9566-10.351.4705-.3137c.1569-.1568.4705-.1568.6273 0l1.882 1.0979c.1569.1568.1569.3136 0 .3136l-.6273.3137c-.1568.1568-.4705.1568-.6273 0l-1.882-1.0978c0-.1569 0-.3137.1568-.3137zm2.823 1.5683.6273-.3136c.1569-.1569.4705-.1569.6274 0l.6273.3136c.1568.1569.1568.3137 0 .3137l-.6273.314c-.1569.156-.4705.156-.6274 0l-.6273-.314c-.1568 0-.1568-.1568 0-.3137zm1.4115.9407.6273-.313c.1569-.157.4705-.157.6274 0l.6273.313c.1568.157.1568.314 0 .314l-.6273.314c-.1569.156-.4705.156-.6274 0l-.6273-.314c-.1568-.157-.1568-.314 0-.314zm1.5683.784.6274-.313c.1568-.157.4705-.157.6273 0l.6273.313c.1569.157.1569.314 0 .314l-.6273.314c-.1568.157-.4705.157-.6273 0l-.6274-.314c-.1568 0-.1568-.157 0-.314zm2.0389 1.569-.6274-.314c-.1568-.157-.1568-.314 0-.314l.6274-.313c.1568-.157.4705-.157.6273 0l.6273.313c.1569.157.1569.314 0 .314l-.6273.314c-.1568.157-.4705.157-.6273 0zm1.5683.941-.6273-.314c-.1569-.157-.1569-.314 0-.314l.6273-.313c.1568-.157.4705-.157.6273 0l.6274.313c.1568.157.1568.314 0 .314l-.6274.314c-.1568.157-.4705 0-.6273 0zm1.5683.784-.6273-.314c-.1568-.157-.1568-.313 0-.313l.6273-.314c.1569-.157.4705-.157.6274 0l.6273.314c.1568.156.1568.313 0 .313l-.6273.314c-.1569.157-.4705.157-.6274 0zm1.4115.941-.6273-.314c-.1568-.157-.1568-.313 0-.313l.6273-.314c.1569-.157.4705-.157.6273 0l.6274.314c.1568.156.1568.313 0 .313l-.6274.314c-.1568.157-.4704.157-.6273 0zm1.5683.941-.6273-.314c-.1568-.157-.1568-.313 0-.313l.6273-.314c.1569-.157.4705-.157.6274 0l.6273.314c.1568.156.1568.313 0 .313l-.6273.314c-.1569 0-.4705 0-.6274 0zm1.5684.784-.6274-.314c-.1568-.156-.1568-.313 0-.313l.6274-.314c.1568-.157.4705-.157.6273 0l.6273.314c.1569.157.1569.313 0 .313l-.6273.314c-.1568.157-.4705.157-.6273 0zm.941.157.6273-.314c.1568-.157.4705-.157.6273 0l.6274.314c.1568.157.1568.314 0 .314l-.6274.313c-.1568.157-.4705.157-.6273 0l-.6273-.313c-.1569 0-.1569-.157 0-.314zm4.0776 1.882-.6273.314c-.1568.156-.4705.156-.6273 0l-1.5684-.941c-.1568-.157-.1568-.314 0-.314l.7842-.314c.1568-.157.4705-.157.6273 0l1.5684.941c.1568 0 .1568.157-.1569.314zm-21.9566-10.5078.4705-.3137c.1569-.1568.4705-.1568.6274 0l2.6661 1.5685c.1568.157.1568.313 0 .47l-.4705.314c-.1568.157-.4705.157-.6273 0l-2.6662-1.5683c-.1568-.1569-.1568-.3137 0-.4705zm3.6072 2.1958.4705-.314c.1568-.157.4705-.157.6273 0l.4705.314c.1568.157.1568.313 0 .47l-.4705.314c-.1568.157-.4705.157-.6273 0l-.4705-.314c-.1569-.313-.1569-.47 0-.47zm1.5683.784.4705-.314c.1568-.157.4705-.157.6273 0l.6274.314c.1568.157.1568.314 0 .47l-.4705.314c-.1569.157-.4705.157-.6274 0l-.4705-.314c-.3136-.156-.3136-.313-.1568-.47zm1.5683.941.4705-.314c.1569-.157.4705-.157.6274 0l.4705.314c.1568.157.1568.314 0 .47l-.4705.314c-.1569.157-.4705.157-.6274 0l-.4705-.314c-.3136-.156-.3136-.47 0-.47zm1.4115.784.4705-.314c.1569-.156.4705-.156.6274 0l.4705.314c.1568.157.1568.314 0 .471l-.4705.313c-.1569.157-.4705.157-.6274 0l-.4705-.313c-.1568-.157-.1568-.314 0-.471zm1.5684.941.4705-.314c.1568-.156.4705-.156.6273 0l.4705.314c.1568.157.1568.314 0 .471l-.4705.313c-.1568.157-.4705.157-.6273 0l-.4705-.313c-.1569-.157-.1569-.314 0-.471zm1.5683.784.4705-.313c.1568-.157.4705-.157.6273 0l.4705.313c.1569.157.1569.314 0 .471l-.4705.313c-.1568.157-.4705.157-.6273 0l-.4705-.313c-.3137-.157-.3137-.314 0-.471zm1.4115.941.4705-.313c.1568-.157.4705-.157.6273 0l.6273.313c.1569.157.1569.314 0 .471l-.4704.313c-.1569.157-.4705.157-.6274 0l-.4705-.313c-.3136-.157-.3136-.314-.1568-.471zm1.5683.941.4705-.313c.1568-.157.4705-.157.6273 0l.6274.313c.1568.157.1568.314 0 .471l-.4705.313c-.1569.157-.4705.157-.6274 0l-.4705-.313c-.3136-.314-.3136-.471-.1568-.471zm1.5683.784.4705-.313c.1569-.157.4705-.157.6274 0l.4705.313c.1568.157.1568.314 0 .471l-.4705.314c-.1569.156-.4705.156-.6274 0l-.4705-.314c-.3136-.157-.3136-.314 0-.471zm1.4115.941.4705-.313c.1569-.157.4705-.157.6274 0l.4705.313c.1568.157.1568.314 0 .471l-.4705.314c-.1569.156-.4705.156-.6274 0l-.4705-.314c-.1568-.157-.1568-.471 0-.471zm3.2935 1.255-.4705.314c-.1568.157-.4705.157-.6273 0l-.4705-.314c-.1568-.157-.1568-.314 0-.47l.4705-.314c.1568-.157.4705-.157.6273 0l.4705.314c.1569.156.1569.313 0 .47zm-19.6041-9.724-.4705.314c-.1568.157-.4705.157-.6273 0l-1.2547-.627c-.1568-.157-.1568-.3138 0-.4707l.4705-.3136c.1569-.1569.4705-.1569.6274 0l1.2546.6273c.1569.157.1569.314 0 .47zm1.5683.941-.4704.314c-.1569.157-.4705.157-.6274 0l-.4705-.314c-.1568-.156-.1568-.313 0-.47l.4705-.314c.1569-.157.4705-.157.6274 0l.4704.314c.1569.157.1569.314 0 .47zm1.4115.785-.4705.313c-.1568.157-.4705.157-.6273 0l-.4705-.313c-.1568-.157-.1568-.314 0-.471l.4705-.314c.1568-.156.4705-.156.6273 0l.4705.471c.1569 0 .1569.314 0 .314zm10.6647 6.116-.4705.314c-.1569.157-.4705.157-.6273 0l-9.5669-5.489c-.1568-.157-.1568-.314 0-.471l.4705-.314c.1569-.156.4705-.156.6274 0l9.5668 5.49c.1568.156.1568.47 0 .47zm1.5683.941-.4705.314c-.1568.157-.4705.157-.6273 0l-.4705-.314c-.1568-.157-.1568-.314 0-.47l.4705-.314c.1568-.157.4705-.157.6273 0l.4705.314c.1568.156.1568.313 0 .47zm1.4115.784-.4705.314c-.1568.157-.4705.157-.6273 0l-.4705-.314c-.1569-.157-.1569-.313 0-.47l.4705-.314c.1568-.157.4705-.157.6273 0l.4705.471c.1568.156.1568.313 0 .313zm1.5683.941-.4705.314c-.1568.157-.4705.157-.6273 0l-.4705-.314c-.1568-.157-.1568-.313 0-.47l.4705-.314c.1568-.157.4705-.157.6273 0l.4705.471c.1569 0 .1569.156 0 .313z" fill="#d0d0d0"/><path d="m77.2201 93.6807c.3136-.1568 10.3509-4.0776 15.0559-6.7438l-6.1165-12.8603c-.3136-.3137-.7841-1.5683-.7841-1.5683-.1569-.4705-.1569-.941-.1569-1.4115 0-3.4504 2.3525-7.528 5.3324-9.2532 2.6661-1.5683 4.7049.4705 5.3323 2.3525.1568 0 8.3118 23.6818 8.3118 24.6228 0 1.4115-.627 2.823-1.568 3.764-.157.1568-1.255.7841-1.568.941-4.7053 2.5093-15.37 6.9011-18.6635 8.1551-.3136.157-.4705.314-.941.314h-.1568c-.4705 0-1.0978-.157-1.5683-.471-1.882-1.097-3.4503-3.7636-3.4503-5.8025.1568-.941.4705-1.5683.941-2.0388z" fill="url(#D)"/><path d="m66.7123 99.4835 6.7438-3.6072c.1568-.1568.4705-.1568.6273-.1568 0 0 3.6072-1.0978 4.2345-.941.1569 0 .1569 0 .3137.1568.1568 0 .1568.1569.3137.1569 1.4115.7841 2.5093 2.823 2.5093 4.3913 0 1.0975-.6273 1.5685-1.2547 1.8815l-1.5683.628c-1.882.784-3.764 1.254-5.8028 1.254l-3.4503.157c-.6274 0-1.2547-.157-1.7252-.627-2.0388-.157-2.5093-2.509-.941-3.2935z" fill="#ffd4c0"/><path d="m67.4975 115.48-23.6818-13.644c-.941-.471-1.7251-1.8821-1.7251-3.1367v-18.6631c0-1.2547.7841-1.7252 1.7251-1.2547l23.6818 13.6445c.941.4705 1.7252 1.882 1.7252 3.1366v18.5064c0 1.411-.7842 1.882-1.7252 1.411z" fill="#4d4d4d"/><path d="m67.9672 92.2692-23.6818-13.8013c-.3136-.1568-.6273-.3137-.9409-.1568l-.4705.3136c.3136-.1568.6273-.1568 1.0978.1569l23.6818 13.6444c.941.4705 1.7251 1.882 1.7251 3.1367v18.5063c0 .784-.3136 1.255-.7841 1.411h.1568l.4705-.313c.3137-.157.4705-.628.4705-1.255v-18.5062c0-1.2546-.7842-2.6661-1.7252-3.1366z" fill="#171717"/><path d="m89.7667 40.5144c0 .3137.1568.6273.1568.941.4705 3.4503-.941 6.9006-3.2935 8.9395-.941.7841-.1568-2.1957-1.5683-5.1755 1.882-1.0978 3.4503-2.6662 4.705-4.705z" fill="#4d4d4d"/></svg>