<svg fill="none" height="347" viewBox="0 0 299 347" width="299" xmlns="http://www.w3.org/2000/svg" xmlns:xlink="http://www.w3.org/1999/xlink"><linearGradient id="a"><stop offset="0" stop-color="#d5d5d5"/><stop offset="1" stop-color="#6b6b6b"/></linearGradient><linearGradient id="b" gradientUnits="userSpaceOnUse" x1="265" x2="74.7895" xlink:href="#a" y1="231" y2="282.427"/><linearGradient id="c"><stop offset="0" stop-color="#fff"/><stop offset="1" stop-color="#b9b9b9"/></linearGradient><linearGradient id="d" gradientUnits="userSpaceOnUse" x1="258.629" x2="132.616" xlink:href="#c" y1="211.035" y2="335.271"/><linearGradient id="e" gradientUnits="userSpaceOnUse" x1="123.899" x2="122.307" xlink:href="#a" y1="248.766" y2="268.21"/><linearGradient id="f" gradientUnits="userSpaceOnUse" x1="138.099" x2="136.493" xlink:href="#a" y1="240.462" y2="259.992"/><linearGradient id="g" gradientUnits="userSpaceOnUse" x1="152.199" x2="150.607" xlink:href="#a" y1="232.266" y2="251.71"/><linearGradient id="h" gradientUnits="userSpaceOnUse" x1="166.399" x2="164.807" xlink:href="#a" y1="224.066" y2="243.51"/><linearGradient id="i" gradientUnits="userSpaceOnUse" x1="180.515" x2="178.922" xlink:href="#a" y1="215.766" y2="235.21"/><linearGradient id="j" gradientUnits="userSpaceOnUse" x1="194.699" x2="193.093" xlink:href="#a" y1="207.462" y2="226.992"/><linearGradient id="k"><stop offset="0" stop-color="#f17922"/><stop offset="1" stop-color="#d74608"/></linearGradient><linearGradient id="l" gradientUnits="userSpaceOnUse" x1="74.3727" x2="194.823" xlink:href="#k" y1="158.341" y2="263.931"/><linearGradient id="m" gradientUnits="userSpaceOnUse" x1="127.981" x2="226.005" xlink:href="#k" y1="176.399" y2="242.747"/><linearGradient id="n" gradientUnits="userSpaceOnUse" x1="179.5" x2="156.063" xlink:href="#k" y1="136.5" y2="166.486"/><linearGradient id="o" gradientUnits="userSpaceOnUse" x1="122.847" x2="9.16642" xlink:href="#c" y1="55.7024" y2="109.926"/><linearGradient id="p" gradientUnits="userSpaceOnUse" x1=".615327" x2="127.657" y1="37.3175" y2="37.3175"><stop offset="0" stop-color="#e39a65"/><stop offset="1" stop-color="#e95f8d"/></linearGradient><linearGradient id="q" gradientUnits="userSpaceOnUse" x1="8" x2="26.9531" xlink:href="#k" y1="123.5" y2="87.6864"/><linearGradient id="r" gradientUnits="userSpaceOnUse" x1="61.5002" x2="9.00019" y1="102.477" y2="125.977"><stop offset="0" stop-color="#f16822"/><stop offset="1" stop-color="#d84b0e"/></linearGradient><linearGradient id="s" gradientUnits="userSpaceOnUse" x1="116" x2="81.1078" xlink:href="#k" y1="124.5" y2="129.173"/><linearGradient id="t" gradientUnits="userSpaceOnUse" x1="57.5" x2="112.398" xlink:href="#k" y1="82.9999" y2="76.6404"/><linearGradient id="u" gradientUnits="userSpaceOnUse" x1="305.945" x2="272.768" xlink:href="#k" y1="109.851" y2="161.408"/><linearGradient id="v" gradientUnits="userSpaceOnUse" x1="290.596" x2="264.312" xlink:href="#k" y1="114.626" y2="156.788"/><mask id="w" height="75" maskUnits="userSpaceOnUse" width="56" x="243" y="90"><path d="m270.54 93.8497c-7.845-4.5022-14.939-4.9115-20.056-1.9782l-7.231 4.1612c5.117-3.0015 12.211-2.5923 20.056 1.9782 15.553 9.0041 28.173 30.8341 28.105 48.7061 0 8.869-3.206 15.144-8.254 18.078l7.231-4.161c5.048-2.934 8.186-9.21 8.254-18.078.068-17.804-12.552-39.702-28.105-48.7063z" fill="#f16822"/></mask><path d="m281.78 188.41-43.679-26.019c-1.628-.985-1.436-2.562.479-3.745l2.414-1.752c1.82-1.084 4.598-1.182 6.226-.295l43.679 25.92c1.628.985 1.436 2.562-.479 3.745l-2.414 1.752c-1.82 1.182-4.598 1.281-6.226.394z" fill="#4d4d4d" opacity=".6"/><path d="m63.6006 190.1c-.9.5-2.3.5-3.2 0s-.9-1.3 0-1.9c.9-.5 2.3-.5 3.2 0 .9.6.8 1.4 0 1.9z" fill="#f16822"/><path d="m74.4004 196.4c-.9.5-2.3.5-3.2 0s-.9-1.3 0-1.9c.9-.5 2.3-.5 3.2 0s.9 1.4 0 1.9z" fill="#f16822"/><path d="m85.2002 202.6c-.9.5-2.3.5-3.2 0s-.9-1.3 0-1.9c.9-.5 2.3-.5 3.2 0 .9.6.9 1.4 0 1.9z" fill="#f16822"/><path d="m96.0005 208.8c-.9.5-2.3.5-3.2 0s-.9-1.3 0-1.9c.9-.5 2.3-.5 3.2 0 .9.6.9 1.4 0 1.9z" fill="#cdcdcd"/><path d="m106.8 215.1c-.9.5-2.3.5-3.2 0s-.9-1.3 0-1.9c.9-.5 2.3-.5 3.2 0s.9 1.4 0 1.9z" fill="#cdcdcd"/><path d="m53.4004 196c-.9.5-2.3.5-3.2 0s-.9-1.3 0-1.9c.9-.5 2.3-.5 3.2 0 .9.6.9 1.4 0 1.9z" fill="#f16822"/><path d="m64.2002 202.3c-.9.5-2.3.5-3.2 0s-.9-1.3 0-1.9c.9-.5 2.3-.5 3.2 0s.9 1.3 0 1.9z" fill="#f16822"/><path d="m73.4021 208.9c1.2702-.002 2.2992-.585 2.2983-1.303-.001-.718-1.0315-1.299-2.3018-1.297-1.2702.002-2.2992.585-2.2982 1.303.0009.718 1.0314 1.299 2.3017 1.297z" fill="#f16822"/><path d="m85.8003 214.7c-.9.5-2.3.5-3.2 0s-.9-1.3 0-1.9c.9-.5 2.3-.5 3.2 0 .9.6.9 1.4 0 1.9z" fill="#cdcdcd"/><path d="m96.6006 221c-.9.5-2.3.5-3.2 0s-.9-1.3 0-1.9c.9-.5 2.3-.5 3.2 0s.9 1.3 0 1.9z" fill="#cdcdcd"/><path d="m43.2002 201.9c-.9.5-2.3.5-3.2 0s-.9-1.3 0-1.9c.9-.5 2.3-.5 3.2 0s.9 1.4 0 1.9z" fill="#f16822"/><path d="m54.0005 208.1c-.9.5-2.3.5-3.2 0s-.9-1.3 0-1.9c.9-.5 2.3-.5 3.2 0 .9.6.9 1.4 0 1.9z" fill="#f16822"/><path d="m64.8003 214.4c-.9.5-2.3.5-3.2 0s-.9-1.3 0-1.9c.9-.5 2.3-.5 3.2 0s.9 1.3 0 1.9z" fill="#f16822"/><path d="m75.6006 220.6c-.9.5-2.3.5-3.2 0s-.9-1.3 0-1.9c.9-.5 2.3-.5 3.2 0s.9 1.4 0 1.9z" fill="#cdcdcd"/><path d="m86.4004 226.8c-.9.5-2.3.5-3.2 0s-.9-1.3 0-1.9c.9-.5 2.3-.5 3.2 0s.9 1.4 0 1.9z" fill="#cdcdcd"/><path d="m31.4021 208.1c1.2702-.002 2.2992-.585 2.2983-1.303-.001-.718-1.0315-1.299-2.3018-1.297-1.2702.002-2.2992.585-2.2982 1.303.0009.718 1.0314 1.299 2.3017 1.297z" fill="#cdcdcd"/><path d="m43.9004 214c-.9.5-2.3.5-3.2 0s-.9-1.3 0-1.9c.9-.5 2.3-.5 3.2 0 .8.6.8 1.4 0 1.9z" fill="#cdcdcd"/><path d="m53.0022 220.6c1.2702-.002 2.2992-.585 2.2983-1.303-.001-.718-1.0315-1.299-2.3018-1.297-1.2702.002-2.2992.585-2.2982 1.303.0009.718 1.0314 1.299 2.3017 1.297z" fill="#cdcdcd"/><path d="m65.5005 226.5c-.9.5-2.3.5-3.2 0s-.9-1.3 0-1.9c.9-.5 2.3-.5 3.2 0 .8.5.8 1.4 0 1.9z" fill="#cdcdcd"/><path d="m76.3003 232.7c-.9.5-2.3.5-3.2 0s-.9-1.3 0-1.9c.9-.5 2.3-.5 3.2 0 .8.6.8 1.4 0 1.9z" fill="#cdcdcd"/><path d="m22.9004 213.6c-.9.5-2.3.5-3.2 0s-.9-1.3 0-1.9 2.3-.5 3.2 0c.9.6.9 1.4 0 1.9z" fill="#cdcdcd"/><path d="m33.7002 219.9c-.9.5-2.3.5-3.2 0s-.9-1.3 0-1.9c.9-.5 2.3-.5 3.2 0s.9 1.4 0 1.9z" fill="#cdcdcd"/><path d="m42.9021 226.5c1.2702-.002 2.2992-.585 2.2983-1.303-.001-.718-1.0315-1.299-2.3018-1.297-1.2702.002-2.2992.585-2.2982 1.303.0009.718 1.0314 1.299 2.3017 1.297z" fill="#cdcdcd"/><path d="m55.3003 232.3c-.9.5-2.3.5-3.2 0s-.9-1.3 0-1.9c.9-.5 2.3-.5 3.2 0 .9.6.9 1.4 0 1.9z" fill="#cdcdcd"/><path d="m64.5022 238.9c1.2702-.002 2.2992-.585 2.2983-1.303-.001-.718-1.0315-1.299-2.3018-1.297-1.2702.002-2.2992.585-2.2982 1.303.0009.718 1.0314 1.299 2.3017 1.297z" fill="#cdcdcd"/><path d="m107.2 345.6-69.5998-40.2c-3.4-2-3-5.4.9-7.6l148.8998-86c3.9-2.3 9.8-2.5 13.2-.5l69.6 40.2c3.4 2 3 5.4-.9 7.6l-148.9 86c-3.9 2.2-9.8 2.5-13.2.5z" fill="#373737" opacity=".6"/><path d="m266.7 222.1-65.8-38c-3.4-1.9-9.2-1.7-13.1.5l-147.4996 85.2-4.9-1.9 1.4 6.9c.2 1 .9 2 2.2 2.8l67.9996 39.3c3.4 1.9 9.2 1.7 13.1-.5l147.8-85.4c1.8-1.1 2.9-2.4 3.1-3.7l1.4-6.7z" fill="url(#b)"/><path d="m107.2 310.8-69.5998-40.2c-3.4-2-3-5.4.9-7.6l148.8998-86c3.9-2.3 9.8-2.5 13.2-.5l69.6 40.2c3.4 2 3 5.4-.9 7.6l-148.9 86c-3.9 2.2-9.8 2.5-13.2.5z" fill="#4d4d4d"/><path d="m107.3 306.3-64.0999-37c-3.3-1.9-2.9-5.2.9-7.4l143.3999-82.9c3.8-2.2 9.6-2.4 12.9-.5l64.6 37.3c3.3 1.9 2.9 5.2-.9 7.4l-144 82.5c-3.7 2.3-9.5 2.5-12.8.6z" fill="url(#d)"/><path d="m105.4 254.6 29.2 16.7c1.8 1 4.9.9 7-.3s2.3-3 .5-4l-29.2-16.7c-1.8-1-4.9-.9-7 .3s-2.3 3-.5 4z" fill="url(#e)"/><path d="m119.6 246.4 29.2 16.7c1.8 1 4.9.9 7-.3s2.3-3 .5-4l-29.2-16.8c-1.8-1-4.9-.9-7 .3s-2.3 3-.5 4.1z" fill="url(#f)" opacity=".9"/><path d="m133.7 238.1 29.2 16.7c1.8 1 4.9.9 7-.3s2.3-3 .5-4l-29.2-16.7c-1.8-1-4.9-.9-7 .3s-2.3 3-.5 4z" fill="url(#g)" opacity=".7"/><path d="m147.9 229.9 29.2 16.7c1.8 1 4.9.9 7-.3s2.3-3 .5-4l-29.2-16.7c-1.8-1-4.9-.9-7 .3-2.1 1.1-2.3 3-.5 4z" fill="url(#h)" opacity=".6"/><path d="m162 221.6 29.2 16.7c1.8 1 4.9.9 7-.3s2.3-3 .5-4l-29.2-16.7c-1.8-1-4.9-.9-7 .3-2 1.2-2.3 3-.5 4z" fill="url(#i)" opacity=".3"/><path d="m176.2 213.4 29.2 16.7c1.8 1 4.9.9 7-.3s2.3-3 .5-4l-29.2-16.8c-1.8-1-4.9-.9-7 .3-2.1 1.3-2.3 3.1-.5 4.1z" fill="url(#j)" opacity=".2"/><path d="m269.3 222.5-148.9 86c-3.9 2.3-9.8 2.5-13.2.5l-69.6-40.2c-1.2-.7-1.8-1.5-2.1-2.4-.4 1.6.2 3.1 2.1 4.2l69.6 40.2c3.4 2 9.3 1.7 13.2-.5l148.9-86c2.6-1.5 3.6-3.5 3.1-5.2-.4 1.2-1.4 2.4-3.1 3.4z" fill="#1e1e1e"/><path d="m254.003 231.27-49.801-28.8c-2.5-1.4-6.9-1.3-9.8.4l-110.0995 63.7c-2.9 1.7-3.2 4.2-.7 5.6l49.8005 28.8z" fill="#171717" opacity=".4"/><path d="m64.2002 261.3c-3.2-1.9-5-5.8-5-11 0-10.6 7.4-23.6 16.6-28.9l85.0998-49.4c.8-.5 1.5-1 2.3-1.5l.2.2 3.3-2.6 4.1-5 4-7.2 1.7-4.9.9-5.6 52.8 20.5 3.3 2.6 1.7 3.2.9 5-.6 6.6-2.9 7.9-4.8 7.4-4 4.4-4.2 2.8-1.8 1.2-83.4 48.4-4 2.9-4.9 5-3.6 5.8-2.9 7-.9 5.3v4.6l1.1 4.3 2.2 3.3 1.1 1.1z" fill="url(#l)"/><path d="m167.4 167.1 3.4-4.1 4-7.1 1.7-4.9.9-5.6 52.9 20.5 3.3 2.6 1.7 3.2.9 5-.6 6.6-2.9 7.9-4.9 7.4-1.9 2.1z" fill="#171717" opacity=".4"/><path d="m123.2 294.3c-3-1.7-4.7-5.4-4.7-10.3 0-10.4 7.2-23.1 16.2-28.3l85.2-49.5c9.2-5.3 16.6-18.3 16.6-28.9 0-3.1-.6-5.7-1.8-7.7-.8-1.4-1.9-2.5-3.2-3.3-3.2-1.9-7.5-1.4-12 1.2-9.2 5.3-16.6 18.3-16.6 28.9h.7c0-10.4 7.2-23.1 16.2-28.3 4.3-2.5 8.3-2.9 11.3-1.2s4.7 5.4 4.7 10.3c0 10.4-7.2 23.1-16.2 28.3l-85.2 49.5c-9.2 5.3-16.6 18.3-16.6 28.9 0 5.2 1.8 9.1 5 11z" fill="url(#m)"/><path d="m219.4 167.5c-9.2 5.3-16.6 18.3-16.6 28.9l-58.6-33.5c0-10.6 7.4-23.6 16.6-28.9 4.5-2.6 8.7-3 11.9-1.2h.1l58.4 33.4h-.1c-3.2-1.7-7.3-1.3-11.7 1.3z" fill="url(#n)"/><g fill="#fff"><path d="m113.9 212.8c.5-.3 1.3-.3 1.8 0l4.5 2.6c.5.3.5.8 0 1.1s-1.3.3-1.8 0l-4.5-2.6c-.5-.4-.5-.9 0-1.1z"/><path d="m95.9001 219 8.7999 5c.5.3.5.8 0 1.1s-1.3.3-1.8 0l-8.7999-5c-.5-.3-.5-.8 0-1.1.5-.2 1.3-.2 1.8 0z"/><path d="m133.1 240.4 4.8 2.7c.5.3.5.8 0 1.1s-1.3.3-1.8 0l-4.8-2.7c-.5-.3-.5-.8 0-1.1s1.3-.3 1.8 0z"/><path d="m136.9 238.2 4.8 2.7c.5.3.5.8 0 1.1s-1.3.3-1.8 0l-4.8-2.7c-.5-.3-.5-.8 0-1.1s1.3-.3 1.8 0z"/><path d="m140.8 236 4.8 2.7c.5.3.5.8 0 1.1s-1.3.3-1.8 0l-4.8-2.7c-.5-.3-.5-.8 0-1.1.4-.3 1.3-.3 1.8 0z"/><path d="m144.6 233.7 4.8 2.7c.5.3.5.8 0 1.1s-1.3.3-1.8 0l-4.8-2.7c-.5-.3-.5-.8 0-1.1s1.3-.3 1.8 0z"/><path d="m148.4 231.5 4.8 2.7c.5.3.5.8 0 1.1s-1.3.3-1.8 0l-4.8-2.7c-.5-.3-.5-.8 0-1.1s1.3-.3 1.8 0z"/><path d="m152.3 229.3 4.8 2.7c.5.3.5.8 0 1.1s-1.3.3-1.8 0l-4.8-2.7c-.5-.3-.5-.8 0-1.1.4-.3 1.2-.3 1.8 0z"/><path d="m156.1 227.1 4.8 2.7c.5.3.5.8 0 1.1s-1.3.3-1.8 0l-4.8-2.7c-.5-.3-.5-.8 0-1.1s1.3-.3 1.8 0z"/><path d="m159.9 224.8 4.8 2.7c.5.3.5.8 0 1.1s-1.3.3-1.8 0l-4.8-2.7c-.5-.3-.5-.8 0-1.1s1.3-.3 1.8 0z"/><path d="m97.8999 216.8c.5-.3 1.3-.3 1.8 0l13.5001 7.7c.5.3.5.8 0 1.1s-1.3.3-1.8 0l-13.5001-7.7c-.5-.3-.5-.8 0-1.1z"/><path d="m103.5 214.6 2.7 1.6c.5.3.5.8 0 1.1s-1.3.3-1.8 0l-2.7-1.6c-.5-.3-.5-.8 0-1.1s1.3-.3 1.8 0z"/><path d="m107.4 212.4 7.6 4.4c.5.3.5.8 0 1.1s-1.3.3-1.8 0l-7.6-4.4c-.5-.3-.5-.8 0-1.1.4-.3 1.3-.3 1.8 0z"/><path d="m111.2 210.1 1.6.9c.5.3.5.8 0 1.1s-1.3.3-1.8 0l-1.6-.9c-.5-.3-.5-.8 0-1.1.5-.2 1.3-.2 1.8 0z"/><path d="m124.3 214.3c-.5.3-1.3.3-1.8 0l-9.2-5.3c-.5-.3-.5-.8 0-1.1s1.3-.3 1.8 0l9.2 5.3c.5.3.5.8 0 1.1z"/><path d="m130.2 221.1 8.5 4.9c.5.3.5.8 0 1.1s-1.3.3-1.8 0l-8.5-4.9-.7-.4-6-3.4c-.5-.3-.5-.8 0-1.1s1.3-.3 1.8 0l6 3.4z"/><path d="m117 206.8c-.5-.3-.5-.8 0-1.1s1.3-.3 1.8 0l2.1 1.2c.5.3.5.8 0 1.1s-1.3.3-1.8 0z"/><path d="m128.3 213.2-6-3.4c-.5-.3-.5-.8 0-1.1s1.3-.3 1.8 0l6 3.4c.5.3.5.8 0 1.1s-1.3.3-1.8 0z"/><path d="m125.1 206.9-4.2-2.4c-.5-.3-.5-.8 0-1.1s1.3-.3 1.8 0l4.2 2.4c.5.3.5.8 0 1.1s-1.3.3-1.8 0z"/><path d="m141.5 220.8-2-1.2-.6-.3-7.1-4c-.5-.3-.5-.8 0-1.1s1.3-.3 1.8 0l7.1 4 .6.3 2 1.2c.5.3.5.8 0 1.1s-1.3.3-1.8 0z"/><path d="m147.6 224.3-2.6-1.5c-.5-.3-.5-.8 0-1.1s1.3-.3 1.8 0l2.6 1.5c.5.3.5.8 0 1.1s-1.3.3-1.8 0z"/><path d="m117.2 223.5c-.5.3-1.3.3-1.8 0l-7.6-4.4c-.5-.3-.5-.8 0-1.1s1.3-.3 1.8 0l7.6 4.4c.5.3.5.8 0 1.1z"/><path d="m121.4 226.9-.4-.3-2.2-1.2c-.5-.3-.5-.8 0-1.1s1.3-.3 1.8 0l2.2 1.2.4.3 2.2 1.2c.5.3.5.8 0 1.1s-1.3.3-1.8 0z"/><path d="m176.7 216.4c-.7 0-1.4-.1-1.9-.5l-32.9-18.9c-.6-.4-1-.9-1-1.5 0-.7.4-1.3 1.2-1.8l7.4-4.3c1.3-.8 3.2-.8 4.4-.2l32.9 18.9c.6.4 1 .9 1 1.5 0 .7-.4 1.3-1.2 1.8l-7.4 4.3c-.8.5-1.7.7-2.5.7zm-24.7-26.3c-.6 0-1.3.2-1.8.5l-7.4 4.3c-.5.3-.6.5-.6.7s.2.3.3.4l32.9 18.9c.8.4 2.2.4 3.2-.2l7.4-4.3c.5-.3.6-.5.6-.7s-.2-.3-.3-.4l-32.9-18.9c-.5-.2-.9-.3-1.4-.3z"/><path d="m164.2 203.5-2-1.2-.6-.3-7.1-4c-.5-.3-.5-.8 0-1.1s1.3-.3 1.8 0l7.1 4 .6.3 2 1.2c.5.3.5.8 0 1.1s-1.3.3-1.8 0z"/><path d="m170.3 207-2.6-1.5c-.5-.3-.5-.8 0-1.1s1.3-.3 1.8 0l2.6 1.5c.5.3.5.8 0 1.1s-1.3.3-1.8 0z"/></g><path d="m58.169 193.1-56.19718-32.536c-2.095066-1.232-1.848588-3.204.6162-4.683l59.52468-34.509c2.3415-1.355 5.9155-1.479 8.0105-.369l56.1968 32.413c2.095 1.232 1.849 3.204-.616 4.683l-59.5244 34.509c-2.3416 1.478-5.9155 1.602-8.0106.492z" fill="#4d4d4d" opacity=".6"/><path d="m127.183 52.9718c.863-1.2324.616-2.4649-.863-3.3276l-56.1967-32.4132c-2.0951-1.2324-5.6691-.986-8.0106.3697l-59.52466 34.5084c-1.971829 1.1092-2.464787 2.7114-1.47887 3.9438h-.492959v76.4111c0 .74.369718 1.479 1.355629 2.096l56.19716 32.413c2.0951 1.232 5.669.986 8.0106-.37l59.5244-34.508c1.233-.74 1.849-1.603 1.972-2.465v-76.6582z" fill="url(#o)"/><path d="m62.3593 81.1949c-1.1092 0-2.0951-.2465-2.8345-.6163l-39.8064-23.0466c-.8626-.493-1.3556-1.2325-1.3556-2.0952 0-.9859.6162-1.8486 1.7253-2.4649l42.1479-24.4023c1.9719-1.1092 4.8064-1.2325 6.4085-.2465l39.8065 23.0467c.862.4929 1.355 1.2324 1.355 2.0951 0 .986-.616 1.8487-1.725 2.4649l-42.1478 24.4023c-.9859.6163-2.3415.8628-3.5739.8628zm3.5739-52.1323c-.9859 0-2.095.2464-2.8345.7394l-42.2711 24.4024c-.6162.3697-.9859.8627-.9859 1.2324s.3697.6162.6162.7395l39.8063 23.0467c1.2324.7394 3.4507.6162 4.9296-.2465l42.1482-24.4024c.616-.3697.986-.8627.986-1.2324 0-.3698-.37-.6163-.617-.7395l-39.6827-23.0467c-.6162-.2465-1.3556-.4929-2.0951-.4929z" fill="#f16822"/><path d="m125.704 54.3276-59.5243 34.3851c-2.3416 1.3557-5.9155 1.4789-8.0106.3697l-56.19716-32.4132c-.6162-.3697-1.109154-.8627-1.232394-1.3557-.369718.986.12324 1.9719 1.232394 2.5882l56.19716 32.4132c2.0951 1.2324 5.669.9859 8.0106-.3698l59.5243-34.5083c1.602-.8627 2.219-2.2184 1.849-3.2044-.247.7395-.863 1.4789-1.849 2.0952z" fill="#4d4d4d"/><path d="m61.6197 74.6636c-1.3556 0-2.7112-.2465-3.8204-.8627l-56.07395-32.4133c-1.109153-.6162-1.72535-1.6021-1.72535-2.5881 0-1.1092.862676-2.3416 2.21831-3.2043l59.52469-34.38517c2.588-1.478927 6.4084-1.602171 8.6267-.369728l56.1973 32.413198c1.109.6163 1.725 1.479 1.725 2.5882 0 1.2324-.862 2.3416-2.218 3.2043l-59.5247 34.3852c-1.4789.8627-3.2042 1.2324-4.9296 1.2324zm-3.2042-1.9719c1.8486 1.1092 5.2993.8627 7.3944-.3697l59.5251-34.5084c1.109-.6163 1.602-1.3557 1.602-2.0952 0-.7394-.617-1.2324-1.11-1.4789l-56.0735-32.29c-1.8486-1.109198-5.2993-.86271-7.3943.36973l-59.52469 34.50837c-.98592.493-1.60212 1.2325-1.60212 1.9719 0 .7395.6162 1.2325 1.10916 1.479z" fill="#e8975b"/><path d="m58.169 73.184-56.19718-32.4132c-2.095066-1.2324-1.848588-3.2043.6162-4.6833l59.52468-34.50837c2.3415-1.355682 5.9155-1.478926 8.0105-.36973l56.1968 32.4132c2.095 1.2325 1.849 3.2044-.616 4.6833l-59.5244 34.5084c-2.3416 1.4789-5.9155 1.6022-8.0106.3697z" fill="url(#p)" opacity=".2"/><path d="m8.75 123.344v-45.9696c0-1.7255 1.3556-2.2184 3.081-1.2325l42.2711 24.2791c1.7254.986 3.081 3.081 3.081 4.807v45.97c0 1.725-1.3556 2.218-3.081 1.232l-42.2711-24.279c-1.7254-.986-3.081-3.204-3.081-4.807z" fill="url(#q)"/><path d="m14.9122 125.932c-1.7254-.985-3.081-3.081-3.081-4.806v-44.9842h-.1233c-1.72531-.9859-3.08095-.3697-3.08095 1.2325v45.9697c0 1.726 1.35564 3.821 3.08095 4.807l42.2712 24.279c1.7253.986 3.081.37 3.081-1.232v-.986z" fill="url(#r)"/><path d="m21.074 110.404c-.6162-.37-1.1092-.123-1.1092.616v4.314c0 .739.493 1.602 1.1092 1.971.6162.37 1.1092.124 1.1092-.616v-4.313c.1232-.74-.493-1.603-1.1092-1.972z" fill="#fff"/><path d="m26.0037 113.855c-.6162-.37-1.1092-.124-1.1092.616v3.82c0 .74.493 1.603 1.1092 1.972.6162.37 1.1091.124 1.1091-.616v-3.82c.1233-.74-.4929-1.603-1.1091-1.972z" fill="#fff"/><path d="m30.9334 112.376c-.6162-.37-1.1092-.124-1.1092.616v8.011c0 .739.493 1.602 1.1092 1.972.6162.369 1.1091.123 1.1091-.617v-8.01c0-.617-.4929-1.603-1.1091-1.972z" fill="#fff"/><path d="m35.8626 110.65c-.6162-.369-1.1092-.123-1.1092.617v12.694c0 .739.493 1.602 1.1092 1.972.6162.369 1.1091.123 1.1091-.617v-12.694c0-.739-.4929-1.602-1.1091-1.972z" fill="#fff"/><path d="m40.7923 114.841c-.6162-.37-1.1092-.124-1.1092.616v11.338c0 .74.493 1.602 1.1092 1.972s1.1091.123 1.1091-.616v-11.339c0-.739-.4929-1.602-1.1091-1.971z" fill="#fff"/><path d="m45.7219 109.171c-.6162-.369-1.1091-.123-1.1091.617v19.719c0 .739.4929 1.602 1.1091 1.972.6162.369 1.1092.123 1.1092-.617v-19.719c0-.739-.493-1.602-1.1092-1.972z" fill="#fff"/><path d="m22.1832 108.185c0 .74-.493.986-1.1092.616-.6162-.369-1.1092-1.232-1.1092-1.971 0-.74.493-.986 1.1092-.617.6162.37 1.1092 1.356 1.1092 1.972z" fill="#fff"/><path d="m21.8773 104.91c.4126-.238.3884-1.053-.0541-1.819s-1.1357-1.194-1.5483-.956-.3883 1.053.0542 1.819 1.1356 1.194 1.5482.956z" fill="#fff"/><path d="m115.968 127.781-39.0669 22.554c-1.2324.739-2.3415 0-2.3415-1.725v-47.573c0-1.7252.9859-3.6971 2.3415-4.4365l39.0669-22.5537c1.232-.7395 2.342 0 2.342 1.7254v47.6958c-.124 1.725-1.11 3.697-2.342 4.313z" fill="url(#s)"/><path d="m115.968 74.0482-.616.3698v47.449c0 1.725-.986 3.697-2.342 4.437l-38.4504 22.184v.246c0 1.726.9859 2.465 2.3415 1.726l39.0669-22.554c1.232-.74 2.342-2.711 2.342-4.437v-47.6954c-.124-1.6021-1.11-2.4648-2.342-1.7254z" fill="url(#t)" opacity=".4"/><path d="m265.805 97.917c15.438 8.714 27.861 29.865 27.861 47.151-.072 17.357-12.566 24.313-28.005 15.6-15.438-8.713-27.932-29.794-27.932-47.151.071-17.3567 12.637-24.3134 28.076-15.6z" fill="url(#u)"/><path d="m270.54 93.8883c-7.845-4.5023-14.939-4.9116-20.056-1.9783l-7.231 4.1612c5.117-3.0015 12.211-2.5922 20.056 1.9783 15.553 9.0045 28.173 30.8335 28.105 48.7065 0 8.868-3.206 15.144-8.254 18.077l7.231-4.161c5.048-2.933 8.186-9.209 8.254-18.077.068-17.873-12.552-39.77-28.105-48.7067z" fill="#f16822"/><path d="m263.31 98.0496c15.553 9.0044 28.173 30.8334 28.105 48.7064s-12.757 25.104-28.31 16.167c-15.485-9.004-28.105-30.834-28.105-48.706.068-17.9411 12.961-25.5131 28.31-16.1674zm-.137 60.9854c13.712 7.913 24.899 1.569 24.899-14.189.069-15.758-11.051-34.995-24.762-42.908-13.643-7.9132-24.831-1.501-24.899 14.189-.068 15.758 11.051 34.995 24.762 42.908z" fill="url(#v)"/><path d="m249.323 132.908 2.456-1.432 3.343 1.978-2.456 1.364z" fill="#f16822"/><path d="m252.665 134.818 2.456-1.364 1.773 1.023-2.387 1.364z" fill="#f16822"/><path d="m247.825 128.133 2.388-1.364 4.911 2.797-2.387 1.432z" fill="#fff"/><path d="m256.285 126.905 2.388-1.364v9.959l-2.388 1.365z" fill="#fff"/><path d="m254.51 135.841 2.388-1.364 1.773 1.023-2.387 1.365z" fill="#f16822"/><path d="m260.922 134.955 2.388-1.433 2.456 4.229-2.388 1.433z" fill="#f16822"/><path d="m256.285 126.905 2.388-1.364 4.638 7.981-2.387 1.433z" fill="#f16822"/><path d="m263.379 139.184 2.388-1.432 2.456-1.365-2.388 1.365z" fill="#f16822"/><path d="m252.736 115.172 2.456-1.433-.069 15.826-2.387 1.433z" fill="#f16822"/><path d="m252.736 115.172 2.456-1.433 10.573 18.419-2.387 1.364z" fill="#fff"/><path d="m270.408 145.051 2.456-1.364.341.204-2.388 1.365z" fill="#f16822"/><path d="m270.813 145.255 2.388-1.364 3.206 1.842-2.388 1.364z" fill="#f16822"/><path d="m274.019 147.097 2.388-1.364 3.342 1.91-2.387 1.433z" fill="#f16822"/><path d="m270.476 135.091 2.388-1.364v9.959l-2.456 1.365z" fill="#f16822"/><path d="m265.834 137.752 2.388-1.365 4.639-2.66-2.388 1.364z" fill="#f16822"/><path d="m270.47 135.091v9.96l.341.204 3.207 1.842 3.342 1.91c-2.865 3.752-8.118 4.366-14.052.955-5.935-3.411-11.12-10.028-13.985-17.122l3.343 1.91 1.773 1.023 1.774 1.023v-9.959l4.707 8.118 2.456 4.229 2.456-1.432z" fill="#f16822"/><path d="m274.019 143.277 2.388-1.433 4.911 2.866-2.387 1.364z" fill="#fff"/><path d="m274.019 127.451 2.456-1.433-.068 15.827-2.388 1.432z" fill="#fff"/><path d="m263.379 133.522 2.388-1.364 10.71-6.14-2.456 1.433z" fill="#fff"/><path d="m274.018 127.451v15.826l4.912 2.797c-.41 1.16-.887 2.115-1.569 2.933l-3.343-1.91-3.206-1.842-.341-.204v-9.96l-4.639 2.66-2.456 1.433-2.455-4.229-4.639-8.05v9.96l-1.774-1.024-1.773-1.023-3.411-1.91c-.614-1.569-1.16-3.138-1.569-4.707l4.98 2.797v-15.826l10.641 18.35z" fill="#fff"/><path d="m273.475 117.559c-1.228-1.432-2.456-2.728-3.82-3.888-1.228-1.023-2.524-1.978-3.82-2.729-4.571-2.592-8.664-2.865-11.665-1.159l-2.388 1.364c3.002-1.705 7.095-1.501 11.665 1.16 1.296.75 2.592 1.637 3.82 2.728 1.365 1.16 2.661 2.456 3.82 3.889 5.185 6.139 8.732 14.462 8.664 21.693v.204.205c-.068 1.91-.341 3.547-.819 4.98-.409 1.091-.886 2.046-1.5 2.865-.683.887-1.569 1.705-2.456 2.183l2.387-1.365c.887-.545 1.706-1.228 2.388-2.114.614-.819 1.16-1.842 1.569-2.934.477-1.432.818-3.069.818-4.979 0-.069 0-.137 0-.205s0-.137 0-.205c.069-7.231-3.479-15.553-8.663-21.693z" fill="#d84b0e"/><path d="m263.446 112.375c2.729 1.569 5.321 3.888 7.64 6.549 5.185 6.139 8.732 14.462 8.664 21.693v.204.205c-.069 1.91-.341 3.547-.819 4.98l-4.911-2.729.068-15.826-10.71 6.071-10.642-18.35v15.826l-4.912-2.797c-.477-1.91-.75-3.82-.818-5.662 0-.068 0-.136 0-.204 0-.137 0-.137 0-.205 0-.136 0-.205 0-.273 0-10.505 7.367-14.735 16.44-9.482z" fill="#f16822"/><path d="m263.45 112.375c2.728 1.569 5.321 3.889 7.64 6.549-2.319-2.66-4.912-4.98-7.64-6.549z" fill="#d84b0e"/><path d="m265.289 159.035c-14.667-8.459-26.468-28.992-26.468-45.773 0-1.637.136-3.206.341-4.639-.682 2.183-1.091 4.707-1.091 7.572-.069 15.758 11.051 34.995 24.762 42.908 4.161 2.388 8.05 3.479 11.529 3.411-2.865-.546-5.935-1.637-9.073-3.479z" fill="#a14011"/><g fill="#d84b0e" mask="url(#w)" opacity=".48"><path d="m268.86 81.9218-48.501 28.0032.785 1.358 48.501-28.0025z"/><path d="m271.111 84.1744-48.501 28.0026.784 1.359 48.501-28.0028z"/><path d="m273.36 86.4266-48.501 28.0024.784 1.359 48.501-28.0026z"/><path d="m275.61 88.6788-48.501 28.0032.785 1.358 48.501-28.0024z"/><path d="m277.863 90.931-48.501 28.003.784 1.359 48.501-28.0032z"/><path d="m280.114 93.1832-48.501 28.0028.784 1.359 48.501-28.003z"/><path d="m282.364 95.4354-48.501 28.0026.785 1.359 48.501-28.0028z"/><path d="m284.613 97.6879-48.501 28.0031.785 1.358 48.501-28.0024z"/><path d="m286.864 99.9403-48.501 28.0027.784 1.359 48.501-28.003z"/><path d="m289.114 102.193-48.501 28.002.785 1.359 48.501-28.003z"/><path d="m291.363 104.445-48.501 28.003.785 1.358 48.501-28.003z"/><path d="m293.614 106.697-48.501 28.003.784 1.358 48.501-28.002z"/><path d="m295.865 108.949-48.501 28.003.784 1.359 48.501-28.003z"/><path d="m298.113 111.202-48.501 28.002.785 1.359 48.501-28.003z"/><path d="m300.366 113.454-48.501 28.003.784 1.359 48.501-28.003z"/><path d="m302.617 115.706-48.501 28.003.784 1.359 48.501-28.003z"/><path d="m304.867 117.958-48.501 28.003.785 1.359 48.501-28.003z"/><path d="m307.118 120.211-48.501 28.002.784 1.359 48.501-28.003z"/><path d="m309.367 122.463-48.501 28.003.784 1.358 48.501-28.002z"/><path d="m311.617 124.715-48.501 28.003.785 1.359 48.501-28.003z"/><path d="m313.868 126.967-48.501 28.003.785 1.359 48.501-28.003z"/><path d="m316.117 129.22-48.501 28.003.784 1.358 48.501-28.002z"/><path d="m318.369 131.472-48.501 28.003.785 1.359 48.501-28.003z"/><path d="m320.62 133.724-48.501 28.003.785 1.359 48.5-28.003z"/><path d="m322.87 135.976-48.5 28.003.784 1.359 48.501-28.003z"/><path d="m325.119 138.229-48.5 28.003.784 1.358 48.501-28.002z"/></g></svg>