<svg width="381" height="320" viewBox="0 0 381 320" fill="none" xmlns="http://www.w3.org/2000/svg">
<line x1="228.087" y1="256.724" x2="158.753" y2="217.435" stroke="url(#paint0_linear_0_9037)"/>
<line x1="238.087" y1="250.724" x2="168.753" y2="211.435" stroke="url(#paint1_linear_0_9037)"/>
<line x1="248.087" y1="245.724" x2="178.753" y2="206.435" stroke="url(#paint2_linear_0_9037)"/>
<line x1="258.087" y1="239.724" x2="188.753" y2="200.435" stroke="url(#paint3_linear_0_9037)"/>
<path d="M238.035 67.7285L122.035 0.728528C120.735 -0.0714716 119.335 -0.171472 118.135 0.228528L117.935 0.328528C117.935 0.328528 117.935 0.328528 117.835 0.328528L113.635 1.92853L117.435 3.72853C117.435 3.82853 117.435 3.82853 117.335 3.92853L98.4347 89.9285C97.5347 94.2285 99.3347 99.2285 102.635 101.129L215.835 166.429L215.435 171.229L220.035 169.429C221.535 168.729 222.835 167.129 223.335 164.729L242.235 78.7285C243.235 74.6285 241.335 69.6285 238.035 67.7285Z" fill="#D0D0D0"/>
<path d="M238.035 67.7285L122.035 0.728528C120.735 -0.0714716 119.335 -0.171472 118.135 0.228528L117.935 0.328528C117.935 0.328528 117.935 0.328528 117.835 0.328528L113.635 1.92853L117.435 3.72853C117.435 3.82853 117.435 3.82853 117.335 3.92853L105.035 60.7285L161.735 104.929L241.735 72.3285C240.935 70.3285 239.735 68.6285 238.035 67.7285Z" fill="#727272"/>
<path d="M233.735 80.9286L242.535 77.1286C242.735 73.7286 241.235 70.1286 238.935 68.3286L224.935 74.2286L233.735 80.9286Z" fill="#727272"/>
<path d="M211.535 170.929L95.5348 103.929C92.2348 102.029 90.3347 97.0285 91.3347 92.7285L110.235 6.72854C111.135 2.42854 114.635 0.428539 117.935 2.32854L233.935 69.3285C237.235 71.2285 239.135 76.2285 238.135 80.5285L219.235 166.529C218.235 170.829 214.835 172.829 211.535 170.929Z" fill="#939393"/>
<path d="M209.035 164.529L99.9348 101.629C96.9348 99.9285 95.2348 95.3285 96.0348 91.3285L113.335 12.6285C114.235 8.72851 117.335 6.92851 120.335 8.62851L229.435 71.5285C232.435 73.2285 234.135 77.8285 233.335 81.8285L216.035 160.529C215.135 164.429 212.035 166.229 209.035 164.529Z" fill="white"/>
<path d="M209.035 164.529L99.9348 101.629C96.9348 99.9285 95.2348 95.3285 96.0348 91.3285L113.335 12.6285C114.235 8.72851 117.335 6.92851 120.335 8.62851L229.435 71.5285C232.435 73.2285 234.135 77.8285 233.335 81.8285L216.035 160.529C215.135 164.429 212.035 166.229 209.035 164.529Z" fill="url(#paint4_linear_0_9037)"/>
<path d="M213.135 173.829L197.235 171.729L94.9348 112.629C91.6348 110.729 85.9348 110.929 82.1348 113.129L9.63479 154.929L0.0347961 153.629V159.029C-0.0652039 160.329 0.734801 161.529 2.2348 162.429L118.235 229.429C121.535 231.329 127.235 231.129 131.035 228.929L210.035 183.329C212.135 182.129 213.235 180.529 213.135 179.029V173.829Z" fill="#D0D0D0"/>
<path d="M136.235 136.529L128.935 132.329H49.0348L9.63479 155.029L0.0347961 153.729V159.129C-0.0652039 160.429 0.734801 161.629 2.2348 162.529L118.235 229.529C119.935 230.529 122.435 230.929 124.835 230.729L136.235 136.529Z" fill="#727272"/>
<path d="M4.3348 154.329L0.0347961 153.729V159.129C-0.0652039 160.429 0.734801 161.629 2.2348 162.529L4.2348 163.729V154.329H4.3348Z" fill="url(#paint5_linear_0_9037)"/>
<path d="M119.435 230.029C122.535 231.229 127.035 230.929 130.335 229.329V217.229H119.435V230.029Z" fill="#727272"/>
<path d="M118.235 224.129L2.23479 157.129C-1.06521 155.229 -0.665217 151.929 3.13478 149.729L82.1348 104.129C85.9348 101.929 91.6348 101.729 94.9348 103.629L210.935 170.629C214.235 172.529 213.835 175.829 210.035 178.029L131.035 223.629C127.235 225.729 121.535 226.029 118.235 224.129Z" fill="url(#paint6_linear_0_9037)"/>
<path d="M210.035 176.028L131.035 221.628C127.235 223.828 121.535 224.028 118.235 222.128L2.23477 155.128C1.13477 154.528 0.534766 153.728 0.234766 152.928C-0.265234 154.528 0.334766 156.028 2.23477 157.128L118.235 224.128C121.535 226.028 127.235 225.828 131.035 223.628L210.035 178.028C212.535 176.528 213.635 174.628 213.035 172.828C212.635 173.928 211.635 175.028 210.035 176.028Z" fill="white"/>
<path d="M51.6348 134.929L46.4348 131.929C46.0348 131.729 46.0348 131.229 46.5348 131.029L52.7348 127.429C53.2348 127.129 53.9348 127.129 54.3348 127.329L59.5348 130.329C59.9348 130.529 59.9348 131.029 59.4348 131.229L53.2348 134.829C52.7348 135.229 52.0348 135.229 51.6348 134.929Z" fill="#FFBE9D"/>
<path d="M59.7348 139.629L54.5348 136.629C54.1348 136.429 54.1348 135.929 54.6348 135.729L60.8348 132.129C61.3348 131.829 62.0348 131.829 62.4348 132.029L67.6348 135.029C68.0348 135.229 68.0348 135.729 67.5348 135.929L61.3348 139.529C60.8348 139.829 60.1348 139.929 59.7348 139.629Z" fill="#FFBE9D"/>
<path d="M67.8348 144.329L62.6348 141.329C62.2348 141.129 62.2348 140.628 62.7348 140.428L68.9348 136.829C69.4348 136.529 70.1348 136.528 70.5348 136.728L75.7348 139.728C76.1348 139.928 76.1348 140.428 75.6348 140.628L69.4348 144.228C68.9348 144.528 68.2348 144.529 67.8348 144.329Z" fill="#FFBE9D"/>
<path d="M79.0348 140.428L73.8348 137.428C73.4348 137.228 73.4348 136.728 73.9348 136.528L79.1348 133.528C79.6348 133.228 80.3348 133.228 80.7348 133.428L85.9348 136.428C86.3348 136.628 86.3348 137.128 85.8348 137.328L80.6348 140.328C80.1348 140.628 79.4348 140.728 79.0348 140.428Z" fill="#FFBE9D"/>
<path d="M87.1348 145.128L81.9348 142.128C81.5348 141.928 81.5348 141.428 82.0348 141.228L87.2348 138.228C87.7348 137.928 88.4348 137.928 88.8348 138.128L94.0348 141.128C94.4348 141.328 94.4348 141.828 93.9348 142.028L88.7348 145.028C88.2348 145.328 87.5348 145.428 87.1348 145.128Z" fill="#FFBE9D"/>
<path d="M95.2348 149.829L90.0348 146.829C89.6348 146.629 89.6348 146.129 90.1348 145.929L95.3348 142.929C95.8348 142.629 96.5348 142.629 96.9348 142.829L102.135 145.829C102.535 146.029 102.535 146.529 102.035 146.729L96.8348 149.729C96.3348 150.029 95.6348 150.029 95.2348 149.829Z" fill="#FFBE9D"/>
<path d="M103.335 154.529L98.1348 151.529C97.7348 151.329 97.7348 150.829 98.2348 150.629L103.435 147.629C103.935 147.329 104.635 147.329 105.035 147.529L110.235 150.529C110.635 150.729 110.635 151.229 110.135 151.429L104.935 154.429C104.435 154.729 103.735 154.729 103.335 154.529Z" fill="#FFBE9D"/>
<path d="M111.435 159.128L106.235 156.128C105.835 155.928 105.835 155.428 106.335 155.228L111.535 152.228C112.035 151.928 112.735 151.928 113.135 152.128L118.335 155.128C118.735 155.328 118.735 155.828 118.235 156.028L113.035 159.028C112.535 159.428 111.835 159.428 111.435 159.128Z" fill="#FFBE9D"/>
<path d="M119.535 163.829L114.335 160.829C113.935 160.629 113.935 160.129 114.435 159.929L119.635 156.929C120.135 156.629 120.835 156.629 121.235 156.829L126.435 159.829C126.835 160.029 126.835 160.529 126.335 160.729L121.135 163.729C120.635 164.029 119.935 164.129 119.535 163.829Z" fill="#FFBE9D"/>
<path d="M127.635 168.529L122.435 165.529C122.035 165.329 122.035 164.829 122.535 164.629L127.735 161.629C128.235 161.329 128.935 161.329 129.335 161.529L134.535 164.529C134.935 164.729 134.935 165.229 134.435 165.429L129.235 168.429C128.735 168.729 128.035 168.729 127.635 168.529Z" fill="#FFBE9D"/>
<path d="M135.735 173.228L130.535 170.228C130.135 170.028 130.135 169.529 130.635 169.329L135.835 166.329C136.335 166.029 137.035 166.028 137.435 166.228L142.635 169.228C143.035 169.428 143.035 169.928 142.535 170.128L137.335 173.128C136.935 173.428 136.135 173.428 135.735 173.228Z" fill="#FFBE9D"/>
<path d="M143.835 177.928L138.635 174.928C138.235 174.728 138.235 174.228 138.735 174.028L143.935 171.028C144.435 170.728 145.135 170.728 145.535 170.928L150.735 173.928C151.135 174.128 151.135 174.628 150.635 174.828L145.435 177.828C145.035 178.128 144.235 178.128 143.835 177.928Z" fill="#FFBE9D"/>
<path d="M151.935 182.529L146.735 179.529C146.335 179.329 146.335 178.829 146.835 178.629L152.035 175.629C152.535 175.329 153.235 175.329 153.635 175.529L158.835 178.529C159.235 178.729 159.235 179.229 158.735 179.429L153.535 182.429C153.135 182.829 152.335 182.829 151.935 182.529Z" fill="#FFBE9D"/>
<path d="M90.9348 138.228L85.7348 135.228C85.3348 135.028 85.3348 134.529 85.8348 134.329L91.0348 131.329C91.5348 131.029 92.2348 131.028 92.6348 131.228L97.8348 134.228C98.2348 134.428 98.2348 134.928 97.7348 135.128L92.5348 138.128C92.1348 138.428 91.3348 138.528 90.9348 138.228Z" fill="#FFBE9D"/>
<path d="M82.7348 133.529L77.5348 130.529C77.1348 130.329 77.1348 129.829 77.6348 129.629L82.8348 126.629C83.3348 126.329 84.0348 126.329 84.4348 126.529L89.6348 129.529C90.0348 129.729 90.0348 130.229 89.5348 130.429L84.3348 133.429C83.8348 133.729 83.1348 133.729 82.7348 133.529Z" fill="#FFBE9D"/>
<path d="M74.5348 128.728L63.2348 122.228C62.8348 122.028 62.8348 121.528 63.3348 121.328L68.5348 118.328C69.0348 118.028 69.7348 118.028 70.1348 118.228L81.4348 124.728C81.8348 124.928 81.8348 125.428 81.3348 125.628L76.1348 128.628C75.6348 128.928 74.9348 129.028 74.5348 128.728Z" fill="#FFBE9D"/>
<path d="M80.2348 122.928L71.0348 117.628C70.6348 117.428 70.6348 116.928 71.1348 116.728L76.3348 113.728C76.8348 113.428 77.5348 113.428 77.9348 113.628L87.1348 118.928C87.5348 119.128 87.5348 119.628 87.0348 119.828L81.8348 122.828C81.4348 123.128 80.6348 123.228 80.2348 122.928Z" fill="#FFBE9D"/>
<path d="M99.0348 142.928L93.8348 139.928C93.4348 139.728 93.4348 139.228 93.9348 139.028L99.1348 136.028C99.6348 135.728 100.335 135.728 100.735 135.928L105.935 138.928C106.335 139.128 106.335 139.628 105.835 139.828L100.635 142.828C100.235 143.128 99.4348 143.128 99.0348 142.928Z" fill="#FFBE9D"/>
<path d="M107.135 147.628L101.935 144.628C101.535 144.428 101.535 143.928 102.035 143.728L107.235 140.728C107.735 140.428 108.435 140.428 108.835 140.628L114.035 143.628C114.435 143.828 114.435 144.328 113.935 144.528L108.735 147.528C108.335 147.828 107.535 147.828 107.135 147.628Z" fill="#FFBE9D"/>
<path d="M115.235 152.329L110.035 149.329C109.635 149.129 109.635 148.629 110.135 148.429L115.335 145.429C115.835 145.129 116.535 145.129 116.935 145.329L122.135 148.329C122.535 148.529 122.535 149.029 122.035 149.229L116.835 152.229C116.435 152.529 115.635 152.529 115.235 152.329Z" fill="#FFBE9D"/>
<path d="M123.335 156.928L118.135 153.928C117.735 153.728 117.735 153.228 118.235 153.028L123.435 150.028C123.935 149.728 124.635 149.728 125.035 149.928L130.235 152.928C130.635 153.128 130.635 153.628 130.135 153.828L124.935 156.828C124.535 157.128 123.735 157.228 123.335 156.928Z" fill="#FFBE9D"/>
<path d="M131.435 161.628L126.235 158.628C125.835 158.428 125.835 157.928 126.335 157.728L131.535 154.728C132.035 154.428 132.735 154.428 133.135 154.628L138.335 157.628C138.735 157.828 138.735 158.328 138.235 158.528L133.035 161.528C132.635 161.828 131.935 161.928 131.435 161.628Z" fill="#FFBE9D"/>
<path d="M139.535 166.329L134.335 163.329C133.935 163.129 133.935 162.629 134.435 162.429L139.635 159.429C140.135 159.129 140.835 159.129 141.235 159.329L146.435 162.329C146.835 162.529 146.835 163.029 146.335 163.229L141.135 166.229C140.735 166.529 140.035 166.529 139.535 166.329Z" fill="#FFBE9D"/>
<path d="M147.635 171.029L142.435 168.029C142.035 167.829 142.035 167.329 142.535 167.129L147.735 164.129C148.235 163.829 148.935 163.829 149.335 164.029L154.535 167.029C154.935 167.229 154.935 167.729 154.435 167.929L149.235 170.929C148.835 171.229 148.135 171.229 147.635 171.029Z" fill="#FFBE9D"/>
<path d="M155.735 175.628L150.535 172.628C150.135 172.428 150.135 171.928 150.635 171.728L155.835 168.728C156.335 168.428 157.035 168.428 157.435 168.628L162.635 171.628C163.035 171.828 163.035 172.328 162.535 172.528L157.335 175.528C156.935 175.928 156.235 175.928 155.735 175.628Z" fill="#FFBE9D"/>
<path d="M163.835 180.329L158.635 177.329C158.235 177.129 158.235 176.629 158.735 176.429L163.935 173.429C164.435 173.129 165.135 173.129 165.535 173.329L170.735 176.329C171.135 176.529 171.135 177.029 170.635 177.229L165.435 180.229C165.035 180.529 164.335 180.629 163.835 180.329Z" fill="#FFBE9D"/>
<path d="M178.235 188.629L166.835 182.029C166.435 181.829 166.435 181.329 166.935 181.129L172.135 178.129C172.635 177.829 173.335 177.829 173.735 178.029L185.135 184.629C185.535 184.829 185.535 185.329 185.035 185.529L179.835 188.529C179.435 188.929 178.735 188.929 178.235 188.629Z" fill="#FFBE9D"/>
<path d="M194.035 179.528L184.335 173.928C183.935 173.728 183.935 173.228 184.435 173.028L189.635 170.028C190.135 169.728 190.835 169.728 191.235 169.928L200.935 175.528C201.335 175.728 201.335 176.228 200.835 176.428L195.635 179.428C195.235 179.728 194.435 179.828 194.035 179.528Z" fill="#FFBE9D"/>
<path d="M113.235 142.029L108.035 139.029C107.635 138.829 107.635 138.329 108.135 138.129L113.335 135.129C113.835 134.829 114.535 134.829 114.935 135.029L120.135 138.029C120.535 138.229 120.535 138.729 120.035 138.929L114.835 141.929C114.435 142.229 113.635 142.229 113.235 142.029Z" fill="#FFBE9D"/>
<path d="M104.935 137.228L99.7348 134.228C99.3348 134.028 99.3348 133.529 99.8348 133.329L105.035 130.329C105.535 130.029 106.235 130.028 106.635 130.228L111.835 133.228C112.235 133.428 112.235 133.928 111.735 134.128L106.535 137.128C106.135 137.428 105.335 137.428 104.935 137.228Z" fill="#FFBE9D"/>
<path d="M96.6348 132.428L91.4348 129.428C91.0348 129.228 91.0348 128.728 91.5348 128.528L96.7348 125.528C97.2348 125.228 97.9348 125.228 98.3348 125.428L103.535 128.428C103.935 128.628 103.935 129.128 103.435 129.328L98.2348 132.328C97.8348 132.628 97.0348 132.628 96.6348 132.428Z" fill="#FFBE9D"/>
<path d="M88.3348 127.628L83.1348 124.628C82.7348 124.428 82.7348 123.928 83.2348 123.728L88.4348 120.728C88.9348 120.428 89.6348 120.428 90.0348 120.628L95.2348 123.628C95.6348 123.828 95.6348 124.328 95.1348 124.528L89.9348 127.528C89.5348 127.828 88.7348 127.828 88.3348 127.628Z" fill="#FFBE9D"/>
<path d="M121.335 146.728L116.135 143.728C115.735 143.528 115.735 143.029 116.235 142.829L121.435 139.829C121.935 139.529 122.635 139.528 123.035 139.728L128.235 142.728C128.635 142.928 128.635 143.428 128.135 143.628L122.935 146.628C122.535 146.928 121.735 146.928 121.335 146.728Z" fill="#FFBE9D"/>
<path d="M129.435 151.329L124.235 148.329C123.835 148.129 123.835 147.629 124.335 147.429L129.535 144.429C130.035 144.129 130.735 144.129 131.135 144.329L136.335 147.329C136.735 147.529 136.735 148.029 136.235 148.229L131.035 151.229C130.635 151.629 129.835 151.629 129.435 151.329Z" fill="#FFBE9D"/>
<path d="M137.535 156.029L132.335 153.029C131.935 152.829 131.935 152.329 132.435 152.129L137.635 149.129C138.135 148.829 138.835 148.829 139.235 149.029L144.435 152.029C144.835 152.229 144.835 152.729 144.335 152.929L139.135 155.929C138.735 156.229 137.935 156.329 137.535 156.029Z" fill="#FFBE9D"/>
<path d="M145.635 160.728L140.435 157.728C140.035 157.528 140.035 157.029 140.535 156.829L145.735 153.829C146.235 153.529 146.935 153.528 147.335 153.728L152.535 156.728C152.935 156.928 152.935 157.428 152.435 157.628L147.235 160.628C146.835 160.928 146.035 160.928 145.635 160.728Z" fill="#FFBE9D"/>
<path d="M153.735 165.428L148.535 162.428C148.135 162.228 148.135 161.728 148.635 161.528L153.835 158.528C154.335 158.228 155.035 158.228 155.435 158.428L160.635 161.428C161.035 161.628 161.035 162.128 160.535 162.328L155.335 165.328C154.935 165.628 154.135 165.628 153.735 165.428Z" fill="#FFBE9D"/>
<path d="M161.835 170.128L156.635 167.128C156.235 166.928 156.235 166.428 156.735 166.228L161.935 163.228C162.435 162.928 163.135 162.928 163.535 163.128L168.735 166.128C169.135 166.328 169.135 166.828 168.635 167.028L163.435 170.028C163.035 170.328 162.235 170.328 161.835 170.128Z" fill="#FFBE9D"/>
<path d="M169.935 174.728L164.735 171.728C164.335 171.528 164.335 171.029 164.835 170.829L170.035 167.829C170.535 167.529 171.235 167.528 171.635 167.728L176.835 170.728C177.235 170.928 177.235 171.428 176.735 171.628L171.535 174.628C171.135 174.928 170.335 175.028 169.935 174.728Z" fill="#FFBE9D"/>
<path d="M178.035 179.428L172.835 176.428C172.435 176.228 172.435 175.728 172.935 175.528L178.135 172.528C178.635 172.228 179.335 172.228 179.735 172.428L184.935 175.428C185.335 175.628 185.335 176.128 184.835 176.328L179.635 179.328C179.235 179.628 178.535 179.728 178.035 179.428Z" fill="#FFBE9D"/>
<path d="M186.135 184.128L180.935 181.128C180.535 180.928 180.535 180.428 181.035 180.228L186.235 177.228C186.735 176.928 187.435 176.928 187.835 177.128L193.035 180.128C193.435 180.328 193.435 180.828 192.935 181.028L187.735 184.028C187.335 184.328 186.635 184.328 186.135 184.128Z" fill="#FFBE9D"/>
<path d="M108.935 130.428L103.735 127.428C103.335 127.228 103.335 126.728 103.835 126.528L109.035 123.528C109.535 123.228 110.235 123.228 110.635 123.428L115.835 126.428C116.235 126.628 116.235 127.128 115.735 127.328L110.535 130.328C110.135 130.628 109.435 130.728 108.935 130.428Z" fill="#FFBE9D"/>
<path d="M100.935 125.829L95.7348 122.829C95.3348 122.629 95.3348 122.129 95.8348 121.929L101.035 118.929C101.535 118.629 102.235 118.629 102.635 118.829L107.835 121.829C108.235 122.029 108.235 122.529 107.735 122.729L102.535 125.729C102.035 126.029 101.335 126.029 100.935 125.829Z" fill="#FFBE9D"/>
<path d="M92.8348 121.128L87.6348 118.128C87.2348 117.928 87.2348 117.428 87.7348 117.228L92.9348 114.228C93.4348 113.928 94.1348 113.928 94.5348 114.128L99.7348 117.128C100.135 117.328 100.135 117.828 99.6348 118.028L94.4348 121.028C94.0348 121.328 93.2348 121.328 92.8348 121.128Z" fill="#FFBE9D"/>
<path d="M84.8348 116.428L79.6348 113.428C79.2348 113.228 79.2348 112.728 79.7348 112.528L84.9348 109.528C85.4348 109.228 86.1348 109.228 86.5348 109.428L91.7348 112.428C92.1348 112.628 92.1348 113.128 91.6348 113.328L86.4348 116.328C85.9348 116.728 85.2348 116.728 84.8348 116.428Z" fill="#FFBE9D"/>
<path d="M93.0348 111.728L87.8348 108.728C87.4348 108.528 87.4348 108.028 87.9348 107.828L89.6348 106.828C90.1348 106.528 90.8348 106.528 91.2348 106.728L96.4348 109.728C96.8348 109.928 96.8348 110.429 96.3348 110.629L94.6348 111.629C94.2348 111.929 93.5348 111.928 93.0348 111.728Z" fill="#FFBE9D"/>
<path d="M103.635 117.728L98.4348 114.728C98.0348 114.528 98.0348 114.028 98.5348 113.828L100.235 112.828C100.735 112.528 101.435 112.528 101.835 112.728L107.035 115.728C107.435 115.928 107.435 116.429 106.935 116.629L105.235 117.629C104.735 117.929 104.035 118.029 103.635 117.728Z" fill="#FFBE9D"/>
<path d="M111.635 122.428L106.435 119.428C106.035 119.228 106.035 118.728 106.535 118.528L108.235 117.528C108.735 117.228 109.435 117.228 109.835 117.428L115.035 120.428C115.435 120.628 115.435 121.128 114.935 121.328L113.235 122.328C112.835 122.628 112.035 122.628 111.635 122.428Z" fill="#FFBE9D"/>
<path d="M119.635 127.029L114.435 124.029C114.035 123.829 114.035 123.329 114.535 123.129L116.235 122.129C116.735 121.829 117.435 121.829 117.835 122.029L123.035 125.029C123.435 125.229 123.435 125.729 122.935 125.929L121.235 126.929C120.835 127.229 120.035 127.229 119.635 127.029Z" fill="#FFBE9D"/>
<path d="M127.735 131.628L122.535 128.628C122.135 128.428 122.135 127.928 122.635 127.728L124.335 126.728C124.835 126.428 125.535 126.428 125.935 126.628L131.135 129.628C131.535 129.828 131.535 130.328 131.035 130.528L129.335 131.528C128.835 131.928 128.135 131.928 127.735 131.628Z" fill="#FFBE9D"/>
<path d="M172.535 157.529L167.335 154.529C166.935 154.329 166.935 153.829 167.435 153.629L169.135 152.629C169.635 152.329 170.335 152.329 170.735 152.529L175.935 155.529C176.335 155.729 176.335 156.229 175.835 156.429L174.135 157.429C173.635 157.729 172.935 157.829 172.535 157.529Z" fill="#FFBE9D"/>
<path d="M180.535 162.228L175.335 159.228C174.935 159.028 174.935 158.529 175.435 158.329L177.135 157.329C177.635 157.029 178.335 157.028 178.735 157.228L183.935 160.228C184.335 160.428 184.335 160.928 183.835 161.128L182.135 162.128C181.735 162.428 180.935 162.428 180.535 162.228Z" fill="#FFBE9D"/>
<path d="M188.535 166.829L183.335 163.829C182.935 163.629 182.935 163.129 183.435 162.929L185.135 161.929C185.635 161.629 186.335 161.629 186.735 161.829L191.935 164.829C192.335 165.029 192.335 165.529 191.835 165.729L190.135 166.729C189.735 167.029 189.035 167.029 188.535 166.829Z" fill="#FFBE9D"/>
<path d="M196.635 171.428L191.435 168.428C191.035 168.228 191.035 167.728 191.535 167.528L193.235 166.528C193.735 166.228 194.435 166.228 194.835 166.428L200.035 169.428C200.435 169.628 200.435 170.128 199.935 170.328L198.235 171.328C197.735 171.628 197.035 171.728 196.635 171.428Z" fill="#FFBE9D"/>
<path d="M117.035 135.128L111.835 132.128C111.435 131.928 111.435 131.428 111.935 131.228L117.135 128.228C117.635 127.928 118.335 127.928 118.735 128.128L123.935 131.128C124.335 131.328 124.335 131.828 123.835 132.028L118.635 135.028C118.235 135.328 117.535 135.328 117.035 135.128Z" fill="#FFBE9D"/>
<path d="M125.135 139.829L119.935 136.829C119.535 136.629 119.535 136.129 120.035 135.929L125.235 132.929C125.735 132.629 126.435 132.629 126.835 132.829L132.035 135.829C132.435 136.029 132.435 136.529 131.935 136.729L126.735 139.729C126.335 140.029 125.635 140.029 125.135 139.829Z" fill="#FFBE9D"/>
<path d="M133.235 144.428L128.035 141.428C127.635 141.228 127.635 140.728 128.135 140.528L133.335 137.528C133.835 137.228 134.535 137.228 134.935 137.428L140.135 140.428C140.535 140.628 140.535 141.128 140.035 141.328L134.835 144.328C134.435 144.728 133.735 144.728 133.235 144.428Z" fill="#FFBE9D"/>
<path d="M141.435 149.128L136.235 146.128C135.835 145.928 135.835 145.428 136.335 145.228L141.535 142.228C142.035 141.928 142.735 141.928 143.135 142.128L148.335 145.128C148.735 145.328 148.735 145.828 148.235 146.028L143.035 149.028C142.535 149.328 141.835 149.428 141.435 149.128Z" fill="#FFBE9D"/>
<path d="M149.535 153.829L144.335 150.829C143.935 150.629 143.935 150.129 144.435 149.929L149.635 146.929C150.135 146.629 150.835 146.629 151.235 146.829L156.435 149.829C156.835 150.029 156.835 150.529 156.335 150.729L151.135 153.729C150.635 154.029 149.935 154.029 149.535 153.829Z" fill="#FFBE9D"/>
<path d="M157.635 158.529L152.435 155.529C152.035 155.329 152.035 154.829 152.535 154.629L157.735 151.629C158.235 151.329 158.935 151.329 159.335 151.529L164.535 154.529C164.935 154.729 164.935 155.229 164.435 155.429L159.235 158.429C158.735 158.729 158.035 158.729 157.635 158.529Z" fill="#FFBE9D"/>
<path d="M165.735 163.228L160.535 160.228C160.135 160.028 160.135 159.529 160.635 159.329L165.835 156.329C166.335 156.029 167.035 156.028 167.435 156.228L172.635 159.228C173.035 159.428 173.035 159.928 172.535 160.128L167.335 163.128C166.835 163.428 166.135 163.428 165.735 163.228Z" fill="#FFBE9D"/>
<path d="M173.835 167.829L168.635 164.829C168.235 164.629 168.235 164.129 168.735 163.929L173.935 160.929C174.435 160.629 175.135 160.629 175.535 160.829L180.735 163.829C181.135 164.029 181.135 164.529 180.635 164.729L175.435 167.729C174.935 168.129 174.235 168.129 173.835 167.829Z" fill="#FFBE9D"/>
<path d="M181.935 172.529L176.735 169.529C176.335 169.329 176.335 168.829 176.835 168.629L182.035 165.629C182.535 165.329 183.235 165.329 183.635 165.529L188.835 168.529C189.235 168.729 189.235 169.229 188.735 169.429L183.535 172.429C183.035 172.729 182.335 172.829 181.935 172.529Z" fill="#FFBE9D"/>
<path d="M70.7348 135.729L55.2348 126.829C54.8348 126.629 54.8348 126.129 55.3348 125.929L60.5348 122.929C61.0348 122.629 61.7348 122.629 62.1348 122.829L77.6348 131.729C78.0348 131.929 78.0348 132.429 77.5348 132.629L72.3348 135.629C71.9348 135.929 71.1348 135.929 70.7348 135.729Z" fill="#FFBE9D"/>
<path d="M170.335 193.128L154.835 184.228C154.435 184.028 154.435 183.529 154.935 183.329L160.135 180.329C160.635 180.029 161.335 180.028 161.735 180.228L177.235 189.128C177.635 189.328 177.635 189.828 177.135 190.028L171.935 193.028C171.435 193.428 170.735 193.428 170.335 193.128Z" fill="#FFBE9D"/>
<path d="M137.935 184.829L132.735 181.829C132.335 181.629 132.335 181.128 132.835 180.928L139.035 177.329C139.535 177.029 140.235 177.028 140.635 177.228L145.835 180.228C146.235 180.428 146.235 180.928 145.735 181.128L139.535 184.728C139.035 185.028 138.335 185.029 137.935 184.829Z" fill="#FFBE9D"/>
<path d="M79.0348 150.828L70.6348 146.028C70.2348 145.828 70.2348 145.328 70.7348 145.128L76.9348 141.528C77.4348 141.228 78.1348 141.228 78.5348 141.428L86.9348 146.228C87.3348 146.428 87.3348 146.928 86.8348 147.128L80.6348 150.728C80.2348 151.028 79.4348 151.028 79.0348 150.828Z" fill="#FFBE9D"/>
<path d="M130.135 180.328L121.735 175.528C121.335 175.328 121.335 174.828 121.835 174.628L128.035 171.028C128.535 170.728 129.235 170.728 129.635 170.928L138.035 175.728C138.435 175.928 138.435 176.428 137.935 176.628L131.735 180.228C131.235 180.528 130.535 180.528 130.135 180.328Z" fill="#FFBE9D"/>
<path d="M90.7348 157.528L82.3348 152.728C81.9348 152.528 81.9348 152.028 82.4348 151.828L88.6348 148.228C89.1348 147.928 89.8348 147.928 90.2348 148.128L98.6348 152.928C99.0348 153.128 99.0348 153.628 98.5348 153.828L92.3348 157.428C91.9348 157.828 91.1348 157.828 90.7348 157.528Z" fill="#FFBE9D"/>
<path d="M90.3348 148.128L126.835 169.228C127.335 169.528 127.335 169.928 126.835 170.128L120.535 173.728C120.035 174.028 119.335 174.028 118.935 173.728L82.4348 152.728L90.3348 148.128Z" fill="#FFBE9D"/>
<path d="M160.535 193.228L166.335 196.628C166.635 196.828 166.635 197.128 166.235 197.428L163.735 198.928C163.335 199.128 162.735 199.228 162.435 199.028L156.635 195.628C156.335 195.428 156.335 195.128 156.735 194.828L159.235 193.328C159.635 193.128 160.235 193.028 160.535 193.228Z" fill="#FFBE9D"/>
<path d="M152.335 188.528L158.135 191.928C158.435 192.128 158.435 192.428 158.035 192.728L155.535 194.228C155.135 194.428 154.535 194.528 154.235 194.328L148.435 190.928C148.135 190.728 148.135 190.428 148.535 190.128L151.035 188.628C151.435 188.428 152.035 188.328 152.335 188.528Z" fill="#FFBE9D"/>
<path d="M144.235 183.928L150.035 187.328C150.335 187.528 150.335 187.828 149.935 188.128L147.435 189.628C147.035 189.828 146.435 189.928 146.135 189.728L140.335 186.328C140.035 186.128 140.035 185.828 140.435 185.528L142.935 184.028C143.335 183.728 143.935 183.728 144.235 183.928Z" fill="#FFBE9D"/>
<path d="M156.835 185.929L162.635 189.329C162.935 189.529 162.935 189.829 162.535 190.129L160.035 191.629C159.635 191.829 159.035 191.929 158.735 191.729L152.935 188.329C152.635 188.129 152.635 187.829 153.035 187.529L155.535 186.029C155.935 185.829 156.535 185.729 156.835 185.929Z" fill="#FFBE9D"/>
<path d="M193.7 80.9L141 50.5L141.6 47L194.3 77.5L193.7 80.9Z" fill="#4D4D4D"/>
<path d="M174.8 86.7L138 65.4L138.7 62L175.5 83.3L174.8 86.7Z" fill="#4D4D4D"/>
<path d="M171.3 76.3L139.5 58L140.2 54.5L172 72.9L171.3 76.3Z" fill="#F16822"/>
<path d="M192.2 88.4L176.3 79.2001L176.9 75.8L192.9 85L192.2 88.4Z" fill="#F16822"/>
<path d="M186.7 112.9L134 82.5L134.6 79L187.3 109.5L186.7 112.9Z" fill="#4D4D4D"/>
<path d="M167.8 118.7L131 97.4L131.7 94L168.5 115.3L167.8 118.7Z" fill="#4D4D4D"/>
<path d="M164.3 108.3L132.5 90L133.2 86.5L165 104.9L164.3 108.3Z" fill="#F16822"/>
<path d="M185.2 120.4L169.3 111.2L169.9 107.8L185.9 117L185.2 120.4Z" fill="#F16822"/>
<path opacity="0.3" d="M263.231 297.677L213 268.749L263.231 239.7L313.461 268.749L263.231 297.677Z" fill="#F16822"/>
<path fill-rule="evenodd" clip-rule="evenodd" d="M213 232.68L263.231 261.729L263.231 261.729L313.461 232.68L313.461 232.68L312.493 232.075L312.454 232.098L263.231 203.631L214.008 232.098L213.969 232.075L213 232.68L213 232.68Z" fill="url(#paint7_linear_0_9037)"/>
<path d="M263.231 214.766L228.009 235.101L263.231 255.435L298.452 235.101L263.231 214.766Z" fill="url(#paint8_linear_0_9037)"/>
<path d="M263.231 214.766L298.453 235.101L302.689 232.68L263.231 209.925L223.894 232.68L228.009 235.101L263.231 214.766Z" fill="#BC560B"/>
<path fill-rule="evenodd" clip-rule="evenodd" d="M263.231 284L313.461 254.951V232.68L263.231 261.729V284ZM213 254.951L263.231 284V261.729L213 232.68V254.951Z" fill="url(#paint9_linear_0_9037)"/>
<path d="M263.231 237.763L213 208.836L263.231 179.787L313.461 208.836L263.231 237.763Z" fill="url(#paint10_linear_0_9037)"/>
<path d="M263.231 236.674L213.969 208.23L213 208.836L263.231 237.764L313.461 208.836L312.493 208.23L263.231 236.674Z" fill="white"/>
<path fill-rule="evenodd" clip-rule="evenodd" d="M213 217.913L263.231 246.841V237.764L213 208.836V217.913ZM263.231 246.841L313.461 217.914V208.836L263.231 237.764V246.841Z" fill="url(#paint11_linear_0_9037)"/>
<path opacity="0.25" d="M213 254.95V268.507L263.23 297.435V283.999L213 254.95Z" fill="#F16822"/>
<path opacity="0.5" d="M313.461 254.951V268.507L263.231 297.435V284L313.461 254.951Z" fill="white"/>
<path opacity="0.25" d="M313.461 254.95V268.507L263.231 297.435V283.999L313.461 254.95Z" fill="#F16822"/>
<path d="M277.755 268.991L299.058 256.645C300.994 255.556 302.447 252.651 302.447 250.109C302.447 247.567 300.873 246.478 299.058 247.567L277.755 259.913C275.819 261.002 274.366 263.907 274.366 266.449C274.245 268.991 275.819 270.08 277.755 268.991Z" fill="#F7F7F7"/>
<path d="M295.426 254.345C297.363 253.256 298.815 250.351 298.815 247.809V247.688L299.057 247.567C300.994 246.478 302.447 247.688 302.447 250.109C302.447 252.65 300.873 255.555 299.057 256.645L277.755 268.991C275.939 270.08 274.366 268.991 274.366 266.57L295.426 254.345Z" fill="#F17A23"/>
<path d="M245.68 262.697C245.68 264.512 247.012 266.812 248.585 267.659C250.159 268.628 251.49 267.78 251.49 265.965C251.49 264.149 250.159 261.85 248.585 261.002C247.012 260.155 245.68 260.881 245.68 262.697Z" fill="#F3F3F3"/>
<path d="M235.271 256.645C235.271 258.46 236.603 260.76 238.176 261.607C239.75 262.576 241.081 261.728 241.081 259.913C241.081 258.097 239.75 255.798 238.176 254.95C236.603 254.103 235.271 254.829 235.271 256.645Z" fill="#F3F3F3"/>
<path d="M224.862 250.592C224.862 252.408 226.193 254.708 227.767 255.555C229.34 256.523 230.672 255.676 230.672 253.86C230.672 252.045 229.34 249.745 227.767 248.898C226.072 248.051 224.862 248.777 224.862 250.592Z" fill="#F3F3F3"/>
<path d="M247.133 260.639C247.012 261.012 246.891 261.384 246.891 261.756C246.891 263.617 248.222 265.974 249.796 266.842C250.28 267.091 250.764 267.215 251.248 267.215C250.764 268.207 249.796 268.455 248.585 267.711C247.012 266.718 245.68 264.485 245.68 262.624C245.68 261.508 246.285 260.763 247.133 260.639Z" fill="#D74709"/>
<path d="M236.724 254.588C236.603 254.96 236.482 255.332 236.482 255.704C236.482 257.565 237.813 259.922 239.387 260.791C239.871 261.039 240.355 261.163 240.839 261.163C240.355 262.155 239.387 262.404 238.176 261.659C236.603 260.667 235.271 258.434 235.271 256.573C235.271 255.456 235.876 254.712 236.724 254.588Z" fill="#D74709"/>
<path d="M226.314 248.536C226.193 248.908 226.072 249.28 226.072 249.652C226.072 251.513 227.404 253.87 228.977 254.739C229.461 254.987 229.946 255.111 230.43 255.111C229.946 256.103 228.977 256.352 227.767 255.607C226.193 254.615 224.862 252.382 224.862 250.521C224.862 249.404 225.346 248.66 226.314 248.536Z" fill="#D74709"/>
<path d="M301.962 195.249L295.91 191.739L318.302 178.788C319.392 178.183 319.392 177.215 318.302 176.609L295.305 163.416C294.216 162.811 292.521 162.811 291.432 163.416L269.04 176.367L262.988 172.857L285.38 159.906C289.738 157.365 297 157.365 301.357 159.906L324.233 173.099C328.591 175.641 328.591 179.756 324.233 182.298L301.962 195.249Z" fill="url(#paint12_linear_0_9037)"/>
<path d="M311.766 196.822C311.766 193.554 309.83 189.802 307.409 188.35L266.74 164.99C265.651 164.384 264.683 164.263 263.835 164.747L215.299 192.949L262.262 228.292L310.072 200.575C310.193 200.453 310.314 200.453 310.435 200.332C311.282 199.606 311.766 198.517 311.766 196.822Z" fill="url(#paint13_linear_0_9037)"/>
<path d="M262.262 228.292L310.072 200.574C310.193 200.453 310.314 200.453 310.435 200.332C311.282 199.727 311.766 198.517 311.766 196.943C311.766 195.37 311.282 193.675 310.556 192.223L256.089 223.693L262.262 228.292Z" fill="url(#paint14_linear_0_9037)"/>
<path d="M259.115 228.171L218.568 204.69C216.147 203.237 214.21 199.485 214.21 196.217C214.21 192.949 216.147 191.497 218.568 192.828L259.236 216.309C261.657 217.762 263.593 221.514 263.593 224.782C263.593 228.05 261.657 229.502 259.115 228.171Z" fill="url(#paint15_linear_0_9037)"/>
<path d="M259.72 216.067L219.052 192.707C217.962 192.102 216.873 191.981 216.147 192.465C216.873 192.223 217.72 192.344 218.568 192.949L259.236 216.43C261.657 217.883 263.594 221.635 263.594 224.903C263.594 226.719 262.988 227.929 262.141 228.413C263.351 228.05 264.078 226.719 264.078 224.661C264.078 221.272 262.141 217.52 259.72 216.067Z" fill="white"/>
<path d="M253.063 220.183L248.222 217.399C247.738 217.157 247.374 216.31 247.374 215.704C247.374 215.099 247.738 214.736 248.222 215.099L253.063 217.883C253.547 218.125 253.91 218.972 253.91 219.578C253.91 220.183 253.547 220.546 253.063 220.183Z" fill="#4D4D4D"/>
<path d="M258.631 186.898C260.083 186.05 260.083 184.598 258.631 183.751C257.178 182.903 254.758 182.903 253.305 183.751C251.853 184.598 251.853 186.05 253.305 186.898C254.758 187.745 257.178 187.745 258.631 186.898Z" fill="url(#paint16_linear_0_9037)"/>
<path d="M266.74 191.497C268.193 190.65 268.193 189.197 266.74 188.35C265.288 187.503 262.867 187.503 261.415 188.35C259.962 189.197 259.962 190.65 261.415 191.497C262.867 192.344 265.288 192.344 266.74 191.497Z" fill="white"/>
<path d="M274.971 196.097C276.423 195.249 276.423 193.797 274.971 192.95C273.518 192.102 271.098 192.102 269.645 192.95C268.193 193.797 268.193 195.249 269.645 196.097C271.098 196.944 273.518 196.944 274.971 196.097Z" fill="white"/>
<path d="M282.96 269.855C282.96 267.556 284.291 264.893 286.107 263.924L305.352 252.789C306.199 252.305 306.925 252.305 307.409 252.668L328.712 265.014L305.231 284.622L283.928 272.276C283.323 271.913 282.96 271.066 282.96 269.855Z" fill="url(#paint17_linear_0_9037)"/>
<path d="M307.167 284.38L326.412 273.244C328.107 272.276 329.559 269.613 329.559 267.313C329.559 265.014 328.228 264.045 326.412 265.014L307.167 276.149C305.473 277.117 304.02 279.78 304.02 282.08C304.141 284.38 305.473 285.469 307.167 284.38Z" fill="url(#paint18_linear_0_9037)"/>
<path fill-rule="evenodd" clip-rule="evenodd" d="M349.53 319.585L292.764 286.437V272.518L349.53 305.666L381 287.51V301.429L349.53 319.585V319.585L349.53 319.585Z" fill="url(#paint19_linear_0_9037)"/>
<path d="M349.53 305.665L381 287.51L324.113 254.362L292.764 272.518L349.53 305.665Z" fill="#F16822"/>
<path opacity="0.2" d="M328.47 303.971L331.738 305.787V299.372L328.47 297.435V303.971Z" fill="#F6F6F6"/>
<path opacity="0.2" d="M323.144 300.824L326.412 302.639V296.224L323.144 294.409V300.824Z" fill="#F6F6F6"/>
<path opacity="0.2" d="M317.819 297.798L321.087 299.614V293.199L317.819 291.262V297.798Z" fill="#F6F6F6"/>
<path d="M312.493 294.651L315.761 296.467V290.052L312.493 288.236V294.651Z" fill="white"/>
<path d="M307.167 291.625L310.314 293.441V287.026L307.167 285.089V291.625Z" fill="white"/>
<path d="M342.51 295.498L311.545 277.226C310.456 276.62 310.577 275.531 311.787 274.805L328.611 265.122C329.822 264.396 331.758 264.275 332.727 265.001L363.692 283.274C364.781 283.879 364.66 284.968 363.45 285.694L346.626 295.377C345.415 295.983 343.6 296.104 342.51 295.498Z" fill="#D84B0E"/>
<path d="M165.846 207.387L172.655 203.56C173.138 203.266 173.5 202.483 173.5 201.798C173.5 201.113 173.108 200.82 172.655 201.113L165.846 204.941C165.364 205.234 165.002 206.017 165.002 206.702C164.971 207.387 165.364 207.68 165.846 207.387Z" fill="#4D4D4D"/>
<path d="M177.846 200.387L184.655 196.56C185.138 196.266 185.5 195.483 185.5 194.798C185.5 194.113 185.108 193.82 184.655 194.113L177.846 197.941C177.364 198.234 177.002 199.017 177.002 199.702C176.971 200.387 177.364 200.68 177.846 200.387Z" fill="#4D4D4D"/>
<path d="M153.846 214.387L160.655 210.56C161.138 210.266 161.5 209.483 161.5 208.798C161.5 208.113 161.108 207.82 160.655 208.113L153.846 211.941C153.364 212.234 153.002 213.017 153.002 213.702C152.971 214.387 153.364 214.68 153.846 214.387Z" fill="#4D4D4D"/>
<defs>
<linearGradient id="paint0_linear_0_9037" x1="162.722" y1="219.704" x2="218.234" y2="251.882" gradientUnits="userSpaceOnUse">
<stop stop-color="#D74809"/>
<stop offset="1" stop-color="#F16822" stop-opacity="0"/>
</linearGradient>
<linearGradient id="paint1_linear_0_9037" x1="172.722" y1="213.704" x2="228.234" y2="245.882" gradientUnits="userSpaceOnUse">
<stop stop-color="#D74809"/>
<stop offset="1" stop-color="#F16822" stop-opacity="0"/>
</linearGradient>
<linearGradient id="paint2_linear_0_9037" x1="182.722" y1="208.704" x2="238.234" y2="240.882" gradientUnits="userSpaceOnUse">
<stop stop-color="#D74809"/>
<stop offset="1" stop-color="#F16822" stop-opacity="0"/>
</linearGradient>
<linearGradient id="paint3_linear_0_9037" x1="192.722" y1="202.704" x2="248.234" y2="234.882" gradientUnits="userSpaceOnUse">
<stop stop-color="#D74809"/>
<stop offset="1" stop-color="#F16822" stop-opacity="0"/>
</linearGradient>
<linearGradient id="paint4_linear_0_9037" x1="104.935" y1="115.729" x2="268.947" y2="69.0779" gradientUnits="userSpaceOnUse">
<stop stop-color="white"/>
<stop offset="1" stop-color="#B9B9B9"/>
</linearGradient>
<linearGradient id="paint5_linear_0_9037" x1="4.17094" y1="156.323" x2="-0.293187" y2="157.416" gradientUnits="userSpaceOnUse">
<stop stop-color="white"/>
<stop offset="1" stop-color="#B9B9B9"/>
</linearGradient>
<linearGradient id="paint6_linear_0_9037" x1="18.2833" y1="112.996" x2="115.424" y2="237.489" gradientUnits="userSpaceOnUse">
<stop stop-color="#F17922"/>
<stop offset="1" stop-color="#D74608"/>
</linearGradient>
<linearGradient id="paint7_linear_0_9037" x1="307.167" y1="237.037" x2="227.365" y2="206.596" gradientUnits="userSpaceOnUse">
<stop stop-color="#F17922"/>
<stop offset="1" stop-color="#D74608"/>
</linearGradient>
<linearGradient id="paint8_linear_0_9037" x1="264.804" y1="258.824" x2="243.039" y2="215.22" gradientUnits="userSpaceOnUse">
<stop stop-color="white"/>
<stop offset="1" stop-color="#B9B9B9"/>
</linearGradient>
<linearGradient id="paint9_linear_0_9037" x1="216.994" y1="253.982" x2="295.522" y2="288.996" gradientUnits="userSpaceOnUse">
<stop stop-color="#F17922"/>
<stop offset="1" stop-color="#D74608"/>
</linearGradient>
<linearGradient id="paint10_linear_0_9037" x1="218.81" y1="208.593" x2="312.329" y2="219.354" gradientUnits="userSpaceOnUse">
<stop stop-color="#D5D5D5"/>
<stop offset="1" stop-color="#6B6B6B"/>
</linearGradient>
<linearGradient id="paint11_linear_0_9037" x1="311.403" y1="217.066" x2="214.352" y2="209.989" gradientUnits="userSpaceOnUse">
<stop stop-color="#D5D5D5"/>
<stop offset="1" stop-color="#6B6B6B"/>
</linearGradient>
<linearGradient id="paint12_linear_0_9037" x1="325.048" y1="167.666" x2="289.049" y2="203.086" gradientUnits="userSpaceOnUse">
<stop stop-color="white"/>
<stop offset="1" stop-color="#B9B9B9"/>
</linearGradient>
<linearGradient id="paint13_linear_0_9037" x1="263.899" y1="162.014" x2="258.647" y2="217.397" gradientUnits="userSpaceOnUse">
<stop stop-color="#D5D5D5"/>
<stop offset="1" stop-color="#6B6B6B"/>
</linearGradient>
<linearGradient id="paint14_linear_0_9037" x1="284.139" y1="190.848" x2="281.233" y2="222.149" gradientUnits="userSpaceOnUse">
<stop stop-color="#D5D5D5"/>
<stop offset="1" stop-color="#6B6B6B"/>
</linearGradient>
<linearGradient id="paint15_linear_0_9037" x1="261.715" y1="201.763" x2="227.744" y2="227.999" gradientUnits="userSpaceOnUse">
<stop stop-color="white"/>
<stop offset="1" stop-color="#B9B9B9"/>
</linearGradient>
<linearGradient id="paint16_linear_0_9037" x1="259.435" y1="184.262" x2="255.167" y2="188.38" gradientUnits="userSpaceOnUse">
<stop stop-color="white"/>
<stop offset="1" stop-color="#B9B9B9"/>
</linearGradient>
<linearGradient id="paint17_linear_0_9037" x1="312.009" y1="257.251" x2="285.935" y2="269.749" gradientUnits="userSpaceOnUse">
<stop stop-color="#D5D5D5"/>
<stop offset="1" stop-color="#6B6B6B"/>
</linearGradient>
<linearGradient id="paint18_linear_0_9037" x1="326.103" y1="260.915" x2="299.219" y2="280.729" gradientUnits="userSpaceOnUse">
<stop stop-color="#2573BA"/>
<stop offset="1" stop-color="#0063AD"/>
</linearGradient>
<linearGradient id="paint19_linear_0_9037" x1="298.152" y1="275.298" x2="322.556" y2="310.659" gradientUnits="userSpaceOnUse">
<stop stop-color="#F17922"/>
<stop offset="1" stop-color="#D74608"/>
</linearGradient>
</defs>
</svg>
