<svg fill="none" height="373" viewBox="0 0 650 373" width="650" xmlns="http://www.w3.org/2000/svg" xmlns:xlink="http://www.w3.org/1999/xlink"><radialGradient id="a" cx="0" cy="0" gradientTransform="matrix(261.83767776 .41079222 -.1874497 119.47985296 326.935 186.507)" gradientUnits="userSpaceOnUse" r="1"><stop offset="0" stop-color="#f16822"/><stop offset="1" stop-color="#f16822" stop-opacity="0"/></radialGradient><linearGradient id="b"><stop offset="0" stop-color="#fff"/><stop offset="1" stop-color="#b9b9b9"/></linearGradient><linearGradient id="c" gradientUnits="userSpaceOnUse" x1="319.5" x2="483.513" xlink:href="#b" y1="155" y2="108.349"/><linearGradient id="d" gradientUnits="userSpaceOnUse" x1="218.736" x2="214.272" xlink:href="#b" y1="195.595" y2="196.688"/><linearGradient id="e"><stop offset="0" stop-color="#f17922"/><stop offset="1" stop-color="#d74608"/></linearGradient><linearGradient id="f" gradientUnits="userSpaceOnUse" x1="232.849" x2="329.989" xlink:href="#e" y1="152.268" y2="276.761"/><linearGradient id="g" gradientUnits="userSpaceOnUse" x1="326.791" x2="211.188" xlink:href="#b" y1="101.641" y2="159.576"/><linearGradient id="h"><stop offset="0" stop-color="#d5d5d5"/><stop offset="1" stop-color="#6b6b6b"/></linearGradient><linearGradient id="i" gradientUnits="userSpaceOnUse" x1="386.5" x2="260.881" xlink:href="#h" y1="117.5" y2="177.034"/><linearGradient id="j" gradientUnits="userSpaceOnUse" x1="475.755" x2="461.393" xlink:href="#b" y1="222.625" y2="232.769"/><linearGradient id="k"><stop offset="0" stop-color="#f16822"/><stop offset="1" stop-color="#d84b0e"/></linearGradient><linearGradient id="l" gradientUnits="userSpaceOnUse" x1="438.5" x2="442.675" xlink:href="#k" y1="235" y2="247.608"/><linearGradient id="m" gradientUnits="userSpaceOnUse" x1="415.529" x2="426.316" xlink:href="#e" y1="245.685" y2="251.971"/><linearGradient id="n" gradientUnits="userSpaceOnUse" x1="409.019" x2="382.666" xlink:href="#b" y1="255.635" y2="279.817"/><linearGradient id="o" gradientUnits="userSpaceOnUse" x1="409.361" x2="383.765" xlink:href="#b" y1="256.26" y2="279.848"/><linearGradient id="p" gradientUnits="userSpaceOnUse" x1="174.44" x2="164.283" xlink:href="#k" y1="172.499" y2="172.358"/><linearGradient id="q" gradientUnits="userSpaceOnUse" x1="472.5" x2="493.043" xlink:href="#h" y1="159" y2="185.085"/><linearGradient id="r" gradientUnits="userSpaceOnUse" x1="478.218" x2="463.036" xlink:href="#b" y1="163.102" y2="168.063"/><linearGradient id="s" gradientUnits="userSpaceOnUse" x1="279" x2="259.758" xlink:href="#e" y1="286" y2="286.889"/><linearGradient id="t" gradientUnits="userSpaceOnUse" x1="326.315" x2="291.894" xlink:href="#k" y1="158.897" y2="157.457"/><linearGradient id="u" gradientUnits="userSpaceOnUse" x1="306.273" x2="276.531" xlink:href="#b" y1="41.0106" y2="70.2746"/><linearGradient id="v" gradientUnits="userSpaceOnUse" x1="222.436" x2="265.094" xlink:href="#e" y1="42.9249" y2="90.6135"/><linearGradient id="w" gradientUnits="userSpaceOnUse" x1="252.064" x2="248.539" xlink:href="#b" y1="54.722" y2="58.1244"/><linearGradient id="x" gradientUnits="userSpaceOnUse" x1="155.397" x2="152.455" xlink:href="#b" y1="230.655" y2="230.986"/><linearGradient id="y" gradientUnits="userSpaceOnUse" x1="190.976" x2="184.899" xlink:href="#b" y1="248.777" y2="250.342"/><linearGradient id="z" gradientUnits="userSpaceOnUse" x1="203.457" x2="184.967" xlink:href="#b" y1="222.061" y2="240.253"/><clipPath id="A"><path d="m150 33h344.2v266.6h-344.2z"/></clipPath><path d="m645.224 186.003-1.394-.795h-.199l-12.14-6.955h.199l-1.393-.795h-.199l-12.14-6.955h.199l-1.393-.795h-.199l-12.141-6.955h.199l-1.393-.795h-.199l-12.14-6.955h.199l-1.393-.795h-.199l-12.14-6.955h.199l-1.393-.795h-.2l-12.14-6.956h.199l-1.393-.794h-.199l-12.14-6.956h.199l-1.393-.795h-.199l-12.14-6.955h.199l-1.394-.795h-.199l-12.14-6.955h.199l-1.393-.795h-.199l-12.14-6.955h.199l-1.393-.795h-.199l-12.141-6.955h.199l-1.393-.7951h-.199l-12.14-6.9553h.199l-1.393-.7949h-.199l-12.14-6.9552h.199l.597-.1987h-.199l-12.141-6.9553h.199l-1.393-.7949h-.199l-12.14-6.9552h.199l-1.393-.7949h-.199l-12.14-6.9553h.199l-1.393-.7948h-.199l-12.141-6.9553h.199l-1.393-.7949h-.199l-11.344-6.7565h.199l-1.393-.7949h-.199l-12.14-6.9552h.199l-1.393-.7949h-.199l-12.141-6.9553h.199l-1.393-.7949h-.199l-12.14-6.9552h.199l-1.393-.7949h-.199l-12.14-6.9553h.199l-1.394-.7948h-.199l-12.14-6.95527h.199l-1.393-.79488h-.199l-12.14-6.955246h.199l-1.393-.794904h-.199l-1.393.794904-12.141 6.955246-1.393.79488-12.14 6.95527-1.393.7948-12.14 6.9553-1.394.7949-12.14 6.9552-1.393.7949-12.14 6.9553-1.393.7949-12.141 6.9552.597.7949-12.14 6.9552-1.393.7949-12.14 6.9553-1.393.7949-12.14 6.9552-1.394.7949-12.14 6.9552-1.393.7949-12.14 6.9553-1.393.7949-12.141 6.9552-1.393.7949-12.14 6.9555-1.393.795-12.14 6.955-1.195.795-12.14 6.955-1.393.795-12.14 6.955-1.393.795-12.1405 6.955-1.3931.795-12.1403 6.955-1.3931.795-12.1402 6.956-1.3932.794-12.1402 6.956-1.3931.795-12.1403 6.955-1.3931.795-12.1403 6.955-1.3931.795-12.1402 6.955 1.1941.199-12.14024 6.955-1.39314.795h-.19902l1.39314.795h.19902l12.14024 6.955h-.199l1.3931.795h.199l12.1403 6.955h-.1991l1.3932.795h.199l12.1402 6.955h-.199l1.3932.795h.199l12.1402 6.955h-.199l1.3931.795h.1991l12.1402 6.956h-.199l1.3931.794h.199l12.1403 6.956h-.1991l1.3932.795h.199l12.1402 6.955h-.199l1.3932.795h.199l12.1402 6.955h-.199l1.393.795h.199l12.14 6.955h-.199l1.394.795h.199l12.14 6.955h-.199l1.393.795h.199l12.14 6.955h-.199l1.393.795h.199l12.141 6.956h-.2l1.394.794h.199l12.14 6.956h-.199l1.393.795h.199l12.14 6.955h-.199l1.393.795h.199l12.141 6.955h-.199l1.393.795h.199l12.14 6.955h-.199l1.393.795h.199l12.14 6.955h-.199l1.393.795h.2l12.14 6.955h-.199l1.393.795h.199l12.14 6.955h-.199l1.393.795h.199l12.141 6.956h-.2l1.394.794h.199l12.14 6.956h-.199l1.393.795h.199l12.14 6.955h-.199l1.393.795h.199l12.141 6.955h-.199l1.393.795h.199l12.14 6.955h-.199l1.393.795.597-.397.995-.597 12.937-7.352.398-.199 12.14-6.955 1.393-.795 12.14-6.955.995-.597 12.34-7.154.597-.397 12.737-7.353 1.393-.795 12.14-6.955 1.194-.795 12.539-7.154.796-.397 12.14-6.955 1.393-.795 12.14-6.955 1.195-.795 12.14-6.956 1.393-.794 12.14-6.956 1.393-.795 12.14-6.955 1.394-.795 12.14-6.955 1.393-.795 12.14-6.955 1.393-.795 12.141-6.955 1.393-.795 12.14-6.955 1.393-.795 12.14-6.955 1.394-.795 12.14-6.956 1.393-.795 12.14-6.955 1.393-.795 12.14-6.955 1.394-.795 12.14-6.955 1.393-.795 12.14-6.955 1.393-.795 12.141-6.955 1.393-.795 12.14-6.955zm-16.32-7.551-12.14 6.955-12.141-6.955 12.141-6.955zm-307.486 7.551-12.141 6.955-12.14-6.955 12.14-6.955zm-10.747-7.551 12.14-6.955 12.14 6.955-12.14 6.955zm11.941 8.346 12.14 6.955-12.14 6.956-12.14-6.956zm1.393-.795 12.14-6.955 12.14 6.955-12.14 6.955zm13.334-7.551 12.14-6.955 12.141 6.955-12.141 6.955zm-1.194-.795-12.14-6.955 12.14-6.956 12.14 6.956zm-13.533-7.75-12.14-6.955 12.14-6.956 12.14 6.956zm-1.194.795-12.141 6.955-12.14-6.955 12.14-6.956zm-13.534 7.75-12.14 6.955-12.14-6.955 12.14-6.955zm-13.334 7.551-12.14 6.955-12.141-6.955 12.141-6.955zm1.393.795 12.14 6.955-12.14 6.956-12.14-6.956zm13.334 7.75 12.141 6.955-12.141 6.956-12.14-6.956zm13.335 7.75 12.14 6.956-12.14 6.955-12.14-6.955zm1.393-.795 12.14-6.955 12.14 6.955-12.14 6.956zm13.334-7.75 12.14-6.955 12.141 6.955-12.141 6.956zm13.335-7.75 12.14-6.955 12.14 6.955-12.14 6.955zm13.533-7.551 12.14-6.955 12.14 6.955-12.14 6.955zm-1.393-.795-12.14-6.955 12.14-6.956 12.14 6.956zm-13.335-7.75-12.14-6.955 12.14-6.956 12.141 6.956zm-13.334-7.75-12.14-6.956 12.14-6.955 12.14 6.955zm-13.533-7.75-12.14-6.956 12.14-6.955 12.14 6.955zm-1.194.794-12.141 6.956-12.14-6.956 12.14-6.955zm-13.534 7.751-12.14 6.955-12.14-6.955 12.14-6.956zm-13.334 7.75-12.14 6.955-12.141-6.955 12.141-6.956zm-13.334 7.75-12.141 6.955-12.14-6.955 12.14-6.955zm-13.335 7.551-12.14 6.955-12.14-6.955 12.14-6.955zm1.393.795 12.141 6.955-12.141 6.956-12.14-6.956zm13.335 7.75 12.14 6.955-12.14 6.956-12.141-6.956zm13.334 7.75 12.14 6.956-12.14 6.955-12.14-6.955zm13.334 7.75 12.141 6.956-12.141 6.955-12.14-6.955zm13.335 7.552 12.14 6.955-12.14 6.955-12.14-6.955zm1.393-.596 12.14-6.956 12.14 6.956-12.14 6.955zm13.334-7.75 12.14-6.956 12.141 6.956-12.141 6.955zm13.335-7.751 12.14-6.955 12.14 6.955-12.14 6.956zm13.533-7.75 12.14-6.955 12.14 6.955-12.14 6.956zm13.334-7.75 12.141-6.955 12.14 6.955-12.14 6.955zm13.335-7.551 12.14-6.955 12.14 6.955-12.14 6.955zm-1.393-.795-12.141-6.955 12.141-6.956 12.14 6.956zm-13.335-7.75-12.14-6.955 12.14-6.956 12.14 6.956zm-13.334-7.75-12.14-6.956 12.14-6.955 12.14 6.955zm-13.335-7.75-12.14-6.956 12.14-6.955 12.141 6.955zm-13.334-7.552-12.14-6.955 12.14-6.955 12.14 6.955zm-13.533-7.75-12.14-6.955 12.14-6.956 12.14 6.956zm-1.194.795-12.141 6.955-12.14-6.955 12.14-6.955zm-13.534 7.551-12.14 6.956-12.14-6.956 12.14-6.955zm-13.334 7.75-12.14 6.956-12.141-6.956 12.141-6.955zm-13.334 7.751-12.141 6.955-12.14-6.955 12.14-6.956zm-13.335 7.75-12.14 6.955-12.14-6.955 12.14-6.956zm-13.334 7.75-12.14 6.955-12.141-6.955 12.141-6.955zm-13.534 7.551-12.14 6.955-12.14-6.955 12.14-6.955zm1.394.795 12.14 6.955-12.14 6.956-12.141-6.956zm13.334 7.75 12.14 6.955-12.14 6.956-12.14-6.956zm13.533 7.75 12.141 6.956-12.141 6.955-12.14-6.955zm13.335 7.75 12.14 6.956-12.14 6.955-12.141-6.955zm13.334 7.552 12.14 6.955-12.14 6.955-12.14-6.955zm13.334 7.75 12.141 6.955-12.141 6.956-12.14-6.956zm13.335 7.75 12.14 6.955-12.14 6.956-11.941-6.956zm1.393-.795 12.14-6.955 12.14 6.955-12.14 6.956zm13.334-7.75 12.14-6.955 12.141 6.955-12.141 6.955zm13.335-7.551 12.14-6.956 12.14 6.956-12.14 6.955zm13.533-7.75 12.14-6.956 12.14 6.956-12.14 6.955zm13.334-7.751 12.141-6.955 12.14 6.955-12.14 6.956zm13.335-7.75 12.14-6.955 12.14 6.955-12.14 6.956zm13.334-7.75 12.14-6.955 12.141 6.955-12.141 6.955zm13.533-7.551 12.141-6.955 12.14 6.955-12.14 6.955zm-1.393-.795-12.14-6.955 12.14-6.956 12.141 6.956zm-13.334-7.75-12.14-6.955 12.14-6.956 12.14 6.956zm-13.533-7.75-12.141-6.956 12.141-6.955 12.14 6.955zm-13.335-7.75-12.14-6.956 12.14-6.955 12.14 6.955zm-13.334-7.552-12.14-6.955 12.14-6.955 12.14 6.955zm-13.335-7.75-12.14-6.955 12.14-6.956 12.141 6.956zm-13.334-7.75-12.14-6.955 12.14-6.956 12.14 6.956zm-13.533-7.75-12.14-6.956 12.14-6.955 12.14 6.955zm-1.194.795-12.141 6.955-12.14-6.955 12.14-6.956zm-13.534 7.75-12.14 6.955-12.14-6.955 12.14-6.956zm-13.334 7.75-12.14 6.955-12.141-6.955 12.141-6.955zm-13.334 7.551-12.141 6.956-12.14-6.956 12.14-6.955zm-13.335 7.75-12.14 6.956-12.14-6.956 12.14-6.955zm-13.334 7.751-12.14 6.955-12.141-6.955 12.141-6.956zm-13.534 7.75-12.14 6.955-12.14-6.955 12.14-6.956zm-13.334 7.75-12.14 6.955-12.14-6.955 12.14-6.955zm-13.334 7.551-12.14 6.955-12.141-6.955 12.141-6.955zm1.393.795 12.14 6.955-12.14 6.956-12.14-6.956zm13.334 7.75 12.14 6.955-12.14 6.956-12.14-6.956zm13.335 7.75 12.14 6.956-12.14 6.955-12.141-6.955zm13.334 7.75 12.14 6.956-12.14 6.955-12.14-6.955zm13.533 7.552 12.141 6.955-12.141 6.955-12.14-6.955zm13.335 7.75 12.14 6.955-12.14 6.956-12.141-6.956zm13.334 7.75 12.14 6.955-12.14 6.956-12.14-6.956zm13.334 7.75 12.141 6.956-12.141 6.955-12.14-6.955zm13.335 7.75 12.14 6.956-12.14 6.955-12.14-6.955zm1.393-.794 12.14-6.956 12.14 6.956-12.14 6.955zm13.334-7.751 12.14-6.955 12.141 6.955-12.141 6.956zm13.335-7.75 12.14-6.955 12.14 6.955-12.14 6.956zm13.533-7.75 12.14-6.955 12.14 6.955-12.14 6.955zm13.334-7.551 12.141-6.956 12.14 6.956-12.14 6.955zm13.335-7.75 12.14-6.956 12.14 6.956-12.14 6.955zm13.334-7.751 12.14-6.955 12.141 6.955-12.141 6.956zm13.533-7.75 12.141-6.955 12.14 6.955-12.14 6.956zm13.335-7.75 12.14-6.955 12.14 6.955-12.14 6.955zm13.334-7.551 12.14-6.955 12.141 6.955-12.141 6.955zm-1.393-.795-12.14-6.955 12.14-6.956 12.14 6.956zm-13.334-7.75-12.141-6.955 12.141-6.956 12.14 6.956zm-13.335-7.75-12.14-6.956 12.14-6.955 12.141 6.955zm-13.334-7.75-12.14-6.956 12.14-6.955 12.14 6.955zm-13.533-7.552-12.141-6.955 12.141-6.955 12.14 6.955zm-13.335-7.75-12.14-6.955 12.14-6.956 12.14 6.956zm-13.334-7.75-12.14-6.955 12.14-6.956 12.14 6.956zm-13.335-7.75-12.14-6.956 12.14-6.955 12.141 6.955zm-13.334-7.75-12.14-6.956 12.14-6.955 12.14 6.955zm-13.533-7.751-12.14-6.955 12.14-6.9551 12.14 6.9551zm-1.194.795-12.141 6.956-12.14-6.956 12.14-6.955zm-13.534 7.75-12.14 6.956-12.14-6.956 12.14-6.955zm-13.334 7.751-12.14 6.955-12.141-6.955 12.141-6.956zm-13.334 7.75-12.141 6.955-12.14-6.955 12.14-6.956zm-13.335 7.75-12.14 6.955-12.14-6.955 12.14-6.955zm-13.334 7.551-12.14 6.956-12.141-6.956 12.141-6.955zm-13.534 7.75-12.14 6.956-12.14-6.956 12.14-6.955zm-13.334 7.751-12.14 6.955-12.14-6.955 12.14-6.956zm-13.334 7.75-12.14 6.955-12.141-6.955 12.141-6.956zm-13.335 7.75-12.14 6.955-12.14-6.955 12.14-6.955zm-13.334 7.551-12.14 6.955-12.14-6.955 12.14-6.955zm1.194.795 12.14 6.955-12.14 6.956-12.14-6.956zm13.335 7.75 12.14 6.955-12.14 6.956-12.141-6.956zm13.533 7.75 12.14 6.956-12.14 6.955-12.14-6.955zm13.334 7.75 12.14 6.956-12.14 6.955-12.14-6.955zm13.335 7.552 12.14 6.955-12.14 6.955-12.141-6.955zm13.334 7.75 12.14 6.955-12.14 6.956-12.14-6.956zm13.533 7.75 12.141 6.955-12.141 6.956-12.14-6.956zm13.335 7.75 12.14 6.956-12.14 6.955-12.141-6.955zm13.334 7.75 12.14 6.956-12.14 6.955-12.14-6.955zm13.334 7.552 12.141 6.955-12.141 6.955-12.14-6.955zm13.335 7.75 12.14 6.955-12.14 6.955-12.14-6.955zm1.393-.795 12.14-6.955 12.14 6.955-12.14 6.955zm13.334-7.551 12.14-6.956 12.141 6.956-12.141 6.955zm13.335-7.75 12.14-6.956 12.14 6.956-12.14 6.955zm13.533-7.751 12.14-6.955 12.14 6.955-12.14 6.956zm13.334-7.75 12.141-6.955 12.14 6.955-12.14 6.956zm13.335-7.75 12.14-6.955 12.14 6.955-12.14 6.955zm13.334-7.551 12.14-6.956 12.141 6.956-12.141 6.955zm13.533-7.75 12.141-6.956 12.14 6.956-12.14 6.955zm13.335-7.751 12.14-6.955 12.14 6.955-12.14 6.956zm13.334-7.75 12.14-6.955 12.141 6.955-12.141 6.956zm13.334-7.75 12.141-6.955 12.14 6.955-12.14 6.955zm13.335-7.551 12.14-6.955 12.14 6.955-12.14 6.955zm-1.194-.795-12.141-6.955 12.141-6.956 12.14 6.956zm-13.534-7.75-12.14-6.955 12.14-6.956 12.141 6.956zm-13.334-7.75-12.14-6.956 12.14-6.955 12.14 6.955zm-13.334-7.75-12.141-6.956 12.141-6.955 12.14 6.955zm-13.335-7.552-12.14-6.955 12.14-6.955 12.141 6.955zm-13.334-7.75-12.14-6.955 12.14-6.956 12.14 6.956zm-13.533-7.75-12.141-6.955 12.141-6.956 12.14 6.956zm-13.335-7.75-12.14-6.956 12.14-6.955 12.14 6.955zm-13.334-7.75-12.14-6.956 12.14-6.955 12.14 6.955zm-13.335-7.751-12.14-6.955 12.14-6.9551 12.141 6.9551zm-13.334-7.551-12.14-6.9552 12.14-6.9553 12.14 6.9553zm-13.533-7.7501-12.14-6.9553 12.14-6.9552 12.14 6.9552zm-1.194.7949-12.141 6.9552-12.14-6.9552 12.14-6.9553zm-13.534 7.7502-12.14 6.955-12.14-6.955 12.14-6.9553zm-13.334 7.551-12.14 6.956-12.141-6.956 12.141-6.955zm-13.334 7.75-12.141 6.956-12.14-6.956 12.14-6.955zm-13.335 7.751-12.14 6.955-12.14-6.955 12.14-6.956zm-13.334 7.75-12.14 6.955-12.141-6.955 12.141-6.956zm-13.534 7.75-11.941 6.756-12.14-6.955 12.14-6.955zm-13.334 7.551-12.14 6.956-12.14-6.956 12.14-6.955zm-13.334 7.75-12.14 6.956-12.141-6.956 12.141-6.955zm-13.335 7.751-12.14 6.955-12.14-6.955 12.14-6.956zm-13.334 7.75-12.14 6.955-12.14-6.955 12.14-6.956zm-13.533 7.75-12.141 6.955-12.14-6.955 12.14-6.955zm-13.335 7.551-12.14 6.955-12.14-6.955 12.14-6.955zm1.393.795 12.141 6.955-12.141 6.956-12.14-6.956zm13.335 7.75 12.14 6.955-12.14 6.956-12.14-6.956zm13.334 7.75 12.14 6.956-12.14 6.955-12.14-6.955zm13.335 7.75 12.14 6.956-12.14 6.955-12.141-6.955zm13.533 7.552 12.14 6.955-12.14 6.955-12.14-6.955zm13.334 7.75 12.14 6.955-12.14 6.956-12.14-6.956zm13.335 7.75 12.14 6.955-12.14 6.956-12.141-6.956zm13.334 7.75 12.14 6.956-12.14 6.955-12.14-6.955zm13.533 7.75 12.141 6.956-12.141 6.955-12.14-6.955zm13.335 7.552 12.14 6.955-12.14 6.955-12.141-6.955zm13.334 7.75 12.14 6.955-12.14 6.955-12.14-6.955zm13.334 7.75 12.141 6.955-12.141 6.956-12.14-6.956zm13.335 7.75 12.14 6.955-12.14 6.956-12.14-6.956zm1.393-.795 12.14-6.955 12.14 6.955-12.14 6.956zm13.334-7.75 12.14-6.955 12.141 6.955-12.141 6.955zm13.335-7.75 12.14-6.955 12.14 6.955-12.14 6.955zm13.533-7.551 12.14-6.956 12.14 6.956-12.14 6.955zm13.334-7.75 12.141-6.956 12.14 6.956-12.14 6.955zm13.335-7.751 12.14-6.955 12.14 6.955-12.14 6.956zm13.334-7.75 12.14-6.955 12.141 6.955-12.141 6.956zm13.533-7.75 12.141-6.955 12.14 6.955-12.14 6.955zm13.335-7.551 12.14-6.956 12.14 6.956-12.14 6.955zm13.334-7.75 12.14-6.956 12.141 6.956-12.141 6.955zm13.334-7.751 12.141-6.955 12.14 6.955-12.14 6.956zm13.335-7.75 12.14-6.955 12.14 6.955-12.14 6.956zm13.533-7.75 12.14-6.955 12.141 6.955-12.141 6.955zm13.335-7.551 12.14-6.955 12.14 6.955-12.14 6.955zm-1.394-.795-12.14-6.955 12.14-6.956 12.141 6.956zm-13.334-7.75-12.14-6.955 12.14-6.956 12.14 6.956zm-13.334-7.75-12.141-6.956 12.141-6.955 12.14 6.955zm-13.534-7.75-12.14-6.956 12.14-6.955 12.141 6.955zm-13.334-7.552-12.14-6.955 12.14-6.955 12.14 6.955zm-13.334-7.75-12.141-6.955 12.141-6.956 12.14 6.956zm-13.335-7.75-12.14-6.955 12.14-6.956 12.141 6.956zm-13.334-7.75-12.14-6.956 12.14-6.955 12.14 6.955zm-13.533-7.75-12.141-6.956 12.141-6.955 12.14 6.955zm-13.335-7.751-12.14-6.955 12.14-6.9551 12.14 6.9551zm-13.334-7.551-12.14-6.9552 12.14-6.9553 12.14 6.9553zm-13.335-7.7501-12.14-6.9553 12.14-6.9552 12.141 6.9552zm-13.334-7.7501-12.14-6.9553 12.14-6.9552 12.14 6.9552zm-13.533-7.7502-12.14-6.9552 12.14-6.9553 12.14 6.9553zm-1.194.7949-12.141 6.9553-12.14-6.9553 12.14-6.9552zm-13.534 7.7501-12.14 6.9553-12.14-6.9553 12.14-6.9552zm-13.334 7.7502-12.14 6.9552-12.141-6.9552 12.141-6.9553zm-13.334 7.7502-12.141 6.955-12.14-6.955 12.14-6.9553zm-13.335 7.551-12.14 6.956-12.14-6.956 12.14-6.955zm-13.334 7.75-12.14 6.956-12.141-6.956 12.141-6.955zm-13.534 7.751-12.14 6.955-12.14-6.955 12.14-6.956zm-13.334 7.75-12.14 6.955-12.14-6.955 12.14-6.956zm-13.334 7.75-12.14 6.955-12.141-6.955 12.141-6.955zm-13.335 7.551-12.14 6.956-12.14-6.956 12.14-6.955zm-13.334 7.75-12.14 6.956-12.14-6.956 12.14-6.955zm-13.533 7.751-12.141 6.955-12.14-6.955 12.14-6.956zm-13.335 7.75-12.14 6.955-12.14-6.955 12.14-6.956zm-13.334 7.75-12.14 6.955-12.14-6.955 12.14-6.955zm-13.334 7.551-12.141 6.955-12.14-6.955 12.14-6.955zm1.194.795 12.14 6.955-12.14 6.956-12.14-6.956zm13.533 7.75 12.14 6.955-12.14 6.956-12.14-6.956zm13.334 7.75 12.141 6.956-12.141 6.955-12.14-6.955zm13.335 7.75 12.14 6.956-12.14 6.955-12.14-6.955zm13.334 7.552 12.14 6.955-12.14 6.955-12.14-6.955zm13.335 7.75 12.14 6.955-12.14 6.956-12.141-6.956zm13.533 7.75 12.14 6.955-12.14 6.956-12.14-6.956zm13.334 7.75 12.14 6.956-12.14 6.955-12.14-6.955zm13.335 7.75 12.14 6.956-12.14 6.955-12.141-6.955zm13.334 7.552 12.14 6.955-12.14 6.955-12.14-6.955zm13.533 7.75 12.141 6.955-12.141 6.955-12.14-6.955zm13.335 7.75 12.14 6.955-12.14 6.956-12.141-6.956zm13.334 7.75 12.14 6.955-12.14 6.956-12.14-6.956zm13.334 7.75 12.141 6.956-12.141 6.955-12.14-6.955zm13.335 7.751 12.14 6.955-12.14 6.955-11.941-7.154zm1.393-.795 12.14-6.956 12.14 6.956-12.14 6.955zm13.334-7.751 12.14-6.955 12.141 6.955-12.141 6.956zm13.335-7.75 12.14-6.955 12.14 6.955-12.14 6.956zm13.533-7.75 12.14-6.955 12.14 6.955-12.14 6.955zm13.334-7.75 12.141-6.955 12.14 6.955-12.14 6.955zm13.335-7.551 12.14-6.956 12.14 6.956-12.14 6.955zm13.334-7.75 12.14-6.956 12.141 6.956-12.141 6.955zm13.533-7.751 12.141-6.955 12.14 6.955-12.14 6.956zm13.335-7.75 12.14-6.955 12.14 6.955-12.14 6.956zm13.334-7.75 12.14-6.955 12.141 6.955-12.141 6.955zm13.334-7.551 12.141-6.956 12.14 6.956-12.14 6.955zm13.335-7.75 12.14-6.956 12.14 6.956-12.14 6.955zm13.533-7.751 12.14-6.955 12.141 6.955-12.141 6.956zm13.335-7.75 12.14-6.955 12.14 6.955-12.14 6.956zm13.334-7.75 12.14-6.955 12.14 6.955-12.14 6.955zm13.334-7.551 12.141-6.955 12.14 6.955-12.14 6.955zm-1.393-.795-12.14-6.955 12.14-6.956 12.14 6.956zm-13.334-7.75-12.14-6.955 12.14-6.956 12.14 6.956zm-13.335-7.75-12.14-6.956 12.14-6.955 12.141 6.955zm-13.334-7.75-12.14-6.956 12.14-6.955 12.14 6.955zm-13.334-7.552-12.141-6.955 12.141-6.955 12.14 6.955zm-13.534-7.75-12.14-6.955 12.14-6.956 12.141 6.956zm-13.334-7.75-12.14-6.955 12.14-6.956 12.14 6.956zm-13.334-7.75-12.141-6.956 12.141-6.955 12.14 6.955zm-13.335-7.75-12.14-6.956 12.14-6.955 12.141 6.955zm-13.334-7.751-12.14-6.955 12.14-6.9551 12.14 6.9551zm-13.533-7.551-12.141-6.9552 12.141-6.9553 12.14 6.9553zm-13.335-7.7501-12.14-6.9553 12.14-6.9552 12.14 6.9552zm-13.334-7.7501-12.14-6.9553 12.14-6.9552 12.14 6.9552zm-13.335-7.7502-12.14-6.9552 12.14-6.9553 12.141 6.9553zm-13.334-7.7501-12.14-6.9553 12.14-6.9552 12.14 6.9552zm-13.533-7.5514-12.14-6.9553 12.14-6.9552 12.14 6.9552zm-1.194.7949-12.141 6.9552-12.14-6.9552 12.14-6.9553zm-13.534 7.5514-12.14 6.9552-12.14-6.9552 12.14-6.9553zm-13.334 7.7501-12.14 6.9553-12.141-6.9553 12.141-6.9552zm-13.334 7.7501-12.141 6.9553-12.14-6.9553 12.14-6.9552zm-13.335 7.7502-12.14 6.9552-12.14-6.9552 12.14-6.9553zm-13.334 7.7502-12.14 6.955-12.141-6.955 12.141-6.9553zm-13.534 7.551-12.14 6.956-12.14-6.956 12.14-6.955zm-13.334 7.75-12.14 6.956-12.14-6.956 12.14-6.955zm-13.334 7.751-12.14 6.955-12.141-6.955 12.141-6.956zm-13.335 7.75-12.14 6.955-12.14-6.955 12.14-6.956zm-13.334 7.75-12.14 6.955-12.14-6.955 12.14-6.955zm-13.533 7.551-12.141 6.956-12.14-6.956 12.14-6.955zm-13.335 7.75-12.14 6.956-12.14-6.956 12.14-6.955zm-13.334 7.751-12.14 6.955-12.14-6.955 12.14-6.956zm-13.334 7.75-12.141 6.955-12.14-6.955 12.14-6.956zm-13.335 7.75-12.14 6.955-12.1402-6.955 12.1402-6.955zm-13.533 7.551-12.1403 6.955-12.1403-6.955 12.1403-6.955zm1.393.795 12.14 6.955-12.14 6.956-12.1402-6.956zm13.334 7.75 12.141 6.955-12.141 6.956-12.14-6.956zm13.335 7.75 12.14 6.956-12.14 6.955-12.14-6.955zm13.533 7.75 12.14 6.956-12.14 6.955-12.14-6.955zm13.334 7.552 12.141 6.955-12.141 6.955-12.14-6.955zm13.335 7.75 12.14 6.955-12.14 6.956-12.14-6.956zm13.334 7.75 12.14 6.955-12.14 6.956-12.14-6.956zm13.335 7.75 12.14 6.956-12.14 6.955-12.141-6.955zm13.533 7.75 12.14 6.956-12.14 6.955-12.14-6.955zm13.334 7.552 12.14 6.955-12.14 6.955-12.14-6.955zm13.335 7.75 12.14 6.955-12.14 6.955-12.141-6.955zm13.334 7.75 12.14 6.955-12.14 6.956-12.14-6.956zm13.533 7.75 12.141 6.955-12.141 6.956-12.14-6.956zm13.335 7.75 12.14 6.956-12.14 6.955-12.141-6.955zm13.334 7.552 12.14 6.955-12.14 6.955-12.14-6.955zm13.334 7.75 12.141 6.955-12.141 6.955-12.14-6.955zm13.335 7.75 12.14 6.955-12.14 6.956-12.14-6.956zm1.393-.795 12.14-6.955 12.14 6.955-12.14 6.955zm13.334-7.75 12.14-6.955 12.141 6.955-12.141 6.955zm13.335-7.551 12.14-6.956 12.14 6.956-12.14 6.955zm13.533-7.751 12.14-6.955 12.14 6.955-12.14 6.956zm13.334-7.75 12.141-6.955 12.14 6.955-12.14 6.956zm13.335-7.75 12.14-6.955 12.14 6.955-12.14 6.955zm13.334-7.75 12.14-6.955 12.141 6.955-12.141 6.955zm13.533-7.551 12.141-6.956 12.14 6.956-12.14 6.955zm13.335-7.75 12.14-6.956 12.14 6.956-12.14 6.955zm13.334-7.751 12.14-6.955 12.141 6.955-12.141 6.956zm13.334-7.75 12.141-6.955 12.14 6.955-12.14 6.956zm13.335-7.75 12.14-6.955 12.14 6.955-12.14 6.955zm13.533-7.551 12.14-6.956 12.141 6.956-12.141 6.955zm13.335-7.75 12.14-6.956 12.14 6.956-12.14 6.955zm13.334-7.751 12.14-6.955 12.14 6.955-12.14 6.956zm13.334-7.75 12.141-6.955 12.14 6.955-12.14 6.956zm13.335-7.75 12.14-6.955 12.14 6.955-12.14 6.955zm13.533-7.551 12.14-6.955 12.141 6.955-12.141 6.955zm-1.393-.795-12.14-6.955 12.14-6.956 12.14 6.956zm-13.334-7.75-12.141-6.955 12.141-6.956 12.14 6.956zm-13.534-7.75-12.14-6.956 12.14-6.955 12.14 6.955zm-13.334-7.75-12.14-6.956 12.14-6.955 12.14 6.955zm-13.335-7.552-12.14-6.955 12.14-6.955 12.141 6.955zm-13.334-7.75-12.14-6.955 12.14-6.956 12.14 6.956zm-13.334-7.75-12.141-6.955 12.141-6.956 12.14 6.956zm-13.534-7.75-12.14-6.956 12.14-6.955 12.141 6.955zm-13.334-7.75-12.14-6.956 12.14-6.955 12.14 6.955zm-13.334-7.751-12.141-6.955 12.141-6.9551 12.14 6.9551zm-13.335-7.551-12.14-6.9552 12.14-6.9553 12.141 6.9553zm-13.334-7.7501-12.14-6.9553 12.14-6.9552 12.14 6.9552zm-13.533-7.7501-12.141-6.9553 12.141-6.9552 12.14 6.9552zm-13.335-7.7502-12.14-6.9552 12.14-6.9553 12.14 6.9553zm-13.334-7.7501-12.14-6.9553 12.14-6.9552 12.14 6.9552zm-13.335-7.5514-12.14-6.9553 12.14-6.9552 12.141 6.9552zm-13.334-7.7502-12.14-6.9552 12.14-6.9553 12.14 6.9553zm-13.533-7.7501-12.14-6.9552 12.14-6.9553 12.14 6.9553zm-1.194.7949-12.141 6.9552-12.14-6.9552 12.14-6.9553zm-13.534 7.7501-12.14 6.9553-12.14-6.9553 12.14-6.9552zm-13.334 7.7502-12.14 6.9552-12.141-6.9552 12.141-6.9553zm-13.334 7.5514-12.141 6.9552-12.14-6.9552 12.14-6.9553zm-13.335 7.7501-12.14 6.9553-12.14-6.9553 12.14-6.9552zm-13.334 7.7501-12.14 6.9553-12.141-6.9553 12.141-6.9552zm-13.534 7.7502-12.14 6.9552-12.14-6.9552 12.14-6.9553zm-13.334 7.7502-12.14 6.955-12.14-6.955 12.14-6.9553zm-13.334 7.551-12.14 6.956-12.141-6.956 12.141-6.955zm-13.335 7.75-12.14 6.956-12.14-6.956 12.14-6.955zm-13.334 7.751-12.14 6.955-12.14-6.955 12.14-6.956zm-13.533 7.75-12.141 6.955-12.14-6.955 12.14-6.956zm-13.335 7.75-12.14 6.955-12.14-6.955 12.14-6.955zm-13.334 7.551-12.14 6.956-12.14-6.956 12.14-6.955zm-13.334 7.75-12.141 6.956-12.14-6.956 12.14-6.955zm-13.335 7.751-12.14 6.955-12.1402-6.955 12.1402-6.956zm-13.533 7.75-12.1403 6.955-12.1403-6.955 12.1403-6.956zm-13.3345 7.75-12.1402 6.955-11.9412-6.955 12.1402-6.955zm-13.3343 7.551-12.1403 6.955-12.1402-6.955 12.1402-6.955zm1.3931.795 12.1403 6.955-12.1403 6.956-12.1402-6.956zm13.3344 7.75 12.1403 6.955-12.1403 6.956-12.1402-6.956zm13.3343 7.75 12.14 6.956-12.14 6.955-12.1402-6.955zm13.334 7.75 12.141 6.956-12.141 6.955-12.14-6.955zm13.335 7.552 12.14 6.955-12.14 6.955-12.14-6.955zm13.533 7.75 12.14 6.955-12.14 6.956-12.14-6.956zm13.334 7.75 12.141 6.955-12.141 6.956-12.14-6.956zm13.335 7.75 12.14 6.956-12.14 6.955-12.14-6.955zm13.334 7.75 12.14 6.956-12.14 6.955-12.14-6.955zm13.335 7.552 12.14 6.955-12.14 6.955-12.141-6.955zm13.533 7.75 12.14 6.955-12.14 6.955-12.14-6.955zm13.334 7.75 12.14 6.955-12.14 6.956-12.14-6.956zm13.335 7.75 12.14 6.955-12.14 6.956-12.141-6.956zm13.334 7.75 12.14 6.956-12.14 6.955-12.14-6.955zm13.533 7.552 12.141 6.955-12.141 6.955-12.14-6.955zm13.335 7.75 12.14 6.955-12.14 6.955-12.141-6.955zm13.334 7.75 12.14 6.955-12.14 6.956-12.14-6.956zm13.334 7.75 12.141 6.955-12.141 6.956-12.14-6.956zm13.335 7.75 12.14 6.956-12.14 6.955-12.14-6.955zm1.393-.795 12.14-6.955 12.14 6.955-12.14 6.956zm13.334-7.75 12.14-6.955 12.141 6.955-12.141 6.956zm13.335-7.75 12.14-6.955 12.14 6.955-12.14 6.955zm13.533-7.75 12.14-6.955 12.14 6.955-12.14 6.955zm13.334-7.551 12.141-6.956 12.14 6.956-12.14 6.955zm13.335-7.751 12.14-6.955 12.14 6.955-12.14 6.956zm13.334-7.75 12.14-6.955 12.141 6.955-12.141 6.956zm13.533-7.75 12.141-6.955 12.14 6.955-12.14 6.955zm13.335-7.75 12.14-6.955 12.14 6.955-12.14 6.955zm13.334-7.551 12.14-6.956 12.141 6.956-12.141 6.955zm13.334-7.75 12.141-6.956 12.14 6.956-12.14 6.955zm13.335-7.751 12.14-6.955 12.14 6.955-12.14 6.956zm13.533-7.75 12.14-6.955 12.141 6.955-12.141 6.956zm13.335-7.75 12.14-6.955 12.14 6.955-12.14 6.955zm13.334-7.551 12.14-6.956 12.14 6.956-12.14 6.955zm13.334-7.75 12.141-6.956 12.14 6.956-12.14 6.955zm13.335-7.751 12.14-6.955 12.14 6.955-12.14 6.956zm13.533-7.75 12.14-6.955 12.141 6.955-12.141 6.956zm13.334-7.75 12.141-6.955 12.14 6.955-12.14 6.955zm13.335-7.551 12.14-6.955 12.14 6.955-12.14 6.955zm-1.393-.795-12.141-6.955 12.141-6.956 12.14 6.956zm-13.335-7.75-12.14-6.955 12.14-6.956 12.14 6.956zm-13.334-7.75-12.14-6.956 12.14-6.955 12.14 6.955zm-13.334-7.75-12.141-6.956 12.141-6.955 12.14 6.955zm-13.534-7.552-12.14-6.955 12.14-6.955 12.14 6.955zm-13.334-7.75-12.14-6.955 12.14-6.956 12.14 6.956zm-13.335-7.75-12.14-6.955 12.14-6.956 12.141 6.956zm-13.334-7.75-12.14-6.956 12.14-6.955 12.14 6.955zm-13.334-7.75-12.141-6.956 12.141-6.955 12.14 6.955zm-13.534-7.751-12.14-6.955 12.14-6.9551 12.141 6.9551zm-13.334-7.551-12.14-6.9552 12.14-6.9553 12.14 6.9553zm-13.334-7.7501-12.141-6.9553 12.141-6.9552 12.14 6.9552zm-13.335-7.7501-12.14-6.9553 12.14-6.9552 12.141 6.9552zm-13.334-7.7502-12.14-6.9552 12.14-6.9553 12.14 6.9553zm-13.533-7.7501-12.141-6.9553 12.141-6.9552 12.14 6.9552zm-13.335-7.5514-12.14-6.9553 12.14-6.9552 12.14 6.9552zm-13.334-7.7502-12.14-6.9552 12.14-6.9553 12.14 6.9553zm-13.335-7.7501-12.14-6.9552 12.14-6.9553 12.141 6.9553zm-13.334-7.7501-12.14-6.9553 12.14-6.9552 12.14 6.9552zm-13.533-7.7502-12.14-6.9552 12.14-6.9552 12.14 6.9552zm-1.194.7949-12.141 6.9553-12.14-6.9553 12.14-6.9552zm-13.534 7.7502-12.14 6.9552-12.14-6.9552 12.14-6.9553zm-13.334 7.7501-12.14 6.9552-12.141-6.9552 12.141-6.9553zm-13.334 7.7501-12.141 6.9553-12.14-6.9553 12.14-6.9552zm-13.335 7.7502-12.14 6.9552-12.14-6.9552 12.14-6.9553zm-13.334 7.5514-12.14 6.9552-12.141-6.9552 12.141-6.9553zm-13.534 7.7501-11.941 6.9553-12.14-6.9553 12.14-6.9552zm-13.334 7.7501-12.14 6.9553-12.14-6.9553 12.14-6.9552zm-13.334 7.7502-12.14 6.9552-12.141-6.9552 12.141-6.9553zm-13.335 7.7502-12.14 6.955-12.14-6.955 12.14-6.9553zm-13.334 7.551-12.14 6.956-12.14-6.956 12.14-6.955zm-13.533 7.75-12.141 6.956-12.14-6.956 12.14-6.955zm-13.335 7.751-12.14 6.955-12.14-6.955 12.14-6.956zm-13.334 7.75-12.14 6.955-12.14-6.955 12.14-6.956zm-13.334 7.75-12.141 6.955-12.14-6.955 12.14-6.955zm-13.335 7.551-12.14 6.956-12.1402-6.956 12.1402-6.955zm-13.533 7.75-12.1403 6.956-12.1403-6.956 12.1403-6.955zm-13.3345 7.751-12.1402 6.955-12.1402-6.955 12.1402-6.956zm-13.3343 7.75-12.1403 6.955-12.1402-6.955 12.1402-6.956zm-13.3344 7.75-12.1402 6.955-12.1402-6.955 12.1402-6.955zm-13.5333 7.551-12.1403 6.955-12.1402-6.955 12.1402-6.955zm1.3931.795 12.1402 6.955-12.1402 6.956-12.1402-6.956zm13.3343 7.75 12.1403 6.955-12.1403 6.956-12.1402-6.956zm13.5334 7.75 12.1403 6.956-12.1403 6.955-12.1402-6.955zm13.3344 7.75 12.1403 6.956-12.1403 6.955-12.1402-6.955zm13.3343 7.552 12.14 6.955-12.14 6.955-12.1402-6.955zm13.334 7.75 12.141 6.955-12.141 6.956-12.14-6.956zm13.335 7.75 12.14 6.955-12.14 6.956-12.14-6.956zm13.533 7.75 12.14 6.956-12.14 6.955-12.14-6.955zm13.334 7.75 12.141 6.956-12.141 6.955-12.14-6.955zm13.335 7.552 12.14 6.955-12.14 6.955-12.14-6.955zm13.334 7.75 12.14 6.955-12.14 6.955-12.14-6.955zm13.335 7.75 12.14 6.955-12.14 6.956-12.141-6.956zm13.533 7.75 12.14 6.955-12.14 6.956-12.14-6.956zm13.334 7.75 12.14 6.956-12.14 6.955-12.14-6.955zm13.335 7.552 12.14 6.955-12.14 6.955-12.141-6.955zm13.334 7.75 12.14 6.955-12.14 6.955-12.14-6.955zm13.533 7.75 12.141 6.955-12.141 6.956-12.14-6.956zm13.335 7.75 12.14 6.955-12.14 6.956-12.141-6.956zm13.334 7.75 12.14 6.956-12.14 6.955-12.14-6.955zm13.334 7.75 12.141 6.956-12.141 6.955-12.14-6.955zm13.335 7.552 12.14 6.955-12.14 6.955-12.14-6.955zm1.393-.795 12.14-6.955 12.14 6.955-12.14 6.955zm13.334-7.551 12.14-6.956 12.141 6.956-12.141 6.955zm13.335-7.751 12.14-6.955 12.14 6.955-12.14 6.956zm13.533-7.75 12.14-6.955 12.14 6.955-12.14 6.956zm13.334-7.75 12.141-6.955 12.14 6.955-12.14 6.955zm13.335-7.75 12.14-6.955 12.14 6.955-12.14 6.955zm13.334-7.551 12.14-6.956 12.141 6.956-12.141 6.955zm13.533-7.751 12.141-6.955 12.14 6.955-12.14 6.956zm13.335-7.75 12.14-6.955 12.14 6.955-12.14 6.956zm13.334-7.75 12.14-6.955 12.141 6.955-12.141 6.955zm13.334-7.75 12.141-6.955 12.14 6.955-12.14 6.955zm13.335-7.551 12.14-6.956 12.14 6.956-12.14 6.955zm13.533-7.75 12.14-6.956 12.141 6.956-12.141 6.955zm13.335-7.751 12.14-6.955 12.14 6.955-12.14 6.956zm13.334-7.75 12.14-6.955 12.14 6.955-12.14 6.956zm13.334-7.75 12.141-6.955 12.14 6.955-12.14 6.955zm13.335-7.551 12.14-6.956 12.14 6.956-12.14 6.955zm13.533-7.75 12.14-6.956 12.141 6.956-12.34 6.955zm13.334-7.751 12.141-6.955 12.14 6.955-12.14 6.956zm13.335-7.75 12.14-6.955 12.14 6.955-12.14 6.956zm13.334-7.75 12.14-6.955 12.14 6.955-12.14 6.955zm24.082-15.301-12.141 6.955-12.14-6.955 12.14-6.956zm-13.335-7.75-12.14 6.955-12.14-6.955 12.14-6.956zm-13.334-7.751-12.14 6.956-12.141-6.956 12.141-6.955zm-13.335-7.75-12.14 6.956-12.14-6.956 12.14-6.955zm-13.533-7.551-12.14 6.955-12.14-6.955 12.14-6.955zm-13.334-7.75-12.141 6.955-12.14-6.955 12.14-6.956zm-13.335-7.75-12.14 6.955-12.14-6.955 12.14-6.956zm-13.334-7.751-12.14 6.956-12.14-6.956 12.14-6.955zm-13.334-7.75-12.141 6.956-12.14-6.956 12.14-6.955zm-13.534-7.551-12.14 6.955-12.14-6.955 12.14-6.9553zm-13.334-7.7502-12.14 6.9552-12.141-6.9552 12.141-6.9553zm-13.334-7.7502-12.141 6.9553-12.14-6.9553 12.14-6.9552zm-13.335-7.7501-12.14 6.9553-12.14-6.9553 12.14-6.9552zm-13.334-7.7501-12.14 6.9552-12.141-6.9552 12.141-6.9553zm-13.533-7.5514-12.141 6.9552-12.14-6.9552 12.14-6.9553zm-13.335-7.7502-12.14 6.9553-12.14-6.9553 12.14-6.9552zm-13.334-7.7501-12.14 6.9552-12.141-6.9552 12.141-6.9553zm-13.335-7.7501-12.14 6.9552-12.14-6.9552 12.14-6.9553zm-13.533-7.7502-12.14 6.9553-12.14-6.9553 12.14-6.9552zm-13.334-7.5514-12.141 6.9553-12.14-6.9553 12.14-6.9552zm-13.335-7.7501-12.14 6.9552-12.14-6.9552 12.14-6.95527zm-25.474-14.70539 12.14 6.95525-12.14 6.95524-12.14-6.95524zm-13.335 7.75012 12.141 6.95527-12.141 6.9552-12.14-6.9552zm-13.334 7.75017 12.14 6.9552-12.14 6.9553-12.14-6.9553zm-13.334 7.5514 12.14 6.9552-12.14 6.9553-12.141-6.9553zm-13.534 7.7501 12.141 6.9553-12.141 6.9552-12.14-6.9552zm-13.334 7.7501 12.14 6.9553-12.14 6.9552-12.14-6.9552zm-13.334 7.7502 12.14 6.9552-12.14 6.9553-12.141-6.9553zm-13.335 7.7501 12.14 6.9553-12.14 6.9552-12.14-6.9552zm-13.334 7.5514 12.14 6.9553-12.14 6.9552-12.14-6.9552zm-13.533 7.7502 12.14 6.9552-12.14 6.9553-12.141-6.9553zm-13.335 7.7501 12.14 6.9552-12.14 6.9553-12.14-6.9553zm-13.334 7.7501 12.14 6.9553-12.14 6.9552-12.14-6.9552zm-13.335 7.7502 12.141 6.9553-12.141 6.955-12.14-6.955zm-1.393 14.5063-12.14 6.956-12.14-6.956 12.14-6.955zm-25.474.795 12.14 6.955-12.14 6.956-12.14-6.956zm-13.335 7.75 12.141 6.956-12.141 6.955-12.14-6.955zm-13.334 7.75 12.14 6.956-12.14 6.955-12.1402-6.955zm-13.3343 7.751 12.1403 6.955-12.1403 6.955-12.1402-6.955zm-13.3344 7.551 12.1403 6.955-12.1403 6.956-12.1402-6.956zm-13.5334 7.75 12.1403 6.955-12.1403 6.956-12.1402-6.956zm-13.3343 7.75 12.1402 6.956-12.1402 6.955-12.1402-6.955zm-13.3344 7.75 12.1403 6.956-12.1403 6.955-12.1402-6.955zm-13.3343 7.751 12.1402 6.955-12.1402 6.955-12.1402-6.955zm-25.4746 14.506 12.1402-6.955 12.1403 6.955-12.1403 6.955zm13.3344 7.75 12.1402-6.955 12.1402 6.955-12.1402 6.956zm13.3343 7.75 12.1402-6.955 12.1403 6.955-12.1403 6.956zm13.5334 7.751 12.1402-6.956 12.1402 6.956-12.1402 6.955zm13.3343 7.75 12.1403-6.956 12.1402 6.956-12.1402 6.955zm13.3344 7.551 12.1402-6.955 12.1403 6.955-12.1403 6.955zm13.3344 7.75 12.1402-6.955 12.1403 6.955-12.1403 6.956zm13.3343 7.75 12.1402-6.955 12.14 6.955-12.14 6.956zm13.5332 7.751 12.14-6.956 12.141 6.956-12.141 6.955zm13.335 7.75 12.14-6.956 12.14 6.956-12.14 6.955zm13.334 7.551 12.14-6.955 12.14 6.955-12.14 6.955zm13.334 7.75 12.14-6.955 12.141 6.955-12.141 6.955zm13.534 7.75 12.14-6.955 12.14 6.955-12.14 6.956zm13.334 7.75 12.14-6.955 12.14 6.955-12.14 6.956zm13.334 7.751 12.141-6.956 12.14 6.956-12.14 6.955zm13.335 7.551 12.14-6.955 12.14 6.955-12.14 6.955zm13.334 7.75 12.14-6.955 12.14 6.955-12.14 6.955zm13.533 7.75 12.141-6.955 12.14 6.955-12.14 6.956zm13.335 7.75 12.14-6.955 12.14 6.955-12.14 6.956zm13.334 7.751 12.14-6.956 12.141 6.956-12.141 6.955zm13.334 7.551 12.141-6.955 12.14 6.955-12.14 6.955zm13.335 7.75 12.14-6.955 12.14 6.955-12.14 6.955zm13.533 7.75 12.14-6.955 12.141 6.955-12.141 6.956zm13.335 7.75 12.14-6.955 12.14 6.955-12.14 6.956zm25.474-.794-12.14-6.956 12.14-6.955 12.14 6.955zm13.334-7.751-12.14-6.955 12.14-6.955 12.141 6.955zm13.335-7.75-12.14-6.955 12.14-6.955 12.14 6.955zm13.334-7.551-12.14-6.955 12.14-6.956 12.14 6.956zm1.393-14.706 12.141-6.955 12.14 6.955-12.14 6.956zm13.335-7.75 12.14-6.955 12.14 6.955-12.14 6.956zm25.474-.795-12.14-6.955 12.14-6.955 12.141 6.955zm13.335-7.75-12.141-6.955 12.141-6.955 12.14 6.955zm13.334-7.551-12.14-6.955 12.14-6.956 12.14 6.956zm13.334-7.75-12.14-6.956 12.14-6.955 12.141 6.955zm13.534-7.75-12.141-6.956 12.141-6.955 12.14 6.955zm13.334-7.751-12.14-6.955 12.14-6.955 12.14 6.955zm13.334-7.75-12.14-6.955 12.14-6.955 12.141 6.955zm13.335-7.551-12.14-6.955 12.14-6.956 12.14 6.956zm13.533-7.75-12.14-6.955 12.14-6.956 12.14 6.956zm13.335-7.75-12.141-6.956 12.141-6.955 12.14 6.955zm13.334-7.75-12.14-6.956 12.14-6.955 12.14 6.955zm13.334-7.751-12.14-6.955 12.14-6.955 12.14 6.955zm13.335-7.551-12.141-6.955 12.141-6.956 12.14 6.956zm13.533-7.75-12.14-6.955 12.14-6.956 12.14 6.956zm1.194-14.706 12.14-6.955 12.14 6.955-12.14 6.956zm25.475-.794-12.141-6.956 12.141-6.955 12.14 6.955zm13.334-7.751-12.14-6.955 12.14-6.955 12.14 6.955z" fill="url(#a)" opacity=".4"/><g clip-path="url(#A)"><path d="m452.6 107-116-67c-1.3-.8-2.7-.9-3.9-.5l-.2.1s0 0-.1 0l-4.2 1.6 3.8 1.8c0 .1 0 .1-.1.2l-18.9 86c-.9 4.3.9 9.3 4.2 11.2l113.2 65.3-.4 4.8 4.6-1.8c1.5-.7 2.8-2.3 3.3-4.7l18.9-86c1-4.1-.9-9.1-4.2-11z" fill="#d0d0d0"/><path d="m452.6 107-116-67c-1.3-.8-2.7-.9-3.9-.5l-.2.1s0 0-.1 0l-4.2 1.6 3.8 1.8c0 .1 0 .1-.1.2l-12.3 56.8 56.7 44.2 80-32.6c-.8-2-2-3.7-3.7-4.6z" fill="#727272"/><path d="m448.3 120.2 8.8-3.8c.2-3.4-1.3-7-3.6-8.8l-14 5.9z" fill="#727272"/><path d="m426.1 210.2-116-67c-3.3-1.9-5.2-6.9-4.2-11.2l18.9-86.0001c.9-4.3 4.4-6.3 7.7-4.4l116 67.0001c3.3 1.9 5.2 6.9 4.2 11.2l-18.9 86c-1 4.3-4.4 6.3-7.7 4.4z" fill="#939393"/><path d="m423.6 203.8-109.1-62.9c-3-1.7-4.7-6.3-3.9-10.3l17.3-78.7c.9-3.9 4-5.7 7-4l109.1 62.9c3 1.7 4.7 6.3 3.9 10.3l-17.3 78.7c-.9 3.9-4 5.7-7 4z" fill="#fff"/><path d="m423.6 203.8-109.1-62.9c-3-1.7-4.7-6.3-3.9-10.3l17.3-78.7c.9-3.9 4-5.7 7-4l109.1 62.9c3 1.7 4.7 6.3 3.9 10.3l-17.3 78.7c-.9 3.9-4 5.7-7 4z" fill="url(#c)"/><path d="m427.7 213.1-15.9-2.1-102.3-59.1c-3.3-1.9-9-1.7-12.8.5l-72.5 41.8-9.6-1.3v5.4c-.1 1.3.7 2.5 2.2 3.4l116 67c3.3 1.9 9 1.7 12.8-.5l79-45.6c2.1-1.2 3.2-2.8 3.1-4.3z" fill="#d0d0d0"/><path d="m350.8 175.8-7.3-4.2h-79.9l-39.4 22.7-9.6-1.3v5.4c-.1 1.3.7 2.5 2.2 3.4l116 67c1.7 1 4.2 1.4 6.6 1.2z" fill="#727272"/><path d="m218.9 193.6-4.3-.6v5.4c-.1 1.3.7 2.5 2.2 3.4l2 1.2v-9.4z" fill="url(#d)"/><path d="m334 269.3c3.1 1.2 7.6.9 10.9-.7v-12.1h-10.9z" fill="#727272"/><path d="m332.8 263.4-116-67c-3.3-1.9-2.9-5.2.9-7.4l79-45.6c3.8-2.2 9.5-2.4 12.8-.5l116 67c3.3 1.9 2.9 5.2-.9 7.4l-79 45.6c-3.8 2.1-9.5 2.4-12.8.5z" fill="url(#f)"/><path d="m424.6 215.3-79 45.6c-3.8 2.2-9.5 2.4-12.8.5l-116-67c-1.1-.6-1.7-1.4-2-2.2-.5 1.6.1 3.1 2 4.2l116 67c3.3 1.9 9 1.7 12.8-.5l79-45.6c2.5-1.5 3.6-3.4 3-5.2-.4 1.1-1.4 2.2-3 3.2z" fill="#fff"/><g fill="#ffbe9d"><path d="m266.2 174.2-5.2-3c-.4-.2-.4-.7.1-.9l6.2-3.6c.5-.3 1.2-.3 1.6-.1l5.2 3c.4.2.4.7-.1.9l-6.2 3.6c-.5.4-1.2.4-1.6.1z"/><path d="m274.3 178.9-5.2-3c-.4-.2-.4-.7.1-.9l6.2-3.6c.5-.3 1.2-.3 1.6-.1l5.2 3c.4.2.4.7-.1.9l-6.2 3.6c-.5.3-1.2.4-1.6.1z"/><path d="m282.4 183.6-5.2-3c-.4-.2-.4-.7.1-.9l6.2-3.6c.5-.3 1.2-.3 1.6-.1l5.2 3c.4.2.4.7-.1.9l-6.2 3.6c-.5.3-1.2.3-1.6.1z"/><path d="m293.6 179.7-5.2-3c-.4-.2-.4-.7.1-.9l5.2-3c.5-.3 1.2-.3 1.6-.1l5.2 3c.4.2.4.7-.1.9l-5.2 3c-.5.3-1.2.4-1.6.1z"/><path d="m301.7 184.4-5.2-3c-.4-.2-.4-.7.1-.9l5.2-3c.5-.3 1.2-.3 1.6-.1l5.2 3c.4.2.4.7-.1.9l-5.2 3c-.5.3-1.2.4-1.6.1z"/><path d="m309.8 189.1-5.2-3c-.4-.2-.4-.7.1-.9l5.2-3c.5-.3 1.2-.3 1.6-.1l5.2 3c.4.2.4.7-.1.9l-5.2 3c-.5.3-1.2.3-1.6.1z"/><path d="m317.9 193.8-5.2-3c-.4-.2-.4-.7.1-.9l5.2-3c.5-.3 1.2-.3 1.6-.1l5.2 3c.4.2.4.7-.1.9l-5.2 3c-.5.3-1.2.3-1.6.1z"/><path d="m326 198.4-5.2-3c-.4-.2-.4-.7.1-.9l5.2-3c.5-.3 1.2-.3 1.6-.1l5.2 3c.4.2.4.7-.1.9l-5.2 3c-.5.4-1.2.4-1.6.1z"/><path d="m334.1 203.1-5.2-3c-.4-.2-.4-.7.1-.9l5.2-3c.5-.3 1.2-.3 1.6-.1l5.2 3c.4.2.4.7-.1.9l-5.2 3c-.5.3-1.2.4-1.6.1z"/><path d="m342.2 207.8-5.2-3c-.4-.2-.4-.7.1-.9l5.2-3c.5-.3 1.2-.3 1.6-.1l5.2 3c.4.2.4.7-.1.9l-5.2 3c-.5.3-1.2.3-1.6.1z"/><path d="m350.3 212.5-5.2-3c-.4-.2-.4-.7.1-.9l5.2-3c.5-.3 1.2-.3 1.6-.1l5.2 3c.4.2.4.7-.1.9l-5.2 3c-.4.3-1.2.3-1.6.1z"/><path d="m358.4 217.2-5.2-3c-.4-.2-.4-.7.1-.9l5.2-3c.5-.3 1.2-.3 1.6-.1l5.2 3c.4.2.4.7-.1.9l-5.2 3c-.4.3-1.2.3-1.6.1z"/><path d="m366.5 221.8-5.2-3c-.4-.2-.4-.7.1-.9l5.2-3c.5-.3 1.2-.3 1.6-.1l5.2 3c.4.2.4.7-.1.9l-5.2 3c-.4.4-1.2.4-1.6.1z"/><path d="m305.5 177.5-5.2-3c-.4-.2-.4-.7.1-.9l5.2-3c.5-.3 1.2-.3 1.6-.1l5.2 3c.4.2.4.7-.1.9l-5.2 3c-.4.3-1.2.4-1.6.1z"/><path d="m297.3 172.8-5.2-3c-.4-.2-.4-.7.1-.9l5.2-3c.5-.3 1.2-.3 1.6-.1l5.2 3c.4.2.4.7-.1.9l-5.2 3c-.5.3-1.2.3-1.6.1z"/><path d="m289.1 168-11.3-6.5c-.4-.2-.4-.7.1-.9l5.2-3c.5-.3 1.2-.3 1.6-.1l11.3 6.5c.4.2.4.7-.1.9l-5.2 3c-.5.3-1.2.4-1.6.1z"/><path d="m294.8 162.2-9.2-5.3c-.4-.2-.4-.7.1-.9l5.2-3c.5-.3 1.2-.3 1.6-.1l9.2 5.3c.4.2.4.7-.1.9l-5.2 3c-.4.3-1.2.4-1.6.1z"/><path d="m313.6 182.2-5.2-3c-.4-.2-.4-.7.1-.9l5.2-3c.5-.3 1.2-.3 1.6-.1l5.2 3c.4.2.4.7-.1.9l-5.2 3c-.4.3-1.2.3-1.6.1z"/><path d="m321.7 186.9-5.2-3c-.4-.2-.4-.7.1-.9l5.2-3c.5-.3 1.2-.3 1.6-.1l5.2 3c.4.2.4.7-.1.9l-5.2 3c-.4.3-1.2.3-1.6.1z"/><path d="m329.8 191.6-5.2-3c-.4-.2-.4-.7.1-.9l5.2-3c.5-.3 1.2-.3 1.6-.1l5.2 3c.4.2.4.7-.1.9l-5.2 3c-.4.3-1.2.3-1.6.1z"/><path d="m337.9 196.2-5.2-3c-.4-.2-.4-.7.1-.9l5.2-3c.5-.3 1.2-.3 1.6-.1l5.2 3c.4.2.4.7-.1.9l-5.2 3c-.4.3-1.2.4-1.6.1z"/><path d="m346 200.9-5.2-3c-.4-.2-.4-.7.1-.9l5.2-3c.5-.3 1.2-.3 1.6-.1l5.2 3c.4.2.4.7-.1.9l-5.2 3c-.4.3-1.1.4-1.6.1z"/><path d="m354.1 205.6-5.2-3c-.4-.2-.4-.7.1-.9l5.2-3c.5-.3 1.2-.3 1.6-.1l5.2 3c.4.2.4.7-.1.9l-5.2 3c-.4.3-1.1.3-1.6.1z"/><path d="m362.2 210.3-5.2-3c-.4-.2-.4-.7.1-.9l5.2-3c.5-.3 1.2-.3 1.6-.1l5.2 3c.4.2.4.7-.1.9l-5.2 3c-.4.3-1.1.3-1.6.1z"/><path d="m370.3 214.9-5.2-3c-.4-.2-.4-.7.1-.9l5.2-3c.5-.3 1.2-.3 1.6-.1l5.2 3c.4.2.4.7-.1.9l-5.2 3c-.4.4-1.1.4-1.6.1z"/><path d="m378.4 219.6-5.2-3c-.4-.2-.4-.7.1-.9l5.2-3c.5-.3 1.2-.3 1.6-.1l5.2 3c.4.2.4.7-.1.9l-5.2 3c-.4.3-1.1.4-1.6.1z"/><path d="m392.8 227.9-11.4-6.6c-.4-.2-.4-.7.1-.9l5.2-3c.5-.3 1.2-.3 1.6-.1l11.4 6.6c.4.2.4.7-.1.9l-5.2 3c-.4.4-1.1.4-1.6.1z"/><path d="m408.6 218.8-9.7-5.6c-.4-.2-.4-.7.1-.9l5.2-3c.5-.3 1.2-.3 1.6-.1l9.7 5.6c.4.2.4.7-.1.9l-5.2 3c-.4.3-1.2.4-1.6.1z"/><path d="m327.8 181.3-5.2-3c-.4-.2-.4-.7.1-.9l5.2-3c.5-.3 1.2-.3 1.6-.1l5.2 3c.4.2.4.7-.1.9l-5.2 3c-.4.3-1.2.3-1.6.1z"/><path d="m319.5 176.5-5.2-3c-.4-.2-.4-.7.1-.9l5.2-3c.5-.3 1.2-.3 1.6-.1l5.2 3c.4.2.4.7-.1.9l-5.2 3c-.4.3-1.2.3-1.6.1z"/><path d="m311.2 171.7-5.2-3c-.4-.2-.4-.7.1-.9l5.2-3c.5-.3 1.2-.3 1.6-.1l5.2 3c.4.2.4.7-.1.9l-5.2 3c-.4.3-1.2.3-1.6.1z"/><path d="m302.9 166.9-5.2-3c-.4-.2-.4-.7.1-.9l5.2-3c.5-.3 1.2-.3 1.6-.1l5.2 3c.4.2.4.7-.1.9l-5.2 3c-.4.3-1.2.3-1.6.1z"/><path d="m335.9 186-5.2-3c-.4-.2-.4-.7.1-.9l5.2-3c.5-.3 1.2-.3 1.6-.1l5.2 3c.4.2.4.7-.1.9l-5.2 3c-.4.3-1.2.3-1.6.1z"/><path d="m344 190.6-5.2-3c-.4-.2-.4-.7.1-.9l5.2-3c.5-.3 1.2-.3 1.6-.1l5.2 3c.4.2.4.7-.1.9l-5.2 3c-.4.4-1.2.4-1.6.1z"/><path d="m352.1 195.3-5.2-3c-.4-.2-.4-.7.1-.9l5.2-3c.5-.3 1.2-.3 1.6-.1l5.2 3c.4.2.4.7-.1.9l-5.2 3c-.4.3-1.2.4-1.6.1z"/><path d="m360.2 200-5.2-3c-.4-.2-.4-.7.1-.9l5.2-3c.5-.3 1.2-.3 1.6-.1l5.2 3c.4.2.4.7-.1.9l-5.2 3c-.4.3-1.2.3-1.6.1z"/><path d="m368.3 204.7-5.2-3c-.4-.2-.4-.7.1-.9l5.2-3c.5-.3 1.2-.3 1.6-.1l5.2 3c.4.2.4.7-.1.9l-5.2 3c-.4.3-1.2.3-1.6.1z"/><path d="m376.4 209.4-5.2-3c-.4-.2-.4-.7.1-.9l5.2-3c.5-.3 1.2-.3 1.6-.1l5.2 3c.4.2.4.7-.1.9l-5.2 3c-.4.3-1.2.3-1.6.1z"/><path d="m384.5 214-5.2-3c-.4-.2-.4-.7.1-.9l5.2-3c.5-.3 1.2-.3 1.6-.1l5.2 3c.4.2.4.7-.1.9l-5.2 3c-.4.3-1.2.4-1.6.1z"/><path d="m392.6 218.7-5.2-3c-.4-.2-.4-.7.1-.9l5.2-3c.5-.3 1.2-.3 1.6-.1l5.2 3c.4.2.4.7-.1.9l-5.2 3c-.4.3-1.1.4-1.6.1z"/><path d="m400.7 223.4-5.2-3c-.4-.2-.4-.7.1-.9l5.2-3c.5-.3 1.2-.3 1.6-.1l5.2 3c.4.2.4.7-.1.9l-5.2 3c-.4.3-1.1.3-1.6.1z"/><path d="m323.5 169.7-5.2-3c-.4-.2-.4-.7.1-.9l5.2-3c.5-.3 1.2-.3 1.6-.1l5.2 3c.4.2.4.7-.1.9l-5.2 3c-.4.3-1.1.4-1.6.1z"/><path d="m315.5 165.1-5.2-3c-.4-.2-.4-.7.1-.9l5.2-3c.5-.3 1.2-.3 1.6-.1l5.2 3c.4.2.4.7-.1.9l-5.2 3c-.5.3-1.2.3-1.6.1z"/><path d="m307.4 160.4-5.2-3c-.4-.2-.4-.7.1-.9l5.2-3c.5-.3 1.2-.3 1.6-.1l5.2 3c.4.2.4.7-.1.9l-5.2 3c-.4.3-1.2.3-1.6.1z"/><path d="m299.4 155.7-5.2-3c-.4-.2-.4-.7.1-.9l5.2-3c.5-.3 1.2-.3 1.6-.1l5.2 3c.4.2.4.7-.1.9l-5.2 3c-.5.4-1.2.4-1.6.1z"/><path d="m307.6 151-5.2-3c-.4-.2-.4-.7.1-.9l1.7-1c.5-.3 1.2-.3 1.6-.1l5.2 3c.4.2.4.7-.1.9l-1.7 1c-.4.3-1.1.3-1.6.1z"/><path d="m318.2 157-5.2-3c-.4-.2-.4-.7.1-.9l1.7-1c.5-.3 1.2-.3 1.6-.1l5.2 3c.4.2.4.7-.1.9l-1.7 1c-.5.3-1.2.4-1.6.1z"/><path d="m326.2 161.7-5.2-3c-.4-.2-.4-.7.1-.9l1.7-1c.5-.3 1.2-.3 1.6-.1l5.2 3c.4.2.4.7-.1.9l-1.7 1c-.4.3-1.2.3-1.6.1z"/><path d="m334.2 166.3-5.2-3c-.4-.2-.4-.7.1-.9l1.7-1c.5-.3 1.2-.3 1.6-.1l5.2 3c.4.2.4.7-.1.9l-1.7 1c-.4.3-1.2.3-1.6.1z"/><path d="m342.3 170.9-5.2-3c-.4-.2-.4-.7.1-.9l1.7-1c.5-.3 1.2-.3 1.6-.1l5.2 3c.4.2.4.7-.1.9l-1.7 1c-.5.4-1.2.4-1.6.1z"/><path d="m387.1 196.8-5.2-3c-.4-.2-.4-.7.1-.9l1.7-1c.5-.3 1.2-.3 1.6-.1l5.2 3c.4.2.4.7-.1.9l-1.7 1c-.5.3-1.2.4-1.6.1z"/><path d="m395.1 201.5-5.2-3c-.4-.2-.4-.7.1-.9l1.7-1c.5-.3 1.2-.3 1.6-.1l5.2 3c.4.2.4.7-.1.9l-1.7 1c-.4.3-1.2.3-1.6.1z"/><path d="m403.1 206.1-5.2-3c-.4-.2-.4-.7.1-.9l1.7-1c.5-.3 1.2-.3 1.6-.1l5.2 3c.4.2.4.7-.1.9l-1.7 1c-.4.3-1.1.3-1.6.1z"/><path d="m411.2 210.7-5.2-3c-.4-.2-.4-.7.1-.9l1.7-1c.5-.3 1.2-.3 1.6-.1l5.2 3c.4.2.4.7-.1.9l-1.7 1c-.5.3-1.2.4-1.6.1z"/><path d="m331.6 174.4-5.2-3c-.4-.2-.4-.7.1-.9l5.2-3c.5-.3 1.2-.3 1.6-.1l5.2 3c.4.2.4.7-.1.9l-5.2 3c-.4.3-1.1.3-1.6.1z"/><path d="m339.7 179.1-5.2-3c-.4-.2-.4-.7.1-.9l5.2-3c.5-.3 1.2-.3 1.6-.1l5.2 3c.4.2.4.7-.1.9l-5.2 3c-.4.3-1.1.3-1.6.1z"/><path d="m347.8 183.7-5.2-3c-.4-.2-.4-.7.1-.9l5.2-3c.5-.3 1.2-.3 1.6-.1l5.2 3c.4.2.4.7-.1.9l-5.2 3c-.4.4-1.1.4-1.6.1z"/><path d="m356 188.4-5.2-3c-.4-.2-.4-.7.1-.9l5.2-3c.5-.3 1.2-.3 1.6-.1l5.2 3c.4.2.4.7-.1.9l-5.2 3c-.5.3-1.2.4-1.6.1z"/><path d="m364.1 193.1-5.2-3c-.4-.2-.4-.7.1-.9l5.2-3c.5-.3 1.2-.3 1.6-.1l5.2 3c.4.2.4.7-.1.9l-5.2 3c-.5.3-1.2.3-1.6.1z"/><path d="m372.2 197.8-5.2-3c-.4-.2-.4-.7.1-.9l5.2-3c.5-.3 1.2-.3 1.6-.1l5.2 3c.4.2.4.7-.1.9l-5.2 3c-.5.3-1.2.3-1.6.1z"/><path d="m380.3 202.5-5.2-3c-.4-.2-.4-.7.1-.9l5.2-3c.5-.3 1.2-.3 1.6-.1l5.2 3c.4.2.4.7-.1.9l-5.2 3c-.5.3-1.2.3-1.6.1z"/><path d="m388.4 207.1-5.2-3c-.4-.2-.4-.7.1-.9l5.2-3c.5-.3 1.2-.3 1.6-.1l5.2 3c.4.2.4.7-.1.9l-5.2 3c-.5.4-1.2.4-1.6.1z"/><path d="m396.5 211.8-5.2-3c-.4-.2-.4-.7.1-.9l5.2-3c.5-.3 1.2-.3 1.6-.1l5.2 3c.4.2.4.7-.1.9l-5.2 3c-.5.3-1.2.4-1.6.1z"/><path d="m285.3 175-15.5-8.9c-.4-.2-.4-.7.1-.9l5.2-3c.5-.3 1.2-.3 1.6-.1l15.5 8.9c.4.2.4.7-.1.9l-5.2 3c-.4.3-1.2.3-1.6.1z"/><path d="m384.9 232.4-15.5-8.9c-.4-.2-.4-.7.1-.9l5.2-3c.5-.3 1.2-.3 1.6-.1l15.5 8.9c.4.2.4.7-.1.9l-5.2 3c-.5.4-1.2.4-1.6.1z"/><path d="m352.5 224.1-5.2-3c-.4-.2-.4-.7.1-.9l6.2-3.6c.5-.3 1.2-.3 1.6-.1l5.2 3c.4.2.4.7-.1.9l-6.2 3.6c-.5.3-1.2.3-1.6.1z"/><path d="m293.6 190.1-8.4-4.8c-.4-.2-.4-.7.1-.9l6.2-3.6c.5-.3 1.2-.3 1.6-.1l8.4 4.8c.4.2.4.7-.1.9l-6.2 3.6c-.4.3-1.2.3-1.6.1z"/><path d="m344.7 219.6-8.4-4.8c-.4-.2-.4-.7.1-.9l6.2-3.6c.5-.3 1.2-.3 1.6-.1l8.4 4.8c.4.2.4.7-.1.9l-6.2 3.6c-.5.3-1.2.3-1.6.1z"/><path d="m305.3 196.8-8.4-4.8c-.4-.2-.4-.7.1-.9l6.2-3.6c.5-.3 1.2-.3 1.6-.1l8.4 4.8c.4.2.4.7-.1.9l-6.2 3.6c-.4.4-1.2.4-1.6.1z"/><path d="m304.9 187.4 36.5 21.1c.5.3.5.7 0 .9l-6.3 3.6c-.5.3-1.2.3-1.6 0l-36.5-21z"/><path d="m375.1 232.5 5.8 3.4c.3.2.3.5-.1.8l-2.5 1.5c-.4.2-1 .3-1.3.1l-5.8-3.4c-.3-.2-.3-.5.1-.8l2.5-1.5c.4-.2 1-.3 1.3-.1z"/><path d="m366.9 227.8 5.8 3.4c.3.2.3.5-.1.8l-2.5 1.5c-.4.2-1 .3-1.3.1l-5.8-3.4c-.3-.2-.3-.5.1-.8l2.5-1.5c.4-.2 1-.3 1.3-.1z"/><path d="m358.8 223.2 5.8 3.4c.3.2.3.5-.1.8l-2.5 1.5c-.4.2-1 .3-1.3.1l-5.8-3.4c-.3-.2-.3-.5.1-.8l2.5-1.5c.4-.3 1-.3 1.3-.1z"/><path d="m371.4 225.2 5.8 3.4c.3.2.3.5-.1.8l-2.5 1.5c-.4.2-1 .3-1.3.1l-5.8-3.4c-.3-.2-.3-.5.1-.8l2.5-1.5c.4-.2 1-.3 1.3-.1z"/></g><path d="m417 116.5-52.7-30.3999.6-3.5 52.7 30.4999z" fill="#4d4d4d"/><path d="m398.1 122.3-36.8-21.3.7-3.3999 36.8 21.2999z" fill="#4d4d4d"/><path d="m394.6 111.9-31.8-18.2999.7-3.5 31.8 18.3999z" fill="#f16822"/><path d="m415.5 124-15.9-9.2.6-3.4 16 9.2z" fill="#f16822"/><path d="m416.5 150.2-9.3 44.1-33.5-19.3 7.3-14.3z" fill="#4d4d4d"/><path d="m312.9 218c-9.3-5.4-9.3-18.8 0-24.2l46.7-27 47.5 27.4-41 23.8c-16.5 9.5-36.7 9.5-53.2 0z" fill="#4d4d4d" opacity=".7"/><path d="m355.8 81.5-16.5-9.5.7-3.5 16.5 9.5z" fill="#4d4d4d"/><path d="m354.3 89-16.4-9.5.7-3.5 16.4 9.5z" fill="#f16822"/><path d="m212.3 169.5c-7.5-4.2-12.2-13.3-12.2-26.4-.1-26 18.1-57.7001 40.5-70.8001l16.2-9.4.8.4 74.2 41.7001-18.8 12.3-7.1 5.2-9.7 10.2-1.6 1.4-10.3 15.7-3.8 9.8-2.8 7.8-2.3 16.4-.2 1.4.8 6.9 2.4 8.5 3.4 5.8 4.9 5.8z" fill="url(#g)"/><path d="m342.2 104.8v2.7l-49.2 28.6c.8-1.9 2.4-3.5 4-5.1z" fill="#939393"/><path d="m416.5 147.4-74.3-42.6-44.9 27-5.6 6.5-8.5 14.9-5.3 14.8-1.7 11.6-.2 11.6 7.2 16.6 9.4 5.5 9.7.5 11.7-4.9 91.9-54z" fill="url(#i)"/><path d="m212.3 169.5c-6.3-3.5-10.6-10.5-11.8-20.4l75.7 43.4 2.3 8.1 3.4 5.8 4.9 5.8z" fill="#727272"/><path d="m200.8 151c-.4-2.5-.7-5.1-.7-8 0-1.9.1-3.9.3-5.8l75.5 43.3-.5 3.3-.2 1.4.8 6.9.7 2.5z" fill="#fcfcfc"/><path d="m416.5 150.2v-2.7l-101.3 58.9c-21.1 12.3-38.4 2.4-38.4-22-.1-24.4 17-54.3 38.2-66.6l17-9.9v-2.7l-17 9.9c-22.4 13-40.6 44.8-40.5 70.7s18.4 36.4 40.8 23.4z" fill="#b9b9b9"/><path d="m376 155.4-45.6-26.6-2.9 1.7 45.7 26.6z" fill="#fff"/><path d="m374.8 140.3-31.9-18.6-2.9 1.6 31.9 18.6z" fill="#fff"/><path d="m364.2 141.3-27.6-16-2.8 1.6 27.5 16.1z" fill="#fff"/><path d="m382.3 151.9-13.8-8.1-2.9 1.7 13.8 8z" fill="#fff"/><path d="m478.6 218.3c-.1-.1-.2-.2-.4-.2l-5.2 1.1 2 3.5 3.6-4c.1-.1.1-.3 0-.4z" fill="#f16822"/><path d="m476.5 220.8c0-.8-.5-1.7-1.2-2.1-.3-.2-.6-.2-.8-.1-6-.1-12 1.4-17.2 4.4l-.4.2 6.4 11.1 1.9-1.3c4.1-2.7 7.5-6.2 10.1-10.3l.8-1.3c.3 0 .4-.2.4-.6z" fill="url(#j)"/><path clip-rule="evenodd" d="m460.2 223.6c2.5 1.5 4.5 5 4.5 7.9 0 1.701-.722 2.817-1.803 3.146l-38.397 23.454-7.5-13.2 39.9-21.6.009.015c.819-.545 1.987-.497 3.291.285z" fill="url(#l)" fill-rule="evenodd"/><path d="m426.1 254.6c0-3.4-2.4-7.6-5.3-9.3-3-1.7-5.4-.3-5.4 3.1s2.4 7.6 5.3 9.3c3 1.7 5.4.3 5.4-3.1z" fill="#939393"/><path d="m423.9 255.9c0-3.4-2.4-7.6-5.3-9.3-3-1.7-5.4-.3-5.4 3.1s2.4 7.6 5.3 9.3c3 1.7 5.4.3 5.4-3.1z" fill="#939393"/><path d="m414.781 246.173-51.333 29.494 7.523 13.093 51.333-29.493z" fill="#939393"/><path d="m372.6 285.4c0-3.4-2.4-7.6-5.3-9.3-3-1.7-5.4-.3-5.4 3.1s2.4 7.6 5.3 9.3c3 1.7 5.4.3 5.4-3.1z" fill="#939393"/><path d="m370.7 284.3c-.1-2-1.7-4.5-3.6-5.6s-3.4-.4-3.3 1.7 1.7 4.5 3.6 5.6c1.9 1 3.4.3 3.3-1.7z" fill="#727272"/><path d="m426.5 254.4c0-3.4-2.4-7.6-5.3-9.3-1.2-.7-2.3-.9-3.2-.6 1-1 2.6-1.1 4.3-.1 3 1.7 5.3 5.9 5.3 9.3 0 2-.9 3.3-2.2 3.7.7-.6 1.1-1.7 1.1-3z" fill="#fff"/><path d="m426.5 254.4c0-3.4-2.4-7.6-5.3-9.3-1.5-.9-2.8-.9-3.8-.4l-2.9 1.7 1.4 2.4c.2 3.1 2.3 6.7 4.8 8.4l1.4 2.4 2.9-1.7c.9-.6 1.5-1.8 1.5-3.5z" fill="url(#m)"/><path d="m423.6 256.1c0-3.4-2.4-7.6-5.3-9.3-3-1.7-5.4-.3-5.4 3.1s2.4 7.6 5.3 9.3c3 1.7 5.4.3 5.4-3.1z" fill="#939393"/><path d="m368.3 285.7-3.3-5.7-10.9 6.2c-1.6.9-2.1 2.9-1.2 4.5s2.9 2.1 4.5 1.2z" fill="#f16822"/><path d="m369 284.2c0-1.5-1-3.3-2.3-4s-2.3-.1-2.3 1.3c0 1.5 1 3.3 2.3 4s2.2.2 2.3-1.3z" fill="#f16822"/><path d="m381.2 264.5-1.6-.9c-.9-.5-2.2-.4-3.5.3l-5.6 3.2c-1.1.6-1.9 2.1-1.9 3.3v2.8c0 .5-.2 1-.6 1.4l.2 1.3-1.4-.8c-.2-.1-.3-.3-.3-.7v-2.8c0-2.5 1.8-5.6 4-6.9l5.6-3.2c1.9-1.1 3.6-1.2 4.9-.5l1.6.9c.9.5 2.2.4 3.5-.3l22.5-12.9c.3-.2.6-.2.7-.1l1.4.8-1.2.4c-.2.5-.5 1-.9 1.2l-22.5 13c-1.9 1.1-3.6 1.2-4.9.5z" fill="url(#n)"/><path d="m380.9 264.4c-.9-.5-2.2-.4-3.5.3l-5.6 3.2c-1.1.6-1.9 2.1-1.9 3.3v2.8c0 .7-.5 1.5-1 1.8-.6.3-1 .1-1-.6v-2.8c0-2.5 1.8-5.6 4-6.9l5.6-3.2c1.9-1.1 3.6-1.2 4.9-.5l1.6.9c.9.5 2.2.4 3.5-.3l22.5-12.9c.6-.3 1-.1 1 .6s-.5 1.5-1 1.8l-22.5 12.9c-1.9 1.1-3.6 1.2-4.9.5z" fill="url(#o)"/><path d="m369.9 271.7v2.8.1c.1-.2.1-.3.1-.5v-2.8c0-.1 0-.2 0-.2-.1.1-.1.3-.1.6z" fill="#fff"/><path d="m177.5 173-13.7 7.9v-15.9l13.7-7.9z" fill="url(#p)"/><path d="m163.8 165-13.8-7.9 13.8-8 13.7 8z" fill="#d84b0e"/><path d="m163.8 180.9-13.8-7.9v-15.9l13.8 7.9z" fill="#f16822"/><path d="m494.2 173.9-15.4 8.9v-17.7l15.4-8.9z" fill="url(#q)"/><path d="m478.8 165.1-15.3-8.9 15.3-8.8 15.4 8.8z" fill="#939393"/><path d="m478.8 182.8-15.3-8.9v-17.7l15.3 8.9z" fill="url(#r)"/><path d="m274.4 279.3-15.4 8.8v-17.7l15.4-8.8z" fill="url(#s)"/><path d="m259 270.4-15.3-8.8 15.3-8.9 15.4 8.9z" fill="#d84b0e"/><path d="m259 288.1-15.3-8.8v-17.7l15.3 8.8z" fill="#f16822"/><path d="m313.4 175.3c12.868 0 23.3-5.999 23.3-13.4s-10.432-13.4-23.3-13.4-23.3 5.999-23.3 13.4 10.432 13.4 23.3 13.4z" fill="#c5c5c5"/><path d="m336.7 155v-4.3h-1.2c-1.1-1.9-3-3.7-5.6-5.2-9.1-5.3-23.8-5.3-32.9 0-2.6 1.5-4.5 3.3-5.6 5.2h-1.2v4.2c0 3.5 2.3 6.9 6.8 9.5 9.1 5.3 23.8 5.3 32.9 0 4.5-2.5 6.8-6 6.8-9.4z" fill="url(#t)"/><path d="m313.4 164.1c12.868 0 23.3-5.999 23.3-13.4s-10.432-13.4-23.3-13.4-23.3 5.999-23.3 13.4 10.432 13.4 23.3 13.4z" fill="#f16822"/><path d="m329.8 160.2c-9.1 5.3-23.8 5.3-32.9 0-4.4-2.5-6.6-5.8-6.8-9.1-.2 3.6 2.1 7.2 6.8 9.9 9.1 5.3 23.8 5.3 32.9 0 4.7-2.7 7-6.4 6.8-9.9-.2 3.3-2.4 6.6-6.8 9.1z" fill="#fff"/><path d="m302.1 155.2c-.4-.2-.6-.5-.6-.9v-8.8c0-.7.9-1.2 2.1-1.2s2.1.5 2.1 1.2v7.3l21.1-2.6c1.1-.1 2.2.3 2.5.9.2.7-.5 1.3-1.6 1.4l-23.6 2.9c-.6.1-1.3 0-1.8-.2-.1 0-.1 0-.2 0z" fill="#fff"/><path d="m415.3 129.8c-.4.9-1.5 1.2-2.3.7-.9-.5-1.3-1.7-.8-2.6.4-.9 1.5-1.2 2.3-.7.9.6 1.2 1.7.8 2.6z" fill="#f16822"/><path d="m421 133.1c-.4.9-1.5 1.2-2.3.7-.9-.5-1.3-1.7-.8-2.6s1.5-1.2 2.3-.7 1.2 1.7.8 2.6z" fill="#4d4d4d"/><path d="m426.6 136.3c-.4.9-1.5 1.2-2.3.7-.9-.5-1.3-1.7-.8-2.6s1.5-1.2 2.3-.7c.8.6 1.2 1.7.8 2.6z" fill="#4d4d4d"/><path d="m432.2 139.6c-.4.9-1.5 1.2-2.3.7-.9-.5-1.3-1.7-.8-2.6.4-.9 1.5-1.2 2.3-.7.9.5 1.2 1.7.8 2.6z" fill="#f16822"/><path d="m257.6 63.4-.8-.4-16.2 9.4c-5.3 3.1-10.4 7.2-15 12.1l27.7 16 34.6-20z" fill="#aaa"/><path d="m287.2 63.7999-5-2.9 18.5-10.7c.9-.5.9-1.3 0-1.8l-19-10.9c-.9-.5-2.3-.5-3.2 0l-18.5 10.7-5-2.9 18.5-10.7c3.6-2.1 9.6-2.1 13.2 0l18.9 10.9c3.6 2.1 3.6 5.5 0 7.6z" fill="url(#u)"/><path d="m295.3 65.0998c0-2.7-1.6-5.8-3.6-7l-33.6-19.3c-.9-.5-1.7-.6-2.4-.2l-40.1 23.3 38.8 29.2 39.5-22.9c.1-.1.2-.1.3-.2.7-.6 1.1-1.5 1.1-2.9z" fill="url(#v)"/><path d="m254.4 91.0998 39.5-22.9c.1-.1.2-.1.3-.2.7-.5 1.1-1.5 1.1-2.8s-.4-2.7-1-3.9l-45 26z" fill="#dc500d"/><path d="m251.8 90.9998-33.5-19.4c-2-1.2-3.6-4.3-3.6-7s1.6-3.9 3.6-2.8l33.6 19.4c2 1.2 3.6 4.3 3.6 7s-1.6 3.9-3.7 2.8z" fill="#f16822"/><path d="m252.3 80.9997-33.6-19.3c-.9-.5-1.8-.6-2.4-.2.6-.2 1.3-.1 2 .4l33.6 19.4c2 1.2 3.6 4.3 3.6 7 0 1.5-.5 2.5-1.2 2.9 1-.3 1.6-1.4 1.6-3.1 0-2.8-1.6-5.9-3.6-7.1z" fill="#fff"/><path d="m246.8 84.4-4-2.3c-.4-.2-.7-.9-.7-1.4s.3-.8.7-.5l4 2.3c.4.2.7.9.7 1.4s-.3.8-.7.5z" fill="#fff"/><path d="m251.4 56.8999c1.2-.7 1.2-1.9 0-2.6s-3.2-.7-4.4 0-1.2 1.9 0 2.6 3.2.7 4.4 0z" fill="url(#w)"/><path d="m258.1 60.7c1.2-.7 1.2-1.9 0-2.6s-3.2-.7-4.4 0-1.2 1.9 0 2.6 3.2.7 4.4 0z" fill="#fff"/><path d="m264.9 64.5c1.2-.7 1.2-1.9 0-2.6s-3.2-.7-4.4 0-1.2 1.9 0 2.6 3.2.7 4.4 0z" fill="#fff"/><path d="m223.6 237.7v-10.6h-23.8l-8.2-4.7c-1.9-1.1-5.2-1-7.4.3l-7.7 4.4h-23.8v10.9c-.1.7.4 1.4 1.3 2l30.7 17.7c1.9 1.1 5.2 1 7.4-.3l29.6-17.1c1.4-.7 2-1.7 1.9-2.6z" fill="#727272"/><path d="m188.2 221.7c-1.4 0-2.8.4-3.9 1l-7.7 4.4h-23.8v10.9c-.1.7.4 1.4 1.3 2l30.7 17.7c.9.5 2.1.8 3.4.7z" fill="#727272"/><path d="m155.5 227.1h-2.7v10.9c-.1.7.4 1.4 1.3 2l1.4.8z" fill="url(#x)"/><path d="m185.3 257.9c1.6.7 4 .7 5.9-.1v-12.4h-5.9z" fill="url(#y)"/><path d="m184.8 246.8-30.7-17.7c-1.9-1.1-1.6-3 .5-4.2l29.6-17.1c2.2-1.3 5.5-1.4 7.4-.3l30.7 17.7c1.9 1.1 1.6 3-.5 4.2l-29.6 17.1c-2.2 1.3-5.5 1.4-7.4.3z" fill="#939393"/><path d="m221.8 227.3-29.6 17.1c-2.2 1.3-5.5 1.4-7.4.3l-30.7-17.7c-.4-.2-.7-.5-.9-.8-.6 1-.4 2.2.9 2.9l30.7 17.7c1.9 1.1 5.2 1 7.4-.3l29.6-17.1c1.7-1 2.2-2.3 1.5-3.4-.3.5-.8.9-1.5 1.3z" fill="#c4c4c4"/><path d="m212.3 240.5c0 .8-.6 1.8-1.2 2.1-.7.4-1.2.1-1.2-.7s.6-1.8 1.2-2.1c.6-.4 1.2-.1 1.2.7z" fill="#939393"/><path d="m216.3 238.2c0 .8-.6 1.8-1.2 2.1-.7.4-1.2.1-1.2-.7s.6-1.8 1.2-2.1c.6-.4 1.2-.1 1.2.7z" fill="#939393"/><path d="m220.3 235.9c0 .8-.6 1.8-1.2 2.1-.7.4-1.2.1-1.2-.7s.6-1.8 1.2-2.1c.6-.4 1.2-.1 1.2.7z" fill="#939393"/><path d="m186.6 235.9-14.4-8.3c-.9-.5-.8-1.4.2-2l13.9-8c1-.6 2.6-.7 3.4-.1l14.4 8.3c.9.5.8 1.4-.2 2l-13.9 8c-1 .5-2.5.6-3.4.1z" fill="url(#z)"/><path d="m188 228.9-2-1.1c-.1-.1-.1-.2 0-.3l1.9-1.1c.1-.1.4-.1.5 0l2 1.1c.1.1.1.2 0 .3l-1.9 1.1c-.2.1-.4.1-.5 0z" fill="#939393"/><path d="m172.3 227.6c.1 0 .2-.1.2-.1l13.9-8c1-.6 2.6-.7 3.4-.1l14.3 8.3c.8-.6.9-1.4 0-1.8l-14.4-8.3c-.9-.5-2.4-.4-3.4.1l-13.9 8c-.9.5-1 1.4-.1 1.9z" fill="#727272"/></g></svg>