<svg fill="none" height="298.52133" viewBox="0 0 379.00183 298.52133" width="379.00183" xmlns="http://www.w3.org/2000/svg" xmlns:xlink="http://www.w3.org/1999/xlink"><linearGradient id="a"><stop offset="0" stop-color="#fff"/><stop offset="1" stop-color="#b9b9b9"/></linearGradient><linearGradient id="b" gradientUnits="userSpaceOnUse" x1="328.04435" x2="315.34334" xlink:href="#a" y1="84.971901" y2="86.898201"/><linearGradient id="c" gradientUnits="userSpaceOnUse" x1="315.14434" x2="302.44335" xlink:href="#a" y1="81.971901" y2="83.8983"/><linearGradient id="d" gradientUnits="userSpaceOnUse" x1="302.14434" x2="289.44335" xlink:href="#a" y1="78.971901" y2="80.8983"/><linearGradient id="e"><stop offset="0" stop-color="#d5d5d5"/><stop offset="1" stop-color="#6b6b6b"/></linearGradient><linearGradient id="f" gradientUnits="userSpaceOnUse" x1="297.90334" x2="295.18134" xlink:href="#e" y1="77.802498" y2="88.939598"/><linearGradient id="g" gradientUnits="userSpaceOnUse" x1="301.14633" x2="296.49533" xlink:href="#a" y1="81.457199" y2="84.543404"/><linearGradient id="h" gradientUnits="userSpaceOnUse" x1="306.65734" x2="294.19034" xlink:href="#a" y1="67.776604" y2="71.961502"/><linearGradient id="i" gradientUnits="userSpaceOnUse" x1="309.94735" x2="307.25833" xlink:href="#e" y1="85.020203" y2="96.158798"/><linearGradient id="j" gradientUnits="userSpaceOnUse" x1="313.14633" x2="308.46834" xlink:href="#a" y1="88.619698" y2="91.694298"/><linearGradient id="k" gradientUnits="userSpaceOnUse" x1="318.64633" x2="306.20034" xlink:href="#a" y1="74.948097" y2="79.141701"/><linearGradient id="l" gradientUnits="userSpaceOnUse" x1="322.09433" x2="319.37334" xlink:href="#e" y1="92.107399" y2="103.241"/><linearGradient id="m" gradientUnits="userSpaceOnUse" x1="325.34635" x2="320.66834" xlink:href="#a" y1="95.720001" y2="98.794601"/><linearGradient id="n" gradientUnits="userSpaceOnUse" x1="330.84233" x2="318.31934" xlink:href="#a" y1="82.056" y2="86.310501"/><linearGradient id="o" gradientUnits="userSpaceOnUse" x1="360.90235" x2="231.84134" xlink:href="#a" y1="111.843" y2="173.62601"/><linearGradient id="p" gradientUnits="userSpaceOnUse" x1="289.08934" x2="265.08434" xlink:href="#e" y1="62.476799" y2="207.52499"/><linearGradient id="q" gradientUnits="userSpaceOnUse" x1="328.86234" x2="213.145038" xlink:href="#a" y1="209.858" y2="327.035"/><linearGradient id="r"><stop offset="0" stop-color="#f17922"/><stop offset="1" stop-color="#d74608"/></linearGradient><linearGradient id="s" gradientUnits="userSpaceOnUse" x1="141.84444" x2="239.06134" xlink:href="#r" y1="180.565" y2="305.17001"/><linearGradient id="t" gradientUnits="userSpaceOnUse" x1="376.97034" x2="287.97034" xlink:href="#r" y1="106" y2="20"/><linearGradient id="u" gradientUnits="userSpaceOnUse" x1="278.16634" x2="351.31134" xlink:href="#r" y1="15.7462" y2="69.946404"/><linearGradient id="v" gradientUnits="userSpaceOnUse" x1="198.028" x2="181.44299" xlink:href="#a" y1="47.048801" y2="52.3447"/><clipPath id="w"><path d="m182 38h19v31h-19z"/></clipPath><linearGradient id="x" gradientUnits="userSpaceOnUse" x1="157.820007" x2="143.606987" xlink:href="#a" y1="119.09846" y2="96.672759"/><linearGradient id="y" gradientUnits="userSpaceOnUse" x1="66.820195" x2="52.606599" xlink:href="#a" y1="202.098559" y2="179.672559"/><linearGradient id="z" gradientUnits="userSpaceOnUse" x1="48.391099" x2="26.360898" xlink:href="#r" y1="101.922759" y2="103.244959"/><path d="m317.67834 117.788c-.1 0-.1 0-.2 0-.5-.1-.9-.7-.8-1.2l9.8-42.2999c.1-.5.7-.9 1.2-.8s.9.7.8 1.2l-9.8 42.2999c-.1.4-.5.8-1 .8z" fill="url(#b)"/><path d="m304.77834 114.788c-.1 0-.1 0-.2 0-.5-.1-.9-.7-.8-1.2l9.8-42.2999c.1-.5.7-.9 1.2-.8s.9.7.8 1.2l-9.8 42.2999c-.2.5-.6.8-1 .8z" fill="url(#c)"/><path d="m291.77834 111.788c-.1 0-.1 0-.2 0-.5-.1-.9-.7-.8-1.2l9.8-42.2999c.1-.5.7-.9 1.2-.8s.9.7.8 1.2l-9.8 42.2999c-.1.5-.5.8-1 .8z" fill="url(#d)"/><path clip-rule="evenodd" d="m296.56934 78.3167 5.257 1.2322-2.589 11.0468c.017.4858-.343.9134-1.059 1.0922-1.2.3-2.8 0-3.7-.9-.426-.3789-.605-.8027-.549-1.1758l-.007-.0017z" fill="url(#f)" fill-rule="evenodd"/><path d="m296.17834 80.1883-.9 3.8c1.4 1.1 3.5 1.6 5.2 1.2l.9-3.8c-1.3-1-3.5-1.5-5.2-1.2z" fill="url(#g)"/><path clip-rule="evenodd" d="m298.66734 62.23 8.47 1.9853-4.13 17.6222-.014-.0033c-.127.6656-.683 1.2436-1.615 1.554-1.9.6-4.6-.1-6-1.4-.742-.6896-1.006-1.4636-.807-2.128l-.035-.0081z" fill="url(#h)" fill-rule="evenodd"/><path d="m296.07834 88.9881c-.1.6-.6.7-1 .3s-.6-1.2-.5-1.7c.1-.6.6-.7 1-.3s.6 1.2.5 1.7z" fill="#fff"/><path clip-rule="evenodd" d="m308.65734 85.5337 5.257 1.2323-2.647 11.2937-.066-.0155c-.108.3513-.453.6542-1.023.8442-1.2.3-2.8 0-3.7-.9-.597-.5313-.71-1.1508-.367-1.5949z" fill="url(#i)" fill-rule="evenodd"/><path d="m308.17834 87.388-.9 3.8c1.4 1.1 3.5 1.6 5.2 1.2l.9-3.8c-1.3-1.1-3.5-1.6-5.2-1.2z" fill="url(#j)"/><path clip-rule="evenodd" d="m310.65634 69.4265 8.47 1.9854-4.079 17.4034c-.046.7221-.608 1.3377-1.669 1.6728-1.9.6-4.6-.1-6-1.4-.708-.6576-.981-1.3919-.832-2.0347l-.02-.0047z" fill="url(#k)" fill-rule="evenodd"/><path d="m308.07834 96.188c-.1.6-.6.7-1 .3s-.6-1.2-.5-1.7c.1-.6.6-.7 1-.3s.7 1.1.5 1.7z" fill="#fff"/><path clip-rule="evenodd" d="m320.75934 92.6213 5.257 1.2323-2.647 11.2934-.008-.002c-.119.351-.461.653-.983.843-1.2.3-2.8 0-3.7-.9-.423-.376-.603-.798-.55-1.169l-.016-.004z" fill="url(#l)" fill-rule="evenodd"/><path d="m320.37834 94.4884-.9 3.8c1.4 1.1 3.5 1.6 5.2 1.2l.9-3.8c-1.4-1.1-3.5-1.6-5.2-1.2z" fill="url(#m)"/><path clip-rule="evenodd" d="m322.85534 76.5371 8.47 1.9853-4.13 17.6222-.041-.0096c-.149.6265-.724 1.1529-1.676 1.4534-1.9.6-4.6-.1-6-1.4-.883-.8199-1.089-1.7592-.645-2.4917z" fill="url(#n)" fill-rule="evenodd"/><path d="m320.27834 103.288c-.1.6-.6.7-1 .3s-.6-1.2-.5-1.7c.1-.6.6-.7 1-.3s.6 1.2.5 1.7z" fill="#fff"/><path d="m361.97834 135.188-116.2-67.0999c-1.3-.8-2.7-.9-3.9-.5l-.2.1s0 0-.1 0l-4.2 1.6001 3.8 1.7999c0 .1 0 .1001-.1.2001l-12.5 56.7998 56.8 44.3 80.1-32.6c-.6-2-1.9-3.7-3.5-4.6z" fill="#396caa"/><path clip-rule="evenodd" d="m245.77834 68.0881 116.2 67.0999c.265.153.52.325.765.515l.035-.015c.378.312.734.67 1.064 1.065.991 1.146 1.727 2.616 2.139 4.193.323 1.182.469 2.425.397 3.642l-.053.023c-.04.535-.121 1.063-.247 1.577l-18.9 86.1c-.5 2.3-1.8 4-3.3 4.7l-4.6 1.8.4-4.8-113.3-65.4c-3.2996-1.9-5.0996-6.9-4.1996-11.2l18.8996-86.0998c.1-.1.1-.1001.1-.2001l-3.8-1.7999 4.2-1.6001h.1l.2-.1c1.2-.4 2.6-.3 3.9.5z" fill="url(#o)" fill-rule="evenodd"/><path d="m335.37834 238.488-116.0996-67.1c-3.3-1.9-5.2-6.9-4.2-11.2l18.8996-86.1c.9-4.3 4.4-6.3 7.7-4.4l116.1 67.1c3.3 1.9 5.2 6.9 4.2 11.2l-18.9 86.1c-1 4.4-4.4 6.3-7.7 4.4z" fill="url(#p)"/><path d="m332.87834 232.088-109.2-63c-2.9997-1.7-4.6997-6.3-3.8997-10.3l17.2997-78.7999c.9-3.9 4-5.7 7-4l109.2 62.9999c3 1.7 4.7 6.3 3.9 10.3l-17.3 78.8c-.9 4-4 5.7-7 4z" fill="#fff"/><path d="m332.87834 232.088-109.2-63c-2.9997-1.7-4.6997-6.3-3.8997-10.3l17.2997-78.7999c.9-3.9 4-5.7 7-4l109.2 62.9999c3 1.7 4.7 6.3 3.9 10.3l-17.3 78.8c-.9 4-4 5.7-7 4z" fill="#fff"/><path d="m127.77871 221.888-4.30001-.6v5.4c-.1 1.3.7 2.5 2.2 3.4l2 1.2v-9.4z" fill="#5793ce"/><path clip-rule="evenodd" d="m336.97834 241.388-15.9-2.1-61.101-35.29.001-.01-4.82-2.773-36.5795-21.127c-3.3-1.9-9-1.7-12.8.5l-72.60004 41.9-9.6-1.3v.1 5.3c-.007.09-.01.179-.008.267-.0221 1.236.77232 2.372 2.20793 3.233l116.09953 67.1c.366.216.769.403 1.2.563v.037c3.1 1.2 7.6.9 10.9-.7v-.127c.24-.117.474-.242.7-.373l79.1-45.6c2.1-1.2 3.2-2.8 3.1-4.3v-5.3z" fill="url(#q)" fill-rule="evenodd"/><path d="m241.87834 291.788-116.0996-67.1c-3.30001-1.9-2.90001-5.2.89999-7.4l79.10001-45.6c3.8-2.2 9.5-2.4 12.8-.5l116.0996 67.1c3.3 1.9 2.9 5.2-.9 7.4l-79.1 45.6c-3.7 2.1-9.5 2.4-12.8.5z" fill="url(#s)"/><g fill="#fff"><path d="m333.77834 243.588-79.1 45.6c-3.8 2.2-9.5 2.4-12.8.5l-116.09969-67c-1.1-.6-1.7-1.4-2-2.2-.5 1.6.1 3.1 2 4.2l116.09969 67.1c3.3 1.9 9 1.7 12.8-.5l79.1-45.6c2.5-1.5 3.6-3.5 3-5.2-.4 1.1-1.4 2.2-3 3.1z"/><path d="m175.17874 202.488-5.3-3c-.4-.2-.4-.7.1-1l6.2-3.6c.5-.3 1.2-.3 1.6-.1l5.3 3c.4.2.4.7-.1 1l-6.2 3.6c-.4.3-1.2.4-1.6.1z"/><path d="m183.27874 207.188-5.3-3c-.4-.2-.4-.7.1-1l6.2-3.6c.5-.3 1.2-.3 1.6-.1l5.3 3c.4.2.4.7-.1 1l-6.2 3.6c-.4.3-1.2.3-1.6.1z"/><path d="m191.37874 211.888-5.3-3c-.4-.2-.4-.7.1-1l6.2-3.6c.5-.3 1.2-.3 1.6-.1l5.3 3c.4.2.4.7-.1 1l-6.2 3.6c-.4.3-1.2.3-1.6.1z"/><path d="m202.67874 207.988-5.3-3c-.4-.2-.4-.7.1-1l5.2-3c.5-.3 1.2-.3 1.6-.1l5.3 3c.4.2.4.7-.1 1l-5.2 3c-.5.3-1.2.4-1.6.1z"/><path d="m210.77874 212.688-5.3-3c-.4-.2-.4-.7.1-1l5.2-3c.5-.3 1.2-.3 1.6-.1l5.3 3c.4.2.4.7-.1 1l-5.2 3c-.5.3-1.2.3-1.6.1z"/><path d="m218.87874 217.388-5.3-3c-.4-.2-.4-.7.1-1l5.2-3c.5-.3 1.2-.3 1.6-.1l5.2996 3c.4.2.4.7-.1 1l-5.1996 3c-.5.3-1.2.3-1.6.1z"/><path d="m226.97834 222.088-5.2995-3c-.4-.2-.4-.7.1-1l5.1995-3c.5-.3 1.2-.3 1.6-.1l5.3 3c.4.2.4.7-.1 1l-5.2 3c-.4.3-1.2.3-1.6.1z"/><path d="m235.07834 226.788-5.3-3c-.4-.2-.4-.7.1-1l5.2-3c.5-.3 1.2-.3 1.6-.1l5.3 3c.4.2.4.7-.1 1l-5.2 3c-.4.3-1.2.3-1.6.1z"/><path d="m243.17834 231.388-5.3-3c-.4-.2-.4-.7.1-1l5.2-3c.5-.3 1.2-.3 1.6-.1l5.3 3c.4.2.4.7-.1 1l-5.2 3c-.4.4-1.2.4-1.6.1z"/><path d="m251.27834 236.088-5.3-3c-.4-.2-.4-.7.1-1l5.2-3c.5-.3 1.2-.3 1.6-.1l5.3 3c.4.2.4.7-.1 1l-5.2 3c-.4.3-1.1.4-1.6.1z"/><path d="m259.47834 240.788-5.3-3c-.4-.2-.4-.7.1-1l5.2-3c.5-.3 1.2-.3 1.6-.1l5.3 3c.4.2.4.7-.1 1l-5.2 3c-.5.3-1.2.4-1.6.1z"/><path d="m267.57834 245.488-5.3-3c-.4-.2-.4-.7.1-1l5.2-3c.5-.3 1.2-.3 1.6-.1l5.3 3c.4.2.4.7-.1 1l-5.2 3c-.5.3-1.2.3-1.6.1z"/><path d="m275.67834 250.188-5.3-3c-.4-.2-.4-.7.1-1l5.2-3c.5-.3 1.2-.3 1.6-.1l5.3 3c.4.2.4.7-.1 1l-5.2 3c-.5.3-1.2.3-1.6.1z"/><path d="m214.57874 205.788-5.3-3c-.4-.2-.4-.7.1-1l5.2-3c.5-.3 1.2-.3 1.6-.1l5.3 3c.4.2.4.7-.1 1l-5.2 3c-.4.3-1.2.3-1.6.1z"/><path d="m206.37874 200.988-5.3-3c-.4-.2-.4-.7.1-1l5.2-3c.5-.3 1.2-.3 1.6-.1l5.3 3c.4.2.4.7-.1 1l-5.2 3c-.5.4-1.2.4-1.6.1z"/><path d="m198.07874 196.288-11.3-6.5c-.4-.2-.4-.7.1-1l5.2-3c.5-.3 1.2-.3 1.6-.1l11.3 6.5c.4.2.4.7-.1 1l-5.2 3c-.4.3-1.2.3-1.6.1z"/><path d="m203.87884 190.488-9.2-5.3c-.4-.2-.4-.7.1-1l5.2-3c.5-.3 1.2-.3 1.6-.1l9.2 5.3c.4.2.4.7-.1 1l-5.2 3c-.5.3-1.2.3-1.6.1z"/><path d="m222.67874 210.488-5.3-3c-.4-.2-.4-.7.1-1l5.2-3c.5-.3 1.1996-.3 1.5996-.1l5.3 3c.4.2.4.7-.1 1l-5.2 3c-.4.3-1.1996.3-1.5996.1z"/><path d="m230.77834 215.188-5.3-3c-.4-.2-.4-.7.1-1l5.2-3c.5-.3 1.2-.3 1.6-.1l5.3 3c.4.2.4.7-.1 1l-5.2 3c-.4.3-1.1.3-1.6.1z"/><path d="m238.97834 219.888-5.3-3c-.4-.2-.4-.7.1-1l5.2-3c.5-.3 1.2-.3 1.6-.1l5.3 3c.4.2.4.7-.1 1l-5.2 3c-.5.3-1.2.3-1.6.1z"/><path d="m247.07834 224.488-5.3-3c-.4-.2-.4-.7.1-1l5.2-3c.5-.3 1.2-.3 1.6-.1l5.3 3c.4.2.4.7-.1 1l-5.2 3c-.5.4-1.2.4-1.6.1z"/><path d="m255.17834 229.188-5.3-3c-.4-.2-.4-.7.1-1l5.2-3c.5-.3 1.2-.3 1.6-.1l5.3 3c.4.2.4.7-.1 1l-5.2 3c-.5.3-1.2.4-1.6.1z"/><path d="m263.27834 233.888-5.3-3c-.4-.2-.4-.7.1-1l5.2-3c.5-.3 1.2-.3 1.6-.1l5.3 3c.4.2.4.7-.1 1l-5.2 3c-.4.3-1.2.4-1.6.1z"/><path d="m271.37834 238.588-5.3-3c-.4-.2-.4-.7.1-1l5.2-3c.5-.3 1.2-.3 1.6-.1l5.3 3c.4.2.4.7-.1 1l-5.2 3c-.4.3-1.2.3-1.6.1z"/><path d="m279.47834 243.288-5.3-3c-.4-.2-.4-.7.1-1l5.2-3c.5-.3 1.2-.3 1.6-.1l5.3 3c.4.2.4.7-.1 1l-5.2 3c-.4.3-1.1.3-1.6.1z"/><path d="m287.57834 247.988-5.3-3c-.4-.2-.4-.7.1-1l5.2-3c.5-.3 1.2-.3 1.6-.1l5.3 3c.4.2.4.7-.1 1l-5.2 3c-.4.3-1.1.3-1.6.1z"/><path d="m302.07834 256.288-11.5-6.6c-.4-.2-.4-.7.1-1l5.2-3c.5-.3 1.2-.3 1.6-.1l11.5 6.6c.4.2.4.7-.1 1l-5.2 3c-.5.3-1.2.3-1.6.1z"/><path d="m317.87834 247.188-9.7-5.6c-.4-.2-.4-.7.1-1l5.2-3c.5-.3 1.2-.3 1.6-.1l9.7 5.6c.4.2.4.7-.1 1l-5.2 3c-.5.3-1.2.3-1.6.1z"/><path d="m236.87834 209.588-5.3-3c-.4-.2-.4-.7.1-1l5.2-3c.5-.3 1.2-.3 1.6-.1l5.3 3c.4.2.4.7-.1 1l-5.2 3c-.4.3-1.1.3-1.6.1z"/><path d="m228.57834 204.788-5.2996-3c-.4-.2-.4-.7.1-1l5.1996-3c.5-.3 1.2-.3 1.6-.1l5.3 3c.4.2.4.7-.1 1l-5.2 3c-.4.3-1.2.3-1.6.1z"/><path d="m220.27874 199.988-5.3-3c-.4-.2-.4-.7.1-1l5.2-3c.5-.3 1.2-.3 1.6-.1l5.2996 3c.4.2.4.7-.1 1l-5.1996 3c-.4.3-1.2.3-1.6.1z"/><path d="m211.97884 195.188-5.3-3c-.4-.2-.4-.7.1-1l5.2-3c.5-.3 1.2-.3 1.6-.1l5.3 3c.4.2.4.7-.1 1l-5.2 3c-.5.3-1.2.3-1.6.1z"/><path d="m245.07834 214.288-5.3-3c-.4-.2-.4-.7.1-1l5.2-3c.5-.3 1.2-.3 1.6-.1l5.3 3c.4.2.4.7-.1 1l-5.2 3c-.5.3-1.2.3-1.6.1z"/><path d="m253.17834 218.888-5.3-3c-.4-.2-.4-.7.1-1l5.2-3c.5-.3 1.2-.3 1.6-.1l5.3 3c.4.2.4.7-.1 1l-5.2 3c-.5.3-1.2.4-1.6.1z"/><path d="m261.27834 223.588-5.3-3c-.4-.2-.4-.7.1-1l5.2-3c.5-.3 1.2-.3 1.6-.1l5.3 3c.4.2.4.7-.1 1l-5.2 3c-.5.3-1.2.4-1.6.1z"/><path d="m269.37834 228.288-5.3-3c-.4-.2-.4-.7.1-1l5.2-3c.5-.3 1.2-.3 1.6-.1l5.3 3c.4.2.4.7-.1 1l-5.2 3c-.4.3-1.2.4-1.6.1z"/><path d="m277.47834 232.988-5.3-3c-.4-.2-.4-.7.1-1l5.2-3c.5-.3 1.2-.3 1.6-.1l5.3 3c.4.2.4.7-.1 1l-5.2 3c-.4.3-1.2.3-1.6.1z"/><path d="m285.57834 237.688-5.3-3c-.4-.2-.4-.7.1-1l5.2-3c.5-.3 1.2-.3 1.6-.1l5.3 3c.4.2.4.7-.1 1l-5.2 3c-.4.3-1.2.3-1.6.1z"/><path d="m293.67834 242.388-5.3-3c-.4-.2-.4-.7.1-1l5.2-3c.5-.3 1.2-.3 1.6-.1l5.3 3c.4.2.4.7-.1 1l-5.2 3c-.4.3-1.1.3-1.6.1z"/><path d="m301.87834 246.988-5.3-3c-.4-.2-.4-.7.1-1l5.2-3c.5-.3 1.2-.3 1.6-.1l5.3 3c.4.2.4.7-.1 1l-5.2 3c-.5.4-1.2.4-1.6.1z"/><path d="m309.97834 251.688-5.3-3c-.4-.2-.4-.7.1-1l5.2-3c.5-.3 1.2-.3 1.6-.1l5.3 3c.4.2.4.7-.1 1l-5.2 3c-.5.3-1.2.4-1.6.1z"/><path d="m232.67834 197.988-5.3-3c-.4-.2-.4-.7.1-1l5.2-3c.5-.3 1.2-.3 1.6-.1l5.3 3c.4.2.4.7-.1 1l-5.2 3c-.5.3-1.2.3-1.6.1z"/><path d="m224.57834 193.288-5.2996-3c-.4-.2-.4-.7.1-1l5.1996-3c.5-.3 1.2-.3 1.6-.1l5.3 3c.4.2.4.7-.1 1l-5.2 3c-.5.3-1.2.4-1.6.1z"/><path d="m216.47884 188.688-5.3-3c-.4-.2-.4-.7.1-1l5.2-3c.5-.3 1.2-.3 1.6-.1l5.3 3c.3995.2.3995.7-.1 1l-5.2 3c-.4.3-1.2.3-1.6.1z"/><path d="m208.37874 183.988-5.3-3c-.4-.2-.4-.7.1-1l5.2-3c.5-.3 1.2-.3 1.6-.1l5.3 3c.4.2.4.7-.1 1l-5.2 3c-.4.3-1.1.3-1.6.1z"/><path d="m216.67874 179.188-5.3-3c-.4-.2-.4-.7.1-1l1.7-1c.5-.3 1.2-.3 1.6-.1l5.3 3c.4.2.4.7-.1 1l-1.7 1c-.4.3-1.1.3-1.6.1z"/><path d="m227.27834 185.288-5.2996-3c-.4-.2-.4-.7.1-1l1.6996-1c.5-.3 1.2-.3 1.6-.1l5.3 3c.4.2.4.7-.1 1l-1.7 1c-.5.3-1.2.3-1.6.1z"/><path d="m235.27834 189.888-5.3-3c-.4-.2-.4-.7.1-1l1.7-1c.5-.3 1.2-.3 1.6-.1l5.3 3c.4.2.4.7-.1 1l-1.7 1c-.4.3-1.2.4-1.6.1z"/><path d="m243.37834 194.588-5.3-3c-.4-.2-.4-.7.1-1l1.7-1c.5-.3 1.2-.3 1.6-.1l5.3 3c.4.2.4.7-.1 1l-1.7 1c-.5.3-1.2.3-1.6.1z"/><path d="m251.37834 199.188-5.3-3c-.4-.2-.4-.7.1-1l1.7-1c.5-.3 1.2-.3 1.6-.1l5.3 3c.4.2.4.7-.1 1l-1.7 1c-.4.3-1.2.4-1.6.1z"/><path d="m296.27834 225.088-5.3-3c-.4-.2-.4-.7.1-1l1.7-1c.5-.3 1.2-.3 1.6-.1l5.3 3c.4.2.4.7-.1 1l-1.7 1c-.4.3-1.2.4-1.6.1z"/><path d="m304.27834 229.788-5.3-3c-.4-.2-.4-.7.1-1l1.7-1c.5-.3 1.2-.3 1.6-.1l5.3 3c.4.2.4.7-.1 1l-1.7 1c-.4.3-1.1.3-1.6.1z"/><path d="m312.37834 234.388-5.3-3c-.4-.2-.4-.7.1-1l1.7-1c.5-.3 1.2-.3 1.6-.1l5.3 3c.4.2.4.7-.1 1l-1.7 1c-.5.3-1.2.4-1.6.1z"/><path d="m320.37834 239.088-5.3-3c-.4-.2-.4-.7.1-1l1.7-1c.5-.3 1.2-.3 1.6-.1l5.3 3c.4.2.4.7-.1 1l-1.7 1c-.4.3-1.2.3-1.6.1z"/><path d="m240.77834 202.688-5.3-3c-.4-.2-.4-.7.1-1l5.2-3c.5-.3 1.2-.3 1.6-.1l5.3 3c.4.2.4.7-.1 1l-5.2 3c-.5.3-1.2.3-1.6.1z"/><path d="m248.87834 207.288-5.3-3c-.4-.2-.4-.7.1-1l5.2-3c.5-.3 1.2-.3 1.6-.1l5.3 3c.4.2.4.7-.1 1l-5.2 3c-.4.4-1.2.4-1.6.1z"/><path d="m256.97834 211.988-5.3-3c-.4-.2-.4-.7.1-1l5.2-3c.5-.3 1.2-.3 1.6-.1l5.3 3c.4.2.4.7-.1 1l-5.2 3c-.4.3-1.2.4-1.6.1z"/><path d="m265.07834 216.688-5.3-3c-.4-.2-.4-.7.1-1l5.2-3c.5-.3 1.2-.3 1.6-.1l5.3 3c.4.2.4.7-.1 1l-5.2 3c-.4.3-1.2.4-1.6.1z"/><path d="m273.17834 221.388-5.3-3c-.4-.2-.4-.7.1-1l5.2-3c.5-.3 1.2-.3 1.6-.1l5.3 3c.4.2.4.7-.1 1l-5.2 3c-.4.3-1.1.3-1.6.1z"/><path d="m281.37834 226.088-5.3-3c-.4-.2-.4-.7.1-1l5.2-3c.5-.3 1.2-.3 1.6-.1l5.3 3c.4.2.4.7-.1 1l-5.2 3c-.5.3-1.2.3-1.6.1z"/><path d="m289.47834 230.788-5.3-3c-.4-.2-.4-.7.1-1l5.2-3c.5-.3 1.2-.3 1.6-.1l5.3 3c.4.2.4.7-.1 1l-5.2 3c-.5.3-1.2.3-1.6.1z"/><path d="m297.57834 235.488-5.3-3c-.4-.2-.4-.7.1-1l5.2-3c.5-.3 1.2-.3 1.6-.1l5.3 3c.4.2.4.7-.1 1l-5.2 3c-.5.3-1.2.3-1.6.1z"/><path d="m305.67834 240.088-5.3-3c-.4-.2-.4-.7.1-1l5.2-3c.5-.3 1.2-.3 1.6-.1l5.3 3c.4.2.4.7-.1 1l-5.2 3c-.4.4-1.2.4-1.6.1z"/><path d="m194.37874 203.188-15.5-8.9c-.4-.2-.4-.7.1-1l5.2-3c.5-.3 1.2-.3 1.6-.1l15.5 8.9c.4.2.4.7-.1 1l-5.2 3c-.5.4-1.2.4-1.6.1z"/><path d="m294.07834 260.788-15.5-8.9c-.4-.2-.4-.7.1-1l5.2-3c.5-.3 1.2-.3 1.6-.1l15.5 8.9c.4.2.4.7-.1 1l-5.2 3c-.5.3-1.2.3-1.6.1z"/><path d="m261.57834 252.388-5.3-3c-.4-.2-.4-.7.1-1l6.2-3.6c.5-.3 1.2-.3 1.6-.1l5.3 3c.4.2.4.7-.1 1l-6.2 3.6c-.4.3-1.2.4-1.6.1z"/><path d="m202.67874 218.388-8.4-4.9c-.4-.2-.4-.7.1-1l6.2-3.6c.5-.3 1.2-.3 1.6-.1l8.4 4.9c.4.2.4.7-.1 1l-6.2 3.6c-.4.3-1.2.3-1.6.1z"/><path d="m253.77834 247.888-8.4-4.9c-.4-.2-.4-.7.1-1l6.2-3.6c.5-.3 1.2-.3 1.6-.1l8.4 4.9c.4.2.4.7-.1 1l-6.2 3.6c-.4.3-1.2.3-1.6.1z"/><path d="m214.37874 225.088-8.4-4.9c-.4-.2-.4-.7.1-1l6.2-3.6c.5-.3 1.2-.3 1.6-.1l8.4 4.9c.4.2.4.7-.1 1l-6.2 3.6c-.4.4-1.2.4-1.6.1z"/><path d="m213.97874 215.688 36.4996 21.1c.5.3.5.7 0 .9l-6.3 3.7c-.5.3-1.2.3-1.6 0l-36.4996-21.1z"/><path d="m284.27834 260.888 5.9 3.4c.3.2.3.5-.1.8l-2.5 1.5c-.4.2-1 .3-1.3.1l-5.9-3.4c-.3-.2-.3-.5.1-.8l2.5-1.5c.4-.3 1-.3 1.3-.1z"/><path d="m276.07834 256.188 5.9 3.4c.3.2.3.5-.1.8l-2.5 1.5c-.4.2-1 .3-1.3.1l-5.9-3.4c-.3-.2-.3-.5.1-.8l2.5-1.5c.4-.3 1-.3 1.3-.1z"/><path d="m267.97834 251.488 5.9 3.4c.3.2.3.5-.1.8l-2.5 1.5c-.4.2-1 .3-1.3.1l-5.9-3.4c-.3-.2-.3-.5.1-.8l2.5-1.5c.4-.3 1-.3 1.3-.1z"/><path d="m280.57834 253.588 5.9 3.4c.3.2.3.5-.1.8l-2.5 1.5c-.4.2-1 .3-1.3.1l-5.9-3.4c-.3-.2-.3-.5.1-.8l2.5-1.5c.4-.3 1-.3 1.3-.1z"/></g><path d="m269.87834 109.988-7.8-4.5c-.7-.4-1.1-1.4-.9-2.3s.9-1.2 1.7-.8l7.8 4.5c.7.4 1.1 1.4.9 2.3-.3.8-1 1.2-1.7.8z" fill="#f16822"/><path d="m288.37834 120.688-11.5-6.6c-.7-.4-1.1-1.4-.9-2.3s.9-1.2 1.7-.8l11.5 6.6c.7.4 1.1 1.4.9 2.3-.3.8-1 1.2-1.7.8z" fill="#f16822"/><path d="m256.27834 146.188-7.8-4.5c-.7-.4-1.1-1.4-.9-2.3s.9-1.2 1.7-.8l7.8 4.5c.7.4 1.1 1.4.9 2.3s-1 1.2-1.7.8z" fill="#f16822"/><path d="m272.77834 155.688-11.5-6.6c-.7-.4-1.1-1.4-.9-2.3s.9-1.2 1.7-.8l11.5 6.6c.7.4 1.1 1.4.9 2.3s-1 1.3-1.7.8z" fill="#f16822"/><path d="m246.87834 104.088-4.9-2.8c-.7-.4-1.1-1.3998-.9-2.2998s.9-1.2 1.7-.8l4.9 2.7998c.7.4 1.1 1.4.9 2.3s-.9 1.2-1.7.8z" fill="#f16822"/><path d="m261.87834 120.088-14.8-8.6c-.7-.4-1.1-1.4-.9-2.3s.9-1.2 1.7-.8l14.8 8.6c.7.4 1.1 1.4.9 2.3-.2.8-1 1.2-1.7.8z" fill="#f16822"/><path d="m248.87834 127.288-4.9-2.8c-.7-.4-1.1-1.4-.9-2.3s.9-1.2 1.7-.8l4.9 2.8c.7.4 1.1 1.4.9 2.3-.2.8-.9 1.2-1.7.8z" fill="#f16822"/><path d="m275.27834 171.888-13-7.5c-.7-.4-1.1-1.4-.9-2.3s.9-1.2 1.7-.8l13 7.5c.7.4 1.1 1.4.9 2.3-.2.8-1 1.2-1.7.8z" fill="#f16822"/><path d="m244.17834 139.188-3.1-1.8c-.7-.4-1.1-1.4-.9-2.3s.9-1.2 1.7-.8l3.1 1.8c.7.4 1.1 1.4.9 2.3s-1 1.2-1.7.8z" fill="#f16822"/><path d="m241.97834 152.588-3.9-2.2c-.7-.4-1.1-1.4-.9-2.3s.9-1.2 1.7-.8l3.9 2.2c.7.4 1.1 1.4.9 2.3-.3.9-1 1.2-1.7.8z" fill="#f16822"/><path d="m256.97834 161.288-10.2-5.9c-.7-.4-1.1-1.4-.9-2.3s.9-1.2 1.7-.8l10.2 5.9c.7.4 1.1 1.4.9 2.3s-1 1.2-1.7.8z" fill="#f16822"/><path d="m243.87834 161.088-7.3-4.2c-.7-.4-1.1-1.4-.9-2.3s.9-1.2 1.7-.8l7.3 4.2c.7.4 1.1 1.4.9 2.3s-.9 1.2-1.7.8z" fill="#f16822"/><path d="m286.37834 178.288-4.7-2.7c-.7-.4-1.1-1.4-.9-2.3s.9-1.2 1.7-.8l4.7 2.7c.7.4 1.1 1.4.9 2.3s-1 1.2-1.7.8z" fill="#f16822"/><path d="m266.97834 137.688-13-7.5c-.7-.4-1.1-1.4-.9-2.3s.9-1.2 1.7-.8l13 7.5c.7.4 1.1 1.4.9 2.3-.3.9-1 1.2-1.7.8z" fill="#f16822"/><path d="m268.17834 130.988-22.6-13c-.7-.4-1.1-1.4-.9-2.3s.9-1.2 1.7-.8l22.6 13c.7.4 1.1 1.4.9 2.3-.3.9-1 1.2-1.7.8z" fill="#f16822"/><path d="m255.47834 138.388-13-7.5c-.7-.4-1.1-1.4-.9-2.3s.9-1.2 1.7-.8l13 7.5c.7.4 1.1 1.4.9 2.3s-.9 1.3-1.7.8z" fill="#f16822"/><path d="m276.77834 143.388-4.7-2.7c-.7-.4-1.1-1.4-.9-2.3s.9-1.2 1.7-.8l4.7 2.7c.7.4 1.1 1.4.9 2.3-.2.8-1 1.2-1.7.8z" fill="#f16822"/><path d="m323.27834 140.788-27.9-16.1c-.7-.4-1.1-1.4-.9-2.3s.9-1.2 1.7-.8l27.9 16.1c.7.4 1.1 1.4.9 2.3-.3.9-1 1.2-1.7.8z" fill="#f16822"/><path d="m255.17834 152.888-15.6-9c-.7-.4-1.1-1.4-.9-2.3s.9-1.2 1.7-.8l15.6 9c.7.4 1.1 1.4.9 2.3-.3.9-1 1.2-1.7.8z" fill="#f16822"/><path d="m254.97834 101.388-11.5-6.5998c-.7-.4-1.1-1.4-.9-2.3s.9-1.2 1.7-.8l11.5 6.6c.7.4 1.1 1.4.9 2.2998-.2.9-.9 1.2-1.7.8z" fill="#f16822"/><path d="m241.87834 167.288-13.3-7.7c-.7-.4-1.1-1.4-.9-2.3s.9-1.2 1.7-.8l13.3 7.7c.7.4 1.1 1.4.9 2.3-.2.8-1 1.2-1.7.8z" fill="#f16822"/><path d="m331.57834 195.188-7.8-4.5c-.7-.4-1.1-1.4-.9-2.3s.9-1.2 1.7-.8l7.8 4.5c.7.4 1.1 1.4.9 2.3s-.9 1.2-1.7.8z" fill="#f16822"/><path d="m337.17834 169.088-14.8-8.6c-.7-.4-1.1-1.4-.9-2.3s.9-1.2 1.7-.8l14.8 8.6c.7.4 1.1 1.4.9 2.3-.2.8-1 1.2-1.7.8z" fill="#f16822"/><path d="m324.27834 176.288-4.9-2.8c-.7-.4-1.1-1.4-.9-2.3s.9-1.2 1.7-.8l4.9 2.8c.7.4 1.1 1.4.9 2.3-.3.8-1 1.2-1.7.8z" fill="#f16822"/><path d="m319.47834 188.188-3.1-1.8c-.7-.4-1.1-1.4-.9-2.3s.9-1.2 1.7-.8l3.1 1.8c.7.4 1.1 1.4.9 2.3s-.9 1.2-1.7.8z" fill="#f16822"/><path d="m342.27834 186.688-13-7.5c-.7-.4-1.1-1.4-.9-2.3s.9-1.2 1.7-.8l13 7.5c.7.4 1.1 1.4.9 2.3s-1 1.2-1.7.8z" fill="#f16822"/><path d="m343.47834 179.988-22.6-13c-.7-.4-1.1-1.4-.9-2.3s.9-1.2 1.7-.8l22.6 13c.7.4 1.1 1.4.9 2.3s-1 1.2-1.7.8z" fill="#f16822"/><path d="m330.87834 187.388-13-7.5c-.7-.4-1.1-1.4-.9-2.3s.9-1.2 1.7-.8l13 7.5c.7.4 1.1 1.4.9 2.3-.3.9-1 1.3-1.7.8z" fill="#f16822"/><path d="m330.47834 201.888-15.6-9c-.7-.4-1.1-1.4-.9-2.3s.9-1.2 1.7-.8l15.6 9c.7.4 1.1 1.4.9 2.3s-1 1.2-1.7.8z" fill="#f16822"/><path d="m359.67834 104.388 12.3-4.9-2.8-18-5.899 5.3z" fill="#d84b0e"/><path d="m277.77834 20.4882 29.6-11.7999696s-5.4 11.7999696-5.5 11.7999696l-15.8 3.7z" fill="#d84b0e"/><path d="m370.47834 69.3881c-1.6-.9-3.2-1.4-4.8-1.6 1.6-10.9-3.1-22.4-12.1-27.6-2.7-1.6-5.7-2.5-8.5-2.7 3.6-13.1-1.8-28.0999896-13-34.4999896-5.8-3.39999904-12.1-3.79999904-17.6-1.7l-.3.1c-.1.1-.3.1-.4.2l-9.3 3.6 3.7 3.2c-5 1.6-9.3 5.5999896-11.6 11.5999896-4.2 11 .1 24.5 9.7 30l56.8 47.8c7.2 4.0999 11.5 2.3999 14.7-5.9 3.2-8.2-.1-18.3-7.3-22.5z" fill="#f16822"/><path d="m299.17834 15.0881 31.9-12.6999696c-5.5-2.80000504-11.4-3.00000504-16.6-1.1l-.3.1c-.1.1-.3.1-.4.2l-9.3 3.6 3.7 3.19999c-3.5 1.1-6.6 3.3999796-9 6.6999796z" fill="#d84b0e"/><path d="m343.57834 62.8881 21-8.4c-1.9-6-5.8-11.3-11.1-14.3-.7-.4-1.4-.8-2.1-1.1l-29 11.6z" fill="#d84b0e"/><path d="m310.97834 6.4881304 9 5.1999696 15.7-6.1999696c-1.1-.9-2.3-1.8-3.6-2.5-2-1.2-4.1-1.99999504-6.1-2.39999504z" fill="#ff925a"/><path d="m363.17834 50.988-15.1 6 4.5 6.3 13-5.2c-.5-2.5-1.3-4.9-2.4-7.1z" fill="#ff925a"/><path d="m360.37834 73.3882c-1.6-.9-3.2-1.4-4.8-1.6 1.6-10.9-3.2-22.4-12.2-27.7-2.7-1.6-5.5-2.4-8.3-2.6 3.5-13.2-1.9-28.2-13.1-34.5999896-12-6.89999624-26-1.3-31.2 12.4999896-.2.5-.3.9-.5 1.4-9.1-4.1-19.2.5-23.2 10.9-4.2 11 .1 24.5 9.7 30l72.2 41.6998c7.2 4.1 15.6.8 18.7-7.4998 3.1-8.2-.1-18.3-7.3-22.5z" fill="url(#t)"/><path d="m361.87834 72.5881c-1.6-.9-3.2-1.4-4.8-1.6 1.6-10.9-3.2-22.4-12.2-27.7-2.7-1.6-5.5-2.4-8.3-2.6 3.5-13.2-1.9-28.2-13.1-34.5999996-7.1-4.1-15-3.8-21.3.1 6-3.1 13.2-3.1 19.8.7 11.1 6.3999996 16.6 21.3999996 13.1 34.5999996 2.8.2 5.6 1 8.3 2.6 9 5.2 13.8 16.8 12.2 27.7 1.6.2 3.2.7 4.8 1.6 7.2 4.1 10.4 14.2 7.3 22.5-1.2 3.2-3.2 5.6999-5.6 7.1999 3.1-1.5 5.7-4.1999 7.1-8.0999 3.1-8.2-.1-18.3-7.3-22.4z" fill="#fff"/><path d="m290.27834 20.8881c.1-.4.3-.8.4-1.2-4.9-1.8-10.1-1.2-14.3 1.5 4.2-2.2 9.2-2.4 13.9-.3z" fill="#fff"/><path d="m282.07834 22.988c-1.3 0-2.6.3-3.8.8-2.9 1.3-5.3 4.2-6.8 8-3.7 9.7.3 22 8.7 26.8l72.2 41.7c2.3 1.3 4.6 1.6 6.4.9s3.4-2.7 4.4-5.3c2.7-7-.2-15.9-6.2-19.4-1.1-.6-2.3-1-3.4-1.2l-2.9-.4.4-2.5c1.5-10-3.1-20.6-11-25.2-2.2-1.3-4.4-2-6.6-2.1l-3.6-.2.8-3c3.2-12.1-2-26.1-11.9-31.8-4.6-2.6999896-9.5-3.1999896-13.7-1.4999896-4.2 1.6999896-7.7 5.5999896-9.7 10.8999896-.2.4-.3.8-.4 1.3l-1.9 6-5.7-2.5c-1.9-.9-3.6-1.3-5.3-1.3z" fill="url(#u)"/><g clip-path="url(#w)" transform="translate(123.47034)"><path d="m193.157 67.5237-2.32 1.3626z" fill="#4d4d4d"/><path d="m187.192 52.3077-2.099-1.2491c-.221-.1135-.442-.1135-.552-.1135l-2.541 1.5551s.552-.306.773-.0789l2.099 1.249c.221.2272.442.2271.552.1136l2.32-1.3626c-.11 0-.331 0-.552-.1136z" fill="#4d4d4d"/><path d="m194.262 44.132c.442.2271.773.9085.773 1.3627v13.2857c0 .4542.331 1.1355.773 1.3626l2.099 1.2491c.663.4542.994 1.5898.552 1.9304l-7.622 5.5641c-.11.1136-.331.1136-.552 0-.221-.1135-.442-.3406-.552-.6813l-7.512-14.5348c-.442-.9084-.11-1.5897.552-1.2491l2.099 1.2491c.442.2271.773 0 .773-.4542v-13.2857c0-.5678.332-.6813.774-.4542z" fill="url(#v)"/><path d="m200.116 60.0293-2.099-1.2491c-.441-.2271-.773-.9084-.773-1.3626v-13.2857c0-.5678-.331-1.1356-.773-1.3627l-7.733-4.6556c-.11-.1136-.331-.1136-.441-.1136l-2.555 1.4762c.221-.1136.456-.1136.677 0l7.732 4.6557c.442.2271.773.9084.773 1.3626v13.2857c0 .4542.332 1.1356.774 1.3627l2.099 1.249c.662.4543.994 1.5898.552 1.9304l-7.512 5.5641 2.32-1.3626 7.512-5.5641c.552-.3407.221-1.4762-.553-1.9304z" fill="#4d4d4d"/></g><path d="m131.5 137.75916-22.492-12.8527 22.492-12.8527 22.492 12.8527z" opacity=".7" stroke="#fff"/><path d="m154.328 116.58056-23.097 13.4286v-26.7229l23.097-13.294201z" fill="url(#x)"/><path d="m131.231 103.28636-23.231-13.294201 23.231-13.4286 23.098 13.4286z" fill="#8e8e8e"/><path d="m131.231 130.00916-23.231-13.4286v-26.588501l23.231 13.294201z" fill="#efefef"/><path d="m122.772 115.50636-6.446-3.6257v-7.52l6.446 3.76z" fill="#8e8e8e"/><path d="m40.499998 220.75956-22.492201-12.853 22.492201-12.853 22.4922 12.853z" opacity=".7" stroke="#fff"/><path d="m63.328298 199.58056-23.0971 13.429v-26.723l23.0971-13.295z" fill="url(#y)"/><path d="m40.231398 186.28656-23.231401-13.294 23.231401-13.429 23.0972 13.429z" fill="#8e8e8e"/><path d="m40.231398 213.00956-23.231401-13.429v-26.589l23.231401 13.295z" fill="#efefef"/><path d="m31.771598 198.50656-6.4457-3.626v-7.52l6.4457 3.76z" fill="#8e8e8e"/><path d="m24.399998 125.50606-23.40472109-13.5982 23.40472109-13.598301 23.4047 13.598301z" opacity=".7" stroke="#fff"/><path d="m48.799898 101.95686-24.4 14.1765v-28.216801l24.4-14.1765z" fill="url(#z)"/><path d="m24.399998 87.916659-24.40000109-14.1766 24.40000109-14.1765 24.4 14.1765z" fill="#d84b0e"/><path d="m24.399998 116.13336-24.40000109-14.1765v-28.216801l24.40000109 14.1765z" fill="#f16822"/><path d="m15.539497 100.86636-6.8156201-3.953101v-7.9061l6.8156201 3.9531z" fill="#fff"/></svg>