<svg fill="none" height="323.31183" viewBox="0 0 286.78659 323.31183" width="286.78659" xmlns="http://www.w3.org/2000/svg" xmlns:xlink="http://www.w3.org/1999/xlink"><linearGradient id="a" gradientUnits="userSpaceOnUse" x1="131.278869" x2="302.71913" y1="214.086" y2="214.086"><stop offset="0" stop-color="#b82cb4"/><stop offset=".055225" stop-color="#de4ac2"/><stop offset=".0707071" stop-color="#e953c6"/><stop offset=".1313" stop-color="#c436b8"/><stop offset=".2879" stop-color="#b82cb4"/><stop offset=".6717" stop-color="#d644bf"/><stop offset="1" stop-color="#ec55c7"/></linearGradient><radialGradient id="b" cx="259.57913" cy="166.472" gradientUnits="userSpaceOnUse" r="92.9505"><stop offset="0" stop-color="#551841"/><stop offset=".0458165" stop-color="#4a1539"/><stop offset=".1828" stop-color="#2f0d24"/><stop offset=".3324" stop-color="#1a0714"/><stop offset=".4989" stop-color="#0b0309"/><stop offset=".6959" stop-color="#030102"/><stop offset="1"/></radialGradient><linearGradient id="c"><stop offset="0" stop-color="#00c7c5"/><stop offset=".1683" stop-color="#07ccc0"/><stop offset=".4043" stop-color="#19dbb1"/><stop offset=".5808" stop-color="#2be9a3"/><stop offset=".6489" stop-color="#3beb9a"/><stop offset=".7815" stop-color="#64ef84"/><stop offset=".964" stop-color="#a6f660"/><stop offset="1" stop-color="#b4f759"/></linearGradient><linearGradient id="d" gradientUnits="userSpaceOnUse" x1="189.367028" x2="303.25813" xlink:href="#c" y1="192.168" y2="192.168"/><linearGradient id="e"><stop offset="0" stop-color="#d5d5d5"/><stop offset="1" stop-color="#6b6b6b"/></linearGradient><linearGradient id="f" gradientUnits="userSpaceOnUse" x1="170.113931" x2="149.60373" xlink:href="#e" y1="123.832" y2="210.02499"/><linearGradient id="g" gradientUnits="userSpaceOnUse" x1="169.440629" x2="279.23413" y1="189.2" y2="189.2"><stop offset="0" stop-color="#2be9a3"/><stop offset=".1623" stop-color="#3beb9a"/><stop offset=".4786" stop-color="#64ef84"/><stop offset=".9141" stop-color="#a6f660"/><stop offset="1" stop-color="#b4f759"/></linearGradient><linearGradient id="h"><stop offset="0" stop-color="#f17922"/><stop offset="1" stop-color="#d74608"/></linearGradient><linearGradient id="i" gradientUnits="userSpaceOnUse" x1="149.63463" x2="207.576532" xlink:href="#h" y1="139.047" y2="168.12801"/><linearGradient id="j" gradientUnits="userSpaceOnUse" x1="192.675931" x2="309.01914" xlink:href="#c" y1="193.778" y2="193.778"/><linearGradient id="k" gradientUnits="userSpaceOnUse" x1="151.083129" x2="207.632333" xlink:href="#h" y1="142.04201" y2="170.392"/><linearGradient id="l" gradientUnits="userSpaceOnUse" x1="212.084733" x2="123.75514" xlink:href="#e" y1="-11.8177" y2="226.748"/><linearGradient id="m" gradientUnits="userSpaceOnUse" x1="211.933633" x2="123.43611" xlink:href="#e" y1="-11.8177" y2="226.604"/><linearGradient id="n" gradientUnits="userSpaceOnUse" x1="211.883233" x2="123.37988" xlink:href="#e" y1="-11.7139" y2="226.601"/><linearGradient id="o" gradientUnits="userSpaceOnUse" x1="211.782434" x2="123.21708" xlink:href="#e" y1="-11.6101" y2="226.55"/><linearGradient id="p" gradientUnits="userSpaceOnUse" x1="211.681733" x2="123.05415" xlink:href="#e" y1="-11.5063" y2="226.49899"/><linearGradient id="q" gradientUnits="userSpaceOnUse" x1="211.580926" x2="122.840759" xlink:href="#e" y1="-11.5063" y2="226.401"/><linearGradient id="r" gradientUnits="userSpaceOnUse" x1="211.480127" x2="122.67749" xlink:href="#e" y1="-11.4024" y2="226.349"/><linearGradient id="s" gradientUnits="userSpaceOnUse" x1="211.379426" x2="122.51408" xlink:href="#e" y1="-11.2986" y2="226.297"/><linearGradient id="t" gradientUnits="userSpaceOnUse" x1="211.278627" x2="122.35052" xlink:href="#e" y1="-11.1949" y2="226.244"/><linearGradient id="u" gradientUnits="userSpaceOnUse" x1="211.177926" x2="122.13635" xlink:href="#e" y1="-11.1949" y2="226.145"/><linearGradient id="v" gradientUnits="userSpaceOnUse" x1="211.077127" x2="121.97246" xlink:href="#e" y1="-11.091" y2="226.092"/><linearGradient id="w" gradientUnits="userSpaceOnUse" x1="210.976327" x2="121.80843" xlink:href="#e" y1="-10.9872" y2="226.03799"/><linearGradient id="x" gradientUnits="userSpaceOnUse" x1="210.875627" x2="121.62783" xlink:href="#e" y1="-10.9846" y2="225.90199"/><linearGradient id="y" gradientUnits="userSpaceOnUse" x1="210.774827" x2="121.42928" xlink:href="#e" y1="-10.8834" y2="225.884"/><linearGradient id="z" gradientUnits="userSpaceOnUse" x1="210.674127" x2="121.26476" xlink:href="#e" y1="-10.7796" y2="225.83"/><linearGradient id="A" gradientUnits="userSpaceOnUse" x1="210.573327" x2="121.1001" xlink:href="#e" y1="-10.6758" y2="225.77499"/><linearGradient id="B" gradientUnits="userSpaceOnUse" x1="210.472528" x2="120.88453" xlink:href="#e" y1="-10.6758" y2="225.673"/><linearGradient id="C" gradientUnits="userSpaceOnUse" x1="210.371827" x2="120.71953" xlink:href="#e" y1="-10.5719" y2="225.618"/><linearGradient id="D" gradientUnits="userSpaceOnUse" x1="210.271028" x2="120.55443" xlink:href="#e" y1="-10.4682" y2="225.562"/><linearGradient id="E" gradientUnits="userSpaceOnUse" x1="210.170327" x2="120.38903" xlink:href="#e" y1="-10.3643" y2="225.506"/><linearGradient id="F" gradientUnits="userSpaceOnUse" x1="210.069528" x2="120.17273" xlink:href="#e" y1="-10.3643" y2="225.403"/><linearGradient id="G" gradientUnits="userSpaceOnUse" x1="210.019128" x2="120.07983" xlink:href="#e" y1="-10.2632" y2="225.436"/><linearGradient id="H"><stop offset="0" stop-color="#fff"/><stop offset="1" stop-color="#b9b9b9"/></linearGradient><linearGradient id="I" gradientUnits="userSpaceOnUse" x1="253.27413" x2="138.69702" xlink:href="#H" y1="85.436996" y2="108.89"/><linearGradient id="J" gradientUnits="userSpaceOnUse" x1="240.90513" x2="210.008928" xlink:href="#h" y1="81.697899" y2="129.711"/><linearGradient id="K" gradientUnits="userSpaceOnUse" x1="226.611932" x2="202.13463" xlink:href="#h" y1="86.144997" y2="125.409"/><linearGradient id="L" gradientUnits="userSpaceOnUse" x1="201.990129" x2="184.877328" xlink:href="#e" y1="116.029" y2="209.896"/><linearGradient id="M" gradientUnits="userSpaceOnUse" x1="150.988429" x2="223.170831" xlink:href="#h" y1="148.198" y2="185.347"/><linearGradient id="N" gradientUnits="userSpaceOnUse" x1="214.698228" x2="137.39883" xlink:href="#H" y1="170.13499" y2="197.392"/><linearGradient id="O" gradientUnits="userSpaceOnUse" x1="141.49663" x2="261.04813" xlink:href="#h" y1="152.92" y2="211.164"/><linearGradient id="P" gradientUnits="userSpaceOnUse" x1="228.608331" x2="282.68613" xlink:href="#h" y1="256.45001" y2="269.53201"/><linearGradient id="Q" gradientUnits="userSpaceOnUse" x1="235.93613" x2="224.546731" xlink:href="#H" y1="253.119" y2="258.15701"/><linearGradient id="R" gradientUnits="userSpaceOnUse" x1="218.108033" x2="232.72413" xlink:href="#e" y1="251.95" y2="265.54901"/><linearGradient id="S" gradientUnits="userSpaceOnUse" x1="16.999999" x2="84.342795" xlink:href="#H" y1="260.05235" y2="202.30258"/><linearGradient id="T"><stop offset="0" stop-color="#f16822"/><stop offset="1" stop-color="#d84b0e"/></linearGradient><linearGradient id="U" gradientUnits="userSpaceOnUse" x1="99.833701" x2="62.834899" xlink:href="#T" y1="237.808148" y2="236.107449"/><linearGradient id="V" gradientUnits="userSpaceOnUse" x1="99.833701" x2="62.821601" xlink:href="#T" y1="233.57615" y2="232.02715"/><linearGradient id="W" gradientUnits="userSpaceOnUse" x1="99.833701" x2="62.834899" xlink:href="#T" y1="232.63585" y2="230.93505"/><linearGradient id="X" gradientUnits="userSpaceOnUse" x1="99.833701" x2="62.821601" xlink:href="#T" y1="228.40375" y2="226.854751"/><linearGradient id="Y" gradientUnits="userSpaceOnUse" x1="99.833701" x2="62.834899" xlink:href="#T" y1="227.46345" y2="225.76275"/><linearGradient id="Z" gradientUnits="userSpaceOnUse" x1="99.833701" x2="62.821601" xlink:href="#T" y1="223.23145" y2="221.68245"/><mask id="aa" height="70" maskUnits="userSpaceOnUse" width="53" x="51" y="63"><path d="m76.9746 66.7966c-7.3057-4.1929-13.9125-4.574-18.6771-1.8423l-6.7339 3.8751c4.7646-2.7952 11.3714-2.414 18.6771 1.8423 14.4843 8.3857 26.2369 28.7145 26.1733 45.3583 0 8.259-2.9858 14.104-7.6868 16.835l6.7339-3.875c4.7009-2.732 7.6229-8.576 7.6869-16.835.063-16.5805-11.6891-36.9728-26.1734-45.3584z" fill="#f16822"/></mask><path d="m285.80813 236.75-4.4-2.2.1 7.5 4.3-2.7c1.1-.6 1-2 0-2.6z" fill="#af3e0d"/><path d="m168.10803 127.15c-8.5-4.9-22.3-5-30.79996-.1-8.2 4.7-8.4 12.3-.6 17.3l31.39996 101.6 102.6001 57.7c5.2 3 11.8-.7 11.8-6.8v-94.5c0-7.2-3.8-13.8-10-17.3z" fill="url(#a)"/><path d="m181.40803 238.65-5-3c-.5-.3-.9-.6-1.1-.8v-94.3l95.1001 52.2c3 1.7 4.8 4.9 4.8 8.3v90.1z" fill="url(#b)"/><path d="m168.10803 127.15c-8.5-4.9-22.3-5-30.79996-.1-8.2 4.7-8.4 12.3-.6 17.3l31.39996 101.6 104.1001 58.9c5.2 3 11.8-.7 11.8-6.8v-94.5c0-7.2-3.8-13.8-10-17.3z" fill="#af3e0d"/><path d="m168.20813 128.95c-8.5-4.9-22.3-5-30.80004-.1-8.2 4.7-4.50001 15 3.19999 19.9l27.60005 98.9 102.6 57.7c5.2 3 11.8-.7 11.8-6.8v-94.5c0-7.2-3.8-13.8-10-17.3z" fill="#d84b0e"/><path d="m168.20813 128.95c-8.5-4.9-22.3-5-30.80002-.1-8.2 4.7-4.3 14.1 3.4 19.1l27.40002 99.8 102.6 57.7c5.2 3 11.8-.7 11.8-6.8v-94.5c0-7.2-3.8-13.8-10-17.3z" fill="#d84b0e"/><path d="m143.748 305.05c-1.1 0-2.2-.3-3.2-.9l-101.7001-57.2c-.2-.1-.3-.3-.4-.5l-27.3-99.4-.5-.3c-4.4-2.8-7.3-7.2-7.3-10.8.1-2.3 1.3-4.2 3.8-5.7 3.9-2.2 9-3.4 14.5-3.4 5.6 0 10.8 1.2 14.7 3.5l104.4001 57.9c5.7 3.3 9.2 9.4 9.2 16v94.5c0 1.7-.7 3.4-1.9 4.6-1 1-2.6 1.7-4.3 1.7zm-103.9001-59.3 101.5001 57.1c1.9 1.1 4.3.8 5.8-.7.9-.9 1.5-2.1 1.5-3.5v-94.5c0-6-3.2-11.7-8.5-14.7l-104.4001-57.9c-3.7-2.1-8.7-3.3-14-3.3s-10.2 1.2-13.79999 3.2c-2 1.1-3 2.6-3 4.4-.1 3.1 2.59999 6.9 6.59999 9.5l.7.5c.2.1.3.3.3.4z" fill="#b086cc" opacity=".09" transform="translate(130.96013)"/><path d="m274.90813 304.55c-.1 0-.2-.1-.2-.2s.1-.3.2-.3c.5 0 .9-.1 1.4-.2.1 0 .3 0 .3.2 0 .1 0 .3-.2.3-.5.1-1 .2-1.5.2zm-1.5-.2c-.1 0 0 0 0 0-.6-.1-1-.3-1.5-.6-.1-.1-.2-.2-.1-.3s.2-.2.3-.1c.4.2.9.4 1.3.5.1 0 .2.2.2.3s-.1.2-.2.2zm4.3-.7c-.1 0-.2 0-.2-.1-.1-.1 0-.3.1-.3.3-.2.6-.4.9-.7.1-.1.1-.1.2-.2s.3-.1.4 0 .1.3 0 .4-.2.2-.2.2c-.3.3-.6.5-1 .8-.1-.1-.2-.1-.2-.1zm-7-.6h-.1l-1.3-.7c-.1-.1-.2-.2-.1-.3s.2-.2.3-.1l1.3.7c.1.1.2.2.1.3 0 .1-.1.1-.2.1zm-2.6-1.5h-.1l-1.3-.7c-.1-.1-.2-.2-.1-.3s.2-.2.3-.1l1.3.7c.1.1.2.2.1.3s-.1.1-.2.1zm11.6 0h-.1c-.1-.1-.2-.2-.1-.3.2-.4.4-.9.5-1.3 0-.1.2-.2.3-.2s.2.2.2.3c-.1.5-.3 1-.5 1.5-.1-.1-.2 0-.3 0zm-14.2-1.4h-.1l-1.3-.7c-.1-.1-.2-.2-.1-.3s.2-.2.3-.1l1.3.7c.1.1.2.2.1.3-.1 0-.2.1-.2.1zm-2.7-1.5h-.1l-1.3-.7c-.1-.1-.2-.2-.1-.3s.2-.2.3-.1l1.3.7c.1.1.2.2.1.3 0 0-.1.1-.2.1zm17.5 0c-.1 0-.2-.1-.2-.2v-1.5c0-.1.1-.2.2-.2s.2.1.2.2v1.5c.1 0 0 .2-.2.2zm-20.1-1.5h-.1l-1.3-.7c-.1-.1-.2-.2-.1-.3s.2-.2.3-.1l1.3.7c.1.1.2.2.1.3 0 .1-.1.1-.2.1zm-2.6-1.4h-.1l-1.3-.7c-.1-.1-.2-.2-.1-.3s.2-.2.3-.1l1.3.7c.1.1.2.2.1.3 0 0-.1.1-.2.1zm22.7-.1c-.1 0-.2-.1-.2-.2v-1.5c0-.1.1-.2.2-.2s.2.1.2.2v1.5c.1 0 0 .2-.2.2zm-25.3-1.4h-.1l-1.3-.7c-.1-.1-.2-.2-.1-.3s.2-.2.3-.1l1.3.7c.1.1.2.2.1.3 0 0-.1.1-.2.1zm-2.6-1.5h-.1l-1.3-.7c-.1-.1-.2-.2-.1-.3s.2-.2.3-.1l1.3.7c.1.1.2.2.1.3 0 .1-.1.1-.2.1zm27.9-.1c-.1 0-.2-.1-.2-.2v-1.5c0-.1.1-.2.2-.2s.2.1.2.2v1.5c.1 0 0 .2-.2.2zm-30.5-1.4h-.1l-1.3-.7c-.1-.1-.2-.2-.1-.3s.2-.2.3-.1l1.3.7c.1.1.2.2.1.3s-.1.1-.2.1zm-2.7-1.4h-.1l-1.3-.7c-.1-.1-.2-.2-.1-.3s.2-.2.3-.1l1.3.7c.1.1.2.2.1.3 0 0-.1.1-.2.1zm33.2-.2c-.1 0-.2-.1-.2-.2v-1.5c0-.1.1-.2.2-.2s.2.1.2.2v1.5c.1 0 0 .2-.2.2zm-35.8-1.3h-.1l-1.3-.7c-.1-.1-.2-.2-.1-.3s.2-.2.3-.1l1.3.7c.1.1.2.2.1.3 0 .1-.1.1-.2.1zm-2.6-1.5h-.1l-1.3-.7c-.1-.1-.2-.2-.1-.3s.2-.2.3-.1l1.3.7c.1.1.2.2.1.3 0 .1-.1.1-.2.1zm38.4-.2c-.1 0-.2-.1-.2-.2v-1.5c0-.1.1-.2.2-.2s.2.1.2.2v1.5c.1 0 0 .2-.2.2zm-41-1.2h-.1l-1.3-.7c-.1-.1-.2-.2-.1-.3s.2-.2.3-.1l1.3.7c.1.1.2.2.1.3 0 0-.1.1-.2.1zm-2.6-1.5h-.1l-1.3-.7c-.1-.1-.2-.2-.1-.3s.2-.2.3-.1l1.3.7c.1.1.2.2.1.3 0 0-.1.1-.2.1zm43.6-.3c-.1 0-.2-.1-.2-.2v-1.5c0-.1.1-.2.2-.2s.2.1.2.2v1.5c.1 0 0 .2-.2.2zm-46.2-1.2h-.1l-1.3-.7c-.1-.1-.2-.2-.1-.3s.2-.2.3-.1l1.3.7c.1.1.2.2.1.3s-.1.1-.2.1zm-2.6-1.4h-.1l-1.3001-.7c-.1-.1-.2-.2-.1-.3s.2-.2.3-.1l1.3001.7c.1.1.2.2.1.3-.1 0-.2.1-.2.1zm48.8-.4c-.1 0-.2-.1-.2-.2v-1.5c0-.1.1-.2.2-.2s.2.1.2.2v1.5c.1 0 0 .2-.2.2zm-51.5001-1.1h-.1l-1.3-.7c-.1-.1-.2-.2-.1-.3s.2-.2.3-.1l1.3.7c.1.1.2.2.1.3 0 0-.1.1-.2.1zm-2.6-1.5h-.1l-1.3-.7c-.1-.1-.2-.2-.1-.3s.2-.2.3-.1l1.3.7c.1.1.2.2.1.3 0 .1-.1.1-.2.1zm54.1001-.4c-.1 0-.2-.1-.2-.2v-1.5c0-.1.1-.2.2-.2s.2.1.2.2v1.5c.1 0 0 .2-.2.2zm-56.7001-1.1h-.1l-1.3-.7c-.1-.1-.2-.2-.1-.3s.2-.2.3-.1l1.3.7c.1.1.2.2.1.3 0 .1-.1.1-.2.1zm-2.6-1.4h-.1l-1.3-.7c-.1-.1-.2-.2-.1-.3s.2-.2.3-.1l1.3.7c.1.1.2.2.1.3 0 0-.1.1-.2.1zm59.3001-.5c-.1 0-.2-.1-.2-.2v-1.5c0-.1.1-.2.2-.2s.2.1.2.2v1.5c.1 0 0 .2-.2.2zm-61.9001-1h-.1l-1.3-.7c-.1-.1-.2-.2-.1-.3s.2-.2.3-.1l1.3.7c.1.1.2.2.1.3 0 .1-.1.1-.2.1zm-2.6-1.5h-.1l-1.3-.7c-.1-.1-.2-.2-.1-.3s.2-.2.3-.1l1.3.7c.1.1.2.2.1.3s-.1.1-.2.1zm64.5001-.5c-.1 0-.2-.1-.2-.2v-1.5c0-.1.1-.2.2-.2s.2.1.2.2v1.5c.1 0 0 .2-.2.2zm-67.1001-.9h-.1l-1.3-.7c-.1-.1-.2-.2-.1-.3s.2-.2.3-.1l1.3.7c.1.1.2.2.1.3-.1 0-.2.1-.2.1zm-2.7-1.5h-.1l-1.3-.7c-.1-.1-.2-.2-.1-.3s.2-.2.3-.1l1.3.7c.1.1.2.2.1.3 0 0-.1.1-.2.1zm69.8001-.6c-.1 0-.2-.1-.2-.2v-1.5c0-.1.1-.2.2-.2s.2.1.2.2v1.5c.1 0 0 .2-.2.2zm-72.4001-.9h-.1l-1.3-.7c-.1-.1-.2-.2-.1-.3s.2-.2.3-.1l1.3.7c.1.1.2.2.1.3 0 .1-.1.1-.2.1zm-2.6-1.5h-.1l-1.3-.7c-.1-.1-.2-.2-.1-.3s.2-.2.3-.1l1.3.7c.1.1.2.2.1.3 0 .1-.1.1-.2.1zm75.0001-.6c-.1 0-.2-.1-.2-.2v-1.5c0-.1.1-.2.2-.2s.2.1.2.2v1.5c.1 0 0 .2-.2.2zm-77.6001-.8h-.1l-1.3-.7c-.1-.1-.2-.2-.1-.3s.2-.2.3-.1l1.3.7c.1.1.2.2.1.3 0 0-.1.1-.2.1zm-2.6-1.5h-.1l-1.3-.7c-.1-.1-.2-.2-.1-.3s.2-.2.3-.1l1.3.7c.1.1.2.2.1.3 0 .1-.1.1-.2.1zm80.2001-.7c-.1 0-.2-.1-.2-.2v-1.5c0-.1.1-.2.2-.2s.2.1.2.2v1.5c.1 0 0 .2-.2.2zm-82.8001-.8h-.1l-1.3-.7c-.1-.1-.2-.2-.1-.3s.2-.2.3-.1l1.3.7c.1.1.2.2.1.3s-.1.1-.2.1zm-2.7-1.4h-.1l-1.3-.7c-.1-.1-.2-.2-.1-.3s.2-.2.3-.1l1.3.7c.1.1.2.2.1.3 0 0-.1.1-.2.1zm85.5001-.8c-.1 0-.2-.1-.2-.2v-1.5c0-.1.1-.2.2-.2s.2.1.2.2v1.5c.1 0 0 .2-.2.2zm-88.1001-.7h-.1l-1.3-.7c-.1-.1-.2-.2-.1-.3s.2-.2.3-.1l1.3.7c.1.1.2.2.1.3 0 .1-.1.1-.2.1zm-2.6-1.5h-.1l-1.3-.7c-.1-.1-.2-.2-.1-.3s.2-.2.3-.1l1.3.7c.1.1.2.2.1.3 0 .1-.1.1-.2.1zm90.7001-.8c-.1 0-.2-.1-.2-.2v-1.5c0-.1.1-.2.2-.2s.2.1.2.2v1.5c.1 0 0 .2-.2.2zm-93.3001-.6h-.1l-1.3-.7c-.1-.1-.2-.2-.1-.3s.2-.2.3-.1l1.3.7c.1.1.2.2.1.3 0 0-.1.1-.2.1zm-2.6-1.5h-.1l-1.3-.7c-.1-.1-.2-.2-.1-.3s.2-.2.3-.1l1.3.7c.1.1.2.2.1.3 0 0-.1.1-.2.1zm95.9001-.9c-.1 0-.2-.1-.2-.2v-1.5c0-.1.1-.2.2-.2s.2.1.2.2v1.5c.1 0 0 .2-.2.2zm-98.5001-.6h-.1l-1.3-.7c-.1-.1-.2-.2-.1-.3s.2-.2.3-.1l1.3.7c.1.1.2.2.1.3s-.1.1-.2.1zm-2.6-1.5h-.1l-1.3-.7c-.1-.1-.2-.2-.1-.3s.2-.2.3-.1l1.3.7c.1.1.2.2.1.3s-.2.1-.2.1zm101.1001-.9c-.1 0-.2-.1-.2-.2v-1.5c0-.1.1-.2.2-.2s.2.1.2.2v1.5c.1 0 0 .2-.2.2zm-103.8001-.5h-.1l-1.3-.7c-.1-.1-.2-.2-.1-.3s.2-.2.3-.1l1.3.7c.1.1.2.2.1.3 0 0-.1.1-.2.1zm-2.6-1.5h-.1l-1.3-.7c-.1-.1-.2-.2-.1-.3s.2-.2.3-.1l1.3.7c.1.1.2.2.1.3 0 .1-.1.1-.2.1zm106.4001-1c-.1 0-.2-.1-.2-.2v-1.5c0-.1.1-.2.2-.2s.2.1.2.2v1.5c.1 0 0 .2-.2.2zm-109.0001-.5h-.1l-1.2-.7c-.1-.1-.2-.2-.1-.3s.2-.2.3-.1l1.2.7c.1.1.2.2.1.3 0 .1-.1.1-.2.1zm109.0001-2.5c-.1 0-.2-.1-.2-.2v-1.5c0-.1.1-.2.2-.2s.2.1.2.2v1.5c.1 0 0 .2-.2.2zm0-3c-.1 0-.2-.1-.2-.2v-1.5c0-.1.1-.2.2-.2s.2.1.2.2v1.5c.1 0 0 .2-.2.2zm0-3c-.1 0-.2-.1-.2-.2v-1.5c0-.1.1-.2.2-.2s.2.1.2.2v1.5c.1 0 0 .2-.2.2zm0-3c-.1 0-.2-.1-.2-.2v-1.5c0-.1.1-.2.2-.2s.2.1.2.2v1.5c.1 0 0 .2-.2.2zm0-3c-.1 0-.2-.1-.2-.2v-1.5c0-.1.1-.2.2-.2s.2.1.2.2v1.5c.1 0 0 .2-.2.2zm0-3c-.1 0-.2-.1-.2-.2v-1.5c0-.1.1-.2.2-.2s.2.1.2.2v1.5c.1 0 0 .2-.2.2zm0-3c-.1 0-.2-.1-.2-.2v-1.5c0-.1.1-.2.2-.2s.2.1.2.2v1.5c.1 0 0 .2-.2.2zm0-3c-.1 0-.2-.1-.2-.2v-1.5c0-.1.1-.2.2-.2s.2.1.2.2v1.5c.1 0 0 .2-.2.2zm0-3c-.1 0-.2-.1-.2-.2v-1.5c0-.1.1-.2.2-.2s.2.1.2.2v1.5c.1 0 0 .2-.2.2zm0-3c-.1 0-.2-.1-.2-.2v-1.5c0-.1.1-.2.2-.2s.2.1.2.2v1.5c.1 0 0 .2-.2.2zm0-3c-.1 0-.2-.1-.2-.2v-1.5c0-.1.1-.2.2-.2s.2.1.2.2v1.5c.1 0 0 .2-.2.2zm0-3c-.1 0-.2-.1-.2-.2v-1.5c0-.1.1-.2.2-.2s.2.1.2.2v1.5c.1 0 0 .2-.2.2zm0-3c-.1 0-.2-.1-.2-.2v-1.5c0-.1.1-.2.2-.2s.2.1.2.2v1.5c.1 0 0 .2-.2.2zm0-3c-.1 0-.2-.1-.2-.2v-1.5c0-.1.1-.3.2-.3s.2.1.2.2v1.5c.1.1 0 .3-.2.3zm-.1-3c-.1 0-.2-.1-.2-.2-.1-.5-.1-1-.2-1.5 0-.1.1-.3.2-.3s.3.1.3.2c.1.5.2 1 .2 1.5 0 .1-.1.2-.3.3zm-.5-3c-.1 0-.2-.1-.2-.2-.1-.5-.3-.9-.5-1.4 0-.1 0-.3.1-.3s.3 0 .3.1c.2.5.3 1 .5 1.4.1.2 0 .4-.2.4zm-1.1-2.8c-.1 0-.2-.1-.2-.1-.2-.4-.4-.9-.7-1.3-.1-.1 0-.3.1-.3.1-.1.3 0 .3.1.3.4.5.9.7 1.3.1.1 0 .3-.1.3zm-1.5-2.6c-.1 0-.2 0-.2-.1-.3-.4-.6-.8-.9-1.2-.1-.1-.1-.3 0-.4s.3-.1.4 0c.3.4.6.8.9 1.2.1.1.1.3-.1.3 0 .2 0 .2-.1.2zm-1.9-2.3c-.1 0-.1 0-.2-.1-.3-.4-.7-.7-1.1-1-.1-.1-.1-.2 0-.4.1-.1.2-.1.4 0 .4.3.8.7 1.1 1 .1.1.1.3 0 .4s-.1.1-.2.1zm-2.3-1.9c-.1 0-.1 0-.1 0-.4-.3-.8-.6-1.2-.8-.1-.1-.2-.2-.1-.3s.2-.2.3-.1c.4.3.9.5 1.3.8.1.1.1.2.1.3-.1 0-.2.1-.3.1zm-2.5-1.6h-.1l-1.3-.7c-.1-.1-.2-.2-.1-.3s.2-.2.3-.1l1.3.7c.1.1.2.2.1.3s-.2.1-.2.1zm-2.7-1.4h-.1l-1.3-.7c-.1-.1-.2-.2-.1-.3s.2-.2.3-.1l1.3.7c.1.1.2.2.1.3 0 0-.1.1-.2.1zm-2.6-1.5h-.1l-1.3-.7c-.1-.1-.2-.2-.1-.3s.2-.2.3-.1l1.3.7c.1.1.2.2.1.3 0 .1-.1.1-.2.1zm-2.6-1.4h-.1l-1.3-.7c-.1-.1-.2-.2-.1-.3s.2-.2.3-.1l1.3.7c.1.1.2.2.1.3 0 0-.1.1-.2.1zm-2.6-1.5h-.1l-1.3-.7c-.1-.1-.2-.2-.1-.3s.2-.2.3-.1l1.3.7c.1.1.2.2.1.3s-.1.1-.2.1zm-2.7-1.4h-.1l-1.3-.7c-.1-.1-.2-.2-.1-.3s.2-.2.3-.1l1.3.7c.1.1.2.2.1.3 0 0-.1.1-.2.1zm-2.6-1.5h-.1l-1.3-.7c-.1-.1-.2-.2-.1-.3s.2-.2.3-.1l1.3.7c.1.1.2.2.1.3 0 0-.1.1-.2.1zm-2.6-1.5h-.1l-1.3-.7c-.1-.1-.2-.2-.1-.3s.2-.2.3-.1l1.3.7c.1.1.2.2.1.3 0 .1-.1.1-.2.1zm-2.6-1.4h-.1l-1.3-.7c-.1-.1-.2-.2-.1-.3s.2-.2.3-.1l1.3.7c.1.1.2.2.1.3-.1 0-.1.1-.2.1zm-2.7-1.5h-.1l-1.3-.7c-.1-.1-.2-.2-.1-.3s.2-.2.3-.1l1.3.7c.1.1.2.2.1.3 0 .1-.1.1-.2.1zm-2.6-1.4h-.1l-1.3-.7c-.1-.1-.2-.2-.1-.3s.2-.2.3-.1l1.3.7c.1.1.2.2.1.3 0 0-.1.1-.2.1zm-2.6-1.5h-.1l-1.3-.7c-.1-.1-.2-.2-.1-.3s.2-.2.3-.1l1.3.7c.1.1.2.2.1.3 0 .1-.1.1-.2.1zm-2.6-1.4h-.1l-1.3-.7c-.1-.1-.2-.2-.1-.3s.2-.2.3-.1l1.3.7c.1.1.2.2.1.3-.1 0-.1.1-.2.1zm-2.7-1.5h-.1l-1.3-.7c-.1-.1-.2-.2-.1-.3s.2-.2.3-.1l1.3.7c.1.1.2.2.1.3 0 .1-.1.1-.2.1zm-2.6-1.4h-.1l-1.3-.7c-.1-.1-.2-.2-.1-.3s.2-.2.3-.1l1.3.7c.1.1.2.2.1.3 0 0-.1.1-.2.1zm-2.6-1.5h-.1001l-1.3-.7c-.1-.1-.2-.2-.1-.3s.2-.2.3-.1l1.3001.7c.1.1.2.2.1.3 0 .1-.1.1-.2.1zm-2.6001-1.4h-.1l-1.3-.7c-.1-.1-.2-.2-.1-.3s.2-.2.3-.1l1.3.7c.1.1.2.2.1.3-.1 0-.1.1-.2.1zm-2.7-1.5h-.1l-1.3-.7c-.1-.1-.2-.2-.1-.3s.2-.2.3-.1l1.3.7c.1.1.2.2.1.3 0 .1-.1.1-.2.1zm-2.6-1.4h-.1l-1.3-.7c-.1-.1-.2-.2-.1-.3s.2-.2.3-.1l1.3.7c.1.1.2.2.1.3 0 0-.1.1-.2.1zm-2.6-1.5h-.1l-1.3-.7c-.1-.1-.2-.2-.1-.3s.2-.2.3-.1l1.3.7c.1.1.2.2.1.3 0 .1-.1.1-.2.1zm-2.6-1.5h-.1l-1.3-.7c-.1-.1-.2-.2-.1-.3s.2-.2.3-.1l1.3.7c.1.1.2.2.1.3s-.1.1-.2.1zm-2.6-1.4h-.1l-1.3-.7c-.1-.1-.2-.2-.1-.3s.2-.2.3-.1l1.3.7c.1.1.2.2.1.3-.1 0-.2.1-.2.1zm-2.7-1.5h-.1l-1.3-.7c-.1-.1-.2-.2-.1-.3s.2-.2.3-.1l1.3.7c.1.1.2.2.1.3 0 .1-.1.1-.2.1zm-2.6-1.4h-.1l-1.3-.7c-.1-.1-.2-.2-.1-.3s.2-.2.3-.1l1.3.7c.1.1.2.2.1.3 0 0-.1.1-.2.1zm-2.6-1.5h-.1l-1.3-.7c-.1-.1-.2-.2-.1-.3s.2-.2.3-.1l1.3.7c.1.1.2.2.1.3 0 .1-.1.1-.2.1zm-2.6-1.4h-.1l-1.3-.7c-.1-.1-.2-.2-.1-.3s.2-.2.3-.1l1.3.7c.1.1.2.2.1.3-.1 0-.2.1-.2.1zm-2.7-1.5h-.1l-1.3-.7c-.1-.1-.2-.2-.1-.3s.2-.2.3-.1l1.3.7c.1.1.2.2.1.3 0 .1-.1.1-.2.1zm-2.6-1.4h-.1l-1.3-.7c-.1-.1-.2-.2-.1-.3s.2-.2.3-.1l1.3.7c.1.1.2.2.1.3 0 0-.1.1-.2.1zm-2.6-1.5h-.1l-1.3-.7c-.1-.1-.2-.2-.1-.3s.2-.2.3-.1l1.3.7c.1.1.2.2.1.3 0 .1-.1.1-.2.1zm-57.1-.8h-.1c-.4-.3-.79999-.6-1.19999-.9-.1-.1-.1-.2 0-.4.1-.1.2-.1.4 0 .4.3.7.6 1.2.9.1.1.19999.2.1.3-.2.1-.3.1-.4.1zm54.5-.6h-.1l-1.3-.7c-.1-.1-.2-.2-.1-.3s.2-.2.3-.1l1.3.7c.1.1.2.2.1.3-.1 0-.2.1-.2.1zm-56.69999-1.3c-.1 0-.1 0-.2-.1-.3-.4-.6-.8-.9-1.3-.1-.1 0-.3.1-.3.1-.1.3 0 .3.1.2.4.49999.8.79999 1.2.1.1.1.3 0 .4 0-.1.00001 0-.1 0zm53.99999-.2h-.1l-1.3-.7c-.1-.1-.2-.2-.1-.3s.2-.2.3-.1l1.3.7c.1.1.2.2.1.3 0 .1-.1.1-.2.1zm-2.6-1.4h-.1l-1.3-.7c-.1-.1-.2-.2-.1-.3s.2-.2.3-.1l1.3.7c.1.1.2.2.1.3 0 0-.1.1-.2.1zm-52.89999-1c-.1 0-.2-.1-.2-.2-.2-.5-.4-.9-.5-1.5 0-.1 0-.3.2-.3.1 0 .3 0 .3.2.1.5.3 1 .5 1.4 0 .2-.1.3-.3.4zm50.29999-.5h-.1l-1.3-.7c-.1-.1-.2-.2-.1-.3s.2-.2.3-.1l1.3.7c.1.1.2.2.1.3 0 .1-.1.1-.2.1zm-2.6-1.5h-.1l-1.3-.7c-.1-.1-.2-.2-.1-.3s.2-.2.3-.1l1.3.7c.1.1.2.2.1.3s-.2.1-.2.1zm-48.5-.9c-.1 0-.19999-.1-.19999-.2-.1-.5-.1-1-.2-1.5 0-.1.1-.3.2-.3.2 0 .3.1.3.2 0 .5.1 1 .2 1.5 0 .2-.10001.3-.30001.3zm45.8-.5h-.1l-1.3-.7c-.1-.1-.2-.2-.1-.3s.2-.2.3-.1l1.3.7c.1.1.2.2.1.3 0 0-.1.1-.2.1zm-2.6-1.5h-.1l-1.3-.7c-.1-.1-.2-.2-.1-.3s.2-.2.3-.1l1.3.7c.1.1.2.2.1.3 0 .1-.1.1-.2.1zm-43.39999-1c-.1 0-.3-.1-.2-.3v-.4c0-.4.1-.8.2-1.2 0-.1.2-.2.3-.2s.2.2.2.3c-.1.3-.1.7-.1 1.1v.4c-.2.2-.3.3-.4.3zm40.79999-.4h-.1l-1.3-.7c-.1-.1-.2-.2-.1-.3s.2-.2.3-.1l1.3.7c.1.1.2.2.1.3 0 0-.1.1-.2.1zm-2.6-1.5h-.1l-1.3-.7c-.1-.1-.2-.2-.1-.3s.2-.2.3-.1l1.3.7c.1.1.2.2.1.3s-.1.1-.2.1zm-37.5-1h-.1c-.1-.1-.19999-.2-.1-.3.3-.4.6-.8 1-1.2.1-.1.3-.1.4 0s.1.3 0 .4c-.4.4-.7.7-.9 1.1-.1 0-.20001 0-.30001 0zm34.8-.4h-.1l-1.3-.7c-.1-.1-.2-.2-.1-.3s.2-.2.3-.1l1.3.7c.1.1.2.2.1.3 0 0-.1.1-.2.1zm-2.6-1.5h-.1l-1-.5c-.1-.1-.2-.1-.3-.2s-.2-.2-.1-.3.2-.2.3-.1.2.1.3.2l1 .5c.1.1.2.2.1.3 0 .1-.1.1-.2.1zm-30.09999-.2c-.1 0-.20001 0-.20001-.1-.1-.1 0-.3.1-.3.2-.1.40001-.3.60001-.4s.4-.2.7-.4c.1-.1.3 0 .3.1.1.1-.00001.3-.10001.3-.2.1-.39999.2-.69999.4-.2.1-.4.3-.6.4zm27.49999-1.2h-.1c-.4-.2-.9-.4-1.4-.6-.1 0-.2-.2-.1-.3 0-.1.2-.2.3-.1.5.2.9.4 1.4.6.1.1.2.2.1.3 0 .1-.1.1-.2.1zm-24.89999-.2c-.1 0-.20001-.1-.20001-.1-.1-.1.00001-.3.10001-.3.5-.2.89999-.4 1.39999-.6.1 0 .3 0 .3.1s0 .3-.1.3c-.5.2-.9.4-1.39999.6zm22.09999-.9c-.1 0-.1 0 0 0-.5-.2-1-.3-1.5-.4-.1 0-.2-.2-.2-.3s.2-.2.3-.2c.5.1 1 .3 1.5.4.1 0 .2.2.2.3-.1.2-.2.2-.3.2zm-19.3-.1c-.1 0-.2-.1-.2-.2s0-.3.2-.3c.5-.1 1-.3 1.5-.4.1 0 .3 0 .3.2 0 .1 0 .3-.2.3-.5.1-1 .2-1.6.4.1 0 .1 0 0 0zm16.4-.6c-.1 0 0 0 0 0-.5-.1-1-.2-1.5-.3-.1 0-.2-.1-.2-.3 0-.1.2-.2.3-.2l1.5.3c.1 0 .2.2.2.3-.1.1-.2.2-.3.2zm-13.4-.1c-.1 0-.2-.1-.2-.2s.1-.3.2-.3c.5-.1 1-.2 1.5-.2.1 0 .3.1.3.2s-.1.3-.2.3c-.6 0-1.1.1-1.6.2zm10.4-.4c-.5-.1-1-.1-1.5-.1-.1 0-.2-.1-.2-.3 0-.1.1-.2.3-.2.5 0 1 .1 1.5.1.1 0 .2.1.2.3-.1.1-.2.2-.3.2zm-7.5-.1c-.1 0-.2-.1-.2-.2s.1-.3.2-.3c.5 0 1-.1 1.5-.1.1 0 .2.1.2.2s-.1.3-.2.3c-.5.1-1 .1-1.5.1zm4.5-.1c-.3 0-.7 0-1 0h-.5c-.1 0-.2-.1-.3-.2 0-.1.1-.3.2-.3h.5 1c.1 0 .2.1.2.3.2.1.1.2-.1.2z" fill="#fff"/><path d="m252.40813 179.85-88.2-49.4c-5.9-3.4-15.5-3.4-21.3 0-5.70001 3.3-5.80002 8.5-.4 12l21.8 68.1 81.3 46.1z" fill="url(#d)"/><path d="m201.10813 151.25-36.9-20.9c-5.9-3.4-15.5-3.4-21.3 0-5.70001 3.3-5.80002 8.5-.4 12l21.8 68.1 36.9 21.4v-80.6z" fill="url(#f)"/><path d="m254.20813 183.95-88.9001-50.4c-4.8-2.8-12.5-2.8-17.3 0-4.6 2.7-4.7 6.9-.4 9.7l17.7 54 88.7001 49.9z" fill="url(#g)"/><path d="m204.70813 156.05-39.4001-22.6c-4.8-2.8-12.5-2.8-17.3 0-4.6 2.7-4.7 6.9-.4 9.7l17.7 54 39.4001 23z" fill="url(#i)"/><path d="m262.40813 191.55-96-55.1c-4.7-2.7-12.2-2.7-16.9 0-4.5 2.6-4.6 6.8-.4 9.5l17.3 52.7 95.7 54.5z" fill="url(#j)"/><path d="m204.80813 158.55-38.4-22c-4.7-2.7-12.2-2.7-16.9 0-4.5 2.6-4.6 6.8-.4 9.5l17.3 52.7 38.4 22.5z" fill="url(#k)"/><path d="m250.30813 304.85-79.5-45.9c-9-5.2-16.2-19.1-16.2-31v-211.8c0-6.1-5-7.4-2-9.6.1-.1 12.1-5.5 12.3-5.5 3.3-1.2 6.7-1.8 11 .6l79.5 45.9c9 5.2 16.2 19.1 16.2 31v211.8c0 6.4-2.1 10.9-5.3 13-.2.1-13.6 6.3-13.9 6.4-2.9 1 1.8-2.6-2.1-4.9z" fill="url(#l)"/><path d="m250.30813 304.85-79.5-45.9c-9-5.2-16.2-19.1-16.2-31v-211.8c0-6.1-5-7.4-2-9.6.1-.1 11.9-5.4 12.1-5.5 3.3-1.2 6.7-1.8 11 .6l79.4 46c9 5.2 16.2 19.1 16.2 31v211.8c0 6.4-2.1 10.9-5.3 13-.2.1-13.4 6.3-13.7 6.3-2.8 1 1.9-2.6-2-4.9z" fill="url(#m)"/><path d="m250.30813 304.85-79.5-45.9c-9-5.2-16.2-19.1-16.2-31v-211.8c0-6.1-5-7.40002-2-9.60002.1-.1 11.7-5.3 11.9-5.4 3.3-1.2000044 6.7-1.800005 11 .6l79.5 45.90002c9 5.2 16.2 19.1 16.2 31v211.8c0 6.4-2.1 10.9-5.3 13-.2.1-13.3 6.2-13.5 6.3-2.9 1 1.8-2.6-2.1-4.9z" fill="url(#n)"/><path d="m250.30813 304.85-79.5-45.9c-9-5.2-16.2-19.1-16.2-31v-211.8c0-6.1-5-7.39999-2-9.59999.1-.1 11.5-5.3 11.7-5.3 3.3-1.1999978 6.7-1.799998 11 .6l79.5 45.89999c9 5.2 16.2 19.1 16.2 31v211.8c0 6.4-2.1 10.9-5.3 13-.2.1-13.1 6.1-13.3 6.2-2.9 1 1.8-2.6-2.1-4.9z" fill="url(#o)"/><path d="m250.30813 304.85-79.5-45.9c-9-5.2-16.2-19.1-16.2-31v-211.8c0-6.1-5-7.40001-2-9.60001.1-.1 11.4-5.2 11.5-5.2 3.3-1.200002 6.7-1.800002 11 .6l79.5 45.90001c9 5.2 16.2 19.1 16.2 31v211.8c0 6.4-2.1 10.9-5.3 13-.2.1-12.9 6.1-13.1 6.1-2.9 1 1.8-2.6-2.1-4.9z" fill="url(#p)"/><path d="m250.30813 304.85-79.5-45.9c-9-5.2-16.2-19.1-16.2-31v-211.8c0-6.1-5-7.40001-2-9.60001.1-.1 11.2-5.1 11.3-5.2 3.3-1.200002 6.7-1.800002 11 .6l79.5 46.00001c9 5.2 16.2 19.1 16.2 31v211.8c0 6.4-2.1 10.9-5.3 13-.2.1-12.7 6-12.9 6-2.9 1 1.8-2.6-2.1-4.9z" fill="url(#q)"/><path d="m250.30813 304.85-79.5-45.9c-9-5.2-16.2-19.1-16.2-31v-211.8c0-6.1-5-7.39998-2-9.59998.1-.1 11-5 11.1-5.1 3.3-1.199996 6.7-1.799996 11 .6l79.5 45.89998c9 5.2 16.2 19.1 16.2 31v211.8c0 6.4-2.1 10.9-5.3 13-.2.1-12.5 5.9-12.7 6-2.9 1 1.8-2.6-2.1-4.9z" fill="url(#r)"/><path d="m250.30813 304.85-79.5-45.9c-9-5.2-16.2-19.1-16.2-31v-211.8c0-6.1-5-7.4-2-9.6.1-.1 10.8-5 10.9-5 3.3-1.2 6.7-1.8 11 .6l79.5 45.9c9 5.2 16.2 19.1 16.2 31v211.8c0 6.4-2.1 10.9-5.3 13-.2.1-12.3 5.8-12.5 5.9-2.9 1 1.8-2.6-2.1-4.9z" fill="url(#s)"/><path d="m250.30813 304.85-79.5-45.9c-9-5.2-16.2-19.1-16.2-31v-211.8c0-6.1-5-7.40002-2-9.60002.1-.1 10.6-4.9 10.7-4.9 3.3-1.200004 6.7-1.800005 11 .6l79.5 45.90002c9 5.2 16.2 19.1 16.2 31v211.8c0 6.4-2.1 10.9-5.3 13-.2.1-12.1 5.8-12.3 5.8-2.9 1 1.8-2.6-2.1-4.9z" fill="url(#t)"/><path d="m250.30813 304.85-79.5-45.9c-9-5.2-16.2-19.1-16.2-31v-211.8c0-6.1-5-7.40002-2-9.60002.1-.1 10.4-4.8 10.5-4.9 3.3-1.200004 6.7-1.800005 11 .6l79.5 45.90002c9 5.2 16.2 19.1 16.2 31v211.8c0 6.4-2.1 10.9-5.3 13-.2.1-11.9 5.7-12.1 5.8-2.9 1 1.8-2.6-2.1-4.9z" fill="url(#u)"/><path d="m250.30813 304.85-79.5-45.9c-9-5.2-16.2-19.1-16.2-31v-211.8c0-6.1-5-7.39999-2-9.59999.1-.1 10.2-4.7 10.3-4.8 3.3-1.199998 6.7-1.7999978 11 .6l79.5 45.89999c9 5.2 16.2 19.1 16.2 31v211.8c0 6.4-2.1 10.9-5.3 13-.2.1-11.7 5.6-11.9 5.7-2.9 1 1.8-2.6-2.1-4.9z" fill="url(#v)"/><path d="m250.30813 304.85-79.5-45.9c-9-5.2-16.2-19.1-16.2-31v-211.8c0-6.1-5-7.40001-2-9.60001.1-.1 10-4.7 10.1-4.7 3.3-1.200002 6.7-1.8000022 11 .6l79.5 45.90001c9 5.2 16.2 19.1 16.2 31v211.8c0 6.4-2.1 10.9-5.3 13-.2.1-11.5 5.5-11.7 5.6-2.9 1 1.8-2.6-2.1-4.9z" fill="url(#w)"/><path d="m250.30813 304.85-79.5-45.9c-9-5.2-16.2-19.1-16.2-31v-211.8c0-6.1-5-7.40001-2-9.60001.1-.1 9.8-4.6 9.9-4.7 3.3-1.200002 6.7-1.8000022 11 .6l79.5 45.90001c9 5.2 16.2 19.1 16.2 31v211.8c0 6.4-2.1 10.9-5.3 13-.2.1-11.3 5.5-11.5 5.5-2.9 1.1 1.8-2.5-2.1-4.8z" fill="url(#x)"/><path d="m250.30813 304.85-79.5-45.9c-9-5.2-16.2-19.1-16.2-31v-211.8c0-6.1-5-7.39998-2-9.59998.1-.1 9.6-4.5 9.7-4.6 3.3-1.199996 6.7-1.799996 11 .6l79.5 45.89998c9 5.2 16.2 19.1 16.2 31v211.8c0 6.4-2.1 10.9-5.3 13-.2.1-11.1 5.4-11.3 5.5-2.9 1 1.8-2.6-2.1-4.9z" fill="url(#y)"/><path d="m250.30813 304.85-79.5-45.9c-9-5.2-16.2-19.1-16.2-31v-211.8c0-6.1-5-7.4-2-9.6.1-.1 9.4-4.5 9.5-4.5 3.3-1.2 6.7-1.8 11 .6l79.5 45.9c9 5.2 16.2 19.1 16.2 31v211.8c0 6.4-2.1 10.9-5.3 13-.2.1-10.9 5.3-11.1 5.4-2.9 1 1.8-2.6-2.1-4.9z" fill="url(#z)"/><path d="m250.30813 304.85-79.5-45.9c-9-5.2-16.2-19.1-16.2-31v-211.8c0-6.1-5-7.40002-2-9.60002.1-.1 9.2-4.4 9.3-4.4 3.3-1.200004 6.7-1.800005 11 .6l79.5 45.90002c9 5.2 16.2 19.1 16.2 31v211.8c0 6.4-2.1 10.9-5.3 13-.2.1-10.7 5.3-10.9 5.3-2.9 1 1.8-2.6-2.1-4.9z" fill="url(#A)"/><path d="m250.30813 304.85-79.5-45.9c-9-5.2-16.2-19.1-16.2-31v-211.8c0-6.1-5-7.40002-2-9.60002.1-.1 9-4.3 9.1-4.4 3.3-1.200004 6.7-1.800005 11 .6l79.5 45.90002c9 5.2 16.2 19.1 16.2 31v211.8c0 6.4-2.1 10.9-5.3 13-.2.1-10.5 5.2-10.7 5.3-2.9 1 1.8-2.6-2.1-4.9z" fill="url(#B)"/><path d="m250.30813 304.85-79.5-45.9c-9-5.2-16.2-19.1-16.2-31v-211.8c0-6.1-5-7.39999-2-9.59999.1-.1 8.8-4.2 8.9-4.3 3.3-1.2 6.7-1.799998 11 .6l79.5 45.89999c9 5.2 16.2 19.1 16.2 31v211.8c0 6.4-2.1 10.9-5.3 13-.2.1-10.3 5.1-10.5 5.2-2.9 1 1.8-2.6-2.1-4.9z" fill="url(#C)"/><path d="m250.30813 304.85-79.5-45.9c-9-5.2-16.2-19.1-16.2-31v-211.8c0-6.1-5-7.40001-2-9.60001.1-.1 8.6-4.2 8.7-4.2 3.3-1.2 6.7-1.800002 11 .6l79.5 45.90001c9 5.2 16.2 19.1 16.2 31v211.8c0 6.4-2.1 10.9-5.3 13-.2.1-10.1 5-10.3 5.1-2.9 1 1.8-2.6-2.1-4.9z" fill="url(#D)"/><path d="m250.30813 304.85-79.5-45.9c-9-5.2-16.2-19.1-16.2-31v-211.8c0-6.1-5-7.39998-2-9.59998.1-.1 8.4-4.1 8.5-4.1 3.3-1.2 6.7-1.799996 11 .6l79.5 45.89998c9 5.2 16.2 19.1 16.2 31v211.8c0 6.4-2.1 10.9-5.3 13-.2.1-9.9 5-10.1 5-2.9 1 1.8-2.6-2.1-4.9z" fill="url(#E)"/><path d="m250.30813 304.85-79.5-45.9c-9-5.2-16.2-19.1-16.2-31v-211.8c0-6.1-5-7.39998-2-9.59998.1-.1 8.2-4 8.3-4.1 3.3-1.2 6.7-1.799996 11 .6l79.5 45.89998c9 5.2 16.2 19.1 16.2 31v211.8c0 6.4-2.1 10.9-5.3 13-.2.1-9.7 4.9-9.9 5-2.9 1 1.8-2.6-2.1-4.9z" fill="url(#F)"/><path d="m250.30813 304.85-79.5-45.9c-9-5.2-16.2-19.1-16.2-31v-211.8c0-6.1-5-7.4-2-9.6.1-.1 8-3.9 8.2-4 3.3-1.2 6.7-1.8 11 .6l79.5 45.9c9 5.2 16.2 19.1 16.2 31v211.9c0 6.4-2.1 10.9-5.3 13-.2.1-9.5 4.8-9.7 4.9-3 .9 1.7-2.7-2.2-5z" fill="url(#G)"/><path d="m242.70813 308.45-79.5-45.9c-9-5.2-16.2-19.1-16.2-31v-211.8c0-12.00002 7.3-17.50002 16.2-12.30002l79.5 45.90002c9 5.2 16.2 19.1 16.2 31v211.8c0 12-7.2 17.5-16.2 12.3z" fill="#fff"/><path d="m249.20813 308.85c-1.8 0-3.7-.6-5.6-1.7l-79.5-45.9c-8.5-4.9-15.4-18.2-15.4-29.6v-211.9c0-7.7 3.2001-12.59998 8.2001-12.59998 1.8 0 3.6999.6 5.5999 1.7l79.5 45.89998c8.5 4.9 15.4 18.2 15.4 29.6v211.8c-.1 7.7-3.3 12.7-8.2 12.7z" fill="url(#I)"/><path d="m152.30813 234.25v-211c0-8.8 5.3-12.8 11.9-9l77.5 44.7c6.6 3.8 11.9 14 11.9 22.8v211c0 8.8-5.3 12.8-11.9 9l-77.5-44.8c-6.5-3.8-11.9-14-11.9-22.7z" fill="#8f8f8f"/><path d="m165.10813 16.55c-6.2-3.6-11.2-.7-11.2 6.4v213.3c0 7.1 5 15.8 11.2 19.4l75.6 43.7c6.2 3.6 11.2.7 11.2-6.4v-213.3c0-7.1-5-15.8-11.2-19.4z" fill="#ffceb5"/><path d="m153.90813 70.35v134.8l98.1 40.7v-155.5c-1-.7-1.9-1.3-2.9-1.9-6.2-3.6-11.7-3.9-15.8-1.6-2.8-4-6.2-7.4-9.9-9.6-8.8-5.1-16-1.3-16.5 8.4-4.3-5.9-9.5-10.9-15.1-14.1-11.6-6.7-21.5-3.8-25 6.1-2-2-4.1-3.7-6.3-5-2.4-1.3-4.6-2.1-6.6-2.3z" fill="#f39767" opacity=".5"/><path d="m265.00813 154.05c-2.3 1.3-4.1-.1-4.1-3.1v-17.2c0-3 1.8-6.6 4.1-7.9s4.1.1 4.1 3.1v17.2c.1 3-1.8 6.5-4.1 7.9z" fill="#fff"/><path d="m203.52443 70.5843c14.3773 8.1145 25.946 27.812 25.946 43.9097-.0669 16.164-11.7024 22.643-26.0797 14.528-14.3773-8.114-26.0129-27.746-26.0129-43.91.0669-16.1637 11.7693-22.6423 26.1466-14.5277z" fill="url(#J)"/><path d="m207.93473 66.8326c-7.3057-4.1928-13.9125-4.574-18.6771-1.8423l-6.7339 3.8752c4.7646-2.7953 11.3714-2.4141 18.6771 1.8423 14.4843 8.3856 26.2369 28.7144 26.1733 45.3582 0 8.259-2.9858 14.104-7.6868 16.835l6.7339-3.875c4.7009-2.732 7.6229-8.576 7.6869-16.835.063-16.644-11.6891-37.0363-26.1734-45.3584z" fill="#f16822"/><path d="m201.20093 70.7078c14.4842 8.3856 26.2368 28.7144 26.1733 45.3582-.0635 16.645-11.8796 23.379-26.3639 15.056-14.4208-8.385-26.1734-28.714-26.1734-45.3582.0636-16.7077 12.0703-23.7593 26.364-15.056zm-.1271 56.7932c12.769 7.37 23.1876 1.462 23.1876-13.213.0635-14.6752-10.2915-32.59-23.0605-39.9592-12.7055-7.3692-23.1241-1.3976-23.1876 13.2138-.0635 14.6744 10.2915 32.5894 23.0605 39.9584z" fill="url(#K)"/><path d="m188.17853 103.17 2.287-1.334 3.1128 1.842-2.287 1.271z" fill="#f16822"/><path d="m191.29103 104.949 2.287-1.271 1.6517.953-2.2234 1.271z" fill="#f16822"/><path d="m186.78033 98.7233 2.2235-1.2705 4.5739 2.6042-2.2234 1.334z" fill="#fff"/><path d="m194.65803 97.5795 2.2234-1.2705v9.275l-2.2234 1.271z" fill="#fff"/><path d="m193.00653 105.902 2.2235-1.271 1.6517.953-2.2235 1.271z" fill="#f16822"/><path d="m198.97733 105.076 2.2235-1.334 2.287 3.939-2.2235 1.334z" fill="#f16822"/><path d="m194.65803 97.5795 2.2234-1.2705 4.3199 7.433-2.2235 1.334z" fill="#f16822"/><path d="m201.26493 109.014 2.2235-1.334 2.287-1.27-2.2235 1.27z" fill="#f16822"/><path d="m191.35453 86.6528 2.287-1.3341-.0635 14.7383-2.2235 1.334z" fill="#f16822"/><path d="m191.35453 86.6528 2.287-1.3341 9.8468 17.1523-2.2235 1.271z" fill="#fff"/><path d="m207.80793 114.478 2.287-1.27.3176.19-2.2235 1.271z" fill="#f16822"/><path d="m208.18973 114.668 2.2235-1.27 2.9858 1.715-2.2235 1.271z" fill="#f16822"/><path d="m211.17533 116.383 2.2235-1.27 3.1128 1.779-2.2234 1.334z" fill="#f16822"/><path d="m207.87143 105.203 2.2235-1.271v9.275l-2.287 1.271z" fill="#f16822"/><path d="m203.55203 107.68 2.2235-1.27 4.3199-2.478-2.2235 1.271z" fill="#f16822"/><path d="m207.87203 105.203v9.275l.3177.19 2.9857 1.715 3.1129 1.779c-2.6682 3.494-7.5598 4.066-13.0867.89-5.5269-3.177-10.355-9.339-13.0231-15.946l3.1128 1.779 1.6517.953 1.6518.953v-9.2753l4.3834 7.5603 2.287 3.938 2.2869-1.334z" fill="#f16822"/><path d="m211.17533 112.826 2.2235-1.334 4.574 2.668-2.2235 1.27z" fill="#fff"/><path d="m211.17533 98.0877 2.287-1.334-.0635 14.7383-2.2235 1.334z" fill="#fff"/><path d="m201.26493 103.742 2.2235-1.271 9.9738-5.7173-2.287 1.334z" fill="#fff"/><path d="m211.17553 98.0879v14.7381l4.574 2.605c-.3812 1.08-.8259 1.969-1.4611 2.732l-3.1129-1.779-2.9858-1.715-.3176-.191v-9.275l-4.3199 2.478-2.287 1.334-2.287-3.939-4.3198-7.4963v9.2753l-1.6518-.953-1.6517-.953-3.1763-1.779c-.5718-1.461-1.08-2.922-1.4612-4.3833l4.6375 2.6043v-14.738l9.9103 17.089z" fill="#fff"/><path d="m210.66693 88.8762c-1.1435-1.3341-2.287-2.5411-3.5576-3.6211-1.1435-.9529-2.3505-1.8423-3.5575-2.5411-4.2564-2.414-8.068-2.6681-10.8632-1.0799l-2.2235 1.2705c2.7952-1.5882 6.6069-1.3976 10.8632 1.08 1.207.6988 2.4141 1.5247 3.5576 2.5411 1.2705 1.08 2.4775 2.287 3.5575 3.6211 4.8281 5.7174 8.1315 13.4682 8.068 20.2022v.19.191c-.0635 1.778-.3176 3.303-.7623 4.637-.3812 1.017-.8259 1.906-1.3976 2.668-.6353.826-1.4612 1.589-2.287 2.033l2.2234-1.27c.8259-.509 1.5882-1.144 2.2235-1.97.5717-.762 1.08-1.715 1.4611-2.731.4447-1.334.7624-2.859.7624-4.638 0-.063 0-.127 0-.19 0-.064 0-.128 0-.191.0635-6.734-3.2399-14.4843-8.068-20.2018z" fill="#d84b0e"/><path d="m201.32853 84.0482c2.5411 1.4611 4.9551 3.6211 7.115 6.0986 4.8281 5.7175 8.1316 13.4682 8.068 20.2022v.19.191c-.0635 1.779-.3176 3.303-.7623 4.637l-4.574-2.541.0636-14.7382-9.9739 5.6542-9.9103-17.0892v14.7382l-4.5739-2.6044c-.4447-1.7788-.6988-3.5576-.7624-5.2728 0-.0635 0-.1271 0-.1906 0-.127 0-.127 0-.1906 0-.127 0-.1906 0-.2541 0-9.7832 6.861-13.7219 15.3102-8.8303z" fill="#f16822"/><path d="m201.32843 84.048c2.5411 1.4611 4.9551 3.621 7.1151 6.0986-2.16-2.4776-4.574-4.6375-7.1151-6.0986z" fill="#d84b0e"/><path d="m203.04353 127.501c-13.6584-7.877-24.6487-26.999-24.6487-42.6269 0-1.5247.127-2.9858.3176-4.3199-.6352 2.0329-1.0164 4.3834-1.0164 7.0516-.0635 14.6752 10.2914 32.5892 23.0605 39.9592 3.8752 2.223 7.4962 3.239 10.7361 3.176-2.6681-.508-5.5269-1.525-8.4491-3.24z" fill="#a14011"/><g fill="#d84b0e" mask="url(#aa)" opacity=".48" transform="translate(130.96013)"><path d="m75.4099 55.6888-45.1672 26.078.7305 1.2654 45.1672-26.0781z"/><path d="m77.5056 57.7861-45.1672 26.078.7305 1.2654 45.1672-26.0781z"/><path d="m79.6012 59.8839-45.1672 26.078.7305 1.2654 45.1672-26.0781z"/><path d="m81.6968 61.9812-45.1671 26.078.7305 1.2653 45.1672-26.078z"/><path d="m83.7926 64.0789-45.1672 26.0781.7305 1.2653 45.1672-26.078z"/><path d="m85.8887 66.1762-45.1671 26.0781.7305 1.2653 45.1672-26.078z"/><path d="m87.9844 68.2734-45.1671 26.078.7305 1.2654 45.1672-26.0781z"/><path d="m90.0795 70.3713-45.1671 26.078.7305 1.2654 45.1672-26.0781z"/><path d="m92.1757 72.4691-45.1672 26.078.7306 1.2654 45.1672-26.0781z"/><path d="m94.2714 74.5657-45.1672 26.0783.7306 1.265 45.1672-26.0779z"/><path d="m96.3671 76.6635-45.1671 26.0785.7305 1.265 45.1672-26.0781z"/><path d="m98.4622 78.7608-45.1672 26.0782.7306 1.265 45.1672-26.0778z"/><path d="m100.558 80.8586-45.1668 26.0784.7306 1.265 45.1672-26.0781z"/><path d="m102.654 82.9564-45.1671 26.0776.7306 1.266 45.1675-26.0783z"/><path d="m104.75 85.0537-45.1674 26.0783.7306 1.265 45.1668-26.078z"/><path d="m106.845 87.1508-45.1668 26.0782.7306 1.265 45.1672-26.0778z"/><path d="m108.941 89.2481-45.1671 26.0779.7306 1.266 45.1675-26.0785z"/><path d="m111.037 91.3464-45.1674 26.0776.7306 1.266 45.1668-26.0783z"/><path d="m113.133 93.4432-45.1672 26.0778.7306 1.266 45.1676-26.0785z"/><path d="m115.229 95.541-45.1675 26.078.7306 1.265 45.1669-26.0777z"/><path d="m117.324 97.6383-45.1674 26.0777.7306 1.266 45.1668-26.0784z"/><path d="m119.42 99.736-45.1672 26.078.7306 1.265 45.1676-26.078z"/><path d="m121.515 101.833-45.1671 26.078.7306 1.266 45.1675-26.078z"/><path d="m123.611 103.931-45.1668 26.078.7306 1.265 45.1672-26.078z"/><path d="m125.707 106.028-45.1672 26.078.7306 1.265 45.1676-26.078z"/><path d="m127.803 108.126-45.1675 26.078.7306 1.265 45.1669-26.078z"/></g><path d="m252.00813 133.45c-2.6-3-5.5-5.5-8.6-7.3-6.9-4-12.9-3.4-16.4.8-1.5-1.6-3.1-3-4.9-4-5.4-3.1-10-1.8-11.7 2.6-2.7-3-5.7-5.6-8.9-7.5-9.6-5.5-17.6-2.8-20.1 5.9-1.7-1.7-3.5-3.2-5.4-4.3-2.2-1.3-4.4-1.9-6.3-2-3.2-6.4-8.1-12.2-13.6-15.4-.7-.4-1.5-.8-2.2-1.1v130c0 6.6 4.3 14.4 9.8 18.4l88.3 36.6z" fill="#ef5e14" opacity=".5"/><path d="m239.40813 162.05-72.1001-41.6c-1.5-.9-2.9-1.1-4-.8l-2.3 1 .3.3c-1 1.1-1.6 2.9-1.6 5.2v47.3c0 5.5 3.4 12 7.5 14.4l72.1001 41.6c1 .6 1.9.9 2.8.9l.4.3.8-.4c2.4-1.2 3.5-2.9 3.5-6.5v-47.3c.1-5.5-3.2-12-7.4-14.4z" fill="#4d4d4d"/><path d="m237.70813 230.15-72.1001-41.6c-4.2-2.4-7.5-8.8-7.5-14.4v-47.3c0-5.5 3.4-8.1 7.5-5.7l72.1001 41.6c4.2 2.4 7.5 8.8 7.5 14.4v47.3c.1 5.6-3.3 8.1-7.5 5.7z" fill="url(#L)"/><g fill="#fff"><path d="m179.30813 148.45v-3.8l-14.9-8.6v3.8z"/><path d="m179.30813 143.75v-.2c0-2-1.4-4.4-3.1-5.4l-8.6-5c-1.7-1-3.1-.2-3.1 1.8v.2z"/><path d="m164.40813 140.75v.1c0 2 1.4 4.4 3.1 5.4l8.6 5c1.7 1 3.1.2 3.1-1.8v-.1z"/><g opacity=".95" transform="translate(130.96013)"><path d="m67.7479 161.15c-.3-.5-.4-1.2-.4-1.8v-4.6c0-.7.1-1.1.4-1.3s.7-.1 1.3.2 1 .8 1.3 1.3.4 1.2.4 1.8v.9l-1.1-.6v-1c0-.5-.2-.9-.6-1.1s-.6-.1-.6.5v4.8c0 .5.2.9.6 1.1s.6.1.6-.4v-1.3l1.1.6v1.2c0 .7-.1 1.1-.4 1.3s-.7.1-1.3-.2c-.6-.4-1-.9-1.3-1.4z" opacity=".95"/><path d="m71.4479 155.15 1.8 1c.6.4 1.1.8 1.3 1.3.3.5.4 1.1.4 1.7v.5c0 .9-.3 1.3-.8 1.3.3.3.5.6.6 1s.2.8.2 1.3v1.5.6c0 .2.1.3.1.5l-1.2-.7c0-.2-.1-.3-.1-.4s0-.4 0-.7v-1.6c0-.4-.1-.7-.2-.9s-.3-.4-.6-.6l-.4-.2v3.7l-1.2-.7v-8.6zm1.6 4.6c.2.1.4.2.5.1s.2-.3.2-.6v-.7c0-.3 0-.6-.1-.8s-.2-.4-.5-.5l-.5-.3v2.5z" opacity=".95"/><path d="m75.8479 157.65 3.2 1.9v1.2l-2-1.2v2.3l1.6.9v1.2l-1.6-.9v2.7l2 1.2v1.2l-3.2-1.9z" opacity=".95"/><path d="m79.7479 159.85 1.8 1c.6.3 1 .8 1.3 1.3s.4 1.1.4 1.8v4.4c0 .7-.1 1.1-.4 1.3s-.7.1-1.3-.2l-1.8-1zm1.7 8.4c.2.1.3.1.4.1.1-.1.2-.3.2-.6v-4.5c0-.3-.1-.5-.2-.7s-.3-.3-.4-.5l-.6-.3v6.2z" opacity=".95"/><path d="m84.0479 162.35 1.2.7v8.6l-1.2-.7z" opacity=".95"/><path d="m87.0479 165.35-1.2-.7v-1.2l3.7 2.1v1.2l-1.2-.7v7.4l-1.2-.7v-7.4z" opacity=".95"/><path d="m92.1479 175.25c-.3-.5-.4-1.2-.4-1.8v-4.6c0-.7.1-1.1.4-1.3s.7-.1 1.3.2 1 .8 1.3 1.3.4 1.2.4 1.8v.9l-1.1-.6v-1c0-.5-.2-.9-.6-1.1s-.6-.1-.6.5v4.8c0 .5.2.9.6 1.1s.6.1.6-.4v-1.3l1.1.6v1.2c0 .7-.1 1.1-.4 1.3s-.7.1-1.3-.2c-.6-.4-1-.9-1.3-1.4z" opacity=".95"/><path d="m96.8479 169.75 1.6001.9 1.1999 9.3-1.1999-.7-.2-1.8-1.3-.8-.2 1.6-1.1001-.6zm1.3 6.5-.5-4.6-.5 4z" opacity=".95"/><path d="m100.248 171.65 1.8 1c.6.4 1.1.8 1.3 1.3.3.5.4 1.1.4 1.7v.5c0 .9-.3 1.3-.8 1.3.3.3.5.6.6 1s.2.8.2 1.3v1.5.6c0 .2.1.3.1.5l-1.2-.7c0-.2-.1-.3-.1-.4s0-.4 0-.7v-1.6c0-.4-.1-.7-.2-.9s-.3-.4-.6-.6l-.4-.2v3.7l-1.2-.7v-8.6zm1.6 4.7c.2.1.4.2.5.1s.2-.3.2-.6v-.7c0-.3 0-.6-.1-.8s-.2-.4-.5-.5l-.5-.3v2.5z" opacity=".95"/><path d="m104.548 174.15 1.8 1c.6.3 1 .8 1.3 1.3s.4 1.1.4 1.8v4.4c0 .7-.1 1.1-.4 1.3s-.7.1-1.3-.2l-1.8-1zm1.8 8.5c.2.1.3.1.4.1.1-.1.2-.3.2-.6v-4.5c0-.3-.1-.5-.2-.7s-.3-.3-.4-.5l-.6-.3v6.2z" opacity=".95"/></g><path d="m225.30813 187.55c.3.2.6.7.6 1.2v4.7c0 .5-.3.7-.6.5l-1.8-1c-.3-.2-.6-.7-.6-1.2v-4.7c0-.4.3-.7.6-.5zm0 5.5v-4.7l-1.8-1v4.7z"/><path d="m229.60813 189.95c.3.2.6.7.6 1.2v4.7c0 .5-.3.7-.6.5l-1.8-1c-.3-.2-.6-.7-.6-1.2v-4.7c0-.4.3-.7.6-.5zm0 5.6v-4.7l-1.8-1v4.7z"/><path d="m233.90813 192.45c.3.2.6.7.6 1.2v4.7c0 .5-.3.7-.6.5l-1.8-1c-.3-.2-.6-.7-.6-1.2v-4.7c0-.4.3-.7.6-.5zm0 5.5v-4.7l-1.8-1v4.7z"/><path d="m238.20813 194.85c.3.2.6.7.6 1.2v4.7c0 .5-.3.7-.6.5l-1.8-1c-.3-.2-.6-.7-.6-1.2v-4.7c0-.4.3-.7.6-.5zm0 5.5v-4.7l-1.8-1v4.7z"/><path d="m205.60813 176.25c.3.2.6.7.6 1.2v4.7c0 .5-.3.7-.6.5l-1.8-1c-.3-.2-.6-.7-.6-1.2v-4.7c0-.4.3-.7.6-.5zm0 5.6v-4.7l-1.8-1v4.7z"/><path d="m209.90813 178.75c.3.2.6.7.6 1.2v4.7c0 .5-.3.7-.6.5l-1.8-1c-.3-.2-.6-.7-.6-1.2v-4.7c0-.4.3-.7.6-.5zm0 5.5v-4.7l-1.8-1v4.7z"/><path d="m214.20813 181.15c.3.2.6.7.6 1.2v4.7c0 .5-.3.7-.6.5l-1.8-1c-.3-.2-.6-.7-.6-1.2v-4.7c0-.4.3-.7.6-.5zm0 5.5v-4.7l-1.8-1v4.7z"/><path d="m218.50803 183.65c.3.2.6.7.6 1.2v4.7c0 .5-.3.7-.6.5l-1.7999-1c-.3-.2-.6001-.7-.6001-1.2v-4.7c0-.4.3001-.7.6001-.5zm0 5.5v-4.7l-1.7999-1v4.7z"/><path d="m185.80813 165.05c.3.2.6.7.6 1.2v4.7c0 .5-.3.7-.6.5l-1.8-1c-.3-.2-.6-.7-.6-1.2v-4.7c0-.4.3-.7.6-.5zm0 5.5v-4.7l-1.8-1v4.7z"/><path d="m190.10813 167.45c.3.2.6.7.6 1.2v4.7c0 .5-.3.7-.6.5l-1.8-1c-.3-.2-.6-.7-.6-1.2v-4.7c0-.4.3-.7.6-.5zm0 5.6v-4.7l-1.8-1v4.7z"/><path d="m194.40813 169.95c.3.2.6.7.6 1.2v4.7c0 .5-.3.7-.6.5l-1.8-1c-.3-.2-.6-.7-.6-1.2v-4.7c0-.4.3-.7.6-.5zm0 5.5v-4.7l-1.8-1v4.7z"/><path d="m198.70813 172.35c.3.2.6.7.6 1.2v4.7c0 .5-.3.7-.6.5l-1.8-1c-.3-.2-.6-.7-.6-1.2v-4.7c0-.4.3-.7.6-.5zm0 5.5v-4.7l-1.8-1v4.7z"/><path d="m166.40813 153.95c.3.2.6.7.6 1.2v4.7c0 .5-.3.7-.6.5l-1.8-1c-.3-.2-.6-.7-.6-1.2v-4.7c0-.4.3-.7.6-.5zm0 5.5v-4.7l-1.8-1v4.7z"/><path d="m170.60813 156.35c.3.2.6.7.6 1.2v4.7c0 .5-.3.7-.6.5l-1.8-1c-.3-.2-.6-.7-.6-1.2v-4.7c0-.4.3-.7.6-.5zm0 5.6v-4.7l-1.8-1v4.7z"/><path d="m174.90813 158.85c.3.2.6.7.6 1.2v4.7c0 .5-.3.7-.6.5l-1.8-1c-.3-.2-.6-.7-.6-1.2v-4.7c0-.4.3-.7.6-.5zm0 5.5v-4.7l-1.8-1v4.7z"/><path d="m179.20813 161.25c.3.2.6.7.6 1.2v4.7c0 .5-.3.7-.6.5l-1.8-1c-.3-.2-.6-.7-.6-1.2v-4.7c0-.4.3-.7.6-.5zm0 5.5v-4.7l-1.8-1v4.7z"/></g><path d="m185.50813 184.85-21-12.1v-4.5l21 12.2z" fill="#4129ac"/><path d="m202.90813 194.95-12.5-7.2v-4.5l12.5 7.2z" fill="#4129ac"/><path d="m138.60819 143.55c-3.9-2.3-7.10001-6.4-7.50001-9.3v116.8c-.4 3.5 2.90001 8.2 7.50001 10.9v.1l104.69994 58.9c5.2 3 11.8-.7 11.8-6.8v-94.5c0-7.2-3.8-13.8-10-17.3z" fill="#f36dd4"/><path d="m220.30813 247.75v-64.1l-72.3-40.3c-2.2-1.3-3.3-2.9-3.5-4.6v62.5c-.2 2 .9 3.9 3.5 5.4z" fill="url(#M)"/><path d="m217.70813 264.55v-80.6l-74.8-41.3c-2.70003-1.6-4.10003-3.6-4.30003-5.6v78.6c-.3 2.4 1.2 4.9 4.30003 6.7v.1z" fill="url(#N)"/><path d="m248.60813 202.15-106.5-58.8c-3.89997-2.3-5.89998-5.2-6.29998-8.1v11.9c.3.2.6.4.9.6l31.49998 100.1 90.4 50.7v-79c0-7.3-3.8-13.9-10-17.4z" fill="#fab28f"/><path d="m138.60819 143.55c-3.9-2.3-7.10001-6.4-7.50001-9.3v116.8c-.4 3.5 2.90001 8.2 7.50001 10.9v.1l104.69994 58.9c5.2 3 11.8-.7 11.8-6.8v-94.5c0-7.2-3.8-13.8-10-17.3z" fill="#af3e0d"/><path d="m137.30813 144.85c-3.9-2.3-5.9-5.2-6.3-8.1v116.8c-.4 3.5 1.7 7 6.3 9.7v.1l104.7 58.9c5.2 3 11.8-.7 11.8-6.8v-94.5c0-7.2-3.8-13.8-10-17.3z" fill="url(#O)"/><path d="m114.948 321.85c-1.1 0-2.2-.3-3.2-.9l-103.69996-58.4-1-.6c-2.7-1.6-4.50001-3.5-5.20001-5.6-.1-.4.1-.8.5-.9s.8.1.9.5c.6 1.7 2.1 3.4 4.6 4.8l1 .6 103.69997 58.4c1.9 1.1 4.3.8 5.8-.7.9-.9 1.5-2.1 1.5-3.5v-94.6c0-6.1-3.2-11.7-8.5-14.7l-106.49997-58.8c-1.1-.6-2.1-1.3-3-2.1-.3-.3-.4-.7-.1-1.1.3-.3.7-.4 1.1-.1.8.7 1.70001 1.3 2.70001 1.9l106.49996 58.9c5.7 3.3 9.2 9.4 9.2 16v94.5c0 1.7-.7 3.4-1.9 4.6-1.1 1.1-2.7 1.8-4.4 1.8z" fill="#b086cc" opacity=".09" transform="translate(130.96013)"/><path d="m245.90813 321.35c-.2 0-.4 0-.6 0-.1 0-.2-.1-.2-.3 0-.1.1-.2.3-.2.5 0 .9 0 1.4-.1.1 0 .3.1.3.2s-.1.3-.2.3c-.3 0-.6.1-1 .1zm-1.9-.4c-.1 0-.1 0 0 0-.4-.1-.7-.3-.9-.4l-.5-.3c-.1-.1-.2-.2-.1-.3s.2-.2.3-.1l.5.3c.3.1.5.3.8.4.1.1.2.2.1.3-.1 0-.1.1-.2.1zm4.3-.2c-.1 0-.2-.1-.2-.1-.1-.1 0-.3.1-.3.4-.2.8-.5 1.2-.8.1-.1.3-.1.4 0s.1.3 0 .4c-.4.3-.8.6-1.3.8-.1 0-.1 0-.2 0zm-7-1.2h-.1l-1.3-.7c-.1-.1-.2-.2-.1-.3s.2-.2.3-.1l1.3.7c.1.1.2.2.1.3 0 0-.1.1-.2.1zm9.3-.7h-.1c-.1-.1-.1-.2-.1-.3.3-.4.5-.8.6-1.3 0-.1.2-.2.3-.2s.2.2.2.3c-.2.5-.4 1-.7 1.4-.1.1-.1.1-.2.1zm-11.9-.8h-.1l-1.3-.7c-.1-.1-.2-.2-.1-.3s.2-.2.3-.1l1.3.7c.1.1.2.2.1.3 0 .1-.1.1-.2.1zm-2.6-1.5h-.1l-1.3-.7c-.1-.1-.2-.2-.1-.3s.2-.2.3-.1l1.3.7c.1.1.2.2.1.3 0 .1-.1.1-.2.1zm15.4-.5c-.2 0-.3-.1-.2-.3 0-.1 0-.2 0-.3v-1.2c0-.1.1-.2.2-.2s.2.1.2.2v1.2.3c.1.2 0 .3-.2.3zm-18-.9h-.1l-1.3-.7c-.1-.1-.2-.2-.1-.3s.2-.2.3-.1l1.3.7c.1.1.2.2.1.3-.1 0-.1.1-.2.1zm-2.6-1.5h-.1l-1.3-.7c-.1-.1-.2-.2-.1-.3s.2-.2.3-.1l1.3.7c.1.1.2.2.1.3-.1 0-.2.1-.2.1zm20.6-.6c-.1 0-.2-.1-.2-.2v-1.5c0-.1.1-.2.2-.2s.2.1.2.2v1.5c.1.1 0 .2-.2.2zm-23.3-.9h-.1l-1.3-.7c-.1-.1-.2-.2-.1-.3s.2-.2.3-.1l1.3.7c.1.1.2.2.1.3 0 .1-.1.1-.2.1zm-2.6-1.5h-.1l-1.3-.7c-.1-.1-.2-.2-.1-.3s.2-.2.3-.1l1.3.7c.1.1.2.2.1.3 0 .1-.1.1-.2.1zm25.9-.6c-.1 0-.2-.1-.2-.2v-1.5c0-.1.1-.2.2-.2s.2.1.2.2v1.5c.1.1 0 .2-.2.2zm-28.5-.8h-.1l-1.3-.7c-.1-.1-.2-.2-.1-.3s.2-.2.3-.1l1.3.7c.1.1.2.2.1.3 0 0-.1.1-.2.1zm-2.6-1.5h-.1l-1.3-.7c-.1-.1-.2-.2-.1-.3s.2-.2.3-.1l1.3.7c.1.1.2.2.1.3 0 .1-.1.1-.2.1zm31.1-.7c-.1 0-.2-.1-.2-.2v-1.5c0-.1.1-.2.2-.2s.2.1.2.2v1.5c.1.1 0 .2-.2.2zm-33.7-.8h-.1l-1.3-.7c-.1-.1-.2-.2-.1-.3s.2-.2.3-.1l1.3.7c.1.1.2.2.1.3 0 .1-.1.1-.2.1zm-2.6-1.4h-.1l-1.3-.7c-.1-.1-.2-.2-.1-.3s.2-.2.3-.1l1.3.7c.1.1.2.2.1.3-.1 0-.1.1-.2.1zm36.3-.8c-.1 0-.2-.1-.2-.2v-1.5c0-.1.1-.2.2-.2s.2.1.2.2v1.5c.1.1 0 .2-.2.2zm-38.9-.7h-.1l-1.3-.7c-.1-.1-.2-.2-.1-.3s.2-.2.3-.1l1.3.7c.1.1.2.2.1.3-.1 0-.2.1-.2.1zm-2.7-1.5h-.1l-1.3-.7c-.1-.1-.2-.2-.1-.3s.2-.2.3-.1l1.3.7c.1.1.2.2.1.3 0 .1-.1.1-.2.1zm41.6-.8c-.1 0-.2-.1-.2-.2v-1.5c0-.1.1-.2.2-.2s.2.1.2.2v1.5c.1.1 0 .2-.2.2zm-44.2-.7h-.1l-1.3-.7c-.1-.1-.2-.2-.1-.3s.2-.2.3-.1l1.3.7c.1.1.2.2.1.3 0 .1-.1.1-.2.1zm-2.6-1.4h-.1l-1.3-.7c-.1-.1-.2-.2-.1-.3s.2-.2.3-.1l1.3.7c.1.1.2.2.1.3 0 0-.1.1-.2.1zm46.8-.9c-.1 0-.2-.1-.2-.2v-1.5c0-.1.1-.2.2-.2s.2.1.2.2v1.5c.1.1 0 .2-.2.2zm-49.4-.6h-.1l-1.3-.7c-.1-.1-.2-.2-.1-.3s.2-.2.3-.1l1.3.7c.1.1.2.2.1.3 0 0-.1.1-.2.1zm-2.6-1.5h-.1l-1.3-.7c-.1-.1-.2-.2-.1-.3s.2-.2.3-.1l1.3.7c.1.1.2.2.1.3 0 .1-.1.1-.2.1zm52-.9c-.1 0-.2-.1-.2-.2v-1.5c0-.1.1-.2.2-.2s.2.1.2.2v1.5c.1.1 0 .2-.2.2zm-54.6-.5h-.1l-1.3-.7c-.1-.1-.2-.2-.1-.3s.2-.2.3-.1l1.3.7c.1.1.2.2.1.3-.1 0-.1.1-.2.1zm-2.6-1.5h-.1l-1.3-.7c-.1-.1-.2-.2-.1-.3s.2-.2.3-.1l1.3.7c.1.1.2.2.1.3-.1 0-.2.1-.2.1zm57.2-1c-.1 0-.2-.1-.2-.2v-1.5c0-.1.1-.2.2-.2s.2.1.2.2v1.5c.1.1 0 .2-.2.2zm-59.9-.5h-.1l-1.3-.7c-.1-.1-.2-.2-.1-.3s.2-.2.3-.1l1.3.7c.1.1.2.2.1.3 0 .1-.1.1-.2.1zm-2.6-1.5h-.1l-1.3-.7c-.1-.1-.2-.2-.1-.3s.2-.2.3-.1l1.3.7c.1.1.2.2.1.3 0 .1-.1.1-.2.1zm62.5-1c-.1 0-.2-.1-.2-.2v-1.5c0-.1.1-.2.2-.2s.2.1.2.2v1.5c.1.1 0 .2-.2.2zm-65.1-.4h-.1l-1.3-.7c-.1-.1-.2-.2-.1-.3s.2-.2.3-.1l1.3.7c.1.1.2.2.1.3 0 0-.1.1-.2.1zm-2.6-1.5h-.1l-1.3-.7c-.1-.1-.2-.2-.1-.3s.2-.2.3-.1l1.3.7c.1.1.2.2.1.3 0 0-.1.1-.2.1zm67.7-1.1c-.1 0-.2-.1-.2-.2v-1.5c0-.1.1-.2.2-.2s.2.1.2.2v1.5c.1.1 0 .2-.2.2zm-70.3-.4h-.1l-1.3-.7c-.1-.1-.2-.2-.1-.3s.2-.2.3-.1l1.3.7c.1.1.2.2.1.3 0 .1-.1.1-.2.1zm-2.6-1.5h-.1l-1.3-.7c-.1-.1-.2-.2-.1-.3s.2-.2.3-.1l1.3.7c.1.1.2.2.1.3s-.1.1-.2.1zm72.9-1.1c-.1 0-.2-.1-.2-.2v-1.5c0-.1.1-.2.2-.2s.2.1.2.2v1.5c.1.1 0 .2-.2.2zm-75.5-.3h-.1l-1.3-.7c-.1-.1-.2-.2-.1-.3s.2-.2.3-.1l1.3.7c.1.1.2.2.1.3-.1 0-.2.1-.2.1zm-2.7-1.5h-.1l-1.3-.7c-.1-.1-.2-.2-.1-.3s.2-.2.3-.1l1.3.7c.1.1.2.2.1.3 0 .1-.1.1-.2.1zm78.2-1.2c-.1 0-.2-.1-.2-.2v-1.5c0-.1.1-.2.2-.2s.2.1.2.2v1.5c.1.1 0 .2-.2.2zm-80.8-.3h-.1l-1.3-.7c-.1-.1-.2-.2-.1-.3s.2-.2.3-.1l1.3.7c.1.1.2.2.1.3 0 .1-.1.1-.2.1zm-2.6-1.4h-.1l-1.3-.7c-.1-.1-.2-.2-.1-.3s.2-.2.3-.1l1.3.7c.1.1.2.2.1.3 0 0-.1.1-.2.1zm83.4-1.3c-.1 0-.2-.1-.2-.2v-1.5c0-.1.1-.2.2-.2s.2.1.2.2v1.5c.1.1 0 .2-.2.2zm-86-.2h-.1l-1.3-.7c-.1-.1-.2-.2-.1-.3s.2-.2.3-.1l1.3.7c.1.1.2.2.1.3 0 0-.1.1-.2.1zm-2.6-1.5h-.1l-1.3-.7c-.1-.1-.2-.2-.1-.3s.2-.2.3-.1l1.3.7c.1.1.2.2.1.3 0 .1-.1.1-.2.1zm88.6-1.3c-.1 0-.2-.1-.2-.2v-1.5c0-.1.1-.2.2-.2s.2.1.2.2v1.5c.1.1 0 .2-.2.2zm-91.2-.2h-.1l-1.3-.7c-.1-.1-.2-.2-.1-.3s.2-.2.3-.1l1.3.7c.1.1.2.2.1.3 0 .1-.1.1-.2.1zm-2.6-1.4h-.1l-1.3-.7c-.1-.1-.2-.2-.1-.3s.2-.2.3-.1l1.3.7c.1.1.2.2.1.3-.1 0-.1.1-.2.1zm93.8-1.4c-.1 0-.2-.1-.2-.2v-1.5c0-.1.1-.2.2-.2s.2.1.2.2v1.5c.1.1 0 .2-.2.2zm-96.5-.1h-.1l-1.3-.7c-.1-.1-.2-.2-.1-.3s.2-.2.3-.1l1.3.7c.1.1.2.2.1.3 0 .1-.1.1-.2.1zm-2.6-1.5h-.1l-1.3-.7c-.1-.1-.2-.2-.1-.3s.2-.2.3-.1l1.3.7c.1.1.2.2.1.3 0 .1-.1.1-.2.1zm99.1-1.4c-.1 0-.2-.1-.2-.2v-1.5c0-.1.1-.2.2-.2s.2.1.2.2v1.5c.1.1 0 .2-.2.2zm-101.7 0h-.1l-1.3-.7c-.1-.1-.2-.2-.1-.3s.2-.2.3-.1l1.3.7c.1.1.2.2.1.3 0 0-.1.1-.2.1zm-2.6-1.5h-.1l-1.3-.7c-.1-.1-.2-.2-.1-.3s.2-.2.3-.1l1.3.7c.1.1.2.2.1.3 0 0-.1.1-.2.1zm-2.6-1.5h-.1l-1.3-.7c-.1-.1-.2-.2-.1-.3s.2-.2.3-.1l1.3.7c.1.1.2.2.1.3 0 .1-.1.1-.2.1zm106.9 0c-.1 0-.2-.1-.2-.2v-1.5c0-.1.1-.2.2-.2s.2.1.2.2v1.5c.1.1 0 .2-.2.2zm-109.5-1.5h-.1l-1.30003-.7c-.1-.1-.19999-.2-.1-.3.1-.1.19999-.2.29999-.1l1.30003.7c.1.1.2.2.1.3 0 .1-.1.1-.2.1zm-2.60002-1.4h-.10001l-.89999-.6c-.1-.1-.2-.1-.4-.2-.1-.1-.2-.2-.1-.3s.19999-.2.29999-.1.20001.1.4.2l.90001.6c.1.1.1.2.1.3-.1 0-.19999.1-.19999.1zm112.10002-.1c-.1 0-.2-.1-.2-.2v-1.5c0-.1.1-.2.2-.2s.2.1.2.2v1.5c.1.1 0 .2-.2.2zm-114.60002-1.6c-.1 0-.10001 0-.20001 0-.4-.3-.79999-.7-1.19999-1-.1-.1-.1-.3 0-.4s.3-.1.4 0c.3.3.7.6 1.1.9.1.1.1.2 0 .4 0 .1-.1.1-.1.1zm114.60002-1.4c-.1 0-.2-.1-.2-.2v-1.5c0-.1.1-.2.2-.2s.2.1.2.2v1.5c.1.1 0 .2-.2.2zm-116.80003-.6c-.1 0-.1 0-.19999-.1-.3-.4-.60001-.9-.80001-1.3-.1-.1 0-.3.1-.3.1-.1.30001 0 .30001.1.2.4.5.8.8 1.2.1.1.1.3 0 .4-.1-.1-.10001 0-.20001 0zm116.80003-2.4c-.1 0-.2-.1-.2-.2v-1.5c0-.1.1-.2.2-.2s.2.1.2.2v1.5c.1.1 0 .2-.2.2zm0-3c-.1 0-.2-.1-.2-.2v-1.5c0-.1.1-.2.2-.2s.2.1.2.2v1.5c.1.1 0 .2-.2.2zm0-3c-.1 0-.2-.1-.2-.2v-1.5c0-.1.1-.2.2-.2s.2.1.2.2v1.5c.1.1 0 .2-.2.2zm0-3c-.1 0-.2-.1-.2-.2v-1.5c0-.1.1-.2.2-.2s.2.1.2.2v1.5c.1.1 0 .2-.2.2zm0-3c-.1 0-.2-.1-.2-.2v-1.5c0-.1.1-.2.2-.2s.2.1.2.2v1.5c.1.1 0 .2-.2.2zm0-3c-.1 0-.2-.1-.2-.2v-1.5c0-.1.1-.2.2-.2s.2.1.2.2v1.5c.1.1 0 .2-.2.2zm0-3c-.1 0-.2-.1-.2-.2v-1.5c0-.1.1-.2.2-.2s.2.1.2.2v1.5c.1.1 0 .2-.2.2zm0-3c-.1 0-.2-.1-.2-.2v-1.5c0-.1.1-.2.2-.2s.2.1.2.2v1.5c.1.1 0 .2-.2.2zm0-3c-.1 0-.2-.1-.2-.2v-1.5c0-.1.1-.2.2-.2s.2.1.2.2v1.5c.1.1 0 .2-.2.2zm0-3c-.1 0-.2-.1-.2-.2v-1.5c0-.1.1-.2.2-.2s.2.1.2.2v1.5c.1.1 0 .2-.2.2zm0-3c-.1 0-.2-.1-.2-.2v-1.5c0-.1.1-.2.2-.2s.2.1.2.2v1.5c.1.1 0 .2-.2.2zm0-3c-.1 0-.2-.1-.2-.2v-1.5c0-.1.1-.2.2-.2s.2.1.2.2v1.5c.1.1 0 .2-.2.2zm0-3c-.1 0-.2-.1-.2-.2 0-.5-.1-1-.2-1.5 0-.1.1-.3.2-.3s.3.1.3.2c.1.5.1 1 .2 1.5 0 .2-.1.3-.3.3zm-.4-3c-.1 0-.2-.1-.2-.2-.1-.5-.2-.9-.4-1.4 0-.1 0-.3.2-.3.1 0 .3 0 .3.2.2.5.3 1 .4 1.5-.1.1-.2.2-.3.2zm-1-2.8c-.1 0-.2-.1-.2-.2-.2-.4-.4-.9-.6-1.3-.1-.1 0-.3.1-.3.1-.1.3 0 .3.1.2.4.5.9.7 1.4 0 .1-.1.2-.3.3zm-1.4-2.6c-.1 0-.2 0-.2-.1-.3-.4-.5-.8-.9-1.2-.1-.1-.1-.3 0-.4s.3-.1.4 0c.3.4.6.8.9 1.2.1.1 0 .3-.1.3 0 .1 0 .2-.1.2zm-1.8-2.4c-.1 0-.1 0-.2-.1-.3-.4-.7-.7-1-1-.1-.1-.1-.3 0-.4s.3-.1.4 0c.4.3.7.7 1.1 1.1.1.1.1.3 0 .4-.2 0-.3 0-.3 0zm-2.2-2c-.1 0-.1 0-.2-.1-.4-.3-.8-.6-1.2-.9-.1-.1-.1-.2-.1-.3s.2-.1.3-.1c.4.3.8.6 1.2.9.1.1.1.2 0 .4.1 0 0 .1 0 .1zm-2.6-1.7h-.1l-1.3-.7c-.1-.1-.2-.2-.1-.3s.2-.2.3-.1l1.3.7c.1.1.2.2.1.3 0 .1-.1.1-.2.1zm-2.6-1.4h-.1l-1.3-.7c-.1-.1-.2-.2-.1-.3s.2-.2.3-.1l1.3.7c.1.1.2.2.1.3 0 0-.1.1-.2.1zm-2.6-1.5h-.1l-1.3-.7c-.1-.1-.2-.2-.1-.3s.2-.2.3-.1l1.3.7c.1.1.2.2.1.3 0 .1-.1.1-.2.1zm-2.6-1.4h-.1l-1.3-.7c-.1-.1-.2-.2-.1-.3s.2-.2.3-.1l1.3.7c.1.1.2.2.1.3-.1 0-.1.1-.2.1zm-2.7-1.5h-.1l-1.3-.7c-.1-.1-.2-.2-.1-.3s.2-.2.3-.1l1.3.7c.1.1.2.2.1.3 0 .1-.1.1-.2.1zm-2.6-1.4h-.1l-1.3-.7c-.1-.1-.2-.2-.1-.3s.2-.2.3-.1l1.3.7c.1.1.2.2.1.3 0 0-.1.1-.2.1zm-2.6-1.5h-.1l-1.3-.7c-.1-.1-.2-.2-.1-.3s.2-.2.3-.1l1.3.7c.1.1.2.2.1.3 0 .1-.1.1-.2.1zm-2.6-1.4h-.1l-1.3-.7c-.1-.1-.2-.2-.1-.3s.2-.2.3-.1l1.3.7c.1.1.2.2.1.3-.1 0-.2.1-.2.1zm-2.7-1.5h-.1l-1.3-.7c-.1-.1-.2-.2-.1-.3s.2-.2.3-.1l1.3.7c.1.1.2.2.1.3 0 .1-.1.1-.2.1zm-2.6-1.4h-.1l-1.3-.7c-.1-.1-.2-.2-.1-.3s.2-.2.3-.1l1.3.7c.1.1.2.2.1.3 0 0-.1.1-.2.1zm-2.6-1.5h-.1l-1.3-.7c-.1-.1-.2-.2-.1-.3s.2-.2.3-.1l1.3.7c.1.1.2.2.1.3 0 .1-.1.1-.2.1zm-2.6-1.4h-.1l-1.3-.7c-.1-.1-.2-.2-.1-.3s.2-.2.3-.1l1.3.7c.1.1.2.2.1.3-.1 0-.2.1-.2.1zm-2.7-1.5h-.1l-1.3-.7c-.1-.1-.2-.2-.1-.3s.2-.2.3-.1l1.3.7c.1.1.2.2.1.3 0 .1-.1.1-.2.1zm-2.6-1.4h-.1l-1.3-.7c-.1-.1-.2-.2-.1-.3s.2-.2.3-.1l1.3.7c.1.1.2.2.1.3 0 0-.1.1-.2.1zm-2.6-1.5h-.1l-1.3-.7c-.1-.1-.2-.2-.1-.3s.2-.2.3-.1l1.3.7c.1.1.2.2.1.3s-.1.1-.2.1zm-2.6-1.4h-.1l-1.3-.7c-.1-.1-.2-.2-.1-.3s.2-.2.3-.1l1.3.7c.1.1.2.2.1.3-.1 0-.2.1-.2.1zm-2.7-1.5h-.1l-1.3-.7c-.1-.1-.2-.2-.1-.3s.2-.2.3-.1l1.3.7c.1.1.2.2.1.3 0 .1-.1.1-.2.1zm-2.6-1.4h-.1l-1.3-.7c-.1-.1-.2-.2-.1-.3s.2-.2.3-.1l1.3.7c.1.1.2.2.1.3 0 0-.1.1-.2.1zm-2.6-1.5h-.1l-1.3-.7c-.1-.1-.2-.2-.1-.3s.2-.2.3-.1l1.3.7c.1.1.2.2.1.3s-.1.1-.2.1zm-2.7-1.4h-.1l-1.3-.7c-.1-.1-.2-.2-.1-.3s.2-.2.3-.1l1.3.7c.1.1.2.2.1.3 0 0-.1.1-.2.1zm-2.6-1.5h-.1l-1.3-.7c-.1-.1-.2-.2-.1-.3s.2-.2.3-.1l1.3.7c.1.1.2.2.1.3 0 .1-.1.1-.2.1zm-2.6-1.4h-.1l-1.3-.7c-.1-.1-.2-.2-.1-.3s.2-.2.3-.1l1.3.7c.1.1.2.2.1.3 0 0-.1.1-.2.1zm-2.6-1.5h-.1l-1.3-.7c-.1-.1-.2-.2-.1-.3s.2-.2.3-.1l1.3.7c.1.1.2.2.1.3s-.1.1-.2.1zm-2.7-1.4h-.1l-1.3-.7c-.1-.1-.2-.2-.1-.3s.2-.2.3-.1l1.3.7c.1.1.2.2.1.3 0 0-.1.1-.2.1zm-2.6-1.5h-.1l-1.3-.7c-.1-.1-.2-.2-.1-.3s.2-.2.3-.1l1.3.7c.1.1.2.2.1.3 0 .1-.1.1-.2.1zm-2.6-1.4h-.1l-1.3-.7c-.1-.1-.2-.2-.1-.3s.2-.2.3-.1l1.3.7c.1.1.2.2.1.3 0 0-.1.1-.2.1zm-2.6-1.5h-.1l-1.3-.7c-.1-.1-.2-.2-.1-.3s.2-.2.3-.1l1.3.7c.1.1.2.2.1.3s-.2.1-.2.1zm-2.7-1.4h-.1l-1.3-.7c-.1-.1-.2-.2-.1-.3s.2-.2.3-.1l1.3.7c.1.1.2.2.1.3 0 0-.1.1-.2.1zm-2.6-1.5h-.1l-1.3-.7c-.1-.1-.2-.2-.1-.3s.2-.2.3-.1l1.3.7c.1.1.2.2.1.3 0 .1-.1.1-.2.1zm-2.6-1.4h-.1l-1.3-.7c-.1-.1-.2-.2-.1-.3s.2-.2.3-.1l1.3.7c.1.1.2.2.1.3 0 0-.1.1-.2.1zm-2.6-1.5h-.1l-1.3-.7c-.1-.1-.2-.2-.1-.3s.2-.2.3-.1l1.3.7c.1.1.2.2.1.3s-.2.1-.2.1zm-2.7-1.4h-.1l-1.3-.7c-.1-.1-.2-.2-.1-.3s.2-.2.3-.1l1.3.7c.1.1.2.2.1.3 0 0-.1.1-.2.1zm-2.6-1.5h-.1l-1.3-.7c-.1-.1-.2-.2-.1-.3s.2-.2.3-.1l1.3.7c.1.1.2.2.1.3 0 .1-.1.1-.2.1zm-2.6-1.4h-.1l-1.3-.7c-.1-.1-.2-.2-.1-.3s.2-.2.3-.1l1.3.7c.1.1.2.2.1.3-.1 0-.1.1-.2.1zm-2.7-1.5h-.1l-1.3-.7c-.1-.1-.2-.2-.1-.3s.2-.2.3-.1l1.3.7c.1.1.2.2.1.3 0 .1-.1.1-.2.1zm-2.6-1.4h-.1l-1.3-.7c-.1-.1-.2-.2-.1-.3s.2-.2.3-.1l1.3.7c.1.1.2.2.1.3 0 0-.1.1-.2.1zm-2.6-1.5h-.1l-1.3-.7c-.1-.1-.2-.2-.1-.3s.2-.2.3-.1l1.3.7c.1.1.2.2.1.3 0 .1-.1.1-.2.1zm-2.6-1.4h-.1l-1.3-.7c-.1-.1-.2-.2-.1-.3s.2-.2.3-.1l1.3.7c.1.1.2.2.1.3-.1 0-.1.1-.2.1zm-2.7-1.5h-.1l-1.30002-.7c-.1-.1-.20001-.2-.10001-.3s.20003-.2.30003-.1l1.3.7c.1.1.2.2.1.3 0 .1-.1.1-.2.1zm-2.60003-1.4h-.1l-1.3-.7c-.1-.1-.2-.2-.1-.3s.20001-.2.30001-.1l1.29999.7c.1.1.20001.2.10001.3 0 0-.10001.1-.20001.1zm-2.59999-1.5h-.1l-.9-.5c-.1-.1-.30001-.2-.40001-.2-.1-.1-.19999-.2-.1-.3.1-.1.2-.2.3-.1s.29999.2.39999.2l.9.5c.1.1.2.2.1.3 0 .1-.1.1-.19999.1zm-2.6-1.5c-.1 0-.1 0-.1 0-.4-.3-.80001-.6-1.20001-.9-.1-.1-.1-.2 0-.4.1-.1.20001-.1.40001 0 .4.3.79999.6 1.19999.9.1.1.10001.2.10001.3-.2 0-.3.1-.4.1z" fill="#fff"/><path d="m219.40813 251.55c0-7.6 8.2-12.5 14.9-8.7l16.2 9c2.5 1.4 5.6 1.5 8.1.2l28.1-14.1v23.2c0 1.9-1 3.6-2.7 4.5l-25.7 14c-2.6 1.4-5.6 1.4-8.2.1l-20.1-10.6c-6.5-3.5-10.6-10.2-10.6-17.6z" fill="url(#P)"/><path d="m123.148 279.15c-1.2 0-2.3-.3-3.3-.8l-20.1-10.1c-6-3-9.8-8.9-9.8-15.4 0-5 4.4-8.1 8.5-8.1 1.4 0 2.8.3 4.1 1l16.2 8.6c2.9 1.5 6.6 1.6 9.6.2l26.4-12.6c.4-.2.8 0 1 .4s0 .8-.4 1l-26.4 12.6c-3.4 1.6-7.6 1.5-11-.2l-16.2-8.6c-1.1-.6-2.2-.9-3.4-.9-3.4 0-7 2.5-7 6.6 0 5.9 3.4 11.3 8.9 14.1l20.1 10.1c1.7.8 3.7.8 5.4 0l28.2-14.6c.4-.2.8 0 1 .3.2.4 0 .8-.3 1l-28.2 14.6c-.9.5-2.1.8-3.3.8z" fill="#b086cc" opacity=".09" transform="translate(130.96013)"/><path d="m254.80813 278.65c-.1 0-.2-.1-.2-.2s.1-.3.2-.3c.5 0 1-.1 1.4-.3.1 0 .3 0 .3.2 0 .1 0 .3-.2.3-.5.1-1 .2-1.5.3zm-1.5-.1c-.1 0 0 0 0 0-.5-.1-1.1-.2-1.5-.4-.1 0-.2-.2-.1-.3 0-.1.2-.2.3-.1.5.2.9.3 1.4.3.1 0 .2.1.2.3-.1.1-.2.2-.3.2zm4.3-.8c-.1 0-.2 0-.2-.1-.1-.1 0-.3.1-.3l1.3-.7c.1-.1.3 0 .3.1.1.1 0 .3-.1.3l-1.3.7c0-.1-.1 0-.1 0zm-7.1-.2h-.1l-1.3-.7c-.1-.1-.2-.2-.1-.3s.2-.2.3-.1l1.3.7c.1.1.2.2.1.3s-.2.1-.2.1zm9.8-1.2c-.1 0-.2 0-.2-.1-.1-.1 0-.3.1-.3l1.3-.7c.1-.1.3 0 .3.1.1.1 0 .3-.1.3l-1.3.7zm-12.5-.1h-.1l-1.3-.7c-.1-.1-.2-.2-.1-.3s.2-.2.3-.1l1.3.7c.1.1.2.2.1.3-.1 0-.1.1-.2.1zm15.1-1.3c-.1 0-.2 0-.2-.1-.1-.1 0-.3.1-.3l1.3-.7c.1-.1.3 0 .3.1.1.1 0 .3-.1.3l-1.3.7zm-17.8 0h-.1l-1.3-.7c-.1-.1-.2-.2-.1-.3s.2-.2.3-.1l1.3.7c.1.1.2.2.1.3 0 0-.1.1-.2.1zm-2.7-1.4h-.1l-1.3-.7c-.1-.1-.2-.2-.1-.3s.2-.2.3-.1l1.3.7c.1.1.2.2.1.3 0 .1-.1.1-.2.1zm23.2 0c-.1 0-.2 0-.2-.1-.1-.1 0-.3.1-.3l1.3-.7c.1-.1.3 0 .3.1.1.1 0 .3-.1.3l-1.3.7zm-25.9-1.3h-.1l-1.3-.7c-.1-.1-.2-.2-.1-.3s.2-.2.3-.1l1.3.7c.1.1.2.2.1.3 0 0-.1.1-.2.1zm28.5-.1c-.1 0-.2 0-.2-.1-.1-.1 0-.3.1-.3l1.3-.7c.1-.1.3 0 .3.1.1.1 0 .3-.1.3l-1.3.7zm-31.2-1.3h-.1l-1.3-.7c-.1-.1-.2-.2-.1-.3s.2-.2.3-.1l1.3.7c.1.1.2.2.1.3 0 .1-.1.1-.2.1zm33.9-.1c-.1 0-.2 0-.2-.1-.1-.1 0-.3.1-.3l1.3-.7c.1-.1.3 0 .3.1.1.1 0 .3-.1.3l-1.3.7zm-36.5-1.2h-.1l-1.3-.7c-.1-.1-.2-.2-.1-.3s.2-.2.3-.1l1.3.7c.1.1.2.2.1.3-.1 0-.2.1-.2.1zm39.2-.1c-.1 0-.2 0-.2-.1-.1-.1 0-.3.1-.3l1.3-.7c.1-.1.3 0 .3.1.1.1 0 .3-.1.3l-1.3.7zm-41.9-1.3h-.1l-.6-.3c-.2-.1-.5-.2-.7-.4-.1-.1-.2-.2-.1-.3s.2-.2.3-.1c.2.1.5.2.7.4l.6.3c.1.1.2.2.1.3s-.1.1-.2.1zm44.5-.1c-.1 0-.2 0-.2-.1-.1-.1 0-.3.1-.3l1.3-.7c.1-.1.3 0 .3.1.1.1 0 .3-.1.3l-1.3.7zm-47.1-1.3h-.1c-.4-.3-.8-.6-1.2-.9-.1-.1-.1-.2 0-.4.1-.1.2-.1.4 0l1.2.9c.1.1.1.2.1.3-.3 0-.4.1-.4.1zm49.8-.1c-.1 0-.2 0-.2-.1-.1-.1 0-.3.1-.3l1.3-.7c.1-.1.3 0 .3.1.1.1 0 .3-.1.3l-1.3.7zm2.7-1.4c-.1 0-.2 0-.2-.1-.1-.1 0-.3.1-.3l1.3-.7c.1-.1.3 0 .3.1.1.1 0 .3-.1.3l-1.3.7zm-54.9-.4c-.1 0-.1 0-.2-.1-.4-.4-.7-.7-1.1-1.1-.1-.1-.1-.3 0-.4s.3-.1.4 0c.3.4.7.7 1 1.1.1.1.1.3 0 .4.1.1 0 .1-.1.1zm-1.9-2.3c-.1 0-.2 0-.2-.1-.3-.4-.6-.8-.8-1.3-.1-.1 0-.3.1-.3.1-.1.3 0 .3.1.2.4.5.8.8 1.2.1.1.1.3-.1.3 0 .1-.1.1-.1.1zm-1.6-2.5c-.1 0-.2-.1-.2-.1-.2-.5-.4-.9-.6-1.4 0-.1 0-.3.1-.3s.3 0 .3.1c.2.5.4.9.6 1.4.1.1 0 .3-.1.3zm-1-2.8c-.1 0-.2-.1-.2-.2-.1-.5-.2-1-.3-1.5 0-.1.1-.3.2-.3s.3.1.3.2c.1.5.2 1 .3 1.4 0 .2-.1.3-.3.4zm32.2-.6c-.5 0-1-.1-1.5-.1-.1 0-.2-.1-.2-.3 0-.1.1-.2.3-.2.5.1 1 .1 1.5.1.1 0 .2.1.2.3 0 .1-.1.2-.3.2zm1.5-.1c-.1 0-.2-.1-.2-.2s.1-.3.2-.3c.5-.1 1-.1 1.4-.2.1 0 .3.1.3.2s0 .3-.2.3c-.4.1-1 .2-1.5.2zm-4.4-.4c-.1 0-.1 0 0 0-.6-.2-1-.3-1.5-.5-.1-.1-.2-.2-.1-.3s.2-.2.3-.1c.4.2.9.4 1.4.5.1 0 .2.2.2.3-.1.1-.2.1-.3.1zm7.3-.3c-.1 0-.2-.1-.2-.2s0-.3.1-.3c.3-.1.5-.2.8-.3l.6-.3c.1-.1.3 0 .3.1.1.1 0 .3-.1.3l-.6.3c-.2.2-.5.3-.9.4.1 0 .1 0 0 0zm-10.1-.9h-.1l-1.3-.7c-.1-.1-.2-.2-.1-.3s.2-.2.3-.1l1.3.7c.1.1.2.2.1.3 0 .1-.1.1-.2.1zm12.8-.3c-.1 0-.2-.1-.2-.1-.1-.1 0-.3.1-.3l1.4-.6c.1-.1.3 0 .3.1.1.1 0 .3-.1.3l-1.4.6zm-39.8-.4c-.1 0-.2-.1-.2-.2 0-.4 0-.8 0-1.1 0-.1 0-.3 0-.4s.1-.2.3-.2c.1 0 .2.1.2.3v.4 1.1s-.1.1-.3.1zm24.4-.7h-.1l-1.3-.7c-.1-.1-.2-.2-.1-.3s.2-.2.3-.1l1.3.7c.1.1.2.2.1.3s-.1.1-.2.1zm18.2-.2c-.1 0-.2-.1-.2-.1-.1-.1 0-.3.1-.3l1.4-.6c.1-.1.3 0 .3.1.1.1 0 .3-.1.3l-1.4.6zm-20.9-1.2h-.1l-1.3-.7c-.1-.1-.2-.2-.1-.3s.2-.2.3-.1l1.3.7c.1.1.2.2.1.3 0 .1-.1.1-.2.1zm23.6-.1c-.1 0-.2-.1-.2-.1-.1-.1 0-.3.1-.3l1.4-.6c.1-.1.3 0 .3.1.1.1 0 .3-.1.3l-1.4.6zm-45.1-.8c-.2 0-.3-.2-.2-.3.1-.5.3-1 .6-1.4.1-.1.2-.2.3-.1s.2.2.1.3c-.2.4-.4.9-.5 1.3-.1.2-.2.2-.3.2zm18.9-.5h-.1l-1.3-.7c-.1-.1-.2-.2-.1-.3s.2-.2.3-.1l1.3.7c.1.1.2.2.1.3s-.1.1-.2.1zm28.9 0c-.1 0-.2-.1-.2-.1-.1-.1 0-.3.1-.3l1.4-.6c.1-.1.3 0 .3.1.1.1 0 .3-.1.3l-1.4.6zm2.7-1.3c-.1 0-.2-.1-.2-.1-.1-.1 0-.3.1-.3l1.4-.6c.1-.1.3 0 .3.1.1.1 0 .3-.1.3l-1.4.6zm-34.3-.1h-.1l-1.3-.7c-.1-.1-.2-.2-.1-.3s.2-.2.3-.1l1.3.7c.1.1.2.2.1.3 0 .1-.1.1-.2.1zm-14.8-.7c-.1 0-.1 0-.2-.1s-.1-.2 0-.4c.3-.4.7-.8 1.1-1.1.1-.1.3-.1.4 0s.1.3 0 .4c-.4.3-.7.6-1 1-.2.2-.3.2-.3.2zm51.8-.5c-.1 0-.2-.1-.2-.1-.1-.1 0-.3.1-.3l1.4-.6c.1-.1.3 0 .3.1.1.1 0 .3-.1.3l-1.4.6zm-39.6-.2h-.1l-1.3-.7c-.1-.1-.2-.2-.1-.3s.2-.2.3-.1l1.3.7c.1.1.2.2.1.3s-.1.1-.2.1zm42.3-1.1c-.1 0-.2-.1-.2-.1-.1-.1 0-.3.1-.3l1.4-.6c.1-.1.3 0 .3.1.1.1 0 .3-.1.3l-1.4.6zm-52.2-.1c-.1 0-.2 0-.2-.1-.1-.1 0-.3.1-.3.5-.2.9-.4 1.4-.6.1 0 .3 0 .3.2 0 .1 0 .3-.2.3-.5.1-.9.3-1.3.6 0-.1-.1-.1-.1-.1zm7.2-.2h-.1c-.4-.2-.9-.4-1.4-.5-.1 0-.2-.2-.2-.3s.2-.2.3-.2c.5.1 1 .3 1.4.5.1.1.2.2.1.3.1.2 0 .2-.1.2zm-4.4-.7c-.1 0-.2-.1-.2-.2s.1-.3.2-.3c.3 0 .7-.1 1-.1h.6c.1 0 .2.1.2.3 0 .1-.1.2-.3.2s-.4 0-.5 0c-.3 0-.6.1-1 .1zm52.1-.3c-.1 0-.2-.1-.2-.1-.1-.1 0-.3.1-.3l1.4-.6c.1-.1.3 0 .3.1.1.1 0 .3-.1.3l-1.4.6zm2.7-1.3c-.1 0-.2-.1-.2-.1-.1-.1 0-.3.1-.3l1.2-.6c.1-.1.3 0 .3.1.1.1 0 .3-.1.3l-1.2.6z" fill="#fff"/><path d="m219.50813 252.85c0-7.6 8.2-12.5 14.9-8.7l16.2 9c2.5 1.4 5.6 1.5 8.1.2l27.9-14v-1.4l-28.1 14.1c-2.6 1.3-5.6 1.2-8.1-.2l-16.2-9c-6.7-3.7-14.9 1.1-14.9 8.7 0 .9.1 1.7.2 2.6 0-.4 0-.9 0-1.3z" fill="#d84b0e"/><path d="m238.00813 259.55c0 1.9-.7 3.3-1.7 3.9 0 0-1.4.9-1.4 1-1.1.6-.4-.8-2.1-1.8-3.4-2-6.2-6.7-6.2-10.7 0-1.9-1.8-2-.7-2.6l1.6-1c1.1-.6 2.6-.5 4.3.5 3.4 2 6.2 6.8 6.2 10.7z" fill="#9d9d9d"/><path d="m236.40813 260.55c0 3.9-2.8 5.5-6.2 3.5s-6.2-6.7-6.2-10.7c0-3.9 2.8-5.5 6.2-3.5s6.2 6.8 6.2 10.7z" fill="url(#Q)"/><path d="m230.60803 249.65c-1.8-1-3.4-1.1-4.5-.3 1-.3 2.3001 0 3.6001.7 3.4 2 6.2 6.7 6.2 10.7 0 1.9-.6 3.2-1.7 3.9 1.6-.4 2.6-1.9 2.6-4.3 0-4-2.8-8.7-6.2001-10.7z" fill="url(#R)"/><path clip-rule="evenodd" d="m205.10813 245.397c0-10.667-7.4519-23.795-16.7412-29.128-9.2894-5.436-16.8433-1.128-16.8433 9.641 0 2.051.3062 4.308.8166 6.564l5.104 2.974v-16.307l10.8206 18.974 10.9226-6.256v16.307l5.0019 2.872c.6125-1.641.9188-3.487.9188-5.641zm-9.253 5.304v-10.385l-4.9191 2.597-2.6735 1.453-2.5665-4.361-4.9191-8.411v10.384l-1.9248-1.038-1.9249-1.039-3.6358-1.973c2.9942 7.373 8.6619 14.33 14.9711 17.861 6.4163 3.53 11.977 2.907 15.0781-1.039l-3.6358-1.973-3.422-1.869z" fill="#ff9447" fill-rule="evenodd"/><path d="m47.2 283.65255-47.20000122-27.3 1.70000002-1.8c5.3-5.6 11.7000002-10.1 18.8000002-13.2 9.8-4.3 21.400001-8.9 22.500001-9.6l33.099996-19 47.200004 27.3-33.900004 19.5c-.7.4-12.2 5.1-22.099996 9.4-7.7 3.4-14.5 8.4-20.1 14.7z" fill="url(#S)"/><g fill="#4d4d4d" opacity=".8" transform="translate(-.000001 204.55235)"><path d="m57.9 49.6002-6.5 3.5 6.3 3.6 6.5-3.5zm-.1 6.1-4.5-2.6 4.6-2.5 4.5 2.6zm-5.3-6.1.9.5.9-.5-.9-.5zm8.1 3.6-2.7-1.6-2.8 1.5 2.7 1.6zm-14.5-4.2-.9.5 1.8 1 .9-.5-.9-.5 1-.5 4.5 2.6.9-.5-2.7-1.6.9-.5-.9-.5-.9.5-.9-.5.9-.5.9.5.9-.5.9.5.9-.5 1.8 1-.9.5.9.5 1.9-1-4.5-2.6-.9.5-.9-.5.9-.5-.9-.5-.9.5-.9-.5-1 .6.9.5-.9.5-.9-.5-.9.5 1.8 1zm-.8-4.6-2.7-1.6-2.8 1.5 2.7 1.6zm3.7 0-6.3-3.6-6.5 3.5 6.3 3.6zm-6.5 2.5-4.5-2.6 4.6-2.5 4.5 2.6zm3.7 1.1-.9-.5-1.9 1 .9.5zm2.6 2.5-.9.5.9.5.9-.5zm.8 2.6 1.9-1-.9-.5-.9.5-.9-.5-.9.5zm0 2 .9.5 1.8-1-.9-.5-.9-.5-.9.5.9.5zm6.3 1.6-.9-.5-1.8 1 .9.5zm-17.1-7.8-.9.5.9.5.9-.5zm14.4 8.3-.9-.5 1.8-1-.9-.5-2.8 1.5 1.8 1zm-2.7-.5-.9-.5-.9.5.9.5zm1.7 2 .9.5.9-.5-.9-.5zm-16.1-10.3.9.5.9-.5-.9-.5.9-.5-1.8-1 .9-.5-.9-.5-.9.5-.9-.5-.9.5.9.5-.9.5-.9-.5-2.8 1.5 1.8 1 .9-.5-.9-.5.9-.5.9.5.9-.5.9.5-1.9 1 1.8 1-.9.5.9.5.9-.5 1.8 1 .9-.5-3.6-2.1zm14.3 10.3.9-.5-1.8-1-.9.5zm0 1 .9-.5-.9-.5-.9.5zm-20.7-10.9-.9-.5-.9.5.9.5zm3.6 2.1.9-.5-.9-.5-1.8 1 1.8 1 .9-.5.9.5.9-.5-.9-.5-.9.5zm16.1 9.3-.9-.5.9-.5-1.8-1-.9.5-.9-.5.9-.5.9.5.9-.5-.9-.5.9-.5-.9-.5.9-.5-2.7-1.6.9-.5 1.8 1 .9-.5-2.7-1.6-1.9 1-.9-.5.9-.5-.9-.5-1.9 1 .9.5-.9.5.9.5.9-.5.9.5-.9.5 2.7 1.6-1.8 1-.9-.5-.9.5-.9.5-.9.5.9.5.9-.5.9-.5.9-.5.9.5-3.7 2-2.7-1.6 3.7-2-.9-.5.9-.5-.9-.5-.9.5-.9-.5.9-.5-.9-.5-.9.5-.9-.5.9-.5-.9-.5 1.9-1 .9.5-.9.5.9.5.9-.5-.9-.5.9-.5.9-.5.9.5.9-.5 1.2.5.9-.5-1.8-1-.9.5-.9-.5.9-.5-4.5-2.6-.9.5 2.7 1.6-2.8 1.5.9.5-1.9 1-.9-.5-3.7 2 .9.5 1.8-1 .9.5-.9.5.9.5-.9.5 1.8 1 .9-.5.9.5 1.8-1 .9.5-1.8 1-.9-.5-1.9 1 .9.5-.9.5 2.7 1.6-.9.5-1.8-1-.9.5-.9-.5-.9.5 1.8 1 .9-.5.9.5-.9.5-.9-.5-.9.5 4.5 2.6.9-.5-.9-.5.9-.5.9.5-.9.5.9.5 1.9-1-.9-.5.9-.5.9.5.9-.5-1.8-1-.9.5-.9-.5-.9.5-.9-.5.9-.5.9.5 1.9-1 1.8 1 .9-.5 1.8 1 .9-.5-.9-.5zm-11.6-5.7-.9-.5.9-.5.9.5zm1.8 1-.9-.5.9-.5.9.5zm.7 6.7-.9.5-.9-.5.9-.5zm7.4-2-1.8-1 .9-.5 1.8 1zm-27.2-7.4 6.3 3.6 6.5-3.5-6.3-3.6zm6.5-2.5 4.5 2.6-4.6 2.5-4.5-2.6zm-2.8 2.6 2.7 1.6 2.8-1.5-2.7-1.6zm3.5 4.1 4.5 2.6.9-.5-2.7-1.5 1.9-1-.9-.5 1.9-1-.9-.5zm8.2.5.9-.5-2.7-1.5.9-.5-.9-.5-.9.5.9.5-.9.5.9.5-.9.5 1.8 1-.9.5 1.8 1 1.9-1zm8.9 6.2.9-.5-.9-.5-.9.5zm-11.7-3.6.9.5.9-.5-.9-.5z" opacity=".64"/><g opacity=".8"><path d="m46.1 33.3002-1.3-.7-3.5 1.9-1.2-.7 3.5-1.9-1.3-.7 1.1-.6 3.8 2.2z" opacity=".8"/><path d="m51.7 35.2002-4.6001 2.5-1.1999-.7 1.8-1-1.5-.9-1.8 1-1.2-.7001 4.5999-2.5 1.2001.7001-1.7001.9 1.5.8999 1.7001-.8999z" opacity=".8"/><path d="m53.5999 36.3002 1.1.7-3.1 3.4-1.3-.7.7-.7-1.2-.7-1.2.3-1.3-.7zm-1.9 2.1 1-1-1.9.5z" opacity=".8"/><path d="m55.5 40.1002-2.3 1.2-1.2-.7 4.6-2.5 1 .6-.6 2.3 2.4-1.3 1.2.7-4.6 2.5-1-.6z" opacity=".8"/><path d="m56.7999 43.4001 4.6-2.5 1.2.7001-1.8 1 3.1-.2001 1.4.8001-3.7.1999-.8 2.4-1.4-.7999.6-1.6001h-.7l-1.3.7001z" opacity=".8"/><path d="m67.7999 44.5002-1.2 1.5 2.8-.6 1.3.8-4.7.8-1.5.8-1.2-.7 1.5-.8 1.6-2.6z" opacity=".8"/><path d="m68.1999 50.0002c-.3-.2-.6-.4001-.7-.6001s-.2-.4999-.2-.6999.1-.5.3-.7.4-.4001.7-.6001.7-.2999 1.1-.3999.8-.1001 1.2-.1001.8.0001 1.2.1001.8.1999 1.1.3999.6.4001.7.6001.2.5.2.7-.1.4999-.3.6999-.4.4001-.7.6001-.7.2999-1.1.3999-.8.1001-1.2.1001-.8-.0001-1.2-.1001-.8-.1999-1.1-.3999zm1.3-1.9c-.2.1-.3.1999-.4.2999s-.2.2001-.2.3001v.3c.1.1.2.1999.4.2999s.4.2001.6.2001h.6c.2 0 .4-.1001.6-.1001.2-.1.4-.0999.5-.1999.2-.1.3-.2001.4-.3001s.2-.1999.2-.2999 0-.2001-.1-.3001-.2-.1999-.3-.2999c-.2-.1-.4-.2001-.6-.2001s-.4 0-.6 0-.4 0-.6.1c-.1.1-.3.1001-.5.2001z" opacity=".8"/><path d="m74.1 52.1002c.1.1.3.1.5.2h.5c.2 0 .3-.1.5-.1.2-.1.3-.1.5-.2l2.4-1.3 1.2.7-2.4 1.3c-.3.2-.7.3-1 .4-.4.1-.7.2-1.1.2s-.7 0-1.1-.1-.7-.2-1.1-.4-.6-.4-.7-.6-.2-.4-.1-.6c0-.2.2-.4.4-.6s.5-.4.8-.5l2.4-1.3 1.2.7-2.4 1.3c-.2.1-.3.2-.4.3s-.2.2-.2.3v.3c-.1-.1 0-.1.1 0z" opacity=".8"/><path d="m75.9 54.4002 1.2-.6 1.2.7-1.2.6zm2-1.1 2.7-1.5 1.2.7-2.7 1.5z" opacity=".8"/></g></g><path d="m111 229.75535h-.634c-.979-2.6266-3.225-5.078-6.68-7.1209-9.733704-5.72-25.572004-5.72-35.363004 0-3.282796 1.9262-5.471396 4.2025-6.507996 6.654h-.8064v3.2685c-.1727 3.9107 2.2462 7.8213 7.314396 10.7981 9.7334 5.72 25.5717 5.72 35.363004 0 4.895-2.8601 7.314-6.5956 7.314-10.3311z" fill="#ff7d3a"/><path d="m111 229.32395h-.634c-.979-2.6265-3.225-5.078-6.68-7.1209-9.733704-5.72-25.572004-5.72-35.363004 0-3.282796 1.9262-5.471396 4.2025-6.507996 6.654h-.8064v3.2685c-.1727 3.9107 2.2462 7.8213 7.314396 10.7981 9.7334 5.72 25.5717 5.72 35.363004 0 4.895-2.86 7.314-6.5956 7.314-10.3311z" fill="#ff7d3a"/><path d="m110.421 229.44805c-.058-.1153-.058-.1729-.115-.2882v-2.0751h-1.331v-.1729c-.348-.4612-.695-.8647-1.1-1.3258v1.441h-.752v-2.1903c-.348-.2882-.753-.6341-1.1-.9223v3.1126h-.752v-3.6313c-.347-.2306-.752-.5188-1.1-.7494v4.3807h-.752v-4.8418c-.347-.2306-.752-.4035-1.157-.5764v5.4182h-.753v-5.7641c-.347-.1729-.752-.3458-1.157-.4611v6.2252h-.752504v-5.0724h-1.1574v5.0724h-.7523v-3.689h-1.1574v3.689h-.7523v-2.3056h-1.1574v2.3056h-.7523v-.9222h-1.1574v.9222h-13.8311v-.9222h-1.1574v.9222h-.7523v-2.3056h-1.1574v2.3056h-.5787v-3.689h-1.1574v3.689h-.7523v-5.0724h-1.1574v5.0724h-.7523v-6.2252c-.4051.1729-.7523.3459-1.1574.4611v5.7641h-.7524v-5.4182c-.405.1729-.7523.4035-1.1574.5764v4.8418h-.6365v-4.3807c-.405096.2306-.752396.4612-1.099596.7494v3.689h-.7523v-3.1126c-.4051.2882-.7523.634-1.0995.9222v2.1904h-.7523v-1.4987c-.4051.4035-.8102.8646-1.0996 1.3258v.1729h-1.331v1.9598h-.5787v5.3606c.1736.9799.5787 1.9022 1.0995 2.8244v-3.3432h.7524v4.496c.3472.4612.6944.8647 1.0995 1.3258v-5.8218h.7523v6.5135c.3472.2882.7523.634 1.0995.9222v-7.4357h.7524v8.0122c.3472.2305.7523.5187 1.099496.7493v-8.7038h.7523v9.1649c.3472.2306.7523.4035 1.1574.5764v-9.7413h.7523v10.0295c.3473.173.7523.3459 1.1574.4612v-10.606h.7524v10.8942c.3472.1153.7523.2882 1.1574.4035v-11.2977h.7523v11.5282c.3472.1153.7523.2306 1.1574.3459v-11.8165h.7523v12.047c.4051.1153.7523.1729 1.1574.2882v-12.2775h.7523v12.4505c.4051.0576.7523.1152 1.1574.2305v-12.6234h.7523v12.7387c.4051.0576.7524.1153 1.1574.1729v-12.9116h.6945v12.854c.4051.0576.7523.0576 1.1574.1153v-13.0846h.6944v13.1422c.4051 0 .7524.0576 1.1575.0576v-13.1998h.6944v13.1998h1.1574v-13.1998h.6944v13.1998c.4051 0 .7524.0001 1.1575-.0576v-13.1422h.6944v13.0846c.4051 0 .7523-.0577 1.1574-.1153v-12.9693h.6944v12.9116c.4051-.0576.7524-.1152 1.1575-.1729v-12.7387h.7523v12.6234c.4051-.0576.7523-.1152 1.1574-.2305v-12.4505h.7523v12.2776c.4051-.0577.7523-.173 1.1574-.2883v-12.0469h.7523v11.9317c.4051-.1153.7523-.2306 1.1574-.3459v-11.5282h.7523v11.2977c.4051-.1153.7523-.2882 1.1574-.4035v-10.8942h.751904v10.5483c.406-.1729.753-.3458 1.158-.4611v-10.0872h.752v9.7413c.405-.1729.753-.4034 1.158-.5764v-9.1649h.752v8.7038c.405-.2306.752-.4611 1.099-.7493v-8.0121h.753v7.4357c.405-.2882.752-.6341 1.099-.9223v-6.5134h.753v5.7641c.405-.4035.81-.8646 1.099-1.3258v-4.496h.752v3.3432c.521-.9223.926-1.9022 1.1-2.8821v-4.8994z" fill="url(#U)" opacity=".48"/><path d="m85.999996 243.76675c13.8071 0 25.000004-6.4627 25.000004-14.4348 0-7.9722-11.192904-14.4349-25.000004-14.4349s-24.999996 6.4627-24.999996 14.4349c0 7.9721 11.192896 14.4348 24.999996 14.4348z" fill="url(#V)"/><path d="m70.512896 221.29675c8.6773-5.0692 22.7346-5.0692 31.412104 0 4.165 2.3889 6.305 5.5353 6.479 8.6817.174-3.4377-1.967-6.9337-6.479-9.5557-8.677504-5.0692-22.734804-5.0692-31.412104 0-4.512296 2.622-6.710496 6.118-6.479096 9.5557.1735-3.1464 2.3139-6.2345 6.479096-8.6817z" fill="#a24011"/><path d="m87.146196 222.75995v1.6764l8.2692 4.7402v-1.6186z" fill="#f16822"/><path d="m95.414996 227.55815v1.6186l2.9492-1.6764-.0579-1.6764z" fill="#f16822"/><path d="m97.381596 228.71455v1.6764l2.0239-1.214v-1.6764z" fill="#fff"/><path d="m95.473496 229.81245v1.6764l1.9083-1.0984v-1.6764z" fill="#fff"/><path d="m95.241596 229.92785v1.6764l.2313-.1156v-1.6764z" fill="#fff"/><path d="m90.037596 226.92255.0578 1.6764 5.1465 3.006v-1.6764z" fill="#fff"/><path d="m87.088496 230.15925v1.6764l.0578-7.3993v-1.6764z" fill="#f16822"/><path d="m74.366696 230.15955v1.6764h12.7217v-1.6764z" fill="#f16822"/><path d="m90.037596 230.15975v1.6764l.0578-3.2372-.0578-1.6764z" fill="#fff"/><path d="m81.537196 231.83565v1.6764h5.5513v-1.6764z" fill="#fff"/><path d="m87.088496 231.83565v1.6764h2.9491v-1.6764z" fill="#fff"/><path d="m81.537196 231.83565v1.6764l5.2044 3.006-.0579-1.6764z" fill="#f16822"/><path d="m79.629196 236.63345v1.6764l2.9491-1.7342v-1.6764z" fill="#f16822"/><path d="m74.366696 230.15955v1.6764l8.2113 4.7401v-1.6764z" fill="#fff"/><path d="m85.642596 235.47745v1.6764l1.0987-.6359-.0578-1.6764z" fill="#fff"/><path d="m84.543896 236.11355.0579 1.6186 1.0408-.5781v-1.6764z" fill="#fff"/><path d="m76.101396 223.74255c-5.4357 3.1216-5.4935 8.2664-.0579 11.3879.0579 0 .0579.0578.1157.0578.0578.0578.1156.0578.1156.0578.0579.0578.1157.0578.1157.0578.983.5203 2.0817.9828 3.2382 1.3296l2.9492-1.6764-8.2113-4.798h12.7795l.0578-7.3992 8.2113 4.7979 2.9492-1.6764c-.5783-.6358-1.33-1.2717-2.1974-1.8498-.0579-.0578-.0579-.0578-.1157-.0578-.0578-.0578-.1156-.0578-.1156-.0578-.0579-.0578-.1157-.0578-.1735-.0578-5.4356-3.2372-14.2252-3.2372-19.6608-.1156z" fill="#f16822"/><path d="m74.366696 230.15925 8.2113 4.798-2.9491 1.6764c.9252.289 1.9082.4624 2.9491.6358l2.0239-1.1561 1.0409-.6359 1.0408-.6359-5.2043-3.0059h5.5513 2.9491v-1.6764-3.2372l5.2044 3.006.2313-.1156 1.9082-1.0984 2.0239-1.1561c-.2313-.5781-.5782-1.1561-1.0408-1.6764l-2.9492 1.6764-8.2113-4.798-.0578 7.3993z" fill="#fff"/><path d="m82.578196 237.26935v1.6764l2.024-1.2139-.0579-1.6186z" fill="#fff"/><path d="m79.628996 236.63365v1.6764c-1.1565-.3468-2.1974-.7515-3.2383-1.3296 0 0-.0578-.0578-.1156-.0578 0 0-.0578 0-.1157-.0578-.0578 0-.0578-.0578-.1156-.0578-2.66-1.5608-4.0478-3.584-4.0478-5.665v-1.6764c0 2.0232 1.33 4.1043 4.0478 5.665.0578 0 .0578.0578.1156.0578.0579.0578.1157.0578.1157.0578.0578.0579.1156.0579.1156.0579 1.0409.578 2.0818.9827 3.2383 1.3295zm0 1.6764c.9252.289 1.9083.4625 2.9491.6359v-1.6764c-.983-.1156-1.9661-.3469-2.9491-.6359zm20.1813-8.9022c0 2.081-1.3878 4.1621-4.1057 5.7228-3.5852 2.0811-8.5582 2.7748-13.1265 2.1389v1.6764c4.5683.6359 9.5413-.0578 13.1265-2.1389 2.7179-1.5608 4.1057-3.6418 4.1057-5.7228z" fill="#d84b0e"/><path d="m81.537196 231.83615 5.2044 3.006-1.0409.6358-1.0409.6359-2.0239 1.1561c4.5683.6359 9.5413-.0578 13.1265-2.1388 3.5852-2.0811 4.799604-4.9714 3.7009-7.5727l-2.0239 1.1561-1.9083 1.0984-.2891.1156-5.2043-3.006v3.2372 1.6764h-2.9492z" fill="#f16822"/><path d="m111 224.58295h-.634c-.979-2.6265-3.225-5.078-6.68-7.1208-9.733704-5.72006-25.572004-5.72006-35.363004 0-3.282796 1.9261-5.471396 4.2024-6.507996 6.6539h-.8064v3.2686c-.1727 3.9106 2.2462 7.8212 7.314396 10.798 9.7334 5.72 25.5717 5.72 35.363004 0 4.895-2.86 7.314-6.5955 7.314-10.3311z" fill="#ff7d3a"/><path d="m111 224.15155h-.634c-.979-2.6265-3.225-5.078-6.68-7.1208-9.733704-5.72005-25.572004-5.72005-35.363004 0-3.282796 1.9261-5.471396 4.2025-6.507996 6.6539h-.8064v3.2686c-.1727 3.9106 2.2462 7.8213 7.314396 10.798 9.7334 5.72 25.5717 5.72 35.363004 0 4.895-2.86 7.314-6.5955 7.314-10.3311z" fill="#ff7d3a"/><path d="m110.421 224.27565c-.058-.1153-.058-.1729-.115-.2882v-2.0751h-1.331v-.1729c-.348-.4611-.695-.8646-1.1-1.3257v1.441h-.752v-2.1904c-.348-.2882-.753-.634-1.1-.9222v3.1126h-.752v-3.6314c-.347-.2306-.752-.5188-1.1-.7493v4.3807h-.752v-4.8419c-.347-.2305-.752-.4035-1.157-.5764v5.4183h-.753v-5.7641c-.347-.1729-.752-.3459-1.157-.4612v6.2253h-.752504v-5.0724h-1.1574v5.0724h-.7523v-3.689h-1.1574v3.689h-.7523v-2.3057h-1.1574v2.3057h-.7523v-.9223h-1.1574v.9223h-13.8311v-.9223h-1.1574v.9223h-.7523v-2.3057h-1.1574v2.3057h-.5787v-3.689h-1.1574v3.689h-.7523v-5.0724h-1.1574v5.0724h-.7523v-6.2253c-.4051.173-.7523.3459-1.1574.4612v5.7641h-.7524v-5.4183c-.405.1729-.7523.4035-1.1574.5764v4.8419h-.6365v-4.3807c-.405096.2305-.752396.4611-1.099596.7493v3.689h-.7523v-3.1126c-.4051.2882-.7523.6341-1.0995.9223v2.1903h-.7523v-1.4986c-.4051.4034-.8102.8646-1.0996 1.3257v.1729h-1.331v1.9598h-.5787v5.3606c.1736.9799.5787 1.9022 1.0995 2.8245v-3.3432h.7524v4.496c.3472.4611.6944.8646 1.0995 1.3257v-5.8217h.7523v6.5134c.3472.2882.7523.6341 1.0995.9223v-7.4357h.7524v8.0121c.3472.2306.7523.5188 1.099496.7493v-8.7038h.7523v9.165c.3472.2305.7523.4034 1.1574.5764v-9.7414h.7523v10.0296c.3473.1729.7523.3458 1.1574.4611v-10.606h.7524v10.8942c.3472.1153.7523.2882 1.1574.4035v-11.2977h.7523v11.5283c.3472.1152.7523.2305 1.1574.3458v-11.8164h.7523v12.047c.4051.1152.7523.1729 1.1574.2882v-12.2776h.7523v12.4505c.4051.0576.7523.1153 1.1574.2306v-12.6234h.7523v12.7386c.4051.0577.7524.1153 1.1574.173v-12.9116h.6945v12.8539c.4051.0577.7523.0577 1.1574.1153v-13.0845h.6944v13.1422c.4051 0 .7524.0576 1.1575.0576v-13.1998h.6944v13.1998h1.1574v-13.1998h.6944v13.1998c.4051 0 .7524 0 1.1575-.0576v-13.1422h.6944v13.0845c.4051 0 .7523-.0576 1.1574-.1153v-12.9692h.6944v12.9116c.4051-.0577.7524-.1153 1.1575-.1729v-12.7387h.7523v12.6234c.4051-.0577.7523-.1153 1.1574-.2306v-12.4505h.7523v12.2776c.4051-.0577.7523-.1729 1.1574-.2882v-12.047h.7523v11.9317c.4051-.1153.7523-.2306 1.1574-.3458v-11.5283h.7523v11.2977c.4051-.1153.7523-.2882 1.1574-.4035v-10.8942h.751904v10.5484c.406-.173.753-.3459 1.158-.4612v-10.0872h.752v9.7414c.405-.1729.753-.4035 1.158-.5764v-9.165h.752v8.7038c.405-.2305.752-.4611 1.099-.7493v-8.0121h.753v7.4357c.405-.2882.752-.6341 1.099-.9223v-6.5134h.753v5.7641c.405-.4035.81-.8646 1.099-1.3257v-4.496h.752v3.3431c.521-.9222.926-1.9021 1.1-2.882v-4.8995z" fill="url(#W)" opacity=".48"/><path d="m85.999996 238.59445c13.8071 0 25.000004-6.4627 25.000004-14.4349 0-7.9721-11.192904-14.43484-25.000004-14.43484s-24.999996 6.46274-24.999996 14.43484c0 7.9722 11.192896 14.4349 24.999996 14.4349z" fill="url(#X)"/><path d="m70.512896 216.12435c8.6773-5.06918 22.7346-5.06918 31.412104 0 4.165 2.3889 6.305 5.5353 6.479 8.6817.174-3.4377-1.967-6.9337-6.479-9.5557-8.677504-5.06918-22.734804-5.06918-31.412104 0-4.512296 2.622-6.710496 6.118-6.479096 9.5557.1735-3.1464 2.3139-6.2345 6.479096-8.6817z" fill="#a24011"/><path d="m87.146196 217.58765v1.6764l8.2692 4.7401v-1.6186z" fill="#f16822"/><path d="m95.414996 222.38575v1.6186l2.9492-1.6764-.0579-1.6764z" fill="#f16822"/><path d="m97.381596 223.54205v1.6764l2.0239-1.214v-1.6763z" fill="#fff"/><path d="m95.473496 224.63995v1.6764l1.9083-1.0983v-1.6764z" fill="#fff"/><path d="m95.241596 224.75545v1.6764l.2313-.1156v-1.6764z" fill="#fff"/><path d="m90.037596 221.75025.0578 1.6764 5.1465 3.0059v-1.6764z" fill="#fff"/><path d="m87.088496 224.98685v1.6764l.0578-7.3992v-1.6764z" fill="#f16822"/><path d="m74.366696 224.98715v1.6764h12.7217v-1.6764z" fill="#f16822"/><path d="m90.037596 224.98745v1.6763l.0578-3.2371-.0578-1.6764z" fill="#fff"/><path d="m81.537196 226.66335v1.6764h5.5513v-1.6764z" fill="#fff"/><path d="m87.088496 226.66335v1.6764h2.9491v-1.6764z" fill="#fff"/><path d="m81.537196 226.66335v1.6764l5.2044 3.0059-.0579-1.6764z" fill="#f16822"/><path d="m79.629196 231.46095v1.6764l2.9491-1.7342v-1.6764z" fill="#f16822"/><path d="m74.366696 224.98715v1.6764l8.2113 4.7402v-1.6764z" fill="#fff"/><path d="m85.642596 230.30505v1.6764l1.0987-.6359-.0578-1.6764z" fill="#fff"/><path d="m84.543896 230.94105.0579 1.6186 1.0408-.5781v-1.6764z" fill="#fff"/><path d="m76.101396 218.57015c-5.4357 3.1216-5.4935 8.2664-.0579 11.388.0579 0 .0579.0578.1157.0578.0578.0578.1156.0578.1156.0578.0579.0578.1157.0578.1157.0578.983.5202 2.0817.9827 3.2382 1.3295l2.9492-1.6764-8.2113-4.7979h12.7795l.0578-7.3993 8.2113 4.798 2.9492-1.6764c-.5783-.6359-1.33-1.2718-2.1974-1.8498-.0579-.0578-.0579-.0578-.1157-.0578-.0578-.0578-.1156-.0578-.1156-.0578-.0579-.0579-.1157-.0579-.1735-.0579-5.4356-3.2371-14.2252-3.2371-19.6608-.1156z" fill="#f16822"/><path d="m74.366696 224.98685 8.2113 4.798-2.9491 1.6764c.9252.289 1.9082.4624 2.9491.6359l2.0239-1.1562 1.0409-.6358 1.0408-.6359-5.2043-3.006h5.5513 2.9491v-1.6764-3.2371l5.2044 3.0059.2313-.1156 1.9082-1.0983 2.0239-1.1562c-.2313-.578-.5782-1.1561-1.0408-1.6764l-2.9492 1.6764-8.2113-4.7979-.0578 7.3992z" fill="#fff"/><path d="m82.578196 232.09695v1.6764l2.024-1.214-.0579-1.6186z" fill="#fff"/><path d="m79.628996 231.46115v1.6764c-1.1565-.3468-2.1974-.7515-3.2383-1.3295 0 0-.0578-.0578-.1156-.0578 0 0-.0578 0-.1157-.0578-.0578 0-.0578-.0579-.1156-.0579-2.66-1.5607-4.0478-3.584-4.0478-5.665v-1.6764c0 2.0232 1.33 4.1043 4.0478 5.665.0578 0 .0578.0579.1156.0579.0579.0578.1157.0578.1157.0578.0578.0578.1156.0578.1156.0578 1.0409.578 2.0818.9827 3.2383 1.3295zm0 1.6764c.9252.2891 1.9083.4625 2.9491.6359v-1.6764c-.983-.1156-1.9661-.3468-2.9491-.6359zm20.1813-8.9022c0 2.081-1.3878 4.1621-4.1057 5.7228-3.5852 2.0811-8.5582 2.7748-13.1265 2.1389v1.6764c4.5683.6359 9.5413-.0578 13.1265-2.1389 2.7179-1.5607 4.1057-3.6418 4.1057-5.7228z" fill="#d84b0e"/><path d="m81.537196 226.66375 5.2044 3.006-1.0409.6359-1.0409.6358-2.0239 1.1562c4.5683.6358 9.5413-.0578 13.1265-2.1389 3.5852-2.081 4.799604-4.9713 3.7009-7.5727l-2.0239 1.1562-1.9083 1.0983-.2891.1156-5.2043-3.0059v3.2372 1.6763h-2.9492z" fill="#f16822"/><path d="m111 219.41065h-.634c-.979-2.6266-3.225-5.07802-6.68-7.12089-9.733704-5.72003-25.572004-5.72003-35.363004 0-3.282796 1.92614-5.471396 4.20249-6.507996 6.65389h-.8064v3.2686c-.1727 3.9107 2.2462 7.8213 7.314396 10.798 9.7334 5.7201 25.5717 5.7201 35.363004 0 4.895-2.86 7.314-6.5955 7.314-10.331z" fill="#ff7d3a"/><path d="m111 218.97925h-.634c-.979-2.6266-3.225-5.07802-6.68-7.12088-9.733704-5.72004-25.572004-5.72004-35.363004 0-3.282796 1.92613-5.471396 4.20248-6.507996 6.65388h-.8064v3.2686c-.1727 3.9107 2.2462 7.8213 7.314396 10.798 9.7334 5.7201 25.5717 5.7201 35.363004 0 4.895-2.86 7.314-6.5955 7.314-10.331z" fill="#ff7d3a"/><path d="m110.421 219.10335c-.058-.1153-.058-.173-.115-.2883v-2.075h-1.331v-.173c-.348-.4611-.695-.8646-1.1-1.3257v1.441h-.752v-2.19034c-.348-.2882-.753-.63405-1.1-.92226v3.1126h-.752v-3.63137c-.347-.23056-.752-.51877-1.1-.74933v4.3807h-.752v-4.84183c-.347-.23057-.752-.40349-1.157-.57641v5.41824h-.753v-5.76409c-.347-.17292-.752-.34584-1.157-.46112v6.22521h-.752504v-5.07239h-1.1574v5.07239h-.7523v-3.68901h-1.1574v3.68901h-.7523v-2.30562h-1.1574v2.30562h-.7523v-.9222h-1.1574v.9222h-13.8311v-.9222h-1.1574v.9222h-.7523v-2.30562h-1.1574v2.30562h-.5787v-3.68901h-1.1574v3.68901h-.7523v-5.07239h-1.1574v5.07239h-.7523v-6.22521c-.4051.17292-.7523.34584-1.1574.46112v5.76409h-.7524v-5.41824c-.405.17292-.7523.40348-1.1574.57641v4.84183h-.6365v-4.3807c-.405096.23056-.752396.46113-1.099596.74933v3.68907h-.7523v-3.11265c-.4051.2882-.7523.63405-1.0995.92225v2.1904h-.7523v-1.4987c-.4051.4035-.8102.8646-1.0996 1.3257v.173h-1.331v1.9598h-.5787v5.3606c.1736.9799.5787 1.9021 1.0995 2.8244v-3.3432h.7524v4.496c.3472.4611.6944.8646 1.0995 1.3258v-5.8218h.7523v6.5135c.3472.2882.7523.634 1.0995.9222v-7.4357h.7524v8.0121c.3472.2306.7523.5188 1.099496.7494v-8.7038h.7523v9.1649c.3472.2306.7523.4035 1.1574.5764v-9.7413h.7523v10.0295c.3473.1729.7523.3459 1.1574.4611v-10.6059h.7524v10.8941c.3472.1153.7523.2882 1.1574.4035v-11.2976h.7523v11.5282c.3472.1153.7523.2306 1.1574.3458v-11.8164h.7523v12.047c.4051.1153.7523.1729 1.1574.2882v-12.2775h.7523v12.4504c.4051.0577.7523.1153 1.1574.2306v-12.6234h.7523v12.7387c.4051.0576.7524.1153 1.1574.1729v-12.9116h.6945v12.854c.4051.0576.7523.0576 1.1574.1152v-13.0845h.6944v13.1422c.4051 0 .7524.0576 1.1575.0576v-13.1998h.6944v13.1998h1.1574v-13.1998h.6944v13.1998c.4051 0 .7524 0 1.1575-.0576v-13.1422h.6944v13.0845c.4051 0 .7523-.0576 1.1574-.1152v-12.9693h.6944v12.9116c.4051-.0576.7524-.1153 1.1575-.1729v-12.7387h.7523v12.6234c.4051-.0576.7523-.1153 1.1574-.2305v-12.4505h.7523v12.2775c.4051-.0576.7523-.1729 1.1574-.2882v-12.047h.7523v11.9317c.4051-.1152.7523-.2305 1.1574-.3458v-11.5282h.7523v11.2976c.4051-.1153.7523-.2882 1.1574-.4035v-10.8941h.751904v10.5483c.406-.1729.753-.3459 1.158-.4611v-10.0872h.752v9.7413c.405-.1729.753-.4035 1.158-.5764v-9.1649h.752v8.7038c.405-.2306.752-.4612 1.099-.7494v-8.0121h.753v7.4357c.405-.2882.752-.634 1.099-.9222v-6.5135h.753v5.7641c.405-.4034.81-.8646 1.099-1.3257v-4.496h.752v3.3432c.521-.9223.926-1.9022 1.1-2.8821v-4.8995z" fill="url(#Y)" opacity=".48"/><path d="m85.999996 233.42205c13.8071 0 25.000004-6.4627 25.000004-14.4349 0-7.9721-11.192904-14.4348-25.000004-14.4348s-24.999996 6.4627-24.999996 14.4348c0 7.9722 11.192896 14.4349 24.999996 14.4349z" fill="url(#Z)"/><path d="m70.512896 210.952c8.6773-5.06919 22.7346-5.06919 31.412104 0 4.165 2.38893 6.305 5.53535 6.479 8.68175.174-3.4378-1.967-6.93375-6.479-9.55575-8.677504-5.06919-22.734804-5.06919-31.412104 0-4.512296 2.622-6.710496 6.11795-6.479096 9.55575.1735-3.1464 2.3139-6.23455 6.479096-8.68175z" fill="#a24011"/><path d="m87.146196 212.41514v1.6764l8.2692 4.74011v-1.6185z" fill="#f16822"/><path d="m95.414996 217.21335v1.6185l2.9492-1.6763-.0579-1.6764z" fill="#f16822"/><path d="m97.381596 218.36965v1.6764l2.0239-1.2139v-1.6764z" fill="#fff"/><path d="m95.473496 219.46755v1.6764l1.9083-1.0983v-1.6764z" fill="#fff"/><path d="m95.241596 219.58315v1.6764l.2313-.1156v-1.6764z" fill="#fff"/><path d="m90.037596 216.57775.0578 1.6764 5.1465 3.0059v-1.6764z" fill="#fff"/><path d="m87.088496 219.81445v1.6763l.0578-7.39921v-1.6764z" fill="#f16822"/><path d="m74.366696 219.81465v1.6764h12.7217v-1.6764z" fill="#f16822"/><path d="m90.037596 219.81495v1.6764l.0578-3.2372-.0578-1.6764z" fill="#fff"/><path d="m81.537196 221.49085v1.6764h5.5513v-1.6764z" fill="#fff"/><path d="m87.088496 221.49085v1.6764h2.9491v-1.6764z" fill="#fff"/><path d="m81.537196 221.49085v1.6764l5.2044 3.0059-.0579-1.6764z" fill="#f16822"/><path d="m79.629196 226.28865v1.6764l2.9491-1.7342v-1.6764z" fill="#f16822"/><path d="m74.366696 219.81465v1.6764l8.2113 4.7402v-1.6764z" fill="#fff"/><path d="m85.642596 225.13265v1.6764l1.0987-.6358-.0578-1.6764z" fill="#fff"/><path d="m84.543896 225.76865.0579 1.6186 1.0408-.5781v-1.6764z" fill="#fff"/><path d="m76.101396 213.39782c-5.4357 3.12153-5.4935 8.26633-.0579 11.38793.0579 0 .0579.0578.1157.0578.0578.0578.1156.0578.1156.0578.0579.0578.1157.0578.1157.0578.983.5203 2.0817.9827 3.2382 1.3296l2.9492-1.6764-8.2113-4.798h12.7795l.0578-7.39924 8.2113 4.79794 2.9492-1.6764c-.5783-.6359-1.33-1.27173-2.1974-1.84979-.0579-.0578-.0579-.0578-.1157-.0578-.0578-.0578-.1156-.0578-.1156-.0578-.0579-.0578-.1157-.0578-.1735-.0578-5.4356-3.23718-14.2252-3.23718-19.6608-.11562z" fill="#f16822"/><path d="m74.366696 219.81445 8.2113 4.7979-2.9491 1.6764c.9252.289 1.9082.4625 2.9491.6359l2.0239-1.1562 1.0409-.6358 1.0408-.6359-5.2043-3.006h5.5513 2.9491v-1.6763-3.2372l5.2044 3.0059.2313-.1156 1.9082-1.0983 2.0239-1.1561c-.2313-.5781-.5782-1.1562-1.0408-1.6764l-2.9492 1.6764-8.2113-4.79801-.0578 7.39931z" fill="#fff"/><path d="m82.578196 226.92455v1.6764l2.024-1.2139-.0579-1.6186z" fill="#fff"/><path d="m79.628996 226.28885v1.6764c-1.1565-.3469-2.1974-.7515-3.2383-1.3296 0 0-.0578-.0578-.1156-.0578 0 0-.0578 0-.1157-.0578-.0578 0-.0578-.0578-.1156-.0578-2.66-1.5608-4.0478-3.584-4.0478-5.6651v-1.6764c0 2.0233 1.33 4.1043 4.0478 5.6651.0578 0 .0578.0578.1156.0578.0579.0578.1157.0578.1157.0578.0578.0578.1156.0578.1156.0578 1.0409.5781 2.0818.9827 3.2383 1.3296zm0 1.6764c.9252.289 1.9083.4624 2.9491.6358v-1.6764c-.983-.1156-1.9661-.3468-2.9491-.6358zm20.1813-8.9023c0 2.0811-1.3878 4.1621-4.1057 5.7229-3.5852 2.081-8.5582 2.7747-13.1265 2.1388v1.6764c4.5683.6359 9.5413-.0578 13.1265-2.1388 2.7179-1.5608 4.1057-3.6418 4.1057-5.7229z" fill="#d84b0e"/><path d="m81.537196 221.49135 5.2044 3.0059-1.0409.6359-1.0409.6359-2.0239 1.1561c4.5683.6359 9.5413-.0578 13.1265-2.1389 3.5852-2.081 4.799604-4.9713 3.7009-7.5726l-2.0239 1.1561-1.9083 1.0983-.2891.1156-5.2043-3.0059v3.2372 1.6764h-2.9492z" fill="#f16822"/></svg>