<svg fill="none" height="432" viewBox="0 0 352 432" width="352" xmlns="http://www.w3.org/2000/svg" xmlns:xlink="http://www.w3.org/1999/xlink"><linearGradient id="a"><stop offset="0" stop-color="#d5d5d5"/><stop offset="1" stop-color="#6b6b6b"/></linearGradient><linearGradient id="b" gradientUnits="userSpaceOnUse" x1="109.728" x2="224.603" xlink:href="#a" y1="258.118" y2="279.527"/><linearGradient id="c" gradientUnits="userSpaceOnUse" x1="204.968" x2="209.331" y1="143.751" y2="198.648"><stop offset="0" stop-color="#fff"/><stop offset="1" stop-color="#cfcfcf"/></linearGradient><linearGradient id="d" gradientUnits="userSpaceOnUse" x1="167.752" x2="166.142" y1="170.837" y2="215.429"><stop offset="0" stop-color="#f16822"/><stop offset="1" stop-color="#d84b0e"/></linearGradient><linearGradient id="e"><stop offset="0" stop-color="#f17922"/><stop offset="1" stop-color="#d74608"/></linearGradient><linearGradient id="f" gradientUnits="userSpaceOnUse" x1="113.835" x2="143.938" xlink:href="#e" y1="236.144" y2="232.327"/><linearGradient id="g"><stop offset=".010101" stop-color="#f16822"/><stop offset=".0487861" stop-color="#ff9a67"/><stop offset=".1149" stop-color="#ffbf9e"/><stop offset=".1998" stop-color="#f7f2f9"/><stop offset=".2222" stop-color="#fff"/><stop offset=".2513" stop-color="#f9f5fb"/><stop offset=".3001" stop-color="#ffcbb0"/><stop offset=".3586" stop-color="#ffa87b"/><stop offset=".4264" stop-color="#fe8f57"/><stop offset=".4949" stop-color="#f38c57"/><stop offset=".5583" stop-color="#f98449"/><stop offset=".6111" stop-color="#f87a3a"/><stop offset=".755" stop-color="#f46f2b"/><stop offset="1" stop-color="#f16822"/></linearGradient><linearGradient id="h" gradientUnits="userSpaceOnUse" x1="122.683" x2="148.233" xlink:href="#g" y1="226.568" y2="267.663"/><linearGradient id="i" gradientUnits="userSpaceOnUse" x1="120.687" x2="147.116" xlink:href="#e" y1="232.376" y2="245.29"/><linearGradient id="j" gradientUnits="userSpaceOnUse" x1="118.861" x2="133.439" xlink:href="#g" y1="238.469" y2="264.885"/><linearGradient id="k" gradientUnits="userSpaceOnUse" x1="114.062" x2="129.384" xlink:href="#e" y1="245.693" y2="254.918"/><linearGradient id="l" gradientUnits="userSpaceOnUse" x1="116.839" x2="130.902" xlink:href="#e" y1="245.342" y2="252.575"/><linearGradient id="m"><stop offset="0" stop-color="#b82cb4"/><stop offset=".055225" stop-color="#de4ac2"/><stop offset=".0707071" stop-color="#e953c6"/><stop offset=".1313" stop-color="#c436b8"/><stop offset=".2879" stop-color="#b82cb4"/><stop offset=".6717" stop-color="#d644bf"/><stop offset="1" stop-color="#ec55c7"/></linearGradient><linearGradient id="n" gradientUnits="userSpaceOnUse" x1="242.231" x2="362.472" xlink:href="#m" y1="286.189" y2="286.189"/><radialGradient id="o" cx="0" cy="0" gradientTransform="matrix(65.1917 0 0 65.0222 332.216 252.882)" gradientUnits="userSpaceOnUse" r="1"><stop offset="0" stop-color="#551841"/><stop offset=".0458165" stop-color="#4a1539"/><stop offset=".1828" stop-color="#2f0d24"/><stop offset=".3324" stop-color="#1a0714"/><stop offset=".4989" stop-color="#0b0309"/><stop offset=".6959" stop-color="#030102"/><stop offset="1"/></radialGradient><linearGradient id="p" gradientUnits="userSpaceOnUse" x1="243.465" x2="362.394" xlink:href="#m" y1="287.477" y2="287.477"/><linearGradient id="q" gradientUnits="userSpaceOnUse" x1="316.843" x2="311.334" xlink:href="#a" y1="253.422" y2="296.216"/><linearGradient id="r"><stop offset="0" stop-color="#fff"/><stop offset="1"/></linearGradient><radialGradient id="s" cx="0" cy="0" gradientTransform="matrix(26.1801 0 0 26.112 324.221 278.697)" gradientUnits="userSpaceOnUse" r="1" xlink:href="#r"/><linearGradient id="t"><stop offset="0" stop-color="#fff"/><stop offset="1" stop-color="#b9b9b9"/></linearGradient><linearGradient id="u" gradientUnits="userSpaceOnUse" x1="339.303" x2="295.9" xlink:href="#t" y1="281.77" y2="309.222"/><radialGradient id="v" cx="0" cy="0" gradientTransform="matrix(26.18 0 0 26.112 321.278 292.308)" gradientUnits="userSpaceOnUse" r="1" xlink:href="#r"/><linearGradient id="w" gradientUnits="userSpaceOnUse" x1="251.716" x2="324.281" y1="275.477" y2="275.477"><stop offset=".0959596" stop-color="#e24dc3"/><stop offset=".8586" stop-color="#c738b9"/><stop offset=".9697" stop-color="#ec55c7"/><stop offset="1" stop-color="#d644bf"/></linearGradient><linearGradient id="x" gradientUnits="userSpaceOnUse" x1="318.916" x2="243.578" y1="342.938" y2="244.958"><stop offset=".0353535" stop-color="#9f19ab"/><stop offset=".2438" stop-color="#ae25b1"/><stop offset=".6455" stop-color="#d744bf"/><stop offset="1" stop-color="#ff63ce"/></linearGradient><linearGradient id="y" gradientUnits="userSpaceOnUse" x1="249.451" x2="333.198" xlink:href="#e" y1="243.436" y2="284.251"/><linearGradient id="z" gradientUnits="userSpaceOnUse" x1="122.083" x2="70.4255" xlink:href="#e" y1="304.379" y2="263.914"/><linearGradient id="A" gradientUnits="userSpaceOnUse" x1="107.139" x2="98.3595" xlink:href="#a" y1="297.538" y2="403.952"/><linearGradient id="B" gradientUnits="userSpaceOnUse" x1="107.139" x2="98.3576" xlink:href="#a" y1="296.576" y2="403.014"/><linearGradient id="C" gradientUnits="userSpaceOnUse" x1="107.139" x2="98.3507" xlink:href="#a" y1="291.985" y2="398.451"/><linearGradient id="D" gradientUnits="userSpaceOnUse" x1="198.168" x2="87.5253" xlink:href="#t" y1="330.322" y2="439.473"/><linearGradient id="E" gradientUnits="userSpaceOnUse" x1="38.5568" x2="173.687" xlink:href="#t" y1="315.944" y2="321.107"/><linearGradient id="F"><stop offset="0" stop-color="#3d065f"/><stop offset="1" stop-color="#5f27bd"/></linearGradient><linearGradient id="G" gradientUnits="userSpaceOnUse" x1="22.1993" x2="28.5325" xlink:href="#F" y1="355.094" y2="352.894"/><linearGradient id="H" gradientUnits="userSpaceOnUse" x1="32.6051" x2="38.9384" xlink:href="#F" y1="361.086" y2="358.886"/><linearGradient id="I" gradientUnits="userSpaceOnUse" x1="325.76" x2="188.342" xlink:href="#e" y1="341.645" y2="387.536"/><linearGradient id="J" gradientUnits="userSpaceOnUse" x1="195.973" x2="137.504" xlink:href="#e" y1="412.322" y2="305.664"/><linearGradient id="K" gradientUnits="userSpaceOnUse" x1="69.1659" x2="106.41" xlink:href="#e" y1="334.902" y2="380.679"/><linearGradient id="L" gradientUnits="userSpaceOnUse" x1="69.1696" x2="75.4056" xlink:href="#e" y1="363.564" y2="386.9"/><linearGradient id="M" gradientUnits="userSpaceOnUse" x1="140.073" x2="91.575" xlink:href="#e" y1="365.418" y2="328.559"/><linearGradient id="N"><stop offset="0" stop-color="#ffbb96"/><stop offset=".2273" stop-color="#fffbc9"/><stop offset=".5404" stop-color="#f9b673"/><stop offset=".6391" stop-color="#f9b876"/><stop offset=".7249" stop-color="#fabe81"/><stop offset=".8057" stop-color="#fcc993"/><stop offset=".8586" stop-color="#fed2a3"/><stop offset=".9697" stop-color="#ffc28c"/></linearGradient><linearGradient id="O" gradientUnits="userSpaceOnUse" x1="62.8406" x2="62.4847" xlink:href="#N" y1="364.292" y2="364.292"/><linearGradient id="P" gradientUnits="userSpaceOnUse" x1="135.061" x2="62.6049" xlink:href="#N" y1="373.052" y2="373.052"/><linearGradient id="Q" gradientUnits="userSpaceOnUse" x1="62.6565" x2="62.6263" y1="369.212" y2="369.331"><stop offset="0" stop-color="#fee2a6"/><stop offset=".466" stop-color="#f9ba96"/><stop offset=".6313" stop-color="#f7aa90"/><stop offset=".6334" stop-color="#f7a990"/><stop offset=".6915" stop-color="#f59e8b"/><stop offset=".7731" stop-color="#f49788"/><stop offset="1" stop-color="#f49587"/></linearGradient><linearGradient id="R" gradientUnits="userSpaceOnUse" x1="77.8472" x2="105.232" xlink:href="#e" y1="336.233" y2="372.591"/><linearGradient id="S" gradientUnits="userSpaceOnUse" x1="77.9539" x2="99.9716" xlink:href="#e" y1="335.353" y2="369.716"/><linearGradient id="T"><stop offset=".2879" stop-color="#919191"/><stop offset=".4656" stop-color="#b3b3b3"/><stop offset=".5859" stop-color="#bfbfbf"/><stop offset=".8081" stop-color="#acacac"/></linearGradient><linearGradient id="U" gradientUnits="userSpaceOnUse" x1="129.786" x2="127.103" xlink:href="#T" y1="301.124" y2="296.462"/><linearGradient id="V"><stop offset=".0353535" stop-color="#b6b6b6"/><stop offset=".5808" stop-color="#dcdcdc"/><stop offset="1" stop-color="#f8f8f8"/></linearGradient><linearGradient id="W" gradientUnits="userSpaceOnUse" x1="127.046" x2="129.418" xlink:href="#V" y1="300.754" y2="296.655"/><linearGradient id="X"><stop offset=".1667" stop-color="#959595"/><stop offset=".4167" stop-color="#b4b4b4"/><stop offset=".5859" stop-color="#c7c7c7"/><stop offset=".9091" stop-color="#acacac"/></linearGradient><linearGradient id="Y" gradientUnits="userSpaceOnUse" x1="128.617" x2="126.314" xlink:href="#X" y1="301.357" y2="297.356"/><linearGradient id="Z"><stop offset=".0353535" stop-color="#b1b1b1"/><stop offset=".5808" stop-color="#dadada"/><stop offset="1" stop-color="#f9f9f9"/></linearGradient><linearGradient id="aa" gradientUnits="userSpaceOnUse" x1="126.078" x2="128.114" xlink:href="#Z" y1="301.147" y2="297.629"/><linearGradient id="ab" gradientUnits="userSpaceOnUse" x1="136.211" x2="133.527" xlink:href="#T" y1="304.979" y2="300.317"/><linearGradient id="ac" gradientUnits="userSpaceOnUse" x1="133.471" x2="135.843" xlink:href="#V" y1="304.609" y2="300.51"/><linearGradient id="ad" gradientUnits="userSpaceOnUse" x1="135.042" x2="132.739" xlink:href="#X" y1="305.212" y2="301.211"/><linearGradient id="ae" gradientUnits="userSpaceOnUse" x1="132.503" x2="134.538" xlink:href="#Z" y1="305.002" y2="301.484"/><linearGradient id="af" gradientUnits="userSpaceOnUse" x1="114.514" x2="168.381" xlink:href="#e" y1="141.358" y2="214.851"/><linearGradient id="ag" gradientUnits="userSpaceOnUse" x1="179.91" x2="169.39" xlink:href="#e" y1="145.036" y2="118.293"/><linearGradient id="ah" gradientUnits="userSpaceOnUse" x1="313.098" x2="310.297" xlink:href="#T" y1="318.666" y2="313.801"/><linearGradient id="ai" gradientUnits="userSpaceOnUse" x1="310.239" x2="312.714" xlink:href="#V" y1="318.28" y2="314.003"/><linearGradient id="aj" gradientUnits="userSpaceOnUse" x1="311.879" x2="309.475" xlink:href="#X" y1="318.909" y2="314.733"/><linearGradient id="ak" gradientUnits="userSpaceOnUse" x1="309.228" x2="311.353" xlink:href="#Z" y1="318.691" y2="315.019"/><linearGradient id="al" gradientUnits="userSpaceOnUse" x1="169.698" x2="169.178" y1="157.71" y2="21.016"><stop offset="0" stop-color="#f16822"/><stop offset="1" stop-color="#f16822" stop-opacity="0"/></linearGradient><path d="m232.051 295.4v-112.647l-127.882-2.435v111.632c-.405 1.421.203 2.841 1.824 3.856l57.962 34.3c3.04 1.827 8.31 1.624 11.755-.406l53.301-30.038c2.229-1.217 3.04-2.841 3.04-4.262z" fill="url(#b)"/><path d="m163.955 216.648-57.962-34.3c-3.04-1.827-2.635-4.871 1.013-6.901l53.301-30.038c3.445-2.03 8.715-2.233 11.755-.406l57.962 34.3c3.04 1.827 2.635 4.871-1.013 6.901l-53.301 30.038c-3.446 2.029-8.715 2.232-11.755.406z" fill="url(#c)"/><path d="m165.779 202.238-35.466-21.108c-1.824-1.015-1.621-3.045.608-4.262l32.629-18.47c2.229-1.217 5.472-1.217 7.296-.203l35.467 21.108c1.824 1.015 1.621 3.045-.608 4.262l-32.63 18.47c-2.229 1.217-5.472 1.217-7.296.203z" fill="url(#d)"/><path d="m130.313 181.13 5.877 3.45 27.36-15.425c2.229-1.218 5.472-1.218 7.296-.203l29.589 17.455 5.269-3.045c2.23-1.218 2.432-3.044.608-4.262l-35.466-21.108c-1.824-1.014-5.067-1.014-7.296.203l-32.832 18.875c-2.027 1.218-2.229 3.045-.405 4.06z" fill="#d84b0e"/><path d="m222.729 217.662-40.331 23.544v-6.292l40.331-23.543z" fill="#4d4d4d"/><path d="m222.728 229.84-12.363 7.104v-6.292l12.363-7.104z" fill="#4d4d4d"/><path d="m205.704 239.785-23.306 13.395v-6.292l23.306-13.395z" fill="#4d4d4d"/><path d="m222.728 241.408-28.778 16.846v-6.292l28.778-16.845z" fill="#4d4d4d"/><path d="m189.288 260.893-6.89 4.059v-6.292l6.89-4.059z" fill="#4d4d4d"/><path d="m222.728 253.586-40.33 23.543v-6.291l40.33-23.544z" fill="#4d4d4d"/><path d="m222.728 265.763-12.363 7.307v-6.292l12.363-7.306z" fill="#4d4d4d"/><path d="m205.704 275.709-23.306 13.598v-6.495l23.306-13.395z" fill="#4d4d4d"/><path d="m222.728 277.535-28.778 16.643v-6.292l28.778-16.642z" fill="#4d4d4d"/><path d="m189.288 296.816-6.89 4.059v-6.291l6.89-4.06z" fill="#4d4d4d"/><path d="m222.728 288.901-40.33 23.543v-6.291l40.33-23.544z" fill="#4d4d4d"/><path d="m156.602 237.685-.589 46.81c-.156 2.388-1.993 3.192-4.359 1.75l-36.49-21.571c-2.367-1.443-4.438-4.587-4.282-6.975l.589-46.809c.156-2.388 1.992-3.193 4.359-1.751l36.49 21.572c2.366 1.442 4.438 4.587 4.282 6.974z" fill="#e6e6e6"/><path d="m123.241 301.112c-.318-.176-.515-.511-.515-.875v-7.01c0-.762.819-1.244 1.485-.875l15.991 8.869c.318.176.515.511.515.875v7.01c0 .762-.819 1.244-1.485.875z" fill="#e5e5e5"/><path d="m145.536 267.801c6.532-3.809 6.458-16.056-.165-27.354-6.622-11.299-17.286-17.371-23.817-13.562-6.532 3.808-6.458 16.055.165 27.354 6.622 11.298 17.286 17.37 23.817 13.562z" fill="url(#f)"/><path d="m148.642 257.166c0 5.017-1.712 8.54-4.495 10.248-.107 0-3.211 2.028-3.318 2.028-2.889 1.601-1.07-2.028-5.458-4.59-8.99-5.124-16.16-17.613-16.16-27.86 0-5.017-4.709-5.124-1.82-6.832.107 0 3.746-2.028 3.853-2.135 2.89-1.601 6.957-1.281 11.344 1.281 8.776 5.124 16.054 17.613 16.054 27.86z" fill="url(#h)"/><path d="m144.896 259.302c0 10.247-7.277 14.41-16.16 9.18-8.99-5.124-16.161-17.613-16.161-27.861 0-10.247 7.278-14.41 16.161-9.18 8.99 5.124 16.16 17.613 16.16 27.861z" fill="#d84b0e"/><path d="m129.485 231.014c-4.281-2.455-8.134-2.775-11.13-1.387 2.675-.748 6.1-.214 9.632 1.921 8.99 5.124 16.16 17.613 16.16 27.86 0 5.338-1.926 8.967-5.137 10.568 3.96-1.067 6.529-5.017 6.529-11.101.214-10.248-7.064-22.737-16.054-27.861z" fill="url(#i)"/><g fill="#fff"><path d="m136.334 240.087-1.498 1.708c.107.214.321.427.428.641l1.499-1.815c-.107-.107-.214-.32-.429-.534z"/><path d="m135.372 238.913c-.107-.107-.214-.32-.322-.427l-.107-.107-1.284 2.029.107.106c.107.214.321.321.428.534z"/><path d="m135.158 269.976h.214l-1.285-3.63c-.107 0-.214 0-.428 0l1.284 3.63z"/><path d="m133.98 237.312c-.107-.107-.321-.32-.428-.427l-.963 2.348.107.107c.107.107.321.32.428.427z"/><path d="m138.047 269.442-1.819-3.523c-.107 0-.214.107-.322.107l1.82 3.523c.107 0 .214-.107.321-.107z"/><path d="m136.549 269.869h.214l-1.499-3.629c-.107 0-.214 0-.321.106z"/><path d="m137.619 241.902-1.713 1.388c.108.213.322.427.429.64l1.712-1.388c-.107-.213-.214-.427-.428-.64z"/><path d="m133.659 269.869h.321l-.963-3.523c-.107 0-.321 0-.428-.106z"/><path d="m140.83 258.021v.533l2.782 1.708c0-.213 0-.32 0-.534z"/><path d="m128.843 268.161c.107.107.321.107.428.213l-.107-3.202c-.107-.107-.321-.107-.428-.214z"/><path d="m128.736 233.042-.107 2.989c.214.107.321.213.535.32l.107-3.096c-.214 0-.321-.106-.535-.213z"/><path d="m132.375 269.549-.75-3.523c-.107 0-.321-.107-.428-.107l.75 3.523c.214.107.321.107.428.107z"/><path d="m131.947 235.391-.75 2.561c.214.107.321.321.536.427l.642-2.561c-.107-.214-.321-.321-.428-.427z"/><path d="m136.977 244.784c.107.213.214.427.428.64l1.927-1.067c-.107-.214-.214-.427-.428-.641z"/><path d="m130.877 269.121-.429-3.415c-.107-.107-.321-.107-.428-.214l.428 3.416c.107 0 .215.107.429.213z"/><path d="m130.341 234.109-.428 2.776c.214.106.321.213.535.32l.428-2.882c-.214 0-.321-.107-.535-.214z"/><path d="m140.294 253.217c0 .213.107.427.107.64l2.676.641c0-.214-.107-.427-.107-.641z"/><path d="m139.224 268.908-2.033-3.416c-.107.107-.214.107-.321.214l2.033 3.415c.107-.106.214-.213.321-.213z"/><path d="m142.97 263.571c0-.107.107-.32.107-.427l-2.676-2.349c0 .107-.107.321-.107.427z"/><path d="m142.649 264.638-2.569-2.668c0 .106-.107.213-.107.427l2.569 2.668c0-.213 0-.213.107-.427z"/><path d="m140.83 257.06 2.782 1.387c0-.213 0-.32 0-.533l-2.782-1.388z"/><path d="m143.291 255.885-2.675-1.067c0 .213 0 .427.107.64l2.675 1.068c0-.214 0-.427-.107-.641z"/><path d="m140.616 259.941 2.782 2.029c0-.107 0-.321.107-.427l-2.782-2.135c-.107.213-.107.32-.107.533z"/><path d="m142.435 251.829-2.569-.32c.107.213.107.427.214.64v.107l2.569.32c-.107-.32-.107-.533-.214-.747z"/><path d="m140.295 268.054-2.141-3.309c-.107.107-.214.107-.214.214l2.248 3.309c-.107 0 0-.107.107-.214z"/><path d="m139.974 245.745-2.141.747c.107.213.214.427.321.747l2.034-.747c0-.32-.107-.534-.214-.747z"/><path d="m141.151 267.2-2.355-3.202c-.107.107-.107.214-.214.32l2.355 3.096c.107-.107.214-.107.214-.214z"/><path d="m140.937 247.773-2.248.32c.107.214.215.427.322.747l2.247-.427v-.106c-.214-.214-.214-.321-.321-.534z"/><path d="m141.793 249.801h-2.462c.107.213.107.427.214.64v.107h2.355v-.107c0-.32-.107-.427-.107-.64z"/><path d="m141.793 266.239c0-.106.107-.106.107-.213 0 0 0-.107.107-.107l-2.462-2.882c-.107.107-.107.214-.214.32z"/><path d="m116.107 247.346c0-.214-.107-.427-.107-.641l-2.675-.64c0 .213.107.427.107.64z"/><path d="m114.716 250.655h2.461c-.107-.214-.107-.427-.214-.641v-.106h-2.354v.106c0 .321 0 .534.107.641z"/><path d="m114.395 234.537 2.461 2.882c.107-.107.107-.214.214-.321l-2.568-2.882c0 .107-.107.107-.107.214.107 0 .107.107 0 .107z"/><path d="m115.251 233.255c0 .107 0 .107 0 0l2.247 3.203c.107-.107.107-.214.214-.32l-2.354-3.096c0 .107 0 .213-.107.213z"/><path d="m116.108 232.401 2.14 3.31c.107-.107.214-.107.214-.214l-2.247-3.309c.107.107 0 .107-.107.213z"/><path d="m118.569 254.071c-.107-.214-.214-.427-.321-.747l-2.033.747c.107.213.214.427.321.64z"/><path d="m113.967 248.627 2.568.32c-.107-.214-.107-.427-.214-.641v-.106l-2.568-.321c.107.321.214.534.214.748z"/><path d="m115.465 252.683 2.248-.32c-.107-.214-.215-.427-.322-.747l-2.247.427.107.106c.107.214.214.427.214.534z"/><path d="m127.666 267.414.107-2.989c-.214-.107-.321-.214-.535-.321l-.107 3.096c.214.107.321.214.535.214z"/><path d="m115.679 242.542c0-.213 0-.32 0-.533l-2.782-1.708v.534z"/><path d="m112.897 242.649 2.782 1.388c0-.214 0-.427 0-.534l-2.782-1.388z"/><path d="m113.111 244.571 2.675 1.067c0-.213.001-.427-.107-.64l-2.675-1.068c.107.214.107.427.107.641z"/><path d="m115.786 240.621-2.782-2.028c0 .107 0 .32-.107.427l2.782 2.135c.107-.214.107-.427.107-.534z"/><path d="m113.753 235.818 2.568 2.668c0-.107.107-.213.107-.427l-2.568-2.668c0 .213 0 .32-.107.427z"/><path d="m117.178 231.654 2.033 3.416c.107-.106.214-.106.321-.213l-2.033-3.416c-.107.107-.214.107-.321.213z"/><path d="m113.432 236.992c0 .106-.107.32-.107.427l2.675 2.348c0-.107.107-.32.107-.427z"/><path d="m122.85 230.694c-.107 0-.214 0-.321 0l.963 3.522c.107 0 .321 0 .428.107z"/><path d="m124.455 265.066.749-2.562c-.214-.107-.321-.321-.535-.427l-.642 2.562c.107.213.321.32.428.427z"/><path d="m122.529 263.251c.107.106.321.32.428.427l.963-2.349-.107-.107c-.107-.106-.321-.32-.428-.427z"/><path d="m124.027 230.907.749 3.523c.107 0 .321.107.428.107l-.749-3.523c-.107 0-.321-.107-.428-.107z"/><path d="m125.632 231.441.428 3.416c.107.107.321.107.428.213l-.428-3.416c-.214-.106-.321-.213-.428-.213z"/><path d="m119.532 255.672c-.107-.214-.214-.427-.428-.641l-1.926 1.068c.107.213.214.427.428.64z"/><path d="m126.06 266.347.428-2.776c-.214-.107-.321-.213-.535-.32l-.428 2.882c.214 0 .321.107.535.214z"/><path d="m127.238 232.188.107 3.202c.107.107.321.107.428.214l-.107-3.203c-.214-.106-.321-.213-.428-.213z"/><path d="m118.783 258.661 1.712-1.388c-.107-.213-.321-.427-.428-.64l-1.712 1.387c.107.214.321.427.428.641z"/><path d="m118.355 231.014 1.819 3.523c.107 0 .214-.107.321-.107l-1.819-3.523c-.107.107-.214.107-.321.107z"/><path d="m119.96 230.694c-.107 0-.214 0-.214 0l1.498 3.629c.107 0 .214 0 .321-.107z"/><path d="m121.03 261.65c.107.106.214.32.321.427l.107.106 1.284-2.028c-.107-.213-.321-.32-.428-.533z"/><path d="m121.244 230.587c-.107 0-.107 0-.214 0l1.284 3.629h.107.321l-1.284-3.629c-.107 0-.107 0-.214 0z"/><path d="m120.067 260.475 1.499-1.708c-.108-.213-.322-.427-.429-.64l-1.498 1.708c.107.107.214.32.321.427z"/></g><path d="m136.548 256.74c0 2.988-1.07 5.123-2.676 6.084l-6.1 1.601c-1.605.854-.535-1.067-2.997-2.348-4.816-2.669-8.668-9.073-8.668-14.304 0-2.562-2.569-2.669-.964-3.523l5.03-4.91c1.82-.96 4.174-.747 6.743.747 5.244 3.096 9.632 10.568 9.632 16.653z" fill="url(#j)"/><path d="m129.913 259.301c0 5.231-3.853 7.366-8.669 4.697-4.816-2.668-8.669-9.073-8.669-14.304 0-5.23 3.853-7.365 8.669-4.696 4.816 2.562 8.669 8.966 8.669 14.303z" fill="url(#k)"/><path d="m121.565 244.677c-2.354-1.28-4.388-1.494-5.993-.747 1.498-.427 3.318-.106 5.244.961 4.816 2.669 8.776 9.073 8.776 14.41 0 2.776-1.07 4.591-2.783 5.444 2.141-.533 3.532-2.561 3.532-5.764 0-5.123-3.96-11.635-8.776-14.304z" fill="url(#l)"/><path d="m129.592 242.329 5.993-3.95-3.104 7.046z" fill="#fff"/><path d="m128.111 316.546-59.6122-35.866-44.5215 26.473 13.2708 8.539-.8562 1.388-15.5183-10.034 47.6252-28.287.3211.213 57.6851 34.799v-6.511h1.606z" fill="#000" opacity=".1"/><path d="m202.92 423.825-24.509-14.411.857-1.387 23.652 13.983 34.889-21.029 29.431 17.613 59.184-36.827-28.896-16.652v-39.602l11.558-6.191.75 1.387-10.703 5.765v37.68l30.502 17.507-62.395 38.855-29.431-17.613z" fill="#000" opacity=".1"/><path d="m225.502 431.297-.428-.32-41.632-24.445.856-1.387 41.204 24.231 48.16-29.035-141.163-81.339v-8.326h1.605v7.365l142.769 82.3z" fill="#000" opacity=".1"/><path d="m350.612 302.029-3.104-1.601.107 5.231 2.997-1.815c.749-.427.749-1.388 0-1.815z" fill="#ca4005"/><path d="m267.99 225.387c-5.994-3.416-15.626-3.416-21.619 0-5.779 3.309-5.886 8.646-.428 12.062l22.047 71.092 71.919 40.349c3.639 2.135 8.241-.534 8.241-4.803v-66.075c0-5.017-2.676-9.607-7.064-12.169z" fill="url(#n)"/><path d="m277.408 303.417-3.532-2.135c-.321-.213-.642-.427-.749-.534v-65.968l66.675 36.507c2.034 1.174 3.425 3.416 3.425 5.764v63.086z" fill="url(#o)"/><path d="m267.99 225.387c-5.994-3.416-15.626-3.416-21.619 0-5.779 3.309-5.886 8.646-.428 12.062l22.047 71.092 72.989 41.203c3.639 2.135 8.241-.534 8.241-4.803v-66.075c0-5.017-2.675-9.607-7.063-12.169z" fill="#f16822"/><path d="m268.097 226.667c-5.993-3.415-15.625-3.415-21.619 0-5.779 3.309-3.21 10.461 2.248 13.984l19.371 69.17 71.92 40.35c3.638 2.135 8.24-.534 8.24-4.804v-66.075c0-5.017-2.675-9.607-7.063-12.168z" fill="url(#p)"/><path d="m268.097 226.667c-5.993-3.415-15.625-3.415-21.618 0-5.78 3.309-2.997 9.928 2.354 13.343l19.264 69.811 71.92 40.35c3.638 2.135 8.24-.534 8.24-4.804v-66.075c0-5.017-2.675-9.607-7.063-12.168z" fill="#d6480a"/><path d="m342.799 350.064c-.856 0-1.605-.213-2.354-.64l-71.384-40.029c-.214-.107-.321-.321-.429-.534l-19.157-69.491-.214-.213c-3.21-2.029-5.244-5.124-5.244-7.793 0-1.174.535-2.882 2.783-4.163 2.782-1.601 6.421-2.455 10.381-2.455s7.706.854 10.488 2.455l73.204 40.456c4.067 2.349 6.635 6.725 6.635 11.422v66.075c0 1.281-.535 2.455-1.391 3.416-.856 1.067-2.033 1.494-3.318 1.494zm-72.668-41.844 71.063 39.923c1.284.747 2.783.534 3.746-.427.642-.534.963-1.388.963-2.242v-66.075c0-4.163-2.247-8.006-5.779-10.034l-73.204-40.456c-2.568-1.494-5.993-2.242-9.632-2.242s-7.063.748-9.525 2.242c-1.284.747-1.926 1.708-2.033 2.882 0 2.028 1.819 4.697 4.495 6.405l.535.32c.214.107.321.32.321.427z" fill="#b086cc" opacity=".09"/><path d="m342.799 349.531c-.321 0-.535 0-.749-.107-.107 0-.214-.214-.214-.32 0-.107.214-.214.321-.214.428.107.963.107 1.499 0 .107 0 .321.107.321.214 0 .106-.107.32-.214.32-.321.107-.643.107-.964.107zm-2.14-.641h-.107l-1.391-.747c-.107-.107-.214-.213-.107-.32s.214-.214.321-.107l1.391.747c.107.107.214.214.107.32-.107 0-.107.107-.214.107zm4.495-.107c-.107 0-.214 0-.214-.106-.107-.107-.107-.32.107-.32.107-.107.321-.214.428-.321.214-.213.428-.533.642-.747.107-.107.214-.213.321-.107.107.107.214.214.107.321-.214.32-.428.64-.642.854-.107.106-.321.213-.428.426-.214 0-.214 0-.321 0zm-7.278-1.494h-.107l-1.391-.747c-.107-.107-.214-.214-.107-.32.107-.107.214-.214.321-.107l1.391.747c.107.107.214.214.107.32-.107.107-.214.107-.214.107zm8.883-1.174c-.214 0-.321-.107-.214-.32 0-.107 0-.321 0-.427v-1.068c0-.107.107-.213.214-.213s.214.106.214.213v1.068.533c0 .107-.107.214-.214.214zm-11.772-.427h-.107l-1.392-.747c-.107-.107-.214-.214-.107-.321.107-.106.214-.213.321-.106l1.392.747c.107.107.214.213.107.32 0 .107-.107.107-.214.107zm-2.783-1.495h-.107l-1.391-.747c-.107-.106-.214-.213-.107-.32s.214-.213.321-.107l1.391.748c.107.106.214.213.107.32 0 0-.107.106-.214.106zm14.555-1.28c-.107 0-.214-.107-.214-.214v-1.601c0-.107.107-.214.214-.214s.214.107.214.214v1.601c.107.107 0 .214-.214.214zm-17.338-.321h-.107l-1.391-.747c-.107-.107-.214-.213-.107-.32s.214-.214.321-.107l1.392.747c.107.107.214.214.107.321 0 .106-.107.106-.215.106zm-2.782-1.601h-.107l-1.391-.747c-.107-.107-.214-.214-.107-.32.107-.107.214-.214.321-.107l1.391.747c.107.107.214.214.107.32 0 .107-.107.107-.214.107zm20.12-1.281c-.107 0-.214-.107-.214-.213v-1.601c0-.107.107-.214.214-.214s.214.107.214.214v1.601c.107.106 0 .213-.214.213zm-22.903-.213h-.107l-1.391-.747c-.107-.107-.214-.214-.107-.321.107-.106.214-.213.321-.106l1.391.747c.107.106.214.213.107.32 0 0-.107.107-.214.107zm-2.782-1.601h-.107l-1.392-.748c-.107-.106-.214-.213-.107-.32s.214-.213.321-.107l1.392.748c.107.106.214.213.107.32-.107 0-.107.107-.214.107zm25.685-1.388c-.107 0-.214-.107-.214-.214v-1.601c0-.107.107-.213.214-.213s.214.106.214.213v1.601c.107.107 0 .214-.214.214zm-28.468-.214h-.107l-1.391-.747c-.107-.107-.214-.213-.107-.32s.214-.214.321-.107l1.391.747c.107.107.214.214.107.321-.107.106-.214.106-.214.106zm-2.889-1.601h-.108l-1.391-.747c-.107-.107-.214-.213-.107-.32s.214-.214.321-.107l1.392.747c.107.107.214.214.107.32 0 .107-.107.107-.214.107zm31.357-1.387c-.107 0-.214-.107-.214-.214v-1.601c0-.107.107-.214.214-.214s.214.107.214.214v1.601c.107.107 0 .214-.214.214zm-34.14-.107h-.107l-1.391-.747c-.107-.107-.214-.214-.107-.321.107-.106.214-.213.321-.106l1.391.747c.107.107.214.213.107.32 0 0-.107.107-.214.107zm-2.783-1.601h-.107l-1.391-.748c-.107-.106-.214-.213-.107-.32s.214-.213.321-.107l1.391.748c.107.106.214.213.107.32 0 .107-.107.107-.214.107zm36.923-1.495c-.107 0-.214-.107-.214-.213v-1.601c0-.107.107-.214.214-.214s.214.107.214.214v1.601c.107.106 0 .213-.214.213zm-39.705-.107h-.107l-1.392-.747c-.107-.107-.214-.213-.107-.32s.214-.213.321-.107l1.392.747c.107.107.214.214.107.321 0 .106-.107.106-.214.106zm-2.783-1.494h-.107l-1.391-.747c-.107-.107-.214-.214-.107-.32.107-.107.214-.214.321-.107l1.391.747c.107.107.214.214.107.32 0 0-.107.107-.214.107zm42.488-1.601c-.107 0-.214-.107-.214-.214v-1.601c0-.107.107-.213.214-.213s.214.106.214.213v1.601c.107.107 0 .214-.214.214zm-45.27 0h-.107l-1.392-.747c-.107-.107-.214-.214-.107-.321.107-.106.214-.213.321-.106l1.392.747c.107.107.214.213.107.32-.107 0-.107.107-.214.107zm-2.783-1.601h-.107l-1.391-.748c-.107-.106-.214-.213-.107-.32s.214-.213.321-.107l1.391.748c.107.106.214.213.107.32s-.214.107-.214.107zm-2.89-1.495h-.107l-1.391-.747c-.107-.107-.214-.213-.107-.32s.214-.214.321-.107l1.391.747c.107.107.214.214.107.321 0 0-.107.106-.214.106zm50.943-.106c-.107 0-.214-.107-.214-.214v-1.601c0-.107.107-.214.214-.214s.214.107.214.214v1.601c.107.107 0 .214-.214.214zm-53.725-1.495h-.107l-1.392-.747c-.107-.107-.214-.214-.107-.32.107-.107.214-.214.321-.107l1.392.747c.107.107.214.214.107.32 0 0-.107.107-.214.107zm-2.783-1.601h-.107l-1.391-.747c-.107-.107-.214-.214-.107-.321.107-.106.214-.213.321-.106l1.391.747c.107.107.214.213.107.32 0 .107-.107.107-.214.107zm56.508-.107c-.107 0-.214-.107-.214-.213v-1.601c0-.107.107-.214.214-.214s.214.107.214.214v1.601c.107.106 0 .213-.214.213zm-59.29-1.494h-.108l-1.391-.747c-.107-.107-.214-.214-.107-.321.107-.106.214-.213.321-.106l1.392.747c.107.107.214.213.107.32 0 .107-.107.107-.214.107zm-2.783-1.495h-.107l-1.391-.747c-.107-.107-.214-.213-.107-.32s.214-.214.321-.107l1.391.747c.107.107.214.214.107.321-.107 0-.107.106-.214.106zm62.073-.213c-.107 0-.214-.107-.214-.214v-1.601c0-.107.107-.213.214-.213s.214.106.214.213v1.601c.107.107 0 .214-.214.214zm-64.856-1.388h-.107l-1.391-.747c-.107-.107-.214-.214-.107-.32.107-.107.214-.214.321-.107l1.391.747c.107.107.214.214.107.32-.107.107-.214.107-.214.107zm-2.889-1.601h-.107l-1.392-.747c-.107-.107-.214-.214-.107-.32.107-.107.214-.214.321-.107l1.392.747c.107.107.214.213.107.32 0 .107-.107.107-.214.107zm67.745-.214c-.107 0-.214-.106-.214-.213v-1.601c0-.107.107-.214.214-.214s.214.107.214.214v1.601c.107.107 0 .213-.214.213zm-70.528-1.28h-.107l-1.391-.748c-.107-.106-.214-.213-.107-.32s.214-.213.321-.107l1.391.748c.107.106.214.213.107.32 0 0-.107.107-.214.107zm-2.782-1.602h-.108l-1.391-.747c-.107-.107-.214-.213-.107-.32s.214-.214.321-.107l1.392.747c.107.107.214.214.107.321 0 0-.107.106-.214.106zm73.31-.32c-.107 0-.214-.107-.214-.213v-1.602c0-.106.107-.213.214-.213s.214.107.214.213v1.602c.107.106 0 .213-.214.213zm-76.093-1.281h-.107l-1.177-.64c-.107-.107-.214-.214-.107-.32.107-.107.214-.214.321-.107l1.177.64c.107.107.214.214.107.32 0 .107-.107.107-.214.107zm76.093-1.921c-.107 0-.214-.107-.214-.214v-1.601c0-.107.107-.213.214-.213s.214.106.214.213v1.601c.107.107 0 .214-.214.214zm0-3.203c-.107 0-.214-.106-.214-.213v-1.601c0-.107.107-.214.214-.214s.214.107.214.214v1.601c.107.107 0 .213-.214.213zm0-3.202c-.107 0-.214-.107-.214-.213v-1.602c0-.106.107-.213.214-.213s.214.107.214.213v1.602c.107.106 0 .213-.214.213zm0-3.202c-.107 0-.214-.107-.214-.214v-1.601c0-.107.107-.213.214-.213s.214.106.214.213v1.601c.107.107 0 .214-.214.214zm0-3.203c-.107 0-.214-.106-.214-.213v-1.601c0-.107.107-.214.214-.214s.214.107.214.214v1.601c.107.107 0 .213-.214.213zm0-3.202c-.107 0-.214-.107-.214-.213v-1.602c0-.106.107-.213.214-.213s.214.107.214.213v1.602c.107.106 0 .213-.214.213zm0-3.202c-.107 0-.214-.107-.214-.214v-1.601c0-.107.107-.213.214-.213s.214.106.214.213v1.601c.107.107 0 .214-.214.214zm0-3.203c-.107 0-.214-.106-.214-.213v-1.601c0-.107.107-.214.214-.214s.214.107.214.214v1.601c.107.107 0 .213-.214.213zm0-3.202c-.107 0-.214-.107-.214-.213v-1.602c0-.106.107-.213.214-.213s.214.107.214.213v1.602c.107.106 0 .213-.214.213zm0-3.202c-.107 0-.214-.107-.214-.214 0-.533-.107-1.067-.214-1.601 0-.107.107-.32.214-.32s.321.107.321.213c.107.534.214 1.068.214 1.602 0 .213-.107.32-.321.32zm-.535-3.096c-.107 0-.214-.107-.214-.213-.107-.534-.321-.961-.535-1.495-.107-.106 0-.32.107-.32.107-.107.321 0 .321.107.214.533.428.96.642 1.494-.107.214-.107.32-.321.427zm-1.391-2.882c-.107 0-.214 0-.214-.107-.321-.427-.642-.854-.963-1.281-.107-.106-.107-.32 0-.427.107-.106.321-.106.428 0 .321.427.642.854.963 1.281.107.107 0 .321-.107.321 0 .213-.107.213-.107.213zm-2.034-2.455c-.107 0-.107 0-.214-.107-.428-.32-.749-.64-1.177-.96-.107-.107-.107-.214-.107-.321.107-.106.214-.106.321-.106.428.32.856.64 1.284 1.067.107.107.107.32 0 .427 0-.107-.107 0-.107 0zm-2.675-1.921h-.107l-1.392-.748c-.107-.106-.214-.213-.107-.32s.215-.213.322-.107l1.391.748c.107.106.214.213.107.32 0 .107-.107.107-.214.107zm-2.783-1.495h-.107l-1.391-.747c-.107-.107-.214-.214-.107-.32.107-.107.214-.214.321-.107l1.391.747c.107.107.214.214.107.32 0 0-.107.107-.214.107zm-2.782-1.601h-.107l-1.392-.747c-.107-.107-.214-.214-.107-.32.107-.107.214-.214.321-.107l1.392.747c.107.107.214.213.107.32s-.107.107-.214.107zm-2.89-1.494h-.107l-1.391-.748c-.107-.106-.214-.213-.107-.32s.214-.213.321-.107l1.391.748c.107.106.214.213.107.32 0 0-.107.107-.214.107zm-2.783-1.602h-.107l-1.391-.747c-.107-.107-.214-.213-.107-.32s.214-.214.321-.107l1.391.747c.107.107.214.214.107.321 0 .106-.107.106-.214.106zm-2.782-1.494h-.107l-1.392-.747c-.107-.107-.214-.214-.107-.321.107-.106.214-.213.322-.106l1.391.747c.107.107.214.213.107.32 0 0-.107.107-.214.107zm-2.783-1.601h-.107l-1.391-.747c-.107-.107-.214-.214-.107-.321.107-.106.214-.213.321-.106l1.391.747c.107.107.214.213.107.32s-.107.107-.214.107zm-2.782-1.495h-.107l-1.392-.747c-.107-.107-.214-.213-.107-.32s.214-.214.321-.107l1.392.747c.107.107.214.214.107.321-.107 0-.214.106-.214.106zm-2.89-1.601h-.107l-1.391-.747c-.107-.107-.214-.214-.107-.32.107-.107.214-.214.321-.107l1.391.747c.107.107.214.214.107.32 0 .107-.107.107-.214.107zm-2.783-1.494h-.107l-1.391-.747c-.107-.107-.214-.214-.107-.321.107-.106.214-.213.321-.106l1.391.747c.107.107.214.213.107.32 0 0-.107.107-.214.107zm-2.782-1.601h-.107l-1.392-.748c-.107-.106-.214-.213-.107-.32s.214-.213.322-.107l1.391.748c.107.106.214.213.107.32 0 .107-.107.107-.214.107zm-2.783-1.495h-.107l-1.391-.747c-.107-.107-.214-.214-.107-.32.107-.107.214-.214.321-.107l1.391.747c.107.107.214.214.107.32-.107 0-.214.107-.214.107zm-2.889-1.601h-.107l-1.392-.747c-.107-.107-.214-.214-.107-.32.107-.107.214-.214.321-.107l1.392.747c.107.107.214.213.107.32 0 .107-.107.107-.214.107zm-2.783-1.601h-.107l-1.391-.747c-.107-.107-.214-.214-.107-.321.107-.106.214-.213.321-.106l1.391.747c.107.107.214.213.107.32 0 .107-.107.107-.214.107zm-2.783-1.495h-.107l-1.391-.747c-.107-.107-.214-.213-.107-.32s.214-.214.321-.107l1.391.747c.107.107.214.214.107.321 0 0-.107.106-.214.106zm-2.782-1.601h-.107l-1.392-.747c-.107-.107-.214-.213-.107-.32s.214-.214.321-.107l1.392.747c.107.107.214.214.107.32-.107.107-.214.107-.214.107zm-2.89-1.494h-.107l-1.391-.747c-.107-.107-.214-.214-.107-.321.107-.106.214-.213.321-.106l1.391.747c.107.107.214.213.107.32 0 0-.107.107-.214.107zm-2.782-1.601h-.107l-1.392-.748c-.107-.106-.214-.213-.107-.32s.214-.213.321-.107l1.392.748c.107.106.214.213.107.32 0 .107-.107.107-.214.107zm-2.783-1.495h-.107l-1.391-.747c-.107-.107-.214-.213-.107-.32s.214-.214.321-.107l1.391.747c.107.107.214.214.107.32 0 0-.107.107-.214.107zm-41.418-1.281h-.107c-.428-.32-.856-.64-1.284-1.067-.107-.107-.107-.32 0-.427s.321-.107.428 0c.321.32.749.64 1.177.961.107.106.214.213.107.32s-.214.213-.321.213zm38.635-.32h-.107l-1.391-.747c-.107-.107-.214-.214-.107-.32.107-.107.214-.214.321-.107l1.391.747c.107.107.214.214.107.32-.107.107-.214.107-.214.107zm-2.889-1.494h-.107l-1.392-.748c-.107-.106-.214-.213-.107-.32s.214-.213.321-.107l1.392.748c.107.106.214.213.107.32 0 0-.107.107-.214.107zm-37.886-.534c-.107 0-.214 0-.214-.107-.214-.427-.536-.961-.643-1.494 0-.107 0-.321.215-.321.107 0 .321 0 .321.214.214.534.321.961.642 1.388.107.106 0 .32-.107.32s-.214 0-.214 0zm35.103-1.068h-.107l-1.391-.747c-.107-.107-.214-.213-.107-.32s.214-.213.321-.107l1.391.747c.107.107.214.214.107.321 0 .106-.107.106-.214.106zm-2.782-1.494h-.107l-1.392-.747c-.107-.107-.214-.214-.107-.32.107-.107.214-.214.321-.107l1.392.747c.107.107.214.214.107.32 0 0-.107.107-.214.107zm-33.285-.427c-.107 0-.214-.107-.214-.213-.107-.534-.107-1.068-.107-1.602 0-.106.107-.32.214-.32s.214.107.214.214c0 .533 0 1.067.107 1.601 0 .213-.107.32-.214.32zm30.502-1.174h-.107l-1.391-.747c-.107-.107-.214-.214-.107-.321.107-.106.214-.213.321-.106l1.391.747c.107.107.214.213.107.32s-.107.107-.214.107zm-2.89-1.495h-.107l-1.391-.747c-.107-.107-.214-.213-.107-.32s.214-.214.321-.107l1.391.747c.107.107.214.214.107.321 0 0-.107.106-.214.106zm-27.612-.533c-.107 0-.107 0 0 0-.214 0-.321-.214-.214-.321.107-.533.428-1.067.857-1.494.107-.107.214-.107.428 0 .107.107.107.214 0 .427-.321.427-.535.854-.749 1.281-.108.107-.215.107-.322.107zm24.83-1.068h-.107l-1.392-.747c-.107-.107-.214-.213-.107-.32s.214-.214.321-.107l1.392.747c.107.107.214.214.107.321 0 .106-.107.106-.214.106zm-22.903-1.281c-.107 0-.214 0-.214-.106-.107-.107 0-.321.107-.321.107-.106.214-.106.321-.213.321-.214.749-.427 1.177-.641.107-.106.321 0 .321.107.107.107 0 .32-.107.32-.428.214-.749.427-1.177.534-.107 0-.214.107-.214.107-.107.107-.107.213-.214.213zm20.12-.32h-.107c-.428-.213-.963-.427-1.391-.64-.107-.107-.214-.214-.107-.321.107-.106.214-.213.321-.106.535.213.963.427 1.498.747.107.107.214.213.107.32-.107 0-.214 0-.321 0zm-17.231-1.067c-.107 0-.214-.107-.214-.214s0-.32.214-.32c.536-.214 1.071-.32 1.606-.427.107 0 .321 0 .321.213 0 .107 0 .321-.214.321-.535.106-1.07.213-1.713.427.107 0 .107 0 0 0zm14.235-.107c-.536-.214-1.071-.32-1.606-.427-.107 0-.214-.214-.214-.32 0-.107.214-.214.321-.214.535.107 1.07.32 1.606.427.107 0 .214.214.214.32-.107.107-.214.214-.321.214zm-11.024-.747c-.107 0-.214-.107-.214-.214s.107-.32.214-.32c.535-.107 1.07-.214 1.605-.214.108 0 .322.107.322.214s-.107.32-.214.32c-.643.107-1.178.214-1.713.214zm7.92 0c-.535-.107-1.07-.107-1.606-.214-.107 0-.214-.107-.214-.32 0-.107.107-.214.322-.214.535 0 1.07.107 1.605.214.107 0 .214.107.214.32-.107.107-.214.214-.321.214zm-4.816-.321c-.107 0-.214-.106-.214-.213s.107-.32.214-.32h1.605c.107 0 .214.106.214.32 0 .107-.107.213-.214.213-.535 0-1.07 0-1.605 0z" fill="#fff"/><path d="m247.441 236.808c-2.782-1.601-5.03-4.483-5.244-6.511v81.766c-.214 2.455 2.033 5.764 5.244 7.686v.107l73.418 41.203c3.639 2.135 8.241-.534 8.241-4.803v-66.075c0-5.017-2.676-9.607-7.064-12.169z" fill="#ff63ce"/><path d="m246.478 267.23s-5.886 10.888-.428 14.411l22.047 26.9 71.919 40.349c3.639 2.135 8.241-.534 8.241-4.803v-21.99z" fill="#d6480a"/><path d="m327.174 262.213-61.859-34.585c-4.174-2.348-10.81-2.348-14.984 0-3.96 2.242-4.067 5.978-.321 8.326l15.305 47.608 57.043 32.237z" fill="#c7c7c7"/><path d="m291.214 242.252-25.899-14.624c-4.174-2.348-10.81-2.348-14.984 0-3.96 2.242-4.067 5.978-.321 8.326l15.305 47.608 25.899 14.944z" fill="#c7c7c7"/><path d="m328.458 265.096-62.395-35.333c-3.317-1.921-8.775-1.921-12.093 0-3.211 1.815-3.318 4.804-.214 6.832l12.414 37.788 62.181 34.905z" fill="#4d4d4d"/><path d="m293.675 245.562-27.612-15.799c-3.317-1.921-8.775-1.921-12.093 0-3.211 1.815-3.318 4.804-.214 6.832l12.414 37.788 27.612 16.118v-44.939z" fill="#4d4d4d"/><path d="m334.13 270.433-67.318-38.535c-3.317-1.921-8.562-1.921-11.879 0-3.104 1.815-3.211 4.697-.214 6.618l12.093 36.827 67.104 38.108z" fill="#e0e0e0"/><path d="m293.782 247.269-26.97-15.371c-3.317-1.921-8.562-1.921-11.879 0-3.104 1.815-3.211 4.697-.214 6.618l12.093 36.827 26.97 15.692z" fill="#e0e0e0"/><path d="m348.364 283.776-85.618-48.462c-2.569-1.495-6.743-1.495-9.311 0-2.462 1.387-2.569 3.736-.214 5.23l9.525 18.04 85.618 48.676z" fill="#4d4d4d"/><path d="m262.746 235.314c-2.568-1.495-6.742-1.495-9.311 0-1.498.854-2.14 2.028-1.819 3.202.214-.747.749-1.494 1.819-2.135 2.569-1.494 6.743-1.494 9.311 0l85.618 48.462v-1.067z" fill="#858585"/><path d="m344.298 305.019-55.331-31.597v-15.478c0-2.028 2.141-3.309 3.96-2.241l47.411 27.326c2.462 1.388 3.96 4.057 3.96 6.832z" fill="url(#q)"/><path d="m340.338 282.922-47.411-27.327c-1.284-.747-2.783-.213-3.532.854.749-.533 1.819-.64 2.783-.106l47.411 27.326c2.461 1.388 3.96 4.057 3.96 6.832v14.197l.642.427v-15.158c.107-2.989-1.391-5.551-3.853-7.045z" fill="url(#s)"/><path d="m338.198 294.451-11.345-6.512c-1.498-.854-2.782-3.202-2.782-5.23s1.177-2.989 2.782-2.028l11.345 6.511c1.498.854 2.783 3.202 2.783 5.23 0 2.029-1.178 2.989-2.783 2.029z" fill="#efefef"/><path d="m341.301 318.575-55.224-31.597v-15.478c0-2.028 2.14-3.309 3.96-2.241l47.411 27.326c2.461 1.388 3.96 4.057 3.96 6.832v15.158z" fill="url(#u)"/><path d="m337.341 296.586-47.304-27.327c-1.285-.747-2.783-.214-3.532.854.749-.534 1.819-.641 2.782-.107l47.412 27.327c2.461 1.387 3.959 4.056 3.959 6.831v14.197l.642.427v-15.157c0-2.989-1.498-5.658-3.959-7.045z" fill="url(#v)"/><path d="m335.307 308.114-11.344-6.512c-1.499-.854-2.783-3.202-2.783-5.23s1.177-2.989 2.783-2.028l11.344 6.511c1.498.854 2.783 3.202 2.783 5.231 0 1.921-1.285 2.882-2.783 2.028z" fill="#717171"/><path d="m324.284 312.704v-32.878l-70.849-39.175c-1.177-.641-1.82-1.601-1.927-2.455v32.023c-.107 1.068.536 2.135 1.927 2.882z" fill="url(#w)"/><path d="m304.699 309.715v-44.833l-50.729-28.074c-1.498-.854-2.354-2.028-2.461-3.202v43.765c-.108 1.388.642 2.776 2.461 3.843z" fill="#dadada"/><path d="m302.88 321.457v-56.361l-52.442-28.928c-1.926-1.068-2.889-2.455-2.996-3.95v54.974c-.214 1.708.856 3.416 2.996 4.697z" fill="#9f9f9f"/><path d="m324.498 277.798-74.702-41.097c-2.782-1.601-4.174-3.629-4.388-5.657v8.326c.214.107.428.32.642.427l22.047 70.024 63.465 35.44v-55.294c0-5.017-2.676-9.607-7.064-12.169z" fill="#d0d0d0"/><path d="m247.441 236.808c-2.782-1.601-5.03-4.483-5.244-6.511v81.766c-.214 2.455 2.033 5.764 5.244 7.686v.107l73.418 41.203c3.639 2.135 8.241-.534 8.241-4.803v-66.075c0-5.017-2.676-9.607-7.064-12.169z" fill="url(#x)"/><path d="m247.441 236.808c-2.782-1.601-5.03-4.483-5.244-6.511v81.766c-.214 2.455 2.033 5.764 5.244 7.686v.107l73.418 41.203c3.639 2.135 8.241-.534 8.241-4.803v-66.075c0-5.017-2.676-9.607-7.064-12.169z" fill="#d6480a"/><path d="m246.478 237.769c-2.782-1.601-4.174-3.63-4.388-5.658v81.767c-.214 2.455 1.178 4.91 4.388 6.831v.107l73.418 41.204c3.639 2.134 8.241-.534 8.241-4.804v-66.075c0-5.017-2.676-9.607-7.064-12.169z" fill="url(#y)"/><path d="m322.679 361.806c-.856 0-1.605-.213-2.355-.64l-72.775-40.883-.642-.427c-1.927-1.068-3.211-2.562-3.746-4.057-.107-.427.107-.854.535-.96.428-.107.856.106.963.533.428 1.175 1.391 2.242 3.104 3.203l.642.427 72.776 40.883c1.284.747 2.782.534 3.745-.427.643-.534.964-1.388.964-2.242v-66.075c0-4.163-2.248-8.005-5.78-10.034l-74.702-41.096c-.749-.427-1.498-.961-2.14-1.495-.321-.32-.428-.747-.107-1.174.321-.32.749-.427 1.177-.107.535.427 1.177.961 1.819 1.281l74.703 41.097c4.066 2.348 6.635 6.725 6.635 11.422v66.075c0 1.28-.535 2.455-1.391 3.415-1.071.854-2.248 1.281-3.425 1.281z" fill="#b086cc" opacity=".09"/><path d="m322.464 361.273c-.535 0-1.177-.214-1.712-.427-.107-.107-.214-.214-.107-.321.107-.106.214-.213.321-.106.428.213.963.32 1.391.32.107 0 .214.107.214.32.214.107.107.214-.107.214zm1.606-.214c-.107 0-.214-.107-.214-.213 0-.107 0-.321.107-.321.428-.213.856-.427 1.284-.747.107-.107.321-.107.428 0s.107.214 0 .32c-.535.427-.963.748-1.605.961zm-4.495-.961h-.107l-1.392-.747c-.107-.107-.214-.213-.107-.32s.214-.213.321-.107l1.392.747c.107.107.214.214.107.321-.107.106-.107.106-.214.106zm6.742-1.281c-.107 0 0 0 0 0-.214-.106-.321-.213-.214-.32.214-.427.214-.854.214-1.387v-.107c0-.107.107-.214.214-.214s.214.107.214.214v.107c0 .533-.107 1.067-.321 1.601.107.107 0 .106-.107.106zm-9.525-.32h-.107l-1.391-.747c-.107-.107-.214-.213-.107-.32s.214-.214.321-.107l1.391.747c.107.107.214.214.107.321-.107.106-.214.106-.214.106zm-2.889-1.494h-.107l-1.392-.747c-.107-.107-.214-.214-.107-.321.107-.106.214-.213.321-.106l1.392.747c.107.107.214.213.107.32 0 0-.107.107-.214.107zm12.628-1.281c-.107 0-.214-.107-.214-.214v-1.601c0-.106.107-.213.214-.213s.214.107.214.213v1.601c.107.107 0 .214-.214.214zm-15.411-.32h-.107l-1.391-.748c-.107-.106-.214-.213-.107-.32.107-.106.214-.213.321-.107l1.391.748c.107.106.214.213.107.32 0 .107-.107.107-.214.107zm-2.783-1.601h-.107l-1.391-.748c-.107-.106-.214-.213-.107-.32s.214-.213.321-.107l1.391.748c.107.106.214.213.107.32 0 .107-.107.107-.214.107zm18.194-1.281c-.107 0-.214-.107-.214-.214v-1.601c0-.107.107-.214.214-.214s.214.107.214.214v1.601c.107.107 0 .214-.214.214zm-20.976-.214h-.107l-1.392-.747c-.107-.107-.214-.214-.107-.32.107-.107.214-.214.321-.107l1.392.747c.107.107.214.214.107.32 0 0-.107.107-.214.107zm-2.783-1.601h-.107l-1.391-.747c-.107-.107-.214-.214-.107-.321.107-.106.214-.213.321-.106l1.391.747c.107.107.214.213.107.32 0 0-.107.107-.214.107zm23.759-1.388c-.107 0-.214-.106-.214-.213v-1.601c0-.107.107-.214.214-.214s.214.107.214.214v1.601c.107.107 0 .213-.214.213zm-26.541-.213h-.107l-1.392-.747c-.107-.107-.214-.214-.107-.321.107-.106.214-.213.321-.106l1.392.747c.107.107.214.213.107.32s-.107.107-.214.107zm-2.783-1.601h-.107l-1.391-.748c-.107-.106-.214-.213-.107-.32s.214-.213.321-.107l1.391.748c.107.106.214.213.107.32s-.214.107-.214.107zm29.324-1.388c-.107 0-.214-.107-.214-.214v-1.601c0-.106.107-.213.214-.213s.214.107.214.213v1.601c.107.107 0 .214-.214.214zm-32.214-.107h-.107l-1.391-.747c-.107-.107-.214-.214-.107-.32.107-.107.214-.214.321-.107l1.391.747c.107.107.214.214.107.32 0 0-.107.107-.214.107zm-2.782-1.601h-.107l-1.392-.854c-.107-.107-.214-.213-.107-.32s.214-.214.322-.107l1.391.747c.107.107.214.214.107.321 0 .213-.107.213-.214.213zm34.996-1.494c-.107 0-.214-.107-.214-.214v-1.601c0-.107.107-.214.214-.214s.214.107.214.214v1.601c.107.107 0 .214-.214.214zm-37.779-.107h-.107l-1.391-.747c-.107-.107-.214-.214-.107-.321.107-.106.214-.213.321-.106l1.391.747c.107.107.214.213.107.32 0 .107-.107.107-.214.107zm-2.782-1.495h-.107l-1.392-.747c-.107-.107-.214-.213-.107-.32s.214-.214.321-.107l1.392.747c.107.107.214.214.107.321 0 0-.107.106-.214.106zm-2.783-1.601h-.107l-1.391-.747c-.107-.107-.214-.213-.107-.32s.214-.214.321-.107l1.391.747c.107.107.214.214.107.32 0 0-.107.107-.214.107zm43.344 0c-.107 0-.214-.107-.214-.213v-1.601c0-.107.107-.214.214-.214s.214.107.214.214v1.601c.107.106 0 .213-.214.213zm-46.127-1.601h-.107l-1.391-.747c-.107-.107-.214-.214-.107-.32.107-.107.214-.214.321-.107l1.391.747c.107.107.214.214.107.32-.107.107-.107.107-.214.107zm-2.782-1.601h-.107l-1.392-.747c-.107-.107-.214-.214-.107-.321.107-.106.215-.213.322-.106l1.391.747c.107.107.214.213.107.32s-.214.107-.214.107zm48.909 0c-.107 0-.214-.107-.214-.214v-1.601c0-.107.107-.213.214-.213s.214.106.214.213v1.601c.107.107 0 .214-.214.214zm-51.799-1.495h-.107l-1.391-.747c-.107-.106-.214-.213-.107-.32s.214-.213.321-.107l1.391.747c.107.107.214.214.107.321 0 0-.107.106-.214.106zm-2.782-1.601h-.107l-1.392-.747c-.107-.107-.214-.213-.107-.32s.214-.214.321-.107l1.392.747c.107.107.214.214.107.321 0 0-.107.106-.214.106zm54.581-.106c-.107 0-.214-.107-.214-.214v-1.601c0-.107.107-.214.214-.214s.214.107.214.214v1.601c.107.107 0 .214-.214.214zm-57.364-1.495h-.107l-1.391-.747c-.107-.107-.214-.214-.107-.32.107-.107.214-.214.321-.107l1.391.747c.107.107.214.214.107.32 0 .107-.107.107-.214.107zm-2.783-1.601h-.107l-1.391-.747c-.107-.107-.214-.214-.107-.32.107-.107.214-.214.321-.107l1.391.747c.107.107.214.213.107.32 0 .107-.107.107-.214.107zm60.147-.107c-.107 0-.214-.107-.214-.213v-1.601c0-.107.107-.214.214-.214s.214.107.214.214v1.601c.107.106 0 .213-.214.213zm-62.929-1.387h-.107l-1.392-.748c-.107-.106-.214-.213-.107-.32s.214-.213.322-.107l1.391.748c.107.106.214.213.107.32 0 0-.107.107-.214.107zm-2.783-1.602h-.107l-1.391-.747c-.107-.107-.214-.213-.107-.32s.214-.214.321-.107l1.391.747c.107.107.214.214.107.321-.107.106-.107.106-.214.106zm65.712-.213c-.107 0-.214-.107-.214-.214v-1.601c0-.107.107-.213.214-.213s.214.106.214.213v1.601c.107.107 0 .214-.214.214zm-68.494-1.388h-.107l-1.392-.747c-.107-.107-.214-.214-.107-.32.107-.107.214-.214.321-.107l1.392.747c.107.107.214.214.107.32-.107.107-.214.107-.214.107zm-2.89-1.494h-.107l-1.391-.747c-.107-.107-.214-.214-.107-.321.107-.106.214-.213.321-.106l1.391.747c.107.107.214.213.107.32 0 0-.107.107-.214.107zm71.384-.32c-.107 0-.214-.107-.214-.214v-1.601c0-.107.107-.214.214-.214s.214.107.214.214v1.601c.107.107 0 .214-.214.214zm-74.167-1.281h-.107l-1.391-.748c-.107-.106-.214-.213-.107-.32s.214-.213.321-.107l1.391.748c.107.106.214.213.107.32 0 0-.107.107-.214.107zm-2.782-1.602h-.107l-1.392-.747c-.107-.107-.214-.213-.107-.32s.214-.214.322-.107l1.391.747c.107.107.214.214.107.321 0 .106-.107.106-.214.106zm76.949-.32c-.107 0-.214-.107-.214-.213v-1.601c0-.107.107-.214.214-.214s.214.107.214.214v1.601c.107.106 0 .213-.214.213zm-79.732-1.281h-.107c-.535-.32-.963-.64-1.284-.96-.107-.107-.107-.214 0-.427.107-.107.321-.107.428 0 .321.32.749.64 1.284.96.107.107.214.214.107.321-.214.106-.321.106-.428.106zm79.732-1.921c-.107 0-.214-.107-.214-.214v-1.601c0-.107.107-.213.214-.213s.214.106.214.213v1.601c.107.107 0 .214-.214.214zm-82.086-.214c-.107 0-.214 0-.214-.106-.321-.427-.535-.854-.642-1.281 0-.107 0-.321.214-.321.107 0 .321 0 .321.214.107.427.321.747.535 1.174.107.107.107.32-.107.32 0 0 0 0-.107 0zm82.086-2.988c-.107 0-.214-.107-.214-.214v-1.601c0-.107.107-.214.214-.214s.214.107.214.214v1.601c.107.107 0 .214-.214.214zm0-3.203c-.107 0-.214-.107-.214-.213v-1.601c0-.107.107-.214.214-.214s.214.107.214.214v1.601c.107.106 0 .213-.214.213zm0-3.202c-.107 0-.214-.107-.214-.214v-1.601c0-.107.107-.213.214-.213s.214.106.214.213v1.601c.107.107 0 .214-.214.214zm0-3.202c-.107 0-.214-.107-.214-.214v-1.601c0-.107.107-.214.214-.214s.214.107.214.214v1.601c.107.107 0 .214-.214.214zm0-3.203c-.107 0-.214-.107-.214-.213v-1.601c0-.107.107-.214.214-.214s.214.107.214.214v1.601c.107.106 0 .213-.214.213zm0-3.202c-.107 0-.214-.107-.214-.214v-1.601c0-.107.107-.213.214-.213s.214.106.214.213v1.601c.107.107 0 .214-.214.214zm0-3.203c-.107 0-.214-.106-.214-.213v-1.601c0-.107.107-.214.214-.214s.214.107.214.214v1.601c.107.107 0 .213-.214.213zm0-3.202c-.107 0-.214-.107-.214-.213v-.427c0-.427 0-.748-.107-1.174 0-.107.107-.321.214-.321s.321.107.321.214c0 .427.107.854.107 1.281v.427c0 .106-.107.213-.321.213zm-.321-3.202c-.107 0-.214-.107-.214-.214-.107-.533-.321-.96-.428-1.494 0-.107 0-.32.107-.32s.321 0 .321.106c.214.534.321 1.068.428 1.602.107.106 0 .32-.214.32.107 0 .107 0 0 0zm-1.07-2.989c-.107 0-.214 0-.214-.107-.214-.427-.535-.96-.856-1.281-.107-.106-.107-.32.107-.32.107-.107.321-.107.321.107.321.427.642.96.856 1.387.107.107 0 .321-.107.321 0-.107-.107-.107-.107-.107zm-1.819-2.562c-.107 0-.107 0-.214-.107-.322-.427-.75-.747-1.178-1.067-.107-.107-.107-.214 0-.427.107-.107.214-.107.428 0 .428.32.857.747 1.178 1.174.107.107.107.32 0 .427-.107-.107-.214 0-.214 0zm-2.462-2.135h-.107c-.107-.107-.321-.213-.428-.32l-.963-.534c-.107-.106-.214-.213-.107-.32s.214-.213.321-.107l.963.534c.214.107.321.213.428.32s.214.214.107.32c-.107.107-.107.107-.214.107zm-2.783-1.494h-.107l-1.391-.747c-.107-.107-.214-.214-.107-.321.107-.106.214-.213.321-.106l1.391.747c.107.107.215.213.107.32-.107 0-.107.107-.214.107zm-2.889-1.601h-.107l-1.391-.748c-.108-.106-.215-.213-.108-.32.108-.107.215-.213.322-.107l1.391.748c.107.106.214.213.107.32 0 .107-.107.107-.214.107zm-2.783-1.495h-.107l-1.391-.747c-.107-.107-.214-.214-.107-.32.107-.107.214-.214.321-.107l1.391.747c.107.107.214.214.107.32 0 0-.107.107-.214.107zm-2.782-1.601h-.107l-1.392-.747c-.107-.107-.214-.214-.107-.32.107-.107.214-.214.321-.107l1.392.747c.107.107.214.214.107.32 0 .107-.107.107-.214.107zm-2.783-1.494h-.107l-1.391-.748c-.107-.106-.214-.213-.107-.32s.214-.213.321-.107l1.391.748c.107.106.214.213.107.32-.107 0-.214.107-.214.107zm-2.89-1.602h-.107l-1.391-.747c-.107-.107-.214-.213-.107-.32s.214-.214.321-.107l1.391.747c.107.107.215.214.107.321 0 .106-.107.106-.214.106zm-2.782-1.494h-.107l-1.391-.747c-.108-.107-.215-.214-.108-.32.108-.107.215-.214.322-.107l1.391.747c.107.107.214.214.107.32 0 0-.107.107-.214.107zm-2.783-1.601h-.107l-1.391-.747c-.107-.107-.214-.214-.107-.321.107-.106.214-.213.321-.106l1.391.747c.107.107.214.213.107.32 0 .107-.107.107-.214.107zm-2.782-1.495h-.107l-1.392-.747c-.107-.107-.214-.213-.107-.32s.214-.214.321-.107l1.392.747c.107.107.214.214.107.321-.107 0-.214.106-.214.106zm-2.89-1.601h-.107l-1.391-.747c-.107-.107-.214-.213-.107-.32s.214-.214.321-.107l1.391.747c.107.107.214.214.107.321 0 .106-.107.106-.214.106zm-2.783-1.494h-.107l-1.391-.747c-.107-.107-.214-.214-.107-.321.107-.106.214-.213.321-.106l1.391.747c.107.107.215.213.107.32 0 0-.107.107-.214.107zm-2.782-1.601h-.107l-1.391-.748c-.108-.106-.215-.213-.108-.32s.215-.213.322-.107l1.391.748c.107.106.214.213.107.32s-.107.107-.214.107zm-2.89-1.495h-.107l-1.391-.747c-.107-.107-.214-.213-.107-.32s.214-.214.321-.107l1.391.747c.107.107.214.214.107.32 0 0-.107.107-.214.107zm-2.782-1.601h-.107l-1.392-.747c-.107-.107-.214-.214-.107-.32.107-.107.214-.214.321-.107l1.392.747c.107.107.214.214.107.32 0 .107-.107.107-.214.107zm-2.783-1.494h-.107l-1.391-.748c-.107-.106-.214-.213-.107-.32s.214-.213.321-.107l1.391.748c.107.106.214.213.107.32 0 0-.107.107-.214.107zm-2.783-1.602h-.107l-1.391-.747c-.107-.106-.214-.213-.107-.32s.214-.213.321-.107l1.391.747c.107.107.214.214.107.321-.107.106-.107.106-.214.106zm-2.889-1.494h-.107l-1.392-.747c-.107-.107-.214-.214-.107-.32.107-.107.215-.214.322-.107l1.391.747c.107.107.214.214.107.32 0 0-.107.107-.214.107zm-2.783-1.601h-.107l-1.391-.747c-.107-.107-.214-.214-.107-.321.107-.106.214-.213.321-.106l1.391.747c.107.107.214.213.107.32 0 .107-.107.107-.214.107zm-2.782-1.495h-.107l-1.392-.747c-.107-.107-.214-.213-.107-.32s.214-.213.321-.107l1.392.747c.107.107.214.214.107.321 0 0-.107.106-.214.106zm-2.783-1.601h-.107l-1.391-.747c-.107-.107-.214-.213-.107-.32s.214-.214.321-.107l1.391.747c.107.107.214.214.107.321-.107.106-.214.106-.214.106zm-2.89-1.494h-.107l-1.391-.747c-.107-.107-.214-.214-.107-.321.107-.106.214-.213.321-.106l1.391.747c.107.107.214.213.107.32 0 0-.107.107-.214.107zm-2.782-1.601h-.107l-1.392-.748c-.107-.106-.214-.213-.107-.32s.215-.213.322-.107l1.391.748c.107.106.214.213.107.32 0 .107-.107.107-.214.107zm-2.783-1.495h-.107l-1.391-.747c-.107-.107-.214-.213-.107-.32s.214-.214.321-.107l1.391.747c.107.107.214.214.107.321 0 0-.107.106-.214.106zm-2.782-1.601h-.107l-1.392-.747c-.107-.107-.214-.214-.107-.32.107-.107.214-.214.321-.107l1.392.747c.107.107.214.214.107.32-.107.107-.214.107-.214.107zm-2.89-1.494h-.107l-1.391-.748c-.107-.106-.214-.213-.107-.32s.214-.213.321-.107l1.391.748c.107.106.214.213.107.32 0 0-.107.107-.214.107zm-2.783-1.602h-.107l-1.391-.747c-.107-.106-.214-.213-.107-.32s.214-.213.321-.107l1.391.748c.107.106.214.213.107.32 0 .106-.107.106-.214.106zm-2.782-1.601h-.107c-.428-.32-.856-.64-1.284-.96-.108-.107-.108-.214 0-.427.107-.107.214-.107.428 0l1.284.96c.107.107.107.214.107.321-.214.106-.321.106-.428.106z" fill="#fff"/><path d="m304.057 312.384c0-5.338 5.779-8.753 10.488-6.085l11.345 6.298c1.712.961 3.852 1.068 5.672.107l19.692-9.821v16.225c0 1.281-.749 2.456-1.819 3.096l-17.98 9.821c-1.82.96-3.96.96-5.779 0l-14.128-7.366c-4.709-2.348-7.491-7.045-7.491-12.275z" fill="#ca4005"/><path d="m328.458 330.637c-.642 0-1.284-.107-1.819-.427l-14.127-6.725c-3.853-1.815-6.314-5.444-6.314-9.5 0-2.776 2.568-4.483 4.923-4.483.856 0 1.605.213 2.354.533l11.345 5.764c1.177.641 2.568.961 4.066.961 1.285 0 2.569-.32 3.639-.747l16.589-7.579v11.635c0 .427-.321.961-.749 1.174l-17.98 8.967c-.642.32-1.285.427-1.927.427z" fill="#f16822"/><path d="m328.458 332.024c-.856 0-1.713-.213-2.462-.533l-14.127-7.045c-4.281-2.135-6.956-6.405-6.956-10.995 0-3.629 3.21-5.978 6.207-5.978 1.07 0 2.033.214 2.997.747l11.344 5.978c1.927 1.068 4.495 1.068 6.529.107l18.514-8.86c.429-.213.857 0 1.071.427s0 .854-.428 1.067l-18.515 8.86c-2.462 1.174-5.566 1.068-7.92-.213l-11.344-5.978c-.75-.427-1.499-.534-2.248-.534-2.247 0-4.602 1.708-4.602 4.377 0 4.056 2.355 7.686 6.1 9.607l14.127 7.045c1.071.534 2.462.534 3.532 0l19.799-10.247c.429-.214.857 0 1.071.32.214.427 0 .854-.321 1.067l-19.8 10.248c-.856.32-1.712.533-2.568.533z" fill="#b086cc" opacity=".09"/><path d="m328.458 331.491c-.643 0-1.178-.107-1.713-.32-.107 0-.214-.214-.214-.321 0-.106.214-.213.321-.213.428.107.963.213 1.392.213.107 0 .321.107.321.214.107.213 0 .427-.107.427zm1.605-.32c-.107 0-.214-.107-.214-.214s0-.32.107-.32c.214-.107.321-.107.535-.214l.856-.427c.107-.106.321 0 .321.107.107.107 0 .32-.107.32l-.856.427c-.214.107-.428.214-.642.321zm-4.602-.641h-.107l-1.391-.747c-.107-.107-.214-.213-.107-.32s.214-.214.321-.107l1.391.747c.107.107.214.214.107.32-.107 0-.107.107-.214.107zm7.385-.854c-.107 0-.215 0-.215-.106-.107-.107.001-.321.108-.321l1.391-.747c.107-.107.321 0 .321.107.107.107 0 .32-.107.32l-1.391.747s0 0-.107 0zm-10.275-.64h-.107l-1.391-.747c-.107-.107-.214-.214-.107-.321.107-.106.214-.213.321-.106l1.391.747c.107.107.214.213.107.32 0 .107-.107.107-.214.107zm13.164-.747c-.107 0-.214 0-.214-.107-.107-.107 0-.32.107-.32l1.391-.748c.107-.106.322 0 .322.107.107.107 0 .32-.108.32l-1.391.748c0-.107-.107 0-.107 0zm-16.053-.641h-.107l-1.392-.747c-.107-.107-.214-.214-.107-.32.107-.107.214-.214.321-.107l1.392.747c.107.107.214.214.107.32 0 0-.107.107-.214.107zm18.943-.854c-.107 0-.214 0-.214-.107-.107-.106 0-.32.107-.32l1.391-.747c.107-.107.321 0 .321.107.107.106 0 .32-.107.32l-1.391.747zm-21.833-.534h-.107l-1.391-.747c-.107-.107-.214-.213-.107-.32s.214-.214.321-.107l1.391.747c.107.107.214.214.107.321 0 0-.107.106-.214.106zm24.615-.96c-.107 0-.214 0-.214-.107-.107-.107 0-.32.107-.32l1.392-.747c.107-.107.321 0 .321.106.107.107 0 .321-.107.321l-1.392.747s0 0-.107 0zm-27.505-.534h-.107l-1.391-.747c-.107-.107-.214-.214-.107-.32.107-.107.214-.214.321-.107l1.392.747c.107.107.214.214.107.32 0 .107-.108.107-.215.107zm30.395-.961c-.107 0-.214 0-.214-.106-.107-.107 0-.321.107-.321l1.391-.747c.107-.107.321 0 .321.107.107.107 0 .32-.107.32l-1.391.747zm-33.177-.533h-.107c-.428-.321-.856-.641-1.284-.961-.107-.107-.107-.214 0-.427.107-.107.214-.107.428 0 .428.32.856.64 1.284.961.107.106.214.213.107.32-.321.107-.321.107-.428.107zm36.067-.961c-.107 0-.214 0-.214-.107-.107-.107 0-.32.107-.32l1.391-.747c.107-.107.321 0 .321.106.107.107 0 .321-.107.321l-1.391.747c-.107 0-.107 0-.107 0zm-38.529-1.068c-.107 0-.107 0-.214-.106-.321-.427-.749-.854-1.07-1.281-.107-.107 0-.32.107-.32.107-.107.321 0 .321.106.321.427.642.854.963 1.174.107.107.107.321 0 .427zm-1.819-2.668c-.107 0-.214-.107-.214-.107-.214-.534-.428-.961-.642-1.494 0-.107 0-.321.214-.321.107 0 .321 0 .321.214.214.534.321.961.642 1.494.107.107 0 .321-.107.321-.107-.107-.214-.107-.214-.107zm21.94-2.562c-.321 0-.642 0-.964-.107-.107 0-.214-.107-.214-.32 0-.107.107-.214.321-.214.536.107 1.071.107 1.499 0 .214 0 .321.107.321.214s-.107.32-.214.32c-.321.107-.535.107-.749.107zm2.247-.32c-.107 0-.214-.107-.214-.214s0-.32.214-.32c.428-.107.749-.214 1.177-.427l.321-.107c.108-.106.322 0 .322.107.107.107 0 .32-.107.32l-.322.107c-.428.32-.856.427-1.391.534zm-4.709 0c-.107 0 0 0 0 0-.535-.107-.963-.321-1.391-.534l-.214-.107c-.107-.106-.214-.213-.107-.32s.214-.213.321-.107l.214.107c.428.213.749.427 1.177.534.107 0 .214.213.214.32 0 0-.107.107-.214.107zm-20.548-.107c-.107 0-.214-.107-.214-.214-.107-.533-.107-1.067-.214-1.601 0-.106.107-.32.214-.32s.321.107.321.214c0 .533.107 1.067.214 1.601 0 .106-.107.32-.321.32.107 0 .107 0 0 0zm28.254-1.174c-.107 0-.214-.107-.214-.107-.107-.107 0-.32.107-.32l1.498-.641c.107-.106.321 0 .321.107.107.107 0 .32-.107.32l-1.498.641c-.107 0-.107 0-.107 0zm-10.595-.107h-.107l-1.392-.747c-.107-.107-.214-.214-.107-.32.107-.107.214-.214.321-.107l1.392.747c.107.107.214.214.107.32 0 0-.107.107-.214.107zm13.484-1.174c-.107 0-.214-.107-.214-.107-.107-.107 0-.32.107-.32l1.499-.641c.107-.106.321 0 .321.107.107.107 0 .32-.107.32l-1.499.641c-.107-.107-.107 0-.107 0zm-16.374-.32h-.107l-1.391-.748c-.107-.106-.214-.213-.107-.32s.214-.213.321-.107l1.391.748c.107.106.214.213.107.32 0 0-.107.107-.214.107zm-14.769-.427c-.214 0-.321-.214-.214-.321.107-.533.321-1.067.642-1.601.107-.107.214-.107.321-.107.107.107.214.214.107.321-.321.427-.428.854-.642 1.387 0 .321-.107.321-.214.321zm34.033-.641c-.107 0-.214-.107-.214-.107-.107-.106 0-.32.107-.32l1.498-.64c.107-.107.321 0 .321.106.107.107 0 .321-.107.321l-1.498.64c-.107-.107-.107 0-.107 0zm-22.047-.427h-.107l-1.391-.747c-.107-.107-.214-.214-.107-.32.107-.107.214-.214.321-.107l1.391.747c.107.107.214.214.107.32 0 0-.107.107-.214.107zm24.937-.961c-.107 0-.214-.106-.214-.106-.107-.107 0-.321.107-.321l1.498-.64c.107-.107.321 0 .321.107.107.107 0 .32-.107.32l-1.498.64zm-27.826-.64h-.107l-1.178-.64c-.107 0-.107-.107-.214-.107-.107-.107-.214-.214-.107-.32.107-.107.214-.214.321-.107.107 0 .107.107.214.107l1.178.64c.107.107.214.214.107.32 0 .107-.107.107-.214.107zm-7.385 0c-.107 0-.107 0-.214-.107-.107-.106-.107-.32 0-.427.428-.32.856-.64 1.391-.854.107-.106.321 0 .321.107.107.107 0 .32-.107.32-.428.214-.963.427-1.284.748 0 .213-.107.213-.107.213zm38.1-.747c-.107 0-.214-.107-.214-.107-.107-.107 0-.32.107-.32l1.499-.641c.107-.106.321 0 .321.107.107.107 0 .32-.107.32l-1.499.641zm-33.605-.427c-.321 0-.642-.107-.963-.107-.214 0-.428 0-.642 0-.107 0-.321-.107-.321-.213 0-.107.107-.321.214-.321h.749c.321 0 .642 0 .963.107.107 0 .214.214.214.32 0 .107-.107.214-.214.214zm36.495-.961c-.107 0-.214-.107-.214-.107-.107-.106 0-.32.107-.32l1.177-.534c.107-.106.321 0 .321.107.107.107 0 .32-.107.32l-1.177.534z" fill="#fff"/><path d="m304.164 313.344c0-5.337 5.779-8.753 10.488-6.084l11.345 6.298c1.712.96 3.852 1.067 5.672.107l19.585-9.821v-.961l-19.692 9.821c-1.82.854-3.96.854-5.672-.107l-11.345-6.298c-4.709-2.562-10.488.747-10.488 6.085 0 .64 0 1.174.107 1.814 0-.32 0-.533 0-.854z" fill="#b04212"/><path d="m317.114 318.041c0 1.387-.429 2.241-1.178 2.775l-.963.641c-.749.426-.321-.534-1.498-1.281-2.355-1.388-4.281-4.697-4.281-7.473 0-1.387-1.284-1.387-.535-1.814l1.177-.641c.749-.427 1.819-.32 2.997.321 2.354 1.387 4.281 4.696 4.281 7.472z" fill="#e5e5e5"/><path d="m315.936 318.681c0 2.775-1.926 3.843-4.281 2.455-2.354-1.388-4.281-4.697-4.281-7.472s1.927-3.843 4.281-2.455c2.355 1.388 4.281 4.697 4.281 7.472z" fill="#e6e6e6"/><path d="m311.869 311.102c-1.284-.747-2.355-.747-3.104-.213.749-.214 1.606 0 2.569.533 2.354 1.388 4.281 4.697 4.281 7.473 0 1.28-.428 2.241-1.177 2.668 1.07-.32 1.819-1.281 1.819-2.989 0-2.775-1.926-6.084-4.388-7.472z" fill="#4d4d4d"/><path d="m128.111 313.878-59.6122-35.866-44.5215 26.472 13.2708 8.54-.8562 1.388-15.5183-10.034 47.6252-28.288.3211.214 57.6851 34.799v-10.579h1.606z" fill="url(#z)"/><path d="m155.08 422.224 53.512-30.743c5.993-3.522 5.244-9.5-1.712-13.556l-125.7525-72.373c-6.9564-4.057-17.5517-4.483-23.545-.961l-53.51149 30.743c-5.99328 3.522-5.24412 9.5 1.71237 13.556l125.75162 72.373c6.957 4.056 17.552 4.483 23.545.961z" fill="url(#A)"/><path d="m155.08 421.369 53.512-30.742c2.675-1.601 4.067-3.629 4.067-5.764 0-.214 0-4.377 0-4.59-.214-2.562-2.141-1.174-5.78-3.203l-125.7515-72.479c-6.9565-4.056-17.5518-4.483-23.5451-.961l-53.51144 30.743c-2.67557 1.601-4.06687064-1.175-4.06687064.96v5.338c.21404564 2.561 2.14046064 5.123 5.77924064 7.151l125.75167 72.587c6.957 3.949 17.552 4.376 23.545.96z" fill="url(#B)"/><path d="m155.08 416.78 53.512-30.743c5.993-3.522 5.244-9.5-1.712-13.556l-125.7525-72.48c-6.9564-4.056-17.5517-4.483-23.545-.961l-53.51149 30.743c-5.99328 3.522-5.24412 9.5 1.71237 13.556l125.75162 72.373c6.957 4.056 17.552 4.59 23.545 1.068z" fill="url(#C)"/><path d="m208.592 385.397-53.512 30.742c-5.993 3.523-16.588 2.989-23.545-.96l-125.75154-72.373c-3.63878-2.135-5.56519-4.804-5.77923541-7.366-.10702259 2.776 1.81938541 5.658 5.77923541 8.006l125.75154 72.373c6.957 4.056 17.552 4.483 23.545.961l53.512-30.743c2.89-1.601 4.174-3.842 4.067-6.191-.214 2.028-1.499 4.057-4.067 5.551z" fill="#fff"/><path d="m205.488 373.334-125.9657-72.479c-6.1003-3.523-15.3043-3.95-20.6554-.854l-53.08342 30.636c-5.244125 3.095-4.60199 8.326 1.49832 11.848l125.8592 72.48c6.1 3.522 15.304 3.949 20.655.854l53.191-30.636c5.244-2.989 4.602-8.326-1.499-11.849z" fill="#4d4d4d"/><path d="m203.027 374.402-125.2169-72.16c-5.1371-2.988-12.8428-3.309-17.2307-.747l-52.01316 29.995c-4.38794 2.562-3.85282 7.046 1.28428 9.928l125.21648 72.159c5.137 2.989 12.843 3.309 17.231.747l52.013-29.995c4.388-2.562 3.853-7.045-1.284-9.927z" fill="#4d4d4d"/><path d="m60.9004 302.456c4.1739-2.455 10.9163-2.455 15.0902 0l126.6084 72.907c4.174 2.348 4.174 6.298 0 8.646l-50.836 29.248c-4.174 2.455-10.916 2.455-15.09 0l-126.6085-72.8c-4.17389-2.348-4.17389-6.298 0-8.646z" fill="url(#D)"/><path d="m144.164 414.111c-2.676 0-5.137-.534-6.956-1.601l-126.7156-72.907c-1.71239-.96-2.56857-2.135-2.56857-3.416 0-1.28.9632-2.455 2.67557-3.522l50.8359-29.248c1.8194-1.068 4.3879-1.708 7.0635-1.708s5.1371.534 6.9565 1.601l126.6077 72.907c1.713.96 2.569 2.135 2.569 3.416 0 1.28-.963 2.455-2.676 3.522l-50.835 29.248c-1.82 1.174-4.281 1.708-6.957 1.708z" fill="url(#E)"/><path d="m29.5428 361.059-5.7793-3.309c-.7491-.427-1.2843-1.495-1.2843-2.562 0-.961.6422-1.388 1.2843-.961l5.7793 3.309c.7491.427 1.2842 1.495 1.2842 2.562 0 .961-.5351 1.388-1.2842.961z" fill="url(#G)"/><path d="m29.5428 361.059-5.7793-3.309c-.7491-.427-1.2843-1.495-1.2843-2.562 0-.961.6422-1.388 1.2843-.961l5.7793 3.309c.7491.427 1.2842 1.495 1.2842 2.562 0 .961-.5351 1.388-1.2842.961z" fill="#4d4d4d"/><path d="m30.0772 360.845c-.107 0-.214 0-.321-.106l-5.7793-3.309c-.6421-.321-1.1772-1.388-1.1772-2.242 0-.32.107-.854.4281-.854.107 0 .214 0 .321.107l5.7793 3.309c.6421.32 1.1772 1.387 1.1772 2.241 0 .427-.107.854-.4281.854z" fill="#fff"/><path d="m39.924 367.037-5.7792-3.309c-.7491-.427-1.2843-1.495-1.2843-2.562 0-.961.6422-1.388 1.2843-.961l5.7792 3.309c.7492.427 1.2843 1.495 1.2843 2.562.107.961-.5351 1.388-1.2843.961z" fill="url(#H)"/><path d="m39.924 367.037-5.7792-3.309c-.7491-.427-1.2843-1.495-1.2843-2.562 0-.961.6422-1.388 1.2843-.961l5.7792 3.309c.7492.427 1.2843 1.495 1.2843 2.562.107.961-.5351 1.388-1.2843.961z" fill="#4d4d4d"/><path d="m40.4588 366.93c-.107 0-.2141 0-.3211-.107l-5.7792-3.309c-.6422-.32-1.1773-1.388-1.1773-2.242 0-.32.107-.854.4281-.854.107 0 .2141 0 .3211.107l5.7792 3.309c.6422.321 1.1773 1.388 1.1773 2.242 0 .427-.1071.854-.4281.854z" fill="#fff"/><path d="m186.652 402.796-9.525 5.551c0-1.708 1.07-3.736 2.355-4.483l4.816-2.776c1.391-.854 2.354-.106 2.354 1.708z" fill="#b9b9b9"/><path d="m185.261 400.661c.428.32.749.961.749 1.815l-8.776 5.017v.64l9.525-5.55c-.107-1.175-.642-1.922-1.498-1.922z" fill="#4d4d4d"/><path d="m47.2015 324.019-9.2039-5.338 5.1371-2.882 9.2039 5.338 3.6388-2.135 1.8194 8.219-14.234-1.067z" fill="#d84b0e"/><path d="m166.318 388.813 9.204 5.337-5.137 2.989-9.311-5.337-3.639 2.134-1.819-8.326 14.341 1.068z" fill="#f16822"/><path d="m202.92 421.156-24.509-14.41.857-1.388 23.652 13.984 34.889-21.029 29.431 17.613 59.184-36.827-28.896-16.652v-39.602l11.558-6.192.75 1.388-10.703 5.764v37.681l30.502 17.506-62.395 38.855-29.431-17.613z" fill="url(#I)"/><path d="m225.502 428.629-.428-.321-41.632-24.444.856-1.388 41.204 24.231 48.16-29.034-141.163-81.34v-12.596h1.605v11.636l142.769 82.3z" fill="url(#J)"/><path d="m62.5054 358.39c9.5251-5.337 16.1605-9.18 18.515-16.759l.107-.106c13.0568-1.388 25.0436-5.017 34.3546-10.461l.321-.214 5.137 3.523c17.98 12.382 20.869 25.832 18.515 41.63l-.321 1.174c-27.505 1.388-49.1237-.32-70.5283-10.674l-6.1003-2.989z" fill="url(#K)"/><path d="m139.134 375.896.321-1.174c.428-2.775.642-5.444.749-8.113 0 3.096-.214 6.192-.749 9.394l-.321 1.174c-27.505 1.388-49.1237-.32-70.5283-10.674l-6.1003-2.989v-1.281l6.1003 2.989c21.5117 10.354 43.0233 12.062 70.5283 10.674z" fill="url(#L)"/><path d="m62.8265 358.177c9.525-5.338 15.8394-12.276 18.1939-19.855l.107-.107c13.0568-1.387 25.0436-5.017 34.3546-10.46l.321-.214 5.137 3.523c17.98 12.382 20.869 24.764 18.515 40.669l-.321.214c-27.505 1.387-49.1237-.32-70.5283-10.675l-6.1003-2.989z" fill="url(#M)"/><g opacity=".2"><path d="m62.8263 364.154c-.107.107-.2141.107-.4281.214z" fill="url(#O)" opacity=".2"/><path d="m139.562 377.817-.322.214c-27.504 1.388-49.1231-.32-70.5277-10.674l-6.1003-2.989v3.309l6.1003 2.989c21.5116 10.354 43.0237 12.062 70.5277 10.674l.322-1.174c.535-3.736.856-5.337.642-8.86-.107 2.028-.321 4.27-.642 6.511z" fill="url(#P)" opacity=".2"/></g><path d="m62.8263 369.064c-.107.107-.2141.107-.4281.214z" fill="url(#Q)" opacity=".2"/><path d="m136.779 347.716c3.639 7.258 3.96 14.944 2.569 23.804l-.321.213c-27.505 1.388-49.124-.32-70.5286-10.674l-5.5652-2.669-.3211.214 6.1003 2.989c21.5116 10.354 43.0236 12.062 70.5286 10.674l.321-.213c1.498-9.074 1.07-16.973-2.783-24.338z" fill="#fff"/><path d="m123.401 368.21c-20.548 0-35.6385-2.988-50.1936-10.034l-.7491-.32c6.4213-4.483 10.9163-9.714 13.1638-15.478 11.2374-1.387 21.6189-4.483 29.9669-9.18l3.103 2.135c15.09 10.354 17.659 20.282 16.268 32.451-4.174.32-7.92.426-11.559.426z" fill="url(#R)"/><path d="m73.4217 358.284c5.8862-4.27 10.0601-9.394 12.3076-14.838 11.2374-1.388 21.6187-4.483 29.9667-9.18l3.103 2.135c12.522 8.646 16.375 16.972 16.589 26.473.107-10.034-3.532-18.681-16.589-27.647l-3.103-2.135c-8.348 4.59-18.7293 7.792-29.9667 9.18-2.3545 5.764-6.7424 10.995-13.1638 15.478l.7491.32c0 .214 0 .214.1071.214z" fill="#d84b0e"/><path d="m118.799 335.44-3.103-2.135c-8.348 4.59-18.7293 7.793-29.9667 9.18-2.2475 5.658-6.6354 10.781-12.7357 15.158l-.4281-.214c6.4214-4.483 10.9163-9.713 13.1638-15.477 11.2374-1.388 21.6187-4.484 29.9667-9.181l3.103 2.135c12.95 8.967 16.696 17.506 16.589 27.647 0-.107 0-.107 0-.213-.107-9.821-3.96-18.147-16.589-26.9z" fill="url(#S)"/><path d="m103.923 354.441c-2.141-1.281-2.141-3.309 0-4.59 2.14-1.281 5.672-1.281 7.919 0 1.606.854 2.034 2.241 1.285 3.309l6.314 3.629-3.318 1.922-6.314-3.63c-2.034.534-4.281.321-5.886-.64z" fill="#fff"/><path d="m113.341 352.84c0 .107-.107.32-.214.427l6.386 3.798.036-.596z" fill="#f16822"/><path d="m104.03 349.957c2.141-1.28 5.672-1.28 7.92 0 1.177.748 1.712 1.708 1.605 2.562.428-1.067 0-2.241-1.391-2.988-2.141-1.281-5.672-1.281-7.92 0-.963.533-1.498 1.28-1.605 1.921.214-.534.642-1.068 1.391-1.495z" fill="#f16822"/><path d="m130.326 299.988c0 .533-.214.96-.535 1.174l-.535.32c-.321.214-.107-.213-.642-.534-.963-.533-1.819-1.921-1.819-3.095 0-.534-.535-.534-.214-.747l.642-.321c.321-.213.749-.106 1.284.107.963.641 1.819 2.028 1.819 3.096z" fill="url(#U)"/><path d="m129.684 300.415c0 1.174-.749 1.601-1.819 1.067-.963-.534-1.82-1.921-1.82-3.096 0-1.174.75-1.601 1.82-1.067.963.534 1.819 1.921 1.819 3.096z" fill="url(#W)"/><path d="m129.256 300.308c0 .427-.214.854-.428.961l-.856.533c-.321.107-.107-.213-.535-.427-.856-.533-1.498-1.708-1.498-2.668 0-.427-.428-.534-.214-.641 0 0 .856-.533.963-.533.321-.107.642-.107 1.07.106.749.534 1.498 1.708 1.498 2.669z" fill="url(#Y)"/><path d="m128.293 300.842c0 .96-.642 1.387-1.498.854-.856-.534-1.499-1.708-1.499-2.669s.643-1.388 1.499-.854 1.498 1.708 1.498 2.669z" fill="url(#aa)"/><path d="m127.544 300.522c0 .533-.428.747-.856.533-.535-.32-.856-.96-.856-1.494s.428-.747.856-.534c.428.32.856.961.856 1.495z" fill="#f16822"/><path d="m126.902 298.173c-.428-.213-.642-.326-.963-.219.214-.107.428.112.856.326.856.533 1.498 1.708 1.498 2.668 0 .534-.214.854-.535.961.428-.107.642-.427.642-1.067 0-1.068-.749-2.242-1.498-2.669z" fill="#4d4d4d"/><path d="m136.751 303.843c0 .533-.214.96-.535 1.174l-.535.32c-.321.214-.107-.213-.642-.534-.963-.533-1.82-1.921-1.82-3.095 0-.534-.535-.534-.214-.747l.643-.321c.321-.213.749-.106 1.284.107.963.641 1.819 2.028 1.819 3.096z" fill="url(#ab)"/><path d="m136.109 304.27c0 1.174-.749 1.601-1.819 1.067-.963-.534-1.82-1.921-1.82-3.096 0-1.174.749-1.601 1.82-1.067.963.534 1.819 1.921 1.819 3.096z" fill="url(#ac)"/><path d="m135.681 304.163c0 .427-.214.854-.428.961l-.856.533c-.321.107-.107-.213-.535-.427-.856-.533-1.498-1.708-1.498-2.668 0-.427-.429-.534-.214-.641 0 0 .856-.534.963-.534.321-.106.642-.106 1.07.107.749.534 1.498 1.708 1.498 2.669z" fill="url(#ad)"/><path d="m134.718 304.697c0 .96-.642 1.387-1.498.853-.857-.533-1.499-1.707-1.499-2.668s.642-1.388 1.499-.854c.856.534 1.498 1.708 1.498 2.669z" fill="url(#ae)"/><path d="m133.969 304.377c0 .533-.428.747-.856.533-.536-.32-.857-.96-.857-1.494s.428-.747.857-.534c.428.32.856.961.856 1.495z" fill="#f16822"/><path d="m133.327 302.028c-.429-.214-.642-.326-.963-.219.214-.107.427.112.856.326.856.533 1.498 1.708 1.498 2.668 0 .534-.214.854-.535.961.428-.107.642-.427.642-1.067 0-1.068-.749-2.242-1.498-2.669z" fill="#4d4d4d"/><path d="m231.538 168.798v-31.021l-127.882-2.435.001 30.006c-.406 1.421.202 2.842 1.824 3.856l57.962 34.3c3.04 1.827 8.309 1.624 11.754-.405l53.301-30.038c2.23-1.218 3.04-2.842 3.04-4.263z" fill="url(#af)"/><path d="m163.443 171.672-57.963-34.301c-3.04-1.826-2.634-4.871 1.014-6.9l53.301-30.038c3.445-2.0296 8.714-2.2326 11.754-.406l57.962 34.3c3.04 1.827 2.635 4.871-1.013 6.901l-53.301 30.038c-3.445 2.029-8.714 2.232-11.754.406z" fill="#ff9e6c"/><path d="m165.267 157.261-35.466-21.107c-1.824-1.015-1.622-3.045.608-4.262l32.629-18.47c2.229-1.217 5.472-1.217 7.296-.203l35.466 21.108c1.824 1.015 1.621 3.044-.608 4.262l-32.629 18.47c-2.229 1.217-5.472 1.217-7.296.202z" fill="#f16822"/><path d="m129.8 136.154 5.878 3.45 27.359-15.425c2.23-1.218 5.472-1.218 7.296-.203l29.589 17.455 5.27-3.045c2.229-1.218 2.432-3.044.608-4.262l-35.467-21.108c-1.824-1.015-5.066-1.015-7.296.203l-32.831 18.875c-2.027 1.218-2.23 3.045-.406 4.06z" fill="url(#ag)"/><path d="m160.069 184.663 1.927 1.067v-2.242l-1.927-1.067z" fill="#fff"/><path d="m156.43 182.528 1.926 1.067v-2.241l-1.926-1.068z" fill="#fff" opacity=".5"/><path d="m152.685 180.393 2.033 1.174v-2.241l-2.033-1.175z" fill="#fff"/><path d="m149.046 178.258 1.926 1.174v-2.241l-1.926-1.174z" fill="#fff"/><path d="m145.407 176.123 1.926 1.174v-2.241l-1.926-1.175z" fill="#fff"/><path d="m138.022 171.96 1.927 1.067v-2.241l-1.927-1.068z" fill="#fff"/><path d="m134.384 169.825 1.926 1.068v-2.242l-1.926-1.068z" fill="#fff"/><path d="m130.638 167.69 1.927 1.175v-2.242l-1.927-1.174z" fill="#fff" opacity=".2"/><path d="m126.999 165.556 1.927 1.174v-2.242l-1.927-1.174z" fill="#fff"/><path d="m123.253 163.42 2.034 1.175v-2.242l-2.034-1.174z" fill="#fff"/><path d="m119.614 161.393 1.926 1.067v-2.242l-1.926-1.067z" fill="#fff" opacity=".5"/><path d="m115.976 159.257 1.926 1.068v-2.242l-1.926-1.067z" fill="#fff"/><path d="m108.591 154.988 1.926 1.174v-2.242l-1.926-1.174z" fill="#fff"/><path d="m160.069 188.612 1.927 1.174v-2.241l-1.927-1.174z" fill="#fff"/><path d="m156.43 186.477 1.926 1.175v-2.242l-1.926-1.174z" fill="#fff"/><path d="m149.046 182.314 1.926 1.068v-2.242l-1.926-1.067z" fill="#fff"/><path d="m145.407 180.18 1.926 1.067v-2.242l-1.926-1.067z" fill="#fff" opacity=".2"/><path d="m141.661 178.045 2.034 1.067v-2.241l-2.034-1.068z" fill="#fff"/><path d="m138.022 175.91 1.927 1.174v-2.242l-1.927-1.174z" fill="#fff"/><path d="m134.384 173.775 1.926 1.174v-2.242l-1.926-1.174z" fill="#fff" opacity=".5"/><path d="m130.638 171.64 1.927 1.174v-2.241l-1.927-1.175z" fill="#fff"/><path d="m126.999 169.505 1.927 1.174v-2.241l-1.927-1.174z" fill="#fff"/><path d="m119.614 165.342 1.926 1.068v-2.242l-1.926-1.067z" fill="#fff"/><path d="m115.976 163.207 1.926 1.175v-2.242l-1.926-1.174z" fill="#fff" opacity=".2"/><path d="m112.23 161.072 2.033 1.174v-2.241l-2.033-1.174z" fill="#fff"/><path d="m108.591 158.937 1.926 1.175v-2.242l-1.926-1.174z" fill="#fff" opacity=".5"/><path d="m313.662 317.48c0 .558-.223 1.003-.558 1.226l-.559.334c-.335.223-.112-.223-.67-.557-1.005-.557-1.899-2.005-1.899-3.231 0-.557-.559-.557-.223-.78l.67-.334c.335-.223.782-.111 1.34.111 1.006.669 1.899 2.117 1.899 3.231z" fill="url(#ah)"/><path d="m312.992 317.926c0 1.226-.782 1.671-1.899 1.114-1.005-.557-1.899-2.005-1.899-3.231 0-1.225.782-1.671 1.899-1.114 1.006.557 1.899 2.006 1.899 3.231z" fill="url(#ai)"/><path d="m312.546 317.815c0 .445-.223.891-.447 1.002l-.893.558c-.335.111-.112-.223-.559-.446-.893-.557-1.564-1.783-1.564-2.786 0-.445-.447-.557-.223-.668 0 0 .894-.557 1.005-.557.335-.112.67-.112 1.117.111.782.557 1.564 1.783 1.564 2.786z" fill="url(#aj)"/><path d="m311.54 318.372c0 1.003-.67 1.448-1.564.891-.893-.557-1.564-1.783-1.564-2.785 0-1.003.671-1.449 1.564-.892.894.558 1.564 1.783 1.564 2.786z" fill="url(#ak)"/><path d="m310.758 318.038c0 .557-.447.78-.894.557-.558-.334-.893-1.003-.893-1.56s.447-.78.893-.557c.447.334.894 1.003.894 1.56z" fill="#f16822"/><path d="m310.088 315.586c-.447-.223-.67-.34-1.005-.228.223-.112.447.117.893.34.894.557 1.564 1.782 1.564 2.785 0 .557-.223.891-.558 1.003.447-.112.67-.446.67-1.114 0-1.115-.782-2.34-1.564-2.786z" fill="#4d4d4d"/><path clip-rule="evenodd" d="m293.635 307.988c0-7.754-5.418-17.298-12.171-21.175-6.753-3.952-12.245-.82-12.245 7.009 0 1.491.223 3.131.594 4.772l3.71 2.162v-11.855l7.867 13.793 7.94-4.548v11.855l3.637 2.088c.445-1.193.668-2.535.668-4.101zm-6.727 3.856v-7.549l-3.576 1.887-1.944 1.057-1.865-3.17-3.577-6.115v7.549l-1.399-.755-1.399-.755-2.643-1.434c2.176 5.36 6.297 10.418 10.883 12.984 4.665 2.567 8.707 2.114 10.962-.755l-2.643-1.434-2.488-1.359z" fill="#ff9447" fill-rule="evenodd"/><path d="m129.248 135.553-58.8446-135.553 198.6006.00003197-62.522 137.12896803-38.354 20.491z" fill="url(#al)" opacity=".4"/></svg>