<svg height="54.524055mm" viewBox="0 0 94.655624 54.524055" width="94.655624mm" xmlns="http://www.w3.org/2000/svg" xmlns:xlink="http://www.w3.org/1999/xlink"><linearGradient id="a"><stop offset="0" stop-color="#f17922"/><stop offset="1" stop-color="#d74608"/></linearGradient><linearGradient id="b" gradientUnits="userSpaceOnUse" x1="116.178" x2="243.325" xlink:href="#a" y1="50.2239" y2="98.091301"/><linearGradient id="c" gradientUnits="userSpaceOnUse" x1="256.23099" x2="135.55701" xlink:href="#a" y1="37.898998" y2="-2.85449"/><linearGradient id="d"><stop offset="0" stop-color="#fff"/><stop offset="1" stop-color="#b9b9b9"/></linearGradient><linearGradient id="e" gradientUnits="userSpaceOnUse" x1="281.48599" x2="321.37799" xlink:href="#d" y1="91.119499" y2="91.608597"/><linearGradient id="f" gradientUnits="userSpaceOnUse" x1="329.05899" x2="236.244" xlink:href="#a" y1="116.889" y2="92.404099"/><linearGradient id="g" gradientUnits="userSpaceOnUse" x1="217.011" x2="283.22101" xlink:href="#a" y1="60.0345" y2="141.592"/><linearGradient id="h" gradientUnits="userSpaceOnUse" x1="48.391399" x2="153.855" xlink:href="#d" y1="72.072197" y2="64.326698"/><linearGradient id="i" gradientUnits="userSpaceOnUse" x1="178.36099" x2="66.449501" y1="95.040802" y2="150.032"><stop offset=".0209121" stop-color="#fff"/><stop offset="1" stop-color="#b9b9b9"/></linearGradient><linearGradient id="j" gradientUnits="userSpaceOnUse" x1="155.39301" x2="241.85201" xlink:href="#d" y1="134.81599" y2="113.359"/><linearGradient id="k" gradientUnits="userSpaceOnUse" x1="255.009" x2="177.901" xlink:href="#d" y1="128.998" y2="208.093"/><linearGradient id="l" gradientUnits="userSpaceOnUse" x1="10.2893" x2="42.3722" xlink:href="#a" y1="23.829201" y2="41.990601"/><linearGradient id="m" gradientUnits="userSpaceOnUse" x1="9.239451" x2="39.977699" xlink:href="#a" y1="25.298599" y2="42.356998"/><linearGradient id="n" gradientUnits="userSpaceOnUse" x1="361.44" x2="349.57999" xlink:href="#d" y1="196.63499" y2="177.924"/><linearGradient id="o" gradientUnits="userSpaceOnUse" x1="40.548698" x2="22.440901" xlink:href="#a" y1="195.319" y2="196.40601"/><linearGradient id="p" gradientUnits="userSpaceOnUse" x1="321.216" x2="346.358" xlink:href="#d" y1="18.2913" y2="66.170403"/><linearGradient id="q" gradientUnits="userSpaceOnUse" x1="317.29501" x2="340.142" xlink:href="#d" y1="18.8512" y2="67.355202"/><linearGradient id="r" gradientUnits="userSpaceOnUse" x1="121.28939234992" x2="114.47182076915" xlink:href="#d" y1="102.29649966795" y2="104.82573030067"/><linearGradient id="s"><stop offset="0" stop-color="#d5d5d5"/><stop offset="1" stop-color="#6b6b6b"/></linearGradient><linearGradient id="t" gradientUnits="userSpaceOnUse" x1="116.13673809609" x2="113.14496182753" xlink:href="#s" y1="110.88789054513" y2="123.30579163868"/><linearGradient id="u" gradientUnits="userSpaceOnUse" x1="120.25349596089" x2="117.8452844204" xlink:href="#s" y1="109.04043691423" y2="120.86741786315"/><linearGradient id="v" gradientUnits="userSpaceOnUse" x1="119.40928992986" x2="116.08464110925" xlink:href="#d" y1="102.89263210419" y2="103.29678314076"/><linearGradient id="w" gradientUnits="userSpaceOnUse" x1="116.38004866177" x2="110.77920056567" xlink:href="#d" y1="104.16353114234" y2="105.32111046318"/><linearGradient id="x" gradientUnits="userSpaceOnUse" x1="41.889301" x2="15.831" xlink:href="#a" y1="21.9272" y2="34.516602"/><linearGradient id="y" gradientUnits="userSpaceOnUse" x1="37.9767" x2="49.284199" xlink:href="#s" y1="61.4622" y2="108.396"/><linearGradient id="z" gradientUnits="userSpaceOnUse" x1="22.417299" x2="31.519199" xlink:href="#s" y1="54.479698" y2="99.180099"/><linearGradient id="A" gradientUnits="userSpaceOnUse" x1="35.780998" x2="22.1418" xlink:href="#a" y1="21.866501" y2="24.0256"/><linearGradient id="B" gradientUnits="userSpaceOnUse" x1="54.667099" x2="32.100399" xlink:href="#a" y1="26.5" y2="32.573898"/><linearGradient id="C" gradientUnits="userSpaceOnUse" x1="60.574402" x2="33.841" xlink:href="#a" y1="31.7383" y2="45.302101"/><linearGradient id="D" gradientUnits="userSpaceOnUse" x1="116.62952428363" x2="109.58680604736" xlink:href="#d" y1="104.88473344159" y2="107.62856814244"/><g transform="translate(-38.364579 -85.989591)"><g fill="none" transform="matrix(.26458333 0 0 .26458333 38.159939 85.7449)"><path d="m244.355 43.6414-46.386-26.7783c-5.266-3.0252-13.781-3.0252-19.047 0l-48.627 28.1228-13.893-5.6022v13.6693l22.521 12.997v9.0754c-.112 1.6807 1.008 3.3613 3.137 4.5938 4.257 2.465 11.092 2.465 15.35 0 .896-.5602 1.68-1.1204 2.128-1.7927l28.795 16.5824 29.356-16.9185v-12.1006c3.585-.5603 7.619 0 10.42 1.6806 1.456.7843 2.353 1.7927 2.801 2.8011l29.355-16.9185v-13.6693z" fill="url(#b)"/><path d="m217.801 63.921c-1.793-.2241-3.474-.7843-4.93-1.6807-4.258-2.4649-4.258-6.3864 0-8.8514 4.257-2.4649 11.092-2.4649 15.35 0 1.456.7843 2.353 1.7927 2.801 2.8011l29.355-16.9185-62.408-36.07783c-5.266-3.025155-13.781-3.025155-19.047 0l-62.52 36.07783 28.795 16.5824c-1.121.3361-2.129.6722-3.025 1.2324-4.258 2.465-4.258 6.3865 0 8.8514 4.257 2.465 11.092 2.465 15.35 0 .896-.5602 1.68-1.1204 2.128-1.7927l28.795 16.5824z" fill="url(#c)"/><path d="m235.279 101.231v24.313c.112-1.456 1.232-2.913 3.137-4.033 4.258-2.465 11.092-2.465 15.35 0 .896.56 1.569 1.12 2.129 1.792 2.241-.672 4.594-1.12 7.059-1.232v-20.84z" fill="#173d7a"/><path d="m277.071 66.498-.224.1121v82.9119l.224.112 62.52-36.078c2.689-1.569 4.034-3.585 3.922-5.602v-13.4452l-10.532 4.2576z" fill="url(#e)"/><path clip-rule="evenodd" d="m277.071 66.498 55.91 32.2684 10.644-4.2576v13.4452c.112 2.017-1.233 4.033-3.922 5.602l-62.52 36.078-30.251-17.479v-12.549c-3.026-.112-6.051.449-8.404 1.793-1.904 1.121-3.025 2.577-3.137 4.034l-30.251-17.479v-13.6693l14.565 5.266 14.79-8.5153c-1.793-.3361-3.474-.8963-4.93-1.6806-2.129-1.2325-3.137-2.8011-3.137-4.4817v-13.6693s8.627 2.465 8.963 2.577c.224.1121 3.473 3.9215 4.37 5.154 1.905.2241 3.697.7843 5.154 1.6807 1.344.7843 2.353 1.7927 2.801 2.801z" fill="url(#f)" fill-rule="evenodd"/><path d="m339.591 88.9064-62.52-36.0778-29.355 16.9185c-.448-1.0084-1.457-2.0168-2.801-2.8011-4.258-2.4649-11.092-2.4649-15.35 0-4.258 2.465-4.258 6.3865 0 8.8514 1.457.7843 3.137 1.3445 4.93 1.6807l-29.355 16.9184 30.251 17.4785c.112-1.456 1.233-2.913 3.138-4.033 4.257-2.465 11.092-2.465 15.349 0 4.258 2.465 4.258 6.386 0 8.851-1.904 1.121-4.481 1.681-6.946 1.793l30.251 17.478 62.52-36.0773c5.154-3.0252 5.154-7.9551-.112-10.9803z" fill="url(#g)"/><path clip-rule="evenodd" d="m171.526 94.3967v13.6693l-21.288 12.325v10.532c.112 1.68-.896 3.361-3.137 4.594-4.258 2.464-11.092 2.464-15.35 0-1.344-.785-2.353-1.793-2.801-2.802l-29.3551 16.919-62.52-36.078c-2.5769-1.569-3.9215-3.473-3.9215-5.49v-13.6693l11.2043 4.0336 55.2372-31.9323 17.3671 10.0839 1.008-7.0587h10.42v16.9185l-3.361-1.9047c-4.034 2.4649-3.922 6.3864.224 8.7393 4.257 2.465 11.092 2.465 15.35 0 .896-.5602 1.568-1.1204 2.128-1.7927l14.454 8.2912z" fill="url(#h)" fill-rule="evenodd"/><path d="m147.101 112.996c-1.344-.785-3.025-1.345-4.817-1.569l29.355-16.9184-28.795-16.5823c-.56.6722-1.233 1.2324-2.129 1.7927-4.258 2.4649-11.092 2.4649-15.35 0-4.258-2.465-4.258-6.3865 0-8.8514.896-.5603 2.017-.8964 3.025-1.2325l-28.7949-16.5824-62.5199 35.8538c-5.266 3.0251-5.266 7.955 0 10.9802l62.5199 36.0783 29.3549-16.919c.449 1.008 1.457 2.017 2.801 2.801 4.258 2.465 11.093 2.465 15.35 0 4.146-2.465 4.146-6.386 0-8.851z" fill="url(#i)"/><path d="m246.372 155.348-16.246-9.299c2.577-.112 5.042-.673 6.946-1.793 1.793-1.008 2.801-2.353 3.137-3.697l.113.112v-.785s0 0 0-.112v-13.669l-13.67 5.378 3.137 2.129c-2.913 0-5.826.56-7.955 1.793-1.904 1.12-3.025 2.577-3.137 4.033l-30.251-17.479-17.815 10.308-1.793-6.162-9.748-.784v15.126l3.026-.785c.672.224 1.232.56 1.904.897 4.258 2.465 4.258 6.386 0 8.851-4.257 2.465-11.092 2.465-15.35 0-1.344-.784-2.353-1.793-2.801-2.801l-16.246 9.412-13.109-6.051v13.669l62.52 36.078c5.266 3.025 13.781 3.025 19.047 0l62.52-36.078v-13.669z" fill="url(#j)"/><path d="m230.237 132.379c2.577-.112 5.042-.672 6.947-1.792 4.258-2.465 4.258-6.387 0-8.852s-11.092-2.465-15.35 0c-1.905 1.121-3.025 2.577-3.137 4.034l-30.252-17.479-29.355 16.919c1.793.224 3.473.784 4.818 1.568 4.258 2.465 4.258 6.387 0 8.852-4.258 2.464-11.092 2.464-15.35 0-1.344-.785-2.353-1.793-2.801-2.802l-29.355 16.919 62.52 36.078c5.266 3.025 13.781 3.025 19.047 0l62.52-36.078z" fill="url(#k)"/><path d="m40.1004 36.5823-28.5709-16.4703c-.5602-.3362-1.1204-.3362-1.4566-.1121l-2.80105 1.5686s1.23247.4482 1.90473.6723v20.84c0 1.6806 1.00842 3.6974 2.35292 4.3696l27.3385 15.9101v2.465l2.801-1.5686c.4482-.3361.7843-.8964.7843-1.7927v-21.2882c0-1.9047-1.0083-3.8094-2.3529-4.5937z" fill="url(#l)"/><path d="m37.2996 65.7134-28.57097-16.5824c-1.23247-.7843-2.3529-2.689-2.3529-4.3696v-21.2882c0-1.6806 1.00839-2.4649 2.3529-1.7927l28.68297 16.5824c1.2325.7843 2.3529 2.689 2.3529 4.3697v21.2881c-.112 1.6807-1.1204 2.465-2.4649 1.7927z" fill="url(#m)"/><g fill="#fff"><path d="m37.2996 38.2632-28.571-16.5824c-.67226-.4482-1.34452-.3361-1.79269.1121.33613 0 .67226 0 1.00839.224l28.683 16.5824c1.2325.7843 2.3529 2.689 2.3529 4.3697v21.2881c0 .7843-.2241 1.2325-.5602 1.5686.7843-.112 1.2325-.7843 1.2325-2.0167v-21.2882c0-1.5686-1.0084-3.5854-2.3529-4.2576z"/><path d="m18.3641 41.8483c0 1.2325-.8964 1.6806-1.9047 1.1204-1.1205-.5602-1.9048-2.1288-1.9048-3.3613 0-1.2324.8964-1.6806 1.9048-1.1204 1.0083.5602 1.9047 2.1288 1.9047 3.3613z"/><path d="m24.1903 45.2096c0 1.2325-.8963 1.6807-1.9047 1.1204-1.1204-.5602-1.9047-2.1288-1.9047-3.3612 0-1.2325.8963-1.6807 1.9047-1.1205s1.9047 2.1288 1.9047 3.3613z"/><path d="m30.0162 48.5709c0 1.2325-.8963 1.6807-1.9047 1.1205-1.1204-.5602-1.9047-2.1288-1.9047-3.3613s.8963-1.6807 1.9047-1.1204c1.0084.6722 1.9047 2.1288 1.9047 3.3612z"/></g><path d="m358.526 194.535-19.271 11.204v-22.297l19.271-11.092z" fill="url(#n)"/><path d="m339.255 183.443-19.383-11.093 19.383-11.204 19.272 11.204z" fill="#8e8e8e"/><path d="m339.255 205.739-19.384-11.204v-22.185l19.384 11.092z" fill="#efefef"/><path d="m332.196 193.638-5.378-3.025v-6.274l5.378 3.137z" fill="#8e8e8e"/><path d="m40.8847 195.347-20.0557 11.653v-23.193l20.0557-11.653z" fill="url(#o)"/><path d="m20.8294 183.807-20.055718-11.653 20.055718-11.652 20.0556 11.652z" fill="#d84b0e"/><path d="m20.8291 207-20.055662-11.653v-23.193l20.055662 11.653z" fill="#f16822"/><path d="m13.5462 194.451-5.60211-3.249v-6.499l5.60211 3.249z" fill="#fff"/><path d="m351.468 36.2462-28.011-16.1342c-.56-.3362-1.008-.3362-1.456-.1121l-2.689 1.5686s1.232.4482 1.905.6723v20.3918c0 1.6806 1.008 3.5854 2.24 4.2576l26.779 15.462v2.3529l2.689-1.5686c.448-.3362.784-.8964.784-1.7927v-20.84c0-1.6807-1.008-3.5854-2.241-4.2576z" fill="url(#p)"/><path d="m348.779 64.7048-28.011-16.1342c-1.232-.6722-2.241-2.689-2.241-4.2576v-20.84c0-1.6806 1.009-2.4649 2.241-1.6806l28.011 16.1342c1.232.6722 2.241 2.689 2.241 4.2576v20.84c0 1.5686-1.009 2.3529-2.241 1.6806z" fill="url(#q)"/><path d="m349.451 37.3668-28.011-16.1342c-.784-.4482-1.456-.3361-1.904.2241.336-.1121.784 0 1.232.2241l28.011 16.1342c1.232.6722 2.241 2.689 2.241 4.2576v20.84c0 .5602-.112 1.1204-.336 1.4565.672-.112 1.008-.8963 1.008-1.9047v-20.84c0-1.6806-1.008-3.5854-2.241-4.2576z" fill="#4d4d4d"/><path d="m330.18 41.288c0 1.2325-.897 1.6806-1.905 1.1204s-1.905-2.0167-1.905-3.2492.897-1.6807 1.905-1.1204c1.008.5602 1.905 2.0167 1.905 3.2492z" fill="#4d4d4d"/><path d="m335.894 44.6493c0 1.2325-.896 1.6807-1.904 1.1205-1.009-.5603-1.905-2.0168-1.905-3.2493s.896-1.6806 1.905-1.1204c1.008.5602 1.904 2.0168 1.904 3.2492z" fill="#4d4d4d"/><path d="m341.609 47.8983c0 1.2325-.897 1.6807-1.905 1.1205s-1.905-2.0168-1.905-3.2493c0-1.2324.897-1.6806 1.905-1.1204s1.905 2.0168 1.905 3.2492z" fill="#4d4d4d"/></g><g stroke-width=".264583"><path d="m121.392 108.21311c-.083-.083-2.5727-1.45232-3.69308-2.32373l1.36935-2.8217c.083-.083.24898-.37346.24898-.37346.0415-.12449.083-.20746.083-.37346.12448-.91289-.37346-2.07475-1.07887-2.614187-.66392-.497946-1.24486-.04151-1.49383.414947 0 0-2.32373 5.60186-2.32373 5.85084-.0415.37346.083.74691.29046 1.0374.0415.0415.29046.24897.37346.33195 1.12037.78843 3.77608 2.32375 4.60597 2.8217.0415.0415.12448.083.20748.12449h.0415c.12449.0415.29049 0 .45646-.0415.53943-.20746 1.03738-.82989 1.07889-1.41084 0-.33197-.0415-.49794-.166-.62243z" fill="url(#r)"/><path d="m123.63265 109.87292-1.32786-.9544c-.0415-.0415-.083-.083-.16598-.083 0 0-.91289-.41495-1.07886-.37346-.0415 0-.0415 0-.083 0s-.0415 0-.083.0415c-.41495.16597-.78841.66392-.82989 1.07887-.0415.29048.12448.41497.24897.53946l.99589.58091c.083.0415.12449.083.20746.083l1.57684.29046c.16597.0415.33195 0 .49795-.12448.41494-.29046.41494-.82989.0415-1.07887z" fill="#ffd4c0"/><path d="m116.32949 116.76111c3.00215 0 5.43589-1.48627 5.43589-3.31965 0-1.83337-2.43374-3.31962-5.43589-3.31962-3.00217 0-5.4359 1.48625-5.4359 3.31962 0 1.83338 2.43373 3.31965 5.4359 3.31965z" fill="#c44812"/><path d="m120.64506 126.96895-1.74281-2.03332c-.20746-.24898-.53944-.29025-.8299-.12436l-.7884.45641h-.0415v1.2864c0 .20743.083.41487.29048.53949l1.49381 1.0787c.33198.20744.74692.24898 1.07889.0831l.37346-.20743c.20749-.12462.33198-.33205.33198-.58103 0-.24897-.083-.37332-.166-.49794z" fill="#f16822"/><path d="m125.99805 124.31333-1.90878-2.24076c-.12449-.16616-.37346-.24897-.58092-.16616l-.99589.29051h-.0415l-.24898 1.20333c-.0415.2077.0415.45667.20749.58102l1.82578 1.28641c.24898.16589.58095.24897.87141.12435l.58094-.16589c.20749-.0415.33198-.20744.37346-.41487.083-.20743.0415-.37359-.083-.49794z" fill="#f16822"/><path d="m120.43754 127.67433-.37346.20743c-.33194.20743-.74691.16616-1.07886-.0828l-1.49384-1.45257c-.16597-.12435-.29046-.33178-.29046-.53922v.66384c0 .20744.083.41487.29046.53949l1.49384 1.0787c.33195.2077.74692.24898 1.07886.0831l.37346-.20743c.20749-.12462.33198-.33205.33198-.58103 0-.0415 0-.0828-.0415-.12435 0 .16589-.12448.33179-.29046.41487z" fill="#d84b0e"/><path d="m125.74908 124.93589-.58092.16589c-.29048.0831-.62243.0415-.8714-.12462l-1.82581-1.74281c-.083-.0413-.12449-.12435-.16598-.16589l-.083.33205c-.0415.20744.0415.45641.20749.58076l1.82578 1.28641c.24898.16616.58095.24897.87141.12462l.58094-.16616c.20749-.0413.33198-.20744.37346-.41487 0-.0831 0-.16589 0-.24897 0 .16589-.16597.33205-.33197.37359z" fill="#d84b0e"/><path d="m120.02262 116.18019-4.77197-4.02505c-.49794-.58092-1.32784-.87141-2.24073-.58092-.8714.29046-1.41085 1.07887-1.36936 1.99178 0 .87138.49796 1.45233 1.32785 1.86727l4.14954 2.19927c.20749.12449.33197.33195.33197.58092l-.45646 7.34473c0 .49795.70543.91281 1.53533.91281.8714 0 1.53532-.41486 1.53532-.91281l.49795-8.17462c.0415-.49795-.16598-.91289-.53944-1.20338z" fill="url(#t)"/><path d="m125.12652 115.43327c0-.49794-.24898-.95437-.62244-1.24486l-5.64337-3.94205c-.45644-.49795-1.16187-.78841-1.95027-.62244-.82992.166-1.45235.82992-1.61833 1.65981-.16597.9959.41495 1.90881 1.24487 2.24076l5.14543 2.19927c.20746.083.37346.29046.37346.53943l.0415 6.47322c0 .49794.70541.91308 1.53533.91308.8714 0 1.53532-.41514 1.53532-.91308z" fill="url(#u)"/><path d="m119.44163 101.44938c.0415-1.12037-.8299-2.116266-1.95027-2.157753-.29049 0-.9959.165973-1.12038.165973-1.45235.331973-2.78019 1.12038-3.48562 1.82581l-.0415.0415c-.53943.33197-.9129.9544-.9544 1.61832l-.41495 9.08749c-.0415 1.24486 1.61832 2.36524 3.77608 2.44821 2.15776.12449 3.52711-.62243 3.61008-1.86727 0 0 .53946-10.20786.58095-11.16227z" fill="#4d4d4d"/><path d="m119.52478 101.40784c.0415-1.20337-.8714-2.199266-2.03327-2.240752-.29048 0-.58094.04149-.70543.083-.083.04149-.20748.04149-.33197.08297.66394.165973 1.12038.580945 1.12038 1.037382 0 0-.41495 3.65159-.49795 5.80935-.083 1.78432-.16597 5.3944-.29046 7.3447 1.57684-.24897 2.07476-.49795 2.15776-1.53532 0 0 .53943-9.58543.58094-10.58133z" fill="url(#v)"/><path d="m116.57857 106.59481c.083-1.41086-1.24484-4.89645-2.07476-5.68486 0 0-.33197-.33197-.37346-.53946-.58094.33197-1.03737.66395-1.32783.95441l-.0415.0415c-.53943.37346-.95438.9959-.99588 1.70133l-.49794 9.79289c-.0415.66394.41495 1.28638 1.12036 1.74281.70544.45646 3.7346 1.16186 3.90057-2.32373.12449-2.44824.24897-4.606.29046-5.68487z" fill="url(#w)"/><path d="m111.76512 103.06763-.49794 9.79289c-.0415.66394.41495 1.28638 1.12036 1.74281.33198.20749 1.12038.45646 1.9503.37346-.49795-.41495-.66395-.82989-.66395-1.36935l.82992-8.88z" fill="#999"/><path d="m113.71525 97.092339c-.24897 1.950289.7054 2.489721 1.95027 2.738694 1.45232.290457 2.48973-.124487 2.5727-2.199243.083-2.033286-.7054-2.572724-1.95027-2.738708-1.24486-.124486-2.32375.207479-2.5727 2.199257z" fill="#ffd4c0"/><path d="m117.49128 98.793655c.0415-.456433-.62244-.912892-1.41084-.954379-.82989-.04149-1.49384.29046-1.53533.746919l-.12448 1.784295c-.0415.49795.58094.91289 1.41084.95438.82991.0415 1.49383-.29046 1.53532-.74689 0-.0415.12449-1.784325.12449-1.784325z" fill="#ffd4c0"/><path d="m115.41657 96.926329c-1.45232.829894-.87138 2.614218-1.24484 2.282245-.62243-.539432-.9544-1.452351-.8714-2.32374.16597-1.410843 1.45232-2.406732 2.90467-2.240751 1.99176.248973 1.74281 1.203365 2.94617 1.867292-.74692 1.410848-2.36525-.414954-3.7346.414954z" fill="#4d4d4d"/></g><g fill="none" transform="matrix(.26458333 0 0 .26458333 49.443568 94.932233)"><path d="m18.1143 51.3528c.3136-.3137 9.7236-5.4891 13.9581-8.7826l-5.1755-10.6647c-.3136-.3136-.941-1.4115-.941-1.4115-.1568-.4705-.3136-.7841-.3136-1.4115-.4705-3.4503 1.4115-7.8416 4.0776-9.8804 2.5093-1.882 4.705-.1569 5.646 1.5683 0 0 8.7826 21.1724 8.7826 22.1134.1569 1.4115-.3136 2.823-1.0978 3.9209-.1568.1568-1.0978.941-1.4115 1.2546-4.2345 2.9799-14.2718 8.7827-17.4084 10.6647-.1569.1568-.4705.3136-.7842.4705h-.1568c-.4705.1568-1.0979 0-1.7252-.1569-2.0388-.7841-3.9208-3.1366-4.0777-5.3323 0-1.2547.1569-1.882.6274-2.3525z" fill="url(#x)"/><path d="m9.64589 57.6261 5.01861-3.6072c.1569-.1568.3137-.3137.6274-.3137 0 0 3.4503-1.5683 4.0776-1.4115h.3137c.1568 0 .1568 0 .3137.1569 1.5683.6273 2.9798 2.5093 3.1366 4.0776.1569 1.0979-.4705 1.5684-.941 2.0389l-3.764 2.1956c-.3136.1568-.4705.3137-.7841.3137l-5.9597 1.0978c-.6273.1568-1.2546 0-1.88198-.4705-1.56833-1.0978-1.56833-3.1366-.15683-4.0776z" fill="#ffd4c0"/><path d="m37.2482 83.6602c-11.3467 0-20.5451-5.6174-20.5451-12.5467s9.1984-12.5466 20.5451-12.5466c11.3468 0 20.5451 5.6173 20.5451 12.5466s-9.1983 12.5467-20.5451 12.5467z" fill="#888"/><path d="m20.9374 122.241 6.587-7.685c.7841-.941 2.0388-1.097 3.1366-.47l2.9798 1.725h.1569v4.862c0 .784-.3137 1.568-1.0979 2.039l-5.6459 4.077c-1.2547.784-2.823.941-4.0777.314l-1.4115-.784c-.7842-.471-1.2547-1.255-1.2547-2.196s.3137-1.411.6274-1.882z" fill="#f16822"/><path d="m.705574 112.204 7.214316-8.469c.4705-.628 1.41149-.941 2.19561-.628l3.764 1.098h.1569l.941 4.548c.1568.785-.1569 1.726-.7842 2.196l-6.90064 4.862c-.941.627-2.19566.941-3.29349.47l-2.19567-.627c-.78416-.157-1.254661-.784-1.411493-1.568-.3136657-.784-.156832-1.412.313667-1.882z" fill="#f16822"/><path d="m21.7217 124.907 1.4115.784c1.2546.784 2.823.628 4.0776-.313l5.646-5.49c.6274-.47 1.0979-1.254 1.0979-2.038v2.509c0 .784-.3137 1.568-1.0979 2.039l-5.646 4.077c-1.2546.785-2.823.941-4.0776.314l-1.4115-.784c-.7842-.471-1.2547-1.255-1.2547-2.196 0-.157 0-.313.1569-.47 0 .627.4705 1.254 1.0978 1.568z" fill="#d84b0e"/><path d="m1.64657 114.557 2.19566.627c1.09783.314 2.3525.157 3.2935-.471l6.90067-6.587c.3136-.156.4705-.47.6273-.627l.3137 1.255c.1568.784-.1569 1.725-.7842 2.195l-6.90064 4.862c-.941.628-2.19566.941-3.29349.471l-2.19567-.628c-.78416-.156-1.254661-.784-1.411493-1.568 0-.314 0-.627 0-.941 0 .627.627333 1.255 1.254663 1.412z" fill="#d84b0e"/><path d="m23.2899 81.4646 18.0358-15.2128c1.882-2.1956 5.0186-3.2935 8.4689-2.1956 3.2935 1.0978 5.3324 4.0776 5.1755 7.528 0 3.2934-1.882 5.4891-5.0186 7.0574l-15.6833 8.3122c-.7842.4705-1.2547 1.2546-1.2547 2.1956l1.7252 27.7596c0 1.882-2.6662 3.45-5.8028 3.45-3.2935 0-5.8028-1.568-5.8028-3.45l-1.882-30.8962c-.1569-1.882.6273-3.4503 2.0388-4.5482z" fill="url(#y)"/><path d="m3.99962 78.6416c0-1.882.941-3.6071 2.35249-4.705l21.32929-14.8991c1.7251-1.882 4.3913-2.9798 7.3711-2.3525 3.1367.6274 5.4892 3.1367 6.1165 6.2733.6273 3.764-1.5683 7.2144-4.705 8.469l-19.4473 8.3122c-.7841.3136-1.4115 1.0978-1.4115 2.0388l-.1568 24.4657c0 1.882-2.6661 3.451-5.8028 3.451-3.29349 0-5.80282-1.569-5.80282-3.451z" fill="url(#z)"/><path d="m25.4858 25.7891c-.1568-4.2345 3.1366-7.9985 7.3711-8.1553 1.0979 0 3.764.6273 4.2345.6273 5.4892 1.2547 10.5078 4.2345 13.174 6.9007l.1568.1568c2.0389 1.2547 3.4503 3.6072 3.6072 6.1165l1.5683 34.3464c.1568 4.705-6.1165 8.9395-14.2718 9.2531-8.1553.4705-13.3308-2.3525-13.6444-7.0574 0 0-2.0389-38.5809-2.1957-42.1881z" fill="#fff"/><path d="m25.1712 25.6321c-.1568-4.5482 3.2935-8.3122 7.6848-8.469 1.0979 0 2.1957.1568 2.6662.3137.3137.1568.7842.1568 1.2547.3136-2.5094.6273-4.2345 2.1957-4.2345 3.9208 0 0 1.5683 13.8013 1.882 21.9566.3136 6.7439.6273 20.3883 1.0978 27.7595-5.9597-.941-7.8417-1.882-8.1553-5.8028 0 0-2.0388-36.2284-2.1957-39.9924z" fill="url(#A)"/><path d="m36.3064 45.2364c-.3136-5.3324 4.705-18.5063 7.8417-21.4861 0 0 1.2547-1.2547 1.4115-2.0389 2.1956 1.2547 3.9208 2.5094 5.0186 3.6072l.1569.1568c2.0388 1.4115 3.6071 3.764 3.764 6.4302l1.882 37.0125c.1568 2.5094-1.5684 4.8619-4.2345 6.587-2.6662 1.7252-14.115 4.3913-14.7423-8.7826-.4705-9.2532-.941-17.4085-1.0979-21.4861z" fill="url(#B)"/><path d="m54.4991 31.9053 1.882 37.0125c.1568 2.5094-1.5684 4.8619-4.2345 6.587-1.2547.7842-4.2345 1.7252-7.3712 1.4115 1.882-1.5683 2.5093-3.1366 2.5093-5.1755l-3.1366-33.5622z" fill="#d84b0e"/><path d="m47.129 9.32153c.941 7.37117-2.6661 9.40997-7.3711 10.35097-5.4892 1.0978-9.41-.4705-9.7237-8.3121-.3136-7.68486 2.6662-9.72368 7.3712-10.35102 4.705-.470495 8.7826.78417 9.7236 8.31215z" fill="#ffd4c0"/><path d="m32.8573 15.7517c-.1568-1.7251 2.3525-3.4503 5.3323-3.6071 3.1367-.1568 5.646 1.0978 5.8028 2.823l.4705 6.7438c.1569 1.882-2.1956 3.4503-5.3323 3.6071-3.1366.1569-5.646-1.0978-5.8028-2.8229 0-.1569-.4705-6.7439-.4705-6.7439z" fill="#ffd4c0"/><path d="m40.6986 8.69409c5.4891 3.13661 3.2935 9.88051 4.7049 8.62581 2.3525-2.0388 3.6072-5.4892 3.2935-8.78264-.6273-5.33232-5.4891-9.096312-10.9783-8.46898-7.5279.941-6.5869 4.54815-11.1351 7.05748 2.823 5.33234 8.9395-1.56833 14.115 1.56833z" fill="#4d4d4d"/><path d="m27.2111 83.5035-24.62277-14.115c-.4705-.3137-.62734-.6273-.62734-.941v-1.2546c0-.4705.31367.3136.941 0l13.95811-7.9985c1.0979-.6274 2.823-.7842 3.764-.1569l24.6228 14.115c.3136.1568.6273-.6273.6273-.3137v1.2547c0 .4705-.3137.941-.941 1.2547l-13.9581 7.9984c-1.0978.6274-2.823.6274-3.764.1569z" fill="#171717"/><path d="m27.2104 82.2486-24.62281-14.115c-.941-.6273-.78417-1.5683.31367-2.1956l13.95814-7.9985c1.0978-.6273 2.823-.7842 3.764-.1568l24.6227 14.1149c.941.6274.7842 1.5683-.3136 2.1957l-13.9582 7.9985c-1.0978.6273-2.8229.7841-3.7639.1568z" fill="#717171"/><path d="m28.7798 82.2485c-.6273 0-1.0978-.1569-1.4115-.3137l-24.62277-14.115c-.15683-.1568-.47049-.3136-.47049-.4705 0-.3136.31367-.6273.62733-.7841l13.95813-7.9985c.4705-.3137 1.2547-.4705 1.882-.4705s1.0978.1568 1.4115.3137l24.6228 14.1149c.1568.1569.4705.3137.4705.4705 0 .3137-.3137.6273-.6274.7842l-13.9581 7.9985c-.4705.1568-1.2547.4705-1.882.4705z" fill="#4d4d4d"/><path d="m28.3091 78.9549-19.91779-11.6056c-.4705-.1568-.31366-.6273.15683-.941l7.52796-4.3913c.4705-.3137 1.0979-.3137 1.5684 0l19.9177 11.6056c.4705.1569.3137.6274-.1568.941l-7.528 4.3913c-.4705.1569-1.0978.1569-1.5683 0z" fill="#868686"/><path d="m16.3894 62.6445c.1568-.1569.4705-.1569.6273 0l1.2547.7841c.1568.1569.1568.3137 0 .3137-.1568.1568-.4705.1568-.6273 0l-1.2547-.7842c-.1568 0-.1568-.1568 0-.3136zm2.1957 1.2546c.1568-.1568.4705-.1568.6273 0l.6273.3137c.1569.1568.1569.3137 0 .3137-.1568.1568-.4705.1568-.6273 0l-.6273-.3137c-.1569 0-.1569-.1568 0-.3137zm1.5683.941c.1568-.1568.4705-.1568.6273 0l.6273.3137c.1569.1568.1569.3137 0 .3137-.1568.1568-.4705.1568-.6273 0l-.6273-.3137c-.1568-.1568-.1568-.1568 0-.3137zm1.5683.941c.1568-.1568.4705-.1568.6273 0l.6274.3137c.1568.1568.1568.3137 0 .3137-.1569.1568-.4705.1568-.6274 0l-.6273-.3137c-.1568-.1568-.1568-.3137 0-.3137zm1.4115.7842c.1568-.1568.4705-.1568.6273 0l.6274.3137c.1568.1568.1568.3136 0 .3136-.1569.1569-.4705.1569-.6274 0l-.6273-.3136c-.1568 0-.1568-.1569 0-.3137zm1.5683.941c.1569-.1568.4705-.1568.6274 0l.6273.3137c.1568.1568.1568.3136 0 .3136-.1568.1569-.4705.1569-.6273 0l-.6274-.3136c-.1568-.1569-.1568-.3137 0-.3137zm1.5684.7842c.1568-.1569.4705-.1569.6273 0l.6273.3136c.1569.1569.1569.3137 0 .3137-.1568.1568-.4705.1568-.6273 0l-.6273-.3137c-.1569 0-.1569-.1568 0-.3136zm1.4115.941c.1568-.1569.4705-.1569.6273 0l.6273.3136c.1569.1569.1569.3137 0 .3137-.1568.1568-.4705.1568-.6273 0l-.6273-.3137c-.1569-.1568-.1569-.3136 0-.3136zm1.5683.7841c.1568-.1568.4705-.1568.6273 0l.6274.4705c.1568.1569.1568.3137 0 .3137-.1569.1568-.4705.1568-.6274 0l-.6273-.3137c-.1568-.1568-.1568-.3136 0-.4705zm1.5683.941c.1569-.1568.4705-.1568.6274 0l.6273.3137c.1568.1568.1568.3137 0 .3137-.1568.1568-.4705.1568-.6273 0l-.6274-.3137c-.1568 0-.1568-.1568 0-.3137zm1.4115.941c.1568-.1568.4705-.1568.6273 0l.6274.3137c.1568.1568.1568.3137 0 .3137-.1569.1568-.4705.1568-.6274 0l-.6273-.3137c-.1568-.1568-.1568-.3137 0-.3137zm1.5683.7842c.1569-.1568.4705-.1568.6274 0l.6273.3136c.1568.1569.1568.3137 0 .3137-.1568.1568-.4705.1568-.6273 0l-.6274-.3137c-.1568 0-.1568-.1568 0-.3136zm1.5684.941c.1568-.1568.4705-.1568.6273 0l.6273.3137c.1569.1568.1569.3136 0 .3136-.1568.1568-.4705.1568-.6273 0l-.6273-.3136c-.1569-.1569-.1569-.3137 0-.3137zm-20.2315-10.1942.4705-.3136c.1569-.1569.4705-.1569.6274 0l.4705.3136c.1568.1569.1568.3137 0 .3137l-.4705.3137c-.1569.1568-.4705.1568-.6274 0l-.4705-.3137c-.1568 0-.1568-.1568 0-.3137zm2.0389 1.5684-.4705-.3137c-.1569-.1568-.1569-.3137 0-.3137l.4705-.3136c.1568-.1569.4705-.1569.6273 0l.4705.3136c.1568.1569.1568.3137 0 .3137l-.4705.3137c-.1568.1568-.4705.1568-.6273 0zm.941.1568.4705-.3137c.1568-.1568.4705-.1568.6273 0l.4705.3137c.1568.1568.1568.3137 0 .3137l-.4705.3136c-.1568.1569-.4705.1569-.6273 0l-.4705-.3136c-.1569 0-.1569-.1569 0-.3137zm1.5683.941.4705-.3137c.1568-.1568.4705-.1568.6273 0l.4705.3137c.1568.1568.1568.3137 0 .3137l-.4705.3136c-.1568.1569-.4705.1569-.6273 0l-.4705-.3136c-.1568 0-.1568-.1569 0-.3137zm3.1366 1.2547-.4705.3136c-.1568.1569-.4705.1569-.6273 0l-.4705-.3136c-.1568-.1569-.1568-.3137 0-.3137l.4705-.3137c.1568-.1568.4705-.1568.6273 0l.4705.3137c.3137 0 .3137.1568 0 .3137zm1.5684.941-.4705.3136c-.1569.1569-.4705.1569-.6274 0l-.4705-.3136c-.1568-.1569-.1568-.3137 0-.3137l.4705-.3137c.1569-.1568.4705-.1568.6274 0l.4705.3137c.1568 0 .1568.1568 0 .3137zm1.5683.7841-.4705.3137c-.1568.1568-.4705.1568-.6273 0l-.4705-.3137c-.1569-.1568-.1569-.3136 0-.3136l.4705-.3137c.1568-.1568.4705-.1568.6273 0l.4705.3137c.1568 0 .1568.3136 0 .3136zm1.4115.941-.4705.3137c-.1568.1568-.4705.1568-.6273 0l-.4705-.3137c-.1569-.1568-.1569-.3136 0-.3136l.4705-.3137c.1568-.1568.4705-.1568.6273 0l.4705.3137c.3137 0 .3137.1568 0 .3136zm1.5683.7842-.4705.3137c-.1568.1568-.4705.1568-.6273 0l-.4705-.3137c-.1568-.1568-.1568-.3137 0-.3137l.4705-.3136c.1568-.1569.4705-.1569.6273 0l.4705.3136c.1569.1569.1569.3137 0 .3137zm1.5684.941-.4705.3137c-.1569.1568-.4705.1568-.6274 0l-.4705-.3137c-.1568-.1568-.1568-.3137 0-.3137l.4705-.3136c.1569-.1569.4705-.1569.6274 0l.4705.3136c.1568 0 .1568.1569 0 .3137zm-.3137.4705.4705-.3137c.1568-.1568.4705-.1568.6273 0l.4705.3137c.1569.1568.1569.3137 0 .3137l-.4705.3136c-.1568.1569-.4705.1569-.6273 0l-.4705-.3136c-.1568 0-.1568-.1569 0-.3137zm3.2935 1.2547-.4705.3136c-.1569.1568-.4705.1568-.6273 0l-.4705-.3136c-.1569-.1569-.1569-.3137 0-.3137l.4705-.3137c.1568-.1568.4704-.1568.6273 0l.4705.3137c.1568 0 .1568.1568 0 .3137zm2.1956 1.2546-.4705.3137c-.1568.1568-.4705.1568-.6273 0l-1.2547-.6274c-.1568-.1568-.1568-.3136 0-.3136l.4705-.4705c.1569-.1568.4705-.1568.6274 0l1.2546.6273c.1569.3137.1569.4705 0 .4705zm-21.9566-10.5078.4705-.3137c.1569-.1568.4705-.1568.6274 0l1.2546.6274c.1569.1568.1569.3136 0 .3136l-.4705.3137c-.1568.1568-.4705.1568-.6273 0l-1.2547-.6273c-.1568 0-.1568-.1569 0-.3137zm2.1957 1.4115.4705-.3137c.1568-.1568.4705-.1568.6273 0l.4705.3137c.1569.1568.1569.3137 0 .3137l-.4705.3136c-.1568.1569-.4705.1569-.6273 0l-.4705-.3136c-.1568-.1569-.1568-.3137 0-.3137zm1.4115 1.2547c-.1568-.1569-.1568-.3137 0-.3137l.4705-.3137c.1568-.1568.4705-.1568.6273 0l.6274.1569c.1568.1568.1568.3136 0 .3136l-.4705.3137c-.1569.1568-.4705.1568-.6274 0zm1.5683.7841c-.1568-.1568-.1568-.3136 0-.3136l.4705-.3137c.1569-.1568.4705-.1568.6274 0l.6273.3137c.1568.1568.1568.3136 0 .3136l-.4705.3137c-.1568.1568-.4705.1568-.6273 0zm2.6662.1569.6273.3136c.1568.1569.1568.3137 0 .3137l-.4705.3137c-.1568.1568-.4705.1568-.6273 0l-.4705-.3137c-.1568-.1568-.1568-.3137 0-.3137l.4705-.3136zm1.5683.941.6273.3136c.1569.1569.1569.3137 0 .3137l-.6273.3137c-.1568.1568-.4705.1568-.6273 0l-.6274-.3137c-.1568-.1568-.1568-.3137 0-.3137l.6274-.3136c.1568-.1569.4705-.1569.6273 0zm1.4115.7841.6273.3137c.1569.1568.1569.3137 0 .3137l-.6273.3136c-.1568.1569-.4705.1569-.6273 0l-.6274-.3136c-.1568-.1569-.1568-.3137 0-.3137l.6274-.3137zm1.5683.941.6274.3137c.1568.1568.1568.3137 0 .3137l-.6274.3136c-.1568.1569-.4705.1569-.6273 0l-.6273-.3136c-.1569-.1569-.1569-.3137 0-.3137l.6273-.3137c.1568-.1568.4705-.1568.6273 0zm1.5684.941.6273.3137c.1568.1568.1568.3137 0 .3137l-.6273.3136c-.1569.1569-.4705.1569-.6274 0l-.6273-.3136c-.1568-.1569-.1568-.3137 0-.3137l.6273-.3137c.1569-.1568.4705-.1568.6274 0zm1.4115.7842.6273.3137c.1568.1568.1568.3136 0 .3136l-.6273.3137c-.1569.1568-.4705.1568-.6274 0l-.6273-.3137c-.1568-.1568-.1568-.3136 0-.3136l.6273-.3137zm.941 1.882-.6274-.3137c-.1568-.1568-.1568-.3136 0-.3136l.6274-.3137c.1568-.1568.4705-.1568.6273 0l.6273.3137c.1569.1568.1569.3136 0 .3136l-.6273.3137c-.1568.1568-.4705.1568-.6273 0zm1.5683.941-.6273-.3137c-.1569-.1568-.1569-.3137 0-.3137l.6273-.4704c.1568-.1569.4705-.1569.6273 0l.6273.3136c.1569.1568.1569.3137 0 .3137l-.6273.3136c-.1568.1569-.4705.1569-.6273.1569zm2.6661.4705-.6273.3136c-.1568.1569-.4705.1569-.6273 0l-.6273-.3136c-.1569-.1569-.1569-.3137 0-.3137l.7841-.3137c.1568-.1568.4705-.1568.6273 0l.4705.3137c.1569.1568.1569.3137 0 .3137zm-21.9566-10.351.4705-.3137c.1569-.1568.4705-.1568.6274 0l1.882 1.0979c.1568.1568.1568.3136 0 .3136l-.6274.3137c-.1568.1568-.4705.1568-.6273 0l-1.882-1.0978c0-.1569 0-.3137.1568-.3137zm2.823 1.5683.6274-.3136c.1568-.1569.4705-.1569.6273 0l.6273.3136c.1569.1569.1569.3137 0 .3137l-.6273.3137c-.1568.1568-.4705.1568-.6273 0l-.6274-.3137c-.1568 0-.1568-.1568 0-.3137zm1.4115.941.6274-.3136c.1568-.1569.4705-.1569.6273 0l.6273.3136c.1569.1569.1569.3137 0 .3137l-.6273.3137c-.1568.1568-.4705.1568-.6273 0l-.6274-.3137c-.1568-.1568-.1568-.3137 0-.3137zm1.5684.7842.6273-.3137c.1568-.1568.4705-.1568.6273 0l.6274.3137c.1568.1568.1568.3137 0 .3137l-.6274.3136c-.1568.1569-.4705.1569-.6273 0l-.6273-.3136c-.1569 0-.1569-.1569 0-.3137zm2.0388 1.5683-.6273-.3136c-.1569-.1569-.1569-.3137 0-.3137l.6273-.3137c.1568-.1568.4705-.1568.6273 0l.6273.3137c.1569.1568.1569.3137 0 .3137l-.6273.3136c-.1568.1569-.4705.1569-.6273 0zm1.5683.941-.6273-.3136c-.1569-.1569-.1569-.3137 0-.3137l.6273-.3137c.1568-.1568.4705-.1568.6273 0l.6274.3137c.1568.1568.1568.3137 0 .3137l-.6274.3136c-.1568.1569-.4705 0-.6273 0zm1.5683.7842-.6273-.3137c-.1568-.1568-.1568-.3136 0-.3136l.6273-.3137c.1569-.1568.4705-.1568.6274 0l.6273.3137c.1568.1568.1568.3136 0 .3136l-.6273.3137c-.1569.1568-.4705.1568-.6274 0zm1.4115.941-.6273-.3137c-.1568-.1568-.1568-.3136 0-.3136l.6273-.3137c.1569-.1568.4705-.1568.6274 0l.6273.3137c.1568.1568.1568.3136 0 .3136l-.6273.3137c-.1569.1568-.4705.1568-.6274 0zm1.5684.941-.6274-.3137c-.1568-.1568-.1568-.3137 0-.3137l.6274-.3136c.1568-.1568.4705-.1568.6273 0l.6273.3136c.1569.1569.1569.3137 0 .3137l-.6273.3137c-.1568 0-.4705 0-.6273 0zm1.5683.7841-.6273-.3136c-.1569-.1569-.1569-.3137 0-.3137l.6273-.3136c.1568-.1569.4705-.1569.6273 0l.6274.3136c.1568.1568.1568.3137 0 .3137l-.6274.3136c-.1568.1569-.4705.1569-.6273 0zm.941.1569.6273-.3137c.1569-.1568.4705-.1568.6274 0l.6273.3137c.1568.1568.1568.3136 0 .3136l-.6273.3137c-.1569.1568-.4705.1568-.6274 0l-.6273-.3137c-.1568 0-.1568-.1568 0-.3136zm4.0776 1.882-.6273.3136c-.1568.1569-.4705.1569-.6273 0l-1.5683-.941c-.1569-.1568-.1569-.3136 0-.3136l.7841-.3137c.1569-.1568.4705-.1568.6274 0l1.5683.941c.1568 0 .1568.1568-.1569.3137zm-21.9566-10.5078.4705-.3137c.1569-.1568.4705-.1568.6274 0l2.6661 1.5683c.1569.1569.1569.3137 0 .4705l-.4705.3137c-.1568.1568-.4705.1568-.6273 0l-2.6662-1.5683c-.1568-.1569-.1568-.3137 0-.4705zm3.6072 2.1956.4705-.3136c.1568-.1569.4705-.1569.6273 0l.4705.3136c.1569.1569.1569.3137 0 .4705l-.4705.3137c-.1568.1568-.4705.1568-.6273 0l-.4705-.3137c-.1568-.3136-.1568-.4705 0-.4705zm1.5683.7842.4705-.3137c.1569-.1568.4705-.1568.6274 0l.6273.3137c.1568.1568.1568.3137 0 .4705l-.4705.3137c-.1568.1568-.4705.1568-.6273 0l-.4705-.3137c-.3137-.1568-.3137-.3137-.1569-.4705zm1.5684.941.4705-.3137c.1568-.1568.4705-.1568.6273 0l.4705.3137c.1568.1568.1568.3137 0 .4705l-.4705.3137c-.1568.1568-.4705.1568-.6273 0l-.4705-.3137c-.3137-.1568-.3137-.4705 0-.4705zm1.4115.7842.4705-.3137c.1568-.1568.4705-.1568.6273 0l.4705.3137c.1568.1568.1568.3136 0 .4705l-.4705.3136c-.1568.1569-.4705.1569-.6273 0l-.4705-.3136c-.1569-.1569-.1569-.3137 0-.4705zm1.5683.941.4705-.3137c.1568-.1568.4705-.1568.6273 0l.4705.3137c.1568.1568.1568.3136 0 .4705l-.4705.3136c-.1568.1569-.4705.1569-.6273 0l-.4705-.3136c-.1568-.1569-.1568-.3137 0-.4705zm1.5683.7841.4705-.3136c.1568-.1569.4705-.1569.6273 0l.4705.3136c.1569.1569.1569.3137 0 .4705l-.4705.3137c-.1568.1568-.4705.1568-.6273 0l-.4705-.3137c-.3137-.1568-.3137-.3136 0-.4705zm1.4115.941.4705-.3137c.1568-.1568.4705-.1568.6273 0l.6274.3137c.1568.1568.1568.3137 0 .4705l-.4705.3137c-.1569.1568-.4705.1568-.6274 0l-.4705-.3137c-.3136-.1568-.3136-.3137-.1568-.4705zm1.5683.941.4705-.3136c.1569-.1569.4705-.1569.6274 0l.6273.3136c.1568.1568.1568.3137 0 .4705l-.4705.3137c-.1568.1568-.4705.1568-.6273 0l-.4705-.3137c-.3137-.3137-.3137-.4705-.1569-.4705zm1.5684.7842.4705-.3137c.1568-.1568.4705-.1568.6273 0l.4705.3137c.1568.1568.1568.3136 0 .4705l-.4705.3136c-.1568.1569-.4705.1569-.6273 0l-.4705-.3136c-.3137-.1569-.3137-.3137 0-.4705zm1.4115.941.4705-.3137c.1568-.1568.4705-.1568.6273 0l.4705.3137c.1568.1568.1568.3136 0 .4705l-.4705.3136c-.1568.1569-.4705.1569-.6273 0l-.4705-.3136c-.1569-.1569-.1569-.4705 0-.4705zm3.2935 1.2546-.4705.3137c-.1569.1568-.4705.1568-.6274 0l-.4705-.3137c-.1568-.1568-.1568-.3136 0-.4705l.4705-.3136c.1569-.1569.4705-.1569.6274 0l.4705.3136c.1568.1569.1568.3137 0 .4705zm-19.6042-9.7236-.4705.3137c-.1568.1568-.4705.1568-.6273 0l-1.25465-.6274c-.15684-.1568-.15684-.3136 0-.4705l.4705-.3136c.15685-.1569.47045-.1569.62735 0l1.2546.6273c.1569.1568.1569.3137 0 .4705zm1.5684.941-.4705.3137c-.1569.1568-.4705.1568-.6274 0l-.4705-.3137c-.1568-.1568-.1568-.3137 0-.4705l.4705-.3137c.1569-.1568.4705-.1568.6274 0l.4705.3137c.1568.1568.1568.3137 0 .4705zm1.4115.7842-.4705.3136c-.1569.1569-.4705.1569-.6274 0l-.4705-.3136c-.1568-.1569-.1568-.3137 0-.4705l.4705-.3137c.1569-.1568.4705-.1568.6274 0l.4705.4705c.1568 0 .1568.3137 0 .3137zm10.6646 6.1164-.4705.3137c-.1568.1568-.4705.1568-.6273 0l-9.5668-5.4891c-.1569-.1569-.1569-.3137 0-.4705l.4705-.3137c.1568-.1568.4705-.1568.6273 0l9.5668 5.4891c.1568.1569.1568.4705 0 .4705zm1.5683.941-.4705.3137c-.1568.1568-.4705.1568-.6273 0l-.4705-.3137c-.1568-.1568-.1568-.3136 0-.4705l.4705-.3136c.1568-.1569.4705-.1569.6273 0l.4705.3136c.1569.1569.1569.3137 0 .4705zm1.4115.7842-.4705.3137c-.1568.1568-.4705.1568-.6273 0l-.4705-.3137c-.1568-.1568-.1568-.3137 0-.4705l.4705-.3137c.1568-.1568.4705-.1568.6273 0l.4705.4705c.1569.1569.1569.3137 0 .3137zm1.5684.941-.4705.3137c-.1569.1568-.4705.1568-.6274 0l-.4705-.3137c-.1568-.1568-.1568-.3137 0-.4705l.4705-.3137c.1569-.1568.4705-.1568.6274 0l.4705.4705c.1568 0 .1568.1569 0 .3137z" fill="#d0d0d0"/><path d="m35.9935 60.6058c.3137-.1569 10.351-4.0777 15.0559-6.7439l-6.1164-12.8603c-.3137-.3136-.7842-1.5683-.7842-1.5683-.1568-.4705-.1568-.941-.1568-1.4115 0-3.4503 2.3525-7.528 5.3323-9.2531 2.6661-1.5684 4.705.4705 5.3323 2.3525.1568 0 8.3122 23.6817 8.3122 24.6227 0 1.4115-.6274 2.823-1.5684 3.764-.1568.1569-1.2546.7842-1.5683.941-4.705 2.5093-15.3696 6.9007-18.6631 8.1553-.3137.1569-.4705.3137-.941.3137h-.1569c-.4705 0-1.0978-.1568-1.5683-.4705-1.882-1.0978-3.4503-3.764-3.4503-5.8028.1568-.941.4705-1.5683.941-2.0388z" fill="url(#C)"/><path d="m25.4856 66.4088 6.7438-3.6072c.1568-.1568.4705-.1568.6273-.1568 0 0 3.6072-1.0978 4.2345-.941.1568 0 .1568 0 .3137.1568.1568 0 .1568.1569.3136.1569 1.4115.7841 2.5093 2.823 2.5093 4.3913 0 1.0978-.6273 1.5683-1.2546 1.882l-1.5683.6273c-1.882.7842-3.764 1.2547-5.8029 1.2547l-3.4503.1568c-.6273 0-1.2547-.1568-1.7251-.6273-2.0389-.1568-2.5094-2.5093-.941-3.2935z" fill="#ffd4c0"/><path d="m26.2708 82.4057-23.68176-13.6445c-.941-.4705-1.725158-1.882-1.725158-3.1366v-18.6631c0-1.2547.784158-1.7252 1.725158-1.2547l23.68176 13.6445c.941.4705 1.7252 1.882 1.7252 3.1366v18.5063c0 1.4115-.7842 1.882-1.7252 1.4115z" fill="#4d4d4d"/><path d="m26.7406 59.1945-23.68177-13.8013c-.31367-.1569-.62733-.3137-.941-.1569l-.47049.3137c.31366-.1568.62732-.1568 1.09782.1568l23.68174 13.6445c.941.4705 1.7252 1.882 1.7252 3.1367v18.5063c0 .7841-.3137 1.2546-.7842 1.4114h.1569l.4705-.3136c.3136-.1568.4705-.6274.4705-1.2547v-18.5063c0-1.2546-.7842-2.6661-1.7252-3.1366z" fill="#171717"/><path d="m48.5403 7.43945c0 .31367.1568.62733.1568.941.4705 3.45035-.941 6.90065-3.2935 8.93945-.941.7842-.1568-2.1956-1.5683-5.1755 1.882-1.0978 3.4503-2.66612 4.705-4.70495z" fill="#4d4d4d"/></g><path d="m118.98517 116.71965 6.51478-3.73459c.12449-.083.16597-.16598.16597-.24898v-.33194c0-.12449-.083.083-.24897 0l-3.69308-2.11627c-.29046-.166-.74692-.20749-.99589-.0415l-6.51476 3.73459c-.083.0415-.166-.16597-.166-.083v.33197c0 .12449.083.24898.24897.33198l3.69308 2.11624c.29049.166.74692.166.9959.0415z" fill="#171717" stroke-width=".264583"/><path d="m118.98546 116.38763 6.51475-3.7346c.24898-.16597.20749-.41494-.083-.58092l-3.69311-2.11627c-.29046-.16597-.74689-.20748-.99586-.0415l-6.51478 3.73456c-.24898.166-.20749.41495.083.58095l3.69308 2.11627c.29046.16597.74691.20746.99589.0415z" fill="#717171" stroke-width=".264583"/><path d="m118.57011 116.3876c.166 0 .29049-.0415.37346-.083l6.51479-3.73459c.0415-.0415.12448-.083.12448-.12449 0-.083-.083-.16597-.16597-.20746l-3.69311-2.11627c-.12448-.083-.33194-.12449-.49794-.12449-.16598 0-.29046.0415-.37346.083l-6.51476 3.73457c-.0415.0415-.12448.083-.12448.12449 0 .083.083.16597.16597.20748l3.69308 2.11627c.12449.0415.33197.12449.49794.12449z" fill="#4d4d4d" stroke-width=".264583"/><path d="m118.69468 115.51617 5.26992-3.07065c.12448-.0415.083-.16597-.0415-.24897l-1.99176-1.16187c-.12449-.083-.29049-.083-.41497 0l-5.2699 3.07065c-.12448.0415-.083.166.0415.24897l1.99178 1.16187c.12449.0415.29046.0415.41495 0z" fill="#868686" stroke-width=".264583"/><path d="m121.84843 111.20071c-.0415-.0415-.12448-.0415-.16597 0l-.33197.20746c-.0415.0415-.0415.083 0 .083.0415.0415.12448.0415.16597 0l.33197-.20749c.0415 0 .0415-.0415 0-.083zm-.58094.33194c-.0415-.0415-.12449-.0415-.16597 0l-.16598.083c-.0415.0415-.0415.083 0 .083.0415.0415.12449.0415.16598 0l.16597-.083c.0415 0 .0415-.0415 0-.083zm-.41495.24898c-.0415-.0415-.12448-.0415-.16597 0l-.166.083c-.0415.0415-.0415.083 0 .083.0415.0415.12449.0415.166 0l.16597-.083c.0415-.0415.0415-.0415 0-.083zm-.41494.24897c-.0415-.0415-.12449-.0415-.166 0l-.16598.083c-.0415.0415-.0415.083 0 .083.0415.0415.12449.0415.16598 0l.166-.083c.0415-.0415.0415-.083 0-.083zm-.37346.20749c-.0415-.0415-.12449-.0415-.166 0l-.16598.083c-.0415.0415-.0415.083 0 .083.0415.0415.12449.0415.16598 0l.166-.083c.0415 0 .0415-.0415 0-.083zm-.41498.24897c-.0415-.0415-.12448-.0415-.16597 0l-.16597.083c-.0415.0415-.0415.083 0 .083.0415.0415.12449.0415.16597 0l.16597-.083c.0415-.0415.0415-.083 0-.083zm-.41494.20749c-.0415-.0415-.12449-.0415-.16597 0l-.16598.083c-.0415.0415-.0415.083 0 .083.0415.0415.12449.0415.16598 0l.16597-.083c.0415 0 .0415-.0415 0-.083zm-.37346.24897c-.0415-.0415-.12449-.0415-.16597 0l-.16598.083c-.0415.0415-.0415.083 0 .083.0415.0415.12449.0415.16598 0l.16597-.083c.0415-.0415.0415-.083 0-.083zm-.41495.20746c-.0415-.0415-.12448-.0415-.16597 0l-.166.12448c-.0415.0415-.0415.083 0 .083.0415.0415.12449.0415.166 0l.16597-.083c.0415-.0415.0415-.083 0-.12448zm-.41494.24897c-.0415-.0415-.12449-.0415-.166 0l-.16598.083c-.0415.0415-.0415.083 0 .083.0415.0415.12449.0415.16598 0l.166-.083c.0415 0 .0415-.0415 0-.083zm-.37346.24897c-.0415-.0415-.12449-.0415-.166 0l-.16597.083c-.0415.0415-.0415.083 0 .083.0415.0415.12448.0415.16597 0l.166-.083c.0415-.0415.0415-.083 0-.083zm-.41497.20749c-.0415-.0415-.12449-.0415-.16598 0l-.16597.083c-.0415.0415-.0415.083 0 .083.0415.0415.12449.0415.16597 0l.16598-.083c.0415 0 .0415-.0415 0-.083zm-.41495.24897c-.0415-.0415-.12449-.0415-.16597 0l-.166.083c-.0415.0415-.0415.083 0 .083.0415.0415.12448.0415.166 0l.16597-.083c.0415-.0415.0415-.083 0-.083zm5.35292-2.69721-.12449-.083c-.0415-.0415-.12449-.0415-.166 0l-.12449.083c-.0415.0415-.0415.083 0 .083l.12449.083c.0415.0415.12449.0415.166 0l.12449-.083c.0415 0 .0415-.0415 0-.083zm-.53946.41497.12448-.083c.0415-.0415.0415-.083 0-.083l-.12448-.083c-.0415-.0415-.12449-.0415-.16598 0l-.12448.083c-.0415.0415-.0415.083 0 .083l.12448.083c.0415.0415.12449.0415.16598 0zm-.24897.0415-.12449-.083c-.0415-.0415-.12449-.0415-.16597 0l-.12449.083c-.0415.0415-.0415.083 0 .083l.12449.083c.0415.0415.12448.0415.16597 0l.12449-.083c.0415 0 .0415-.0415 0-.083zm-.41495.24897-.12449-.083c-.0415-.0415-.12448-.0415-.16597 0l-.12449.083c-.0415.0415-.0415.083 0 .083l.12449.083c.0415.0415.12449.0415.16597 0l.12449-.083c.0415 0 .0415-.0415 0-.083zm-.82992.33197.12449.083c.0415.0415.12448.0415.166 0l.12448-.083c.0415-.0415.0415-.083 0-.083l-.12448-.083c-.0415-.0415-.12449-.0415-.166 0l-.12449.083c-.083 0-.083.0415 0 .083zm-.41495.24898.12449.083c.0415.0415.12449.0415.16597 0l.12449-.083c.0415-.0415.0415-.083 0-.083l-.12449-.083c-.0415-.0415-.12448-.0415-.16597 0l-.12449.083c-.0415 0-.0415.0415 0 .083zm-.41494.20746.12449.083c.0415.0415.12448.0415.16597 0l.12448-.083c.0415-.0415.0415-.083 0-.083l-.12448-.083c-.0415-.0415-.12449-.0415-.16597 0l-.12449.083c-.0415 0-.0415.083 0 .083zm-.37346.24897.12449.083c.0415.0415.12448.0415.16597 0l.12449-.083c.0415-.0415.0415-.083 0-.083l-.12449-.083c-.0415-.0415-.12449-.0415-.16597 0l-.12449.083c-.083 0-.083.0415 0 .083zm-.41495.20748.12449.083c.0415.0415.12449.0415.16597 0l.12449-.083c.0415-.0415.0415-.083 0-.083l-.12449-.083c-.0415-.0415-.12448-.0415-.16597 0l-.12449.083c-.0415.0415-.0415.083 0 .083zm-.41497.24898.12449.083c.0415.0415.12448.0415.166 0l.12448-.083c.0415-.0415.0415-.083 0-.083l-.12448-.083c-.0415-.0415-.12449-.0415-.166 0l-.12449.083c-.0415 0-.0415.0415 0 .083zm.083.12448-.12449-.083c-.0415-.0415-.12448-.0415-.16597 0l-.12449.083c-.0415.0415-.0415.083 0 .083l.12449.083c.0415.0415.12449.0415.16597 0l.12449-.083c.0415 0 .0415-.0415 0-.083zm-.8714.33198.12448.083c.0415.0415.12449.0415.16597 0l.12449-.083c.0415-.0415.0415-.083 0-.083l-.12449-.083c-.0415-.0415-.12448-.0415-.16597 0l-.12448.083c-.0415 0-.0415.0415 0 .083zm-.58095.33194.12449.083c.0415.0415.12448.0415.166 0l.33194-.166c.0415-.0415.0415-.083 0-.083l-.12448-.12449c-.0415-.0415-.12449-.0415-.16598 0l-.33197.16598c-.0415.083-.0415.12448 0 .12448zm5.80935-2.78019-.12446-.083c-.0415-.0415-.12449-.0415-.166 0l-.33195.166c-.0415.0415-.0415.083 0 .083l.12449.083c.0415.0415.12449.0415.16597 0l.33195-.16598c.0415 0 .0415-.0415 0-.083zm-.58092.37346-.12449-.083c-.0415-.0415-.12448-.0415-.16597 0l-.12449.083c-.0415.0415-.0415.083 0 .083l.12449.083c.0415.0415.12449.0415.16597 0l.12449-.083c.0415-.0415.0415-.083 0-.083zm-.37346.33198c.0415-.0415.0415-.083 0-.083l-.12449-.083c-.0415-.0415-.12448-.0415-.16597 0l-.166.0415c-.0415.0415-.0415.083 0 .083l.12449.083c.0415.0415.12449.0415.166 0zm-.41494.20746c.0415-.0415.0415-.083 0-.083l-.12449-.083c-.0415-.0415-.12449-.0415-.166 0l-.16597.083c-.0415.0415-.0415.083 0 .083l.12448.083c.0415.0415.12449.0415.16598 0zm-.70544.0415-.16597.083c-.0415.0415-.0415.083 0 .083l.12449.083c.0415.0415.12448.0415.16597 0l.12449-.083c.0415-.0415.0415-.083 0-.083l-.12449-.083s-.083 0-.12449 0zm-.41494.24897-.166.083c-.0415.0415-.0415.083 0 .083l.166.083c.0415.0415.12448.0415.16597 0l.16597-.083c.0415-.0415.0415-.083 0-.083l-.16597-.083c-.0415-.0415-.12449-.0415-.16597 0zm-.37346.20746-.166.083c-.0415.0415-.0415.083 0 .083l.166.083c.0415.0415.12448.0415.16597 0l.16597-.083c.0415-.0415.0415-.083 0-.083l-.16597-.083c-.083 0-.12449 0-.16597 0zm-.41495.24897-.166.083c-.0415.0415-.0415.083 0 .083l.166.083c.0415.0415.12446.0415.16598 0l.16597-.083c.0415-.0415.0415-.083 0-.083l-.16597-.083c-.0415-.0415-.12449-.0415-.16598 0zm-.41497.24898-.16597.083c-.0415.0415-.0415.083 0 .083l.16597.083c.0415.0415.12449.0415.166 0l.16597-.083c.0415-.0415.0415-.083 0-.083l-.16597-.083c-.0415-.0415-.12449-.0415-.166 0zm-.37346.20748-.16597.083c-.0415.0415-.0415.083 0 .083l.16597.083c.0415.0415.12449.0415.166 0l.16597-.083c.0415-.0415.0415-.083 0-.083l-.16597-.083c-.083 0-.12449 0-.166 0zm-.24897.49795.166-.083c.0415-.0415.0415-.083 0-.083l-.166-.083c-.0415-.0415-.12449-.0415-.16598 0l-.16597.083c-.0415.0415-.0415.083 0 .083l.16597.083c.0415.0415.12449.0415.16598 0zm-.41495.24897.16597-.083c.0415-.0415.0415-.083 0-.083l-.16597-.12446c-.0415-.0415-.12449-.0415-.16597 0l-.166.083c-.0415.0415-.0415.083 0 .083l.166.083c.0415.0415.12448.0415.16597.0415zm-.70543.12449.166.083c.0415.0415.12449.0415.16597 0l.16597-.083c.0415-.0415.0415-.083 0-.083l-.20745-.083c-.0415-.0415-.12449-.0415-.166 0l-.12449.083c-.0415.0415-.0415.083 0 .083zm5.80935-2.7387-.12449-.083c-.0415-.0415-.12448-.0415-.16597 0l-.49795.29048c-.0415.0415-.0415.083 0 .083l.166.083c.0415.0415.12449.0415.16598 0l.49794-.29046c0-.0415 0-.083-.0415-.083zm-.74689.41494-.166-.083c-.0415-.0415-.12449-.0415-.16598 0l-.16597.083c-.0415.0415-.0415.083 0 .083l.16597.083c.0415.0415.12449.0415.16598 0l.166-.083c.0415 0 .0415-.0415 0-.083zm-.37346.24898-.166-.083c-.0415-.0415-.12449-.0415-.16598 0l-.16597.083c-.0415.0415-.0415.083 0 .083l.16597.083c.0415.0415.12449.0415.16598 0l.166-.083c.0415-.0415.0415-.083 0-.083zm-.41497.20748-.16598-.083c-.0415-.0415-.12448-.0415-.16597 0l-.166.083c-.0415.0415-.0415.083 0 .083l.166.083c.0415.0415.12449.0415.16597 0l.16598-.083c.0415 0 .0415-.0415 0-.083zm-.53944.41495.16598-.083c.0415-.0415.0415-.083 0-.083l-.16598-.083c-.0415-.0415-.12448-.0415-.16597 0l-.166.083c-.0415.0415-.0415.083 0 .083l.166.083c.0415.0415.12449.0415.16597 0zm-.41494.24897.16597-.083c.0415-.0415.0415-.083 0-.083l-.16597-.083c-.0415-.0415-.12449-.0415-.166 0l-.16598.083c-.0415.0415-.0415.083 0 .083l.16598.083c.0415.0415.12448 0 .166 0zm-.41498.20749.166-.083c.0415-.0415.0415-.083 0-.083l-.166-.083c-.0415-.0415-.12448-.0415-.16597 0l-.16597.083c-.0415.0415-.0415.083 0 .083l.16597.083c.0415.0415.12449.0415.16597 0zm-.37346.24897.166-.083c.0415-.0415.0415-.083 0-.083l-.166-.083c-.0415-.0415-.12448-.0415-.16597 0l-.16597.083c-.0415.0415-.0415.083 0 .083l.16597.083c.0415.0415.12449.0415.16597 0zm-.41494.24897.16597-.083c.0415-.0415.0415-.083 0-.083l-.16597-.083c-.0415-.0415-.12449-.0415-.16597 0l-.16598.083c-.0415.0415-.0415.083 0 .083l.16598.083zm-.41495.20746.16598-.083c.0415-.0415.0415-.083 0-.083l-.16598-.083c-.0415-.0415-.12448-.0415-.16597 0l-.166.083c-.0415.0415-.0415.083 0 .083l.166.083c.0415.0415.12449.0415.16597 0zm-.24897.0415-.16597-.083c-.0415-.0415-.12449-.0415-.166 0l-.16598.083c-.0415.0415-.0415.083 0 .083l.16598.083c.0415.0415.12448.0415.166 0l.16597-.083c.0415 0 .0415-.0415 0-.083zm-1.07889.49794.166.083c.0415.0415.12448.0415.16597 0l.41495-.24898c.0415-.0415.0415-.083 0-.083l-.20746-.083c-.0415-.0415-.12449-.0415-.166 0l-.41495.24897c-.0415 0-.0415.0415.0415.083zm5.80935-2.78019-.12449-.083c-.0415-.0415-.12448-.0415-.16597 0l-.70541.41495c-.0415.0415-.0415.083 0 .12449l.12449.083c.0415.0415.12446.0415.16597 0l.70541-.41495c.0415-.0415.0415-.083 0-.12449zm-.95438.58092-.12449-.083c-.0415-.0415-.12448-.0415-.16597 0l-.12449.083c-.0415.0415-.0415.083 0 .12449l.12449.083c.0415.0415.12449.0415.16597 0l.12449-.083c.0415-.083.0415-.12449 0-.12449zm-.41495.20749-.12448-.083c-.0415-.0415-.12449-.0415-.166 0l-.16598.083c-.0415.0415-.0415.083 0 .12448l.12449.083c.0415.0415.12449.0415.16597 0l.12449-.083c.083-.0415.083-.083.0415-.12448zm-.41497.24897-.12448-.083c-.0415-.0415-.12449-.0415-.16598 0l-.12448.083c-.0415.0415-.0415.083 0 .12449l.12448.083c.0415.0415.12449.0415.16598 0l.12448-.083c.083-.0415.083-.12449 0-.12449zm-.37346.20749-.12448-.083c-.0415-.0415-.12449-.0415-.16598 0l-.12448.083c-.0415.0415-.0415.083 0 .12448l.12448.083c.0415.0415.12449.0415.16598 0l.12448-.083c.0415-.0415.0415-.083 0-.12448zm-.41494.24897-.12449-.083c-.0415-.0415-.12449-.0415-.16597 0l-.12449.083c-.0415.0415-.0415.083 0 .12449l.12449.083c.0415.0415.12448.0415.16597 0l.12449-.083c.0415-.0415.0415-.083 0-.12449zm-.41495.20746-.12449-.083c-.0415-.0415-.12448-.0415-.166 0l-.12448.083c-.0415.0415-.0415.083 0 .12449l.12448.083c.0415.0415.12449.0415.166 0l.12449-.083c.083-.0415.083-.083 0-.12449zm-.37346.24897-.12449-.083c-.0415-.0415-.12448-.0415-.166 0l-.16597.083c-.0415.0415-.0415.083 0 .12449l.12449.083c.0415.0415.12448.0415.16597 0l.12449-.083c.083-.0415.083-.083.0415-.12449zm-.41497.24898-.12449-.083c-.0415-.0415-.12446-.0415-.16597 0l-.16597.083c-.0415.0415-.0415.083 0 .12448l.12448.083c.0415.0415.12449.0415.16598 0l.12448-.083c.083-.083.083-.12448.0415-.12448zm-.41495.20748-.12448-.083c-.0415-.0415-.12449-.0415-.16598 0l-.12448.083c-.0415.0415-.0415.083 0 .12449l.12448.083c.0415.0415.12449.0415.16598 0l.12448-.083c.083-.0415.083-.083 0-.12449zm-.37346.24898-.12448-.083c-.0415-.0415-.12449-.0415-.16598 0l-.12448.083c-.0415.0415-.0415.083 0 .12448l.12448.083c.0415.0415.12449.0415.16598 0l.12448-.083c.0415-.0415.0415-.12448 0-.12448zm-.8714.33194.12448.083c.0415.0415.12449.0415.166 0l.12449-.083c.0415-.0415.0415-.083 0-.12448l-.12449-.083c-.0415-.0415-.12448-.0415-.166 0l-.12448.083c-.0415.0415-.0415.083 0 .12448zm5.18692-2.5727.12448.083c.0415.0415.12449.0415.166 0l.33195-.166c.0415-.0415.0415-.083 0-.12449l-.12449-.083c-.0415-.0415-.12448-.0415-.16597 0l-.33197.16597c-.0415.0415-.0415.083 0 .12449zm-.41495.24897.12449.083c.0415.0415.12448.0415.16597 0l.12449-.083c.0415-.0415.0415-.083 0-.12448l-.12449-.083c-.0415-.0415-.12449-.0415-.16597 0l-.12449.083c-.0415.0415-.0415.083 0 .12448zm-.37346.20749.12449.083c.0415.0415.12448.0415.16597 0l.12451-.083c.0415-.0415.0415-.083 0-.12449l-.12451-.083c-.0415-.0415-.12446-.0415-.16597 0l-.12449.12449c-.0415 0-.0415.083 0 .083zm-2.82167 1.6183.12448.083c.0415.0415.12449.0415.16597 0l2.53122-1.45233c.0415-.0415.0415-.083 0-.12449l-.12449-.083c-.0415-.0415-.12448-.0415-.16597 0l-2.53121 1.45233c-.0415.0415-.0415.12449 0 .12449zm-.41495.24897.12449.083c.0415.0415.12448.0415.16597 0l.12449-.083c.0415-.0415.0415-.083 0-.12449l-.12449-.083c-.0415-.0415-.12449-.0415-.16597 0l-.12449.083c-.0415.0415-.0415.083 0 .12449zm-.37346.20748.12449.083c.0415.0415.12448.0415.16597 0l.12449-.083c.0415-.0415.0415-.083 0-.12448l-.12449-.083c-.0415-.0415-.12449-.0415-.16597 0l-.12449.12449c-.0415.0415-.0415.083 0 .083zm-.41497.24898.12448.083c.0415.0415.12449.0415.166 0l.12449-.083c.0415-.0415.0415-.083 0-.12449l-.12449-.083c-.0415-.0415-.12448-.0415-.166 0l-.12448.12449c-.0415 0-.0415.0415 0 .083z" fill="#d0d0d0" stroke-width=".264583"/><path d="m116.66146 110.6613c-.083-.0415-2.7387-1.07889-3.98354-1.78432l1.6183-3.40262c.083-.083.20749-.41495.20749-.41495.0415-.12449.0415-.24897.0415-.37346 0-.91289-.62243-1.99178-1.41083-2.44821-.70541-.41498-1.24486.12448-1.41084.62243-.0415 0-2.19926 6.26578-2.19926 6.51475 0 .37346.16598.74692.41496.9959.0415.0415.33196.20748.41495.24897 1.24486.66392 4.06654 1.82581 4.93794 2.15776.083.0415.12449.083.24898.083h.0415c.12448 0 .29046-.0415.41494-.12448.49795-.29046.9129-.99589.9129-1.53533-.0415-.24897-.12449-.41494-.24898-.53943z" fill="url(#D)" stroke-width=".264583"/><path d="m119.4416 112.19668-1.7843-.95441c-.0415-.0415-.12448-.0415-.16597-.0415 0 0-.95441-.29046-1.12038-.24898-.0415 0-.0415 0-.083.0415-.0415 0-.0415.0415-.083.0415-.37346.20746-.66392.74692-.66392 1.16187 0 .29046.16597.41494.33195.49794l.41494.16598c.49795.20748.99589.33197 1.53535.33197l.91289.0415c.16598 0 .33195-.0415.45644-.16598.53946-.0415.66394-.66391.24897-.8714z" fill="#ffd4c0" stroke-width=".264583"/><path d="m119.23395 116.42919 6.26581-3.61011c.24898-.12448.45644-.49794.45644-.82989v-4.93794c0-.33198-.20746-.45646-.45644-.33198l-6.26581 3.61011c-.24897.12449-.45643.49795-.45643.82989v4.89646c0 .37346.20746.49795.45643.37346z" fill="#4d4d4d" stroke-width=".264583"/><path d="m119.10963 110.2879 6.26581-3.6516c.083-.0415.16597-.083.24897-.0415l.12449.083c-.083-.0415-.166-.0415-.29049.0415l-6.26578 3.61011c-.24898.12449-.45646.49795-.45646.82992v4.89646c0 .20746.083.33195.20748.37343h-.0415l-.12449-.083c-.083-.0415-.12448-.166-.12448-.33197v-4.89646c0-.33195.20748-.70541.45646-.82989z" fill="#171717" stroke-width=".264583"/><path d="m113.34182 96.594372c0 .08299-.0415.165981-.0415.248973-.12448.912905.24898 1.825797.87141 2.365229.24897.207486.0415-.580919.41494-1.369351-.49794-.290459-.91289-.705411-1.24483-1.244851z" fill="#4d4d4d" stroke-width=".264583"/></g></svg>