<svg fill="none" height="49" viewBox="0 0 48 49" width="48" xmlns="http://www.w3.org/2000/svg"><g stroke-linecap="round" stroke-linejoin="round"><path d="m24 27c1.3807 0 2.5-1.1193 2.5-2.5s-1.1193-2.5-2.5-2.5-2.5 1.1193-2.5 2.5 1.1193 2.5 2.5 2.5z" stroke="#fff" stroke-width="2"/><path d="m24 37c6.9036 0 12.5-5.5964 12.5-12.5s-5.5964-12.5-12.5-12.5-12.5 5.5964-12.5 12.5 5.5964 12.5 12.5 12.5z" stroke="#fff" stroke-width="2"/><path d="m24 47c12.4264 0 22.5-10.0736 22.5-22.5s-10.0736-22.5-22.5-22.5-22.5 10.0736-22.5 22.5 10.0736 22.5 22.5 22.5z" stroke="#f16822" stroke-dasharray="0 6" stroke-width="3"/></g></svg>