<svg fill="none" height="50" viewBox="0 0 51 50" width="51" xmlns="http://www.w3.org/2000/svg"><g stroke="#fff" stroke-linecap="round" stroke-linejoin="round" stroke-width="1.5"><path d="m45.8862 12.8752c-1.2598-2.182-4.635-3.02353-9.383-2.3394-4.7481.684-10.4801 2.8377-15.9351 5.9871-5.455 3.1495-10.1861 7.0367-13.15261 10.8066-2.96647 3.7699-3.92527 7.1137-2.6655 9.2957 1.25978 2.182 4.63495 3.0235 9.38301 2.3394 4.7481-.6841 10.4801-2.8377 15.9351-5.9872 2.701-1.5594 5.2528-3.3164 7.5095-5.1706s4.1743-3.7693 5.6431-5.636c1.4688-1.8666 2.4602-3.6483 2.9176-5.2432.4573-1.595.3717-2.972-.2521-4.0524"/><path d="m4.75033 12.8753c-1.25978 2.182-.30097 5.5257 2.6655 9.2956s7.69757 7.6572 13.15257 10.8066c5.455 3.1495 11.1871 5.3031 15.9351 5.9872 4.7481.6841 8.1233-.1574 9.383-2.3394 1.2598-2.182.301-5.5257-2.6655-9.2956-2.9664-3.77-7.6976-7.6572-13.1526-10.8066-2.701-1.5595-5.4985-2.8909-8.2326-3.9181-2.7342-1.0273-5.3515-1.7304-7.7025-2.0691-2.351-.3388-4.38963-.3065-5.99957.0949s-2.75962 1.1641-3.3834 2.2445"/><path d="m25.3184 1c-2.5196 0-4.936 2.50222-6.7176 6.95621s-2.7824 10.49489-2.7824 16.79379 1.0008 12.3398 2.7824 16.7938 4.198 6.9562 6.7176 6.9562c2.5195 0 4.9359-2.5022 6.7175-6.9562s2.7825-10.4949 2.7825-16.7938c0-3.1189-.2458-6.2072-.7232-9.0887s-1.1772-5.4997-2.0593-7.70509c-.8822-2.20539-1.9295-3.9548-3.082-5.14835-1.1526-1.19355-2.388-1.80786-3.6355-1.80786"/></g><circle cx="25.3071" cy="24.7388" fill="#f16822" r="3.5"/></svg>