<svg fill="none" height="45" viewBox="0 0 45 45" width="45" xmlns="http://www.w3.org/2000/svg" xmlns:xlink="http://www.w3.org/1999/xlink"><clipPath id="a"><path d="m0 0h45v45h-45z"/></clipPath><g clip-path="url(#a)"><path d="m30.7249 14.2784c-.5399-7.86028-7.1097-14.2784-15.344-14.2784-8.48105 0-15.3809 6.89985-15.3809 15.3809 0 8.2322 6.41681 14.8047 14.2784 15.3444.569 7.9667 7.2317 14.2747 15.3407 14.2747 8.481 0 15.3809-6.8999 15.3809-15.3809 0-8.1091-6.3083-14.772-14.2751-15.3407zm-28.08818 1.1025c0-7.02716 5.71702-12.74418 12.74418-12.74418 6.7566 0 12.1838 5.22703 12.7031 11.67798-3.152.3138-6.0264 1.5835-8.3297 3.5137l-3.0349-9.10464c-.1794-.53842-.6831-.90149-1.2506-.90149-.5676 0-1.0713.36307-1.2507.90149l-4.21878 12.65624c-.28547.8563.35558 1.7356 1.25088 1.7356.5519 0 1.0664-.3494 1.2506-.9019l.6369-1.911h4.252c-1.6835 2.2046-2.7858 4.8752-3.075 7.782-6.33924-.5074-11.67798-5.846-11.67798-12.7038zm14.28418 2.2851h-2.9043l1.4522-4.3564zm12.6982 24.6973c-7.0271 0-12.7441-5.717-12.7441-12.7442 0-7.0271 5.717-12.7441 12.7441-12.7441 7.0272 0 12.7442 5.717 12.7442 12.7441 0 7.0272-5.717 12.7442-12.7442 12.7442z" fill="#fff"/><path d="m27.422 23.291h-3.5156c-.7281 0-1.3184.5903-1.3184 1.3184s.5903 1.3183 1.3184 1.3183h2.1295c-.2069 2.2629-.9437 5.8884-2.9531 7.496-.5685.4548-.6607 1.2844-.2059 1.853.4562.5702 1.2862.6594 1.853.2058 3.9648-3.1717 4.0105-10.5601 4.0105-10.8731 0-.7281-.5903-1.3184-1.3184-1.3184z" fill="#f16822"/><path d="m35.1562 26.8066h-1.4941v-3.6035c0-.7281-.5903-1.3183-1.3183-1.3183-.7281 0-1.3184.5902-1.3184 1.3183v12.6563c0 .7281.5903 1.3183 1.3184 1.3183.728 0 1.3183-.5902 1.3183-1.3183v-6.416h1.4941c.7281 0 1.3184-.5903 1.3184-1.3184s-.5903-1.3184-1.3184-1.3184z" fill="#f16822"/><g fill="#fff"><path d="m33.75 5.53711c3.1501 0 5.7129 2.5628 5.7129 5.71289 0 .7281.5903 1.3184 1.3183 1.3184.7281 0 1.3184-.5903 1.3184-1.3184 0-4.60397-3.7456-8.34961-8.3496-8.34961-.7281 0-1.3184.59027-1.3184 1.31836s.5903 1.31836 1.3184 1.31836z"/><path d="m11.25 39.4629c-3.15009 0-5.71289-2.5628-5.71289-5.7129 0-.7281-.59027-1.3184-1.31836-1.3184s-1.31836.5903-1.31836 1.3184c0 4.604 3.74564 8.3496 8.34961 8.3496.7281 0 1.3184-.5903 1.3184-1.3184 0-.728-.5903-1.3183-1.3184-1.3183z"/></g></g></svg>