<svg fill="none" height="47.000015" viewBox="0 0 37.591312 47.000015" width="37.591312" xmlns="http://www.w3.org/2000/svg" xmlns:xlink="http://www.w3.org/1999/xlink"><clipPath id="a"><path d="m0 0h30v30h-30z"/></clipPath><path d="m32.36372 2.8194888c-3.4009-1.45766-7.1088-2.05407201-10.7953-1.73642-3.6865.31765-7.2377 1.53956-10.3392 3.5575-3.1014401 2.01795-5.6573601 4.76962-7.4413501 8.0112602-1.78398 3.2417-2.74097 6.8733-2.78619 10.5732-.04521 3.6999.82273 7.3538 2.52696 10.6381s4.19214 6.0976 7.2433801 8.1908c3.0512 2.0931 6.5715 3.4015 10.2491 3.8091 3.6777.4077 7.399-.098 10.8346-1.4721" fill="none" stroke="#fff" stroke-linecap="round" stroke-width="2"/><g clip-path="url(#a)" transform="translate(7.591313 9.812806)"><path d="m2.5 7 6-.5v11.5l-5.5-.5-2-1.5v-6.5z" fill="#f16822"/><path d="m26.7773.527344c-1.5729 0-2.8854 1.133026-3.1663 2.625646-5.8779 2.49808-15.07893 2.5306-15.1735 2.5306h-4.04297c-2.42314 0-4.39453 1.97139-4.39453 4.39451v4.2188c0 2.4231 1.97139 4.3945 4.39453 4.3945h3.3317l1.55303 7.2833c.42258 2.0268 2.23194 3.498 4.30214 3.498 1.505 0 2.6218-1.3839 2.3159-2.8488l-.6354-3.0502c1.7276-.5646 3.0833-1.9528 3.606-3.694 1.6482.3015 3.2534.713 4.7433 1.3435.2813 1.492 1.5936 2.6245 3.1661 2.6245 1.777 0 3.2227-1.4457 3.2227-3.2227v-16.875c0-1.77697-1.4457-3.222656-3.2227-3.222656zm-8.4294 17.481756c-.971-.1818-5.9495-.8151-9.03149-1.0239v-9.55821c2.39499-.06474 9.13009-.41976 14.23829-2.35734v14.24045c-1.6682-.6193-3.444-1.0134-5.2068-1.301zm-16.59009-3.7122v-4.2188c0-1.45386 1.18283-2.63669 2.63672-2.63669h3.16406v9.49219h-3.16406c-1.45389 0-2.63672-1.1828-2.63672-2.6367zm11.82359 13.4179c-1.2421 0-2.3278-.8827-2.5821-2.1028l-1.46047-6.8491c.96927.0705 1.98417.1638 2.98237.2742l1.6554 7.9457c.0788.3779-.209.732-.5952.732zm1.3187-5.8777-.5389-2.5867c.9133.1062 1.8334.2157 2.7483.3462-.3785 1.0263-1.1876 1.8475-2.2094 2.2405zm13.3421-1.2121c0 .8077-.6571 1.4648-1.4649 1.4648-.8077 0-1.4648-.6571-1.4648-1.4648v-16.875c0-.80771.6571-1.46484 1.4648-1.46484.8078 0 1.4649.65713 1.4649 1.46484z" fill="#fff"/></g></svg>