<svg fill="none" height="40.409901" viewBox="0 0 47 40.409901" width="47" xmlns="http://www.w3.org/2000/svg"><g stroke-linecap="round" stroke-width="2"><path d="m7.5900847 1c-3.10877 3.10877-5.23865 7.0602-6.12651 11.36609-.88785599 4.3059-.49477399 8.7775 1.13068 12.8625 1.62545 4.0849 4.41205 7.6042 8.0155303 10.1229 3.6034 2.5187 7.8658 3.9266 12.2606 4.0496 4.3947.123 8.7292-1.0442 12.468-3.3574 3.7387-2.3132 6.7178-5.671 8.5692-9.6586 1.8515-3.9876 2.4941-8.4303 1.8485-12.7791s-3.199872-9.2888245-6.129772-12.5666445" stroke="#fff"/><g stroke-linejoin="round"><path d="m23.990663 32.448026s10.8-5.4 10.8-13.5v-9.45l-10.8-4.0500004-10.8 4.0500004v9.45c0 8.1 10.8 13.5 10.8 13.5z" stroke="#fff"/><path d="m18.204943 18.562326 3.85714 3.8572 7.71428-7.7143" stroke="#f16822"/></g></g></svg>