<svg fill="none" height="43" viewBox="0 0 47 43" width="47" xmlns="http://www.w3.org/2000/svg"><path d="m32 24.5h-15.5-.5l2.5-6h11z" fill="#f16822"/><g stroke="#fff" stroke-linecap="round" stroke-width="2"><path d="m19 1h10" stroke-linejoin="round"/><path d="m21.3656 11.5381h5.269" stroke-linejoin="round"/><path d="m21.3655 1v10.5382l-5.2691 11.8554c-.0636.1278-.0966.2687-.0964.4115s.0335.2836.0973.4113c.0639.1277.1565.2388.2707.3246.1141.0858.2466.144.387.1698h14.49c.1404-.0258.2729-.084.387-.1698.1142-.0858.2068-.1969.2707-.3246.0638-.1277.0971-.2685.0973-.4113s-.0328-.2837-.0964-.4115l-5.2691-11.8554v-10.5382" stroke-linejoin="round"/><path d="m.999998 19.5c0 2.9547.581982 5.8806 1.712712 8.6104s2.78807 5.2102 4.87739 7.2995 4.5697 3.7467 7.2995 4.8774 5.6557 1.7127 8.6104 1.7127 5.8806-.582 8.6104-1.7127 5.2102-2.7881 7.2995-4.8774 3.7467-4.5697 4.8774-7.2995c1.1307-2.7299 1.7127-5.6557 1.7127-8.6104"/></g></svg>