<svg fill="none" height="47" viewBox="0 0 47 47" width="47" xmlns="http://www.w3.org/2000/svg"><g stroke="#fff" stroke-linecap="round" stroke-linejoin="round" stroke-width="2"><path d="m23.5 11c2.7614 0 5-2.23858 5-5s-2.2386-5-5-5-5 2.23858-5 5 2.2386 5 5 5z"/><path d="m6 46c2.76142 0 5-2.2386 5-5s-2.23858-5-5-5-5 2.2386-5 5 2.23858 5 5 5z"/><path d="m41 46c2.7614 0 5-2.2386 5-5s-2.2386-5-5-5-5 2.2386-5 5 2.2386 5 5 5z"/><path d="m23.5 36c4.1421 0 7.5-3.3579 7.5-7.5s-3.3579-7.5-7.5-7.5-7.5 3.3579-7.5 7.5 3.3579 7.5 7.5 7.5z" fill="none"/></g><circle cx="23.625505" cy="28.32856" fill="#f16822" r="3.5"/><path d="m23.5 11v10" stroke="#fff" stroke-linecap="round" stroke-linejoin="round" stroke-width="2"/><path d="m10.2505 38 7-5" stroke="#fff" stroke-linecap="round" stroke-linejoin="round" stroke-width="2"/><path d="m36.75 38-7-5" stroke="#fff" stroke-linecap="round" stroke-linejoin="round" stroke-width="2"/></svg>