<svg fill="none" height="47" viewBox="0 0 59 47" width="59" xmlns="http://www.w3.org/2000/svg"><path d="m32.9998 19-2.5-7 .5-.5 7 3.5 2 4-6 .5-1 .5v7h-6l-.5 1 1.5 6.5-6-2.5-3.5-5h7.5l-.5-8z" fill="#f16822"/><g stroke="#fff" stroke-linecap="round" stroke-width="2"><path d="m29.4998 34.5c6.3513 0 11.5-5.1487 11.5-11.5s-5.1487-11.5-11.5-11.5-11.5 5.1487-11.5 11.5 5.1487 11.5 11.5 11.5z" stroke-linejoin="round"/><path d="m18.7666 19.1667h21.4667" stroke-linejoin="round"/><path d="m18.7666 26.8333h21.4667" stroke-linejoin="round"/><path d="m28.8611 11.5c-2.1526 3.4495-3.2938 7.4339-3.2938 11.5s1.1412 8.0505 3.2938 11.5" stroke-linejoin="round"/><path d="m30.1387 11.5c2.1527 3.4495 3.2939 7.4339 3.2939 11.5s-1.1412 8.0505-3.2939 11.5" stroke-linejoin="round"/><path d="m38.1774 44.2591c4.1057-1.7163 7.6104-4.6116 10.0707-8.3197 2.4604-3.7081 3.7658-8.0625 3.7514-12.5125-.0144-4.4501-1.3481-8.7959-3.8324-12.488-2.4843-3.69207-6.0077-6.56455-10.1245-8.25419"/><path d="m20.8223 2.74093c-4.1058 1.71628-7.6105 4.61154-10.0708 8.31967-2.46032 3.7081-3.76582 8.0625-3.75139 12.5125.01442 4.4501 1.34811 8.7959 3.83239 12.488 2.4843 3.6921 6.0077 6.5646 10.1245 8.2542"/></g></svg>