<svg fill="none" height="72" viewBox="0 0 64 72" width="64" xmlns="http://www.w3.org/2000/svg"><path d="m39.0535 63.2953c0 3.8956-3.1577 7.0538-7.0534 7.0538-3.8956 0-7.0538-3.1582-7.0538-7.0538 0-3.8952 3.1582-7.0534 7.0538-7.0534 3.8957 0 7.0534 3.1582 7.0534 7.0534z" fill="#171717"/><path d="m39.0535 8.09976c0 3.89514-3.1577 7.05334-7.0534 7.05334-3.8956 0-7.0538-3.1582-7.0538-7.05334 0-3.89569 3.1582-7.05386 7.0538-7.05386 3.8957 0 7.0534 3.15817 7.0534 7.05386z" fill="#171717"/><path d="m35.4321 35.6976c0 1.9327-1.5667 3.4996-3.4996 3.4996s-3.4999-1.5669-3.4999-3.4996c0-1.9329 1.567-3.4998 3.4999-3.4998s3.4996 1.5669 3.4996 3.4998z" fill="#f16822"/><path d="m62.9538 21.8604c0 3.8957-3.1581 7.0539-7.0533 7.0539-3.8957 0-7.0538-3.1582-7.0538-7.0539 0-3.8951 3.1581-7.0533 7.0538-7.0533 3.8952 0 7.0533 3.1582 7.0533 7.0533z" fill="#171717"/><path d="m59.2301 49.4631c0 1.804-1.4625 3.2665-3.2663 3.2665-1.804 0-3.2665-1.4625-3.2665-3.2665 0-1.8041 1.4625-3.2663 3.2665-3.2663 1.8038 0 3.2663 1.4622 3.2663 3.2663z" fill="#f16822"/><path d="m11.6343 21.6983c0 1.933-1.567 3.4999-3.49992 3.4999-1.93291 0-3.49961-1.5669-3.49961-3.4999 0-1.9326 1.5667-3.4996 3.49961-3.4996 1.93292 0 3.49992 1.567 3.49992 3.4996z" fill="#f16822"/><path d="m15.1531 49.5103c0 3.8957-3.1582 7.0539-7.05389 7.0539s-7.05331-3.1582-7.05331-7.0539c0-3.8956 3.15762-7.0533 7.05331-7.0533s7.05389 3.1577 7.05389 7.0533z" fill="#171717"/><g fill="#fff"><path d="m17.0219 55.8698c-.5002-.2889-.6716-.9285-.3828-1.4287.2888-.5003.9285-.6717 1.4288-.3828l5.0297 2.9044c.5003.2889.6716.9287.3826 1.4289-.2889.5001-.9285.6713-1.4286.3825z"/><path d="m16.6273 16.9896c-.2887-.5002-.1174-1.1398.3828-1.4286l5.0409-2.9112c.5003-.2889 1.14-.1176 1.429.3827.2889.5003.1176 1.1401-.3828 1.429l-5.041 2.911c-.5003.2889-1.14.1175-1.4289-.3829z"/><path d="m40.903 14.4571c-.5003-.2889-.6717-.9287-.3827-1.429.2889-.5002.9287-.6716 1.4289-.3826l5.0411 2.9116c.5001.2889.6714.9284.3826 1.4285-.2888.5002-.9284.6715-1.4286.3827z"/><path d="m54.8545 32.7843c0-.5775.4682-1.0458 1.0458-1.0458s1.0458.4683 1.0458 1.0458v5.8746c0 .5776-.4682 1.0459-1.0458 1.0459s-1.0458-.4683-1.0458-1.0459z"/><path d="m32.0001 55.196c-4.466 0-8.0997 3.6337-8.0997 8.0992 0 4.4665 3.6337 8.0997 8.0997 8.0997s8.0991-3.6332 8.0991-8.0997c0-4.4655-3.6331-8.0992-8.0991-8.0992zm0 14.1072c-3.3129 0-6.0081-2.6952-6.0081-6.008 0-3.3123 2.6952-6.0075 6.0081-6.0075 3.3128 0 6.0075 2.6952 6.0075 6.0075 0 3.3128-2.6947 6.008-6.0075 6.008z"/><path d="m32.0001 16.1988c4.466 0 8.0991-3.6337 8.0991-8.09912 0-4.46654-3.6331-8.09968-8.0991-8.09968s-8.0997 3.63314-8.0997 8.09968c0 4.46542 3.6337 8.09912 8.0997 8.09912zm0-14.10715c3.3128 0 6.0075 2.69517 6.0075 6.00803 0 3.31232-2.6947 6.00752-6.0075 6.00752-3.3129 0-6.0081-2.6952-6.0081-6.00752 0-3.31286 2.6952-6.00803 6.0081-6.00803z"/><path d="m32.0001 43.8031c4.466 0 8.0991-3.6332 8.0991-8.0992s-3.6331-8.0997-8.0991-8.0997-8.0997 3.6337-8.0997 8.0997 3.6337 8.0992 8.0997 8.0992zm0-14.1072c3.3128 0 6.0075 2.6952 6.0075 6.0075 0 3.3128-2.6947 6.008-6.0075 6.008-3.3129 0-6.0081-2.6952-6.0081-6.008 0-3.3123 2.6952-6.0075 6.0081-6.0075z"/><path d="m55.8999 29.96c4.466 0 8.0997-3.6331 8.0997-8.0996 0-4.466-3.6337-8.0992-8.0997-8.0992s-8.0991 3.6332-8.0991 8.0992c0 4.4665 3.6331 8.0996 8.0991 8.0996zm0-14.1071c3.3129 0 6.0081 2.6951 6.0081 6.0075 0 3.3128-2.6952 6.008-6.0081 6.008-3.3123 0-6.0075-2.6952-6.0075-6.008 0-3.3124 2.6952-6.0075 6.0075-6.0075z"/><path d="m55.8999 41.4114c-4.466 0-8.0991 3.6331-8.0991 8.0991s3.6331 8.0991 8.0991 8.0991 8.0997-3.6331 8.0997-8.0991-3.6337-8.0991-8.0997-8.0991zm0 14.1071c-3.3123 0-6.0075-2.6951-6.0075-6.008 0-3.3123 2.6952-6.0075 6.0075-6.0075 3.3129 0 6.0081 2.6952 6.0081 6.0075 0 3.3129-2.6952 6.008-6.0081 6.008z"/><path d="m8.09968 29.96c4.46542 0 8.09912-3.6331 8.09912-8.0996 0-4.466-3.6337-8.0992-8.09912-8.0992-4.46654 0-8.09968 3.6332-8.09968 8.0992 0 4.4665 3.63314 8.0996 8.09968 8.0996zm0-14.1071c3.31232 0 6.00752 2.6951 6.00752 6.0075 0 3.3128-2.6952 6.008-6.00752 6.008-3.31286 0-6.00803-2.6952-6.00803-6.008 0-3.3124 2.69517-6.0075 6.00803-6.0075z"/><path d="m8.09968 41.4114c-4.46654 0-8.09968 3.6331-8.09968 8.0991s3.63314 8.0991 8.09968 8.0991c4.46542 0 8.09912-3.6331 8.09912-8.0991s-3.6337-8.0991-8.09912-8.0991zm0 14.1071c-3.31286 0-6.00803-2.6951-6.00803-6.008 0-3.3123 2.69517-6.0075 6.00803-6.0075 3.31232 0 6.00752 2.6952 6.00752 6.0075 0 3.3129-2.6952 6.008-6.00752 6.008z"/><path d="m30.9541 19.0007c0-.5776.4682-1.0459 1.0458-1.0459s1.0458.4683 1.0458 1.0459v5.8146c0 .5776-.4682 1.0458-1.0458 1.0458s-1.0458-.4682-1.0458-1.0458z"/><path d="m16.6044 44.6014c-.289-.4999-.1181-1.1395.3818-1.4286l5.0642-2.9292c.4999-.2892 1.1397-.1182 1.4288.3818.2891.4999.1182 1.1395-.3817 1.4287l-5.0642 2.9291c-.5.2892-1.1397.1183-1.4289-.3818z"/><path d="m40.9033 42.0533c-.5-.2892-.6708-.929-.3815-1.429.2892-.5.929-.6708 1.429-.3815l5.0641 2.9298c.5.2893.6708.9291.3815 1.4291-.2892.4999-.929.6708-1.429.3815z"/></g></svg>