<svg fill="none" height="63" viewBox="0 0 70 63" width="70" xmlns="http://www.w3.org/2000/svg" xmlns:xlink="http://www.w3.org/1999/xlink"><clipPath id="a"><path d="m0 0h70v63h-70z"/></clipPath><g clip-path="url(#a)"><path d="m70 50.2844c0-.6358-.506-1.156-1.1245-1.156h-1.6867v-43.63757c0-3.03441-2.3896-5.49083-5.3414-5.49083h-53.69479c-2.95181 0-5.34137 2.45642-5.34137 5.49083v43.63757h-1.68674c-.618476 0-1.1245.5202-1.1245 1.156v2.8899c0 5.4186 4.28715 9.8257 9.55823 9.8257h50.88357c5.2711 0 9.5582-4.4071 9.5582-9.8257zm-64.93976-44.79357c0-1.7484 1.39157-3.1789 3.09237-3.1789h53.69479c1.7008 0 3.0924 1.4305 3.0924 3.1789v43.63757h-18.6948c-.2952 0-.5763.1156-.8012.3324l-2.4739 2.5575h-15.9398l-2.4879-2.5575c-.2109-.2168-.492-.3324-.8012-.3324h-18.68076zm62.69076 47.68347c0 4.147-3.2751 7.5138-7.3092 7.5138h-50.88357c-4.03413 0-7.30923-3.3668-7.30923-7.5138v-1.7339h21.0422l2.4879 2.5575c.2109.2168.492.3324.8012.3324h16.8675c.2952 0 .5763-.1156.8012-.3324l2.4879-2.5575h21.0141z" fill="#fff"/><path d="m44.545 25.6271c0-1.2496-.6834-2.4175-1.7355-2.9548l-.4339-.2219v-3.8307c0-4.3796-3.3084-7.9417-7.376-7.9417-4.0677 0-7.3761 3.5621-7.3761 7.9417v3.8307l-.4339.2219c-1.0521.5373-1.7355 1.7052-1.7355 2.9548v11.6791c0 1.7985 1.3667 3.2701 3.0372 3.2701h13.0165c1.6705 0 3.0372-1.4716 3.0372-3.2701zm-15.1859-7.0074c0-3.3519 2.5273-6.0731 5.6405-6.0731 3.1131 0 5.6404 2.7212 5.6404 6.0731v3.7373h-11.2809zm13.4504 18.6865c0 .7708-.5858 1.4014-1.3017 1.4014h-13.0165c-.7159 0-1.3017-.6306-1.3017-1.4014v-11.6791c0-.7708.5858-1.4015 1.3017-1.4015h13.0165c.7159 0 1.3017.6307 1.3017 1.4015z" fill="#f16822"/></g></svg>