<svg fill="none" height="50" viewBox="0 0 218 50" width="218" xmlns="http://www.w3.org/2000/svg"><g fill="#666"><g clip-rule="evenodd" fill-rule="evenodd"><path d="m64.8965 11.6761-22.2004 22.2004-2.775-2.775 22.2003-22.2004z"/><path d="m38.7696 35.0258v-20.5748h3.9245v20.5748z"/><path d="m59.3454 35.0259h-20.5748v-3.9246h20.5748z"/><path d="m8.89941 37.7572 22.20039-22.2004 2.775 2.7751-22.2003 22.2003z"/><path d="m35.0263 14.4076v20.5747h-3.9245v-20.5747z"/><path d="m14.4505 14.4075h20.5748v3.9245h-20.5748z"/></g><path d="m84.3359 19.6465v-2.25h-9.167v12.6035h2.4698v-5.001h5.7744v-2.2148h-5.7744v-3.1377zm5.3526 10.6084c1.3974 0 2.5576-.457 3.4804-1.3799.9229-.9229 1.3799-2.0654 1.3799-3.4365s-.457-2.5137-1.3799-3.4278c-.9228-.914-2.083-1.3711-3.4892-1.3711-1.4063 0-2.5664.4571-3.4893 1.3711-.9228.9141-1.3886 2.0567-1.3886 3.4278s.457 2.5136 1.3798 3.4365c.9229.9229 2.083 1.3799 3.4893 1.3799zm-.0176-2.1621c-.7559 0-1.3711-.2461-1.8457-.7471s-.7119-1.1338-.7119-1.8984c0-.7647.2373-1.3975.7119-1.8985.4746-.5009 1.0898-.747 1.8457-.747s1.3711.2461 1.8457.747c.4746.501.7119 1.1338.7119 1.8985 0 .7646-.2373 1.3974-.7119 1.8984s-1.0898.7471-1.8457.7471zm9.0527-5.8535v-1.3448h-2.373v9.1055h2.373v-3.9639c0-1.1953.2549-2.039.7559-2.5312s1.2485-.6592 2.2415-.501v-2.2324c-1.407-.1934-2.4085.2988-3.0062 1.4765zm10.6344 7.7607h2.707l-3.858-5.1855 3.498-3.92h-2.777l-3.279 3.7617v-7.7958h-2.373v13.1396h2.373v-2.3203l1.064-1.1865zm16.752-12.6035v8.1738l-6.328-8.1738h-2.039v12.6035h2.47v-8.1914l6.337 8.1914h2.03v-12.6035zm9.211 12.8584c1.099 0 2.031-.2637 2.795-.7822.765-.5186 1.292-1.125 1.591-1.8106l-2.145-.6328c-.421.7998-1.16 1.2041-2.214 1.2041-.791 0-1.407-.1846-1.855-.5625s-.712-.8789-.791-1.5029h7.075c.035-.1934.053-.4746.053-.8438 0-1.3447-.422-2.4609-1.266-3.3486-.843-.8877-1.995-1.3272-3.445-1.3272-1.415 0-2.566.4571-3.445 1.3711-.879.9141-1.319 2.0655-1.319 3.4453 0 1.4414.457 2.6016 1.372 3.4805.914.8789 2.1 1.3184 3.568 1.3184zm-2.636-5.5723c.07-.5537.325-1.0283.764-1.4238.44-.3955.985-.5977 1.644-.5977.685 0 1.239.1934 1.67.5801.43.3867.676.8701.738 1.4414zm13.869 3.1026c-.334.1669-.695.2548-1.081.2548-.747 0-1.117-.3867-1.117-1.1513v-3.9112h2.664v-2.083h-2.664v-2.9531h-2.39v2.9531h-1.529v2.083h1.529v3.9112c0 1.0195.255 1.8193.764 2.3906.51.5713 1.266.8613 2.277.8613.694 0 1.406-.1406 2.127-.4306zm12.999-6.8907-1.89 6.0996-1.89-6.0996h-1.995l-1.872 6.0996-1.889-6.0996h-2.47l3.138 9.1055h2.223l1.872-5.7393 1.872 5.7393h2.215l3.155-9.1055zm7.708 9.3604c1.397 0 2.557-.457 3.48-1.3799s1.38-2.0654 1.38-3.4365-.457-2.5137-1.38-3.4278c-.923-.914-2.083-1.3711-3.489-1.3711s-2.566.4571-3.489 1.3711c-.923.9141-1.389 2.0567-1.389 3.4278s.457 2.5136 1.38 3.4365 2.083 1.3799 3.489 1.3799zm-.018-2.1621c-.756 0-1.371-.2461-1.846-.7471-.474-.501-.711-1.1338-.711-1.8984 0-.7647.237-1.3975.711-1.8985.475-.5009 1.09-.747 1.846-.747s1.371.2461 1.846.747c.474.501.712 1.1338.712 1.8985 0 .7646-.238 1.3974-.712 1.8984-.475.501-1.09.7471-1.846.7471zm9.053-5.8535v-1.3448h-2.373v9.1055h2.373v-3.9639c0-1.1953.255-2.039.756-2.5312s1.248-.6592 2.241-.501v-2.2324c-1.406-.1934-2.408.2988-3.006 1.4765zm10.635 7.7607h2.707l-3.859-5.1855 3.498-3.92h-2.777l-3.278 3.7617v-7.7958h-2.373v13.1396h2.373v-2.3203l1.063-1.1865zm5.159-10.3887c.395 0 .729-.1318 1.002-.3955.272-.2637.413-.5976.413-.9931 0-.3868-.141-.712-.413-.9756-.273-.2637-.607-.3955-1.002-.3955-.396 0-.73.1318-1.002.3955-.273.2636-.413.5888-.413.9756 0 .3955.14.7294.413 1.0019.272.2725.606.4043 1.002.4043zm-1.231 10.4063h2.391v-9.1055h-2.391zm10.081-9.378c-1.221 0-2.197.4659-2.926 1.4063v-1.1514h-2.373v9.1055h2.373v-4.5c0-.7998.202-1.4414.606-1.9248s.932-.7207 1.591-.7207c.642 0 1.125.2021 1.45.6064s.492.958.492 1.67v4.8779h2.382v-5.3262c0-1.248-.307-2.2324-.923-2.9531-.615-.7207-1.503-1.0811-2.672-1.0811zm12.657.2549v1.0635c-.703-.8789-1.661-1.3184-2.874-1.3184-1.31 0-2.391.4307-3.235 1.292-.843.8614-1.265 1.9688-1.265 3.3223 0 1.3096.422 2.4082 1.274 3.2959.853.8877 1.925 1.3359 3.217 1.3359 1.204 0 2.162-.4394 2.874-1.3183v1.0986c-.009.7119-.211 1.292-.598 1.7402-.386.4483-.94.668-1.661.668-1.09-.0088-1.881-.4043-2.373-1.1865l-2.074.7383c.879 1.5996 2.347 2.3994 4.394 2.3994 1.407 0 2.54-.4043 3.402-1.2129.861-.8086 1.292-1.8545 1.292-3.1377v-8.7803zm-2.47 6.8555c-.756 0-1.371-.2285-1.846-.6943-.474-.4659-.712-1.0635-.712-1.793s.238-1.3272.712-1.7842c.475-.457 1.09-.6855 1.846-.6855.729 0 1.327.2285 1.802.6855.474.457.712 1.0547.712 1.7842s-.238 1.3271-.712 1.793c-.475.4658-1.081.6943-1.811.6943z"/></g></svg>