<svg width="118" height="41" viewBox="0 0 118 41" fill="none" xmlns="http://www.w3.org/2000/svg">
<g id="Group 21">
<path id="Union" fill-rule="evenodd" clip-rule="evenodd" d="M26.9135 5.27329C26.9845 4.96293 27.0221 4.6398 27.0221 4.3079C27.0221 1.92871 25.0934 0 22.7142 0C20.335 0 18.4063 1.92871 18.4063 4.3079C18.4063 5.28606 18.7323 6.18808 19.2816 6.91122L14.502 10.9598C14.0234 10.4796 13.3612 10.1824 12.6297 10.1824C11.1697 10.1824 9.98618 11.3659 9.98618 12.8259C9.98618 13.4005 10.1695 13.9323 10.4809 14.3659L4.31472 19.589C3.85927 19.217 3.27744 18.9938 2.64348 18.9938C1.18353 18.9938 0 20.1774 0 21.6373C0 23.0973 1.18353 24.2808 2.64348 24.2808C4.10344 24.2808 5.28697 23.0973 5.28697 21.6373C5.28697 21.0235 5.07776 20.4585 4.72677 20.0099L10.8744 14.8025C11.3412 15.2174 11.956 15.4694 12.6297 15.4694C13.3016 15.4694 13.9149 15.2187 14.3813 14.8057L18.905 19.8513C18.4737 20.3217 18.2104 20.9488 18.2104 21.6373C18.2104 23.0973 19.394 24.2808 20.8539 24.2808C22.3139 24.2808 23.4974 23.0973 23.4974 21.6373C23.4974 20.1774 22.3139 18.9938 20.8539 18.9938C20.294 18.9938 19.7748 19.1679 19.3474 19.4648L14.7774 14.3674C15.0894 13.9335 15.2731 13.4011 15.2731 12.8259C15.2731 12.309 15.1248 11.8267 14.8683 11.4194L19.6679 7.35388C20.4475 8.13355 21.5245 8.6158 22.7142 8.6158C23.6683 8.6158 24.5499 8.30562 25.2638 7.78061L27.5267 10.8422C26.9772 11.3266 26.6305 12.0357 26.6305 12.8259C26.6305 14.2858 27.8141 15.4694 29.274 15.4694C30.734 15.4694 31.9175 14.2858 31.9175 12.8259C31.9175 11.3659 30.734 10.1824 29.274 10.1824C28.8153 10.1824 28.3838 10.2992 28.0078 10.5048L25.7133 7.40038C26.1626 6.96457 26.5172 6.43173 26.7433 5.83565L44.2262 11.4867C43.995 11.8794 43.8624 12.3372 43.8624 12.8259C43.8624 14.2858 45.046 15.4694 46.5059 15.4694C47.9659 15.4694 49.1494 14.2858 49.1494 12.8259C49.1494 11.3659 47.9659 10.1824 46.5059 10.1824C45.7586 10.1824 45.0837 10.4925 44.6029 10.9911L26.9135 5.27329Z" fill="#666666"/>
<g id="symas">
<path d="M28.002 29.6363L32.0463 29.0196C32.2184 29.8036 32.5674 30.4012 33.0933 30.8123C33.6192 31.2139 34.3554 31.4146 35.3019 31.4146C36.3441 31.4146 37.1281 31.2234 37.654 30.841C38.0078 30.5733 38.1846 30.2147 38.1846 29.7653C38.1846 29.4594 38.089 29.206 37.8978 29.0052C37.697 28.814 37.2476 28.6371 36.5497 28.4746C33.2989 27.7575 31.2384 27.1025 30.3684 26.5097C29.1636 25.6875 28.5613 24.5449 28.5613 23.082C28.5613 21.7626 29.0824 20.6535 30.1245 19.7547C31.1667 18.856 32.7826 18.4066 34.9721 18.4066C37.0564 18.4066 38.6053 18.746 39.6188 19.4249C40.6323 20.1037 41.3303 21.1077 41.7127 22.4367L37.9121 23.1394C37.7496 22.5466 37.4389 22.0925 36.9799 21.7769C36.5306 21.4614 35.8852 21.3037 35.0438 21.3037C33.9825 21.3037 33.2224 21.4519 32.7634 21.7483C32.4575 21.9586 32.3045 22.2311 32.3045 22.5657C32.3045 22.8526 32.4384 23.0964 32.7061 23.2972C33.0694 23.5649 34.3219 23.9426 36.4636 24.4302C38.6149 24.9178 40.116 25.5154 40.967 26.2229C41.8083 26.94 42.229 27.9391 42.229 29.2203C42.229 30.6163 41.6458 31.8162 40.4793 32.8201C39.3129 33.8241 37.5871 34.326 35.3019 34.326C33.2272 34.326 31.5826 33.9053 30.3684 33.0639C29.1636 32.2226 28.3748 31.08 28.002 29.6363Z" fill="#666666"/>
<path d="M43.864 18.7508H48.1522L51.795 29.5645L55.3518 18.7508H59.5253L54.1471 33.4082L53.1862 36.0614C52.8324 36.9506 52.493 37.6294 52.1679 38.0979C51.8524 38.5664 51.4843 38.9441 51.0636 39.2309C50.6525 39.5273 50.1409 39.7568 49.529 39.9193C48.9267 40.0819 48.243 40.1631 47.4781 40.1631C46.7037 40.1631 45.9436 40.0819 45.1978 39.9193L44.8392 36.7641C45.4703 36.8884 46.0392 36.9506 46.5459 36.9506C47.4829 36.9506 48.1761 36.6733 48.6255 36.1188C49.0749 35.5738 49.4191 34.8758 49.6581 34.0249L43.864 18.7508Z" fill="#666666"/>
<path d="M61.8199 18.7508H65.5345V20.8304C66.8635 19.2145 68.4459 18.4066 70.2816 18.4066C71.2569 18.4066 72.103 18.6074 72.8201 19.009C73.5372 19.4105 74.1252 20.0177 74.5842 20.8304C75.2534 20.0177 75.9753 19.4105 76.7498 19.009C77.5242 18.6074 78.3513 18.4066 79.2309 18.4066C80.3496 18.4066 81.2961 18.6361 82.0706 19.095C82.845 19.5444 83.4235 20.2089 83.8059 21.0885C84.0832 21.7387 84.2219 22.7904 84.2219 24.2437V33.9818H80.1918V25.2763C80.1918 23.7657 80.0532 22.7904 79.7759 22.3506C79.403 21.7769 78.8293 21.4901 78.0549 21.4901C77.4908 21.4901 76.9601 21.6622 76.4629 22.0064C75.9658 22.3506 75.6072 22.8574 75.3873 23.5266C75.1674 24.1864 75.0574 25.2333 75.0574 26.6675V33.9818H71.0274V25.6349C71.0274 24.1529 70.9557 23.1968 70.8123 22.7665C70.6688 22.3363 70.4442 22.016 70.1382 21.8056C69.8418 21.5953 69.4355 21.4901 68.9191 21.4901C68.2977 21.4901 67.7383 21.6574 67.2412 21.9921C66.744 22.3267 66.3854 22.8096 66.1655 23.4406C65.9552 24.0716 65.85 25.1186 65.85 26.5814V33.9818H61.8199V18.7508Z" fill="#666666"/>
<path d="M91.2637 23.3976L87.6065 22.7378C88.0177 21.2654 88.7252 20.1754 89.7291 19.4679C90.733 18.7604 92.2246 18.4066 94.2038 18.4066C96.0013 18.4066 97.3398 18.6217 98.2195 19.052C99.0991 19.4727 99.7158 20.0129 100.07 20.6726C100.433 21.3228 100.615 22.5227 100.615 24.2724L100.572 28.9765C100.572 30.3151 100.634 31.3047 100.758 31.9453C100.892 32.5763 101.136 33.2552 101.489 33.9818H97.5024C97.3972 33.7141 97.2681 33.3173 97.1152 32.7915C97.0482 32.5524 97.0004 32.3947 96.9717 32.3182C96.2833 32.9875 95.5471 33.4894 94.7631 33.8241C93.9791 34.1587 93.1425 34.326 92.2533 34.326C90.6852 34.326 89.4471 33.9006 88.5387 33.0496C87.64 32.1987 87.1906 31.123 87.1906 29.8227C87.1906 28.9622 87.3962 28.1973 87.8073 27.528C88.2184 26.8492 88.7921 26.3329 89.5283 25.9791C90.2741 25.6158 91.345 25.3002 92.7409 25.0325C94.6245 24.6788 95.9296 24.3489 96.6562 24.0429V23.6414C96.6562 22.8669 96.465 22.3172 96.0825 21.9921C95.7001 21.6574 94.9782 21.4901 93.9169 21.4901C93.1998 21.4901 92.6405 21.6335 92.2389 21.9204C91.8374 22.1976 91.5123 22.69 91.2637 23.3976ZM96.6562 26.6675C96.1399 26.8396 95.3224 27.0452 94.2038 27.2842C93.0851 27.5232 92.3537 27.7575 92.0095 27.9869C91.4836 28.3598 91.2207 28.8331 91.2207 29.4068C91.2207 29.9709 91.431 30.4585 91.8517 30.8697C92.2724 31.2808 92.8078 31.4863 93.458 31.4863C94.1846 31.4863 94.8778 31.2473 95.5376 30.7693C96.0252 30.4059 96.3455 29.9613 96.4985 29.4355C96.6036 29.0913 96.6562 28.4363 96.6562 27.4706V26.6675Z" fill="#666666"/>
<path d="M103.182 29.6363L107.226 29.0196C107.398 29.8036 107.747 30.4012 108.273 30.8123C108.799 31.2139 109.535 31.4146 110.482 31.4146C111.524 31.4146 112.308 31.2234 112.834 30.841C113.188 30.5733 113.364 30.2147 113.364 29.7653C113.364 29.4594 113.269 29.206 113.078 29.0052C112.877 28.814 112.427 28.6371 111.729 28.4746C108.479 27.7575 106.418 27.1025 105.548 26.5097C104.343 25.6875 103.741 24.5449 103.741 23.082C103.741 21.7626 104.262 20.6535 105.304 19.7547C106.346 18.856 107.962 18.4066 110.152 18.4066C112.236 18.4066 113.785 18.746 114.799 19.4249C115.812 20.1037 116.51 21.1077 116.893 22.4367L113.092 23.1394C112.929 22.5466 112.619 22.0925 112.16 21.7769C111.71 21.4614 111.065 21.3037 110.224 21.3037C109.162 21.3037 108.402 21.4519 107.943 21.7483C107.637 21.9586 107.484 22.2311 107.484 22.5657C107.484 22.8526 107.618 23.0964 107.886 23.2972C108.249 23.5649 109.502 23.9426 111.643 24.4302C113.795 24.9178 115.296 25.5154 116.147 26.2229C116.988 26.94 117.409 27.9391 117.409 29.2203C117.409 30.6163 116.826 31.8162 115.659 32.8201C114.493 33.8241 112.767 34.326 110.482 34.326C108.407 34.326 106.762 33.9053 105.548 33.0639C104.343 32.2226 103.555 31.08 103.182 29.6363Z" fill="#666666"/>
</g>
</g>
</svg>
